<svg id="ba8bcf5c-f192-47fb-b695-bc75d655fb50" data-name="Слой 1" xmlns="http://www.w3.org/2000/svg" viewBox="0 0 2219.82 342.91"><defs><style>.e7681e12-1693-446f-a247-433a1c3fb389{fill:#39f;}.\35 e566998-39ee-492f-aa92-847a4130cc72{fill:#343535;}.\39 ce4d65e-d0e1-4b77-b6ab-01f5a6b68b77{fill:#828384;}.\33 b31f00a-959e-4fa6-aa80-19ba49fcfe5f{fill:#06c;}.de4df550-85a3-4125-9ed1-8195f4428a6b{fill:#131313;}.\36 8af66bb-e3d8-4090-88e0-dfb13da0e489{fill:#2f3030;}.\38 04f579e-48c5-49dc-a710-106dd7c092f4{fill:#3096ff;}</style></defs><title>etherdelta</title><g id="a0ecd100-8d32-4ccb-821c-cb19cb0fe217" data-name="Layer 1"><polygon class="e7681e12-1693-446f-a247-433a1c3fb389" points="6.26 263.59 6.65 262.99 6.25 263.01 6.26 263.59"/><polygon class="e7681e12-1693-446f-a247-433a1c3fb389" points="22.81 94.9 0 59.59 6.23 262.5 25.69 232.22 22.81 94.9"/><polygon class="5e566998-39ee-492f-aa92-847a4130cc72" points="25.69 232.22 6.23 262.5 5.9 263.02 6.25 263.01 6.65 262.99 45.43 261.46 26.06 250.04 25.69 232.22"/><polygon class="9ce4d65e-d0e1-4b77-b6ab-01f5a6b68b77" points="65.36 273.21 13.79 275.24 182.98 342.91 182.6 342.31 65.36 273.21"/><polygon class="e7681e12-1693-446f-a247-433a1c3fb389" points="99.78 58.3 86.87 18.37 40.45 215.64 67.08 191.43 99.78 58.3"/><polygon class="e7681e12-1693-446f-a247-433a1c3fb389" points="40.2 216.71 40.73 216.22 40.34 216.13 40.2 216.71"/><polygon class="5e566998-39ee-492f-aa92-847a4130cc72" points="67.08 191.43 40.45 215.64 40 216.06 40.34 216.13 40.73 216.22 78.58 224.78 62.83 208.74 67.08 191.43"/><polygon class="9ce4d65e-d0e1-4b77-b6ab-01f5a6b68b77" points="94.79 241.29 44.45 229.91 190.6 339.23 190.41 338.65 94.79 241.29"/><polygon class="e7681e12-1693-446f-a247-433a1c3fb389" points="183.81 42.04 181.75 0 85.56 179.08 117.55 162.58 183.81 42.04"/><polygon class="e7681e12-1693-446f-a247-433a1c3fb389" points="85.05 180.04 85.68 179.72 85.32 179.53 85.05 180.04"/><polygon class="5e566998-39ee-492f-aa92-847a4130cc72" points="117.55 162.58 85.56 179.08 85.01 179.37 85.32 179.53 85.68 179.72 120.02 197.78 108.96 178.21 117.55 162.58"/><polygon class="9ce4d65e-d0e1-4b77-b6ab-01f5a6b68b77" points="131.41 217.91 85.73 193.9 198.31 336.95 198.27 336.18 131.41 217.91"/><polygon class="e7681e12-1693-446f-a247-433a1c3fb389" points="137.74 156.1 138.43 155.95 138.14 155.68 137.74 156.1"/><polygon class="e7681e12-1693-446f-a247-433a1c3fb389" points="268.74 48.49 277.59 7.38 138.49 155.31 173.65 147.65 268.74 48.49"/><polygon class="5e566998-39ee-492f-aa92-847a4130cc72" points="173.65 147.65 138.49 155.31 137.88 155.44 138.14 155.68 138.43 155.95 166.93 182.29 161.31 160.52 173.65 147.65"/><polygon class="9ce4d65e-d0e1-4b77-b6ab-01f5a6b68b77" points="172.72 204.69 134.82 169.66 206.59 337.12 206.74 336.41 172.72 204.69"/><polygon class="e7681e12-1693-446f-a247-433a1c3fb389" points="194.55 146.42 370.25 37.65 311.6 151.98 194.55 146.42"/><polygon class="3b31f00a-959e-4fa6-aa80-19ba49fcfe5f" points="370.25 37.65 311.6 151.98 384.37 243.82 370.25 37.65"/><polyline class="5e566998-39ee-492f-aa92-847a4130cc72" points="311.91 151.37 260.99 250.6 194.86 145.82"/><polyline class="de4df550-85a3-4125-9ed1-8195f4428a6b" points="311.91 151.37 260.99 250.6 384.68 243.22"/><polyline class="9ce4d65e-d0e1-4b77-b6ab-01f5a6b68b77" points="188.22 158.76 254.35 263.55 214.51 341.2"/><polyline class="68af66bb-e3d8-4090-88e0-dfb13da0e489" points="254.35 263.55 214.51 341.2 378.07 256.18"/></g><path class="de4df550-85a3-4125-9ed1-8195f4428a6b" d="M138.84-294.07H29.42v101.48H151.36v30.48H-6.91V-443.57h152v30.48H29.42v88.95H138.84Z" transform="translate(436.89 479.52)"/><path class="de4df550-85a3-4125-9ed1-8195f4428a6b" d="M240.32-422.28v58h52.61v28H240.32v109c0,25.05,7.09,39.25,27.56,39.25a81.33,81.33,0,0,0,21.29-2.51l1.67,27.57c-7.1,2.92-18.37,5-32.57,5-17.12,0-30.9-5.43-39.67-15.45-10.44-10.86-14.2-28.82-14.2-52.62V-336.25H173.08v-28H204.4v-48.44Z" transform="translate(436.89 479.52)"/><path class="de4df550-85a3-4125-9ed1-8195f4428a6b" d="M334.27-458.61H371v126.12h.84a68.09,68.09,0,0,1,26.31-25.89,75.54,75.54,0,0,1,37.58-10.44c27.15,0,70.58,16.7,70.58,86.44v120.27H469.58V-278.2c0-32.58-12.11-60.14-46.77-60.14-23.81,0-42.6,16.71-49.28,36.75-2.09,5-2.51,10.44-2.51,17.54v121.94H334.27Z" transform="translate(436.89 479.52)"/><path class="de4df550-85a3-4125-9ed1-8195f4428a6b" d="M586.5-256.49c.84,49.7,32.58,70.16,69.33,70.16,26.31,0,42.17-4.59,56-10.44l6.26,26.31c-12.95,5.85-35.08,12.53-67.23,12.53-62.23,0-99.39-40.93-99.39-101.9s35.91-109,94.79-109c66,0,83.52,58,83.52,95.21a138,138,0,0,1-1.25,17.12ZM694.25-282.8c.41-23.38-9.61-59.71-51-59.71-37.17,0-53.45,34.24-56.38,59.71Z" transform="translate(436.89 479.52)"/><path class="de4df550-85a3-4125-9ed1-8195f4428a6b" d="M775.26-301.17c0-23.8-.42-44.27-1.67-63.06h32.15L807-324.56h1.67c9.19-27.14,31.32-44.26,56-44.26a40,40,0,0,1,10.44,1.25v34.66a55.55,55.55,0,0,0-12.53-1.25c-25.89,0-44.27,19.63-49.28,47.19a104,104,0,0,0-1.67,17.12v107.74H775.26Z" transform="translate(436.89 479.52)"/><path class="804f579e-48c5-49dc-a710-106dd7c092f4" d="M913.07-439.81a519.05,519.05,0,0,1,77.25-5.85c52.2,0,89.37,12.11,114,35.08,25.06,23,39.67,55.54,39.67,101.06,0,45.93-14.2,83.52-40.51,109.41-26.3,26.31-69.74,40.51-124.44,40.51a588.28,588.28,0,0,1-66-3.34ZM949.4-190.92c9.19,1.67,22.55,2.09,36.75,2.09,77.67,0,119.85-43.44,119.85-119.44.42-66.4-37.17-108.58-114-108.58-18.79,0-33,1.67-42.59,3.76Z" transform="translate(436.89 479.52)"/><path class="804f579e-48c5-49dc-a710-106dd7c092f4" d="M1212.07-256.49c.83,49.7,32.57,70.16,69.32,70.16,26.31,0,42.18-4.59,56-10.44l6.26,26.31c-12.94,5.85-35.08,12.53-67.23,12.53-62.22,0-99.39-40.93-99.39-101.9s35.91-109,94.79-109c66,0,83.53,58,83.53,95.21a137.6,137.6,0,0,1-1.26,17.12Zm107.74-26.31c.42-23.38-9.61-59.71-51-59.71-37.17,0-53.45,34.24-56.38,59.71Z" transform="translate(436.89 479.52)"/><path class="804f579e-48c5-49dc-a710-106dd7c092f4" d="M1400.82-458.61h36.75v296.5h-36.75Z" transform="translate(436.89 479.52)"/><path class="804f579e-48c5-49dc-a710-106dd7c092f4" d="M1543.64-422.28v58h52.62v28h-52.62v109c0,25.05,7.1,39.25,27.56,39.25a81.36,81.36,0,0,0,21.3-2.51l1.67,27.57c-7.1,2.92-18.37,5-32.57,5-17.12,0-30.91-5.43-39.67-15.45-10.45-10.86-14.2-28.82-14.2-52.62V-336.25h-31.32v-28h31.32v-48.44Z" transform="translate(436.89 479.52)"/><path class="804f579e-48c5-49dc-a710-106dd7c092f4" d="M1749.52-162.11l-2.92-25.47h-1.26c-11.27,15.87-33,30.07-61.8,30.07-40.93,0-61.81-28.82-61.81-58.05,0-48.86,43.43-75.59,121.52-75.17v-4.18c0-16.7-4.59-46.77-45.93-46.77-18.8,0-38.42,5.85-52.62,15l-8.35-24.23c16.7-10.85,40.92-17.95,66.4-17.95,61.8,0,76.84,42.18,76.84,82.68v75.59c0,17.54.83,34.66,3.34,48.44Zm-5.43-103.15c-40.09-.83-85.61,6.27-85.61,45.52,0,23.81,15.87,35.08,34.66,35.08,26.31,0,43-16.7,48.86-33.82a38.49,38.49,0,0,0,2.09-11.7Z" transform="translate(436.89 479.52)"/></svg>