<svg xmlns="http://www.w3.org/2000/svg" viewBox="0 0 409.76 112.05"><defs><style>.a{fill:#004b6a;}.b{fill:#fff;}</style></defs><title>idex</title><path class="a" d="M195.55,140H175.24V28h20.31Z" transform="translate(-175.24 -27.96)"/><path class="a" d="M331.1,93.14A48.93,48.93,0,0,1,327.54,112a44,44,0,0,1-24.65,24.53A48.72,48.72,0,0,1,284.22,140H229.38a10.48,10.48,0,0,1-4.06-.78,9.77,9.77,0,0,1-5.39-5.39,10.48,10.48,0,0,1-.78-4.06V38.21a10.18,10.18,0,0,1,.78-4,10.36,10.36,0,0,1,2.15-3.28,9.67,9.67,0,0,1,3.24-2.19,10.48,10.48,0,0,1,4.06-.78h54.84a48.92,48.92,0,0,1,18.67,3.52,44,44,0,0,1,24.65,24.57,48.76,48.76,0,0,1,3.55,18.79ZM310.78,74.86A29.61,29.61,0,0,0,308.87,64a23.66,23.66,0,0,0-5.43-8.4,24.54,24.54,0,0,0-8.4-5.39,29.4,29.4,0,0,0-10.82-1.91H239.45v71.4h44.77A29.39,29.39,0,0,0,295,117.79a24.54,24.54,0,0,0,8.4-5.39,23.77,23.77,0,0,0,5.43-8.36,29.61,29.61,0,0,0,1.91-10.9Z" transform="translate(-175.24 -27.96)"/><path class="b" d="M452.27,140H379a32.79,32.79,0,0,1-9.22-1.48,27,27,0,0,1-16.37-13.71,28.27,28.27,0,0,1-2.85-13.32V38.21a10.18,10.18,0,0,1,.78-4,10.36,10.36,0,0,1,2.15-3.28,9.67,9.67,0,0,1,3.24-2.19,10.48,10.48,0,0,1,4.06-.78h91.48V48.29H370.86v63.2a8.26,8.26,0,0,0,2.11,6.09c1.41,1.41,3.46,2.11,6.17,2.11h73.13Zm-9.14-45.78H379V73.76h64.14Z" transform="translate(-175.24 -27.96)"/><path class="b" d="M523,68l34.22-40H585L536.8,84.15,584.69,140H557.11L523,100.32,489.14,140H461.49L509.3,84.15,461.33,28h27.5Z" transform="translate(-175.24 -27.96)"/></svg>