<svg id="3a05daf0-6bb4-4e6f-bbd4-6177ef43172b" data-name="图层 1" xmlns="http://www.w3.org/2000/svg" viewBox="0 0 188.73 58"><defs><style>.d3c15f1e-1302-46fa-875b-be59f3bc752f{fill:#fff;}</style></defs><title>oex</title><polygon class="d3c15f1e-1302-46fa-875b-be59f3bc752f" points="43.8 30.7 31.8 30.7 28.8 27.3 43.8 27.3 43.8 30.7"/><path class="d3c15f1e-1302-46fa-875b-be59f3bc752f" d="M57.6,1.5a29,29,0,1,0,29,29A29,29,0,0,0,57.6,1.5Zm-.2,54a25,25,0,1,1,25-25A25,25,0,0,1,57.4,55.5Z" transform="translate(-28.6 -1.5)"/><path class="d3c15f1e-1302-46fa-875b-be59f3bc752f" d="M57.4,7.5a23,23,0,1,0,23,23A23,23,0,0,0,57.4,7.5ZM73.5,37a16.69,16.69,0,0,1-28.6,3.7v5.1a.28.28,0,0,1-.5.2l-2.9-2.7a.37.37,0,0,1-.1-.3V30.5h0a1.79,1.79,0,0,1,1.8-1.8h12l3,3.5H45a13.22,13.22,0,0,0,25.3,3.4A1.75,1.75,0,1,1,73.5,37Zm-1.3-4.8h-12l-3-3.5H70.3A13.22,13.22,0,0,0,45,25.3a1.75,1.75,0,1,1-3.2-1.4,16.69,16.69,0,0,1,28.6-3.7V15.1a.28.28,0,0,1,.5-.2l2.9,2.7a.37.37,0,0,1,.1.3V30.5A1.69,1.69,0,0,1,72.2,32.2Z" transform="translate(-28.6 -1.5)"/><path class="d3c15f1e-1302-46fa-875b-be59f3bc752f" d="M123.4,54h-10a15,15,0,0,1-15-15V22a15,15,0,0,1,15-15h10a15,15,0,0,1,15,15V39A15,15,0,0,1,123.4,54Zm-10-41a9,9,0,0,0-9,9V39a9,9,0,0,0,9,9h10a9,9,0,0,0,9-9V22a9,9,0,0,0-9-9Z" transform="translate(-28.6 -1.5)"/><path class="d3c15f1e-1302-46fa-875b-be59f3bc752f" d="M169.4,54h-10a15,15,0,0,1-15-15V22a15,15,0,0,1,15-15h10a3,3,0,0,1,3,3,3,3,0,0,1-3,3h-10a9,9,0,0,0-9,9V39a9,9,0,0,0,9,9h10a3,3,0,0,1,3,3A3,3,0,0,1,169.4,54Z" transform="translate(-28.6 -1.5)"/><path class="d3c15f1e-1302-46fa-875b-be59f3bc752f" d="M196.4,34h-47a3,3,0,0,1,0-6h47a3,3,0,0,1,3,3A3,3,0,0,1,196.4,34Z" transform="translate(-28.6 -1.5)"/><path class="d3c15f1e-1302-46fa-875b-be59f3bc752f" d="M195.6,32.2c0-.1-.1-.2-.1-.3a.37.37,0,0,0-.1-.3.37.37,0,0,0-.1-.3v-.9a.37.37,0,0,1,.1-.3c0-.1.1-.2.1-.3s.1-.2.1-.3.1-.2.2-.3.1-.1.1-.2l16-21a3,3,0,0,1,4.8,3.6L202.2,31l14.5,18.2a3,3,0,0,1-.5,4.2,3.41,3.41,0,0,1-1.9.7A2.84,2.84,0,0,1,212,53L196,33c0-.1-.1-.1-.1-.2s-.1-.2-.2-.3S195.7,32.3,195.6,32.2Z" transform="translate(-28.6 -1.5)"/><path class="d3c15f1e-1302-46fa-875b-be59f3bc752f" d="M201.1,32.2c0-.1.1-.2.1-.3a3532150915670.55,3532150915670.55,0,0,0,.2-.6v-.9a.37.37,0,0,0-.1-.3c0-.1-.1-.2-.1-.3s-.1-.2-.1-.3-.1-.2-.2-.3-.1-.1-.1-.2l-16-21a3,3,0,0,0-4.8,3.6L194.6,31,180,49.1a3,3,0,0,0,.5,4.2,3.41,3.41,0,0,0,1.9.7,2.84,2.84,0,0,0,2.3-1.1l16-20c0-.1.1-.1.1-.2s.1-.2.2-.3S201.1,32.3,201.1,32.2Z" transform="translate(-28.6 -1.5)"/></svg>