<svg id="437d669c-8759-4607-b48a-e3cf42973e4e" data-name="Layer 1" xmlns="http://www.w3.org/2000/svg" viewBox="0 0 128.9 33.1"><defs><style>.\32 8e0f5fb-41c4-4275-be6c-0f957e8125fc{fill:#fff;}</style></defs><title>simex</title><path class="28e0f5fb-41c4-4275-be6c-0f957e8125fc" d="M53.4,9.4A9.18,9.18,0,0,0,48.9,8a2.48,2.48,0,0,0-2.8,2.6c0,4.6,8.7,3.5,8.7,10.5,0,4.1-3.4,6.4-7.6,6.4-4.9,0-6.5-2.6-6.5-2.6L42,23a6.78,6.78,0,0,0,5,2c2.1,0,3.3-1.2,3.3-3,0-4.1-8.6-3.4-8.6-10.1,0-3.9,2.9-6.3,7-6.3A10.67,10.67,0,0,1,54,7.1Zm9.5,17.8H58.3V6h4.6Zm28,0H86.4l-.2-16h-.1l-6,16H76.7l-6-16h-.1l-.1,16H67.7L68,6h5.5l6,15.6h.1L85.6,6h5.1Zm18.3,0H95.8V6h12.9V8.3h-8.3v7h7.3v2.3h-7.3v7.2h8.8Zm8.1-10.3L110.9,6h5.7l4,7.6h.1L125.3,6h3.2l-6.3,9.8,7,11.4h-5.7l-4.6-8.1h-.1l-4.9,8.1h-3.4ZM13.6,8.1a4.8,4.8,0,0,0,0,9.6h6a2.4,2.4,0,0,1,0,4.8h-6a9.7,9.7,0,0,1,0-19.4H32A7.3,7.3,0,0,0,26-.1H7.5A7.17,7.17,0,0,0,.3,7.1V24.8H20a4.8,4.8,0,0,0,0-9.6H14a2.37,2.37,0,0,1-2.4-2.4A2.43,2.43,0,0,1,14,10.4h6a9.7,9.7,0,0,1,0,19.4H1.5a7.3,7.3,0,0,0,6,3.2H26.1a7.17,7.17,0,0,0,7.2-7.2V8.1Z" transform="translate(-0.3 0.1)"/></svg>