<svg xmlns="http://www.w3.org/2000/svg" viewBox="0 0 103.74 26"><defs><style>.a{fill:#fff;}.b{fill:#00c29d;}</style></defs><title>Tidex</title><polygon class="a" points="92.26 10.2 98.63 0.51 102.77 0.51 94.42 12.61 103.74 26 99.39 26 92.15 15.16 85.02 26 80.73 26 89.99 12.57 81.53 0.51 85.85 0.51 92.26 10.2"/><polyline class="b" points="92.15 15.16 85.02 26 80.73 26 89.99 12.57 81.53 0.51 85.85 0.51 92.26 10.2 92.26 10.2"/><rect class="a" x="60.3" width="17" height="4"/><rect class="a" x="60.3" y="11" width="17" height="4"/><rect class="a" x="60.3" y="22" width="17" height="4"/><polygon class="b" points="94.36 12.58 92.09 15.22 92.16 10.07 94.36 12.58"/><path class="a" d="M27.17,26H23.58V.23h3.59ZM33.42.23h8.82A17.24,17.24,0,0,1,47.18,1a13.26,13.26,0,0,1,4.47,2.29,11.83,11.83,0,0,1,3.23,4,12.9,12.9,0,0,1,1.23,5.86,12.55,12.55,0,0,1-1.23,5.74,12,12,0,0,1-3.23,4,13.83,13.83,0,0,1-4.47,2.37,16.33,16.33,0,0,1-4.94.78H33.42ZM37,22.83h4.5a13.86,13.86,0,0,0,4.31-.65,10.08,10.08,0,0,0,3.41-1.89,8.47,8.47,0,0,0,2.23-3.06,10.06,10.06,0,0,0,.8-4.12,10.32,10.32,0,0,0-.8-4.22,8.31,8.31,0,0,0-2.23-3A9.84,9.84,0,0,0,45.82,4a13.86,13.86,0,0,0-4.31-.64H37Z" transform="translate(-0.08 0)"/><polygon class="a" points="13.2 0.23 20.08 0.23 20.08 3.4 13.2 3.4 13.2 0.23"/><polygon class="b" points="11.84 26 8.24 26 8.24 3.4 0 3.4 0 0.23 11.84 0.23 11.84 3.4 11.84 26"/></svg>