<svg xmlns="http://www.w3.org/2000/svg" viewBox="0 0 396.85 113.39"><defs><style>.a{fill:#666566;}.b{fill:#fff;}</style></defs><title>unknown</title><rect class="a" width="396.85" height="113.39" rx="8.5" ry="8.5"/><path class="b" d="M220.26,37.94a19.11,19.11,0,0,1-1.11,6.77,15.31,15.31,0,0,1-3.17,5.1,22.68,22.68,0,0,1-4.91,3.88,44.8,44.8,0,0,1-6.47,3.11v8.65H191.26V52.66q2.69-.72,4.87-1.48a18.47,18.47,0,0,0,4.57-2.47,12,12,0,0,0,3.5-3.53,8.34,8.34,0,0,0,1.28-4.56q0-3.79-2.45-5.41a12.48,12.48,0,0,0-6.88-1.61A19.29,19.29,0,0,0,190,34.77a28.32,28.32,0,0,0-6.28,3h-1.52V26.24A53.2,53.2,0,0,1,199.9,23q9.36,0,14.87,4.14A12.92,12.92,0,0,1,220.26,37.94Zm-14.6,42.68H190.35v-10h15.31Z" transform="translate(-2.8 4.89)"/></svg>