<svg width="125" height="85" xmlns="http://www.w3.org/2000/svg">

 <g>
  <title>background</title>
  <rect fill="none" id="canvas_background" height="87" width="127" y="-1" x="-1"/>
 </g>
 <g>
  <title>Layer 1</title>
  <path fill="#ff9933" id="svg_1" d="m107.206612,50.545455c-4.813,0 -9.12,2.137 -12.054,5.501l-20.303,-10.151c0.23,-1.081 0.357,-2.201 0.357,-3.35s-0.127,-2.269 -0.357,-3.349l20.303,-10.152c2.933,3.365 7.241,5.501 12.054,5.501c8.836,0 16,-7.164 16,-16s-7.164,-16 -16,-16s-16,7.164 -16,16c0,1.149 0.127,2.269 0.357,3.349l-20.303,10.152c-2.933,-3.365 -7.24,-5.501 -12.054,-5.501c-8.836,0 -16,7.164 -16,16c0,8.836 7.164,16 16,16c4.814,0 9.12,-2.137 12.054,-5.501l20.304,10.152c-0.231,1.08 -0.358,2.2 -0.358,3.349c0,8.836 7.164,16 16,16s16,-7.164 16,-16s-7.164,-16 -16,-16zm0,-40c4.418,0 8,3.582 8,8s-3.582,8 -8,8s-8,-3.582 -8,-8s3.582,-8 8,-8zm-48,40c-4.418,0 -8,-3.582 -8,-8c0,-4.418 3.582,-8 8,-8s8,3.582 8,8c0,4.418 -3.582,8 -8,8zm48,24c-4.418,0 -8,-3.582 -8,-8s3.582,-8 8,-8s8,3.582 8,8s-3.582,8 -8,8z"/>
  <text font-weight="bold" xml:space="preserve" text-anchor="start" font-family="Helvetica, Arial, sans-serif" font-size="63" id="svg_2" y="59.194214" x="-0.336158" stroke-opacity="null" stroke-width="0" stroke="null" fill="#ff9933">+</text>
 </g>
</svg>