<svg xmlns="http://www.w3.org/2000/svg" viewBox="0 0 136.06 136.06"><defs><style>.a{fill:#f93;}.b{isolation:isolate;}</style></defs><title>conversion</title><path class="a" d="M118.06,77a18,18,0,0,0-13.56,6.19L81.65,71.8a17.88,17.88,0,0,0,0-7.54L104.5,52.84a18,18,0,1,0-4-8L77.62,56.22a18,18,0,1,0,0,23.63l22.85,11.42A18,18,0,1,0,118.06,77Zm0-45a9,9,0,1,1-9,9A9,9,0,0,1,118.06,32Zm-54,45a9,9,0,1,1,9-9A9,9,0,0,1,64.05,77Zm54,27a9,9,0,1,1,9-9A9,9,0,0,1,118.06,104Z"/><g class="b"><path class="a" d="M13.29,79.46V66.27H0v-9.1H13.29V44h8.86V57.17H35.48v9.1H22.15V79.46Z"/></g></svg>