<svg width="500" height="500" xmlns="http://www.w3.org/2000/svg">

 <g>
  <title>background</title>
  <rect fill="none" id="canvas_background" height="402" width="582" y="-1" x="-1"/>
 </g>
 <g>
  <title>Layer 1</title>
  <path fill="#ff9933" id="svg_3" d="m113.6,311c-30.2,0 -54.8,-24.6 -54.8,-54.8c0,-30.2 24.6,-54.8 54.8,-54.8s54.8,24.6 54.8,54.8c0,30.3 -24.6,54.8 -54.8,54.8zm0,-82.1c-15.1,0 -27.4,12.3 -27.4,27.4c0,15.1 12.3,27.4 27.4,27.4s27.4,-12.3 27.4,-27.4c0,-15.1 -12.3,-27.4 -27.4,-27.4z"/>
  <path fill="#ff9933" id="svg_5" d="m346.3,365.8l-27.4,0c0,-37.7 -30.7,-68.4 -68.4,-68.4s-68.4,30.7 -68.4,68.4l-27.4,0c0,-52.8 43,-95.8 95.8,-95.8s95.8,43 95.8,95.8z"/>
  <path fill="#ff9933" id="svg_7" d="m387.4,311c-30.2,0 -54.8,-24.6 -54.8,-54.8c0,-30.2 24.6,-54.8 54.8,-54.8c30.2,0 54.8,24.6 54.8,54.8c-0.1,30.3 -24.6,54.8 -54.8,54.8zm0,-82.1c-15.1,0 -27.4,12.3 -27.4,27.4c0,15.1 12.3,27.4 27.4,27.4c15.1,0 27.4,-12.3 27.4,-27.4c0,-15.1 -12.3,-27.4 -27.4,-27.4z"/>
  <path fill="#ff9933" id="svg_9" d="m250.5,297.4c-37.7,0 -68.4,-30.7 -68.4,-68.4s30.7,-68.4 68.4,-68.4s68.4,30.7 68.4,68.4s-30.7,68.4 -68.4,68.4zm0,-109.5c-22.6,0 -41.1,18.4 -41.1,41.1s18.4,41.1 41.1,41.1s41.1,-18.4 41.1,-41.1s-18.5,-41.1 -41.1,-41.1z"/>
  <path fill="#ff9933" id="svg_11" d="m346.3,365.8l-27.4,0l0,-13.7c0,-37.7 30.7,-68.4 68.4,-68.4s68.4,30.7 68.4,68.4l-27.4,0c0,-22.6 -18.4,-41.1 -41.1,-41.1s-41.1,18.4 -41.1,41.1l0,13.7l0.2,0z"/>
  <path fill="#ff9933" id="svg_13" d="m182.1,365.8l-27.4,0l0,-13.7c0,-22.6 -18.4,-41.1 -41.1,-41.1s-41.1,18.4 -41.1,41.1l-27.3,0c0,-37.7 30.7,-68.4 68.4,-68.4s68.4,30.7 68.4,68.4l0,13.7l0.1,0z"/>
  <text font-weight="bold" xml:space="preserve" text-anchor="start" font-family="Helvetica, Arial, sans-serif" font-size="200" id="svg_14" y="442.966478" x="191.06911" stroke-opacity="null" stroke-width="0" stroke="null" fill="#ff9933">+</text>
 </g>
</svg>