<svg xmlns="http://www.w3.org/2000/svg" viewBox="0 0 136.06 136.06"><defs><style>.a{fill:#f93;}.b{isolation:isolate;}</style></defs><title>kpi</title><path class="a" d="M22.67,74.5A18.16,18.16,0,1,1,40.84,56.34,18.19,18.19,0,0,1,22.67,74.5Zm0-27.21a9.08,9.08,0,1,0,9.08,9.08A9.1,9.1,0,0,0,22.67,47.29Z"/><path class="a" d="M99.8,92.67H90.72a22.67,22.67,0,1,0-45.34,0H36.29a31.75,31.75,0,0,1,63.51,0Z"/><path class="a" d="M113.42,74.5a18.16,18.16,0,1,1,18.16-18.16A18.19,18.19,0,0,1,113.42,74.5Zm0-27.21a9.08,9.08,0,1,0,9.08,9.08A9.1,9.1,0,0,0,113.42,47.29Z"/><path class="a" d="M68,70A22.67,22.67,0,1,1,90.72,47.32,22.7,22.7,0,0,1,68,70ZM68,33.7A13.62,13.62,0,1,0,81.67,47.32,13.64,13.64,0,0,0,68,33.7Z"/><path class="a" d="M99.8,92.67H90.72V88.12a22.67,22.67,0,1,1,45.34,0H127a13.62,13.62,0,0,0-27.25,0v4.54Z"/><path class="a" d="M45.38,92.67H36.29V88.12A13.62,13.62,0,1,0,9,88.12H0a22.67,22.67,0,0,1,45.34,0v4.54h0Z"/><g class="b"><path class="a" d="M63.53,111.41V99.08H51.1V90.57H63.53V78.23h8.29V90.57H84.28v8.51H71.82v12.33Z"/></g></svg>