<svg xmlns="http://www.w3.org/2000/svg" viewBox="0 0 136.06 136.06"><defs><style>.a{fill:#ff9733;}</style></defs><title>logo</title><path class="a" d="M103.13,66.36c-3.68-2.74-9-5.17-15.89-7.24L80.87,86.71a9.44,9.44,0,0,1-5.09,6.75c-3,1.62-7.95,2.18-14.34,2.18a52.79,52.79,0,0,1-12.08-1.31,58.73,58.73,0,0,1-9.93-3.18,41,41,0,0,1-7.59-3.79A53.37,53.37,0,0,1,27.4,84l-.34-.3H22.93l-6.08,26.09.86.43c4,2,9.79,3.77,17.23,5.25,3,.61,6.17,1,9.32,1.37l-4.45,19.22H69.43L74,116.53c8.94-1.38,16.57-4,22.72-7.89,9.71-6.13,14.62-14.63,14.62-25.27C111.28,76.13,108.55,70.41,103.13,66.36Z"/><path class="a" d="M118.3,25c-3.31-1.63-8.49-3.16-15.43-4.56-2.17-.44-4.35-.69-6.53-1L100.84,0H71.22L66.73,19.47c-9.08,1.38-16.79,4.05-23,8C34.16,33.69,29.3,42.26,29.3,53a20.86,20.86,0,0,0,7.32,16.2c3.52,3.1,9,5.81,16.73,8.2l6-25.63c.47-1.71.61-2.42,1.14-3.9A8.27,8.27,0,0,1,65,42.56c3.19-1.42,7.89-2.15,14-2.15a50.87,50.87,0,0,1,16.52,2.75,47.78,47.78,0,0,1,13.7,7.13l.33.26h3.91l5.84-25.1Z"/></svg>