<svg xmlns="http://www.w3.org/2000/svg" viewBox="0 0 136.06 136.06"><defs><style>.a{fill:#f93;}</style></defs><title>traffic</title><path class="a" d="M117.5,0A18.55,18.55,0,0,0,99,18.55v99a18.55,18.55,0,1,0,37.11,0v-99A18.55,18.55,0,0,0,117.5,0Zm6.18,117.51a6.18,6.18,0,1,1-12.37,0v-99a6.18,6.18,0,1,1,12.37,0Z"/><path class="a" d="M68,37.11A18.55,18.55,0,0,0,49.47,55.66v61.85a18.55,18.55,0,1,0,37.11,0V55.66A18.55,18.55,0,0,0,68,37.11Zm6.18,80.4a6.18,6.18,0,1,1-12.37,0V55.66a6.18,6.18,0,1,1,12.37,0Z"/><path class="a" d="M18.55,74.22A18.55,18.55,0,0,0,0,92.77v24.74a18.55,18.55,0,1,0,37.11,0V92.77A18.55,18.55,0,0,0,18.55,74.22Zm6.18,43.29a6.18,6.18,0,1,1-12.37,0V92.77a6.18,6.18,0,0,1,12.37,0Z"/></svg>