<svg width="96" height="96" xmlns="http://www.w3.org/2000/svg">

 <g>
  <title>background</title>
  <rect fill="none" id="canvas_background" height="402" width="582" y="-1" x="-1"/>
 </g>
 <g>
  <title>Layer 1</title>
  <path fill="#ff9933" id="svg_1" d="m80,4c-6.627,0 -12,5.373 -12,12l0,64c0,6.627 5.373,12 12,12s12,-5.373 12,-12l0,-64c0,-6.627 -5.373,-12 -12,-12zm4,76c0,2.209 -1.791,4 -4,4s-4,-1.791 -4,-4l0,-64c0,-2.209 1.791,-4 4,-4s4,1.791 4,4l0,64z"/>
  <path fill="#ff9933" id="svg_2" d="m48,28c-6.627,0 -12,5.373 -12,12l0,40c0,6.627 5.373,12 12,12s12,-5.373 12,-12l0,-40c0,-6.627 -5.373,-12 -12,-12zm4,52c0,2.209 -1.791,4 -4,4s-4,-1.791 -4,-4l0,-40c0,-2.209 1.791,-4 4,-4s4,1.791 4,4l0,40z"/>
  <path fill="#ff9933" id="svg_3" d="m16,52c-6.627,0 -12,5.373 -12,12l0,16c0,6.627 5.373,12 12,12s12,-5.373 12,-12l0,-16c0,-6.627 -5.373,-12 -12,-12zm4,28c0,2.209 -1.791,4 -4,4s-4,-1.791 -4,-4l0,-16c0,-2.209 1.791,-4 4,-4s4,1.791 4,4l0,16z"/>
 </g>
</svg>