<svg xmlns="http://www.w3.org/2000/svg" viewBox="0 0 96 96"><defs><style>.a{fill:#efefef;}</style></defs><title>kakao</title><path class="a" d="M47.76,0a48,48,0,1,0,48,48A48,48,0,0,0,47.76,0ZM62.54,26v22.8a38.76,38.76,0,0,1-15.6,30.1,1.18,1.18,0,0,1-1,.1,2.49,2.49,0,0,1-.7-.5l-7.7-8.6a1.78,1.78,0,0,1-.4-1,1.74,1.74,0,0,1,.6-1.2,30.1,30.1,0,0,0,6.1-6.5,18.18,18.18,0,0,0,3-8.6h-11a2.9,2.9,0,0,1-2.9-2.9V25.88a2.9,2.9,0,0,1,2.9-2.9h24A2.66,2.66,0,0,1,62.54,26Z" transform="translate(0.24 -0.02)"/></svg>