<svg xmlns="http://www.w3.org/2000/svg" viewBox="0 0 96 96"><defs><style>.a{fill:#efefef;}</style></defs><title>medium</title><path class="a" d="M48,0A48,48,0,1,0,96,48,48,48,0,0,0,48,0ZM75.81,26.86l-4.44,4.26a1.3,1.3,0,0,0-.5,1.24V63.64a1.3,1.3,0,0,0,.5,1.24l4.33,4.26v.94H53.89v-.94l4.5-4.36c.44-.44.44-.57.44-1.24V38.25L46.34,70H44.65L30.11,38.25V59.51A2.92,2.92,0,0,0,30.92,62L36.76,69V70H20.19V69L26,62a2.82,2.82,0,0,0,.76-2.44V34.93a2.16,2.16,0,0,0-.7-1.82l-5.2-6.25v-.94H37L49.48,53.26l11-27.34H75.81Z" transform="translate(0 0)"/></svg>