<svg xmlns="http://www.w3.org/2000/svg" viewBox="0 0 96 96"><defs><style>.a{fill:#efefef;}</style></defs><title>ok</title><circle class="a" cx="48" cy="31.51" r="7.21"/><path class="a" d="M48,0A48,48,0,1,0,96,48,48,48,0,0,0,48,0Zm0,17.09A14.43,14.43,0,1,1,33.58,31.51,14.43,14.43,0,0,1,48,17.09Zm16.49,38.6C62,57.12,54.18,60.36,54.18,60.36l8.76,11.21s1.55,1.93,1.55,3.22a4.13,4.13,0,0,1-4.13,4.12,3.78,3.78,0,0,1-3-1.35s-9.3-11-9.31-11-9.31,11-9.31,11a3.78,3.78,0,0,1-3,1.35,4.13,4.13,0,0,1-4.13-4.12c0-1.29,1.55-3.22,1.55-3.22l8.76-11.21S34,57.12,31.51,55.69a3.88,3.88,0,0,1-2.06-3.57A4.13,4.13,0,0,1,33.58,48c2.06,0,6.18,4.12,14.42,4.12S60.36,48,62.42,48a4.13,4.13,0,0,1,4.13,4.12A3.88,3.88,0,0,1,64.49,55.69Z" transform="translate(0 0)"/></svg>