<svg xmlns="http://www.w3.org/2000/svg" viewBox="0 0 96 96"><defs><style>.a{fill:#efefef;}</style></defs><title>pinterest</title><path class="a" d="M47.8.5a48,48,0,1,0,48,48A48,48,0,0,0,47.8.5Zm6.06,62.72c-4,0-7.72-2.15-9-4.6,0,0-2.14,8.5-2.59,10.14C40.67,74.55,36,80.34,35.61,80.82a.49.49,0,0,1-.88-.21c-.1-.74-1.3-8,.11-14,.71-3,4.74-20.09,4.74-20.09a14.21,14.21,0,0,1-1.17-5.83c0-5.46,3.16-9.54,7.11-9.54,3.35,0,5,2.52,5,5.53,0,3.37-2.15,8.41-3.26,13.08a5.71,5.71,0,0,0,5.82,7.1c7,0,11.69-9,11.69-19.59,0-8.08-5.44-14.13-15.34-14.13-11.18,0-18.15,8.34-18.15,17.65A10.65,10.65,0,0,0,33.68,48a1.78,1.78,0,0,1,.53,2.06c-.18.68-.58,2.31-.75,3a1.27,1.27,0,0,1-1.84.93c-5.15-2.1-7.55-7.74-7.55-14.08,0-10.47,8.83-23,26.34-23C64.49,16.84,73.75,27,73.75,38,73.75,52.42,65.71,63.22,53.86,63.22Z" transform="translate(0.2 -0.5)"/></svg>