<svg xmlns="http://www.w3.org/2000/svg" viewBox="0 0 96 96"><defs><style>.a{fill:#efefef;}</style></defs><title>reddit</title><path class="a" d="M26.51,42.35a5.22,5.22,0,0,0-2.13-.55l-.36,0h0A4.5,4.5,0,0,0,21.15,43a4,4,0,0,0-1.32,2.74h0c0,.08,0,.17,0,.25a3.63,3.63,0,0,0,.55,1.86A5,5,0,0,0,21.31,49,19.93,19.93,0,0,1,26.51,42.35Z" transform="translate(0 0)"/><path class="a" d="M58.41,41h0c-.84-.26-1.69-.49-2.55-.68A35.29,35.29,0,0,0,37.59,41C33.21,42.36,29,44.81,26.27,48.6h0a11.34,11.34,0,0,0-2.18,6.59,9.67,9.67,0,0,0,.33,2.56h0a12.75,12.75,0,0,0,2.71,5,19.49,19.49,0,0,0,4.4,3.75q.52.33,1.08.63A31.56,31.56,0,0,0,48,70.93c.91,0,1.82,0,2.72-.09a29.43,29.43,0,0,0,15.17-5.29h0a16.65,16.65,0,0,0,3.71-3.69,12.11,12.11,0,0,0,2.11-4.73h0a9.93,9.93,0,0,0,.2-1.95,11.38,11.38,0,0,0-2.21-6.57A21.7,21.7,0,0,0,58.41,41ZM34.64,54.13a4.18,4.18,0,0,1-.78-2.42,3.75,3.75,0,0,1,.19-1.19h0a4.12,4.12,0,0,1,3.06-2.75h0a4.11,4.11,0,0,1,.85-.1,4.19,4.19,0,0,1,2.83,1.14,3.88,3.88,0,0,1,1.28,2.83v.25a3.82,3.82,0,0,1-1.3,2.83A4.27,4.27,0,0,1,38,55.84a3.68,3.68,0,0,1-1.26-.22h0A4,4,0,0,1,34.64,54.13ZM60.24,63h0a2.27,2.27,0,0,1-.48.88,3.06,3.06,0,0,1-.71.59c-.5.31-1,.53-1.45.77h0a23.63,23.63,0,0,1-10,2.24,19.19,19.19,0,0,1-10.84-3.16,1.76,1.76,0,0,1-.74-.74,2.18,2.18,0,0,1-.26-1,2.13,2.13,0,0,1,.31-1.12,1.86,1.86,0,0,1,.9-.75h0a1.69,1.69,0,0,1,.74-.17,1.93,1.93,0,0,1,.81.18,3.82,3.82,0,0,1,.69.38,8.43,8.43,0,0,0,1.15.71h0a16.4,16.4,0,0,0,7.25,1.64,18.93,18.93,0,0,0,9.57-2.64,1.76,1.76,0,0,1,1-.3,2,2,0,0,1,1.12.35,2.08,2.08,0,0,1,.78.88,1.81,1.81,0,0,1,.19.8A1.88,1.88,0,0,1,60.24,63Zm1.11-8.83a3.85,3.85,0,0,1-2.07,1.46h0a3.56,3.56,0,0,1-1.2.2,4.25,4.25,0,0,1-2.6-.92A3.9,3.9,0,0,1,54,52.53h0a3.87,3.87,0,0,1,.69-3.1,4,4,0,0,1,1.93-1.48h0A4.13,4.13,0,0,1,58,47.68a4.27,4.27,0,0,1,2.38.72,3.82,3.82,0,0,1,1.54,2v0h0a3.53,3.53,0,0,1,.24,1.31A4.18,4.18,0,0,1,61.35,54.16Z" transform="translate(0 0)"/><path class="a" d="M75.77,44.21h0a4.08,4.08,0,0,0-1.69-1.77,5,5,0,0,0-4.6-.1,20.25,20.25,0,0,1,5.23,6.72,4.25,4.25,0,0,0,1-1.22,4.09,4.09,0,0,0,.51-2,3.48,3.48,0,0,0-.41-1.65Z" transform="translate(0 0)"/><path class="a" d="M48,0A48,48,0,1,0,96,48,48,48,0,0,0,48,0ZM79,50.24a8.7,8.7,0,0,1-3.11,2.89A15,15,0,0,1,76,55a15.63,15.63,0,0,1-3.2,9.39h0c-3.76,5-9.54,8-15.37,9.44h0A40.19,40.19,0,0,1,48,75a37.81,37.81,0,0,1-14-2.65h0c-4.62-1.9-9-4.93-11.72-9.36A15.32,15.32,0,0,1,20,55a14.72,14.72,0,0,1,.13-1.88,9.15,9.15,0,0,1-3.05-2.82,8.33,8.33,0,0,1-1.43-4.24h0A8.3,8.3,0,0,1,18,40.36a7.82,7.82,0,0,1,5.58-2.5h.09l.67,0a8.63,8.63,0,0,1,3.17.57h0a10.79,10.79,0,0,1,2.51,1.42,8.1,8.1,0,0,1,.83-.39C35.56,36.67,41,35.6,46.29,35.29a17.14,17.14,0,0,1,1.65-7.78,8.08,8.08,0,0,1,5.12-4.09h0a13.44,13.44,0,0,1,2.52-.24,17.66,17.66,0,0,1,6.53,1.36,8.11,8.11,0,0,1,3.75-3.07h0A9.55,9.55,0,0,1,68.72,21a7.4,7.4,0,0,1,3,.61h0a7.28,7.28,0,0,1,3.33,2.7,7.5,7.5,0,0,1,1.3,4.16,7.69,7.69,0,0,1,0,.83h0v0a7.22,7.22,0,0,1-2.52,4.83,7.75,7.75,0,0,1-5,1.94,6.55,6.55,0,0,1-.89-.05,7.46,7.46,0,0,1-4.8-2.35,7.27,7.27,0,0,1-2.08-5c0-.09,0-.18,0-.27A13.3,13.3,0,0,0,55.62,27a6.85,6.85,0,0,0-.79,0h0a4.11,4.11,0,0,0-3.24,2.22h0a13.63,13.63,0,0,0-1.15,6,34.61,34.61,0,0,1,15.07,4.24h0l.07,0,.39.21a9.18,9.18,0,0,1,1-.74,8.45,8.45,0,0,1,4.7-1.39,8.92,8.92,0,0,1,2.18.27H74a8.7,8.7,0,0,1,4.35,2.7,8.25,8.25,0,0,1,2.07,4.75h0c0,.14,0,.28,0,.42A8,8,0,0,1,79,50.24Z" transform="translate(0 0)"/><path class="a" d="M65,28.59h0A3.51,3.51,0,0,0,66.12,31a3.59,3.59,0,0,0,2.4,1h.22a3.61,3.61,0,0,0,2.43-1,3.56,3.56,0,0,0,1.14-2.39h0c0-.07,0-.14,0-.21a3.53,3.53,0,0,0-1.13-2.5,3.73,3.73,0,0,0-2.52-1.07,2.82,2.82,0,0,0-.87.13h0a3.92,3.92,0,0,0-2,1.27A3.41,3.41,0,0,0,65,28.37c0,.07,0,.14,0,.22Z" transform="translate(0 0)"/></svg>