<svg xmlns="http://www.w3.org/2000/svg" viewBox="0 0 96 96"><defs><style>.a{fill:#efefef;}</style></defs><title>telegram</title><path class="a" d="M59.48,33.54,34,49.27a2.58,2.58,0,0,0-1.12,2.89l2.76,9.7a.66.66,0,0,0,1.29-.09l.72-5.32A4.36,4.36,0,0,1,39,53.83L60,34.25A.45.45,0,0,0,59.48,33.54Z" transform="translate(0 0)"/><path class="a" d="M48,0A48,48,0,1,0,96,48,48,48,0,0,0,48,0ZM72.3,25.18,62.68,71.45a1.53,1.53,0,0,1-2.41.93L47.14,62.85a2.16,2.16,0,0,0-2.64.07l-7.28,5.94a1.54,1.54,0,0,1-2.44-.74L29.73,51.86,16.67,47a1.54,1.54,0,0,1,0-2.88L70.24,23.43A1.54,1.54,0,0,1,72.3,25.18Z" transform="translate(0 0)"/></svg>