<svg xmlns="http://www.w3.org/2000/svg" viewBox="0 0 96 96"><defs><style>.a{fill:#efefef;}</style></defs><title>tumblr</title><path class="a" d="M48,0A48,48,0,1,0,96,48,48,48,0,0,0,48,0ZM66.51,74h0a29.79,29.79,0,0,1-7.46,3,23.32,23.32,0,0,1-6.57.6,29.35,29.35,0,0,1-7.17-.9A12.37,12.37,0,0,1,40.54,74a10,10,0,0,1-2.69-3.88,23.17,23.17,0,0,1-.9-7.16V42.63H29.49V33.37c2.39-.3,4.48-.89,6-2.39a12.79,12.79,0,0,0,3.88-5.07,18.59,18.59,0,0,0,1.2-7.47h9.25V33.37H64.72v9.26H49.79V57.55a30.56,30.56,0,0,0,.6,7.17,4,4,0,0,0,2.09,2.39A7.23,7.23,0,0,0,57,68.3,15.43,15.43,0,0,0,66.51,65Z" transform="translate(0 0)"/></svg>