<svg xmlns="http://www.w3.org/2000/svg" viewBox="0 0 96 96"><defs><style>.a{fill:#efefef;}</style></defs><title>twitter</title><path class="a" d="M48,0A48,48,0,1,0,96,48,48,48,0,0,0,48,0ZM71.76,35.8l0,1.58c0,16.22-12.33,34.91-34.89,34.91a34.63,34.63,0,0,1-18.8-5.52,25.58,25.58,0,0,0,2.92.17A24.63,24.63,0,0,0,36.26,61.7a12.28,12.28,0,0,1-11.45-8.53,11.75,11.75,0,0,0,2.31.23A12.28,12.28,0,0,0,30.35,53a12.28,12.28,0,0,1-9.84-12v-.15a12.33,12.33,0,0,0,5.56,1.54A12.31,12.31,0,0,1,22.27,26,34.83,34.83,0,0,0,47.55,38.77a12.27,12.27,0,0,1,20.9-11.19,24.81,24.81,0,0,0,7.79-3,12.37,12.37,0,0,1-5.39,6.78,24.8,24.8,0,0,0,7-1.93A24.48,24.48,0,0,1,71.76,35.8Z" transform="translate(0 0)"/></svg>