<svg xmlns="http://www.w3.org/2000/svg" viewBox="0 0 96 96"><defs><style>.a{fill:#efefef;}</style></defs><title>vk</title><path class="a" d="M48,0A48,48,0,1,0,96,48,48,48,0,0,0,48,0ZM69.89,52c.37.46,1.26,1.36,2.66,2.7h0l0,0,0,0,.07.07A32.53,32.53,0,0,1,79,62.1a2.57,2.57,0,0,1,.21.41,3.77,3.77,0,0,1,.24.87,2.61,2.61,0,0,1,0,1.12,1.64,1.64,0,0,1-.82.9,3.86,3.86,0,0,1-1.94.41l-8.4.13a3.66,3.66,0,0,1-1.84-.16,8.29,8.29,0,0,1-1.71-.72l-.66-.4a15.51,15.51,0,0,1-2.29-2.1Q60.43,61.15,59.5,60a10.83,10.83,0,0,0-2-1.9,2,2,0,0,0-1.85-.51l-.26.11a3.15,3.15,0,0,0-.56.48,4.34,4.34,0,0,0-.71,1,6.79,6.79,0,0,0-.56,1.71,11.11,11.11,0,0,0-.21,2.54,3.58,3.58,0,0,1-.11.9,2.15,2.15,0,0,1-.25.61l-.13.17a2.68,2.68,0,0,1-1.74.72H47.33a14.8,14.8,0,0,1-4.79-.54,18.55,18.55,0,0,1-4.32-1.74c-1.23-.72-2.36-1.44-3.38-2.17a19,19,0,0,1-2.31-1.89l-.83-.79c-.21-.22-.52-.55-.9-1s-1.16-1.44-2.35-3-2.34-3.21-3.48-5-2.47-4.06-4-6.93S18,37,16.67,33.88a2.64,2.64,0,0,1-.2-.88,1,1,0,0,1,.1-.53l.13-.2a2.3,2.3,0,0,1,1.87-.62l9-.07a3.81,3.81,0,0,1,.75.22,2.27,2.27,0,0,1,.53.28l.16.1a2.13,2.13,0,0,1,.79,1c.44,1.09.94,2.22,1.51,3.4s1,2.06,1.35,2.67l.52,1c.64,1.31,1.25,2.45,1.84,3.41a17.33,17.33,0,0,0,1.59,2.25A7.83,7.83,0,0,0,38,47.19a2.12,2.12,0,0,0,1.11.46,2.47,2.47,0,0,0,.89-.17.59.59,0,0,0,.16-.16,6,6,0,0,0,.4-.73A5.48,5.48,0,0,0,41,45.05c.1-.63.2-1.52.31-2.66a25.46,25.46,0,0,0,0-4.11A15.18,15.18,0,0,0,41,35.89a6.57,6.57,0,0,0-.46-1.51l-.2-.4a4.06,4.06,0,0,0-2.79-1.41c-.29,0-.23-.31.16-.79a4.62,4.62,0,0,1,1.25-1c1.16-.57,3.78-.84,7.85-.79a22,22,0,0,1,4.43.42,3.72,3.72,0,0,1,1.1.45,1.74,1.74,0,0,1,.67.79,5,5,0,0,1,.35,1,8.17,8.17,0,0,1,.11,1.49c0,.64,0,1.24,0,1.81s0,1.34-.08,2.31,0,1.88,0,2.71c0,.25,0,.7,0,1.38s0,1.21,0,1.58.05.82.11,1.33a3.58,3.58,0,0,0,.38,1.28,2.23,2.23,0,0,0,.74.81l.56.13c.2,0,.48-.08.85-.36a13.11,13.11,0,0,0,1.25-1.14,16.73,16.73,0,0,0,1.71-2.2c.68-1,1.42-2.17,2.23-3.53a53.69,53.69,0,0,0,3.51-7.39,2.24,2.24,0,0,1,.33-.57,1.44,1.44,0,0,1,.36-.35l.13-.1.17-.08.42-.1a1.22,1.22,0,0,1,.66,0l9.46-.07a5.23,5.23,0,0,1,2.1.08,2,2,0,0,1,1,.54l.2.33q.75,2.1-4.92,9.66c-.53.7-1.24,1.63-2.14,2.79a24.28,24.28,0,0,0-2.95,4.3A2.53,2.53,0,0,0,69.89,52Z" transform="translate(0 0)"/></svg>