<svg xmlns="http://www.w3.org/2000/svg" viewBox="0 0 96 96"><defs><style>.a{fill:#efefef;}</style></defs><title>weibo</title><path class="a" d="M48,0A48,48,0,1,0,96,48,48,48,0,0,0,48,0ZM66.24,62.33a24.7,24.7,0,0,1-14.09,9.23C43,74,34.08,73.23,25.88,68.11,22,65.7,19.13,62.41,19,57.61a14.65,14.65,0,0,1,1.07-6.16A35.06,35.06,0,0,1,37.88,33.31a13.66,13.66,0,0,1,4.89-1.14c2.71-.16,4.44,1.6,4.42,4.32,0,1.42-.3,2.85-.51,4.67A32.25,32.25,0,0,1,50.1,40a30.81,30.81,0,0,1,6.33-1.07c3.93,0,5.66,2.46,4.74,6.27-.56,2.34-.56,2.34,1.68,3.29C68.94,51.06,70.34,56.72,66.24,62.33Zm1.21-20a2,2,0,0,1-2.59-1.69,7.57,7.57,0,0,0-5.79-5.7,1.93,1.93,0,0,1-1.65-2.24c.13-1.1.83-1.74,2.36-1.77a19.81,19.81,0,0,1,2.07.65,11.45,11.45,0,0,1,6.93,8C69.16,40.93,68.65,42,67.45,42.3Zm7.7,0c-1.29.09-2.15-.86-2.23-2.47A13.3,13.3,0,0,0,60,26.93c-1.72-.09-2.6-.85-2.53-2.16s1.07-2,2.72-1.92A17.45,17.45,0,0,1,77,39.64C77.08,41.25,76.4,42.2,75.15,42.29Z" transform="translate(0 0)"/><path class="a" d="M42.94,46c-1,.09-2.18.12-3.34.29-4.81.71-9.17,2.37-12.53,6-3.73,4.1-3.24,9.45,1.19,12.75a16.33,16.33,0,0,0,3.91,2.19,23.89,23.89,0,0,0,18.35-.73,15.15,15.15,0,0,0,6.66-5.24,7.82,7.82,0,0,0-.81-10.51C52.74,47.07,48.05,46.15,42.94,46Zm1.6,15.29a8.11,8.11,0,0,1-9,1.85,5.25,5.25,0,0,1-1.37-9A8.83,8.83,0,0,1,39.7,52a26.12,26.12,0,0,1,2.71.65A5.22,5.22,0,0,1,44.54,61.27Z" transform="translate(0 0)"/></svg>