<svg id="84a769ab-976c-40b6-b1db-0d079cd45b3d" data-name="Слой 1" xmlns="http://www.w3.org/2000/svg" viewBox="0 0 389.22 222.71"><defs><style>.\31 96ea26c-1649-49f7-9c33-3f92c249bdfe{fill:#1e9a1e;}</style></defs><title>Successful done</title><path class="196ea26c-1649-49f7-9c33-3f92c249bdfe" d="M218.07,26.75l2-.19c-2.15-1.34-2.69-3.3-3.1-5.54-1.35-7.5-2.75-15-4.44-22.4a16.44,16.44,0,0,0-3.15-5.91,3.65,3.65,0,0,0-4.76-1.2l-1.35-2.25-.38.15c.1.68.2,1.37.32,2.15a77.9,77.9,0,0,0-9,1.59,75.59,75.59,0,0,0-8.33,3.53l.2.67c1.29-.2,2.59-.37,3.87-.61,3.21-.58,6.39-1.28,9.61-1.77a7.4,7.4,0,0,1,7.29,2.69c-1.79.32-3.13,1.7-5,.74a3.63,3.63,0,0,0-2,.07Q184.49,1.2,169.15,4c-23,4.15-46.08,8.33-69.14,12.37-1.3.23-2.8-.67-4.12-1,3.67-3.53,8.5-2.95,12.86-3.88,4.67-1,9.41-1.65,14.1-2.51,11-2,21.93-4.08,32.9-6.07,8.58-1.56,17.17-3,25.73-4.55.37-1.94-.92-1.46-1.71-1.33-4,.69-8.08,1.28-12,2.25-10.19,2.48-20.64,3.24-31,4.8-.59.09-1.18.23-1.87.37l.93.86c-2.8.44-5.35.91-7.93,1.17-.45,0-1-.79-1.22-1A9.19,9.19,0,0,1,124.16,7c-2.24.43-4.54.58-6.8.91a10.36,10.36,0,0,0-3.62.8,7.47,7.47,0,0,1-7.14.7,2,2,0,0,0-1.78.37c-2.21,2.29-5,1.45-7.59,2.08l-.52-.53c.65-1.56,1.29-3.12,1.94-4.67l2.13,1c.17-1.81-1.86-1.78-2.66-3,4.43-.81,8.76-1.61,13.09-2.36a1.24,1.24,0,0,1,1,.34c1.1,1.32,2.06.19,3-.17.74-.29,1.32-1.08,2.07-1.26C121,.22,124.76-.43,128.43-1.4a37.06,37.06,0,0,0,4.82-2.19,20.25,20.25,0,0,1,2.59-.69c2.54-3,6.88-2.16,10-3.51l4,5.53s.1,0,.11-.07c.18-1,.19-2.82.56-2.89a13.12,13.12,0,0,1,5.79-.3c2,.52,3.71,2,5.54,3,.43-.67.91-1.36,1.31-2.09a13.27,13.27,0,0,0,.64-1.55,12.32,12.32,0,0,0-2,.1c-.2,0-.31.54-.46.84-1.18-1.29-1.1-1.83.46-2.14,7.6-1.52,15.22-2.94,22.81-4.48,4.79-1,9.7-1.29,14.08-4,2.39-1.5,5.34-.81,8,.28C213-12.87,216.45-8,217.49-1.19c.53,3.48,1.27,6.92,2,10.77l-4-.64-.2.88,4.57,1.37c.59,2.81,1.26,6,1.91,9.19a2.31,2.31,0,0,1-.42.32c-.78.31-1.57.6-2.36.9a22.61,22.61,0,0,0,1.74,2.93c.6.76,1.79,1.17,2.17,2,.59,1.29.84,2.77-.54,4a4.84,4.84,0,0,0-.9,1.63c-1.15,2.44-.91,3,1.76,3.45,1.59.25,2,.94,2.24,2.56.88,6.57,1.49,13.2,4.15,19.41a62.74,62.74,0,0,1,1.94,6.06L229,65l.18.49,2.6-.36c.49,3.42,1.55,6.9,1.35,10.3a33.14,33.14,0,0,0,1.49,12.47,8.35,8.35,0,0,1,.2,1.43C233,88.46,231,88,229.78,86.81c-.94-.94-.84-2.91-1.29-4.83l2.39,1.2c.33-1.55-.48-2.2-1.62-2.76a2.25,2.25,0,0,1-1.2-1.25c-1.71-9.11-3.33-18.25-5-27.37a82.27,82.27,0,0,1-1.61-10.11l1.9-3-3-.24C219.68,35,218.89,30.93,218.07,26.75ZM189.28-6a42.37,42.37,0,0,0,4.64-1.76c.47-.24.57-1.19.85-1.82-.67-.24-1.49-.85-2-.64C191.17-9.5,188.87-9.28,189.28-6Z" transform="translate(146.79 16.69)"/><path class="196ea26c-1649-49f7-9c33-3f92c249bdfe" d="M-128.66,136.07l-2,1.22,0,.47,2.31.32c.44,2.76.88,5.61,1.26,8l-3.28,2.38.25.67,2.57-.54c.13.3.18.88.49,1.08,1.43.95,1.08,2,.36,3.16-.82,1.32-1.18,2.52.28,3.82.52.46.41,1.64.51,2.15.56.63,1.25,1.06,1.35,1.6,1.46,7.89,2.83,15.8,4.23,23.71.55,3.06,1.09,6.13,1.65,9.19,1.13,6.08,6.22,9.83,12.28,8.58,2.72-.56,3.79.77,5.06,2.86l-1.39-.11c-.58,0-1.34-.35-1.72-.09-4.08,2.79-7.82,1.12-11.38-1-4-2.35-5.87-6.15-6.73-10.7-2.06-10.94-4.39-21.83-6.57-32.75-.73-3.64-1.08-7.37-2.07-10.93-1.11-4-2.76-7.86-6.06-10.69-.21-.18-.54-.29-.65-.51a6.1,6.1,0,0,1-.74-2c0-.24.93-.88,1.17-.77a4.22,4.22,0,0,1,1.57,1.4,23.28,23.28,0,0,0,2.47,3.42c1-4.24-3-7.19-2.67-11.2l3.46.09-3-4.36-.32.24-.22-3.21,2.19-.28.13-.55-2-.82c-.63-4.24-1.22-8.47-1.91-12.69-.15-.94-.17-2.32-2-1.71-.4-2-.75-4-1.19-5.91-.41-1.77-.4-3.33,1.88-4l-.36-.43-2.17.64c-.88-5.68-1.75-11.32-2.66-17.26l2.06.82c-.94-1.67-1.51-3,.28-4.28.41-.3.1-2-.32-2.91-.77-1.58-1.26-3.45-3.2-4.21a1.57,1.57,0,0,1-.71-.94c-2.4-9.19,1.14-17.48,10.44-20.31,3-.9,6-1.38,9-2.19A31,31,0,0,0-122.78,43l4.54-1.9.39.53a51.79,51.79,0,0,1-4.55,4.23c-.65.48-1.85.21-2.8.31-.75.07-1.5.17-2.3.26.47,2.73,2.19,1.59,3.83,1.49-.91,1-.86,2.68-2.65,1.39a2.25,2.25,0,0,0-1.83.23c-.27,1.52-1.48,1-2.34,1.27-2.45.7-4.87,1.55-7.36,2.06-.82.17-1.82-.55-2.75-.82-.55-.16-1.13-.25-1.69-.38a5.1,5.1,0,0,0,.09,1.76,15.89,15.89,0,0,0,1.56,2.3l-2.94,5.41c1.71.67,1.49,2.71,1.83,4.56,1.39,7.41,2.89,14.8,4.28,22.21,1.92,10.2,3.92,20.39,5.55,30.64.46,2.91,1.49,5.66,1.81,8.58S-129.15,133.12-128.66,136.07Z" transform="translate(146.79 16.69)"/><path class="196ea26c-1649-49f7-9c33-3f92c249bdfe" d="M20.92,20.64l-1.29-1.4a2.05,2.05,0,0,1,.51-.26c4.91-.87,9.84-1.65,14.73-2.61,3.19-.63,6.28-1.69,9.47-2.27C58.78,11.48,73.24,9,87.69,6.41c1.74-.3,3.5.13,5.27-.8s2.15.74,2,2.06A35.78,35.78,0,0,1,94.1,12c-5.21.51-10.43,1-15.63,1.55q-5.79.64-11.52,1.64c-1.77.31-3.78.39-4.8,2.38-.13.25-.74.33-1.14.36-5.16.38-10.37.41-15.47,1.19-7.44,1.14-14.78,2.91-22.2,4.21-6,1.06-12.07,1.7-18.08,2.73-3.74.64-7.43,1.6-11.12,2.53-1.57.4-2.58.49-2.39-1.64,0-.45-.59-1-.83-1.32L-11.72,28l.86.58c-1.14,2.49-2.6,2.57-5.46.05l-.19,2.48-4.45.73c-.35-.78-.68-1.5-1.1-2.42l-.87,2.14a8.84,8.84,0,0,0-1.47-.93,15.3,15.3,0,0,0-2-.47v-2c.59.47,1,.79.91.72a40.08,40.08,0,0,1,4.76-2.16c2.18-.66,4.45-1,6.81-1.52l1.33,1.85a30.8,30.8,0,0,1,1.93-2.89c.56-.64,1.29-1.48,2-1.57,4.73-.59,9.49-.89,14.22-1.49,3.57-.44,7.09-1.19,10.64-1.78.72-.12,1.45-.15,2.54-.26L17.2,21.14l.19.56Zm62.69-7.59c0-1.3.27-2.39-.15-3S81.93,9.31,81.11,9l-.22.54Z" transform="translate(146.79 16.69)"/><path class="196ea26c-1649-49f7-9c33-3f92c249bdfe" d="M-97.5,204.3l-.22-2.05-1.55,2.31L-101,201.2c3.69-.73,7.53-1.51,11.38-2.26s7.71-1.46,11.56-2.16,7.9-1.42,11.85-2.13,7.78-1.37,11.65-2.1,7.87-1.56,11.81-2.32,7.72-1.43,11.58-2.13,7.9-1.42,11.84-2.15,7.75-1.51,11.63-2.24S.2,182.1,4.19,181.62c3.71-.45,7.25-1.64,10.94-2.21C19.08,178.79,23,178,27,177.28a6.65,6.65,0,0,1,.92,2.34c0,.68-.6,1.82-1.1,1.91-4.57.89-9.19,1.52-13.76,2.38C7.23,185,1.43,186.3-4.41,187.42c-4.41.86-8.84,1.64-13.28,2.3-.78.12-1.67-.56-2.72-.95l-1.08,1.1-.51-1.08c-.21.11-.43.15-.43.22-.14,1.43-1,1.81-2.33,2-3.67.61-7.32,1.39-11,2.11-1.24-2.71-1.93-2.83-4-.48l2.11.17,0,.4c-1.72.39-3.45.73-5.15,1.17-10.76,2.8-21.81,3.75-32.77,5.29-1.8.25-3.61.39-5.41.59a.78.78,0,0,0-.37.17C-86.1,204.14-92.17,202.21-97.5,204.3Z" transform="translate(146.79 16.69)"/><path class="196ea26c-1649-49f7-9c33-3f92c249bdfe" d="M194,148.56l-7.55,4.34-.39-.52,1.21-1.43c-2-.51-3.36.41-4.81,1.16-1.05.54-2.27,1.4-3.28,1.24-2.42-.38-3.91,1.4-5.86,2-.33.11-.4,1-.59,1.58l.53.54c-2.83.41-5.66.86-8.51,1.19-.44,0-.93-.57-1.44-.66a3.09,3.09,0,0,0-1.65.15c-.82.33-1.54,1.13-2.35,1.21-3.46.31-6.48,1.77-9.51,3.26a5.07,5.07,0,0,1-1.78.52c-3.3.3-6.61.54-10,.8-.12-.46-.1-1.25-.44-1.47a8.57,8.57,0,0,0-2.26-.74c-.17.71-.38,1.42-.51,2.15s0,1.76-.18,1.77a8.54,8.54,0,0,1-2.62-.1c-.34-.06-.61-.71-.91-.71-4.87,0-9.72-1.73-14.63.33-2.1.88-4.59.86-6.92,1.09-.33,0-1-.82-1.08-1.35a9,9,0,0,1,.14-2.46c4.72-.83,9.61-1.72,14.51-2.56,10.85-1.87,21.7-3.69,32.55-5.59,1.63-.28,3-.38,3.64,1.54.14.42.67.71,1.5,1.52-.51-3.18.84-4,3.15-4.46,2-.37,3.86-1.5,5.86-2,2.71-.64,5.5-1,8.68-1.49l-1.87,2.86c1.32,1.32,2.8.75,3.87.12a26.86,26.86,0,0,0,4.89-3.76,5.21,5.21,0,0,1,6.17-.91A14.64,14.64,0,0,0,194,148.56Z" transform="translate(146.79 16.69)"/><path class="196ea26c-1649-49f7-9c33-3f92c249bdfe" d="M-89.56,35.14c2.36-.07,4.72-.12,7.07-.2a17.1,17.1,0,0,0,2.87-.22c.48-.1.86-.63,1.28-1l-1.47-.4C-77.87,30-74,30.81-71,29.79a10.63,10.63,0,0,1,7.92.05c.88.38,2,.11,3.09.19,2.46.2,4.93.45,7.4.65a36,36,0,0,0,5.37.29c1.64-.11,3-.21,3.79,1.61.18.4,1.2.68,1.79.61a35.34,35.34,0,0,0,4-.81c0-.32,0-.5-.08-.57-.48-.48-1-.93-1.48-1.39a10.57,10.57,0,0,1,2.23-1c2.09-.44,4.21-.73,6.45-1.1-3.73,5.37-6.28,6.18-11.41,7q-14.44,2.32-28.85,4.95c-2,.36-3.68.67-4.55-2L-78,40.72l2.58-.4.11.55-8,1.59,1.3-3.67,2.4-1.15-.08-.54-9.78-1.49Z" transform="translate(146.79 16.69)"/><path class="196ea26c-1649-49f7-9c33-3f92c249bdfe" d="M108,167.36c-4.33,1-8.57,2-12.86,2.83-.69.13-1.56-.72-2.56-1.23l-.37,1.91c-6.94-1.27-13.43,1.23-20,2.63-2.78.59-5.35,2.29-8.14,2.72-6.28,1-12.63,1.47-19,2.09-.52.05-1.07-.48-1.64-.61a2.74,2.74,0,0,0-1.24,0c-.22,2-2.59,1.54-3.43,3-.4.69-1.94.74-3,1.08l-.3-.43A6.49,6.49,0,0,1,36.89,180c2.53-1.31,2.55-1.28,1.43-3.84-.1-.24-.16-.49-.32-1,.84.06,1.49.14,2.14.16a6.13,6.13,0,0,0,1.82-.07c2.22-.6,4.37-1.48,6.62-1.91,8.41-1.64,16.86-3.14,25.49-4.73-.15.55-.27,1-.55,2,.92-.46,1.63-.59,1.86-1,1.51-2.61,4.17-1.51,6.32-2,.1,0,.44.78.59,1.22s.26,1.14.39,1.72l.94-.12c0-1.06,0-2.12.07-3.41,3-.58,6.12-1.2,9.22-1.76,4-.72,7.93-1.31,11.86-2.11,1.91-.38,2.94-.09,2.74,2.11A10.31,10.31,0,0,0,108,167.36Z" transform="translate(146.79 16.69)"/><path class="196ea26c-1649-49f7-9c33-3f92c249bdfe" d="M226.6,117.13c-.77-4-1.55-7.95-2.3-11.94Q220,82.33,215.77,59.45q-.69-3.68-1.34-7.35a31.63,31.63,0,0,1-.55-4c0-.77.73-1.85.42-2.29-2.67-3.83-3.06-8.43-3.15-12.66-.07-3.82-1.81-7-2.24-10.6-.79-6.51-2.25-12.95-3.47-19.41-.23-1.21-.66-2.39-1-3.62l3.12-1.15a21.61,21.61,0,0,1,1,3c1.14,6.13,2.27,12.26,3.25,18.41a5.54,5.54,0,0,1-.73,3.13,2.9,2.9,0,0,0,2.29,4.33l-1.15,1.34.57-.12c.64,2.22,1.45,4.41,1.89,6.67,1,5.23,1.89,10.49,2.78,15.75a14.33,14.33,0,0,1-.21,1.78c0,.92-1.09,2.25.86,2.57.13,0,.23.46.28.71,1.19,6.54,2.5,13,3.49,19.62.35,2.32-.22,4.77-.1,7.14a69.36,69.36,0,0,0,.89,7.75c1.33,8.21,2.74,16.4,4.12,24.59.11.67.21,1.34.31,2Z" transform="translate(146.79 16.69)"/><path class="196ea26c-1649-49f7-9c33-3f92c249bdfe" d="M60,167.44c4.19-4.24,10-3.79,15.37-4.85,4.81-1,9.82-1.06,14.55-2.27,2.75-.71,5.07-.19,7.6.25a12.38,12.38,0,0,0,3.42-.39c-.29-.73-.49-1.26-.71-1.82l80.81-14c-1.7,1.46-3.17,2.9-5.6,3.31-14.33,2.46-28.61,5.2-42.92,7.77-9.2,1.65-18.42,3.16-27.74,4.75l-1.55-2.06c-.18,3-2.25,2.7-4,3l-38.11,6.28A7.35,7.35,0,0,1,60,167.44Z" transform="translate(146.79 16.69)"/><path class="196ea26c-1649-49f7-9c33-3f92c249bdfe" d="M-18.6,37.84l-1.07-3c3.56-.44,6.89-.77,10.19-1.28,1.4-.22,2.73-.91,4.13-1.21C-2,31.65,1.45,31,4.87,30.44a12.94,12.94,0,0,1,3,.31,2.85,2.85,0,0,0,1-.16,56.62,56.62,0,0,1,6.36-2c17-3.2,33.95-6.31,50.93-9.45L67,19l-1.54,3.61Z" transform="translate(146.79 16.69)"/><path class="196ea26c-1649-49f7-9c33-3f92c249bdfe" d="M233.86,126.79c1.35,3.07.54,5.76-1.31,8.29-.89,1.21-2.84,1.89-2.05,4,.11.28-.72.91-1.13,1.39,1.91,1,4.61.21,6.71-2.05a16.3,16.3,0,0,0,4.4-9.19,2.37,2.37,0,0,1,.7-1.29c1.15,2.93-1,5.73-.47,8.88l1.31-.82.41.33a28.36,28.36,0,0,1-3.14,3.87,15.51,15.51,0,0,1-9.45,3.89c-1.15.08-2.27.54-3.42.64a19.43,19.43,0,0,1-5.34-.17c-.67.55-1.27,1.45-2,1.6-6.36,1.24-12.74,2.34-19.11,3.5-2.2.4-3.35-.93-4.88-2.83L203,148.2l-4.27-3.72c5.17-.42,10.18-.25,14.88-1.37s9.9-.59,14.38-4.05a4.82,4.82,0,0,0-1.32-.39c-1.94.18-3.75.64-5.81-.16a3.75,3.75,0,0,0-4.6,1.36c-.6.84-2.67.92-4.06.85a20.22,20.22,0,0,1-4.4-1.24c.7-.17,1.31-.34,1.93-.46,5-.93,9.92-2,14.91-2.75,4.82-.76,7.69-3.45,8.87-8.1C233.59,127.71,233.73,127.25,233.86,126.79Z" transform="translate(146.79 16.69)"/><path class="196ea26c-1649-49f7-9c33-3f92c249bdfe" d="M-78.58,193.11l-.57-2.67,82.78-15.1c.11,1,.2,1.82.32,2.9Z" transform="translate(146.79 16.69)"/><path class="196ea26c-1649-49f7-9c33-3f92c249bdfe" d="M-65.45,46l-5.82,1.64v-1.8c-.77,2-2.42,2.1-4,2.41-6.33,1.17-12.64,2.45-19,3.55a7.84,7.84,0,0,1-2.92-.54,29.8,29.8,0,0,1-5.17,2.09q-13.55,2.67-27.16,5c-2.73.47-4.21,2.34-5.76,4.26-.21.26-.44.5-.7.8-.88-2.71,1.22-6.26,4.22-7.06,4.14-1.1,8.29-2.23,12.49-3,1.31-.25,2.82.47,4.23.79.91.21,1.8.49,3.06.84l-.9-3.74a38.72,38.72,0,0,0,5,.24,76.46,76.46,0,0,0,9.46-1C-84.33,47.7-70.22,44.81-56.38,42L-55,43.92l1.54-2.4L-44,39.73l.86,2.5c-1.83.3-3.49,1.36-5.47.2-.55-.32-1.69.27-2.51.57a29.07,29.07,0,0,1-3.5,1.45c-3,.67-6.13,1.18-9.21,1.68A5,5,0,0,1-65.45,46Z" transform="translate(146.79 16.69)"/><path class="196ea26c-1649-49f7-9c33-3f92c249bdfe" d="M-108.9,40.91l-2.55,1.65.07.43,3.49-.26c.68.39.76,2.52,2.67,1.23L-107,42.32l11-2,.19.57-.89,1c1.6-.19,3.32-.34,5-.61a8.08,8.08,0,0,0,2.11-.76c1.48-.69,2.93-1.45,4.56-2.26.61,4.06.37,4.5-2.85,5-2.59.36-5.21.55-7.82.81-.27,0-.61-.06-.81.08-3.55,2.4-7.83,1.57-11.7,2.63s-8,1.51-12,2.23l-3.4.59c1.78-2.07,3.26-3.78,4.71-5.5a8.61,8.61,0,0,0,.81-1.19c1.54-2.62,2.75-3,5.79-2.35a11.64,11.64,0,0,0,3.3-.22Z" transform="translate(146.79 16.69)"/><path class="196ea26c-1649-49f7-9c33-3f92c249bdfe" d="M235.92,99.43l-3.3,3.89c-.4-2-.74-3.7-1.14-5.71l5.51-.06c2,6.73,5.09,13.22,4,20.35-.42,2.63.7,5.22-.35,7.7a10.76,10.76,0,0,1-1.5,2.05c-.63-.55-1.54-1-1.85-1.68a20.91,20.91,0,0,1-1.31-4.34c-.91-4.61-1.84-9.23-2.54-13.88-.34-2.26-.29-4.61,2.28-5.94C236.47,101.4,237.39,100.66,235.92,99.43Z" transform="translate(146.79 16.69)"/><path class="196ea26c-1649-49f7-9c33-3f92c249bdfe" d="M7.44,177.64c-.49-2.13-.13-3.07,2-3.43C23,171.86,36.49,169.36,50,166.93c2.84-.51,5.7-.91,8.72-1.39,0,.73.06,1.32.08,2l-28.39,5.64-.07-1.87-.47-.47c-.51,3.61-3.27,3.1-5.47,3.54C18.83,175.46,13.2,176.53,7.44,177.64Z" transform="translate(146.79 16.69)"/><path class="196ea26c-1649-49f7-9c33-3f92c249bdfe" d="M-101.26,197.05c-1.2.28-2.24.55-3.29.78-4,.9-9.53-1.49-10.66-6.69-.79-3.65-1.34-7.34-2-11.2l3.18.25c.53,3.08,1,6.07,1.55,9.06.82,4.81,3.44,6.73,8.18,5.88,7.13-1.28,14.25-2.63,21.57-4l-.59,2.82c-4.72.89-9.46,1.81-14.21,2.66a2.47,2.47,0,0,1-1.75-.26C-100.65,195.37-101.23,195.68-101.26,197.05Z" transform="translate(146.79 16.69)"/><path class="196ea26c-1649-49f7-9c33-3f92c249bdfe" d="M78.83,20.17,78.29,18c-1.48,1.11-2.64,2.36-4.08,3a22.61,22.61,0,0,1-5,.89,13.15,13.15,0,0,1-.9-1.44c-.46-1-.23-1.73,1-1.95,8.1-1.47,16.2-3,24.23-4.43.14.67.07,1.35.38,1.66,1.52,1.49.42,1.71-.84,1.93Z" transform="translate(146.79 16.69)"/><path class="196ea26c-1649-49f7-9c33-3f92c249bdfe" d="M-121.3,151.9c1.46-.59,2.19-.45,2.43.89,1.44,8.17,2.91,16.33,4.36,24.49a2.93,2.93,0,0,1,0,.78c-3,.11-3.25,0-3.06-2.64.35-4.73-1.07-9.14-2-13.66C-120.3,158.47-120.75,155.14-121.3,151.9Z" transform="translate(146.79 16.69)"/><path class="196ea26c-1649-49f7-9c33-3f92c249bdfe" d="M-128.35,108.44c.73,2.77,1.57,5.51,2.19,8.31C-125,121.81-124,126.9-123,132c1.07,5.28,2.15,10.55,3.08,15.85.13.75-.53,1.64-.82,2.47l-.73-.16q-3.41-20.87-6.83-41.74Z" transform="translate(146.79 16.69)"/><path class="196ea26c-1649-49f7-9c33-3f92c249bdfe" d="M230.3,90.07c1.24.68,2.48,1.35,3.71,2.05a1.86,1.86,0,0,1,.76.68c.59,1.14,1.12,2.31,1.85,3.84H232c-.78-2.27-1.47-4.26-2.16-6.25Z" transform="translate(146.79 16.69)"/><path class="196ea26c-1649-49f7-9c33-3f92c249bdfe" d="M30.47,177.3l3.47.28.27,4.26-2.48.44C31.33,180.72,31,179.2,30.47,177.3Z" transform="translate(146.79 16.69)"/><path class="196ea26c-1649-49f7-9c33-3f92c249bdfe" d="M-133,73l1.1,7.49c-1.36.13-1.47.14-2.09-3.44a17.39,17.39,0,0,1,.28-4.17Z" transform="translate(146.79 16.69)"/><path class="196ea26c-1649-49f7-9c33-3f92c249bdfe" d="M-130.92,89.1l1.12,8.19-.47.08-1.43-8.14Z" transform="translate(146.79 16.69)"/><path class="196ea26c-1649-49f7-9c33-3f92c249bdfe" d="M-132.33,82c1.43,1.2.71,3,1.18,4.49l-.79.21-1.14-4.4Z" transform="translate(146.79 16.69)"/><path class="196ea26c-1649-49f7-9c33-3f92c249bdfe" d="M-133.82,67.91l.41,3.45-1.94-1.26.9-2.31Z" transform="translate(146.79 16.69)"/><path class="196ea26c-1649-49f7-9c33-3f92c249bdfe" d="M-128.32,108.4l-1.5-7.49.68-.1q.4,3.81.79,7.62Z" transform="translate(146.79 16.69)"/><path class="196ea26c-1649-49f7-9c33-3f92c249bdfe" d="M-106.73,104.58a20.68,20.68,0,0,0,9.22.6c3.65-.66,5.31-2.52,4.89-4.82s-2.29-3.14-6.79-3.89c-6.21-1-10.6-3.53-11.53-8.64-1.08-6,3.1-11.5,11.4-13a21.86,21.86,0,0,1,9.29.15l-.61,6.74a17.1,17.1,0,0,0-7.66-.34c-3.45.62-4.83,2.49-4.5,4.32.4,2.24,2.56,2.87,7.41,3.78,6.63,1.17,10.13,3.88,11,8.84,1.06,5.89-2.57,11.72-12.22,13.46a23.49,23.49,0,0,1-10.36-.33Z" transform="translate(146.79 16.69)"/><path class="196ea26c-1649-49f7-9c33-3f92c249bdfe" d="M-75.23,71l3.66,20.25c1.09,6,3.94,8.71,8,8s5.94-4.09,4.82-10.3l-3.65-20.25,7.93-1.43L-50.9,87c2,10.85-2.59,17-11.77,18.66-8.87,1.61-15-2.36-17-13.58l-3.54-19.62Z" transform="translate(146.79 16.69)"/><path class="196ea26c-1649-49f7-9c33-3f92c249bdfe" d="M-15,95.46a23.11,23.11,0,0,1-8.76,3.14C-36,100.8-43.59,94.36-45.4,84.34c-2.17-12,5.18-20.22,15.83-22.15a21.23,21.23,0,0,1,8.94,0l-.48,6.61A17.33,17.33,0,0,0-28,68.7c-6.31,1.14-10.53,5.84-9.12,13.66,1.27,7,6.25,10.73,13.35,9.45a20.4,20.4,0,0,0,6.42-2.35Z" transform="translate(146.79 16.69)"/><path class="196ea26c-1649-49f7-9c33-3f92c249bdfe" d="M15,90A23.12,23.12,0,0,1,6.2,93.18C-6,95.38-13.59,88.94-15.4,78.92c-2.17-12,5.18-20.22,15.83-22.15a21,21,0,0,1,8.94,0l-.47,6.6A17.57,17.57,0,0,0,2,63.28C-4.33,64.42-8.55,69.12-7.14,77c1.28,7,6.25,10.72,13.35,9.44A20.06,20.06,0,0,0,12.63,84Z" transform="translate(146.79 16.69)"/><path class="196ea26c-1649-49f7-9c33-3f92c249bdfe" d="M39.11,71.34,26.16,73.68,27.67,82l14.46-2.61,1.17,6.52L20.87,90,14.51,54.82,36.22,50.9l1.18,6.52L23.68,59.9,25,67.21l12.94-2.34Z" transform="translate(146.79 16.69)"/><path class="196ea26c-1649-49f7-9c33-3f92c249bdfe" d="M48,76.63a20.68,20.68,0,0,0,9.22.6c3.65-.66,5.31-2.53,4.89-4.82s-2.29-3.15-6.79-3.9c-6.21-1-10.6-3.52-11.53-8.64-1.08-6,3.1-11.49,11.4-13a21.86,21.86,0,0,1,9.29.15l-.61,6.74a17.1,17.1,0,0,0-7.66-.34c-3.45.62-4.83,2.49-4.5,4.32.4,2.24,2.56,2.87,7.41,3.77,6.63,1.18,10.13,3.89,11,8.84,1.06,5.9-2.57,11.73-12.22,13.47a23.32,23.32,0,0,1-10.36-.34Z" transform="translate(146.79 16.69)"/><path class="196ea26c-1649-49f7-9c33-3f92c249bdfe" d="M76.73,71.44A20.67,20.67,0,0,0,86,72c3.65-.66,5.31-2.52,4.89-4.82s-2.29-3.14-6.79-3.89c-6.21-1-10.61-3.52-11.53-8.64-1.08-6,3.1-11.5,11.39-13a21.9,21.9,0,0,1,9.3.15l-.62,6.74a16.78,16.78,0,0,0-7.66-.34c-3.44.62-4.83,2.49-4.5,4.31.41,2.25,2.57,2.88,7.42,3.78,6.62,1.18,10.13,3.88,11,8.84,1.06,5.9-2.57,11.73-12.23,13.47a23.43,23.43,0,0,1-10.35-.34Z" transform="translate(146.79 16.69)"/><path class="196ea26c-1649-49f7-9c33-3f92c249bdfe" d="M100.29,39.33l21.5-3.88L123,42l-13.51,2.44,1.45,8,12.63-2.29,1.16,6.48-12.62,2.28,2.55,14.14-8,1.44Z" transform="translate(146.79 16.69)"/><path class="196ea26c-1649-49f7-9c33-3f92c249bdfe" d="M136.25,32.84l3.65,20.24c1.1,6.06,3.95,8.72,8,8s5.94-4.09,4.82-10.3l-3.66-20.24L157,29.09l3.57,19.72c2,10.85-2.59,17-11.77,18.67-8.87,1.6-15-2.36-17-13.58l-3.55-19.62Z" transform="translate(146.79 16.69)"/><path class="196ea26c-1649-49f7-9c33-3f92c249bdfe" d="M164.42,27.75l8-1.44,5.14,28.49,14-2.53,1.2,6.68-22,4Z" transform="translate(146.79 16.69)"/><path class="196ea26c-1649-49f7-9c33-3f92c249bdfe" d="M-19.22,122.37A71.19,71.19,0,0,1-8.6,119.7c6.68-1.21,11.23-.79,15.08,1.16,4.14,2,7.22,6,8.34,12.17,1.22,6.74-.4,11.82-3.27,15.3C8.4,152.08,3,154.56-3.86,155.8A67.79,67.79,0,0,1-13,156.91ZM-6,149.63a15.12,15.12,0,0,0,2.79-.35C4,148,7.93,143.22,6.42,134.82c-1.27-7.31-6.25-10.4-13.08-9.17a16.59,16.59,0,0,0-3.55,1Z" transform="translate(146.79 16.69)"/><path class="196ea26c-1649-49f7-9c33-3f92c249bdfe" d="M52.84,126.65c2.08,11.53-3.65,19.79-13.93,21.65s-18-4.9-19.77-14.91c-1.9-10.54,3.41-19.64,13.79-21.52C43.73,109.92,51.09,117,52.84,126.65Zm-25.33,5.06c1.25,6.89,5.36,11.16,10.68,10.2s7.53-6.64,6.3-13.48c-1.14-6.31-5.15-11.19-10.63-10.2S26.28,124.88,27.51,131.71Z" transform="translate(146.79 16.69)"/><path class="196ea26c-1649-49f7-9c33-3f92c249bdfe" d="M61.82,143.57,55.47,108.4l9.29-1.68,9.63,11.57a103.33,103.33,0,0,1,7.92,11l.15,0a132.38,132.38,0,0,1-3.32-14.54l-1.86-10.28,7.31-1.32,6.35,35.17-8.35,1.5-10-12.2a134.39,134.39,0,0,1-8.34-11.32l-.15.08c1.05,4.61,2.05,9.54,3.08,15.28l1.92,10.6Z" transform="translate(146.79 16.69)"/><path class="196ea26c-1649-49f7-9c33-3f92c249bdfe" d="M116.58,118.32l-12.94,2.34,1.51,8.35,14.45-2.62,1.18,6.53L98.35,137,92,101.8l21.71-3.92,1.18,6.52-13.73,2.48,1.32,7.31,12.94-2.34Z" transform="translate(146.79 16.69)"/></svg>