<svg xmlns="http://www.w3.org/2000/svg" viewBox="0 0 2834.7 130.4"><defs><style>.a{fill:#1e9a1e;}.b{fill:#ff9a1e;}.c{isolation:isolate;font-size:40px;fill:#fff;font-family:Verdana-Bold, Verdana;font-weight:700;}</style></defs><title>bar-done</title><rect class="a" x="-3" width="2837.6" height="130.39"/><rect class="b" y="124.7" width="2834.6" height="5.7"/><rect class="b" width="2834.6" height="5.7"/><rect class="b" x="66.7" width="5.7" height="28.3"/><rect class="b" x="137.6" width="5.7" height="28.4"/><rect class="b" x="208.4" width="5.7" height="28.4"/><rect class="b" x="279.3" width="5.7" height="28.4"/><rect class="b" x="66.7" y="102" width="5.7" height="28.3"/><rect class="b" x="137.6" y="102" width="5.7" height="28.4"/><rect class="b" x="208.4" y="102" width="5.7" height="28.4"/><rect class="b" x="279.3" y="102" width="5.7" height="28.4"/><rect class="b" x="421" width="5.7" height="28.4"/><rect class="b" x="491.9" width="5.7" height="28.4"/><rect class="b" x="562.8" width="5.7" height="28.3"/><rect class="b" x="633.6" width="5.7" height="28.3"/><rect class="b" x="421" y="102" width="5.7" height="28.4"/><rect class="b" x="491.9" y="102" width="5.7" height="28.4"/><rect class="b" x="562.8" y="102" width="5.7" height="28.3"/><rect class="b" x="633.6" y="102" width="5.7" height="28.3"/><rect class="b" x="775.7" width="5.7" height="28.3"/><rect class="b" x="846.6" width="5.7" height="28.3"/><rect class="b" x="917.4" width="5.7" height="28.3"/><rect class="b" x="988.3" width="5.7" height="28.3"/><rect class="b" x="775.7" y="102" width="5.7" height="28.3"/><rect class="b" x="846.6" y="102" width="5.7" height="28.3"/><rect class="b" x="917.4" y="102.1" width="5.7" height="28.3"/><rect class="b" x="988.3" y="102.1" width="5.7" height="28.3"/><rect class="b" x="1130" width="5.7" height="28.3"/><rect class="b" x="1200.9" width="5.7" height="28.3"/><rect class="b" x="1271.8" width="5.7" height="28.3"/><rect class="b" x="1342.6" width="5.7" height="28.3"/><rect class="b" x="1130" y="102" width="5.7" height="28.3"/><rect class="b" x="1200.9" y="102.1" width="5.7" height="28.3"/><rect class="b" x="1271.8" y="102" width="5.7" height="28.3"/><rect class="b" x="1342.6" y="102.1" width="5.7" height="28.3"/><rect class="b" x="1482.2" width="5.7" height="28.3"/><rect class="b" x="1553.1" width="5.7" height="28.3"/><rect class="b" x="1624" width="5.7" height="28.3"/><rect class="b" x="1694.8" width="5.7" height="28.3"/><rect class="b" x="1482.2" y="102" width="5.7" height="28.3"/><rect class="b" x="1553.1" y="102.1" width="5.7" height="28.3"/><rect class="b" x="1624" y="102.1" width="5.7" height="28.3"/><rect class="b" x="1694.8" y="102" width="5.7" height="28.3"/><rect class="b" x="1836.6" width="5.7" height="28.3"/><rect class="b" x="1907.4" width="5.7" height="28.3"/><rect class="b" x="1978.3" width="5.7" height="28.3"/><rect class="b" x="2049.2" width="5.7" height="28.3"/><rect class="b" x="1836.6" y="102" width="5.7" height="28.3"/><rect class="b" x="1907.4" y="102" width="5.7" height="28.3"/><rect class="b" x="1978.3" y="102" width="5.7" height="28.3"/><rect class="b" x="2049.2" y="102" width="5.7" height="28.3"/><rect class="b" x="2191.2" width="5.7" height="28.4"/><rect class="b" x="2262.1" width="5.7" height="28.4"/><rect class="b" x="2333" width="5.7" height="28.4"/><rect class="b" x="2403.8" width="5.7" height="28.4"/><rect class="b" x="2191.2" y="102" width="5.7" height="28.4"/><rect class="b" x="2262.1" y="102.1" width="5.7" height="28.4"/><rect class="b" x="2333" y="102.1" width="5.7" height="28.4"/><rect class="b" x="2403.8" y="102" width="5.7" height="28.4"/><rect class="b" x="2545.6" width="5.7" height="28.4"/><rect class="b" x="2616.4" width="5.7" height="28.4"/><rect class="b" x="2687.3" width="5.7" height="28.4"/><rect class="b" x="2758.2" width="5.7" height="28.4"/><rect class="b" x="2545.6" y="102.1" width="5.7" height="28.4"/><rect class="b" x="2616.4" y="102" width="5.7" height="28.4"/><rect class="b" x="2687.3" y="102.1" width="5.7" height="28.4"/><rect class="b" x="2758.2" y="102.1" width="5.7" height="28.4"/><rect class="b" x="2472.7" width="11.3" height="28.4"/><rect class="b" x="2472.7" y="102.1" width="11.3" height="28.4"/><rect class="b" x="2117.7" width="11.3" height="28.4"/><rect class="b" x="2117.7" y="102.1" width="11.3" height="28.4"/><rect class="b" x="1762.7" width="11.3" height="28.4"/><rect class="b" x="1762.7" y="102.1" width="11.3" height="28.4"/><rect class="b" x="1411.7" width="11.3" height="28.4"/><rect class="b" x="1411.7" y="102.1" width="11.3" height="28.4"/><rect class="b" x="1055.7" width="11.3" height="28.4"/><rect class="b" x="1055.7" y="102.1" width="11.3" height="28.4"/><rect class="b" x="702.7" width="11.3" height="28.4"/><rect class="b" x="702.7" y="102.1" width="11.3" height="28.4"/><rect class="b" x="346.7" width="11.3" height="28.4"/><rect class="b" x="346.7" y="102.1" width="11.3" height="28.4"/><text class="c" transform="translate(296.47 80.09)">9000</text><text class="c" transform="translate(651.47 80.09)">9500</text><text class="c" transform="translate(987.47 80.09)">10000</text><text class="c" transform="translate(1342.47 80.09)">10500</text><text class="c" transform="translate(1698.47 80.09)">11000</text><text class="c" transform="translate(2053.47 80.09)">11500</text><text class="c" transform="translate(2404.47 80.09)">12000</text></svg>