<svg version="1.1" id="Слой_1" xmlns="http://www.w3.org/2000/svg" xmlns:xlink="http://www.w3.org/1999/xlink" x="0px" y="0px"
	 viewBox="0 0 2834.7 130.4" style="enable-background:new 0 0 2834.7 130.4;" xml:space="preserve">
<style type="text/css">
	.st0{fill:#FF9A1E;}
	.st1{fill:#FFFFFF;}
	.st2{font-size: 40px;
        font-family: Verdana-Bold, Verdana;
        font-weight: 700;
		fill: #fff;}
	.st3{font-size:40px;}
</style>
<title>bar</title>
<g id="bg">
	<rect id="foot" y="124.7" class="st0" width="2834.6" height="5.7"/>
	<rect id="head" y="0" class="st0" width="2834.6" height="5.7"/>
</g>
<g id="grid">
	<rect id="vls" x="68.1" y="0" class="st0" width="2.8" height="28.3"/>
	<rect id="vls-2" x="139" y="0" class="st0" width="2.8" height="28.4"/>
	<rect id="vls-3" x="209.9" y="0" class="st0" width="2.8" height="28.4"/>
	<rect id="vls-4" x="280.7" y="0" class="st0" width="2.8" height="28.4"/>
	<rect id="vls-5" x="68.1" y="102" class="st0" width="2.8" height="28.3"/>
	<rect id="vls-6" x="139" y="102" class="st0" width="2.8" height="28.4"/>
	<rect id="vls-7" x="209.9" y="102" class="st0" width="2.8" height="28.4"/>
	<rect id="vls-8" x="280.7" y="102" class="st0" width="2.8" height="28.4"/>
	<rect id="vls-9" x="422.5" y="0" class="st0" width="2.8" height="28.4"/>
	<rect id="vls-10" x="493.3" y="0" class="st0" width="2.8" height="28.4"/>
	<rect id="vls-11" x="564.2" y="0" class="st0" width="2.8" height="28.3"/>
	<rect id="vls-12" x="635" y="0" class="st0" width="2.8" height="28.3"/>
	<rect id="vls-13" x="422.5" y="102" class="st0" width="2.8" height="28.4"/>
	<rect id="vls-14" x="493.3" y="102" class="st0" width="2.8" height="28.4"/>
	<rect id="vls-15" x="564.2" y="102" class="st0" width="2.8" height="28.3"/>
	<rect id="vls-16" x="635" y="102" class="st0" width="2.8" height="28.3"/>
	<rect id="vls-17" x="777.1" y="0" class="st0" width="2.8" height="28.3"/>
	<rect id="vls-18" x="848" y="0" class="st0" width="2.8" height="28.3"/>
	<rect id="vls-19" x="918.8" y="0" class="st0" width="2.8" height="28.3"/>
	<rect id="vls-20" x="989.7" y="0" class="st0" width="2.8" height="28.3"/>
	<rect id="vls-21" x="777.1" y="102" class="st0" width="2.8" height="28.3"/>
	<rect id="vls-22" x="848" y="102" class="st0" width="2.8" height="28.3"/>
	<rect id="vls-23" x="918.8" y="102.1" class="st0" width="2.8" height="28.3"/>
	<rect id="vls-24" x="989.7" y="102.1" class="st0" width="2.8" height="28.3"/>
	<rect id="vls-25" x="1131.5" y="0" class="st0" width="2.8" height="28.3"/>
	<rect id="vls-26" x="1202.3" y="0" class="st0" width="2.8" height="28.3"/>
	<rect id="vls-27" x="1273.2" y="0" class="st0" width="2.8" height="28.3"/>
	<rect id="vls-28" x="1344.1" y="0" class="st0" width="2.8" height="28.3"/>
	<rect id="vls-29" x="1131.4" y="102" class="st0" width="2.8" height="28.3"/>
	<rect id="vls-30" x="1202.3" y="102.1" class="st0" width="2.8" height="28.3"/>
	<rect id="vls-31" x="1273.2" y="102" class="st0" width="2.8" height="28.3"/>
	<rect id="vls-32" x="1344.1" y="102.1" class="st0" width="2.8" height="28.3"/>
	<rect id="vls-33" x="1483.6" y="0" class="st0" width="2.8" height="28.3"/>
	<rect id="vls-34" x="1554.5" y="0" class="st0" width="2.8" height="28.3"/>
	<rect id="vls-35" x="1625.4" y="0" class="st0" width="2.8" height="28.3"/>
	<rect id="vls-36" x="1696.2" y="0" class="st0" width="2.8" height="28.3"/>
	<rect id="vls-37" x="1483.7" y="102" class="st0" width="2.8" height="28.3"/>
	<rect id="vls-38" x="1554.5" y="102.1" class="st0" width="2.8" height="28.3"/>
	<rect id="vls-39" x="1625.4" y="102.1" class="st0" width="2.8" height="28.3"/>
	<rect id="vls-40" x="1696.3" y="102" class="st0" width="2.8" height="28.3"/>
	<rect id="vls-41" x="1838" y="0" class="st0" width="2.8" height="28.3"/>
	<rect id="vls-42" x="1908.8" y="0" class="st0" width="2.8" height="28.3"/>
	<rect id="vls-43" x="1979.7" y="0" class="st0" width="2.8" height="28.3"/>
	<rect id="vls-44" x="2050.6" y="0" class="st0" width="2.8" height="28.3"/>
	<rect id="vls-45" x="1838" y="102" class="st0" width="2.8" height="28.3"/>
	<rect id="vls-46" x="1908.8" y="102" class="st0" width="2.8" height="28.3"/>
	<rect id="vls-47" x="1979.7" y="102" class="st0" width="2.8" height="28.3"/>
	<rect id="vls-48" x="2050.6" y="102" class="st0" width="2.8" height="28.3"/>
	<rect id="vls-49" x="2192.6" y="0" class="st0" width="2.8" height="28.4"/>
	<rect id="vls-50" x="2263.5" y="0" class="st0" width="2.8" height="28.4"/>
	<rect id="vls-51" x="2334.4" y="0" class="st0" width="2.8" height="28.4"/>
	<rect id="vls-52" x="2405.2" y="0" class="st0" width="2.8" height="28.4"/>
	<rect id="vls-53" x="2192.6" y="102" class="st0" width="2.8" height="28.4"/>
	<rect id="vls-54" x="2263.5" y="102.1" class="st0" width="2.8" height="28.4"/>
	<rect id="vls-55" x="2334.4" y="102.1" class="st0" width="2.8" height="28.4"/>
	<rect id="vls-56" x="2405.3" y="102" class="st0" width="2.8" height="28.4"/>
	<rect id="vls-57" x="2547" y="0" class="st0" width="2.8" height="28.4"/>
	<rect id="vls-58" x="2617.8" y="0" class="st0" width="2.8" height="28.4"/>
	<rect id="vls-59" x="2688.7" y="0" class="st0" width="2.8" height="28.4"/>
	<rect id="vls-60" x="2759.6" y="0" class="st0" width="2.8" height="28.4"/>
	<rect id="vls-61" x="2547" y="102.1" class="st0" width="2.8" height="28.4"/>
	<rect id="vls-62" x="2617.9" y="102" class="st0" width="2.8" height="28.4"/>
	<rect id="vls-63" x="2688.7" y="102.1" class="st0" width="2.8" height="28.4"/>
	<rect id="vls-64" x="2759.6" y="102.1" class="st0" width="2.8" height="28.4"/>
</g>
<g id="rex">
	<polygon class="st0" points="352.9,29.2 366.8,5.2 339.1,5.2 	"/>
	<polygon class="st0" points="352.9,101.2 339.1,125.2 366.8,125.2 	"/>
	<polygon class="st0" points="707.9,29.2 721.8,5.2 694.1,5.2 	"/>
	<polygon class="st0" points="707.9,101.2 694.1,125.2 721.8,125.2 	"/>
	<polygon class="st0" points="1061.9,29.2 1075.8,5.2 1048.1,5.2 	"/>
	<polygon class="st0" points="1061.9,101.2 1048.1,125.2 1075.8,125.2 	"/>
	<polygon class="st0" points="1417.9,29.2 1431.8,5.2 1404.1,5.2 	"/>
	<polygon class="st0" points="1417.9,101.2 1404.1,125.2 1431.8,125.2 	"/>
	<polygon class="st0" points="1768.9,29.2 1782.8,5.2 1755.1,5.2 	"/>
	<polygon class="st0" points="1768.9,101.2 1755.1,125.2 1782.8,125.2 	"/>
	<polygon class="st0" points="2123.9,29.2 2137.8,5.2 2110.1,5.2 	"/>
	<polygon class="st0" points="2123.9,101.2 2110.1,125.2 2137.8,125.2 	"/>
	<polygon class="st0" points="2477.9,29.2 2491.8,5.2 2464.1,5.2 	"/>
	<polygon class="st0" points="2477.9,101.2 2464.1,125.2 2491.8,125.2 	"/>
</g>
<g id="text">
	<text transform="matrix(1 0 0 1 296.47 80.09)" class="st1 st2 st3">0000</text>
	<text transform="matrix(1 0 0 1 651.47 80.09)" class="st1 st2 st3">0000</text>
	<text transform="matrix(1 0 0 1 1002.47 80.09)" class="st1 st2 st3">0000</text>
	<text transform="matrix(1 0 0 1 1357.47 80.09)" class="st1 st2 st3">0000</text>
	<text transform="matrix(1 0 0 1 1713.47 80.09)" class="st1 st2 st3">0000</text>
	<text transform="matrix(1 0 0 1 2068.47 80.09)" class="st1 st2 st3">0000</text>
	<text transform="matrix(1 0 0 1 2419.47 80.09)" class="st1 st2 st3">0000</text>
	<text transform="matrix(1 0 0 1 2774.47 80.09)" class="st1 st2 st3">0000</text>
</g>
</svg>
