<?xml version="1.0" encoding="utf-8"?>
<!-- Generator: Adobe Illustrator 22.0.0, SVG Export Plug-In . SVG Version: 6.00 Build 0)  -->
<svg version="1.1" id="Слой_1" xmlns="http://www.w3.org/2000/svg" xmlns:xlink="http://www.w3.org/1999/xlink" x="0px" y="0px"
	 viewBox="0 0 2834.7 130.4" style="enable-background:new 0 0 2834.7 130.4;" xml:space="preserve">
<style type="text/css">
	.st0{fill:#FF9A1E;}
	.st1{fill:#FFFFFF;}
	.st2{font-size: 40px;
        font-family: Verdana-Bold, Verdana;
        font-weight: 700;
		fill: #fff;}
	.st3{font-size:40px;}
</style>
<title>bar</title>
<g id="bg">
	<rect id="foot" y="124.7" class="st0" width="2834.6" height="5.7"/>
	<rect id="head" y="0" class="st0" width="2834.6" height="5.7"/>
</g>
<g id="grid">
	<rect id="vls" x="66.7" y="0" class="st0" width="5.7" height="28.3"/>
	<rect id="vls-2" x="137.6" y="0" class="st0" width="5.7" height="28.4"/>
	<rect id="vls-3" x="208.4" y="0" class="st0" width="5.7" height="28.4"/>
	<rect id="vls-4" x="279.3" y="0" class="st0" width="5.7" height="28.4"/>
	<rect id="vls-5" x="66.7" y="102" class="st0" width="5.7" height="28.3"/>
	<rect id="vls-6" x="137.6" y="102" class="st0" width="5.7" height="28.4"/>
	<rect id="vls-7" x="208.4" y="102" class="st0" width="5.7" height="28.4"/>
	<rect id="vls-8" x="279.3" y="102" class="st0" width="5.7" height="28.4"/>
	<rect id="vls-9" x="421" y="0" class="st0" width="5.7" height="28.4"/>
	<rect id="vls-10" x="491.9" y="0" class="st0" width="5.7" height="28.4"/>
	<rect id="vls-11" x="562.8" y="0" class="st0" width="5.7" height="28.3"/>
	<rect id="vls-12" x="633.6" y="0" class="st0" width="5.7" height="28.3"/>
	<rect id="vls-13" x="421" y="102" class="st0" width="5.7" height="28.4"/>
	<rect id="vls-14" x="491.9" y="102" class="st0" width="5.7" height="28.4"/>
	<rect id="vls-15" x="562.8" y="102" class="st0" width="5.7" height="28.3"/>
	<rect id="vls-16" x="633.6" y="102" class="st0" width="5.7" height="28.3"/>
	<rect id="vls-17" x="775.7" y="0" class="st0" width="5.7" height="28.3"/>
	<rect id="vls-18" x="846.6" y="0" class="st0" width="5.7" height="28.3"/>
	<rect id="vls-19" x="917.4" y="0" class="st0" width="5.7" height="28.3"/>
	<rect id="vls-20" x="988.3" y="0" class="st0" width="5.7" height="28.3"/>
	<rect id="vls-21" x="775.7" y="102" class="st0" width="5.7" height="28.3"/>
	<rect id="vls-22" x="846.6" y="102" class="st0" width="5.7" height="28.3"/>
	<rect id="vls-23" x="917.4" y="102.1" class="st0" width="5.7" height="28.3"/>
	<rect id="vls-24" x="988.3" y="102.1" class="st0" width="5.7" height="28.3"/>
	<rect id="vls-25" x="1130" y="0" class="st0" width="5.7" height="28.3"/>
	<rect id="vls-26" x="1200.9" y="0" class="st0" width="5.7" height="28.3"/>
	<rect id="vls-27" x="1271.8" y="0" class="st0" width="5.7" height="28.3"/>
	<rect id="vls-28" x="1342.6" y="0" class="st0" width="5.7" height="28.3"/>
	<rect id="vls-29" x="1130" y="102" class="st0" width="5.7" height="28.3"/>
	<rect id="vls-30" x="1200.9" y="102.1" class="st0" width="5.7" height="28.3"/>
	<rect id="vls-31" x="1271.8" y="102" class="st0" width="5.7" height="28.3"/>
	<rect id="vls-32" x="1342.6" y="102.1" class="st0" width="5.7" height="28.3"/>
	<rect id="vls-33" x="1482.2" y="0" class="st0" width="5.7" height="28.3"/>
	<rect id="vls-34" x="1553.1" y="0" class="st0" width="5.7" height="28.3"/>
	<rect id="vls-35" x="1624" y="0" class="st0" width="5.7" height="28.3"/>
	<rect id="vls-36" x="1694.8" y="0" class="st0" width="5.7" height="28.3"/>
	<rect id="vls-37" x="1482.2" y="102" class="st0" width="5.7" height="28.3"/>
	<rect id="vls-38" x="1553.1" y="102.1" class="st0" width="5.7" height="28.3"/>
	<rect id="vls-39" x="1624" y="102.1" class="st0" width="5.7" height="28.3"/>
	<rect id="vls-40" x="1694.8" y="102" class="st0" width="5.7" height="28.3"/>
	<rect id="vls-41" x="1836.6" y="0" class="st0" width="5.7" height="28.3"/>
	<rect id="vls-42" x="1907.4" y="0" class="st0" width="5.7" height="28.3"/>
	<rect id="vls-43" x="1978.3" y="0" class="st0" width="5.7" height="28.3"/>
	<rect id="vls-44" x="2049.2" y="0" class="st0" width="5.7" height="28.3"/>
	<rect id="vls-45" x="1836.6" y="102" class="st0" width="5.7" height="28.3"/>
	<rect id="vls-46" x="1907.4" y="102" class="st0" width="5.7" height="28.3"/>
	<rect id="vls-47" x="1978.3" y="102" class="st0" width="5.7" height="28.3"/>
	<rect id="vls-48" x="2049.2" y="102" class="st0" width="5.7" height="28.3"/>
	<rect id="vls-49" x="2191.2" y="0" class="st0" width="5.7" height="28.4"/>
	<rect id="vls-50" x="2262.1" y="0" class="st0" width="5.7" height="28.4"/>
	<rect id="vls-51" x="2333" y="0" class="st0" width="5.7" height="28.4"/>
	<rect id="vls-52" x="2403.8" y="0" class="st0" width="5.7" height="28.4"/>
	<rect id="vls-53" x="2191.2" y="102" class="st0" width="5.7" height="28.4"/>
	<rect id="vls-54" x="2262.1" y="102.1" class="st0" width="5.7" height="28.4"/>
	<rect id="vls-55" x="2333" y="102.1" class="st0" width="5.7" height="28.4"/>
	<rect id="vls-56" x="2403.8" y="102" class="st0" width="5.7" height="28.4"/>
	<rect id="vls-57" x="2545.6" y="0" class="st0" width="5.7" height="28.4"/>
	<rect id="vls-58" x="2616.4" y="0" class="st0" width="5.7" height="28.4"/>
	<rect id="vls-59" x="2687.3" y="0" class="st0" width="5.7" height="28.4"/>
	<rect id="vls-60" x="2758.2" y="0" class="st0" width="5.7" height="28.4"/>
	<rect id="vls-61" x="2545.6" y="102.1" class="st0" width="5.7" height="28.4"/>
	<rect id="vls-62" x="2616.4" y="102" class="st0" width="5.7" height="28.4"/>
	<rect id="vls-63" x="2687.3" y="102.1" class="st0" width="5.7" height="28.4"/>
	<rect id="vls-64" x="2758.2" y="102.1" class="st0" width="5.7" height="28.4"/>
</g>
<g id="rex">
	<polygon class="st0" points="352.9,29.2 366.8,5.2 339.1,5.2 	"/>
	<polygon class="st0" points="352.9,101.2 339.1,125.2 366.8,125.2 	"/>
	<polygon class="st0" points="707.9,29.2 721.8,5.2 694.1,5.2 	"/>
	<polygon class="st0" points="707.9,101.2 694.1,125.2 721.8,125.2 	"/>
	<polygon class="st0" points="1061.9,29.2 1075.8,5.2 1048.1,5.2 	"/>
	<polygon class="st0" points="1061.9,101.2 1048.1,125.2 1075.8,125.2 	"/>
	<polygon class="st0" points="1417.9,29.2 1431.8,5.2 1404.1,5.2 	"/>
	<polygon class="st0" points="1417.9,101.2 1404.1,125.2 1431.8,125.2 	"/>
	<polygon class="st0" points="1768.9,29.2 1782.8,5.2 1755.1,5.2 	"/>
	<polygon class="st0" points="1768.9,101.2 1755.1,125.2 1782.8,125.2 	"/>
	<polygon class="st0" points="2123.9,29.2 2137.8,5.2 2110.1,5.2 	"/>
	<polygon class="st0" points="2123.9,101.2 2110.1,125.2 2137.8,125.2 	"/>
	<polygon class="st0" points="2477.9,29.2 2491.8,5.2 2464.1,5.2 	"/>
	<polygon class="st0" points="2477.9,101.2 2464.1,125.2 2491.8,125.2 	"/>
</g>
<g id="text">
	<text transform="matrix(1 0 0 1 296.47 80.09)" class="st1 st2 st3">0500</text>
	<text transform="matrix(1 0 0 1 651.47 80.09)" class="st1 st2 st3">0000</text>
	<text transform="matrix(1 0 0 1 1002.47 80.09)" class="st1 st2 st3">0500</text>
	<text transform="matrix(1 0 0 1 1357.47 80.09)" class="st1 st2 st3">0000</text>
	<text transform="matrix(1 0 0 1 1713.47 80.09)" class="st1 st2 st3">0500</text>
	<text transform="matrix(1 0 0 1 2068.47 80.09)" class="st1 st2 st3">0000</text>
	<text transform="matrix(1 0 0 1 2419.47 80.09)" class="st1 st2 st3">0500</text>
	<text transform="matrix(1 0 0 1 2774.47 80.09)" class="st1 st2 st3">0000</text>
</g>
</svg>
