<svg xmlns="http://www.w3.org/2000/svg" xmlns:xlink="http://www.w3.org/1999/xlink" viewBox="0 0 37.11 35.56"><defs><style>.\37 e77e113-38e3-4efc-8a51-c9408d39f99a{isolation:isolate;}.\32 4ec5ca0-c78f-4526-a918-a83732630bdd{font-size:3.7px;font-family:MyriadPro-Regular, Myriad Pro;}.c1840189-713f-4f5a-8936-67fec658f94b{font-size:8.23px;font-family:MyriadPro-Bold, Myriad Pro;font-weight:700;}.\34 a64d224-6100-4897-b867-c42955fdd786{letter-spacing:-0.02em;}.e809f663-42e6-4840-8317-a66998ff7ced{letter-spacing:-0.05em;}.\35 be5f244-15fe-490e-9a2a-a9dc0240757f{letter-spacing:0em;}.\38 7e0a6ae-0f87-418d-a124-5caa716f1c2d{font-size:5.3px;}.\33 956b67c-cc9e-4715-8522-54de6b7107d1{letter-spacing:-0.07em;}.\38 d83fdf4-5b42-4f4a-9e69-95bf6e3f2a3c{letter-spacing:0em;}.\38 9e7b3d4-dc07-4846-b076-7512675573c9{fill:url(#37fa0fb0-a109-4b1f-99b7-87854c710f84);}.\37 a41d869-a99f-4172-939c-a2dfa001a51a{fill:url(#73493c19-0af7-499e-a0aa-ddccf3e0b215);}.\31 a1402e8-612f-4ab6-b9b5-f140247799c5{fill:#7ae643;mix-blend-mode:multiply;}.c873c029-a884-4fe6-8465-1db61b1297ba{fill:url(#00c00a8a-ed35-4c6d-95da-d59b418a6739);}.da228b25-041a-4531-b4ab-7592741eef82{fill:url(#bb688134-0da6-496d-8b6e-e122d5b4f6a1);}.\33 afcc135-a0d0-4a96-9e9b-15789973dd7a{mix-blend-mode:screen;fill:url(#901d2f28-0608-4e7d-9c4b-c33270dd8c34);}</style><linearGradient id="37fa0fb0-a109-4b1f-99b7-87854c710f84" x1="47.75" y1="11.13" x2="24.75" y2="42.58" gradientUnits="userSpaceOnUse"><stop offset="0" stop-color="#1e9a1e"/><stop offset="0.24" stop-color="#7ae643"/><stop offset="0.38" stop-color="#4bbf30"/><stop offset="0.5" stop-color="#2aa423"/><stop offset="0.56" stop-color="#1e9a1e"/><stop offset="0.62" stop-color="#26a121"/><stop offset="0.7" stop-color="#3cb32a"/><stop offset="0.81" stop-color="#60d038"/><stop offset="0.87" stop-color="#7ae643"/><stop offset="0.97" stop-color="#1e9a1e"/></linearGradient><linearGradient id="73493c19-0af7-499e-a0aa-ddccf3e0b215" x1="19.22" y1="26.9" x2="53.22" y2="26.9" xlink:href="#37fa0fb0-a109-4b1f-99b7-87854c710f84"/><linearGradient id="00c00a8a-ed35-4c6d-95da-d59b418a6739" x1="22.36" y1="15.27" x2="50.08" y2="38.53" xlink:href="#37fa0fb0-a109-4b1f-99b7-87854c710f84"/><linearGradient id="bb688134-0da6-496d-8b6e-e122d5b4f6a1" x1="20.9" y1="36.48" x2="51.55" y2="17.32" xlink:href="#37fa0fb0-a109-4b1f-99b7-87854c710f84"/><radialGradient id="901d2f28-0608-4e7d-9c4b-c33270dd8c34" cx="-449.21" cy="1028.64" r="14.54" gradientTransform="matrix(0.15, 0, 0, 0.06, 105.45, -23.29)" gradientUnits="userSpaceOnUse"><stop offset="0" stop-color="#fff"/><stop offset="0.06" stop-color="#e6e6e6"/><stop offset="0.2" stop-color="#aaa"/><stop offset="0.34" stop-color="#767676"/><stop offset="0.48" stop-color="#4c4c4c"/><stop offset="0.62" stop-color="#2b2b2b"/><stop offset="0.75" stop-color="#131313"/><stop offset="0.87" stop-color="#050505"/><stop offset="0.97"/></radialGradient></defs><title>sharpay-label</title><g class="7e77e113-38e3-4efc-8a51-c9408d39f99a"><g id="713e64a6-64ad-4a78-a2cc-bf6515b5adf0" data-name="Слой 1"><text class="24ec5ca0-c78f-4526-a918-a83732630bdd" transform="translate(7.93 18.06) rotate(-86.64)">S</text><text class="24ec5ca0-c78f-4526-a918-a83732630bdd" transform="matrix(0.22, -0.98, 0.98, 0.22, 8, 16.45)">u</text><text class="24ec5ca0-c78f-4526-a918-a83732630bdd" transform="translate(8.31 14.67) rotate(-64.8)">m</text><text class="24ec5ca0-c78f-4526-a918-a83732630bdd" transform="translate(9.6 12.1) rotate(-55.44)"> </text><text class="24ec5ca0-c78f-4526-a918-a83732630bdd" transform="matrix(0.67, -0.74, 0.74, 0.67, 9.92, 11.55)">A</text><text class="24ec5ca0-c78f-4526-a918-a83732630bdd" transform="translate(11.26 10.04) rotate(-37.82)">n</text><text class="24ec5ca0-c78f-4526-a918-a83732630bdd" transform="translate(12.7 8.89) rotate(-27.82)">d</text><text class="24ec5ca0-c78f-4526-a918-a83732630bdd" transform="matrix(0.93, -0.36, 0.36, 0.93, 14.43, 8.01)"> </text><text class="24ec5ca0-c78f-4526-a918-a83732630bdd" transform="translate(15.02 7.75) rotate(-14.43)">S</text><text class="24ec5ca0-c78f-4526-a918-a83732630bdd" transform="translate(16.59 7.32) rotate(-5.08)">u</text><text class="24ec5ca0-c78f-4526-a918-a83732630bdd" transform="translate(18.42 7.14) rotate(4.9)">b</text><text class="24ec5ca0-c78f-4526-a918-a83732630bdd" transform="matrix(0.97, 0.23, -0.23, 0.97, 20.33, 7.31)">s</text><text class="24ec5ca0-c78f-4526-a918-a83732630bdd" transform="matrix(0.94, 0.34, -0.34, 0.94, 21.62, 7.62)">t</text><text class="24ec5ca0-c78f-4526-a918-a83732630bdd" transform="translate(22.63 7.96) rotate(27.38)">a</text><text class="24ec5ca0-c78f-4526-a918-a83732630bdd" transform="translate(24.04 8.66) rotate(36.62)">n</text><text class="24ec5ca0-c78f-4526-a918-a83732630bdd" transform="translate(25.53 9.77) rotate(45.51)">c</text><text class="24ec5ca0-c78f-4526-a918-a83732630bdd" transform="matrix(0.59, 0.81, -0.81, 0.59, 26.58, 10.8)">e</text><text class="24ec5ca0-c78f-4526-a918-a83732630bdd" transform="translate(27.57 12.2) rotate(60.27)"> </text><text class="24ec5ca0-c78f-4526-a918-a83732630bdd" transform="matrix(0.4, 0.92, -0.92, 0.4, 27.92, 12.74)">L</text><text class="24ec5ca0-c78f-4526-a918-a83732630bdd" transform="translate(28.55 14.2) rotate(73.61)">t</text><text class="24ec5ca0-c78f-4526-a918-a83732630bdd" transform="matrix(0.15, 0.99, -0.99, 0.15, 28.88, 15.17)">d</text><text class="24ec5ca0-c78f-4526-a918-a83732630bdd" transform="translate(29.13 17.06) rotate(88.19)">.</text><text class="c1840189-713f-4f5a-8936-67fec658f94b" transform="translate(11.35 19.38)"><tspan class="4a64d224-6100-4897-b867-c42955fdd786">K<tspan class="e809f663-42e6-4840-8317-a66998ff7ced" x="4.93" y="0">Y</tspan><tspan class="5be5f244-15fe-490e-9a2a-a9dc0240757f" x="9.51" y="0">C</tspan></tspan><tspan class="87e0a6ae-0f87-418d-a124-5caa716f1c2d"><tspan x="-3.52" y="6.36">S</tspan><tspan class="3956b67c-cc9e-4715-8522-54de6b7107d1" x="-0.65" y="6.36">T</tspan><tspan class="8d83fdf4-5b42-4f4a-9e69-95bf6e3f2a3c" x="1.87" y="6.36">ARTED</tspan></tspan></text><g id="4a170fc3-3752-4b60-8f47-594e0dc72411" data-name="KYC"><path class="89e7b3d4-dc07-4846-b076-7512675573c9" d="M54.78,26.9c0,1.9-2,3.46-2.6,5.18s.14,4.24-.94,5.73-3.66,1.57-5.16,2.66S43.74,44,42,44.55s-3.83-.87-5.74-.87-4,1.43-5.73.87-2.65-3-4.13-4.08-4.06-1.17-5.15-2.66-.37-3.94-.95-5.73-2.59-3.28-2.59-5.18,2-3.47,2.59-5.19-.13-4.24.95-5.72,3.65-1.58,5.15-2.67,2.34-3.5,4.13-4.07,3.83.87,5.73.87,4-1.43,5.74-.87,2.64,3,4.12,4.07,4.06,1.17,5.16,2.67.37,3.94.94,5.72S54.78,25,54.78,26.9Z" transform="translate(-17.67 -9.12)"/><path class="7a41d869-a99f-4172-939c-a2dfa001a51a" d="M52.1,24.68a10,10,0,0,1-1.4-2.49,10.23,10.23,0,0,1-.35-2.92A4.77,4.77,0,0,0,50,16.91a4.81,4.81,0,0,0-2.16-1.1,10.06,10.06,0,0,1-2.65-1.23,9.59,9.59,0,0,1-2-2.13c-.6-.79-1.16-1.54-1.73-1.72a1.14,1.14,0,0,0-.39-.06,7.49,7.49,0,0,0-1.93.43,10.23,10.23,0,0,1-2.94.58,10.23,10.23,0,0,1-2.93-.58,7.58,7.58,0,0,0-1.93-.43,1.14,1.14,0,0,0-.39.06c-.58.18-1.14.93-1.73,1.72a9.59,9.59,0,0,1-2,2.13,10.12,10.12,0,0,1-2.66,1.23,4.77,4.77,0,0,0-2.15,1.1,4.78,4.78,0,0,0-.38,2.36,10.23,10.23,0,0,1-.35,2.92,9.44,9.44,0,0,1-1.4,2.49,4.88,4.88,0,0,0-1.12,2.22,4.86,4.86,0,0,0,1.12,2.21,9.6,9.6,0,0,1,1.4,2.49,10.34,10.34,0,0,1,.35,2.93,4.8,4.8,0,0,0,.38,2.36A4.77,4.77,0,0,0,24.62,38a10.09,10.09,0,0,1,2.66,1.22,10,10,0,0,1,2,2.13c.59.8,1.15,1.54,1.73,1.73a1.12,1.12,0,0,0,.39,0,7.51,7.51,0,0,0,1.93-.42,10.23,10.23,0,0,1,2.93-.58,10.23,10.23,0,0,1,2.94.58,7.42,7.42,0,0,0,1.93.42,1.15,1.15,0,0,0,.39,0c.57-.19,1.14-.94,1.73-1.73a10,10,0,0,1,2-2.13A10,10,0,0,1,47.82,38,4.81,4.81,0,0,0,50,36.89a4.84,4.84,0,0,0,.37-2.37,10.31,10.31,0,0,1,.35-2.92,9.75,9.75,0,0,1,1.41-2.49,4.82,4.82,0,0,0,1.11-2.21A4.88,4.88,0,0,0,52.1,24.68Zm-.37,4.38a9,9,0,0,0-1.37,2.43A9.46,9.46,0,0,0,50,34.34a4.69,4.69,0,0,1-.37,2.31,4.66,4.66,0,0,1-2.1,1.07A9.77,9.77,0,0,0,45,38.92,9.39,9.39,0,0,0,43,41c-.58.77-1.13,1.5-1.69,1.69a1.4,1.4,0,0,1-.38.05,7.11,7.11,0,0,1-1.88-.42,10.09,10.09,0,0,0-2.87-.56,10.09,10.09,0,0,0-2.86.56,7.6,7.6,0,0,1-1.89.42,1.46,1.46,0,0,1-.38-.05C30.53,42.5,30,41.77,29.4,41a9.58,9.58,0,0,0-1.91-2.08,9.57,9.57,0,0,0-2.59-1.19,4.75,4.75,0,0,1-2.11-1.08,4.71,4.71,0,0,1-.36-2.31,10.14,10.14,0,0,0-.34-2.85,9.74,9.74,0,0,0-1.37-2.43,4.72,4.72,0,0,1-1.09-2.16,4.75,4.75,0,0,1,1.09-2.17,9.57,9.57,0,0,0,1.37-2.43,10.1,10.1,0,0,0,.34-2.85,4.75,4.75,0,0,1,.36-2.31,4.75,4.75,0,0,1,2.11-1.07,9.61,9.61,0,0,0,2.59-1.2A9.77,9.77,0,0,0,29.4,12.8c.58-.78,1.13-1.51,1.69-1.69a1.46,1.46,0,0,1,.38,0,7.53,7.53,0,0,1,1.89.41,9.75,9.75,0,0,0,2.86.57,10,10,0,0,0,2.86-.56A7.26,7.26,0,0,1,41,11.06a1.4,1.4,0,0,1,.38,0c.56.18,1.11.91,1.69,1.68A9.39,9.39,0,0,0,45,14.87a9.47,9.47,0,0,0,2.59,1.2,4.76,4.76,0,0,1,2.1,1.07A4.74,4.74,0,0,1,50,19.45a9.42,9.42,0,0,0,.34,2.85,9,9,0,0,0,1.37,2.43,4.85,4.85,0,0,1,1.09,2.17A4.82,4.82,0,0,1,51.73,29.06Z" transform="translate(-17.67 -9.12)"/><path class="1a1402e8-612f-4ab6-b9b5-f140247799c5" d="M52.1,24.68a10,10,0,0,1-1.4-2.49,10.23,10.23,0,0,1-.35-2.92A4.77,4.77,0,0,0,50,16.91a4.81,4.81,0,0,0-2.16-1.1,10.06,10.06,0,0,1-2.65-1.23,9.59,9.59,0,0,1-2-2.13c-.6-.79-1.16-1.54-1.73-1.72a1.14,1.14,0,0,0-.39-.06,7.49,7.49,0,0,0-1.93.43,10.23,10.23,0,0,1-2.94.58,10.23,10.23,0,0,1-2.93-.58,7.58,7.58,0,0,0-1.93-.43,1.14,1.14,0,0,0-.39.06c-.58.18-1.14.93-1.73,1.72a9.59,9.59,0,0,1-2,2.13,10.12,10.12,0,0,1-2.66,1.23,4.77,4.77,0,0,0-2.15,1.1,4.78,4.78,0,0,0-.38,2.36,10.23,10.23,0,0,1-.35,2.92,9.44,9.44,0,0,1-1.4,2.49,4.88,4.88,0,0,0-1.12,2.22,4.86,4.86,0,0,0,1.12,2.21,9.6,9.6,0,0,1,1.4,2.49,10.34,10.34,0,0,1,.35,2.93,4.8,4.8,0,0,0,.38,2.36A4.77,4.77,0,0,0,24.62,38a10.09,10.09,0,0,1,2.66,1.22,10,10,0,0,1,2,2.13c.59.8,1.15,1.54,1.73,1.73a1.12,1.12,0,0,0,.39,0,7.51,7.51,0,0,0,1.93-.42,10.23,10.23,0,0,1,2.93-.58,10.23,10.23,0,0,1,2.94.58,7.42,7.42,0,0,0,1.93.42,1.15,1.15,0,0,0,.39,0c.57-.19,1.14-.94,1.73-1.73a10,10,0,0,1,2-2.13A10,10,0,0,1,47.82,38,4.81,4.81,0,0,0,50,36.89a4.84,4.84,0,0,0,.37-2.37,10.31,10.31,0,0,1,.35-2.92,9.75,9.75,0,0,1,1.41-2.49,4.82,4.82,0,0,0,1.11-2.21A4.88,4.88,0,0,0,52.1,24.68Zm-.37,4.38a9,9,0,0,0-1.37,2.43A9.46,9.46,0,0,0,50,34.34a4.69,4.69,0,0,1-.37,2.31,4.66,4.66,0,0,1-2.1,1.07A9.77,9.77,0,0,0,45,38.92,9.39,9.39,0,0,0,43,41c-.58.77-1.13,1.5-1.69,1.69a1.4,1.4,0,0,1-.38.05,7.11,7.11,0,0,1-1.88-.42,10.09,10.09,0,0,0-2.87-.56,10.09,10.09,0,0,0-2.86.56,7.6,7.6,0,0,1-1.89.42,1.46,1.46,0,0,1-.38-.05C30.53,42.5,30,41.77,29.4,41a9.58,9.58,0,0,0-1.91-2.08,9.57,9.57,0,0,0-2.59-1.19,4.75,4.75,0,0,1-2.11-1.08,4.71,4.71,0,0,1-.36-2.31,10.14,10.14,0,0,0-.34-2.85,9.74,9.74,0,0,0-1.37-2.43,4.72,4.72,0,0,1-1.09-2.16,4.75,4.75,0,0,1,1.09-2.17,9.57,9.57,0,0,0,1.37-2.43,10.1,10.1,0,0,0,.34-2.85,4.75,4.75,0,0,1,.36-2.31,4.75,4.75,0,0,1,2.11-1.07,9.61,9.61,0,0,0,2.59-1.2A9.77,9.77,0,0,0,29.4,12.8c.58-.78,1.13-1.51,1.69-1.69a1.46,1.46,0,0,1,.38,0,7.53,7.53,0,0,1,1.89.41,9.75,9.75,0,0,0,2.86.57,10,10,0,0,0,2.86-.56A7.26,7.26,0,0,1,41,11.06a1.4,1.4,0,0,1,.38,0c.56.18,1.11.91,1.69,1.68A9.39,9.39,0,0,0,45,14.87a9.47,9.47,0,0,0,2.59,1.2,4.76,4.76,0,0,1,2.1,1.07A4.74,4.74,0,0,1,50,19.45a9.42,9.42,0,0,0,.34,2.85,9,9,0,0,0,1.37,2.43,4.85,4.85,0,0,1,1.09,2.17A4.82,4.82,0,0,1,51.73,29.06Z" transform="translate(-17.67 -9.12)"/><path class="c873c029-a884-4fe6-8465-1db61b1297ba" d="M51.73,24.73a9,9,0,0,1-1.37-2.43A9.42,9.42,0,0,1,50,19.45a4.74,4.74,0,0,0-.37-2.31,4.76,4.76,0,0,0-2.1-1.07A9.47,9.47,0,0,1,45,14.87,9.39,9.39,0,0,1,43,12.79c-.58-.77-1.13-1.5-1.69-1.68a1.4,1.4,0,0,0-.38,0,7.26,7.26,0,0,0-1.89.42,10,10,0,0,1-2.86.56,9.75,9.75,0,0,1-2.86-.57,7.53,7.53,0,0,0-1.89-.41,1.46,1.46,0,0,0-.38,0c-.56.18-1.11.91-1.69,1.69a9.77,9.77,0,0,1-1.91,2.07,9.61,9.61,0,0,1-2.59,1.2,4.75,4.75,0,0,0-2.11,1.07,4.75,4.75,0,0,0-.36,2.31,10.1,10.1,0,0,1-.34,2.85,9.57,9.57,0,0,1-1.37,2.43,4.75,4.75,0,0,0-1.09,2.17,4.72,4.72,0,0,0,1.09,2.16,9.74,9.74,0,0,1,1.37,2.43,10.14,10.14,0,0,1,.34,2.85,4.71,4.71,0,0,0,.36,2.31,4.75,4.75,0,0,0,2.11,1.08,9.57,9.57,0,0,1,2.59,1.19A9.58,9.58,0,0,1,29.4,41c.58.77,1.13,1.5,1.69,1.69a1.46,1.46,0,0,0,.38.05,7.6,7.6,0,0,0,1.89-.42,10.09,10.09,0,0,1,2.86-.56,10.09,10.09,0,0,1,2.87.56,7.11,7.11,0,0,0,1.88.42,1.4,1.4,0,0,0,.38-.05c.56-.19,1.11-.92,1.69-1.69A9.39,9.39,0,0,1,45,38.92a9.77,9.77,0,0,1,2.59-1.2,4.66,4.66,0,0,0,2.1-1.07A4.69,4.69,0,0,0,50,34.34a9.46,9.46,0,0,1,.34-2.85,9,9,0,0,1,1.37-2.43,4.82,4.82,0,0,0,1.09-2.16A4.85,4.85,0,0,0,51.73,24.73Z" transform="translate(-17.67 -9.12)"/><path class="da228b25-041a-4531-b4ab-7592741eef82" d="M53,24a8.76,8.76,0,0,1-1.25-2.19,9.31,9.31,0,0,1-.3-2.6,5.37,5.37,0,0,0-.58-3,5.36,5.36,0,0,0-2.69-1.49,9,9,0,0,1-2.37-1.08,8.5,8.5,0,0,1-1.72-1.9,5.4,5.4,0,0,0-2.28-2.11,2.38,2.38,0,0,0-.73-.11,8.12,8.12,0,0,0-2.26.48,9.17,9.17,0,0,1-2.61.52A9.24,9.24,0,0,1,33.61,10a8,8,0,0,0-2.25-.48,2.5,2.5,0,0,0-.74.11,5.33,5.33,0,0,0-2.27,2.11,8.54,8.54,0,0,1-1.73,1.9,8.91,8.91,0,0,1-2.36,1.08,5.28,5.28,0,0,0-2.69,1.49,5.29,5.29,0,0,0-.59,3,9,9,0,0,1-.3,2.6A8.76,8.76,0,0,1,19.43,24a5.48,5.48,0,0,0-1.32,2.86,5.45,5.45,0,0,0,1.32,2.85A8.82,8.82,0,0,1,20.68,32a8.91,8.91,0,0,1,.3,2.6,5.27,5.27,0,0,0,.59,3A5.36,5.36,0,0,0,24.26,39a8.89,8.89,0,0,1,2.36,1.07A9,9,0,0,1,28.35,42a5.35,5.35,0,0,0,2.27,2.12,2.5,2.5,0,0,0,.74.1,8.31,8.31,0,0,0,2.25-.47,9.25,9.25,0,0,1,2.61-.53,9.18,9.18,0,0,1,2.61.53,8.45,8.45,0,0,0,2.26.47,2.39,2.39,0,0,0,.73-.1A5.43,5.43,0,0,0,44.1,42a9.24,9.24,0,0,1,1.72-1.9A9,9,0,0,1,48.19,39a5.45,5.45,0,0,0,2.69-1.5,5.35,5.35,0,0,0,.58-3,9.31,9.31,0,0,1,.3-2.6A8.82,8.82,0,0,1,53,29.75a5.45,5.45,0,0,0,1.32-2.85A5.48,5.48,0,0,0,53,24Zm-.9,5.07A9.75,9.75,0,0,0,50.7,31.6a10.31,10.31,0,0,0-.35,2.92A4.84,4.84,0,0,1,50,36.89,4.81,4.81,0,0,1,47.82,38a10,10,0,0,0-2.65,1.22,10,10,0,0,0-2,2.13c-.59.79-1.16,1.54-1.73,1.73a1.15,1.15,0,0,1-.39,0,7.42,7.42,0,0,1-1.93-.42,10.23,10.23,0,0,0-2.94-.58,10.23,10.23,0,0,0-2.93.58,7.51,7.51,0,0,1-1.93.42,1.12,1.12,0,0,1-.39,0c-.58-.19-1.14-.93-1.73-1.73a10,10,0,0,0-2-2.13A10.09,10.09,0,0,0,24.62,38a4.77,4.77,0,0,1-2.15-1.1,4.8,4.8,0,0,1-.38-2.36,10.34,10.34,0,0,0-.35-2.93,9.6,9.6,0,0,0-1.4-2.49,4.86,4.86,0,0,1-1.12-2.21,4.88,4.88,0,0,1,1.12-2.22,9.44,9.44,0,0,0,1.4-2.49,10.23,10.23,0,0,0,.35-2.92,4.78,4.78,0,0,1,.38-2.36,4.77,4.77,0,0,1,2.15-1.1,10.12,10.12,0,0,0,2.66-1.23,9.59,9.59,0,0,0,2-2.13c.59-.79,1.15-1.54,1.73-1.72a1.14,1.14,0,0,1,.39-.06,7.58,7.58,0,0,1,1.93.43,10.23,10.23,0,0,0,2.93.58,10.23,10.23,0,0,0,2.94-.58,7.49,7.49,0,0,1,1.93-.43,1.14,1.14,0,0,1,.39.06c.57.18,1.13.93,1.73,1.72a9.59,9.59,0,0,0,2,2.13,10.06,10.06,0,0,0,2.65,1.23A4.81,4.81,0,0,1,50,16.91a4.77,4.77,0,0,1,.37,2.36,10.23,10.23,0,0,0,.35,2.92,10,10,0,0,0,1.4,2.49,4.88,4.88,0,0,1,1.12,2.22A4.82,4.82,0,0,1,52.11,29.11Z" transform="translate(-17.67 -9.12)"/><path class="3afcc135-a0d0-4a96-9e9b-15789973dd7a" d="M38.46,42.38c0,.51-1,.93-2.24.93S34,42.89,34,42.38s1-.93,2.24-.93S38.46,41.87,38.46,42.38Z" transform="translate(-17.67 -9.12)"/><path class="1a1402e8-612f-4ab6-b9b5-f140247799c5" d="M52.15,24.77a9.44,9.44,0,0,1-1.4-2.49,10.23,10.23,0,0,1-.35-2.92A4.82,4.82,0,0,0,50,17a4.77,4.77,0,0,0-2.15-1.09,10.27,10.27,0,0,1-2.66-1.23,10,10,0,0,1-2-2.13c-.59-.79-1.15-1.54-1.73-1.73a1.48,1.48,0,0,0-.39-.05,7.58,7.58,0,0,0-1.93.43,10.23,10.23,0,0,1-2.93.57,10.23,10.23,0,0,1-2.94-.57,7.49,7.49,0,0,0-1.93-.43,1.48,1.48,0,0,0-.39.05c-.57.19-1.13.94-1.73,1.73a10,10,0,0,1-2,2.13,10.06,10.06,0,0,1-2.65,1.23A4.81,4.81,0,0,0,22.51,17a4.84,4.84,0,0,0-.37,2.37,10.23,10.23,0,0,1-.35,2.92,9.75,9.75,0,0,1-1.41,2.49A4.85,4.85,0,0,0,19.27,27a4.86,4.86,0,0,0,1.12,2.21,10,10,0,0,1,1.4,2.49,10.31,10.31,0,0,1,.35,2.92A4.84,4.84,0,0,0,22.51,37a4.81,4.81,0,0,0,2.16,1.1,10,10,0,0,1,2.65,1.22,10,10,0,0,1,2,2.13c.6.79,1.16,1.54,1.73,1.73a1.48,1.48,0,0,0,.39.05,7.86,7.86,0,0,0,1.93-.42,9.91,9.91,0,0,1,2.94-.58,10.23,10.23,0,0,1,2.93.58,8,8,0,0,0,1.93.42,1.48,1.48,0,0,0,.39-.05c.58-.19,1.14-.94,1.73-1.73a10.32,10.32,0,0,1,2-2.13,10.09,10.09,0,0,1,2.66-1.22A4.77,4.77,0,0,0,50,37a4.82,4.82,0,0,0,.38-2.37,10,10,0,0,1,.35-2.92,9.44,9.44,0,0,1,1.4-2.49A4.86,4.86,0,0,0,53.27,27,4.88,4.88,0,0,0,52.15,24.77Zm-.38,4.38a9.57,9.57,0,0,0-1.37,2.43,10.14,10.14,0,0,0-.34,2.85,4.71,4.71,0,0,1-.36,2.31,4.65,4.65,0,0,1-2.11,1.07A9.61,9.61,0,0,0,45,39a9.58,9.58,0,0,0-1.91,2.08c-.58.77-1.13,1.5-1.69,1.68a1.12,1.12,0,0,1-.38.06,7.6,7.6,0,0,1-1.89-.42,10.09,10.09,0,0,0-2.86-.56,10.09,10.09,0,0,0-2.87.56,7.53,7.53,0,0,1-1.88.42,1,1,0,0,1-.38-.06c-.56-.18-1.11-.91-1.69-1.68A9.39,9.39,0,0,0,27.53,39a9.47,9.47,0,0,0-2.59-1.2,4.66,4.66,0,0,1-2.1-1.07,4.69,4.69,0,0,1-.37-2.31,9.46,9.46,0,0,0-.34-2.85,9,9,0,0,0-1.37-2.43A4.82,4.82,0,0,1,19.67,27a4.8,4.8,0,0,1,1.09-2.17,9,9,0,0,0,1.37-2.43,9.42,9.42,0,0,0,.34-2.85,4.74,4.74,0,0,1,.37-2.31,4.76,4.76,0,0,1,2.1-1.07A9.47,9.47,0,0,0,27.53,15a9.39,9.39,0,0,0,1.92-2.08c.58-.77,1.13-1.5,1.69-1.68a1.06,1.06,0,0,1,.38,0,7.46,7.46,0,0,1,1.88.41,9.76,9.76,0,0,0,2.87.57,9.75,9.75,0,0,0,2.86-.57A7.53,7.53,0,0,1,41,11.15a1.13,1.13,0,0,1,.38,0c.56.18,1.11.91,1.68,1.68A9.89,9.89,0,0,0,45,15a9.61,9.61,0,0,0,2.59,1.2,4.75,4.75,0,0,1,2.11,1.07,4.75,4.75,0,0,1,.36,2.31,10.1,10.1,0,0,0,.34,2.85,9.57,9.57,0,0,0,1.37,2.43A4.7,4.7,0,0,1,52.86,27,4.72,4.72,0,0,1,51.77,29.15Z" transform="translate(-17.67 -9.12)"/><path class="1a1402e8-612f-4ab6-b9b5-f140247799c5" d="M52.15,24.77a9.44,9.44,0,0,1-1.4-2.49,10.23,10.23,0,0,1-.35-2.92A4.82,4.82,0,0,0,50,17a4.77,4.77,0,0,0-2.15-1.09,10.27,10.27,0,0,1-2.66-1.23,10,10,0,0,1-2-2.13c-.59-.79-1.15-1.54-1.73-1.73a1.48,1.48,0,0,0-.39-.05,7.58,7.58,0,0,0-1.93.43,10.23,10.23,0,0,1-2.93.57,10.23,10.23,0,0,1-2.94-.57,7.49,7.49,0,0,0-1.93-.43,1.48,1.48,0,0,0-.39.05c-.57.19-1.13.94-1.73,1.73a10,10,0,0,1-2,2.13,10.06,10.06,0,0,1-2.65,1.23A4.81,4.81,0,0,0,22.51,17a4.84,4.84,0,0,0-.37,2.37,10.23,10.23,0,0,1-.35,2.92,9.75,9.75,0,0,1-1.41,2.49A4.85,4.85,0,0,0,19.27,27a4.86,4.86,0,0,0,1.12,2.21,10,10,0,0,1,1.4,2.49,10.31,10.31,0,0,1,.35,2.92A4.84,4.84,0,0,0,22.51,37a4.81,4.81,0,0,0,2.16,1.1,10,10,0,0,1,2.65,1.22,10,10,0,0,1,2,2.13c.6.79,1.16,1.54,1.73,1.73a1.48,1.48,0,0,0,.39.05,7.86,7.86,0,0,0,1.93-.42,9.91,9.91,0,0,1,2.94-.58,10.23,10.23,0,0,1,2.93.58,8,8,0,0,0,1.93.42,1.48,1.48,0,0,0,.39-.05c.58-.19,1.14-.94,1.73-1.73a10.32,10.32,0,0,1,2-2.13,10.09,10.09,0,0,1,2.66-1.22A4.77,4.77,0,0,0,50,37a4.82,4.82,0,0,0,.38-2.37,10,10,0,0,1,.35-2.92,9.44,9.44,0,0,1,1.4-2.49A4.86,4.86,0,0,0,53.27,27,4.88,4.88,0,0,0,52.15,24.77Zm-.38,4.38a9.57,9.57,0,0,0-1.37,2.43,10.14,10.14,0,0,0-.34,2.85,4.71,4.71,0,0,1-.36,2.31,4.65,4.65,0,0,1-2.11,1.07A9.61,9.61,0,0,0,45,39a9.58,9.58,0,0,0-1.91,2.08c-.58.77-1.13,1.5-1.69,1.68a1.12,1.12,0,0,1-.38.06,7.6,7.6,0,0,1-1.89-.42,10.09,10.09,0,0,0-2.86-.56,10.09,10.09,0,0,0-2.87.56,7.53,7.53,0,0,1-1.88.42,1,1,0,0,1-.38-.06c-.56-.18-1.11-.91-1.69-1.68A9.39,9.39,0,0,0,27.53,39a9.47,9.47,0,0,0-2.59-1.2,4.66,4.66,0,0,1-2.1-1.07,4.69,4.69,0,0,1-.37-2.31,9.46,9.46,0,0,0-.34-2.85,9,9,0,0,0-1.37-2.43A4.82,4.82,0,0,1,19.67,27a4.8,4.8,0,0,1,1.09-2.17,9,9,0,0,0,1.37-2.43,9.42,9.42,0,0,0,.34-2.85,4.74,4.74,0,0,1,.37-2.31,4.76,4.76,0,0,1,2.1-1.07A9.47,9.47,0,0,0,27.53,15a9.39,9.39,0,0,0,1.92-2.08c.58-.77,1.13-1.5,1.69-1.68a1.06,1.06,0,0,1,.38,0,7.46,7.46,0,0,1,1.88.41,9.76,9.76,0,0,0,2.87.57,9.75,9.75,0,0,0,2.86-.57A7.53,7.53,0,0,1,41,11.15a1.13,1.13,0,0,1,.38,0c.56.18,1.11.91,1.68,1.68A9.89,9.89,0,0,0,45,15a9.61,9.61,0,0,0,2.59,1.2,4.75,4.75,0,0,1,2.11,1.07,4.75,4.75,0,0,1,.36,2.31,10.1,10.1,0,0,0,.34,2.85,9.57,9.57,0,0,0,1.37,2.43A4.7,4.7,0,0,1,52.86,27,4.72,4.72,0,0,1,51.77,29.15Z" transform="translate(-17.67 -9.12)"/><path class="7a41d869-a99f-4172-939c-a2dfa001a51a" d="M52.1,24.68a10,10,0,0,1-1.4-2.49,10.23,10.23,0,0,1-.35-2.92A4.77,4.77,0,0,0,50,16.91a4.81,4.81,0,0,0-2.16-1.1,10.06,10.06,0,0,1-2.65-1.23,9.59,9.59,0,0,1-2-2.13c-.6-.79-1.16-1.54-1.73-1.72a1.14,1.14,0,0,0-.39-.06,7.49,7.49,0,0,0-1.93.43,10.23,10.23,0,0,1-2.94.58,10.23,10.23,0,0,1-2.93-.58,7.58,7.58,0,0,0-1.93-.43,1.14,1.14,0,0,0-.39.06c-.58.18-1.14.93-1.73,1.72a9.59,9.59,0,0,1-2,2.13,10.12,10.12,0,0,1-2.66,1.23,4.77,4.77,0,0,0-2.15,1.1,4.78,4.78,0,0,0-.38,2.36,10.23,10.23,0,0,1-.35,2.92,9.44,9.44,0,0,1-1.4,2.49,4.88,4.88,0,0,0-1.12,2.22,4.86,4.86,0,0,0,1.12,2.21,9.6,9.6,0,0,1,1.4,2.49,10.34,10.34,0,0,1,.35,2.93,4.8,4.8,0,0,0,.38,2.36A4.77,4.77,0,0,0,24.62,38a10.09,10.09,0,0,1,2.66,1.22,10,10,0,0,1,2,2.13c.59.8,1.15,1.54,1.73,1.73a1.12,1.12,0,0,0,.39,0,7.51,7.51,0,0,0,1.93-.42,10.23,10.23,0,0,1,2.93-.58,10.23,10.23,0,0,1,2.94.58,7.42,7.42,0,0,0,1.93.42,1.15,1.15,0,0,0,.39,0c.57-.19,1.14-.94,1.73-1.73a10,10,0,0,1,2-2.13A10,10,0,0,1,47.82,38,4.81,4.81,0,0,0,50,36.89a4.84,4.84,0,0,0,.37-2.37,10.31,10.31,0,0,1,.35-2.92,9.75,9.75,0,0,1,1.41-2.49,4.82,4.82,0,0,0,1.11-2.21A4.88,4.88,0,0,0,52.1,24.68Zm-.37,4.38a9,9,0,0,0-1.37,2.43A9.46,9.46,0,0,0,50,34.34a4.69,4.69,0,0,1-.37,2.31,4.66,4.66,0,0,1-2.1,1.07A9.77,9.77,0,0,0,45,38.92,9.39,9.39,0,0,0,43,41c-.58.77-1.13,1.5-1.69,1.69a1.4,1.4,0,0,1-.38.05,7.11,7.11,0,0,1-1.88-.42,10.09,10.09,0,0,0-2.87-.56,10.09,10.09,0,0,0-2.86.56,7.6,7.6,0,0,1-1.89.42,1.46,1.46,0,0,1-.38-.05C30.53,42.5,30,41.77,29.4,41a9.58,9.58,0,0,0-1.91-2.08,9.57,9.57,0,0,0-2.59-1.19,4.75,4.75,0,0,1-2.11-1.08,4.71,4.71,0,0,1-.36-2.31,10.14,10.14,0,0,0-.34-2.85,9.74,9.74,0,0,0-1.37-2.43,4.72,4.72,0,0,1-1.09-2.16,4.75,4.75,0,0,1,1.09-2.17,9.57,9.57,0,0,0,1.37-2.43,10.1,10.1,0,0,0,.34-2.85,4.75,4.75,0,0,1,.36-2.31,4.75,4.75,0,0,1,2.11-1.07,9.61,9.61,0,0,0,2.59-1.2A9.77,9.77,0,0,0,29.4,12.8c.58-.78,1.13-1.51,1.69-1.69a1.46,1.46,0,0,1,.38,0,7.53,7.53,0,0,1,1.89.41,9.75,9.75,0,0,0,2.86.57,10,10,0,0,0,2.86-.56A7.26,7.26,0,0,1,41,11.06a1.4,1.4,0,0,1,.38,0c.56.18,1.11.91,1.69,1.68A9.39,9.39,0,0,0,45,14.87a9.47,9.47,0,0,0,2.59,1.2,4.76,4.76,0,0,1,2.1,1.07A4.74,4.74,0,0,1,50,19.45a9.42,9.42,0,0,0,.34,2.85,9,9,0,0,0,1.37,2.43,4.85,4.85,0,0,1,1.09,2.17A4.82,4.82,0,0,1,51.73,29.06Z" transform="translate(-17.67 -9.12)"/><path class="1a1402e8-612f-4ab6-b9b5-f140247799c5" d="M52.1,24.68a10,10,0,0,1-1.4-2.49,10.23,10.23,0,0,1-.35-2.92A4.77,4.77,0,0,0,50,16.91a4.81,4.81,0,0,0-2.16-1.1,10.06,10.06,0,0,1-2.65-1.23,9.59,9.59,0,0,1-2-2.13c-.6-.79-1.16-1.54-1.73-1.72a1.14,1.14,0,0,0-.39-.06,7.49,7.49,0,0,0-1.93.43,10.23,10.23,0,0,1-2.94.58,10.23,10.23,0,0,1-2.93-.58,7.58,7.58,0,0,0-1.93-.43,1.14,1.14,0,0,0-.39.06c-.58.18-1.14.93-1.73,1.72a9.59,9.59,0,0,1-2,2.13,10.12,10.12,0,0,1-2.66,1.23,4.77,4.77,0,0,0-2.15,1.1,4.78,4.78,0,0,0-.38,2.36,10.23,10.23,0,0,1-.35,2.92,9.44,9.44,0,0,1-1.4,2.49,4.88,4.88,0,0,0-1.12,2.22,4.86,4.86,0,0,0,1.12,2.21,9.6,9.6,0,0,1,1.4,2.49,10.34,10.34,0,0,1,.35,2.93,4.8,4.8,0,0,0,.38,2.36A4.77,4.77,0,0,0,24.62,38a10.09,10.09,0,0,1,2.66,1.22,10,10,0,0,1,2,2.13c.59.8,1.15,1.54,1.73,1.73a1.12,1.12,0,0,0,.39,0,7.51,7.51,0,0,0,1.93-.42,10.23,10.23,0,0,1,2.93-.58,10.23,10.23,0,0,1,2.94.58,7.42,7.42,0,0,0,1.93.42,1.15,1.15,0,0,0,.39,0c.57-.19,1.14-.94,1.73-1.73a10,10,0,0,1,2-2.13A10,10,0,0,1,47.82,38,4.81,4.81,0,0,0,50,36.89a4.84,4.84,0,0,0,.37-2.37,10.31,10.31,0,0,1,.35-2.92,9.75,9.75,0,0,1,1.41-2.49,4.82,4.82,0,0,0,1.11-2.21A4.88,4.88,0,0,0,52.1,24.68Zm-.37,4.38a9,9,0,0,0-1.37,2.43A9.46,9.46,0,0,0,50,34.34a4.69,4.69,0,0,1-.37,2.31,4.66,4.66,0,0,1-2.1,1.07A9.77,9.77,0,0,0,45,38.92,9.39,9.39,0,0,0,43,41c-.58.77-1.13,1.5-1.69,1.69a1.4,1.4,0,0,1-.38.05,7.11,7.11,0,0,1-1.88-.42,10.09,10.09,0,0,0-2.87-.56,10.09,10.09,0,0,0-2.86.56,7.6,7.6,0,0,1-1.89.42,1.46,1.46,0,0,1-.38-.05C30.53,42.5,30,41.77,29.4,41a9.58,9.58,0,0,0-1.91-2.08,9.57,9.57,0,0,0-2.59-1.19,4.75,4.75,0,0,1-2.11-1.08,4.71,4.71,0,0,1-.36-2.31,10.14,10.14,0,0,0-.34-2.85,9.74,9.74,0,0,0-1.37-2.43,4.72,4.72,0,0,1-1.09-2.16,4.75,4.75,0,0,1,1.09-2.17,9.57,9.57,0,0,0,1.37-2.43,10.1,10.1,0,0,0,.34-2.85,4.75,4.75,0,0,1,.36-2.31,4.75,4.75,0,0,1,2.11-1.07,9.61,9.61,0,0,0,2.59-1.2A9.77,9.77,0,0,0,29.4,12.8c.58-.78,1.13-1.51,1.69-1.69a1.46,1.46,0,0,1,.38,0,7.53,7.53,0,0,1,1.89.41,9.75,9.75,0,0,0,2.86.57,10,10,0,0,0,2.86-.56A7.26,7.26,0,0,1,41,11.06a1.4,1.4,0,0,1,.38,0c.56.18,1.11.91,1.69,1.68A9.39,9.39,0,0,0,45,14.87a9.47,9.47,0,0,0,2.59,1.2,4.76,4.76,0,0,1,2.1,1.07A4.74,4.74,0,0,1,50,19.45a9.42,9.42,0,0,0,.34,2.85,9,9,0,0,0,1.37,2.43,4.85,4.85,0,0,1,1.09,2.17A4.82,4.82,0,0,1,51.73,29.06Z" transform="translate(-17.67 -9.12)"/><path d="M25.22,26.92a1.2,1.2,0,0,0,.19-.57c0-.33-.14-.53-.39-.54s-.38.11-.52.44-.4.63-.75.61a.72.72,0,0,1-.63-.84,1.11,1.11,0,0,1,.16-.54l.25.1a1,1,0,0,0-.14.47c0,.34.17.48.34.49s.36-.14.51-.47.41-.61.77-.59.7.32.67.91a1.34,1.34,0,0,1-.2.63Z" transform="translate(-17.67 -9.12)"/><path d="M25.57,23.73l.48.09L26,24.1l-.29,0h0a.68.68,0,0,1,.19.65c-.06.28-.28.57-.9.44l-1-.23L24,24.6l1,.22c.33.07.58,0,.64-.27a.46.46,0,0,0-.19-.48A.39.39,0,0,0,25.3,24l-1.07-.24.07-.32Z" transform="translate(-17.67 -9.12)"/><path d="M24.91,23l-.44-.19.12-.26.26.11h0A.61.61,0,0,1,24.8,22a.52.52,0,0,1,.54-.3h0a.85.85,0,0,1-.12-.28.6.6,0,0,1,.05-.41c.1-.22.39-.47.95-.2l1,.44-.14.29-.92-.43c-.31-.14-.55-.12-.66.12a.42.42,0,0,0,.11.47.43.43,0,0,0,.13.09l1,.47-.13.29-1-.45c-.26-.13-.5-.1-.61.12a.46.46,0,0,0,.13.51l.13.09,1,.46-.13.28Z" transform="translate(-17.67 -9.12)"/><path d="M27.46,19.63l.41.72-.23.25-1.28-2.3.26-.29,2.42,1-.23.25L28.05,19Zm.36-.77-.7-.3-.42-.21h0a3.73,3.73,0,0,1,.25.39l.37.66Z" transform="translate(-17.67 -9.12)"/><path d="M28.33,18,28,17.58l.23-.18.2.22h0a.63.63,0,0,1,.26-.63.66.66,0,0,1,1,.21l.65.85-.25.2-.64-.82c-.18-.23-.41-.35-.65-.16a.45.45,0,0,0-.14.53.42.42,0,0,0,.07.13l.66.86-.25.2Z" transform="translate(-17.67 -9.12)"/><path d="M30.74,14.84l1,1.91c.08.14.16.3.23.4l-.26.14L31.56,17h0a.66.66,0,0,1-.38.59.82.82,0,0,1-1.1-.44A.87.87,0,0,1,30.34,16a.6.6,0,0,1,.61,0h0L30.46,15Zm.45,1.54a.5.5,0,0,0-.08-.12.47.47,0,0,0-.59-.11c-.3.16-.34.51-.15.86s.46.5.77.34a.5.5,0,0,0,.24-.57,1.12,1.12,0,0,0-.05-.13Z" transform="translate(-17.67 -9.12)"/><path d="M32.82,16.43a1.1,1.1,0,0,0,.6,0c.32-.08.47-.3.4-.54s-.22-.32-.57-.37-.73-.18-.82-.52a.72.72,0,0,1,.62-.85,1.08,1.08,0,0,1,.56,0l0,.28a.87.87,0,0,0-.49,0c-.33.08-.4.31-.36.48s.23.3.6.34.71.2.8.55-.1.77-.67.91a1.34,1.34,0,0,1-.66,0Z" transform="translate(-17.67 -9.12)"/><path d="M36,15.8c0,.18,0,.34.06.48l-.29,0,0-.29h0a.68.68,0,0,1-.56.38c-.28,0-.63-.1-.69-.73l-.09-1,.33,0,.08,1c0,.34.15.56.45.53a.46.46,0,0,0,.4-.33.47.47,0,0,0,0-.17l-.1-1.1.33,0Z" transform="translate(-17.67 -9.12)"/><path d="M36.35,16.27c0-.12,0-.3,0-.46l.19-2.16.32,0-.1,1.13h0a.66.66,0,0,1,.64-.28.8.8,0,0,1,.67,1c-.05.64-.48.92-.88.88a.64.64,0,0,1-.57-.38h0l0,.29Zm.39-.68a.49.49,0,0,0,0,.12.5.5,0,0,0,.45.42c.34,0,.57-.23.61-.64s-.13-.68-.48-.71a.52.52,0,0,0-.53.36.86.86,0,0,0,0,.13Z" transform="translate(-17.67 -9.12)"/><path d="M38.3,16.15a.83.83,0,0,0,.39.23c.23.06.36,0,.4-.18s0-.25-.25-.39-.39-.4-.34-.61a.55.55,0,0,1,.72-.37.93.93,0,0,1,.41.22l-.14.21a.72.72,0,0,0-.33-.19c-.19,0-.32,0-.35.17s0,.23.26.37.39.38.33.64-.36.46-.78.36a1,1,0,0,1-.46-.23Z" transform="translate(-17.67 -9.12)"/><path d="M40.7,14.79l-.17.49.43.16-.08.23-.44-.16-.33.91c-.08.21-.06.35.11.41a.54.54,0,0,0,.19,0l-.07.24a1,1,0,0,1-.29-.06.44.44,0,0,1-.28-.25.64.64,0,0,1,0-.48l.33-.92-.26-.09.09-.24.26.1.14-.4Z" transform="translate(-17.67 -9.12)"/><path d="M41.41,17.66l.09-.22h0a.66.66,0,0,1-.61,0,.51.51,0,0,1-.25-.71c.2-.38.65-.41,1.26-.09l0,0a.38.38,0,0,0-.17-.56.91.91,0,0,0-.48-.09l0-.23a1.11,1.11,0,0,1,.59.13.64.64,0,0,1,.27,1l-.31.59a2.1,2.1,0,0,0-.17.39Zm.38-.84c-.31-.17-.69-.3-.85,0a.29.29,0,0,0,.12.42.46.46,0,0,0,.53-.07.24.24,0,0,0,.06-.08Z" transform="translate(-17.67 -9.12)"/><path d="M42.71,16.89l.28-.4.23.17-.16.25h0a.67.67,0,0,1,.68.09.65.65,0,0,1,0,1l-.64.86-.26-.2.62-.83c.17-.23.23-.49,0-.67a.45.45,0,0,0-.55,0,.56.56,0,0,0-.11.11l-.64.86-.26-.19Z" transform="translate(-17.67 -9.12)"/><path d="M44.33,19.94a1.22,1.22,0,0,1-.43-.29.85.85,0,0,1,0-1.28.91.91,0,0,1,1.36,0,1.21,1.21,0,0,1,.25.38l-.23.13a.8.8,0,0,0-.21-.33.62.62,0,0,0-.92,0,.63.63,0,0,0-.05.92.94.94,0,0,0,.35.22Z" transform="translate(-17.67 -9.12)"/><path d="M45.18,19.79a.57.57,0,0,0-.14.86,1.1,1.1,0,0,0,.37.34l-.15.19a1.62,1.62,0,0,1-.45-.42A.84.84,0,0,1,45,19.52a.87.87,0,0,1,1.28.11.75.75,0,0,1-.24,1.09l-.13.08Zm.76.63a.47.47,0,0,0,.16-.68.55.55,0,0,0-.72-.09Z" transform="translate(-17.67 -9.12)"/><path d="M48,21.12l.13.29-2,.89.43,1-.25.1-.55-1.27Z" transform="translate(-17.67 -9.12)"/><path d="M48.62,23.3l-.5.15.13.45L48,24l-.13-.45-.92.27c-.22.06-.32.16-.27.33a.84.84,0,0,0,.07.18l-.23.08a.87.87,0,0,1-.12-.27.46.46,0,0,1,0-.37.66.66,0,0,1,.42-.25l.93-.28L47.72,23l.23-.07.08.26.41-.12Z" transform="translate(-17.67 -9.12)"/><path d="M49.42,25.69,47.27,26l-.45.09,0-.29.31-.06h0a.66.66,0,0,1-.44-.55.83.83,0,0,1,.79-.9A.86.86,0,0,1,48.5,25a.59.59,0,0,1-.19.57h0l1.06-.16Zm-1.6-.09.13,0a.47.47,0,0,0,.3-.52c0-.34-.37-.49-.76-.43s-.63.27-.58.62a.49.49,0,0,0,.46.41.33.33,0,0,0,.14,0Z" transform="translate(-17.67 -9.12)"/><path d="M47,26.36a.22.22,0,0,1,.24.21.24.24,0,0,1-.47,0A.22.22,0,0,1,47,26.36Z" transform="translate(-17.67 -9.12)"/><path d="M29.56,22.94h1.25V25.4h0l.38-.61,1.26-1.85H34l-1.84,2.37,1.94,3.19H32.64l-1.35-2.4-.48.59V28.5H29.56Z" transform="translate(-17.67 -9.12)"/><path d="M35.78,28.5V26.22L34,22.94h1.44L36,24.28c.17.4.28.7.43,1.06h0c.13-.34.26-.67.42-1.06l.56-1.34h1.41L37,26.18V28.5Z" transform="translate(-17.67 -9.12)"/><path d="M43.15,28.34a3.5,3.5,0,0,1-1.43.24,2.64,2.64,0,0,1-2.9-2.78,2.83,2.83,0,0,1,3-2.95,3.4,3.4,0,0,1,1.37.25l-.26,1a2.63,2.63,0,0,0-1.05-.21,1.68,1.68,0,0,0-1.78,1.84,1.66,1.66,0,0,0,1.78,1.81A3.14,3.14,0,0,0,43,27.36Z" transform="translate(-17.67 -9.12)"/><path d="M25.88,34a2.09,2.09,0,0,0,.9.22c.37,0,.57-.15.57-.39s-.17-.35-.6-.5c-.6-.21-1-.54-1-1.06s.51-1.08,1.36-1.08a2.27,2.27,0,0,1,.91.18l-.18.66a1.68,1.68,0,0,0-.75-.17c-.35,0-.52.16-.52.34s.2.33.66.51c.64.23.93.56.93,1.07s-.46,1.11-1.44,1.11a2.42,2.42,0,0,1-1-.22Z" transform="translate(-17.67 -9.12)"/><path d="M29.41,32h-1v-.68H31.2V32h-1v2.9h-.81Z" transform="translate(-17.67 -9.12)"/><path d="M32.07,33.94l-.25.92H31l1.09-3.58h1.07l1.11,3.58h-.87l-.28-.92Zm.91-.6-.22-.76c-.06-.21-.13-.48-.18-.69h0c0,.21-.11.48-.17.69l-.21.76Z" transform="translate(-17.67 -9.12)"/><path d="M34.72,31.33a7.58,7.58,0,0,1,1.08-.07,1.86,1.86,0,0,1,1.16.28.91.91,0,0,1,.32.75,1,1,0,0,1-.63.88h0a.9.9,0,0,1,.48.67,9.83,9.83,0,0,0,.29,1h-.83a5.63,5.63,0,0,1-.25-.83c-.09-.45-.24-.57-.57-.58h-.25v1.41h-.8Zm.8,1.54h.32c.4,0,.64-.2.64-.51s-.22-.5-.59-.5a2.41,2.41,0,0,0-.37,0Z" transform="translate(-17.67 -9.12)"/><path d="M38.55,32h-1v-.68h2.75V32h-1v2.9h-.82Z" transform="translate(-17.67 -9.12)"/><path d="M42.9,33.35H41.58v.85h1.47v.66H40.77V31.28H43V32h-1.4v.74H42.9Z" transform="translate(-17.67 -9.12)"/><path d="M43.6,31.33a7.09,7.09,0,0,1,1.1-.07,2.28,2.28,0,0,1,1.46.38A1.59,1.59,0,0,1,46.77,33a1.81,1.81,0,0,1-.6,1.45,2.57,2.57,0,0,1-1.65.46,8.59,8.59,0,0,1-.92,0Zm.82,2.92a1.14,1.14,0,0,0,.28,0A1.12,1.12,0,0,0,45.91,33a1,1,0,0,0-1.13-1.13,1.37,1.37,0,0,0-.36,0Z" transform="translate(-17.67 -9.12)"/></g></g></g></svg>