<svg xmlns="http://www.w3.org/2000/svg" xmlns:xlink="http://www.w3.org/1999/xlink" viewBox="0 0 37.11 35.56"><defs><style>.a{isolation:isolate;}.b{fill:url(#a);}.c{fill:url(#b);}.d{fill:#7ae643;mix-blend-mode:multiply;}.e{fill:url(#c);}.f{fill:url(#d);}.g{mix-blend-mode:screen;fill:url(#e);}.h{font-size:3.7px;font-family:MyriadPro-Regular, Myriad Pro;}.i{font-size:8.23px;font-family:MyriadPro-Bold, Myriad Pro;font-weight:700;}.j{letter-spacing:-0.02em;}.k{letter-spacing:-0.05em;}.l{letter-spacing:0em;}.m{font-size:5.3px;}.n{letter-spacing:-0.07em;}.o{letter-spacing:0em;}</style><linearGradient id="a" x1="47.75" y1="11.13" x2="24.75" y2="42.58" gradientUnits="userSpaceOnUse"><stop offset="0" stop-color="#1e9a1e"/><stop offset="0.24" stop-color="#7ae643"/><stop offset="0.38" stop-color="#4bbf30"/><stop offset="0.5" stop-color="#2aa423"/><stop offset="0.56" stop-color="#1e9a1e"/><stop offset="0.62" stop-color="#26a121"/><stop offset="0.7" stop-color="#3cb32a"/><stop offset="0.81" stop-color="#60d038"/><stop offset="0.87" stop-color="#7ae643"/><stop offset="0.97" stop-color="#1e9a1e"/></linearGradient><linearGradient id="b" x1="19.22" y1="26.9" x2="53.22" y2="26.9" xlink:href="#a"/><linearGradient id="c" x1="22.36" y1="15.27" x2="50.08" y2="38.53" xlink:href="#a"/><linearGradient id="d" x1="20.9" y1="36.48" x2="51.55" y2="17.32" xlink:href="#a"/><radialGradient id="e" cx="-449.21" cy="1028.64" r="14.54" gradientTransform="matrix(0.15, 0, 0, 0.06, 105.45, -23.29)" gradientUnits="userSpaceOnUse"><stop offset="0" stop-color="#fff"/><stop offset="0.06" stop-color="#e6e6e6"/><stop offset="0.2" stop-color="#aaa"/><stop offset="0.34" stop-color="#767676"/><stop offset="0.48" stop-color="#4c4c4c"/><stop offset="0.62" stop-color="#2b2b2b"/><stop offset="0.75" stop-color="#131313"/><stop offset="0.87" stop-color="#050505"/><stop offset="0.97"/></radialGradient></defs><title>sharpay-label</title><g class="a"><path class="b" d="M54.78,26.9c0,1.9-2,3.46-2.6,5.18s.14,4.24-.94,5.73-3.66,1.57-5.16,2.66S43.74,44,42,44.55s-3.83-.87-5.74-.87-4,1.43-5.73.87-2.65-3-4.13-4.08-4.06-1.17-5.15-2.66-.37-3.94-.95-5.73-2.59-3.28-2.59-5.18,2-3.47,2.59-5.19-.13-4.24.95-5.72,3.65-1.58,5.15-2.67,2.34-3.5,4.13-4.07,3.83.87,5.73.87,4-1.43,5.74-.87,2.64,3,4.12,4.07,4.06,1.17,5.16,2.67.37,3.94.94,5.72S54.78,25,54.78,26.9Z" transform="translate(-17.67 -9.12)"/><path class="c" d="M52.1,24.68a10,10,0,0,1-1.4-2.49,10.23,10.23,0,0,1-.35-2.92A4.77,4.77,0,0,0,50,16.91a4.81,4.81,0,0,0-2.16-1.1,10.06,10.06,0,0,1-2.65-1.23,9.59,9.59,0,0,1-2-2.13c-.6-.79-1.16-1.54-1.73-1.72a1.14,1.14,0,0,0-.39-.06,7.49,7.49,0,0,0-1.93.43,10.23,10.23,0,0,1-2.94.58,10.23,10.23,0,0,1-2.93-.58,7.58,7.58,0,0,0-1.93-.43,1.14,1.14,0,0,0-.39.06c-.58.18-1.14.93-1.73,1.72a9.59,9.59,0,0,1-2,2.13,10.12,10.12,0,0,1-2.66,1.23,4.77,4.77,0,0,0-2.15,1.1,4.78,4.78,0,0,0-.38,2.36,10.23,10.23,0,0,1-.35,2.92,9.44,9.44,0,0,1-1.4,2.49,4.88,4.88,0,0,0-1.12,2.22,4.86,4.86,0,0,0,1.12,2.21,9.6,9.6,0,0,1,1.4,2.49,10.34,10.34,0,0,1,.35,2.93,4.8,4.8,0,0,0,.38,2.36A4.77,4.77,0,0,0,24.62,38a10.09,10.09,0,0,1,2.66,1.22,10,10,0,0,1,2,2.13c.59.8,1.15,1.54,1.73,1.73a1.12,1.12,0,0,0,.39,0,7.51,7.51,0,0,0,1.93-.42,10.23,10.23,0,0,1,2.93-.58,10.23,10.23,0,0,1,2.94.58,7.42,7.42,0,0,0,1.93.42,1.15,1.15,0,0,0,.39,0c.57-.19,1.14-.94,1.73-1.73a10,10,0,0,1,2-2.13A10,10,0,0,1,47.82,38,4.81,4.81,0,0,0,50,36.89a4.84,4.84,0,0,0,.37-2.37,10.31,10.31,0,0,1,.35-2.92,9.75,9.75,0,0,1,1.41-2.49,4.82,4.82,0,0,0,1.11-2.21A4.88,4.88,0,0,0,52.1,24.68Zm-.37,4.38a9,9,0,0,0-1.37,2.43A9.46,9.46,0,0,0,50,34.34a4.69,4.69,0,0,1-.37,2.31,4.66,4.66,0,0,1-2.1,1.07A9.77,9.77,0,0,0,45,38.92,9.39,9.39,0,0,0,43,41c-.58.77-1.13,1.5-1.69,1.69a1.4,1.4,0,0,1-.38.05,7.11,7.11,0,0,1-1.88-.42,10.09,10.09,0,0,0-2.87-.56,10.09,10.09,0,0,0-2.86.56,7.6,7.6,0,0,1-1.89.42,1.46,1.46,0,0,1-.38-.05C30.53,42.5,30,41.77,29.4,41a9.58,9.58,0,0,0-1.91-2.08,9.57,9.57,0,0,0-2.59-1.19,4.75,4.75,0,0,1-2.11-1.08,4.71,4.71,0,0,1-.36-2.31,10.14,10.14,0,0,0-.34-2.85,9.74,9.74,0,0,0-1.37-2.43,4.72,4.72,0,0,1-1.09-2.16,4.75,4.75,0,0,1,1.09-2.17,9.57,9.57,0,0,0,1.37-2.43,10.1,10.1,0,0,0,.34-2.85,4.75,4.75,0,0,1,.36-2.31,4.75,4.75,0,0,1,2.11-1.07,9.61,9.61,0,0,0,2.59-1.2A9.77,9.77,0,0,0,29.4,12.8c.58-.78,1.13-1.51,1.69-1.69a1.46,1.46,0,0,1,.38,0,7.53,7.53,0,0,1,1.89.41,9.75,9.75,0,0,0,2.86.57,10,10,0,0,0,2.86-.56A7.26,7.26,0,0,1,41,11.06a1.4,1.4,0,0,1,.38,0c.56.18,1.11.91,1.69,1.68A9.39,9.39,0,0,0,45,14.87a9.47,9.47,0,0,0,2.59,1.2,4.76,4.76,0,0,1,2.1,1.07A4.74,4.74,0,0,1,50,19.45a9.42,9.42,0,0,0,.34,2.85,9,9,0,0,0,1.37,2.43,4.85,4.85,0,0,1,1.09,2.17A4.82,4.82,0,0,1,51.73,29.06Z" transform="translate(-17.67 -9.12)"/><path class="d" d="M52.1,24.68a10,10,0,0,1-1.4-2.49,10.23,10.23,0,0,1-.35-2.92A4.77,4.77,0,0,0,50,16.91a4.81,4.81,0,0,0-2.16-1.1,10.06,10.06,0,0,1-2.65-1.23,9.59,9.59,0,0,1-2-2.13c-.6-.79-1.16-1.54-1.73-1.72a1.14,1.14,0,0,0-.39-.06,7.49,7.49,0,0,0-1.93.43,10.23,10.23,0,0,1-2.94.58,10.23,10.23,0,0,1-2.93-.58,7.58,7.58,0,0,0-1.93-.43,1.14,1.14,0,0,0-.39.06c-.58.18-1.14.93-1.73,1.72a9.59,9.59,0,0,1-2,2.13,10.12,10.12,0,0,1-2.66,1.23,4.77,4.77,0,0,0-2.15,1.1,4.78,4.78,0,0,0-.38,2.36,10.23,10.23,0,0,1-.35,2.92,9.44,9.44,0,0,1-1.4,2.49,4.88,4.88,0,0,0-1.12,2.22,4.86,4.86,0,0,0,1.12,2.21,9.6,9.6,0,0,1,1.4,2.49,10.34,10.34,0,0,1,.35,2.93,4.8,4.8,0,0,0,.38,2.36A4.77,4.77,0,0,0,24.62,38a10.09,10.09,0,0,1,2.66,1.22,10,10,0,0,1,2,2.13c.59.8,1.15,1.54,1.73,1.73a1.12,1.12,0,0,0,.39,0,7.51,7.51,0,0,0,1.93-.42,10.23,10.23,0,0,1,2.93-.58,10.23,10.23,0,0,1,2.94.58,7.42,7.42,0,0,0,1.93.42,1.15,1.15,0,0,0,.39,0c.57-.19,1.14-.94,1.73-1.73a10,10,0,0,1,2-2.13A10,10,0,0,1,47.82,38,4.81,4.81,0,0,0,50,36.89a4.84,4.84,0,0,0,.37-2.37,10.31,10.31,0,0,1,.35-2.92,9.75,9.75,0,0,1,1.41-2.49,4.82,4.82,0,0,0,1.11-2.21A4.88,4.88,0,0,0,52.1,24.68Zm-.37,4.38a9,9,0,0,0-1.37,2.43A9.46,9.46,0,0,0,50,34.34a4.69,4.69,0,0,1-.37,2.31,4.66,4.66,0,0,1-2.1,1.07A9.77,9.77,0,0,0,45,38.92,9.39,9.39,0,0,0,43,41c-.58.77-1.13,1.5-1.69,1.69a1.4,1.4,0,0,1-.38.05,7.11,7.11,0,0,1-1.88-.42,10.09,10.09,0,0,0-2.87-.56,10.09,10.09,0,0,0-2.86.56,7.6,7.6,0,0,1-1.89.42,1.46,1.46,0,0,1-.38-.05C30.53,42.5,30,41.77,29.4,41a9.58,9.58,0,0,0-1.91-2.08,9.57,9.57,0,0,0-2.59-1.19,4.75,4.75,0,0,1-2.11-1.08,4.71,4.71,0,0,1-.36-2.31,10.14,10.14,0,0,0-.34-2.85,9.74,9.74,0,0,0-1.37-2.43,4.72,4.72,0,0,1-1.09-2.16,4.75,4.75,0,0,1,1.09-2.17,9.57,9.57,0,0,0,1.37-2.43,10.1,10.1,0,0,0,.34-2.85,4.75,4.75,0,0,1,.36-2.31,4.75,4.75,0,0,1,2.11-1.07,9.61,9.61,0,0,0,2.59-1.2A9.77,9.77,0,0,0,29.4,12.8c.58-.78,1.13-1.51,1.69-1.69a1.46,1.46,0,0,1,.38,0,7.53,7.53,0,0,1,1.89.41,9.75,9.75,0,0,0,2.86.57,10,10,0,0,0,2.86-.56A7.26,7.26,0,0,1,41,11.06a1.4,1.4,0,0,1,.38,0c.56.18,1.11.91,1.69,1.68A9.39,9.39,0,0,0,45,14.87a9.47,9.47,0,0,0,2.59,1.2,4.76,4.76,0,0,1,2.1,1.07A4.74,4.74,0,0,1,50,19.45a9.42,9.42,0,0,0,.34,2.85,9,9,0,0,0,1.37,2.43,4.85,4.85,0,0,1,1.09,2.17A4.82,4.82,0,0,1,51.73,29.06Z" transform="translate(-17.67 -9.12)"/><path class="e" d="M51.73,24.73a9,9,0,0,1-1.37-2.43A9.42,9.42,0,0,1,50,19.45a4.74,4.74,0,0,0-.37-2.31,4.76,4.76,0,0,0-2.1-1.07A9.47,9.47,0,0,1,45,14.87,9.39,9.39,0,0,1,43,12.79c-.58-.77-1.13-1.5-1.69-1.68a1.4,1.4,0,0,0-.38,0,7.26,7.26,0,0,0-1.89.42,10,10,0,0,1-2.86.56,9.75,9.75,0,0,1-2.86-.57,7.53,7.53,0,0,0-1.89-.41,1.46,1.46,0,0,0-.38,0c-.56.18-1.11.91-1.69,1.69a9.77,9.77,0,0,1-1.91,2.07,9.61,9.61,0,0,1-2.59,1.2,4.75,4.75,0,0,0-2.11,1.07,4.75,4.75,0,0,0-.36,2.31,10.1,10.1,0,0,1-.34,2.85,9.57,9.57,0,0,1-1.37,2.43,4.75,4.75,0,0,0-1.09,2.17,4.72,4.72,0,0,0,1.09,2.16,9.74,9.74,0,0,1,1.37,2.43,10.14,10.14,0,0,1,.34,2.85,4.71,4.71,0,0,0,.36,2.31,4.75,4.75,0,0,0,2.11,1.08,9.57,9.57,0,0,1,2.59,1.19A9.58,9.58,0,0,1,29.4,41c.58.77,1.13,1.5,1.69,1.69a1.46,1.46,0,0,0,.38.05,7.6,7.6,0,0,0,1.89-.42,10.09,10.09,0,0,1,2.86-.56,10.09,10.09,0,0,1,2.87.56,7.11,7.11,0,0,0,1.88.42,1.4,1.4,0,0,0,.38-.05c.56-.19,1.11-.92,1.69-1.69A9.39,9.39,0,0,1,45,38.92a9.77,9.77,0,0,1,2.59-1.2,4.66,4.66,0,0,0,2.1-1.07A4.69,4.69,0,0,0,50,34.34a9.46,9.46,0,0,1,.34-2.85,9,9,0,0,1,1.37-2.43,4.82,4.82,0,0,0,1.09-2.16A4.85,4.85,0,0,0,51.73,24.73Z" transform="translate(-17.67 -9.12)"/><path class="f" d="M53,24a8.76,8.76,0,0,1-1.25-2.19,9.31,9.31,0,0,1-.3-2.6,5.37,5.37,0,0,0-.58-3,5.36,5.36,0,0,0-2.69-1.49,9,9,0,0,1-2.37-1.08,8.5,8.5,0,0,1-1.72-1.9,5.4,5.4,0,0,0-2.28-2.11,2.38,2.38,0,0,0-.73-.11,8.12,8.12,0,0,0-2.26.48,9.17,9.17,0,0,1-2.61.52A9.24,9.24,0,0,1,33.61,10a8,8,0,0,0-2.25-.48,2.5,2.5,0,0,0-.74.11,5.33,5.33,0,0,0-2.27,2.11,8.54,8.54,0,0,1-1.73,1.9,8.91,8.91,0,0,1-2.36,1.08,5.28,5.28,0,0,0-2.69,1.49,5.29,5.29,0,0,0-.59,3,9,9,0,0,1-.3,2.6A8.76,8.76,0,0,1,19.43,24a5.48,5.48,0,0,0-1.32,2.86,5.45,5.45,0,0,0,1.32,2.85A8.82,8.82,0,0,1,20.68,32a8.91,8.91,0,0,1,.3,2.6,5.27,5.27,0,0,0,.59,3A5.36,5.36,0,0,0,24.26,39a8.89,8.89,0,0,1,2.36,1.07A9,9,0,0,1,28.35,42a5.35,5.35,0,0,0,2.27,2.12,2.5,2.5,0,0,0,.74.1,8.31,8.31,0,0,0,2.25-.47,9.25,9.25,0,0,1,2.61-.53,9.18,9.18,0,0,1,2.61.53,8.45,8.45,0,0,0,2.26.47,2.39,2.39,0,0,0,.73-.1A5.43,5.43,0,0,0,44.1,42a9.24,9.24,0,0,1,1.72-1.9A9,9,0,0,1,48.19,39a5.45,5.45,0,0,0,2.69-1.5,5.35,5.35,0,0,0,.58-3,9.31,9.31,0,0,1,.3-2.6A8.82,8.82,0,0,1,53,29.75a5.45,5.45,0,0,0,1.32-2.85A5.48,5.48,0,0,0,53,24Zm-.9,5.07A9.75,9.75,0,0,0,50.7,31.6a10.31,10.31,0,0,0-.35,2.92A4.84,4.84,0,0,1,50,36.89,4.81,4.81,0,0,1,47.82,38a10,10,0,0,0-2.65,1.22,10,10,0,0,0-2,2.13c-.59.79-1.16,1.54-1.73,1.73a1.15,1.15,0,0,1-.39,0,7.42,7.42,0,0,1-1.93-.42,10.23,10.23,0,0,0-2.94-.58,10.23,10.23,0,0,0-2.93.58,7.51,7.51,0,0,1-1.93.42,1.12,1.12,0,0,1-.39,0c-.58-.19-1.14-.93-1.73-1.73a10,10,0,0,0-2-2.13A10.09,10.09,0,0,0,24.62,38a4.77,4.77,0,0,1-2.15-1.1,4.8,4.8,0,0,1-.38-2.36,10.34,10.34,0,0,0-.35-2.93,9.6,9.6,0,0,0-1.4-2.49,4.86,4.86,0,0,1-1.12-2.21,4.88,4.88,0,0,1,1.12-2.22,9.44,9.44,0,0,0,1.4-2.49,10.23,10.23,0,0,0,.35-2.92,4.78,4.78,0,0,1,.38-2.36,4.77,4.77,0,0,1,2.15-1.1,10.12,10.12,0,0,0,2.66-1.23,9.59,9.59,0,0,0,2-2.13c.59-.79,1.15-1.54,1.73-1.72a1.14,1.14,0,0,1,.39-.06,7.58,7.58,0,0,1,1.93.43,10.23,10.23,0,0,0,2.93.58,10.23,10.23,0,0,0,2.94-.58,7.49,7.49,0,0,1,1.93-.43,1.14,1.14,0,0,1,.39.06c.57.18,1.13.93,1.73,1.72a9.59,9.59,0,0,0,2,2.13,10.06,10.06,0,0,0,2.65,1.23A4.81,4.81,0,0,1,50,16.91a4.77,4.77,0,0,1,.37,2.36,10.23,10.23,0,0,0,.35,2.92,10,10,0,0,0,1.4,2.49,4.88,4.88,0,0,1,1.12,2.22A4.82,4.82,0,0,1,52.11,29.11Z" transform="translate(-17.67 -9.12)"/><path class="g" d="M38.46,42.38c0,.51-1,.93-2.24.93S34,42.89,34,42.38s1-.93,2.24-.93S38.46,41.87,38.46,42.38Z" transform="translate(-17.67 -9.12)"/><path class="d" d="M52.15,24.77a9.44,9.44,0,0,1-1.4-2.49,10.23,10.23,0,0,1-.35-2.92A4.82,4.82,0,0,0,50,17a4.77,4.77,0,0,0-2.15-1.09,10.27,10.27,0,0,1-2.66-1.23,10,10,0,0,1-2-2.13c-.59-.79-1.15-1.54-1.73-1.73a1.48,1.48,0,0,0-.39-.05,7.58,7.58,0,0,0-1.93.43,10.23,10.23,0,0,1-2.93.57,10.23,10.23,0,0,1-2.94-.57,7.49,7.49,0,0,0-1.93-.43,1.48,1.48,0,0,0-.39.05c-.57.19-1.13.94-1.73,1.73a10,10,0,0,1-2,2.13,10.06,10.06,0,0,1-2.65,1.23A4.81,4.81,0,0,0,22.51,17a4.84,4.84,0,0,0-.37,2.37,10.23,10.23,0,0,1-.35,2.92,9.75,9.75,0,0,1-1.41,2.49A4.85,4.85,0,0,0,19.27,27a4.86,4.86,0,0,0,1.12,2.21,10,10,0,0,1,1.4,2.49,10.31,10.31,0,0,1,.35,2.92A4.84,4.84,0,0,0,22.51,37a4.81,4.81,0,0,0,2.16,1.1,10,10,0,0,1,2.65,1.22,10,10,0,0,1,2,2.13c.6.79,1.16,1.54,1.73,1.73a1.48,1.48,0,0,0,.39.05,7.86,7.86,0,0,0,1.93-.42,9.91,9.91,0,0,1,2.94-.58,10.23,10.23,0,0,1,2.93.58,8,8,0,0,0,1.93.42,1.48,1.48,0,0,0,.39-.05c.58-.19,1.14-.94,1.73-1.73a10.32,10.32,0,0,1,2-2.13,10.09,10.09,0,0,1,2.66-1.22A4.77,4.77,0,0,0,50,37a4.82,4.82,0,0,0,.38-2.37,10,10,0,0,1,.35-2.92,9.44,9.44,0,0,1,1.4-2.49A4.86,4.86,0,0,0,53.27,27,4.88,4.88,0,0,0,52.15,24.77Zm-.38,4.38a9.57,9.57,0,0,0-1.37,2.43,10.14,10.14,0,0,0-.34,2.85,4.71,4.71,0,0,1-.36,2.31,4.65,4.65,0,0,1-2.11,1.07A9.61,9.61,0,0,0,45,39a9.58,9.58,0,0,0-1.91,2.08c-.58.77-1.13,1.5-1.69,1.68a1.12,1.12,0,0,1-.38.06,7.6,7.6,0,0,1-1.89-.42,10.09,10.09,0,0,0-2.86-.56,10.09,10.09,0,0,0-2.87.56,7.53,7.53,0,0,1-1.88.42,1,1,0,0,1-.38-.06c-.56-.18-1.11-.91-1.69-1.68A9.39,9.39,0,0,0,27.53,39a9.47,9.47,0,0,0-2.59-1.2,4.66,4.66,0,0,1-2.1-1.07,4.69,4.69,0,0,1-.37-2.31,9.46,9.46,0,0,0-.34-2.85,9,9,0,0,0-1.37-2.43A4.82,4.82,0,0,1,19.67,27a4.8,4.8,0,0,1,1.09-2.17,9,9,0,0,0,1.37-2.43,9.42,9.42,0,0,0,.34-2.85,4.74,4.74,0,0,1,.37-2.31,4.76,4.76,0,0,1,2.1-1.07A9.47,9.47,0,0,0,27.53,15a9.39,9.39,0,0,0,1.92-2.08c.58-.77,1.13-1.5,1.69-1.68a1.06,1.06,0,0,1,.38,0,7.46,7.46,0,0,1,1.88.41,9.76,9.76,0,0,0,2.87.57,9.75,9.75,0,0,0,2.86-.57A7.53,7.53,0,0,1,41,11.15a1.13,1.13,0,0,1,.38,0c.56.18,1.11.91,1.68,1.68A9.89,9.89,0,0,0,45,15a9.61,9.61,0,0,0,2.59,1.2,4.75,4.75,0,0,1,2.11,1.07,4.75,4.75,0,0,1,.36,2.31,10.1,10.1,0,0,0,.34,2.85,9.57,9.57,0,0,0,1.37,2.43A4.7,4.7,0,0,1,52.86,27,4.72,4.72,0,0,1,51.77,29.15Z" transform="translate(-17.67 -9.12)"/><path class="d" d="M52.15,24.77a9.44,9.44,0,0,1-1.4-2.49,10.23,10.23,0,0,1-.35-2.92A4.82,4.82,0,0,0,50,17a4.77,4.77,0,0,0-2.15-1.09,10.27,10.27,0,0,1-2.66-1.23,10,10,0,0,1-2-2.13c-.59-.79-1.15-1.54-1.73-1.73a1.48,1.48,0,0,0-.39-.05,7.58,7.58,0,0,0-1.93.43,10.23,10.23,0,0,1-2.93.57,10.23,10.23,0,0,1-2.94-.57,7.49,7.49,0,0,0-1.93-.43,1.48,1.48,0,0,0-.39.05c-.57.19-1.13.94-1.73,1.73a10,10,0,0,1-2,2.13,10.06,10.06,0,0,1-2.65,1.23A4.81,4.81,0,0,0,22.51,17a4.84,4.84,0,0,0-.37,2.37,10.23,10.23,0,0,1-.35,2.92,9.75,9.75,0,0,1-1.41,2.49A4.85,4.85,0,0,0,19.27,27a4.86,4.86,0,0,0,1.12,2.21,10,10,0,0,1,1.4,2.49,10.31,10.31,0,0,1,.35,2.92A4.84,4.84,0,0,0,22.51,37a4.81,4.81,0,0,0,2.16,1.1,10,10,0,0,1,2.65,1.22,10,10,0,0,1,2,2.13c.6.79,1.16,1.54,1.73,1.73a1.48,1.48,0,0,0,.39.05,7.86,7.86,0,0,0,1.93-.42,9.91,9.91,0,0,1,2.94-.58,10.23,10.23,0,0,1,2.93.58,8,8,0,0,0,1.93.42,1.48,1.48,0,0,0,.39-.05c.58-.19,1.14-.94,1.73-1.73a10.32,10.32,0,0,1,2-2.13,10.09,10.09,0,0,1,2.66-1.22A4.77,4.77,0,0,0,50,37a4.82,4.82,0,0,0,.38-2.37,10,10,0,0,1,.35-2.92,9.44,9.44,0,0,1,1.4-2.49A4.86,4.86,0,0,0,53.27,27,4.88,4.88,0,0,0,52.15,24.77Zm-.38,4.38a9.57,9.57,0,0,0-1.37,2.43,10.14,10.14,0,0,0-.34,2.85,4.71,4.71,0,0,1-.36,2.31,4.65,4.65,0,0,1-2.11,1.07A9.61,9.61,0,0,0,45,39a9.58,9.58,0,0,0-1.91,2.08c-.58.77-1.13,1.5-1.69,1.68a1.12,1.12,0,0,1-.38.06,7.6,7.6,0,0,1-1.89-.42,10.09,10.09,0,0,0-2.86-.56,10.09,10.09,0,0,0-2.87.56,7.53,7.53,0,0,1-1.88.42,1,1,0,0,1-.38-.06c-.56-.18-1.11-.91-1.69-1.68A9.39,9.39,0,0,0,27.53,39a9.47,9.47,0,0,0-2.59-1.2,4.66,4.66,0,0,1-2.1-1.07,4.69,4.69,0,0,1-.37-2.31,9.46,9.46,0,0,0-.34-2.85,9,9,0,0,0-1.37-2.43A4.82,4.82,0,0,1,19.67,27a4.8,4.8,0,0,1,1.09-2.17,9,9,0,0,0,1.37-2.43,9.42,9.42,0,0,0,.34-2.85,4.74,4.74,0,0,1,.37-2.31,4.76,4.76,0,0,1,2.1-1.07A9.47,9.47,0,0,0,27.53,15a9.39,9.39,0,0,0,1.92-2.08c.58-.77,1.13-1.5,1.69-1.68a1.06,1.06,0,0,1,.38,0,7.46,7.46,0,0,1,1.88.41,9.76,9.76,0,0,0,2.87.57,9.75,9.75,0,0,0,2.86-.57A7.53,7.53,0,0,1,41,11.15a1.13,1.13,0,0,1,.38,0c.56.18,1.11.91,1.68,1.68A9.89,9.89,0,0,0,45,15a9.61,9.61,0,0,0,2.59,1.2,4.75,4.75,0,0,1,2.11,1.07,4.75,4.75,0,0,1,.36,2.31,10.1,10.1,0,0,0,.34,2.85,9.57,9.57,0,0,0,1.37,2.43A4.7,4.7,0,0,1,52.86,27,4.72,4.72,0,0,1,51.77,29.15Z" transform="translate(-17.67 -9.12)"/><path class="c" d="M52.1,24.68a10,10,0,0,1-1.4-2.49,10.23,10.23,0,0,1-.35-2.92A4.77,4.77,0,0,0,50,16.91a4.81,4.81,0,0,0-2.16-1.1,10.06,10.06,0,0,1-2.65-1.23,9.59,9.59,0,0,1-2-2.13c-.6-.79-1.16-1.54-1.73-1.72a1.14,1.14,0,0,0-.39-.06,7.49,7.49,0,0,0-1.93.43,10.23,10.23,0,0,1-2.94.58,10.23,10.23,0,0,1-2.93-.58,7.58,7.58,0,0,0-1.93-.43,1.14,1.14,0,0,0-.39.06c-.58.18-1.14.93-1.73,1.72a9.59,9.59,0,0,1-2,2.13,10.12,10.12,0,0,1-2.66,1.23,4.77,4.77,0,0,0-2.15,1.1,4.78,4.78,0,0,0-.38,2.36,10.23,10.23,0,0,1-.35,2.92,9.44,9.44,0,0,1-1.4,2.49,4.88,4.88,0,0,0-1.12,2.22,4.86,4.86,0,0,0,1.12,2.21,9.6,9.6,0,0,1,1.4,2.49,10.34,10.34,0,0,1,.35,2.93,4.8,4.8,0,0,0,.38,2.36A4.77,4.77,0,0,0,24.62,38a10.09,10.09,0,0,1,2.66,1.22,10,10,0,0,1,2,2.13c.59.8,1.15,1.54,1.73,1.73a1.12,1.12,0,0,0,.39,0,7.51,7.51,0,0,0,1.93-.42,10.23,10.23,0,0,1,2.93-.58,10.23,10.23,0,0,1,2.94.58,7.42,7.42,0,0,0,1.93.42,1.15,1.15,0,0,0,.39,0c.57-.19,1.14-.94,1.73-1.73a10,10,0,0,1,2-2.13A10,10,0,0,1,47.82,38,4.81,4.81,0,0,0,50,36.89a4.84,4.84,0,0,0,.37-2.37,10.31,10.31,0,0,1,.35-2.92,9.75,9.75,0,0,1,1.41-2.49,4.82,4.82,0,0,0,1.11-2.21A4.88,4.88,0,0,0,52.1,24.68Zm-.37,4.38a9,9,0,0,0-1.37,2.43A9.46,9.46,0,0,0,50,34.34a4.69,4.69,0,0,1-.37,2.31,4.66,4.66,0,0,1-2.1,1.07A9.77,9.77,0,0,0,45,38.92,9.39,9.39,0,0,0,43,41c-.58.77-1.13,1.5-1.69,1.69a1.4,1.4,0,0,1-.38.05,7.11,7.11,0,0,1-1.88-.42,10.09,10.09,0,0,0-2.87-.56,10.09,10.09,0,0,0-2.86.56,7.6,7.6,0,0,1-1.89.42,1.46,1.46,0,0,1-.38-.05C30.53,42.5,30,41.77,29.4,41a9.58,9.58,0,0,0-1.91-2.08,9.57,9.57,0,0,0-2.59-1.19,4.75,4.75,0,0,1-2.11-1.08,4.71,4.71,0,0,1-.36-2.31,10.14,10.14,0,0,0-.34-2.85,9.74,9.74,0,0,0-1.37-2.43,4.72,4.72,0,0,1-1.09-2.16,4.75,4.75,0,0,1,1.09-2.17,9.57,9.57,0,0,0,1.37-2.43,10.1,10.1,0,0,0,.34-2.85,4.75,4.75,0,0,1,.36-2.31,4.75,4.75,0,0,1,2.11-1.07,9.61,9.61,0,0,0,2.59-1.2A9.77,9.77,0,0,0,29.4,12.8c.58-.78,1.13-1.51,1.69-1.69a1.46,1.46,0,0,1,.38,0,7.53,7.53,0,0,1,1.89.41,9.75,9.75,0,0,0,2.86.57,10,10,0,0,0,2.86-.56A7.26,7.26,0,0,1,41,11.06a1.4,1.4,0,0,1,.38,0c.56.18,1.11.91,1.69,1.68A9.39,9.39,0,0,0,45,14.87a9.47,9.47,0,0,0,2.59,1.2,4.76,4.76,0,0,1,2.1,1.07A4.74,4.74,0,0,1,50,19.45a9.42,9.42,0,0,0,.34,2.85,9,9,0,0,0,1.37,2.43,4.85,4.85,0,0,1,1.09,2.17A4.82,4.82,0,0,1,51.73,29.06Z" transform="translate(-17.67 -9.12)"/><path class="d" d="M52.1,24.68a10,10,0,0,1-1.4-2.49,10.23,10.23,0,0,1-.35-2.92A4.77,4.77,0,0,0,50,16.91a4.81,4.81,0,0,0-2.16-1.1,10.06,10.06,0,0,1-2.65-1.23,9.59,9.59,0,0,1-2-2.13c-.6-.79-1.16-1.54-1.73-1.72a1.14,1.14,0,0,0-.39-.06,7.49,7.49,0,0,0-1.93.43,10.23,10.23,0,0,1-2.94.58,10.23,10.23,0,0,1-2.93-.58,7.58,7.58,0,0,0-1.93-.43,1.14,1.14,0,0,0-.39.06c-.58.18-1.14.93-1.73,1.72a9.59,9.59,0,0,1-2,2.13,10.12,10.12,0,0,1-2.66,1.23,4.77,4.77,0,0,0-2.15,1.1,4.78,4.78,0,0,0-.38,2.36,10.23,10.23,0,0,1-.35,2.92,9.44,9.44,0,0,1-1.4,2.49,4.88,4.88,0,0,0-1.12,2.22,4.86,4.86,0,0,0,1.12,2.21,9.6,9.6,0,0,1,1.4,2.49,10.34,10.34,0,0,1,.35,2.93,4.8,4.8,0,0,0,.38,2.36A4.77,4.77,0,0,0,24.62,38a10.09,10.09,0,0,1,2.66,1.22,10,10,0,0,1,2,2.13c.59.8,1.15,1.54,1.73,1.73a1.12,1.12,0,0,0,.39,0,7.51,7.51,0,0,0,1.93-.42,10.23,10.23,0,0,1,2.93-.58,10.23,10.23,0,0,1,2.94.58,7.42,7.42,0,0,0,1.93.42,1.15,1.15,0,0,0,.39,0c.57-.19,1.14-.94,1.73-1.73a10,10,0,0,1,2-2.13A10,10,0,0,1,47.82,38,4.81,4.81,0,0,0,50,36.89a4.84,4.84,0,0,0,.37-2.37,10.31,10.31,0,0,1,.35-2.92,9.75,9.75,0,0,1,1.41-2.49,4.82,4.82,0,0,0,1.11-2.21A4.88,4.88,0,0,0,52.1,24.68Zm-.37,4.38a9,9,0,0,0-1.37,2.43A9.46,9.46,0,0,0,50,34.34a4.69,4.69,0,0,1-.37,2.31,4.66,4.66,0,0,1-2.1,1.07A9.77,9.77,0,0,0,45,38.92,9.39,9.39,0,0,0,43,41c-.58.77-1.13,1.5-1.69,1.69a1.4,1.4,0,0,1-.38.05,7.11,7.11,0,0,1-1.88-.42,10.09,10.09,0,0,0-2.87-.56,10.09,10.09,0,0,0-2.86.56,7.6,7.6,0,0,1-1.89.42,1.46,1.46,0,0,1-.38-.05C30.53,42.5,30,41.77,29.4,41a9.58,9.58,0,0,0-1.91-2.08,9.57,9.57,0,0,0-2.59-1.19,4.75,4.75,0,0,1-2.11-1.08,4.71,4.71,0,0,1-.36-2.31,10.14,10.14,0,0,0-.34-2.85,9.74,9.74,0,0,0-1.37-2.43,4.72,4.72,0,0,1-1.09-2.16,4.75,4.75,0,0,1,1.09-2.17,9.57,9.57,0,0,0,1.37-2.43,10.1,10.1,0,0,0,.34-2.85,4.75,4.75,0,0,1,.36-2.31,4.75,4.75,0,0,1,2.11-1.07,9.61,9.61,0,0,0,2.59-1.2A9.77,9.77,0,0,0,29.4,12.8c.58-.78,1.13-1.51,1.69-1.69a1.46,1.46,0,0,1,.38,0,7.53,7.53,0,0,1,1.89.41,9.75,9.75,0,0,0,2.86.57,10,10,0,0,0,2.86-.56A7.26,7.26,0,0,1,41,11.06a1.4,1.4,0,0,1,.38,0c.56.18,1.11.91,1.69,1.68A9.39,9.39,0,0,0,45,14.87a9.47,9.47,0,0,0,2.59,1.2,4.76,4.76,0,0,1,2.1,1.07A4.74,4.74,0,0,1,50,19.45a9.42,9.42,0,0,0,.34,2.85,9,9,0,0,0,1.37,2.43,4.85,4.85,0,0,1,1.09,2.17A4.82,4.82,0,0,1,51.73,29.06Z" transform="translate(-17.67 -9.12)"/><text class="h" transform="translate(7.93 18.06) rotate(-86.64)">S</text><text class="h" transform="matrix(0.22, -0.98, 0.98, 0.22, 8, 16.45)">u</text><text class="h" transform="translate(8.31 14.67) rotate(-64.8)">m</text><text class="h" transform="translate(9.6 12.1) rotate(-55.44)"> </text><text class="h" transform="matrix(0.67, -0.74, 0.74, 0.67, 9.92, 11.55)">A</text><text class="h" transform="translate(11.26 10.04) rotate(-37.82)">n</text><text class="h" transform="translate(12.7 8.89) rotate(-27.82)">d</text><text class="h" transform="matrix(0.93, -0.36, 0.36, 0.93, 14.43, 8.01)"> </text><text class="h" transform="translate(15.02 7.75) rotate(-14.43)">S</text><text class="h" transform="translate(16.59 7.32) rotate(-5.08)">u</text><text class="h" transform="translate(18.42 7.14) rotate(4.9)">b</text><text class="h" transform="matrix(0.97, 0.23, -0.23, 0.97, 20.33, 7.31)">s</text><text class="h" transform="matrix(0.94, 0.34, -0.34, 0.94, 21.62, 7.62)">t</text><text class="h" transform="translate(22.63 7.96) rotate(27.38)">a</text><text class="h" transform="translate(24.04 8.66) rotate(36.62)">n</text><text class="h" transform="translate(25.53 9.77) rotate(45.51)">c</text><text class="h" transform="matrix(0.59, 0.81, -0.81, 0.59, 26.58, 10.8)">e</text><text class="h" transform="translate(27.57 12.2) rotate(60.27)"> </text><text class="h" transform="matrix(0.4, 0.92, -0.92, 0.4, 27.92, 12.74)">L</text><text class="h" transform="translate(28.55 14.2) rotate(73.61)">t</text><text class="h" transform="matrix(0.15, 0.99, -0.99, 0.15, 28.88, 15.17)">d</text><text class="h" transform="translate(29.13 17.06) rotate(88.19)">.</text><text class="i" transform="translate(11.35 19.38)"><tspan class="j">K<tspan class="k" x="4.93" y="0">Y</tspan><tspan class="l" x="9.51" y="0">C</tspan></tspan><tspan class="m"><tspan x="-3.52" y="6.36">S</tspan><tspan class="n" x="-0.65" y="6.36">T</tspan><tspan class="o" x="1.87" y="6.36">ARTED</tspan></tspan></text></g></svg>