<svg xmlns="http://www.w3.org/2000/svg" xmlns:xlink="http://www.w3.org/1999/xlink" viewBox="0 0 37.11 35.56"><defs><style>.a{fill:url(#a);}.b{fill:url(#b);}.c{fill:url(#c);}.d{fill:url(#d);}.e{fill:url(#e);}.f{fill:url(#f);}.g{fill:url(#g);}.h{fill:url(#h);}.i{fill:url(#i);}.j{fill:url(#j);}.k{fill:url(#k);}.l{fill:url(#l);}.m{fill:url(#m);}.n{fill:url(#n);}.o{fill:url(#o);}.p{fill:url(#p);}.q{fill:url(#q);}.r{fill:url(#r);}.s{fill:url(#s);}.t{fill:url(#t);}.u{fill:url(#u);}.v{fill:url(#v);}.w{fill:url(#w);}.x{fill:url(#x);}.y{fill:url(#y);}.z{fill:url(#z);}.aa{fill:url(#aa);}.ab{fill:url(#ab);}.ac{fill:url(#ac);}.ad{fill:url(#ad);}.ae{fill:url(#ae);}.af{fill:url(#af);}.ag{fill:url(#ag);}.ah{fill:url(#ah);}.ai{fill:url(#ai);}</style><linearGradient id="a" x1="58.07" y1="77.68" x2="35.07" y2="109.12" gradientUnits="userSpaceOnUse"><stop offset="0.03" stop-color="#f93"/><stop offset="0.15" stop-color="#f93" stop-opacity="0.5"/><stop offset="0.48" stop-color="#f93"/><stop offset="0.75" stop-color="#f93" stop-opacity="0.5"/><stop offset="1" stop-color="#f93"/></linearGradient><linearGradient id="b" x1="33.6" y1="91.64" x2="37.28" y2="91.64" gradientUnits="userSpaceOnUse"><stop offset="0" stop-color="#38190f"/><stop offset="1" stop-color="#68390b"/></linearGradient><linearGradient id="c" x1="34.14" y1="88.46" x2="38.19" y2="88.46" xlink:href="#b"/><linearGradient id="d" x1="36.62" y1="85.63" x2="40.37" y2="85.63" xlink:href="#b"/><linearGradient id="e" x1="39.02" y1="83.74" x2="42.56" y2="83.74" xlink:href="#b"/><linearGradient id="f" x1="41.65" y1="82.78" x2="44.69" y2="82.78" xlink:href="#b"/><linearGradient id="g" x1="44.58" y1="82.3" x2="46.82" y2="82.3" xlink:href="#b"/><linearGradient id="h" x1="46.98" y1="82.43" x2="49.55" y2="82.43" xlink:href="#b"/><linearGradient id="i" x1="49.3" y1="82.9" x2="52.52" y2="82.9" xlink:href="#b"/><linearGradient id="j" x1="51.73" y1="84.48" x2="55.62" y2="84.48" xlink:href="#b"/><linearGradient id="k" x1="53.54" y1="87.02" x2="56.75" y2="87.02" xlink:href="#b"/><linearGradient id="l" x1="54.75" y1="89.23" x2="58.27" y2="89.23" xlink:href="#b"/><linearGradient id="m" x1="55.6" y1="90.95" x2="59.47" y2="90.95" xlink:href="#b"/><linearGradient id="n" x1="38.34" y1="102.81" x2="41.85" y2="102.81" xlink:href="#b"/><linearGradient id="o" x1="41.01" y1="104.27" x2="43.89" y2="104.27" xlink:href="#b"/><linearGradient id="p" x1="44.78" y1="104.55" x2="45.65" y2="104.55" xlink:href="#b"/><linearGradient id="q" x1="46.09" y1="104.59" x2="48.32" y2="104.59" xlink:href="#b"/><linearGradient id="r" x1="48.37" y1="104.1" x2="51.39" y2="104.1" xlink:href="#b"/><linearGradient id="s" x1="50.47" y1="103.03" x2="54.25" y2="103.03" xlink:href="#b"/><linearGradient id="t" x1="40.57" y1="92.03" x2="41.66" y2="92.03" gradientUnits="userSpaceOnUse"><stop offset="0" stop-color="#cb9f3d"/><stop offset="0.24" stop-color="#f2e677"/><stop offset="0.28" stop-color="#e8d368"/><stop offset="0.41" stop-color="#cb9f3d"/><stop offset="0.51" stop-color="#ba7e23"/><stop offset="0.56" stop-color="#b37219"/><stop offset="0.62" stop-color="#b77a20"/><stop offset="0.71" stop-color="#c39032"/><stop offset="0.82" stop-color="#d5b450"/><stop offset="0.87" stop-color="#dfc760"/><stop offset="0.97" stop-color="#c8953e"/></linearGradient><linearGradient id="u" x1="42.82" y1="92.03" x2="45.04" y2="92.03" xlink:href="#t"/><linearGradient id="v" x1="45.51" y1="92.03" x2="47.57" y2="92.03" xlink:href="#t"/><linearGradient id="w" x1="48.02" y1="92.06" x2="50.05" y2="92.06" xlink:href="#t"/><linearGradient id="x" x1="50.68" y1="92.03" x2="52.75" y2="92.03" xlink:href="#t"/><linearGradient id="y" x1="42.72" y1="96.97" x2="44.63" y2="96.97" xlink:href="#t"/><linearGradient id="z" x1="44.89" y1="96.97" x2="47.41" y2="96.97" xlink:href="#t"/><linearGradient id="aa" x1="47.79" y1="96.97" x2="50.31" y2="96.97" xlink:href="#t"/><linearGradient id="ab" x1="40.45" y1="91.97" x2="41.54" y2="91.97" xlink:href="#b"/><linearGradient id="ac" x1="42.69" y1="91.97" x2="44.91" y2="91.97" xlink:href="#b"/><linearGradient id="ad" x1="45.38" y1="91.97" x2="47.45" y2="91.97" xlink:href="#b"/><linearGradient id="ae" x1="47.9" y1="92" x2="49.93" y2="92" xlink:href="#b"/><linearGradient id="af" x1="50.56" y1="91.97" x2="52.62" y2="91.97" xlink:href="#b"/><linearGradient id="ag" x1="42.6" y1="96.91" x2="44.5" y2="96.91" xlink:href="#b"/><linearGradient id="ah" x1="44.77" y1="96.91" x2="47.28" y2="96.91" xlink:href="#b"/><linearGradient id="ai" x1="47.66" y1="96.91" x2="50.19" y2="96.91" xlink:href="#b"/></defs><title>raised</title><path class="a" d="M65.09,93.44c0,1.91-2,3.47-2.59,5.19s.13,4.24-1,5.72S57.9,105.93,56.4,107s-2.35,3.5-4.13,4.08-3.83-.88-5.73-.88-4,1.44-5.74.88-2.64-3-4.13-4.08-4.06-1.17-5.15-2.67-.37-3.94-.95-5.72S28,95.35,28,93.44s2-3.46,2.59-5.18-.13-4.24.95-5.72,3.66-1.58,5.15-2.67,2.35-3.5,4.13-4.08,3.83.88,5.74.88,4-1.44,5.73-.88,2.64,3,4.13,4.08,4.06,1.17,5.15,2.67.37,3.94,1,5.72S65.09,91.54,65.09,93.44Z" transform="translate(-27.98 -75.66)"/><path class="b" d="M36.5,92.75a1.66,1.66,0,0,0,.37-.79c.08-.47-.12-.79-.48-.85s-.56.1-.82.55-.67.86-1.17.77a1,1,0,0,1-.78-1.32,1.65,1.65,0,0,1,.31-.76l.35.2a1.37,1.37,0,0,0-.28.65c-.08.48.18.72.42.76s.54-.13.81-.6.68-.82,1.2-.73,1,.58.82,1.42a1.89,1.89,0,0,1-.38.88Z" transform="translate(-27.98 -75.66)"/><path class="c" d="M34.35,88.66l1.94.92c.73.35,1.2.17,1.4-.26s.06-.95-.66-1.3l-1.94-.92.2-.43,1.91.91c1,.48,1.17,1.21.83,1.91s-.94,1-2,.52l-1.93-.92Z" transform="translate(-27.98 -75.66)"/><path class="d" d="M40.37,86.05a2.49,2.49,0,0,1-.52.82,1.7,1.7,0,0,1-2.56.1,1.81,1.81,0,0,1-.14-2.68,1.89,1.89,0,0,1,.7-.53l.2.34a1.69,1.69,0,0,0-.6.44,1.35,1.35,0,0,0,.16,2,1.31,1.31,0,0,0,2,0,1.89,1.89,0,0,0,.41-.67Z" transform="translate(-27.98 -75.66)"/><path class="e" d="M42.56,84.69a2.3,2.3,0,0,1-.71.65,1.7,1.7,0,0,1-2.5-.58,1.81,1.81,0,0,1,.58-2.62,2,2,0,0,1,.81-.33l.11.39a1.65,1.65,0,0,0-.69.26,1.35,1.35,0,0,0-.4,2,1.32,1.32,0,0,0,2,.48,1.92,1.92,0,0,0,.56-.53Z" transform="translate(-27.98 -75.66)"/><path class="f" d="M44,82.61,42.68,83l.4,1.24,1.49-.47.12.37-1.94.62-1.1-3.45,1.87-.6.12.38-1.42.45.34,1.09,1.34-.43Z" transform="translate(-27.98 -75.66)"/><path class="g" d="M44.78,83.61a1.62,1.62,0,0,0,.85.17c.48,0,.74-.3.71-.67s-.23-.51-.73-.67-1-.45-1-1,.39-1,1.1-1.07a1.72,1.72,0,0,1,.81.12l-.1.39a1.59,1.59,0,0,0-.7-.12c-.5,0-.66.34-.64.59s.25.49.76.65,1,.46,1,1-.34,1.07-1.19,1.13a1.87,1.87,0,0,1-.94-.16Z" transform="translate(-27.98 -75.66)"/><path class="h" d="M47.16,83.49a1.62,1.62,0,0,0,.79.37c.47.08.79-.12.85-.48s-.11-.56-.56-.82-.85-.67-.77-1.18a1,1,0,0,1,1.32-.77,1.56,1.56,0,0,1,.76.31l-.19.35a1.48,1.48,0,0,0-.65-.28c-.49-.08-.72.18-.76.42s.13.53.59.81.82.68.74,1.2-.59,1-1.43.82a1.9,1.9,0,0,1-.87-.38Z" transform="translate(-27.98 -75.66)"/><path class="i" d="M50.73,81.15l1.79.76-.15.36L51,81.69l-.47,1.11,1.26.54-.15.35-1.26-.54-.65,1.51-.43-.18Z" transform="translate(-27.98 -75.66)"/><path class="j" d="M53.9,82.77l-1.34,1.67c-.51.64-.45,1.13-.07,1.43s.91.28,1.41-.35l1.35-1.67.37.29-1.33,1.65a1.33,1.33,0,0,1-2,.37c-.58-.46-.75-1.15,0-2l1.33-1.67Z" transform="translate(-27.98 -75.66)"/><path class="k" d="M56.48,85.14l.27.38-2.62,1.89L55,88.67l-.32.23-1.18-1.64Z" transform="translate(-27.98 -75.66)"/><path class="l" d="M58.08,87.6l.19.43-3,1.26.6,1.42-.36.16L54.75,89Z" transform="translate(-27.98 -75.66)"/><path class="m" d="M55.6,91.38l1.5-.3,1.82-1.52.11.52-.88.69c-.24.19-.44.34-.67.5h0c.25,0,.5.13.8.21l1.08.32.1.52-2.27-.78-1.51.29Z" transform="translate(-27.98 -75.66)"/><path class="n" d="M40.34,100.67a4.54,4.54,0,0,1,.78.44,1.52,1.52,0,0,1,.71.83.93.93,0,0,1-.15.73,1,1,0,0,1-1.09.38v0a.91.91,0,0,1,0,.9,6,6,0,0,0-.33,1l-.4-.27a4.81,4.81,0,0,1,.29-.85c.19-.48.13-.74-.21-1l-.37-.25-.88,1.3-.38-.26Zm-.54,1.63.4.27a.71.71,0,0,0,1.06-.12c.26-.38.1-.74-.31-1a2.09,2.09,0,0,0-.41-.23Z" transform="translate(-27.98 -75.66)"/><path class="o" d="M42.18,104.52l-.71,1-.46-.15,2.29-3.06.53.18.06,3.82-.48-.16v-1.2Zm1.24,0,0-1.1q0-.37,0-.69h0c-.12.18-.24.38-.38.56l-.66.89Z" transform="translate(-27.98 -75.66)"/><path class="p" d="M45.65,102.78l-.41,3.6-.46,0,.4-3.6Z" transform="translate(-27.98 -75.66)"/><path class="q" d="M46.27,105.9a1.76,1.76,0,0,0,.86.18c.47,0,.74-.3.71-.66s-.22-.52-.72-.68-1-.45-1-1,.4-1,1.1-1.06a1.67,1.67,0,0,1,.81.13l-.1.39a1.41,1.41,0,0,0-.7-.13c-.49,0-.66.34-.64.58s.25.49.76.65,1,.48,1,1-.35,1.07-1.2,1.12a2,2,0,0,1-.94-.17Z" transform="translate(-27.98 -75.66)"/><path class="r" d="M50.74,103.94l-1.35.42.39,1.24,1.5-.46.11.37-1.94.61-1.08-3.47,1.87-.58.12.38-1.42.44.34,1.1,1.34-.42Z" transform="translate(-27.98 -75.66)"/><path class="s" d="M50.47,102.07a6.23,6.23,0,0,1,.79-.6,2,2,0,0,1,1.47-.44,1.67,1.67,0,0,1,1.14.81,1.89,1.89,0,0,1,.34,1.46,2.21,2.21,0,0,1-1.05,1.32c-.28.18-.52.32-.73.43Zm2.15,2.42a3.25,3.25,0,0,0,.41-.24,1.39,1.39,0,0,0,.44-2.13,1.29,1.29,0,0,0-2-.36,2.62,2.62,0,0,0-.43.35Z" transform="translate(-27.98 -75.66)"/><path class="t" d="M41.24,90.81h0l-.57.3-.09-.33.72-.39h.37v3.28h-.42Z" transform="translate(-27.98 -75.66)"/><path class="u" d="M45,92c0,1.12-.42,1.73-1.14,1.73s-1.07-.6-1.08-1.68.47-1.7,1.13-1.7S45,91,45,92ZM43.26,92c0,.86.26,1.34.66,1.34s.67-.53.67-1.37-.2-1.33-.66-1.33S43.26,91.15,43.26,92Z" transform="translate(-27.98 -75.66)"/><path class="v" d="M47.57,90.39v.29l-1.42,3h-.46l1.42-2.9h-1.6v-.37Z" transform="translate(-27.98 -75.66)"/><path class="w" d="M50,90.77H48.74l-.13.84.27,0a1.37,1.37,0,0,1,.7.17.93.93,0,0,1,.47.84,1.14,1.14,0,0,1-1.22,1.12,1.59,1.59,0,0,1-.81-.2l.11-.34a1.48,1.48,0,0,0,.7.18.72.72,0,0,0,.78-.71c0-.42-.29-.72-1-.72-.18,0-.33,0-.45,0l.21-1.57H50Z" transform="translate(-27.98 -75.66)"/><path class="x" d="M52.75,90.39v.29l-1.43,3h-.46l1.42-2.9h-1.6v-.37Z" transform="translate(-27.98 -75.66)"/><path class="y" d="M44.48,97.07H43.16V98.3h1.47v.37H42.72v-3.4h1.83v.37H43.16v1.07h1.32Z" transform="translate(-27.98 -75.66)"/><path class="z" d="M45.93,95.64h-1v-.37h2.52v.37h-1v3h-.44Z" transform="translate(-27.98 -75.66)"/><path class="aa" d="M48.22,95.27v1.42h1.65V95.27h.44v3.4h-.44v-1.6H48.22v1.6h-.43v-3.4Z" transform="translate(-27.98 -75.66)"/><path class="ab" d="M41.11,90.75h0l-.57.31-.08-.34.71-.38h.38v3.27h-.43Z" transform="translate(-27.98 -75.66)"/><path class="ac" d="M44.91,91.94c0,1.11-.41,1.72-1.14,1.72s-1.07-.6-1.08-1.68.48-1.7,1.14-1.7S44.91,90.9,44.91,91.94Zm-1.77,0c0,.85.26,1.33.66,1.33s.67-.53.67-1.36-.21-1.34-.66-1.34S43.14,91.1,43.14,92Z" transform="translate(-27.98 -75.66)"/><path class="ad" d="M47.45,90.34v.29l-1.43,3h-.45L47,90.71H45.38v-.36Z" transform="translate(-27.98 -75.66)"/><path class="ae" d="M49.86,90.71H48.62l-.13.84.27,0a1.28,1.28,0,0,1,.7.18.91.91,0,0,1,.47.84,1.13,1.13,0,0,1-1.22,1.11,1.56,1.56,0,0,1-.81-.2l.11-.33a1.44,1.44,0,0,0,.7.18.73.73,0,0,0,.77-.71c0-.43-.29-.73-.94-.73a2.58,2.58,0,0,0-.45,0l.21-1.57h1.56Z" transform="translate(-27.98 -75.66)"/><path class="af" d="M52.62,90.34v.29l-1.42,3h-.46l1.42-2.9h-1.6v-.36Z" transform="translate(-27.98 -75.66)"/><path class="ag" d="M44.35,97H43v1.22H44.5v.37H42.6v-3.4h1.83v.37H43v1.08h1.32Z" transform="translate(-27.98 -75.66)"/><path class="ah" d="M45.8,95.59h-1v-.38h2.51v.38h-1v3H45.8Z" transform="translate(-27.98 -75.66)"/><path class="ai" d="M48.1,95.21v1.43h1.64V95.21h.45v3.4h-.45V97H48.1v1.59h-.44v-3.4Z" transform="translate(-27.98 -75.66)"/></svg>