<svg xmlns="http://www.w3.org/2000/svg" xmlns:xlink="http://www.w3.org/1999/xlink" viewBox="0 0 37.11 35.56"><defs><style>.a{isolation:isolate;}.b{fill:url(#a);}.c{fill:url(#b);}.d{fill:#dba458;}.d,.h{mix-blend-mode:multiply;}.e{fill:url(#c);}.f{fill:url(#d);}.g{mix-blend-mode:screen;fill:url(#e);}.h{fill:#c79858;}.i{fill:url(#g);}.j{fill:url(#h);}.k{fill:url(#i);}.l{fill:url(#j);}.m{fill:url(#k);}.n{fill:url(#l);}.o{fill:url(#m);}.p{fill:url(#n);}.q{fill:url(#o);}.r{fill:url(#p);}.s{fill:url(#q);}.t{fill:url(#r);}.u{fill:url(#s);}.v{fill:url(#t);}.w{fill:url(#u);}.x{fill:url(#v);}.y{fill:url(#w);}.z{fill:url(#x);}.aa{fill:url(#y);}.ab{fill:url(#z);}.ac{fill:url(#aa);}.ad{fill:url(#ab);}.ae{fill:url(#ac);}.af{fill:url(#ad);}.ag{fill:url(#ae);}.ah{fill:url(#af);}.ai{fill:url(#ag);}.aj{fill:url(#ah);}.ak{fill:url(#ai);}.al{fill:url(#aj);}.am{fill:url(#ak);}.an{fill:url(#al);}.ao{fill:url(#am);}.ap{fill:url(#an);}</style><linearGradient id="a" x1="65.5" y1="78.29" x2="42.5" y2="109.73" gradientUnits="userSpaceOnUse"><stop offset="0.03" stop-color="#c8953e"/><stop offset="0.15" stop-color="#dfc760"/><stop offset="0.48" stop-color="#b37219"/><stop offset="0.75" stop-color="#e0c45c"/><stop offset="1" stop-color="#d3b151"/></linearGradient><linearGradient id="b" x1="36.97" y1="94.05" x2="70.97" y2="94.05" xlink:href="#a"/><linearGradient id="c" x1="40.11" y1="82.42" x2="67.83" y2="105.68" gradientUnits="userSpaceOnUse"><stop offset="0" stop-color="#cb9f3d"/><stop offset="0.24" stop-color="#f2e677"/><stop offset="0.28" stop-color="#e8d368"/><stop offset="0.41" stop-color="#cb9f3d"/><stop offset="0.51" stop-color="#ba7e23"/><stop offset="0.56" stop-color="#b37219"/><stop offset="0.62" stop-color="#b77a20"/><stop offset="0.71" stop-color="#c39032"/><stop offset="0.82" stop-color="#d5b450"/><stop offset="0.87" stop-color="#dfc760"/><stop offset="0.97" stop-color="#c8953e"/></linearGradient><linearGradient id="d" x1="38.64" y1="103.63" x2="69.3" y2="84.47" gradientUnits="userSpaceOnUse"><stop offset="0" stop-color="#cb9f3d"/><stop offset="0.24" stop-color="#fdff87"/><stop offset="0.29" stop-color="#ebdc6c"/><stop offset="0.39" stop-color="#cfa843"/><stop offset="0.45" stop-color="#be872a"/><stop offset="0.49" stop-color="#b87b20"/><stop offset="0.69" stop-color="#b37219"/><stop offset="0.75" stop-color="#b6761c"/><stop offset="0.81" stop-color="#be8326"/><stop offset="0.87" stop-color="#cc9836"/><stop offset="0.93" stop-color="#dfb54c"/><stop offset="0.99" stop-color="#f7da68"/><stop offset="1" stop-color="#fadf6c"/></linearGradient><radialGradient id="e" cx="-366.97" cy="1120.18" r="14.54" gradientTransform="matrix(0.15, 0, 0, 0.06, 110.52, 38.03)" gradientUnits="userSpaceOnUse"><stop offset="0" stop-color="#fff"/><stop offset="0.06" stop-color="#e6e6e6"/><stop offset="0.2" stop-color="#aaa"/><stop offset="0.34" stop-color="#767676"/><stop offset="0.48" stop-color="#4c4c4c"/><stop offset="0.62" stop-color="#2b2b2b"/><stop offset="0.75" stop-color="#131313"/><stop offset="0.87" stop-color="#050505"/><stop offset="0.97"/></radialGradient><linearGradient id="g" x1="41.03" y1="92.25" x2="44.71" y2="92.25" gradientUnits="userSpaceOnUse"><stop offset="0" stop-color="#38190f"/><stop offset="1" stop-color="#68390b"/></linearGradient><linearGradient id="h" x1="41.58" y1="89.06" x2="45.63" y2="89.06" xlink:href="#g"/><linearGradient id="i" x1="44.06" y1="86.24" x2="47.8" y2="86.24" xlink:href="#g"/><linearGradient id="j" x1="46.46" y1="84.34" x2="50" y2="84.34" xlink:href="#g"/><linearGradient id="k" x1="49.09" y1="83.38" x2="52.12" y2="83.38" xlink:href="#g"/><linearGradient id="l" x1="52.02" y1="82.9" x2="54.26" y2="82.9" xlink:href="#g"/><linearGradient id="m" x1="54.41" y1="83.03" x2="56.99" y2="83.03" xlink:href="#g"/><linearGradient id="n" x1="56.74" y1="83.51" x2="59.95" y2="83.51" xlink:href="#g"/><linearGradient id="o" x1="59.17" y1="85.09" x2="63.05" y2="85.09" xlink:href="#g"/><linearGradient id="p" x1="60.98" y1="87.62" x2="64.19" y2="87.62" xlink:href="#g"/><linearGradient id="q" x1="62.19" y1="89.84" x2="65.7" y2="89.84" xlink:href="#g"/><linearGradient id="r" x1="63.03" y1="91.55" x2="66.91" y2="91.55" xlink:href="#g"/><linearGradient id="s" x1="45.77" y1="103.42" x2="49.29" y2="103.42" xlink:href="#g"/><linearGradient id="t" x1="48.44" y1="104.88" x2="51.32" y2="104.88" xlink:href="#g"/><linearGradient id="u" x1="52.21" y1="105.16" x2="53.08" y2="105.16" xlink:href="#g"/><linearGradient id="v" x1="53.53" y1="105.2" x2="55.76" y2="105.2" xlink:href="#g"/><linearGradient id="w" x1="55.81" y1="104.7" x2="58.83" y2="104.7" xlink:href="#g"/><linearGradient id="x" x1="57.9" y1="103.64" x2="61.68" y2="103.64" xlink:href="#g"/><linearGradient id="y" x1="47.53" y1="92.49" x2="49.02" y2="92.49" xlink:href="#c"/><linearGradient id="z" x1="50.04" y1="92.49" x2="52.5" y2="92.49" xlink:href="#c"/><linearGradient id="aa" x1="52.9" y1="92.49" x2="55.2" y2="92.49" xlink:href="#c"/><linearGradient id="ab" x1="55.64" y1="92.52" x2="57.95" y2="92.52" xlink:href="#c"/><linearGradient id="ac" x1="58.45" y1="92.49" x2="60.75" y2="92.49" xlink:href="#c"/><linearGradient id="ad" x1="49.94" y1="97.43" x2="52.09" y2="97.43" xlink:href="#c"/><linearGradient id="ae" x1="52.38" y1="97.43" x2="54.97" y2="97.43" xlink:href="#c"/><linearGradient id="af" x1="55.37" y1="97.43" x2="58.15" y2="97.43" xlink:href="#c"/><linearGradient id="ag" x1="47.36" y1="92.58" x2="48.85" y2="92.58" gradientUnits="userSpaceOnUse"><stop offset="0" stop-color="#38190f"/><stop offset="1" stop-color="#4a250b"/></linearGradient><linearGradient id="ah" x1="49.87" y1="92.58" x2="52.32" y2="92.58" xlink:href="#ag"/><linearGradient id="ai" x1="52.73" y1="92.58" x2="55.03" y2="92.58" xlink:href="#ag"/><linearGradient id="aj" x1="55.47" y1="92.61" x2="57.77" y2="92.61" xlink:href="#ag"/><linearGradient id="ak" x1="58.28" y1="92.58" x2="60.58" y2="92.58" xlink:href="#ag"/><linearGradient id="al" x1="49.76" y1="97.52" x2="51.92" y2="97.52" xlink:href="#ag"/><linearGradient id="am" x1="52.2" y1="97.52" x2="54.8" y2="97.52" xlink:href="#ag"/><linearGradient id="an" x1="55.2" y1="97.52" x2="57.98" y2="97.52" xlink:href="#ag"/></defs><title>raised</title><g class="a"><path class="b" d="M72.53,94.05c0,1.91-2,3.47-2.6,5.19s.13,4.24-1,5.72-3.65,1.58-5.15,2.67-2.34,3.49-4.12,4.07-3.83-.87-5.74-.87-4,1.43-5.74.87-2.64-3-4.12-4.07S40.05,106.46,39,105s-.37-3.94-1-5.72-2.6-3.28-2.6-5.19,2-3.47,2.6-5.19-.13-4.23,1-5.72,3.65-1.57,5.15-2.66,2.34-3.5,4.12-4.08,3.83.87,5.74.87,4-1.43,5.74-.87,2.64,3,4.12,4.08,4.06,1.17,5.15,2.66.37,3.94,1,5.73S72.53,92.15,72.53,94.05Z" transform="translate(-35.41 -76.27)"/><path class="c" d="M69.85,91.83a9.66,9.66,0,0,1-1.4-2.48,10.34,10.34,0,0,1-.35-2.93,4.8,4.8,0,0,0-.38-2.36A4.72,4.72,0,0,0,65.57,83a9.76,9.76,0,0,1-2.65-1.23,9.64,9.64,0,0,1-2-2.13c-.59-.79-1.15-1.53-1.72-1.72a1.15,1.15,0,0,0-.39,0,7.57,7.57,0,0,0-1.94.42,10.16,10.16,0,0,1-2.93.58A10.16,10.16,0,0,1,51,78.25a7.57,7.57,0,0,0-1.94-.42,1.19,1.19,0,0,0-.39,0c-.57.19-1.13.93-1.72,1.73a9.82,9.82,0,0,1-2,2.12A9.76,9.76,0,0,1,42.37,83a4.81,4.81,0,0,0-2.16,1.1,5,5,0,0,0-.37,2.37,10.31,10.31,0,0,1-.35,2.92,10.08,10.08,0,0,1-1.4,2.49A4.86,4.86,0,0,0,37,94.05a4.88,4.88,0,0,0,1.12,2.22,9.73,9.73,0,0,1,1.4,2.49,10.23,10.23,0,0,1,.35,2.92,4.91,4.91,0,0,0,.37,2.36,4.81,4.81,0,0,0,2.16,1.1A10.06,10.06,0,0,1,45,106.37a9.64,9.64,0,0,1,2,2.13c.59.79,1.15,1.54,1.72,1.72a1.18,1.18,0,0,0,.39.06,7.64,7.64,0,0,0,1.94-.43,10.16,10.16,0,0,1,2.93-.58,10.3,10.3,0,0,1,2.94.58,7.49,7.49,0,0,0,1.93.43,1.08,1.08,0,0,0,.38-.06c.58-.18,1.14-.93,1.74-1.73a9.52,9.52,0,0,1,2-2.12,10.06,10.06,0,0,1,2.65-1.23,4.72,4.72,0,0,0,2.15-1.1,4.76,4.76,0,0,0,.38-2.36,10.23,10.23,0,0,1,.35-2.92,9.73,9.73,0,0,1,1.4-2.49A4.88,4.88,0,0,0,71,94.05,4.93,4.93,0,0,0,69.85,91.83Zm-.38,4.38a9.48,9.48,0,0,0-1.36,2.44,9.76,9.76,0,0,0-.35,2.85,4.64,4.64,0,0,1-.36,2.31,4.76,4.76,0,0,1-2.1,1.07,9.67,9.67,0,0,0-2.6,1.2,9.77,9.77,0,0,0-1.91,2.07c-.58.78-1.13,1.51-1.69,1.69a1.4,1.4,0,0,1-.38,0,7.11,7.11,0,0,1-1.88-.42,10.15,10.15,0,0,0-2.87-.56,10,10,0,0,0-2.86.56,7.17,7.17,0,0,1-1.89.42,1.4,1.4,0,0,1-.38,0c-.56-.18-1.11-.91-1.69-1.69a9.77,9.77,0,0,0-1.91-2.07,9.75,9.75,0,0,0-2.59-1.2,4.75,4.75,0,0,1-2.11-1.07,4.64,4.64,0,0,1-.36-2.31,9.87,9.87,0,0,0-.35-2.86,9.35,9.35,0,0,0-1.36-2.42,4.78,4.78,0,0,1-1.1-2.17,4.82,4.82,0,0,1,1.09-2.16,9.31,9.31,0,0,0,1.37-2.43,9.8,9.8,0,0,0,.35-2.85,4.59,4.59,0,0,1,.36-2.31,4.76,4.76,0,0,1,2.1-1.08A9.94,9.94,0,0,0,45.24,82,9.58,9.58,0,0,0,47.15,80c.58-.77,1.13-1.5,1.69-1.69a1.4,1.4,0,0,1,.38-.05,7.17,7.17,0,0,1,1.89.42,10,10,0,0,0,2.86.56,10.09,10.09,0,0,0,2.86-.56,7.26,7.26,0,0,1,1.89-.42,1.4,1.4,0,0,1,.38.05c.56.19,1.11.92,1.69,1.69A9.58,9.58,0,0,0,62.7,82a9.94,9.94,0,0,0,2.6,1.19,4.76,4.76,0,0,1,2.1,1.08,4.57,4.57,0,0,1,.36,2.3,9.83,9.83,0,0,0,.35,2.86,9.41,9.41,0,0,0,1.36,2.43,4.76,4.76,0,0,1,1.1,2.16A4.71,4.71,0,0,1,69.47,96.21Z" transform="translate(-35.41 -76.27)"/><path class="d" d="M69.85,91.83a9.66,9.66,0,0,1-1.4-2.48,10.34,10.34,0,0,1-.35-2.93,4.8,4.8,0,0,0-.38-2.36A4.72,4.72,0,0,0,65.57,83a9.76,9.76,0,0,1-2.65-1.23,9.64,9.64,0,0,1-2-2.13c-.59-.79-1.15-1.53-1.72-1.72a1.15,1.15,0,0,0-.39,0,7.57,7.57,0,0,0-1.94.42,10.16,10.16,0,0,1-2.93.58A10.16,10.16,0,0,1,51,78.25a7.57,7.57,0,0,0-1.94-.42,1.19,1.19,0,0,0-.39,0c-.57.19-1.13.93-1.72,1.73a9.82,9.82,0,0,1-2,2.12A9.76,9.76,0,0,1,42.37,83a4.81,4.81,0,0,0-2.16,1.1,5,5,0,0,0-.37,2.37,10.31,10.31,0,0,1-.35,2.92,10.08,10.08,0,0,1-1.4,2.49A4.86,4.86,0,0,0,37,94.05a4.88,4.88,0,0,0,1.12,2.22,9.73,9.73,0,0,1,1.4,2.49,10.23,10.23,0,0,1,.35,2.92,4.91,4.91,0,0,0,.37,2.36,4.81,4.81,0,0,0,2.16,1.1A10.06,10.06,0,0,1,45,106.37a9.64,9.64,0,0,1,2,2.13c.59.79,1.15,1.54,1.72,1.72a1.18,1.18,0,0,0,.39.06,7.64,7.64,0,0,0,1.94-.43,10.16,10.16,0,0,1,2.93-.58,10.3,10.3,0,0,1,2.94.58,7.49,7.49,0,0,0,1.93.43,1.08,1.08,0,0,0,.38-.06c.58-.18,1.14-.93,1.74-1.73a9.52,9.52,0,0,1,2-2.12,10.06,10.06,0,0,1,2.65-1.23,4.72,4.72,0,0,0,2.15-1.1,4.76,4.76,0,0,0,.38-2.36,10.23,10.23,0,0,1,.35-2.92,9.73,9.73,0,0,1,1.4-2.49A4.88,4.88,0,0,0,71,94.05,4.93,4.93,0,0,0,69.85,91.83Zm-.38,4.38a9.48,9.48,0,0,0-1.36,2.44,9.76,9.76,0,0,0-.35,2.85,4.64,4.64,0,0,1-.36,2.31,4.76,4.76,0,0,1-2.1,1.07,9.67,9.67,0,0,0-2.6,1.2,9.77,9.77,0,0,0-1.91,2.07c-.58.78-1.13,1.51-1.69,1.69a1.4,1.4,0,0,1-.38,0,7.11,7.11,0,0,1-1.88-.42,10.15,10.15,0,0,0-2.87-.56,10,10,0,0,0-2.86.56,7.17,7.17,0,0,1-1.89.42,1.4,1.4,0,0,1-.38,0c-.56-.18-1.11-.91-1.69-1.69a9.77,9.77,0,0,0-1.91-2.07,9.75,9.75,0,0,0-2.59-1.2,4.75,4.75,0,0,1-2.11-1.07,4.64,4.64,0,0,1-.36-2.31,9.87,9.87,0,0,0-.35-2.86,9.35,9.35,0,0,0-1.36-2.42,4.78,4.78,0,0,1-1.1-2.17,4.82,4.82,0,0,1,1.09-2.16,9.31,9.31,0,0,0,1.37-2.43,9.8,9.8,0,0,0,.35-2.85,4.59,4.59,0,0,1,.36-2.31,4.76,4.76,0,0,1,2.1-1.08A9.94,9.94,0,0,0,45.24,82,9.58,9.58,0,0,0,47.15,80c.58-.77,1.13-1.5,1.69-1.69a1.4,1.4,0,0,1,.38-.05,7.17,7.17,0,0,1,1.89.42,10,10,0,0,0,2.86.56,10.09,10.09,0,0,0,2.86-.56,7.26,7.26,0,0,1,1.89-.42,1.4,1.4,0,0,1,.38.05c.56.19,1.11.92,1.69,1.69A9.58,9.58,0,0,0,62.7,82a9.94,9.94,0,0,0,2.6,1.19,4.76,4.76,0,0,1,2.1,1.08,4.57,4.57,0,0,1,.36,2.3,9.83,9.83,0,0,0,.35,2.86,9.41,9.41,0,0,0,1.36,2.43,4.76,4.76,0,0,1,1.1,2.16A4.71,4.71,0,0,1,69.47,96.21Z" transform="translate(-35.41 -76.27)"/><path class="e" d="M69.47,91.89a9.41,9.41,0,0,1-1.36-2.43,9.83,9.83,0,0,1-.35-2.86,4.57,4.57,0,0,0-.36-2.3,4.76,4.76,0,0,0-2.1-1.08A9.94,9.94,0,0,1,62.7,82,9.58,9.58,0,0,1,60.79,80c-.58-.77-1.13-1.5-1.69-1.69a1.4,1.4,0,0,0-.38-.05,7.26,7.26,0,0,0-1.89.42,10.09,10.09,0,0,1-2.86.56,10,10,0,0,1-2.86-.56,7.17,7.17,0,0,0-1.89-.42,1.4,1.4,0,0,0-.38.05c-.56.19-1.11.92-1.69,1.69A9.58,9.58,0,0,1,45.24,82a9.94,9.94,0,0,1-2.6,1.19,4.76,4.76,0,0,0-2.1,1.08,4.59,4.59,0,0,0-.36,2.31,9.8,9.8,0,0,1-.35,2.85,9.31,9.31,0,0,1-1.37,2.43,4.82,4.82,0,0,0-1.09,2.16,4.78,4.78,0,0,0,1.1,2.17,9.35,9.35,0,0,1,1.36,2.42,9.87,9.87,0,0,1,.35,2.86,4.64,4.64,0,0,0,.36,2.31,4.75,4.75,0,0,0,2.11,1.07,9.75,9.75,0,0,1,2.59,1.2,9.77,9.77,0,0,1,1.91,2.07c.58.78,1.13,1.51,1.69,1.69a1.4,1.4,0,0,0,.38,0,7.17,7.17,0,0,0,1.89-.42,10,10,0,0,1,2.86-.56,10.15,10.15,0,0,1,2.87.56,7.11,7.11,0,0,0,1.88.42,1.4,1.4,0,0,0,.38,0c.56-.18,1.11-.91,1.69-1.69a9.77,9.77,0,0,1,1.91-2.07,9.67,9.67,0,0,1,2.6-1.2,4.76,4.76,0,0,0,2.1-1.07,4.64,4.64,0,0,0,.36-2.31,9.76,9.76,0,0,1,.35-2.85,9.48,9.48,0,0,1,1.36-2.44,4.71,4.71,0,0,0,1.1-2.16A4.76,4.76,0,0,0,69.47,91.89Z" transform="translate(-35.41 -76.27)"/><path class="f" d="M70.76,91.2A8.82,8.82,0,0,1,69.51,89a9.31,9.31,0,0,1-.3-2.6,5.27,5.27,0,0,0-.59-3,5.29,5.29,0,0,0-2.69-1.5,9.21,9.21,0,0,1-2.36-1.07,9,9,0,0,1-1.73-1.9,5.35,5.35,0,0,0-2.27-2.12,2.43,2.43,0,0,0-.73-.11,8.34,8.34,0,0,0-2.26.48,9.25,9.25,0,0,1-2.61.53,9.18,9.18,0,0,1-2.61-.53,8.34,8.34,0,0,0-2.26-.48,2.43,2.43,0,0,0-.73.11,5.35,5.35,0,0,0-2.27,2.12,9,9,0,0,1-1.73,1.9A9.21,9.21,0,0,1,42,81.91a5.29,5.29,0,0,0-2.69,1.5,5.25,5.25,0,0,0-.59,3,9.31,9.31,0,0,1-.3,2.6,8.82,8.82,0,0,1-1.25,2.2,5.45,5.45,0,0,0-1.32,2.85,5.48,5.48,0,0,0,1.32,2.86,8.76,8.76,0,0,1,1.25,2.19,9.31,9.31,0,0,1,.3,2.6,5.29,5.29,0,0,0,.59,3A5.35,5.35,0,0,0,42,106.19a8.91,8.91,0,0,1,2.36,1.08,8.71,8.71,0,0,1,1.73,1.89,5.35,5.35,0,0,0,2.27,2.12,2.43,2.43,0,0,0,.73.11,8,8,0,0,0,2.26-.48,9.18,9.18,0,0,1,2.61-.53,9.18,9.18,0,0,1,2.61.53,8,8,0,0,0,2.26.48,2.43,2.43,0,0,0,.73-.11,5.43,5.43,0,0,0,2.28-2.12,8.67,8.67,0,0,1,1.72-1.89,8.91,8.91,0,0,1,2.36-1.08,5.28,5.28,0,0,0,2.69-1.49,5.29,5.29,0,0,0,.59-3,9.31,9.31,0,0,1,.3-2.6,8.76,8.76,0,0,1,1.25-2.19,5.48,5.48,0,0,0,1.32-2.86A5.45,5.45,0,0,0,70.76,91.2Zm-.91,5.07a9.73,9.73,0,0,0-1.4,2.49,10.23,10.23,0,0,0-.35,2.92,4.76,4.76,0,0,1-.38,2.36,4.72,4.72,0,0,1-2.15,1.1,10.06,10.06,0,0,0-2.65,1.23,9.52,9.52,0,0,0-2,2.12c-.6.8-1.16,1.55-1.74,1.73a1.08,1.08,0,0,1-.38.06,7.49,7.49,0,0,1-1.93-.43,10.3,10.3,0,0,0-2.94-.58,10.16,10.16,0,0,0-2.93.58,7.64,7.64,0,0,1-1.94.43,1.18,1.18,0,0,1-.39-.06c-.57-.18-1.13-.93-1.72-1.72a9.64,9.64,0,0,0-2-2.13,10.06,10.06,0,0,0-2.65-1.23,4.81,4.81,0,0,1-2.16-1.1,4.91,4.91,0,0,1-.37-2.36,10.23,10.23,0,0,0-.35-2.92,9.73,9.73,0,0,0-1.4-2.49A4.88,4.88,0,0,1,37,94.05a4.86,4.86,0,0,1,1.12-2.21,10.08,10.08,0,0,0,1.4-2.49,10.31,10.31,0,0,0,.35-2.92,5,5,0,0,1,.37-2.37A4.81,4.81,0,0,1,42.37,83,9.76,9.76,0,0,0,45,81.73a9.82,9.82,0,0,0,2-2.12c.59-.8,1.15-1.54,1.72-1.73a1.19,1.19,0,0,1,.39,0,7.57,7.57,0,0,1,1.94.42,10.16,10.16,0,0,0,2.93.58,10.16,10.16,0,0,0,2.93-.58,7.57,7.57,0,0,1,1.94-.42,1.15,1.15,0,0,1,.39,0c.57.19,1.13.93,1.72,1.72a9.64,9.64,0,0,0,2,2.13A9.76,9.76,0,0,0,65.57,83a4.72,4.72,0,0,1,2.15,1.1,4.8,4.8,0,0,1,.38,2.36,10.34,10.34,0,0,0,.35,2.93,9.66,9.66,0,0,0,1.4,2.48A4.93,4.93,0,0,1,71,94.05,4.88,4.88,0,0,1,69.85,96.27Z" transform="translate(-35.41 -76.27)"/><path class="g" d="M56.21,109.53c0,.51-1,.93-2.24.93s-2.24-.41-2.24-.93,1-.92,2.24-.93S56.21,109,56.21,109.53Z" transform="translate(-35.41 -76.27)"/><path class="h" d="M69.9,91.92a9.44,9.44,0,0,1-1.4-2.49,9.57,9.57,0,0,1-.35-2.92,4.8,4.8,0,0,0-.38-2.36,4.83,4.83,0,0,0-2.15-1.1A10,10,0,0,1,63,81.82a9.59,9.59,0,0,1-2-2.13c-.59-.79-1.16-1.54-1.73-1.72a1.14,1.14,0,0,0-.39-.06,7.49,7.49,0,0,0-1.93.43,10.23,10.23,0,0,1-2.94.58,10.23,10.23,0,0,1-2.93-.58,7.49,7.49,0,0,0-1.93-.43,1.14,1.14,0,0,0-.39.06c-.58.18-1.14.93-1.73,1.72a9.59,9.59,0,0,1-2,2.13,10.12,10.12,0,0,1-2.66,1.23,4.77,4.77,0,0,0-2.15,1.1,4.8,4.8,0,0,0-.38,2.37,9.54,9.54,0,0,1-.35,2.91,9.44,9.44,0,0,1-1.4,2.49A4.88,4.88,0,0,0,37,94.14a4.88,4.88,0,0,0,1.12,2.22,9.44,9.44,0,0,1,1.4,2.49,9.57,9.57,0,0,1,.35,2.92,4.78,4.78,0,0,0,.38,2.36,4.83,4.83,0,0,0,2.15,1.1,10.12,10.12,0,0,1,2.66,1.23,9.59,9.59,0,0,1,2,2.13c.59.79,1.15,1.54,1.73,1.72a1.14,1.14,0,0,0,.39.06,7.49,7.49,0,0,0,1.93-.43,10.23,10.23,0,0,1,2.93-.58,10.23,10.23,0,0,1,2.94.58,7.49,7.49,0,0,0,1.93.43,1.14,1.14,0,0,0,.39-.06c.57-.18,1.14-.93,1.73-1.73a9.77,9.77,0,0,1,2-2.12,10,10,0,0,1,2.66-1.23,4.77,4.77,0,0,0,2.15-1.1,4.78,4.78,0,0,0,.38-2.36,9.57,9.57,0,0,1,.35-2.92,9.44,9.44,0,0,1,1.4-2.49A4.85,4.85,0,0,0,71,94.14,4.85,4.85,0,0,0,69.9,91.92Zm-.38,4.38a9.92,9.92,0,0,0-1.37,2.43,9.85,9.85,0,0,0-.34,2.86,4.67,4.67,0,0,1-.37,2.3,4.6,4.6,0,0,1-2.1,1.08,9.88,9.88,0,0,0-2.59,1.19,9.11,9.11,0,0,0-1.91,2.08c-.59.77-1.13,1.51-1.7,1.69a1.35,1.35,0,0,1-.38,0,7.11,7.11,0,0,1-1.88-.42A10.09,10.09,0,0,0,54,109a10.09,10.09,0,0,0-2.86.56,7.09,7.09,0,0,1-1.89.42,1.46,1.46,0,0,1-.38,0c-.56-.18-1.1-.91-1.68-1.69a9.87,9.87,0,0,0-1.92-2.08A9.88,9.88,0,0,0,42.69,105a4.6,4.6,0,0,1-2.1-1.08,4.67,4.67,0,0,1-.37-2.3,10.21,10.21,0,0,0-.34-2.86,9.92,9.92,0,0,0-1.37-2.43,4.68,4.68,0,0,1-1.09-2.16A4.72,4.72,0,0,1,38.51,92a9.92,9.92,0,0,0,1.37-2.43,10.18,10.18,0,0,0,.34-2.85,4.69,4.69,0,0,1,.37-2.31,4.6,4.6,0,0,1,2.1-1.08,9.88,9.88,0,0,0,2.59-1.19A9.85,9.85,0,0,0,47.2,80c.58-.78,1.12-1.51,1.68-1.69a1.46,1.46,0,0,1,.38,0,7.09,7.09,0,0,1,1.89.42,10.09,10.09,0,0,0,2.86.56,10.09,10.09,0,0,0,2.87-.56,7.11,7.11,0,0,1,1.88-.42,1.35,1.35,0,0,1,.38,0c.57.18,1.11.91,1.69,1.69a9.85,9.85,0,0,0,1.92,2.08,9.88,9.88,0,0,0,2.59,1.19,4.6,4.6,0,0,1,2.1,1.08,4.67,4.67,0,0,1,.37,2.3,10.21,10.21,0,0,0,.34,2.86A9.92,9.92,0,0,0,69.52,92a4.72,4.72,0,0,1,1.09,2.16A4.72,4.72,0,0,1,69.52,96.3Z" transform="translate(-35.41 -76.27)"/><path class="h" d="M69.9,91.92a9.44,9.44,0,0,1-1.4-2.49,9.57,9.57,0,0,1-.35-2.92,4.8,4.8,0,0,0-.38-2.36,4.83,4.83,0,0,0-2.15-1.1A10,10,0,0,1,63,81.82a9.59,9.59,0,0,1-2-2.13c-.59-.79-1.16-1.54-1.73-1.72a1.14,1.14,0,0,0-.39-.06,7.49,7.49,0,0,0-1.93.43,10.23,10.23,0,0,1-2.94.58,10.23,10.23,0,0,1-2.93-.58,7.49,7.49,0,0,0-1.93-.43,1.14,1.14,0,0,0-.39.06c-.58.18-1.14.93-1.73,1.72a9.59,9.59,0,0,1-2,2.13,10.12,10.12,0,0,1-2.66,1.23,4.77,4.77,0,0,0-2.15,1.1,4.8,4.8,0,0,0-.38,2.37,9.54,9.54,0,0,1-.35,2.91,9.44,9.44,0,0,1-1.4,2.49A4.88,4.88,0,0,0,37,94.14a4.88,4.88,0,0,0,1.12,2.22,9.44,9.44,0,0,1,1.4,2.49,9.57,9.57,0,0,1,.35,2.92,4.78,4.78,0,0,0,.38,2.36,4.83,4.83,0,0,0,2.15,1.1,10.12,10.12,0,0,1,2.66,1.23,9.59,9.59,0,0,1,2,2.13c.59.79,1.15,1.54,1.73,1.72a1.14,1.14,0,0,0,.39.06,7.49,7.49,0,0,0,1.93-.43,10.23,10.23,0,0,1,2.93-.58,10.23,10.23,0,0,1,2.94.58,7.49,7.49,0,0,0,1.93.43,1.14,1.14,0,0,0,.39-.06c.57-.18,1.14-.93,1.73-1.73a9.77,9.77,0,0,1,2-2.12,10,10,0,0,1,2.66-1.23,4.77,4.77,0,0,0,2.15-1.1,4.78,4.78,0,0,0,.38-2.36,9.57,9.57,0,0,1,.35-2.92,9.44,9.44,0,0,1,1.4-2.49A4.85,4.85,0,0,0,71,94.14,4.85,4.85,0,0,0,69.9,91.92Zm-.38,4.38a9.92,9.92,0,0,0-1.37,2.43,9.85,9.85,0,0,0-.34,2.86,4.67,4.67,0,0,1-.37,2.3,4.6,4.6,0,0,1-2.1,1.08,9.88,9.88,0,0,0-2.59,1.19,9.11,9.11,0,0,0-1.91,2.08c-.59.77-1.13,1.51-1.7,1.69a1.35,1.35,0,0,1-.38,0,7.11,7.11,0,0,1-1.88-.42A10.09,10.09,0,0,0,54,109a10.09,10.09,0,0,0-2.86.56,7.09,7.09,0,0,1-1.89.42,1.46,1.46,0,0,1-.38,0c-.56-.18-1.1-.91-1.68-1.69a9.87,9.87,0,0,0-1.92-2.08A9.88,9.88,0,0,0,42.69,105a4.6,4.6,0,0,1-2.1-1.08,4.67,4.67,0,0,1-.37-2.3,10.21,10.21,0,0,0-.34-2.86,9.92,9.92,0,0,0-1.37-2.43,4.68,4.68,0,0,1-1.09-2.16A4.72,4.72,0,0,1,38.51,92a9.92,9.92,0,0,0,1.37-2.43,10.18,10.18,0,0,0,.34-2.85,4.69,4.69,0,0,1,.37-2.31,4.6,4.6,0,0,1,2.1-1.08,9.88,9.88,0,0,0,2.59-1.19A9.85,9.85,0,0,0,47.2,80c.58-.78,1.12-1.51,1.68-1.69a1.46,1.46,0,0,1,.38,0,7.09,7.09,0,0,1,1.89.42,10.09,10.09,0,0,0,2.86.56,10.09,10.09,0,0,0,2.87-.56,7.11,7.11,0,0,1,1.88-.42,1.35,1.35,0,0,1,.38,0c.57.18,1.11.91,1.69,1.69a9.85,9.85,0,0,0,1.92,2.08,9.88,9.88,0,0,0,2.59,1.19,4.6,4.6,0,0,1,2.1,1.08,4.67,4.67,0,0,1,.37,2.3,10.21,10.21,0,0,0,.34,2.86A9.92,9.92,0,0,0,69.52,92a4.72,4.72,0,0,1,1.09,2.16A4.72,4.72,0,0,1,69.52,96.3Z" transform="translate(-35.41 -76.27)"/><path class="c" d="M69.85,91.83a9.66,9.66,0,0,1-1.4-2.48,10.34,10.34,0,0,1-.35-2.93,4.8,4.8,0,0,0-.38-2.36A4.72,4.72,0,0,0,65.57,83a9.76,9.76,0,0,1-2.65-1.23,9.64,9.64,0,0,1-2-2.13c-.59-.79-1.15-1.53-1.72-1.72a1.15,1.15,0,0,0-.39,0,7.57,7.57,0,0,0-1.94.42,10.16,10.16,0,0,1-2.93.58A10.16,10.16,0,0,1,51,78.25a7.57,7.57,0,0,0-1.94-.42,1.19,1.19,0,0,0-.39,0c-.57.19-1.13.93-1.72,1.73a9.82,9.82,0,0,1-2,2.12A9.76,9.76,0,0,1,42.37,83a4.81,4.81,0,0,0-2.16,1.1,5,5,0,0,0-.37,2.37,10.31,10.31,0,0,1-.35,2.92,10.08,10.08,0,0,1-1.4,2.49A4.86,4.86,0,0,0,37,94.05a4.88,4.88,0,0,0,1.12,2.22,9.73,9.73,0,0,1,1.4,2.49,10.23,10.23,0,0,1,.35,2.92,4.91,4.91,0,0,0,.37,2.36,4.81,4.81,0,0,0,2.16,1.1A10.06,10.06,0,0,1,45,106.37a9.64,9.64,0,0,1,2,2.13c.59.79,1.15,1.54,1.72,1.72a1.18,1.18,0,0,0,.39.06,7.64,7.64,0,0,0,1.94-.43,10.16,10.16,0,0,1,2.93-.58,10.3,10.3,0,0,1,2.94.58,7.49,7.49,0,0,0,1.93.43,1.08,1.08,0,0,0,.38-.06c.58-.18,1.14-.93,1.74-1.73a9.52,9.52,0,0,1,2-2.12,10.06,10.06,0,0,1,2.65-1.23,4.72,4.72,0,0,0,2.15-1.1,4.76,4.76,0,0,0,.38-2.36,10.23,10.23,0,0,1,.35-2.92,9.73,9.73,0,0,1,1.4-2.49A4.88,4.88,0,0,0,71,94.05,4.93,4.93,0,0,0,69.85,91.83Zm-.38,4.38a9.48,9.48,0,0,0-1.36,2.44,9.76,9.76,0,0,0-.35,2.85,4.64,4.64,0,0,1-.36,2.31,4.76,4.76,0,0,1-2.1,1.07,9.67,9.67,0,0,0-2.6,1.2,9.77,9.77,0,0,0-1.91,2.07c-.58.78-1.13,1.51-1.69,1.69a1.4,1.4,0,0,1-.38,0,7.11,7.11,0,0,1-1.88-.42,10.15,10.15,0,0,0-2.87-.56,10,10,0,0,0-2.86.56,7.17,7.17,0,0,1-1.89.42,1.4,1.4,0,0,1-.38,0c-.56-.18-1.11-.91-1.69-1.69a9.77,9.77,0,0,0-1.91-2.07,9.75,9.75,0,0,0-2.59-1.2,4.75,4.75,0,0,1-2.11-1.07,4.64,4.64,0,0,1-.36-2.31,9.87,9.87,0,0,0-.35-2.86,9.35,9.35,0,0,0-1.36-2.42,4.78,4.78,0,0,1-1.1-2.17,4.82,4.82,0,0,1,1.09-2.16,9.31,9.31,0,0,0,1.37-2.43,9.8,9.8,0,0,0,.35-2.85,4.59,4.59,0,0,1,.36-2.31,4.76,4.76,0,0,1,2.1-1.08A9.94,9.94,0,0,0,45.24,82,9.58,9.58,0,0,0,47.15,80c.58-.77,1.13-1.5,1.69-1.69a1.4,1.4,0,0,1,.38-.05,7.17,7.17,0,0,1,1.89.42,10,10,0,0,0,2.86.56,10.09,10.09,0,0,0,2.86-.56,7.26,7.26,0,0,1,1.89-.42,1.4,1.4,0,0,1,.38.05c.56.19,1.11.92,1.69,1.69A9.58,9.58,0,0,0,62.7,82a9.94,9.94,0,0,0,2.6,1.19,4.76,4.76,0,0,1,2.1,1.08,4.57,4.57,0,0,1,.36,2.3,9.83,9.83,0,0,0,.35,2.86,9.41,9.41,0,0,0,1.36,2.43,4.76,4.76,0,0,1,1.1,2.16A4.71,4.71,0,0,1,69.47,96.21Z" transform="translate(-35.41 -76.27)"/><path class="d" d="M69.85,91.83a9.66,9.66,0,0,1-1.4-2.48,10.34,10.34,0,0,1-.35-2.93,4.8,4.8,0,0,0-.38-2.36A4.72,4.72,0,0,0,65.57,83a9.76,9.76,0,0,1-2.65-1.23,9.64,9.64,0,0,1-2-2.13c-.59-.79-1.15-1.53-1.72-1.72a1.15,1.15,0,0,0-.39,0,7.57,7.57,0,0,0-1.94.42,10.16,10.16,0,0,1-2.93.58A10.16,10.16,0,0,1,51,78.25a7.57,7.57,0,0,0-1.94-.42,1.19,1.19,0,0,0-.39,0c-.57.19-1.13.93-1.72,1.73a9.82,9.82,0,0,1-2,2.12A9.76,9.76,0,0,1,42.37,83a4.81,4.81,0,0,0-2.16,1.1,5,5,0,0,0-.37,2.37,10.31,10.31,0,0,1-.35,2.92,10.08,10.08,0,0,1-1.4,2.49A4.86,4.86,0,0,0,37,94.05a4.88,4.88,0,0,0,1.12,2.22,9.73,9.73,0,0,1,1.4,2.49,10.23,10.23,0,0,1,.35,2.92,4.91,4.91,0,0,0,.37,2.36,4.81,4.81,0,0,0,2.16,1.1A10.06,10.06,0,0,1,45,106.37a9.64,9.64,0,0,1,2,2.13c.59.79,1.15,1.54,1.72,1.72a1.18,1.18,0,0,0,.39.06,7.64,7.64,0,0,0,1.94-.43,10.16,10.16,0,0,1,2.93-.58,10.3,10.3,0,0,1,2.94.58,7.49,7.49,0,0,0,1.93.43,1.08,1.08,0,0,0,.38-.06c.58-.18,1.14-.93,1.74-1.73a9.52,9.52,0,0,1,2-2.12,10.06,10.06,0,0,1,2.65-1.23,4.72,4.72,0,0,0,2.15-1.1,4.76,4.76,0,0,0,.38-2.36,10.23,10.23,0,0,1,.35-2.92,9.73,9.73,0,0,1,1.4-2.49A4.88,4.88,0,0,0,71,94.05,4.93,4.93,0,0,0,69.85,91.83Zm-.38,4.38a9.48,9.48,0,0,0-1.36,2.44,9.76,9.76,0,0,0-.35,2.85,4.64,4.64,0,0,1-.36,2.31,4.76,4.76,0,0,1-2.1,1.07,9.67,9.67,0,0,0-2.6,1.2,9.77,9.77,0,0,0-1.91,2.07c-.58.78-1.13,1.51-1.69,1.69a1.4,1.4,0,0,1-.38,0,7.11,7.11,0,0,1-1.88-.42,10.15,10.15,0,0,0-2.87-.56,10,10,0,0,0-2.86.56,7.17,7.17,0,0,1-1.89.42,1.4,1.4,0,0,1-.38,0c-.56-.18-1.11-.91-1.69-1.69a9.77,9.77,0,0,0-1.91-2.07,9.75,9.75,0,0,0-2.59-1.2,4.75,4.75,0,0,1-2.11-1.07,4.64,4.64,0,0,1-.36-2.31,9.87,9.87,0,0,0-.35-2.86,9.35,9.35,0,0,0-1.36-2.42,4.78,4.78,0,0,1-1.1-2.17,4.82,4.82,0,0,1,1.09-2.16,9.31,9.31,0,0,0,1.37-2.43,9.8,9.8,0,0,0,.35-2.85,4.59,4.59,0,0,1,.36-2.31,4.76,4.76,0,0,1,2.1-1.08A9.94,9.94,0,0,0,45.24,82,9.58,9.58,0,0,0,47.15,80c.58-.77,1.13-1.5,1.69-1.69a1.4,1.4,0,0,1,.38-.05,7.17,7.17,0,0,1,1.89.42,10,10,0,0,0,2.86.56,10.09,10.09,0,0,0,2.86-.56,7.26,7.26,0,0,1,1.89-.42,1.4,1.4,0,0,1,.38.05c.56.19,1.11.92,1.69,1.69A9.58,9.58,0,0,0,62.7,82a9.94,9.94,0,0,0,2.6,1.19,4.76,4.76,0,0,1,2.1,1.08,4.57,4.57,0,0,1,.36,2.3,9.83,9.83,0,0,0,.35,2.86,9.41,9.41,0,0,0,1.36,2.43,4.76,4.76,0,0,1,1.1,2.16A4.71,4.71,0,0,1,69.47,96.21Z" transform="translate(-35.41 -76.27)"/><path class="i" d="M43.94,93.35a1.71,1.71,0,0,0,.37-.79c.08-.47-.12-.78-.49-.85s-.55.11-.82.56-.67.86-1.17.77a1,1,0,0,1-.77-1.32,1.72,1.72,0,0,1,.3-.76l.36.19a1.46,1.46,0,0,0-.29.65c-.08.49.18.72.43.77s.53-.14.8-.6.68-.82,1.21-.73,1,.58.81,1.42a1.76,1.76,0,0,1-.38.87Z" transform="translate(-35.41 -76.27)"/><path class="j" d="M41.78,89.27l1.94.92c.74.35,1.2.17,1.41-.27s.06-1-.67-1.29l-1.94-.92.21-.43,1.91.91c1,.48,1.16,1.2.83,1.91s-.94,1-2,.51l-1.93-.91Z" transform="translate(-35.41 -76.27)"/><path class="k" d="M47.8,86.65a2.35,2.35,0,0,1-.51.83,1.7,1.7,0,0,1-2.56.09,1.79,1.79,0,0,1-.14-2.68,2,2,0,0,1,.69-.53l.21.34a1.74,1.74,0,0,0-.6.45,1.34,1.34,0,0,0,.16,2,1.31,1.31,0,0,0,2-.06,1.88,1.88,0,0,0,.4-.66Z" transform="translate(-35.41 -76.27)"/><path class="l" d="M50,85.29a2.37,2.37,0,0,1-.72.66,1.69,1.69,0,0,1-2.49-.59,1.8,1.8,0,0,1,.58-2.62,1.9,1.9,0,0,1,.81-.32l.11.38a1.72,1.72,0,0,0-.7.27,1.33,1.33,0,0,0-.39,2,1.31,1.31,0,0,0,1.95.49,1.86,1.86,0,0,0,.57-.54Z" transform="translate(-35.41 -76.27)"/><path class="m" d="M51.46,83.22l-1.35.42.4,1.25,1.5-.48.11.38-1.94.61L49.09,82,51,81.36l.12.38-1.42.45L50,83.28l1.34-.43Z" transform="translate(-35.41 -76.27)"/><path class="n" d="M52.21,84.21a1.64,1.64,0,0,0,.86.18c.47,0,.73-.3.71-.67s-.23-.52-.73-.67-1-.45-1-1,.4-1,1.1-1.06a1.58,1.58,0,0,1,.81.12l-.1.39a1.32,1.32,0,0,0-.7-.12c-.49,0-.66.34-.64.58s.25.49.77.65,1,.47,1,1-.34,1.07-1.19,1.13a1.86,1.86,0,0,1-.94-.17Z" transform="translate(-35.41 -76.27)"/><path class="o" d="M54.59,84.1a1.76,1.76,0,0,0,.79.37c.47.08.79-.12.85-.48s-.1-.56-.55-.83-.86-.67-.77-1.17a1,1,0,0,1,1.31-.78,1.89,1.89,0,0,1,.77.31l-.2.36a1.36,1.36,0,0,0-.65-.29c-.48-.08-.72.18-.76.43s.13.53.6.8.82.68.73,1.21-.58,1-1.42.82a1.89,1.89,0,0,1-.88-.39Z" transform="translate(-35.41 -76.27)"/><path class="p" d="M58.16,81.75l1.79.77-.15.36-1.36-.58L58,83.4l1.26.54-.15.36-1.26-.54-.64,1.51-.43-.19Z" transform="translate(-35.41 -76.27)"/><path class="q" d="M61.33,83.37,60,85.05c-.51.63-.44,1.13-.06,1.43s.91.27,1.41-.35l1.34-1.68.37.3L61.73,86.4a1.33,1.33,0,0,1-2,.37c-.58-.47-.75-1.15,0-2L61,83.08Z" transform="translate(-35.41 -76.27)"/><path class="r" d="M63.91,85.74l.28.38L61.57,88l.91,1.25-.32.23L61,87.87Z" transform="translate(-35.41 -76.27)"/><path class="s" d="M65.52,88.2l.18.43-3,1.26.6,1.43-.36.15-.78-1.85Z" transform="translate(-35.41 -76.27)"/><path class="t" d="M63,92l1.51-.3,1.82-1.53.1.53-.88.69-.66.5h0c.25,0,.51.13.8.21l1.08.32.11.52-2.28-.79-1.51.3Z" transform="translate(-35.41 -76.27)"/><path class="u" d="M47.77,101.28a4.6,4.6,0,0,1,.79.44,1.47,1.47,0,0,1,.7.83.9.9,0,0,1-.15.73,1,1,0,0,1-1.08.38h0a.91.91,0,0,1,0,.91,5.32,5.32,0,0,0-.32,1l-.4-.27a3.8,3.8,0,0,1,.28-.85c.19-.48.14-.74-.21-1L47,103.2l-.88,1.3-.39-.26Zm-.53,1.63.39.26a.71.71,0,0,0,1.06-.11c.27-.39.1-.75-.31-1a1.9,1.9,0,0,0-.4-.22Z" transform="translate(-35.41 -76.27)"/><path class="v" d="M49.61,105.12l-.71,1-.46-.15,2.29-3.06.54.17,0,3.82-.47-.15,0-1.2Zm1.24,0V104c0-.25,0-.47,0-.68h0c-.11.19-.24.38-.37.57l-.66.89Z" transform="translate(-35.41 -76.27)"/><path class="w" d="M53.08,103.39,52.67,107l-.46,0,.41-3.59Z" transform="translate(-35.41 -76.27)"/><path class="x" d="M53.71,106.5a1.62,1.62,0,0,0,.85.19c.48,0,.74-.3.72-.67s-.23-.52-.73-.67-1-.46-1-1a1,1,0,0,1,1.11-1,1.6,1.6,0,0,1,.81.12l-.11.39a1.51,1.51,0,0,0-.69-.13c-.5,0-.67.34-.65.59s.25.49.76.65,1,.47,1,1-.34,1.06-1.2,1.12a1.84,1.84,0,0,1-.93-.18Z" transform="translate(-35.41 -76.27)"/><path class="y" d="M58.17,104.54l-1.35.42.39,1.25,1.5-.47.12.38-1.95.6-1.07-3.46,1.87-.58.11.38-1.42.44.34,1.09,1.35-.42Z" transform="translate(-35.41 -76.27)"/><path class="z" d="M57.9,102.68a8.45,8.45,0,0,1,.79-.61,2.09,2.09,0,0,1,1.48-.43,1.69,1.69,0,0,1,1.14.81,1.92,1.92,0,0,1,.34,1.46,2.24,2.24,0,0,1-1,1.31,6.45,6.45,0,0,1-.74.44Zm2.16,2.42a4.16,4.16,0,0,0,.41-.24,1.39,1.39,0,0,0,.44-2.13,1.3,1.3,0,0,0-2-.36,2.66,2.66,0,0,0-.43.34Z" transform="translate(-35.41 -76.27)"/><path class="aa" d="M48.29,91.54h0l-.62.29-.13-.57.86-.4H49v3.25h-.73Z" transform="translate(-35.41 -76.27)"/><path class="ab" d="M52.5,92.47c0,1-.41,1.7-1.24,1.7s-1.21-.76-1.22-1.68.4-1.68,1.24-1.68S52.5,91.58,52.5,92.47Zm-1.69,0c0,.75.17,1.1.47,1.1s.45-.37.45-1.11-.15-1.1-.46-1.1S50.8,91.74,50.81,92.49Z" transform="translate(-35.41 -76.27)"/><path class="ac" d="M55.2,90.86v.48l-1.34,2.77h-.81l1.34-2.61H52.9v-.63Z" transform="translate(-35.41 -76.27)"/><path class="ad" d="M57.81,91.49H56.55l-.07.5h.21a1.54,1.54,0,0,1,.86.23A1,1,0,0,1,58,93a1.25,1.25,0,0,1-1.4,1.14,2,2,0,0,1-.91-.19l.14-.57a1.84,1.84,0,0,0,.73.16c.32,0,.65-.15.65-.49s-.26-.54-.91-.54a2.76,2.76,0,0,0-.44,0L56,90.86h1.79Z" transform="translate(-35.41 -76.27)"/><path class="ae" d="M60.75,90.86v.48l-1.34,2.77H58.6l1.34-2.61H58.45v-.63Z" transform="translate(-35.41 -76.27)"/><path class="af" d="M51.94,97.69H50.7v.8h1.39v.62H49.94V95.74H52v.63H50.7v.7h1.24Z" transform="translate(-35.41 -76.27)"/><path class="ag" d="M53.28,96.38h-.9v-.64H55v.64h-.92v2.73h-.77Z" transform="translate(-35.41 -76.27)"/><path class="ah" d="M56.14,95.74V97h1.25v-1.3h.76v3.37h-.76V97.7H56.14v1.41h-.77V95.74Z" transform="translate(-35.41 -76.27)"/><path class="ai" d="M48.12,91.63h0l-.62.29-.13-.57.86-.4h.63v3.26h-.73Z" transform="translate(-35.41 -76.27)"/><path class="aj" d="M52.32,92.56c0,1-.4,1.7-1.23,1.7s-1.21-.76-1.22-1.68.4-1.68,1.24-1.68S52.32,91.67,52.32,92.56Zm-1.68,0c0,.75.17,1.1.47,1.1s.45-.37.45-1.11-.15-1.1-.46-1.1S50.63,91.83,50.64,92.58Z" transform="translate(-35.41 -76.27)"/><path class="ak" d="M55,91v.48l-1.34,2.78h-.81l1.34-2.62H52.73V91Z" transform="translate(-35.41 -76.27)"/><path class="al" d="M57.64,91.58H56.38l-.07.5h.21a1.54,1.54,0,0,1,.86.23,1,1,0,0,1,.39.82,1.24,1.24,0,0,1-1.39,1.14,2.16,2.16,0,0,1-.91-.18l.14-.58a1.84,1.84,0,0,0,.73.16c.32,0,.65-.15.65-.49s-.26-.54-.91-.54a2.76,2.76,0,0,0-.44,0L55.85,91h1.79Z" transform="translate(-35.41 -76.27)"/><path class="am" d="M60.58,91v.48l-1.34,2.78h-.81l1.34-2.62H58.28V91Z" transform="translate(-35.41 -76.27)"/><path class="an" d="M51.77,97.78H50.53v.8h1.39v.63H49.76V95.83h2.09v.63H50.53v.7h1.24Z" transform="translate(-35.41 -76.27)"/><path class="ao" d="M53.11,96.47H52.2v-.64h2.6v.64h-.93v2.74h-.76Z" transform="translate(-35.41 -76.27)"/><path class="ap" d="M56,95.83v1.3h1.26v-1.3H58v3.38h-.76V97.79H56v1.42H55.2V95.83Z" transform="translate(-35.41 -76.27)"/></g></svg>