<svg xmlns="http://www.w3.org/2000/svg" xmlns:xlink="http://www.w3.org/1999/xlink" viewBox="0 0 37.11 35.56"><defs><style>.a{isolation:isolate;}.b{fill:url(#a);}.c{fill:url(#b);}.d{fill:#dba458;}.d,.h{mix-blend-mode:multiply;}.e{fill:url(#c);}.f{fill:url(#d);}.g{mix-blend-mode:screen;fill:url(#e);}.h{fill:#c79858;}.i{fill:url(#g);}.j{fill:url(#h);}.k{fill:url(#i);}.l{fill:url(#j);}.m{fill:url(#k);}.n{fill:url(#l);}.o{fill:url(#m);}.p{fill:url(#n);}.q{fill:url(#o);}.r{fill:url(#p);}.s{fill:url(#q);}.t{fill:url(#r);}.u{fill:url(#s);}.v{fill:url(#t);}.w{fill:url(#u);}.x{fill:url(#v);}.y{fill:url(#w);}.z{fill:url(#x);}.aa{fill:url(#y);}.ab{fill:url(#z);}.ac{fill:url(#aa);}.ad{fill:url(#ab);}.ae{fill:url(#ac);}.af{fill:url(#ad);}.ag{fill:url(#ae);}.ah{fill:url(#af);}.ai{fill:url(#ag);}.aj{fill:url(#ah);}.ak{fill:url(#ai);}.al{fill:url(#aj);}.am{fill:url(#ak);}.an{fill:url(#al);}.ao{fill:url(#am);}.ap{fill:url(#an);}</style><linearGradient id="a" x1="58.07" y1="77.68" x2="35.07" y2="109.12" gradientUnits="userSpaceOnUse"><stop offset="0.03" stop-color="#c8953e"/><stop offset="0.15" stop-color="#dfc760"/><stop offset="0.48" stop-color="#b37219"/><stop offset="0.75" stop-color="#e0c45c"/><stop offset="1" stop-color="#d3b151"/></linearGradient><linearGradient id="b" x1="29.54" y1="93.44" x2="63.54" y2="93.44" xlink:href="#a"/><linearGradient id="c" x1="37.65" y1="78.06" x2="55.42" y2="108.83" gradientUnits="userSpaceOnUse"><stop offset="0" stop-color="#cb9f3d"/><stop offset="0.24" stop-color="#f2e677"/><stop offset="0.28" stop-color="#e8d368"/><stop offset="0.41" stop-color="#cb9f3d"/><stop offset="0.51" stop-color="#ba7e23"/><stop offset="0.56" stop-color="#b37219"/><stop offset="0.62" stop-color="#b77a20"/><stop offset="0.71" stop-color="#c39032"/><stop offset="0.82" stop-color="#d5b450"/><stop offset="0.87" stop-color="#dfc760"/><stop offset="0.97" stop-color="#c8953e"/></linearGradient><linearGradient id="d" x1="31.21" y1="103.02" x2="61.86" y2="83.87" gradientUnits="userSpaceOnUse"><stop offset="0" stop-color="#cb9f3d"/><stop offset="0.24" stop-color="#fdff87"/><stop offset="0.29" stop-color="#ebdc6c"/><stop offset="0.39" stop-color="#cfa843"/><stop offset="0.45" stop-color="#be872a"/><stop offset="0.49" stop-color="#b87b20"/><stop offset="0.69" stop-color="#b37219"/><stop offset="0.75" stop-color="#b6761c"/><stop offset="0.81" stop-color="#be8326"/><stop offset="0.87" stop-color="#cc9836"/><stop offset="0.93" stop-color="#dfb54c"/><stop offset="0.99" stop-color="#f7da68"/><stop offset="1" stop-color="#fadf6c"/></linearGradient><radialGradient id="e" cx="-415.22" cy="1110.6" r="14.54" gradientTransform="matrix(0.15, 0, 0, 0.06, 110.52, 38.03)" gradientUnits="userSpaceOnUse"><stop offset="0" stop-color="#fff"/><stop offset="0.06" stop-color="#e6e6e6"/><stop offset="0.2" stop-color="#aaa"/><stop offset="0.34" stop-color="#767676"/><stop offset="0.48" stop-color="#4c4c4c"/><stop offset="0.62" stop-color="#2b2b2b"/><stop offset="0.75" stop-color="#131313"/><stop offset="0.87" stop-color="#050505"/><stop offset="0.97"/></radialGradient><linearGradient id="g" x1="33.6" y1="91.64" x2="37.28" y2="91.64" gradientUnits="userSpaceOnUse"><stop offset="0" stop-color="#38190f"/><stop offset="1" stop-color="#68390b"/></linearGradient><linearGradient id="h" x1="34.14" y1="88.46" x2="38.19" y2="88.46" xlink:href="#g"/><linearGradient id="i" x1="36.62" y1="85.63" x2="40.37" y2="85.63" xlink:href="#g"/><linearGradient id="j" x1="39.02" y1="83.74" x2="42.56" y2="83.74" xlink:href="#g"/><linearGradient id="k" x1="41.65" y1="82.78" x2="44.69" y2="82.78" xlink:href="#g"/><linearGradient id="l" x1="44.58" y1="82.3" x2="46.82" y2="82.3" xlink:href="#g"/><linearGradient id="m" x1="46.98" y1="82.43" x2="49.55" y2="82.43" xlink:href="#g"/><linearGradient id="n" x1="49.3" y1="82.9" x2="52.52" y2="82.9" xlink:href="#g"/><linearGradient id="o" x1="51.73" y1="84.48" x2="55.62" y2="84.48" xlink:href="#g"/><linearGradient id="p" x1="53.54" y1="87.02" x2="56.75" y2="87.02" xlink:href="#g"/><linearGradient id="q" x1="54.75" y1="89.23" x2="58.27" y2="89.23" xlink:href="#g"/><linearGradient id="r" x1="55.6" y1="90.95" x2="59.47" y2="90.95" xlink:href="#g"/><linearGradient id="s" x1="38.34" y1="102.81" x2="41.85" y2="102.81" xlink:href="#g"/><linearGradient id="t" x1="41.01" y1="104.27" x2="43.89" y2="104.27" xlink:href="#g"/><linearGradient id="u" x1="44.78" y1="104.55" x2="45.65" y2="104.55" xlink:href="#g"/><linearGradient id="v" x1="46.09" y1="104.59" x2="48.32" y2="104.59" xlink:href="#g"/><linearGradient id="w" x1="48.37" y1="104.1" x2="51.39" y2="104.1" xlink:href="#g"/><linearGradient id="x" x1="50.47" y1="103.03" x2="54.25" y2="103.03" xlink:href="#g"/><linearGradient id="y" x1="40.57" y1="92.03" x2="41.66" y2="92.03" xlink:href="#c"/><linearGradient id="z" x1="42.82" y1="92.03" x2="45.04" y2="92.03" xlink:href="#c"/><linearGradient id="aa" x1="45.51" y1="92.03" x2="47.57" y2="92.03" xlink:href="#c"/><linearGradient id="ab" x1="48.02" y1="92.06" x2="50.05" y2="92.06" xlink:href="#c"/><linearGradient id="ac" x1="50.68" y1="92.03" x2="52.75" y2="92.03" xlink:href="#c"/><linearGradient id="ad" x1="42.72" y1="96.97" x2="44.63" y2="96.97" xlink:href="#c"/><linearGradient id="ae" x1="44.89" y1="96.97" x2="47.41" y2="96.97" xlink:href="#c"/><linearGradient id="af" x1="47.79" y1="96.97" x2="50.31" y2="96.97" xlink:href="#c"/><linearGradient id="ag" x1="40.45" y1="91.97" x2="41.54" y2="91.97" xlink:href="#g"/><linearGradient id="ah" x1="42.69" y1="91.97" x2="44.91" y2="91.97" xlink:href="#g"/><linearGradient id="ai" x1="45.38" y1="91.97" x2="47.45" y2="91.97" xlink:href="#g"/><linearGradient id="aj" x1="47.9" y1="92" x2="49.93" y2="92" xlink:href="#g"/><linearGradient id="ak" x1="50.56" y1="91.97" x2="52.62" y2="91.97" xlink:href="#g"/><linearGradient id="al" x1="42.6" y1="96.91" x2="44.5" y2="96.91" xlink:href="#g"/><linearGradient id="am" x1="44.77" y1="96.91" x2="47.28" y2="96.91" xlink:href="#g"/><linearGradient id="an" x1="47.66" y1="96.91" x2="50.19" y2="96.91" xlink:href="#g"/></defs><title>raised</title><g class="a"><path class="b" d="M65.09,93.44c0,1.91-2,3.47-2.59,5.19s.13,4.24-1,5.72S57.9,105.93,56.4,107s-2.35,3.5-4.13,4.08-3.83-.88-5.73-.88-4,1.44-5.74.88-2.64-3-4.13-4.08-4.06-1.17-5.15-2.67-.37-3.94-.95-5.72S28,95.35,28,93.44s2-3.46,2.59-5.18-.13-4.24.95-5.72,3.66-1.58,5.15-2.67,2.35-3.5,4.13-4.08,3.83.88,5.74.88,4-1.44,5.73-.88,2.64,3,4.13,4.08,4.06,1.17,5.15,2.67.37,3.94,1,5.72S65.09,91.54,65.09,93.44Z" transform="translate(-27.98 -75.66)"/><path class="c" d="M62.42,91.23A9.44,9.44,0,0,1,61,88.74a9.6,9.6,0,0,1-.35-2.92,4.82,4.82,0,0,0-.38-2.37,4.77,4.77,0,0,0-2.15-1.1,9.78,9.78,0,0,1-2.66-1.22,10,10,0,0,1-2-2.13c-.59-.79-1.15-1.54-1.73-1.73a1.48,1.48,0,0,0-.39,0,7.49,7.49,0,0,0-1.93.43,10.23,10.23,0,0,1-2.93.57,10.23,10.23,0,0,1-2.94-.57,7.49,7.49,0,0,0-1.93-.43,1.48,1.48,0,0,0-.39,0c-.58.19-1.14.94-1.73,1.73a10,10,0,0,1-2,2.13,9.64,9.64,0,0,1-2.66,1.22,4.83,4.83,0,0,0-2.15,1.1,4.82,4.82,0,0,0-.38,2.37,9.6,9.6,0,0,1-.35,2.92,9.44,9.44,0,0,1-1.4,2.49,4.87,4.87,0,0,0-1.11,2.21,4.85,4.85,0,0,0,1.11,2.22,9.44,9.44,0,0,1,1.4,2.49,9.57,9.57,0,0,1,.35,2.92,4.82,4.82,0,0,0,.38,2.37,4.92,4.92,0,0,0,2.16,1.1,9.72,9.72,0,0,1,2.65,1.22,10,10,0,0,1,2,2.13c.59.79,1.15,1.54,1.73,1.73a1.48,1.48,0,0,0,.39,0,7.49,7.49,0,0,0,1.93-.43,10.23,10.23,0,0,1,2.94-.57,10.23,10.23,0,0,1,2.93.57,7.49,7.49,0,0,0,1.93.43,1.48,1.48,0,0,0,.39,0c.58-.19,1.14-.94,1.73-1.73a10,10,0,0,1,2-2.13,9.64,9.64,0,0,1,2.66-1.22,4.87,4.87,0,0,0,2.15-1.1,4.82,4.82,0,0,0,.38-2.37A9.64,9.64,0,0,1,61,98.15a9.44,9.44,0,0,1,1.4-2.49,4.88,4.88,0,0,0,1.12-2.22A4.86,4.86,0,0,0,62.42,91.23ZM62,95.61A9.57,9.57,0,0,0,60.67,98a10.14,10.14,0,0,0-.34,2.85A4.74,4.74,0,0,1,60,103.2a4.6,4.6,0,0,1-2.1,1.07,9.61,9.61,0,0,0-2.59,1.2,9.11,9.11,0,0,0-1.91,2.08c-.58.77-1.13,1.5-1.7,1.68a1,1,0,0,1-.37,0,7.53,7.53,0,0,1-1.89-.41,9.75,9.75,0,0,0-2.86-.57,9.76,9.76,0,0,0-2.87.57,7.46,7.46,0,0,1-1.88.41,1.06,1.06,0,0,1-.38,0c-.57-.18-1.11-.91-1.69-1.68a9.39,9.39,0,0,0-1.92-2.08,9.61,9.61,0,0,0-2.59-1.2,4.6,4.6,0,0,1-2.1-1.07,4.74,4.74,0,0,1-.37-2.31A10.1,10.1,0,0,0,32.4,98,9.57,9.57,0,0,0,31,95.61a4.7,4.7,0,0,1-1.09-2.17A4.72,4.72,0,0,1,31,91.28a9.57,9.57,0,0,0,1.37-2.43A10.1,10.1,0,0,0,32.74,86a4.74,4.74,0,0,1,.37-2.31,4.6,4.6,0,0,1,2.1-1.07,9.61,9.61,0,0,0,2.59-1.2,9.39,9.39,0,0,0,1.92-2.08c.58-.77,1.12-1.5,1.69-1.68a1.06,1.06,0,0,1,.38,0,7.46,7.46,0,0,1,1.88.41,9.75,9.75,0,0,0,2.87.56A9.75,9.75,0,0,0,49.4,78a7.44,7.44,0,0,1,1.89-.41,1.13,1.13,0,0,1,.38,0c.56.18,1.1.91,1.68,1.68a9.39,9.39,0,0,0,1.92,2.08,9.61,9.61,0,0,0,2.59,1.2A4.6,4.6,0,0,1,60,83.69,4.74,4.74,0,0,1,60.33,86a10.14,10.14,0,0,0,.34,2.85A9.57,9.57,0,0,0,62,91.28a4.72,4.72,0,0,1,1.09,2.16A4.7,4.7,0,0,1,62,95.61Z" transform="translate(-27.98 -75.66)"/><path class="d" d="M62.42,91.23A9.44,9.44,0,0,1,61,88.74a9.6,9.6,0,0,1-.35-2.92,4.82,4.82,0,0,0-.38-2.37,4.77,4.77,0,0,0-2.15-1.1,9.78,9.78,0,0,1-2.66-1.22,10,10,0,0,1-2-2.13c-.59-.79-1.15-1.54-1.73-1.73a1.48,1.48,0,0,0-.39,0,7.49,7.49,0,0,0-1.93.43,10.23,10.23,0,0,1-2.93.57,10.23,10.23,0,0,1-2.94-.57,7.49,7.49,0,0,0-1.93-.43,1.48,1.48,0,0,0-.39,0c-.58.19-1.14.94-1.73,1.73a10,10,0,0,1-2,2.13,9.64,9.64,0,0,1-2.66,1.22,4.83,4.83,0,0,0-2.15,1.1,4.82,4.82,0,0,0-.38,2.37,9.6,9.6,0,0,1-.35,2.92,9.44,9.44,0,0,1-1.4,2.49,4.87,4.87,0,0,0-1.11,2.21,4.85,4.85,0,0,0,1.11,2.22,9.44,9.44,0,0,1,1.4,2.49,9.57,9.57,0,0,1,.35,2.92,4.82,4.82,0,0,0,.38,2.37,4.92,4.92,0,0,0,2.16,1.1,9.72,9.72,0,0,1,2.65,1.22,10,10,0,0,1,2,2.13c.59.79,1.15,1.54,1.73,1.73a1.48,1.48,0,0,0,.39,0,7.49,7.49,0,0,0,1.93-.43,10.23,10.23,0,0,1,2.94-.57,10.23,10.23,0,0,1,2.93.57,7.49,7.49,0,0,0,1.93.43,1.48,1.48,0,0,0,.39,0c.58-.19,1.14-.94,1.73-1.73a10,10,0,0,1,2-2.13,9.64,9.64,0,0,1,2.66-1.22,4.87,4.87,0,0,0,2.15-1.1,4.82,4.82,0,0,0,.38-2.37A9.64,9.64,0,0,1,61,98.15a9.44,9.44,0,0,1,1.4-2.49,4.88,4.88,0,0,0,1.12-2.22A4.86,4.86,0,0,0,62.42,91.23ZM62,95.61A9.57,9.57,0,0,0,60.67,98a10.14,10.14,0,0,0-.34,2.85A4.74,4.74,0,0,1,60,103.2a4.6,4.6,0,0,1-2.1,1.07,9.61,9.61,0,0,0-2.59,1.2,9.11,9.11,0,0,0-1.91,2.08c-.58.77-1.13,1.5-1.7,1.68a1,1,0,0,1-.37,0,7.53,7.53,0,0,1-1.89-.41,9.75,9.75,0,0,0-2.86-.57,9.76,9.76,0,0,0-2.87.57,7.46,7.46,0,0,1-1.88.41,1.06,1.06,0,0,1-.38,0c-.57-.18-1.11-.91-1.69-1.68a9.39,9.39,0,0,0-1.92-2.08,9.61,9.61,0,0,0-2.59-1.2,4.6,4.6,0,0,1-2.1-1.07,4.74,4.74,0,0,1-.37-2.31A10.1,10.1,0,0,0,32.4,98,9.57,9.57,0,0,0,31,95.61a4.7,4.7,0,0,1-1.09-2.17A4.72,4.72,0,0,1,31,91.28a9.57,9.57,0,0,0,1.37-2.43A10.1,10.1,0,0,0,32.74,86a4.74,4.74,0,0,1,.37-2.31,4.6,4.6,0,0,1,2.1-1.07,9.61,9.61,0,0,0,2.59-1.2,9.39,9.39,0,0,0,1.92-2.08c.58-.77,1.12-1.5,1.69-1.68a1.06,1.06,0,0,1,.38,0,7.46,7.46,0,0,1,1.88.41,9.75,9.75,0,0,0,2.87.56A9.75,9.75,0,0,0,49.4,78a7.44,7.44,0,0,1,1.89-.41,1.13,1.13,0,0,1,.38,0c.56.18,1.1.91,1.68,1.68a9.39,9.39,0,0,0,1.92,2.08,9.61,9.61,0,0,0,2.59,1.2A4.6,4.6,0,0,1,60,83.69,4.74,4.74,0,0,1,60.33,86a10.14,10.14,0,0,0,.34,2.85A9.57,9.57,0,0,0,62,91.28a4.72,4.72,0,0,1,1.09,2.16A4.7,4.7,0,0,1,62,95.61Z" transform="translate(-27.98 -75.66)"/><path class="e" d="M62,91.28a9.57,9.57,0,0,1-1.37-2.43A10.14,10.14,0,0,1,60.33,86,4.74,4.74,0,0,0,60,83.69a4.6,4.6,0,0,0-2.1-1.07,9.61,9.61,0,0,1-2.59-1.2,9.39,9.39,0,0,1-1.92-2.08c-.58-.77-1.12-1.5-1.68-1.68a1.13,1.13,0,0,0-.38,0A7.44,7.44,0,0,0,49.4,78a9.75,9.75,0,0,1-2.86.56A9.75,9.75,0,0,1,43.67,78a7.46,7.46,0,0,0-1.88-.41,1.06,1.06,0,0,0-.38,0c-.57.18-1.11.91-1.69,1.68a9.39,9.39,0,0,1-1.92,2.08,9.61,9.61,0,0,1-2.59,1.2,4.6,4.6,0,0,0-2.1,1.07A4.74,4.74,0,0,0,32.74,86a10.1,10.1,0,0,1-.34,2.85A9.57,9.57,0,0,1,31,91.28a4.72,4.72,0,0,0-1.09,2.16A4.7,4.7,0,0,0,31,95.61,9.57,9.57,0,0,1,32.4,98a10.1,10.1,0,0,1,.34,2.85,4.74,4.74,0,0,0,.37,2.31,4.6,4.6,0,0,0,2.1,1.07,9.61,9.61,0,0,1,2.59,1.2,9.39,9.39,0,0,1,1.92,2.08c.58.77,1.12,1.5,1.69,1.68a1.06,1.06,0,0,0,.38,0,7.46,7.46,0,0,0,1.88-.41,9.76,9.76,0,0,1,2.87-.57,9.75,9.75,0,0,1,2.86.57,7.53,7.53,0,0,0,1.89.41,1,1,0,0,0,.37,0c.57-.18,1.12-.91,1.7-1.68a9.11,9.11,0,0,1,1.91-2.08,9.61,9.61,0,0,1,2.59-1.2A4.6,4.6,0,0,0,60,103.2a4.74,4.74,0,0,0,.37-2.31A10.14,10.14,0,0,1,60.67,98,9.57,9.57,0,0,1,62,95.61a4.7,4.7,0,0,0,1.09-2.17A4.72,4.72,0,0,0,62,91.28Z" transform="translate(-27.98 -75.66)"/><path class="f" d="M63.33,90.59a8.5,8.5,0,0,1-1.26-2.19,9,9,0,0,1-.29-2.6,5.46,5.46,0,0,0-.59-3,5.4,5.4,0,0,0-2.69-1.5,8.74,8.74,0,0,1-2.36-1.07,8.77,8.77,0,0,1-1.73-1.9,5.34,5.34,0,0,0-2.28-2.11,2.11,2.11,0,0,0-.73-.11,8.45,8.45,0,0,0-2.26.47,9.12,9.12,0,0,1-2.6.53,9.25,9.25,0,0,1-2.62-.53,8.31,8.31,0,0,0-2.25-.47,2.11,2.11,0,0,0-.73.11,5.34,5.34,0,0,0-2.28,2.11,9,9,0,0,1-1.72,1.9,9,9,0,0,1-2.37,1.07,5.4,5.4,0,0,0-2.69,1.5,5.46,5.46,0,0,0-.59,3A9,9,0,0,1,31,88.4a8.5,8.5,0,0,1-1.26,2.19,5.53,5.53,0,0,0-1.32,2.85,5.52,5.52,0,0,0,1.32,2.86A8.5,8.5,0,0,1,31,98.49a9,9,0,0,1,.29,2.6,5.46,5.46,0,0,0,.59,3,5.4,5.4,0,0,0,2.69,1.5,9,9,0,0,1,2.37,1.07,9,9,0,0,1,1.72,1.9,5.34,5.34,0,0,0,2.28,2.11,2.11,2.11,0,0,0,.73.11,8.45,8.45,0,0,0,2.26-.47,9.12,9.12,0,0,1,2.61-.53,9.25,9.25,0,0,1,2.61.53,8.31,8.31,0,0,0,2.25.47,2.11,2.11,0,0,0,.73-.11,5.34,5.34,0,0,0,2.28-2.11,8.77,8.77,0,0,1,1.73-1.9,8.74,8.74,0,0,1,2.36-1.07,5.4,5.4,0,0,0,2.69-1.5,5.46,5.46,0,0,0,.59-3,9,9,0,0,1,.29-2.6,8.5,8.5,0,0,1,1.26-2.19,5.44,5.44,0,0,0,1.32-2.86A5.45,5.45,0,0,0,63.33,90.59Zm-.91,5.07A9.44,9.44,0,0,0,61,98.15a9.64,9.64,0,0,0-.35,2.92,4.82,4.82,0,0,1-.38,2.37,4.87,4.87,0,0,1-2.15,1.1,9.64,9.64,0,0,0-2.66,1.22,10,10,0,0,0-2,2.13c-.59.79-1.15,1.54-1.73,1.73a1.48,1.48,0,0,1-.39,0,7.49,7.49,0,0,1-1.93-.43,10.23,10.23,0,0,0-2.93-.57,10.23,10.23,0,0,0-2.94.57,7.49,7.49,0,0,1-1.93.43,1.48,1.48,0,0,1-.39,0c-.58-.19-1.14-.94-1.73-1.73a10,10,0,0,0-2-2.13,9.72,9.72,0,0,0-2.65-1.22,4.92,4.92,0,0,1-2.16-1.1,4.82,4.82,0,0,1-.38-2.37,9.57,9.57,0,0,0-.35-2.92,9.44,9.44,0,0,0-1.4-2.49,4.85,4.85,0,0,1-1.11-2.22,4.87,4.87,0,0,1,1.11-2.21,9.44,9.44,0,0,0,1.4-2.49,9.6,9.6,0,0,0,.35-2.92,4.82,4.82,0,0,1,.38-2.37,4.83,4.83,0,0,1,2.15-1.1,9.64,9.64,0,0,0,2.66-1.22,10,10,0,0,0,2-2.13c.59-.79,1.15-1.54,1.73-1.73a1.48,1.48,0,0,1,.39,0,7.49,7.49,0,0,1,1.93.43,10.23,10.23,0,0,0,2.94.57,10.23,10.23,0,0,0,2.93-.57,7.49,7.49,0,0,1,1.93-.43,1.48,1.48,0,0,1,.39,0c.58.19,1.14.94,1.73,1.73a10,10,0,0,0,2,2.13,9.78,9.78,0,0,0,2.66,1.22,4.77,4.77,0,0,1,2.15,1.1,4.82,4.82,0,0,1,.38,2.37A9.6,9.6,0,0,0,61,88.74a9.44,9.44,0,0,0,1.4,2.49,4.86,4.86,0,0,1,1.12,2.21A4.88,4.88,0,0,1,62.42,95.66Z" transform="translate(-27.98 -75.66)"/><path class="g" d="M48.78,108.93c0,.51-1,.92-2.24.92s-2.25-.41-2.25-.92,1-.93,2.25-.93S48.78,108.41,48.78,108.93Z" transform="translate(-27.98 -75.66)"/><path class="h" d="M62.46,91.32a9.73,9.73,0,0,1-1.4-2.49,10.31,10.31,0,0,1-.35-2.92,4.82,4.82,0,0,0-.38-2.37,4.72,4.72,0,0,0-2.15-1.1,10,10,0,0,1-2.65-1.22,10.1,10.1,0,0,1-2-2.13c-.59-.79-1.15-1.54-1.73-1.73a1.4,1.4,0,0,0-.38,0,7.64,7.64,0,0,0-1.94.43,10.16,10.16,0,0,1-2.93.57,9.84,9.84,0,0,1-2.93-.58,8,8,0,0,0-1.94-.42,1.4,1.4,0,0,0-.38,0c-.58.19-1.14.94-1.74,1.73a9.79,9.79,0,0,1-2,2.13A10,10,0,0,1,35,82.44a4.72,4.72,0,0,0-2.15,1.1,4.82,4.82,0,0,0-.38,2.37,10.31,10.31,0,0,1-.35,2.92,9.73,9.73,0,0,1-1.4,2.49,4.86,4.86,0,0,0-1.12,2.21,4.88,4.88,0,0,0,1.12,2.22,9.73,9.73,0,0,1,1.4,2.49,10.23,10.23,0,0,1,.35,2.92,4.82,4.82,0,0,0,.38,2.37,4.81,4.81,0,0,0,2.15,1.1,9.72,9.72,0,0,1,2.65,1.22,9.79,9.79,0,0,1,2,2.13c.6.79,1.16,1.54,1.73,1.73a1.48,1.48,0,0,0,.39.05,7.64,7.64,0,0,0,1.94-.43,10.16,10.16,0,0,1,2.93-.57,10.16,10.16,0,0,1,2.93.57,7.64,7.64,0,0,0,1.94.43,1.4,1.4,0,0,0,.38-.05c.58-.19,1.14-.94,1.74-1.73a9.57,9.57,0,0,1,2-2.13,10.06,10.06,0,0,1,2.65-1.23,4.72,4.72,0,0,0,2.15-1.09,4.82,4.82,0,0,0,.38-2.37,10.27,10.27,0,0,1,.35-2.92,9.73,9.73,0,0,1,1.4-2.49,4.88,4.88,0,0,0,1.12-2.22A4.86,4.86,0,0,0,62.46,91.32Zm-.38,4.38a9.25,9.25,0,0,0-1.36,2.43,9.76,9.76,0,0,0-.35,2.85,4.64,4.64,0,0,1-.36,2.31,4.76,4.76,0,0,1-2.1,1.07,9.67,9.67,0,0,0-2.6,1.2,9.77,9.77,0,0,0-1.91,2.07c-.58.78-1.13,1.51-1.69,1.69a1.09,1.09,0,0,1-.38.05,7.38,7.38,0,0,1-1.88-.41,9.82,9.82,0,0,0-2.87-.57,9.69,9.69,0,0,0-2.86.57,7.62,7.62,0,0,1-1.89.41,1.09,1.09,0,0,1-.38-.05c-.56-.18-1.11-.91-1.69-1.68a9.58,9.58,0,0,0-1.91-2.08,9.75,9.75,0,0,0-2.59-1.2,4.75,4.75,0,0,1-2.11-1.07,4.64,4.64,0,0,1-.36-2.31,9.76,9.76,0,0,0-.35-2.85,9.25,9.25,0,0,0-1.36-2.43A4.74,4.74,0,0,1,30,93.53a4.76,4.76,0,0,1,1.1-2.16,9.25,9.25,0,0,0,1.36-2.43,9.8,9.8,0,0,0,.35-2.85,4.64,4.64,0,0,1,.36-2.31,4.66,4.66,0,0,1,2.1-1.07,9.67,9.67,0,0,0,2.6-1.2,9.58,9.58,0,0,0,1.91-2.08c.58-.77,1.13-1.5,1.69-1.68a1.08,1.08,0,0,1,.38-.06,7.6,7.6,0,0,1,1.89.42,10,10,0,0,0,2.86.56,10.09,10.09,0,0,0,2.86-.56,7.6,7.6,0,0,1,1.89-.42,1.08,1.08,0,0,1,.38.06c.56.18,1.11.91,1.69,1.68a9.58,9.58,0,0,0,1.91,2.08,9.67,9.67,0,0,0,2.6,1.2A4.66,4.66,0,0,1,60,83.78a4.64,4.64,0,0,1,.36,2.31,9.8,9.8,0,0,0,.35,2.85,9.25,9.25,0,0,0,1.36,2.43,4.76,4.76,0,0,1,1.1,2.16A4.74,4.74,0,0,1,62.08,95.7Z" transform="translate(-27.98 -75.66)"/><path class="h" d="M62.46,91.32a9.73,9.73,0,0,1-1.4-2.49,10.31,10.31,0,0,1-.35-2.92,4.82,4.82,0,0,0-.38-2.37,4.72,4.72,0,0,0-2.15-1.1,10,10,0,0,1-2.65-1.22,10.1,10.1,0,0,1-2-2.13c-.59-.79-1.15-1.54-1.73-1.73a1.4,1.4,0,0,0-.38,0,7.64,7.64,0,0,0-1.94.43,10.16,10.16,0,0,1-2.93.57,9.84,9.84,0,0,1-2.93-.58,8,8,0,0,0-1.94-.42,1.4,1.4,0,0,0-.38,0c-.58.19-1.14.94-1.74,1.73a9.79,9.79,0,0,1-2,2.13A10,10,0,0,1,35,82.44a4.72,4.72,0,0,0-2.15,1.1,4.82,4.82,0,0,0-.38,2.37,10.31,10.31,0,0,1-.35,2.92,9.73,9.73,0,0,1-1.4,2.49,4.86,4.86,0,0,0-1.12,2.21,4.88,4.88,0,0,0,1.12,2.22,9.73,9.73,0,0,1,1.4,2.49,10.23,10.23,0,0,1,.35,2.92,4.82,4.82,0,0,0,.38,2.37,4.81,4.81,0,0,0,2.15,1.1,9.72,9.72,0,0,1,2.65,1.22,9.79,9.79,0,0,1,2,2.13c.6.79,1.16,1.54,1.73,1.73a1.48,1.48,0,0,0,.39.05,7.64,7.64,0,0,0,1.94-.43,10.16,10.16,0,0,1,2.93-.57,10.16,10.16,0,0,1,2.93.57,7.64,7.64,0,0,0,1.94.43,1.4,1.4,0,0,0,.38-.05c.58-.19,1.14-.94,1.74-1.73a9.57,9.57,0,0,1,2-2.13,10.06,10.06,0,0,1,2.65-1.23,4.72,4.72,0,0,0,2.15-1.09,4.82,4.82,0,0,0,.38-2.37,10.27,10.27,0,0,1,.35-2.92,9.73,9.73,0,0,1,1.4-2.49,4.88,4.88,0,0,0,1.12-2.22A4.86,4.86,0,0,0,62.46,91.32Zm-.38,4.38a9.25,9.25,0,0,0-1.36,2.43,9.76,9.76,0,0,0-.35,2.85,4.64,4.64,0,0,1-.36,2.31,4.76,4.76,0,0,1-2.1,1.07,9.67,9.67,0,0,0-2.6,1.2,9.77,9.77,0,0,0-1.91,2.07c-.58.78-1.13,1.51-1.69,1.69a1.09,1.09,0,0,1-.38.05,7.38,7.38,0,0,1-1.88-.41,9.82,9.82,0,0,0-2.87-.57,9.69,9.69,0,0,0-2.86.57,7.62,7.62,0,0,1-1.89.41,1.09,1.09,0,0,1-.38-.05c-.56-.18-1.11-.91-1.69-1.68a9.58,9.58,0,0,0-1.91-2.08,9.75,9.75,0,0,0-2.59-1.2,4.75,4.75,0,0,1-2.11-1.07,4.64,4.64,0,0,1-.36-2.31,9.76,9.76,0,0,0-.35-2.85,9.25,9.25,0,0,0-1.36-2.43A4.74,4.74,0,0,1,30,93.53a4.76,4.76,0,0,1,1.1-2.16,9.25,9.25,0,0,0,1.36-2.43,9.8,9.8,0,0,0,.35-2.85,4.64,4.64,0,0,1,.36-2.31,4.66,4.66,0,0,1,2.1-1.07,9.67,9.67,0,0,0,2.6-1.2,9.58,9.58,0,0,0,1.91-2.08c.58-.77,1.13-1.5,1.69-1.68a1.08,1.08,0,0,1,.38-.06,7.6,7.6,0,0,1,1.89.42,10,10,0,0,0,2.86.56,10.09,10.09,0,0,0,2.86-.56,7.6,7.6,0,0,1,1.89-.42,1.08,1.08,0,0,1,.38.06c.56.18,1.11.91,1.69,1.68a9.58,9.58,0,0,0,1.91,2.08,9.67,9.67,0,0,0,2.6,1.2A4.66,4.66,0,0,1,60,83.78a4.64,4.64,0,0,1,.36,2.31,9.8,9.8,0,0,0,.35,2.85,9.25,9.25,0,0,0,1.36,2.43,4.76,4.76,0,0,1,1.1,2.16A4.74,4.74,0,0,1,62.08,95.7Z" transform="translate(-27.98 -75.66)"/><path class="c" d="M62.42,91.23A9.44,9.44,0,0,1,61,88.74a9.6,9.6,0,0,1-.35-2.92,4.82,4.82,0,0,0-.38-2.37,4.77,4.77,0,0,0-2.15-1.1,9.78,9.78,0,0,1-2.66-1.22,10,10,0,0,1-2-2.13c-.59-.79-1.15-1.54-1.73-1.73a1.48,1.48,0,0,0-.39,0,7.49,7.49,0,0,0-1.93.43,10.23,10.23,0,0,1-2.93.57,10.23,10.23,0,0,1-2.94-.57,7.49,7.49,0,0,0-1.93-.43,1.48,1.48,0,0,0-.39,0c-.58.19-1.14.94-1.73,1.73a10,10,0,0,1-2,2.13,9.64,9.64,0,0,1-2.66,1.22,4.83,4.83,0,0,0-2.15,1.1,4.82,4.82,0,0,0-.38,2.37,9.6,9.6,0,0,1-.35,2.92,9.44,9.44,0,0,1-1.4,2.49,4.87,4.87,0,0,0-1.11,2.21,4.85,4.85,0,0,0,1.11,2.22,9.44,9.44,0,0,1,1.4,2.49,9.57,9.57,0,0,1,.35,2.92,4.82,4.82,0,0,0,.38,2.37,4.92,4.92,0,0,0,2.16,1.1,9.72,9.72,0,0,1,2.65,1.22,10,10,0,0,1,2,2.13c.59.79,1.15,1.54,1.73,1.73a1.48,1.48,0,0,0,.39,0,7.49,7.49,0,0,0,1.93-.43,10.23,10.23,0,0,1,2.94-.57,10.23,10.23,0,0,1,2.93.57,7.49,7.49,0,0,0,1.93.43,1.48,1.48,0,0,0,.39,0c.58-.19,1.14-.94,1.73-1.73a10,10,0,0,1,2-2.13,9.64,9.64,0,0,1,2.66-1.22,4.87,4.87,0,0,0,2.15-1.1,4.82,4.82,0,0,0,.38-2.37A9.64,9.64,0,0,1,61,98.15a9.44,9.44,0,0,1,1.4-2.49,4.88,4.88,0,0,0,1.12-2.22A4.86,4.86,0,0,0,62.42,91.23ZM62,95.61A9.57,9.57,0,0,0,60.67,98a10.14,10.14,0,0,0-.34,2.85A4.74,4.74,0,0,1,60,103.2a4.6,4.6,0,0,1-2.1,1.07,9.61,9.61,0,0,0-2.59,1.2,9.11,9.11,0,0,0-1.91,2.08c-.58.77-1.13,1.5-1.7,1.68a1,1,0,0,1-.37,0,7.53,7.53,0,0,1-1.89-.41,9.75,9.75,0,0,0-2.86-.57,9.76,9.76,0,0,0-2.87.57,7.46,7.46,0,0,1-1.88.41,1.06,1.06,0,0,1-.38,0c-.57-.18-1.11-.91-1.69-1.68a9.39,9.39,0,0,0-1.92-2.08,9.61,9.61,0,0,0-2.59-1.2,4.6,4.6,0,0,1-2.1-1.07,4.74,4.74,0,0,1-.37-2.31A10.1,10.1,0,0,0,32.4,98,9.57,9.57,0,0,0,31,95.61a4.7,4.7,0,0,1-1.09-2.17A4.72,4.72,0,0,1,31,91.28a9.57,9.57,0,0,0,1.37-2.43A10.1,10.1,0,0,0,32.74,86a4.74,4.74,0,0,1,.37-2.31,4.6,4.6,0,0,1,2.1-1.07,9.61,9.61,0,0,0,2.59-1.2,9.39,9.39,0,0,0,1.92-2.08c.58-.77,1.12-1.5,1.69-1.68a1.06,1.06,0,0,1,.38,0,7.46,7.46,0,0,1,1.88.41,9.75,9.75,0,0,0,2.87.56A9.75,9.75,0,0,0,49.4,78a7.44,7.44,0,0,1,1.89-.41,1.13,1.13,0,0,1,.38,0c.56.18,1.1.91,1.68,1.68a9.39,9.39,0,0,0,1.92,2.08,9.61,9.61,0,0,0,2.59,1.2A4.6,4.6,0,0,1,60,83.69,4.74,4.74,0,0,1,60.33,86a10.14,10.14,0,0,0,.34,2.85A9.57,9.57,0,0,0,62,91.28a4.72,4.72,0,0,1,1.09,2.16A4.7,4.7,0,0,1,62,95.61Z" transform="translate(-27.98 -75.66)"/><path class="d" d="M62.42,91.23A9.44,9.44,0,0,1,61,88.74a9.6,9.6,0,0,1-.35-2.92,4.82,4.82,0,0,0-.38-2.37,4.77,4.77,0,0,0-2.15-1.1,9.78,9.78,0,0,1-2.66-1.22,10,10,0,0,1-2-2.13c-.59-.79-1.15-1.54-1.73-1.73a1.48,1.48,0,0,0-.39,0,7.49,7.49,0,0,0-1.93.43,10.23,10.23,0,0,1-2.93.57,10.23,10.23,0,0,1-2.94-.57,7.49,7.49,0,0,0-1.93-.43,1.48,1.48,0,0,0-.39,0c-.58.19-1.14.94-1.73,1.73a10,10,0,0,1-2,2.13,9.64,9.64,0,0,1-2.66,1.22,4.83,4.83,0,0,0-2.15,1.1,4.82,4.82,0,0,0-.38,2.37,9.6,9.6,0,0,1-.35,2.92,9.44,9.44,0,0,1-1.4,2.49,4.87,4.87,0,0,0-1.11,2.21,4.85,4.85,0,0,0,1.11,2.22,9.44,9.44,0,0,1,1.4,2.49,9.57,9.57,0,0,1,.35,2.92,4.82,4.82,0,0,0,.38,2.37,4.92,4.92,0,0,0,2.16,1.1,9.72,9.72,0,0,1,2.65,1.22,10,10,0,0,1,2,2.13c.59.79,1.15,1.54,1.73,1.73a1.48,1.48,0,0,0,.39,0,7.49,7.49,0,0,0,1.93-.43,10.23,10.23,0,0,1,2.94-.57,10.23,10.23,0,0,1,2.93.57,7.49,7.49,0,0,0,1.93.43,1.48,1.48,0,0,0,.39,0c.58-.19,1.14-.94,1.73-1.73a10,10,0,0,1,2-2.13,9.64,9.64,0,0,1,2.66-1.22,4.87,4.87,0,0,0,2.15-1.1,4.82,4.82,0,0,0,.38-2.37A9.64,9.64,0,0,1,61,98.15a9.44,9.44,0,0,1,1.4-2.49,4.88,4.88,0,0,0,1.12-2.22A4.86,4.86,0,0,0,62.42,91.23ZM62,95.61A9.57,9.57,0,0,0,60.67,98a10.14,10.14,0,0,0-.34,2.85A4.74,4.74,0,0,1,60,103.2a4.6,4.6,0,0,1-2.1,1.07,9.61,9.61,0,0,0-2.59,1.2,9.11,9.11,0,0,0-1.91,2.08c-.58.77-1.13,1.5-1.7,1.68a1,1,0,0,1-.37,0,7.53,7.53,0,0,1-1.89-.41,9.75,9.75,0,0,0-2.86-.57,9.76,9.76,0,0,0-2.87.57,7.46,7.46,0,0,1-1.88.41,1.06,1.06,0,0,1-.38,0c-.57-.18-1.11-.91-1.69-1.68a9.39,9.39,0,0,0-1.92-2.08,9.61,9.61,0,0,0-2.59-1.2,4.6,4.6,0,0,1-2.1-1.07,4.74,4.74,0,0,1-.37-2.31A10.1,10.1,0,0,0,32.4,98,9.57,9.57,0,0,0,31,95.61a4.7,4.7,0,0,1-1.09-2.17A4.72,4.72,0,0,1,31,91.28a9.57,9.57,0,0,0,1.37-2.43A10.1,10.1,0,0,0,32.74,86a4.74,4.74,0,0,1,.37-2.31,4.6,4.6,0,0,1,2.1-1.07,9.61,9.61,0,0,0,2.59-1.2,9.39,9.39,0,0,0,1.92-2.08c.58-.77,1.12-1.5,1.69-1.68a1.06,1.06,0,0,1,.38,0,7.46,7.46,0,0,1,1.88.41,9.75,9.75,0,0,0,2.87.56A9.75,9.75,0,0,0,49.4,78a7.44,7.44,0,0,1,1.89-.41,1.13,1.13,0,0,1,.38,0c.56.18,1.1.91,1.68,1.68a9.39,9.39,0,0,0,1.92,2.08,9.61,9.61,0,0,0,2.59,1.2A4.6,4.6,0,0,1,60,83.69,4.74,4.74,0,0,1,60.33,86a10.14,10.14,0,0,0,.34,2.85A9.57,9.57,0,0,0,62,91.28a4.72,4.72,0,0,1,1.09,2.16A4.7,4.7,0,0,1,62,95.61Z" transform="translate(-27.98 -75.66)"/><path class="i" d="M36.5,92.75a1.66,1.66,0,0,0,.37-.79c.08-.47-.12-.79-.48-.85s-.56.1-.82.55-.67.86-1.17.77a1,1,0,0,1-.78-1.32,1.65,1.65,0,0,1,.31-.76l.35.2a1.37,1.37,0,0,0-.28.65c-.08.48.18.72.42.76s.54-.13.81-.6.68-.82,1.2-.73,1,.58.82,1.42a1.89,1.89,0,0,1-.38.88Z" transform="translate(-27.98 -75.66)"/><path class="j" d="M34.35,88.66l1.94.92c.73.35,1.2.17,1.4-.26s.06-.95-.66-1.3l-1.94-.92.2-.43,1.91.91c1,.48,1.17,1.21.83,1.91s-.94,1-2,.52l-1.93-.92Z" transform="translate(-27.98 -75.66)"/><path class="k" d="M40.37,86.05a2.49,2.49,0,0,1-.52.82,1.7,1.7,0,0,1-2.56.1,1.81,1.81,0,0,1-.14-2.68,1.89,1.89,0,0,1,.7-.53l.2.34a1.69,1.69,0,0,0-.6.44,1.35,1.35,0,0,0,.16,2,1.31,1.31,0,0,0,2,0,1.89,1.89,0,0,0,.41-.67Z" transform="translate(-27.98 -75.66)"/><path class="l" d="M42.56,84.69a2.3,2.3,0,0,1-.71.65,1.7,1.7,0,0,1-2.5-.58,1.81,1.81,0,0,1,.58-2.62,2,2,0,0,1,.81-.33l.11.39a1.65,1.65,0,0,0-.69.26,1.35,1.35,0,0,0-.4,2,1.32,1.32,0,0,0,2,.48,1.92,1.92,0,0,0,.56-.53Z" transform="translate(-27.98 -75.66)"/><path class="m" d="M44,82.61,42.68,83l.4,1.24,1.49-.47.12.37-1.94.62-1.1-3.45,1.87-.6.12.38-1.42.45.34,1.09,1.34-.43Z" transform="translate(-27.98 -75.66)"/><path class="n" d="M44.78,83.61a1.62,1.62,0,0,0,.85.17c.48,0,.74-.3.71-.67s-.23-.51-.73-.67-1-.45-1-1,.39-1,1.1-1.07a1.72,1.72,0,0,1,.81.12l-.1.39a1.59,1.59,0,0,0-.7-.12c-.5,0-.66.34-.64.59s.25.49.76.65,1,.46,1,1-.34,1.07-1.19,1.13a1.87,1.87,0,0,1-.94-.16Z" transform="translate(-27.98 -75.66)"/><path class="o" d="M47.16,83.49a1.62,1.62,0,0,0,.79.37c.47.08.79-.12.85-.48s-.11-.56-.56-.82-.85-.67-.77-1.18a1,1,0,0,1,1.32-.77,1.56,1.56,0,0,1,.76.31l-.19.35a1.48,1.48,0,0,0-.65-.28c-.49-.08-.72.18-.76.42s.13.53.59.81.82.68.74,1.2-.59,1-1.43.82a1.9,1.9,0,0,1-.87-.38Z" transform="translate(-27.98 -75.66)"/><path class="p" d="M50.73,81.15l1.79.76-.15.36L51,81.69l-.47,1.11,1.26.54-.15.35-1.26-.54-.65,1.51-.43-.18Z" transform="translate(-27.98 -75.66)"/><path class="q" d="M53.9,82.77l-1.34,1.67c-.51.64-.45,1.13-.07,1.43s.91.28,1.41-.35l1.35-1.67.37.29-1.33,1.65a1.33,1.33,0,0,1-2,.37c-.58-.46-.75-1.15,0-2l1.33-1.67Z" transform="translate(-27.98 -75.66)"/><path class="r" d="M56.48,85.14l.27.38-2.62,1.89L55,88.67l-.32.23-1.18-1.64Z" transform="translate(-27.98 -75.66)"/><path class="s" d="M58.08,87.6l.19.43-3,1.26.6,1.42-.36.16L54.75,89Z" transform="translate(-27.98 -75.66)"/><path class="t" d="M55.6,91.38l1.5-.3,1.82-1.52.11.52-.88.69c-.24.19-.44.34-.67.5h0c.25,0,.5.13.8.21l1.08.32.1.52-2.27-.78-1.51.29Z" transform="translate(-27.98 -75.66)"/><path class="u" d="M40.34,100.67a4.54,4.54,0,0,1,.78.44,1.52,1.52,0,0,1,.71.83.93.93,0,0,1-.15.73,1,1,0,0,1-1.09.38v0a.91.91,0,0,1,0,.9,6,6,0,0,0-.33,1l-.4-.27a4.81,4.81,0,0,1,.29-.85c.19-.48.13-.74-.21-1l-.37-.25-.88,1.3-.38-.26Zm-.54,1.63.4.27a.71.71,0,0,0,1.06-.12c.26-.38.1-.74-.31-1a2.09,2.09,0,0,0-.41-.23Z" transform="translate(-27.98 -75.66)"/><path class="v" d="M42.18,104.52l-.71,1-.46-.15,2.29-3.06.53.18.06,3.82-.48-.16v-1.2Zm1.24,0,0-1.1q0-.37,0-.69h0c-.12.18-.24.38-.38.56l-.66.89Z" transform="translate(-27.98 -75.66)"/><path class="w" d="M45.65,102.78l-.41,3.6-.46,0,.4-3.6Z" transform="translate(-27.98 -75.66)"/><path class="x" d="M46.27,105.9a1.76,1.76,0,0,0,.86.18c.47,0,.74-.3.71-.66s-.22-.52-.72-.68-1-.45-1-1,.4-1,1.1-1.06a1.67,1.67,0,0,1,.81.13l-.1.39a1.41,1.41,0,0,0-.7-.13c-.49,0-.66.34-.64.58s.25.49.76.65,1,.48,1,1-.35,1.07-1.2,1.12a2,2,0,0,1-.94-.17Z" transform="translate(-27.98 -75.66)"/><path class="y" d="M50.74,103.94l-1.35.42.39,1.24,1.5-.46.11.37-1.94.61-1.08-3.47,1.87-.58.12.38-1.42.44.34,1.1,1.34-.42Z" transform="translate(-27.98 -75.66)"/><path class="z" d="M50.47,102.07a6.23,6.23,0,0,1,.79-.6,2,2,0,0,1,1.47-.44,1.67,1.67,0,0,1,1.14.81,1.89,1.89,0,0,1,.34,1.46,2.21,2.21,0,0,1-1.05,1.32c-.28.18-.52.32-.73.43Zm2.15,2.42a3.25,3.25,0,0,0,.41-.24,1.39,1.39,0,0,0,.44-2.13,1.29,1.29,0,0,0-2-.36,2.62,2.62,0,0,0-.43.35Z" transform="translate(-27.98 -75.66)"/><path class="aa" d="M41.24,90.81h0l-.57.3-.09-.33.72-.39h.37v3.28h-.42Z" transform="translate(-27.98 -75.66)"/><path class="ab" d="M45,92c0,1.12-.42,1.73-1.14,1.73s-1.07-.6-1.08-1.68.47-1.7,1.13-1.7S45,91,45,92ZM43.26,92c0,.86.26,1.34.66,1.34s.67-.53.67-1.37-.2-1.33-.66-1.33S43.26,91.15,43.26,92Z" transform="translate(-27.98 -75.66)"/><path class="ac" d="M47.57,90.39v.29l-1.42,3h-.46l1.42-2.9h-1.6v-.37Z" transform="translate(-27.98 -75.66)"/><path class="ad" d="M50,90.77H48.74l-.13.84.27,0a1.37,1.37,0,0,1,.7.17.93.93,0,0,1,.47.84,1.14,1.14,0,0,1-1.22,1.12,1.59,1.59,0,0,1-.81-.2l.11-.34a1.48,1.48,0,0,0,.7.18.72.72,0,0,0,.78-.71c0-.42-.29-.72-1-.72-.18,0-.33,0-.45,0l.21-1.57H50Z" transform="translate(-27.98 -75.66)"/><path class="ae" d="M52.75,90.39v.29l-1.43,3h-.46l1.42-2.9h-1.6v-.37Z" transform="translate(-27.98 -75.66)"/><path class="af" d="M44.48,97.07H43.16V98.3h1.47v.37H42.72v-3.4h1.83v.37H43.16v1.07h1.32Z" transform="translate(-27.98 -75.66)"/><path class="ag" d="M45.93,95.64h-1v-.37h2.52v.37h-1v3h-.44Z" transform="translate(-27.98 -75.66)"/><path class="ah" d="M48.22,95.27v1.42h1.65V95.27h.44v3.4h-.44v-1.6H48.22v1.6h-.43v-3.4Z" transform="translate(-27.98 -75.66)"/><path class="ai" d="M41.11,90.75h0l-.57.31-.08-.34.71-.38h.38v3.27h-.43Z" transform="translate(-27.98 -75.66)"/><path class="aj" d="M44.91,91.94c0,1.11-.41,1.72-1.14,1.72s-1.07-.6-1.08-1.68.48-1.7,1.14-1.7S44.91,90.9,44.91,91.94Zm-1.77,0c0,.85.26,1.33.66,1.33s.67-.53.67-1.36-.21-1.34-.66-1.34S43.14,91.1,43.14,92Z" transform="translate(-27.98 -75.66)"/><path class="ak" d="M47.45,90.34v.29l-1.43,3h-.45L47,90.71H45.38v-.36Z" transform="translate(-27.98 -75.66)"/><path class="al" d="M49.86,90.71H48.62l-.13.84.27,0a1.28,1.28,0,0,1,.7.18.91.91,0,0,1,.47.84,1.13,1.13,0,0,1-1.22,1.11,1.56,1.56,0,0,1-.81-.2l.11-.33a1.44,1.44,0,0,0,.7.18.73.73,0,0,0,.77-.71c0-.43-.29-.73-.94-.73a2.58,2.58,0,0,0-.45,0l.21-1.57h1.56Z" transform="translate(-27.98 -75.66)"/><path class="am" d="M52.62,90.34v.29l-1.42,3h-.46l1.42-2.9h-1.6v-.36Z" transform="translate(-27.98 -75.66)"/><path class="an" d="M44.35,97H43v1.22H44.5v.37H42.6v-3.4h1.83v.37H43v1.08h1.32Z" transform="translate(-27.98 -75.66)"/><path class="ao" d="M45.8,95.59h-1v-.38h2.51v.38h-1v3H45.8Z" transform="translate(-27.98 -75.66)"/><path class="ap" d="M48.1,95.21v1.43h1.64V95.21h.45v3.4h-.45V97H48.1v1.59h-.44v-3.4Z" transform="translate(-27.98 -75.66)"/></g></svg>