<svg id="Слой_1" data-name="Слой 1" xmlns="http://www.w3.org/2000/svg" xmlns:xlink="http://www.w3.org/1999/xlink" viewBox="0 0 676.21 719.59"><defs><style>.cls-1,.cls-24,.cls-25,.cls-26,.cls-27,.cls-4{fill:none;}.cls-2{clip-path:url(#clip-path);}.cls-3{fill-opacity:0;}.cls-26,.cls-4{stroke:#f93;}.cls-24,.cls-26,.cls-27,.cls-4{stroke-linejoin:round;}.cls-24,.cls-25,.cls-26,.cls-27,.cls-4{stroke-width:3px;}.cls-5{fill:#efefef;}.cls-6{fill:#f93;}.cls-7{fill:#71e1f0;}.cls-8{fill:#38c5d8;}.cls-9{fill:#273b7a;}.cls-10{fill:#121249;}.cls-11{fill:#fdecb5;}.cls-12{fill:#282a28;}.cls-13{fill:#494a48;}.cls-14{fill:#d6ebea;}.cls-15{fill:#b4cbcc;}.cls-16{fill:#e6cd88;}.cls-17{fill:#a8bebc;}.cls-18{fill:#8ca2a2;}.cls-19{fill:#3b6895;}.cls-20{fill:#dcac64;}.cls-21{fill:#fad08a;}.cls-22,.cls-30{fill:#fff;}.cls-23{fill:#f90;}.cls-24,.cls-25,.cls-27{stroke:#efefef;}.cls-24,.cls-26{stroke-dasharray:12 9;}.cls-25,.cls-30{stroke-miterlimit:10;}.cls-28{fill:#64a9dc;}.cls-29{fill:#00c80f;}.cls-30{stroke:#000;}.cls-31{fill:#4aa0ec;}.cls-32{fill:#3b5998;}.cls-33{clip-path:url(#clip-path-2);}.cls-34{clip-path:url(#clip-path-3);}.cls-35{fill:#ff5f00;}.cls-36{clip-path:url(#clip-path-4);}.cls-37{fill:#eb001b;}.cls-38{clip-path:url(#clip-path-5);}.cls-39{fill:#f79e1b;}.cls-40{clip-path:url(#clip-path-6);}</style><clipPath id="clip-path" transform="translate(0 0)"><rect class="cls-1" width="676.21" height="719.59"/></clipPath><clipPath id="clip-path-2" transform="translate(0 0)"><path d="M204.15,701.47v-2a1.24,1.24,0,0,0-1.13-1.34h-.08a1.22,1.22,0,0,0-1.08.54,1.1,1.1,0,0,0-1.08-.54,1.2,1.2,0,0,0-.94.54v-.4h-.67v3.23h.67v-1.88a.71.71,0,0,1,.59-.81h.22c.54,0,.67.27.67.81v1.88H202v-1.88a.81.81,0,0,1,1.61,0v1.88Zm10.49-3.23h-1.21v-.94h-.67v.94h-.67v.54h.67v1.48c0,.81.27,1.21,1.08,1.21a1.48,1.48,0,0,0,.81-.27l-.27-.54a1,1,0,0,1-.54.13.58.58,0,0,1-.54-.54v-1.48h1.21v-.54Zm5.92,0a.74.74,0,0,0-.81.54v-.4h-.67v3.23h.67v-1.88c0-.54.27-.81.67-.81a.49.49,0,0,1,.4.13l.27-.54a.54.54,0,0,0-.53-.26Zm-9,.27a2,2,0,0,0-1.34-.27c-.81,0-1.34.4-1.34,1.08s.4.81,1.08.94h.27c.4,0,.54.13.54.4s-.27.4-.81.4a2,2,0,0,1-1.08-.27l-.27.54a3.53,3.53,0,0,0,1.34.4c.94,0,1.48-.4,1.48-1.08s-.4-.81-1.08-.94h-.27c-.27,0-.54-.13-.54-.27s.27-.4.67-.4a2.54,2.54,0,0,1,1.08.27Zm9.82,1.34a1.55,1.55,0,0,0,1.49,1.61H223a1.32,1.32,0,0,0,1.08-.4l-.27-.54a1.94,1.94,0,0,1-.81.27,1.09,1.09,0,0,1,0-2.15,1.94,1.94,0,0,1,.81.27l.4-.4a1.53,1.53,0,0,0-1.08-.4,1.79,1.79,0,0,0-1.75,1.75Zm-4.57-1.61a1.55,1.55,0,0,0-1.61,1.49h0v.12a1.48,1.48,0,0,0,1.34,1.61h.27a2.27,2.27,0,0,0,1.34-.4l-.27-.54a1.12,1.12,0,0,1-.94.27A.89.89,0,0,1,216,700h2.42v-.27a1.52,1.52,0,0,0-1.56-1.48h-.05Zm0,.54a.71.71,0,0,1,.81.59.81.81,0,0,1,0,.22h-1.75a.89.89,0,0,1,.92-.81Zm-8.74,1.08v-1.61h-.67v.4a1.43,1.43,0,0,0-1.08-.54,1.62,1.62,0,0,0,0,3.23,1.22,1.22,0,0,0,1.08-.54v.4h.67Zm-2.69,0a1.06,1.06,0,0,1,1-1.08h0a1,1,0,0,1,.94,1.06h0a1,1,0,0,1-.91,1.08h0a1.16,1.16,0,0,1-1.1-1.08Zm25-1.61a.74.74,0,0,0-.81.54v-.4h-.67v3.23h.67v-1.88c0-.54.27-.81.67-.81a.49.49,0,0,1,.4.13l.27-.54c-.26-.27-.4-.27-.53-.27Zm5.25,2.69h.27v.54h-.54v-.54Zm0,.67h.13v-.27h-.27v.27Zm0-.4h.13l.13.13h0l-.13-.13h0v.13h0Zm-7.8-1.34v-1.61h-.67v.4a1.43,1.43,0,0,0-1.08-.54,1.62,1.62,0,1,0,0,3.23,1.22,1.22,0,0,0,1.08-.54v.4h.67Zm-2.56,0a1.06,1.06,0,0,1,1-1.08h0a1,1,0,0,1,.94,1.06h0a1,1,0,0,1-.91,1.08h0a1.06,1.06,0,0,1-1.08-1v0Zm9.15,0v-3h-.67v1.61a1.43,1.43,0,0,0-1.08-.54,1.62,1.62,0,1,0,0,3.23,1.22,1.22,0,0,0,1.08-.54v.4h.67Zm-2.69,0a1.06,1.06,0,0,1,1-1.08h0a1,1,0,0,1,.94,1.06h0a1,1,0,0,1-.91,1.08h0a1.06,1.06,0,0,1-1.09-1v-.06Z"/></clipPath><clipPath id="clip-path-3" transform="translate(0 0)"><rect class="cls-1" x="210.74" y="673.63" width="11.7" height="19.1"/></clipPath><clipPath id="clip-path-4" transform="translate(0 0)"><path class="cls-1" d="M212,683.18a12.25,12.25,0,0,1,4.71-9.55,12.13,12.13,0,1,0-7.53,21.65,12.36,12.36,0,0,0,7.53-2.56,12,12,0,0,1-4.71-9.55"/></clipPath><clipPath id="clip-path-5" transform="translate(0 0)"><path class="cls-1" d="M235.09,690.71v-.27h0Zm.81,0v-.54h-.13l-.13.27-.13-.27h-.13v.54h.13v-.27l.13.27h.13l.13-.27Z"/></clipPath><clipPath id="clip-path-6" transform="translate(0 0)"><path class="cls-1" d="M236.3,683.18a12,12,0,0,1-11.9,12.1h-.2a12.36,12.36,0,0,1-7.53-2.56A12,12,0,0,0,219,675.9a11.72,11.72,0,0,0-2.28-2.28,12.17,12.17,0,0,1,19.64,9.55"/></clipPath></defs><title>sharpayforusers_cn</title><g class="cls-2"><path class="cls-3" d="M0,0H676.21V719.59H0Z" transform="translate(0 0)"/><path class="cls-3" d="M181.42,19.94h0A14.25,14.25,0,0,1,195.66,5.69H442.51a14.26,14.26,0,0,1,14.25,14.25v57a14.25,14.25,0,0,1-14.25,14.24H195.66a14.26,14.26,0,0,1-14.24-14.24Z" transform="translate(0 0)"/><path class="cls-4" d="M181.42,19.94h0A14.25,14.25,0,0,1,195.66,5.69H442.51a14.26,14.26,0,0,1,14.25,14.25v57a14.25,14.25,0,0,1-14.25,14.24H195.66a14.26,14.26,0,0,1-14.24-14.24Z" transform="translate(0 0)"/><path class="cls-5" d="M298.43,50.45h-4.31v5.06h-1.33V50.45h-4a8.25,8.25,0,0,1-2,5.55l-1.07-1.06a6.67,6.67,0,0,0,1.8-4.64V41.8h12.28V54.43a1,1,0,0,1-.78,1.08,1.31,1.31,0,0,1-.28,0h-1.86L296.51,54h1.66a.23.23,0,0,0,.26-.2V50.45Zm-9.62-3.72V49.2h4V46.73Zm0-3.72v2.47h4V43Zm5.31,3.72V49.2h4.31V46.73Zm0-3.72v2.47h4.31V43Z" transform="translate(0 0)"/><path class="cls-5" d="M317,43.81c0,1.06-.06,2.28-.06,3.65s0,2.38.06,3.13h-1.47v-1h-9.22a15.22,15.22,0,0,1-.67,3.19,14.61,14.61,0,0,1-.86,1.89,14.23,14.23,0,0,1-1,1.56,4.67,4.67,0,0,0-1.45-.8,8.44,8.44,0,0,0,1.81-2.61,10.52,10.52,0,0,0,.67-2.33,16.78,16.78,0,0,0,.17-2.35c0-.85,0-2.29-.08-4.33Zm-1.5,4.59V45h-9.24v3.4Zm-4.78-7.84a22.87,22.87,0,0,1,1.12,2.53,4.55,4.55,0,0,0-1.33.45,13,13,0,0,0-1.06-2.45A6.43,6.43,0,0,0,310.72,40.56Zm13.75,14.81a10.69,10.69,0,0,0,2-2.59,6.77,6.77,0,0,0,.86-2.66,22.36,22.36,0,0,0,.14-2.59V45c-1,0-1.92,0-2.86.06V43.81c.8,0,1.47.08,2,.08h6.64a16.63,16.63,0,0,0,1.86-.08v1.26c-.66,0-1.37-.06-2.12-.06h-4.25v2.25h5.11a17.75,17.75,0,0,0-.21,2.06l-.32,4.78a1.77,1.77,0,0,1-.89,1.57,6,6,0,0,1-2.3.43,3.62,3.62,0,0,0-.53-1.46,7.66,7.66,0,0,0,1.79,0c.36-.06.6-.4.74-1l.33-5.17h-3.72c-.1,1.06-.21,2-.35,2.69a8.14,8.14,0,0,1-.86,2.39,11.21,11.21,0,0,1-2,2.69A4.92,4.92,0,0,0,324.47,55.37Zm1.32-3.25c-.88.79-1.59,1.43-2.12,1.92s-1,1-1.47,1.39c-.35-.39-.66-.73-.92-1a1.43,1.43,0,0,0,.65-1.25v-6h-2.06V45.93c.53,0,1,.08,1.53.08h1.92q-.06,1.25-.06,2.58v4.25A25.75,25.75,0,0,0,325.32,51,2.2,2.2,0,0,0,325.79,52.12Zm-4-11.16c.39.44,1.1,1.39,2.12,2.85-.31.23-.69.49-1.14.79a23.2,23.2,0,0,0-2-2.92,8.84,8.84,0,0,0,1-.68Zm6.3.27a4.22,4.22,0,0,0,1.14-.67,16.36,16.36,0,0,1,1.51,2.59,5.29,5.29,0,0,0-1.25.59,13.32,13.32,0,0,0-1.38-2.51ZM348,46c-.05,1-.07,2-.07,3s0,2,.07,2.79h-6.58c0-.93.06-1.84.06-2.72s0-1.9-.06-3Zm3.78-4.25c0,.83-.07,1.69-.07,2.58v10c0,.84-.24,1.34-.73,1.5a14.47,14.47,0,0,1-2.06.42,2.78,2.78,0,0,0-.6-1.59,11.53,11.53,0,0,0,1.66-.07c.18,0,.29-.24.34-.59V42.89h-3.86c-1.1,0-2.1,0-3,.06V41.68c.88,0,1.86.08,2.92.08ZM339.5,44.27c-.05.75-.07,1.37-.07,1.86v10H338c.05-.89.07-1.71.07-2.46V46.46a21.36,21.36,0,0,0-.07-2.18Zm7.1,6.37v-3.5h-3.85v3.51Zm-6.51-9.89c.53.71,1.17,1.48,1.92,2.33l-1.19.86A11.62,11.62,0,0,0,339,41.61c.41-.34.79-.61,1.1-.85Z" transform="translate(0 0)"/><path class="cls-5" d="M359.18,41.68a18,18,0,0,1-1.06,3.66l.2.06c.13.14.08.27-.14.41v10h-1.32V47.6a6.63,6.63,0,0,1-1.46,1.79l-1-1.07A12.49,12.49,0,0,0,357.79,41l1.6.39C359.56,41.53,359.5,41.64,359.18,41.68Zm.39,1.27a30.92,30.92,0,0,0,8.05-1.19l.86,1.39c.08.22-.07.26-.47.13-.93.17-1.94.33-3,.46V48h4.37v1.27H365V53.9h3.9v1.27h-9.42V53.9h4.19V49.26h-4.78V48h4.78V44c-1.51.18-2.78.28-3.8.33Zm15.35,13h-1.33V47.3a11.92,11.92,0,0,1-1.39,2l-.94-1.18a12.85,12.85,0,0,0,3.13-7.25l1.47.34c.21.08.15.23-.21.45a18.81,18.81,0,0,1-.93,3.46l.34.14c.26.08.21.21-.14.39Zm8.56-1.73c.27,0,.39-.07.34-.33V43.35h-7.57V42.09h10.62v1.26h-1.72V54.71a.94.94,0,0,1-.79,1.07H382.5l-.27-1.47ZM382,45.87v6.37h-1.33V52H378v.94h-1.32V45.87Zm-1.33,1.27H378v3.57h2.6ZM394,50a12.69,12.69,0,0,1-2.39,3.85l-.73-1a14.19,14.19,0,0,0,2.32-3.91c-.66-1-1.35-1.93-2.06-2.86l.67-.67c.62.71,1.17,1.4,1.66,2.06.18-1.06.31-2.14.39-3.25l1.14.27c.35.13.33.26-.08.39-.12,1.06-.3,2.28-.53,3.66.63.84,1.2,1.66,1.74,2.45l-.68,1.14Zm-3.45-6.78v12.3H389.2V42H403V54.31c0,.71-.33,1.06-1,1.06h-1.66L400,54.1h1.39a.18.18,0,0,0,.2-.16V43.21Zm7.83,4.66a31.13,31.13,0,0,0,.53-3.72l1.06.13c.45.13.45.29,0,.46a33.65,33.65,0,0,1-.72,4.11c.66.94,1.23,1.83,1.72,2.66l-.66,1.06c-.53-.88-1-1.7-1.53-2.45a11.5,11.5,0,0,1-2.33,4L395.7,53a10.79,10.79,0,0,0,2.2-3.92,24.76,24.76,0,0,0-2-2.78l.67-.74c.54.67,1.13,1.44,1.79,2.31Zm9.37-1.41q.45,2.6.72,5.19l-1.33.13c-.18-1.64-.44-3.32-.8-5Zm7.44-5.37h1.25c.35,0,.38.18.08.4v2.66h4V45.4h-4v2.92H420v7.32h-1.33v-.8H414.1v.94h-1.33V48.32h2.39Zm-2.66,4.39h-6.78V44.21h2.86v-3h1.27q.53.06.06.39v2.59h2.59Zm-6,8.83c-.14.45-.29.47-.47.06L405.61,53l3.78-.47A52.84,52.84,0,0,0,410,46l1.68.39c.39.18.34.33-.15.47a55.25,55.25,0,0,1-.85,5.58l1.65-.27v1.19Zm7.58-.74h4.57v-4h-4.57Z" transform="translate(0 0)"/><path class="cls-5" d="M437.2,47.21l-.53.91-3-1.77v3H432.6v-3l-3,1.79-.53-.93,3.16-1.72-3.16-1.71.53-.91,3,1.77-.06-3h1.07l-.06,3,3-1.77.53.92L434,45.49Z" transform="translate(0 0)"/><path class="cls-3" d="M8,643.07H8a14.25,14.25,0,0,1,14.25-14.24H269.09a14.25,14.25,0,0,1,14.25,14.23h0v57a14.25,14.25,0,0,1-14.25,14.25H22.25A14.25,14.25,0,0,1,8,700.07H8Z" transform="translate(0 0)"/><path class="cls-4" d="M8,643.07H8a14.25,14.25,0,0,1,14.25-14.24H269.09a14.25,14.25,0,0,1,14.25,14.23h0v57a14.25,14.25,0,0,1-14.25,14.25H22.25A14.25,14.25,0,0,1,8,700.07H8Z" transform="translate(0 0)"/><path class="cls-5" d="M92.61,653.94a5,5,0,0,0,1.86,1.6V651H90.28v-1.25h9.63V651H95.8v1.47h3.12v1.26H95.8V656a6.56,6.56,0,0,0,1.53.14h2.72l-.21,1.27H97.19a6.15,6.15,0,0,1-5-2.2,7,7,0,0,1-2.33,2.47L89,656.61a6.89,6.89,0,0,0,2.8-4.86l1.39.33c.31.18.27.31-.14.41Zm-4.39-3.84,1.33-.47.26,1.12-1.59.68v5a.94.94,0,0,1-.79,1.07h-1.6l-.19-1.27h1a.24.24,0,0,0,.26-.22v-4.16l-1.51.6c-.1.31-.19.38-.27.2l-.41-1.53,2.19-.67v-3.91H85v-1.26h1.86v-2.86h1.27c.35,0,.37.17.06.4v2.46h1.94v1.26H88.22Zm3.06-7.05h7.38v5.58H91.28Zm1.13,1.06v1.21h5.11v-1.21Zm0,2.27v1.19h5.11v-1.19Zm11.09-1.8h-1.33v-1.26h8.56v1.26h-2v12.89H107.4v-3.39a46,46,0,0,1-4.72,1.46c-.22.31-.35.38-.4.2l-.39-1.66,1.59-.26Zm5.7,11.56a12.86,12.86,0,0,0,3.19-2.92,14.64,14.64,0,0,1-2.12-6.58h-.8v-1.26h5.72l.26-.33,1.13,1.06-.33.21a18.36,18.36,0,0,1-2.12,7,10.18,10.18,0,0,0,2.78,2.45l-.8,1.4a17.07,17.07,0,0,1-2.84-2.73,25.35,25.35,0,0,1-3.13,3Zm4-4.06a13.52,13.52,0,0,0,1.59-5.44h-3.25a13.56,13.56,0,0,0,1.65,5.44Zm-8.36-7.5v2.27h2.59v-2.27Zm0,3.33v2.19h2.59v-2.19Zm0,3.25v2.39a21.19,21.19,0,0,0,2.59-.73v-1.66Z" transform="translate(0 0)"/><path class="cls-6" d="M128.14,643.25c.48,0,.5.22.06.54l.21,3.71,4.9-.53.21,1.27-4.93.53c.32,3.05,1.18,5.13,2.6,6.23.66.54,1,.4,1.12-.39l.14-1.2,1.39.73-.2,1q-.58,3-3,1.33-3-2.06-3.46-7.58l-3.72.35L123.4,648l3.58-.33-.19-4.51Zm-9.3,6.64q2.4-1.92,3.52-6.9l1.45.47q.41.25-.18.33a16.86,16.86,0,0,1-1.21,3.59q.8.12.21.45v9.5H121.3v-7.9a8.37,8.37,0,0,1-1.47,1.73Zm11.35-6.17a11.77,11.77,0,0,1,1.94,1.72l-1.21,1.14a8,8,0,0,0-1.79-1.79Z" transform="translate(0 0)"/><path class="cls-6" d="M150.25,644.25c-.62.09-2.71.24-6.25.47v3h5.72c0,.88-.06,1.77-.06,2.66V654c0,.93-.26,1.49-.77,1.69a14.58,14.58,0,0,1-2.16.56,4.86,4.86,0,0,0-.67-1.53,6.86,6.86,0,0,0,1.75-.13c.29-.09.44-.44.44-1.06v-4.66H144v6c0,1,0,2,.08,2.92h-1.47c0-1,.06-1.94.06-2.92v-6H138.5v6.91H137c0-1,.06-1.87.06-2.72v-2.51c0-.89,0-1.82-.06-2.8h5.64v-2.92q-4.11.13-6,.26a4.35,4.35,0,0,0-.47-1.26c1.6,0,3.81,0,6.64-.16a36.22,36.22,0,0,0,6.64-.83A10.88,10.88,0,0,0,150.25,644.25Z" transform="translate(0 0)"/><path class="cls-6" d="M168.55,649.27l-.92,1.37L165,648.83l.09,2.94H163.3l.06-2.88-2.61,1.75-.9-1.37,3-1.73-2.94-1.75.89-1.4,2.61,1.77-.06-2.87h1.75l-.06,2.89,2.64-1.75.92,1.37-3,1.72Zm12.32,0-.92,1.37-2.66-1.81.09,2.94h-1.76l.06-2.88-2.61,1.75-.91-1.37,3-1.73-2.94-1.75.89-1.4,2.61,1.77-.06-2.87h1.75l-.07,2.89,2.65-1.75.92,1.37-3,1.72Zm12.32,0-.93,1.37-2.65-1.81.09,2.94h-1.76l.06-2.88-2.61,1.75-.91-1.37,3-1.73-2.94-1.75.89-1.4,2.61,1.77-.06-2.87h1.75l-.07,2.89,2.64-1.75.93,1.37-3,1.72Zm12.32,0-.93,1.37-2.65-1.81.09,2.94h-1.76l.06-2.88-2.61,1.75-.91-1.37,3-1.73-2.94-1.75.89-1.4,2.61,1.77-.06-2.87H202l-.07,2.89,2.64-1.75.93,1.37-3,1.72Z" transform="translate(0 0)"/><path class="cls-3" d="M211.2,19.25h58.36V77.61H211.2Z" transform="translate(0 0)"/><circle class="cls-7" cx="240.49" cy="48.7" r="28.98" transform="translate(89.39 242.03) rotate(-63.44)"/><path class="cls-8" d="M252,33.82c.28,0,.43.21.57.35,5.39,5.31,10.7,10.7,16.08,16,.14.14.28.43.57.43a17.77,17.77,0,0,1-.64,4.75,29.05,29.05,0,0,1-12,17.5V66.41A5.65,5.65,0,0,0,255,62.23a5.86,5.86,0,0,0-2.27-1.42A27,27,0,0,0,248,60a.64.64,0,0,0-.5-.21.9.9,0,0,1-.71-.35,6.32,6.32,0,0,0-1.06-1.35.44.44,0,0,1-.14-.5c.14-1.35-.35-2.76.43-4a17.11,17.11,0,0,0,2.83-3.83c.14-.35.28-.57.78-.5a1.17,1.17,0,0,0,1.13-.43A4.32,4.32,0,0,0,252,45.16a2.47,2.47,0,0,0-1.13-2,12.76,12.76,0,0,0,1.35-7.58A11.6,11.6,0,0,0,252,33.82Z" transform="translate(0 0)"/><path class="cls-9" d="M224.49,72.72V66.27a5.92,5.92,0,0,1,.92-3.33,5.26,5.26,0,0,1,3.26-2.34c1.35-.28,2.69-.5,4-.78H233c.92,1.63,1.91,3.19,2.83,4.82l3.61,6.16c.28.43.57.85.85,1.35a4,4,0,0,0,.14-.57c-.14-2-.07-3.9-.07-5.88V60.18a.55.55,0,0,1,.28.07l1.91,1.91a2.55,2.55,0,0,1-.71,1,2,2,0,0,0-.5,1.35v6.31c-.07.07-.07.21-.14.28a4.93,4.93,0,0,0-.78,1.42,14.34,14.34,0,0,0-.14,3,10.83,10.83,0,0,1,0,2.13,27.25,27.25,0,0,1-10.06-1.84,25.12,25.12,0,0,1-5.67-2.91C224.63,72.93,224.56,72.79,224.49,72.72Z" transform="translate(0 0)"/><path class="cls-10" d="M240.43,77.68a10.83,10.83,0,0,0,0-2.13,10.42,10.42,0,0,1,.14-3,4.93,4.93,0,0,1,.78-1.42c.07-.07.07-.21.14-.28,1.28-2,2.48-4,3.61-6.09,1-1.63,1.91-3.26,2.91-4.89a26.27,26.27,0,0,1,4.75.85A4.83,4.83,0,0,1,255,62.16a5.63,5.63,0,0,1,1.63,4.18v6.45A28.35,28.35,0,0,1,240.43,77.68Z" transform="translate(0 0)"/><path class="cls-11" d="M229.3,47a7,7,0,0,1-.21-1.28A3,3,0,0,1,230.23,43a1,1,0,0,0,.35-.57,10.41,10.41,0,0,1,1.7-2.55c1.06-1.13,1.77-1.2,3-.28a12.4,12.4,0,0,0,5.17,2.2h0c.07.07.14.14.21.14-.14.14-.28.21-.21.43a3.24,3.24,0,0,1,.07,1.42V55.86h-.07a.62.62,0,0,0-.28-.14,5.69,5.69,0,0,1-3-.92,4.53,4.53,0,0,0-1.28-.78c0-.14,0-.35-.21-.28a12,12,0,0,1-3.19-4.11c-.14-.28-.28-.64-.85-.5a1.38,1.38,0,0,1-1.35-.64c-.14-.21-.43-.35-.43-.64A1.82,1.82,0,0,0,229.3,47Z" transform="translate(0 0)"/><path class="cls-12" d="M252,33.82c.07.57.14,1.13.21,1.63A12.81,12.81,0,0,1,250.92,43c-.28.07-.35-.21-.5-.28a2.91,2.91,0,0,0-2-.78c-.63.1-1.27.17-1.91.21a19.39,19.39,0,0,1-5.74-.28.54.54,0,0,0-.35-.07h0V30.07a1.91,1.91,0,0,1,.14-.85,9,9,0,0,1,3.83,1,48,48,0,0,0,7.09,3A.69.69,0,0,1,252,33.82Z" transform="translate(0 0)"/><path class="cls-13" d="M240.57,29.21a3.51,3.51,0,0,0-.14.85V41.83a13.42,13.42,0,0,1-5.17-2.2c-1.2-.85-2-.85-3,.28a10.14,10.14,0,0,0-1.7,2.55,1,1,0,0,1-.35.57,14.67,14.67,0,0,1,.07-7,4.89,4.89,0,0,1,5-4.18c.28,0,.5,0,.64-.28a3.72,3.72,0,0,1,3.4-2.27A4.37,4.37,0,0,1,240.57,29.21Z" transform="translate(0 0)"/><path class="cls-14" d="M235.61,53.8c.21,0,.21.14.21.28v3.26c0,.35,0,.64.43.85a7.61,7.61,0,0,0,1.13.5c1,.5,2.05.78,3,1.35v.21c-.57.57-1.2,1.13-1.77,1.77-.14.14-.21.21-.14.43-.28-.07-.43.14-.57.28-.64.64-1.35,1.28-2,2-.92-1.63-1.91-3.19-2.83-4.82.14-.07.28-.21.35-.21.78.14.92-.5,1.28-.85s.35-.71.78-.78c.14-.07.14-.28.14-.43C235.61,56.35,235.61,55.08,235.61,53.8Z" transform="translate(0 0)"/><path class="cls-15" d="M229.3,47a1.06,1.06,0,0,1,.43.92C229.23,47.78,229.23,47.35,229.3,47Z" transform="translate(0 0)"/><path class="cls-16" d="M240.78,41.9a19.39,19.39,0,0,0,5.74.28c.63-.1,1.27-.17,1.91-.21a2.91,2.91,0,0,1,2,.78c.14.14.28.35.5.28A2.3,2.3,0,0,1,252,45.09a4.32,4.32,0,0,1-1.35,3.61,1.31,1.31,0,0,1-1.13.43c-.5-.07-.64.14-.78.5A15,15,0,0,1,246,53.45a3.41,3.41,0,0,0-.71.71,1.45,1.45,0,0,0-.78.5,6.46,6.46,0,0,1-4,1.28V43.81a3.1,3.1,0,0,0-.07-1.42c-.07-.21.07-.28.21-.43S240.71,41.9,240.78,41.9Z" transform="translate(0 0)"/><path class="cls-17" d="M240.43,60.25v-.14c.07,0,.07,0,.14-.07,1.56-.78,3.19-1.28,4.75-2.13h.35c.5.28.71.85,1.06,1.35.21.28.43.43.71.35a.64.64,0,0,1,.5.21c-1,1.63-1.91,3.26-2.91,4.89-.07-.21-.21-.28-.35-.43l-2.13-2.13-1.91-1.91S240.57,60.18,240.43,60.25Z" transform="translate(0 0)"/><path class="cls-18" d="M245.67,57.91h-.35v-.07a12.76,12.76,0,0,0,.07-2.83c0-.28.14-.57-.07-.85h0a3.41,3.41,0,0,1,.71-.71c-.85,1.28-.28,2.69-.43,4C245.46,57.63,245.6,57.77,245.67,57.91Z" transform="translate(0 0)"/><path class="cls-15" d="M236,64.71c.64-.64,1.35-1.28,2-2,.14-.14.28-.35.57-.28a3,3,0,0,1,.5.57,2.24,2.24,0,0,1,.64,1.7c-.07,1.84,0,3.68,0,5.53,0,.21.07.43-.07.57C238.37,68.82,237.17,66.77,236,64.71Z" transform="translate(0 0)"/><path class="cls-18" d="M242.63,62.23l2.13,2.13c.14.14.28.21.35.43-1.13,2-2.34,4.11-3.61,6.09V64.57a1.63,1.63,0,0,1,.5-1.35A3.33,3.33,0,0,0,242.63,62.23Z" transform="translate(0 0)"/><path class="cls-19" d="M239.58,70.88c.14-.14.07-.43.07-.57V64.78a2,2,0,0,0-.64-1.7c-.21-.21-.28-.43-.5-.57s0-.28.14-.43c.57-.57,1.2-1.13,1.77-1.77v5.46c0,2-.07,3.9.07,5.88a2.16,2.16,0,0,1-.14.57A13.67,13.67,0,0,1,239.58,70.88Z" transform="translate(0 0)"/><path class="cls-20" d="M245.32,57.84h0c-1.56.85-3.19,1.42-4.75,2.2a7.83,7.83,0,0,1-.14-1.28V55.93h.07a7.33,7.33,0,0,0,4-1.28,1.84,1.84,0,0,1,.78-.5h0C245.32,55.36,245.32,56.57,245.32,57.84Z" transform="translate(0 0)"/><path class="cls-21" d="M240.43,55.93v2.83a4,4,0,0,0,.14,1.28c-.07,0-.07,0-.14.07a26.94,26.94,0,0,0-3-1.35c-.35-.14-.78-.35-1.13-.5a.82.82,0,0,1-.43-.85V54.16a4.53,4.53,0,0,1,1.28.78,5.93,5.93,0,0,0,3,.92C240.29,55.79,240.36,55.79,240.43,55.93Z" transform="translate(0 0)"/><path class="cls-13" d="M240.78,41.9c-.07,0-.07,0-.14.07s-.21-.07-.21-.14A.54.54,0,0,1,240.78,41.9Z" transform="translate(0 0)"/><path class="cls-17" d="M245.32,57.84V54.16a.91.91,0,0,1,.07.85A12.76,12.76,0,0,1,245.32,57.84Z" transform="translate(0 0)"/><path class="cls-3" d="M8,175.73H8a14.25,14.25,0,0,1,14.25-14.25H269.09a14.25,14.25,0,0,1,14.25,14.23v57A14.25,14.25,0,0,1,269.11,247H22.25A14.25,14.25,0,0,1,8,232.75v-57Z" transform="translate(0 0)"/><path class="cls-4" d="M8,175.73H8a14.25,14.25,0,0,1,14.25-14.25H269.09a14.25,14.25,0,0,1,14.25,14.23v57A14.25,14.25,0,0,1,269.11,247H22.25A14.25,14.25,0,0,1,8,232.75v-57Z" transform="translate(0 0)"/><path class="cls-5" d="M93.85,198.74a17.57,17.57,0,0,0-.08-2.07H95.1q-.06.95-.06,2.07h4.12c.62,0,1.37,0,2.25-.07v1.27c-.88-.05-1.63-.08-2.25-.08H96.77a6,6,0,0,0,2.17,1.86,14.58,14.58,0,0,0,3.33,1.27,2.79,2.79,0,0,0-.92,1.32,13.16,13.16,0,0,1-3.5-1.79,9.71,9.71,0,0,1-2.41-2.66H95v3.66h4.18c0,.8-.06,1.69-.06,2.65s0,1.86.06,2.8H89.79c0-.84.08-1.75.08-2.73s0-1.92-.08-2.72c-.58.35-1.26.73-2.05,1.12a4.29,4.29,0,0,0-.94-1.18,8.32,8.32,0,0,0,2.92-1.33,8.53,8.53,0,0,0,2.33-2.27H90.13c-.8,0-1.65,0-2.53.08v-1.27c.88.05,1.73.07,2.53.07Zm5.7,11.62q1.13,0,2.19-.06v1.19c-1.68,0-2.85-.07-3.52-.07H89.79c-.79,0-1.59,0-2.39.07V210.3c.84,0,1.64.06,2.39.06ZM98,207.91v-1.2h-7v1.2Zm0-2.2v-1.13h-7v1.13Zm-4.11-2.19v-3.66h-.34a10.65,10.65,0,0,1-1.6,2,13.26,13.26,0,0,1-2,1.66Z" transform="translate(0 0)"/><path class="cls-5" d="M105.4,197.47a49.08,49.08,0,0,0,11.28-.92l.87,1.26c.13.31-.08.37-.61.19-2,.23-3.8.37-5.43.41-.1.31-.19.64-.27,1h6.84v1.06H111c-.13.4-.27.75-.4,1.06h8.76v1.07h-9.09c-.22.48-.4.83-.53,1.06h7.17v8h-1.12v-.59h-6.18v.73h-1.14v-6.39a12.74,12.74,0,0,1-3.72,2.8l-.53-1.39a9,9,0,0,0,4.6-4.25H104.4V201.5h4.84l.41-1.06h-4.13v-1.06h4.39c.09-.27.17-.58.27-.94-1.42,0-2.9.06-4.46.06Zm10.36,8.24v-1h-6.18v1Zm0,4.32v-1h-6.18v1Zm0-2.12v-1.14h-6.18v1.14Zm5.51-2.06a10.15,10.15,0,0,0,5-5.64h-4.45v-1.27h4.78a16.14,16.14,0,0,0,.32-2.39l1.74.33c.18.17.11.28-.2.33l-.33,1.73h8v1.27h-8.24a6.83,6.83,0,0,1-.61,1.51h6.58v8.84a.94.94,0,0,1-.79,1.07h-1.8l-.33-1.27h1.33a.23.23,0,0,0,.26-.2V208.3h-5.78v3.53h-1.33v-7.31a16.34,16.34,0,0,1-3.37,2.72Zm5.5-.27V207h5.78v-1.45Zm5.78-1.27V203h-5.78v1.32Zm17.67,1.33a17.15,17.15,0,0,1-1.32-5.51h-.61v9.5h-1.13v-2l-2.78.92c-.13.32-.25.32-.34,0l-.33-1.18,1.12-.27v-8.84h-.65V197.2h5.44v1.06h-1.33v.79h3.65l.21-.26,1.12,1.06-.2.2a17.42,17.42,0,0,1-1.45,5.58,7.85,7.85,0,0,0,1.85,1.92l-.73,1.41a7.81,7.81,0,0,1-1.8-2.12A11.5,11.5,0,0,1,149,209.3l-.59-1.27a7.31,7.31,0,0,0,1.81-2.39Zm.72-1.33a17.11,17.11,0,0,0,.88-4.18H150a12.77,12.77,0,0,0,.94,4.18Zm2.66,5.79-.19,1.26H145.3a6.24,6.24,0,0,1-5.31-2.59,7.58,7.58,0,0,1-1.12,3.19l-1-1a14.49,14.49,0,0,0,1.32-6.77l1.33.19c.14.13.1.27-.12.4-.06.93-.12,1.82-.21,2.66a8.73,8.73,0,0,0,.86.86v-5.44H138.4V201.8h2.65v-2h-2.18v-1.06h2.18v-2.13h1.07c.35,0,.37.18.06.41v1.72H144v1.06h-1.86v2h2.12v1.06h-2.12v2.31H144v1.07h-1.86v3a3.67,3.67,0,0,0,2.79.86Zm-6.44-5.46H146v2.21l1.19-.35Zm0-3.18H146v2.12h1.19Zm0-3.19H146v2.12h1.19Zm17.6,2.65a10.94,10.94,0,0,1-2.13,3.54l-1-1.21a11,11,0,0,0,2.84-6.44l1.41.47c.39.18.37.31-.08.39a19.62,19.62,0,0,1-.53,2h4.78l-.33,9c0,1.77-.75,2.65-2.12,2.65h-1.86l-.21-1.26h1.74c.61,0,.94-.4,1-1.21l.33-8Zm.79,6.19a15.18,15.18,0,0,0-2-2.39l1.12-1.2a14.7,14.7,0,0,1,2.13,2.33Zm-7.83-7.44c.26-.84.51-1.81.74-2.92l1.59.6c.18.17.11.28-.2.32a10.88,10.88,0,0,1-.73,2h2.45v11h-1.33v-.8h-2.92v1.33H156V199.67Zm2.52,1.25h-2.92v2.93h2.92Zm0,4.19h-2.92v3.45h2.92Zm23.45,2.72a51.79,51.79,0,0,0-3.86-3.84,8.47,8.47,0,0,1-3.71,4.57l-.93-1.32a7.16,7.16,0,0,0,3.72-6.58h-4.12v10.7h-1.53v-12H179V197h1.46c.45.08.47.26.08.53v1.8h6v10.48c0,.89-.42,1.33-1.26,1.33h-1.59l-.27-1.45h1.33a.24.24,0,0,0,.26-.22v-8.89H180.5a10.34,10.34,0,0,1-.19,2,24.69,24.69,0,0,1,4.44,3.72Zm17.19-1.45a14,14,0,0,1-4.25-3.39,13.4,13.4,0,0,1-3.45,3.39ZM197.3,202a14.69,14.69,0,0,0,7.3,4.25l-.39,1.53a12,12,0,0,1-3-1.19v5H199.9v-.41h-6.19v.67h-1.33v-5a8.46,8.46,0,0,1-2.51,1.26l-.6-1.4q5.17-2,7-5.77l1.39.46c.18.17.11.29-.2.34Zm-7.11.93a9.39,9.39,0,0,0,3.78-2.71l1,.92c.28.22.19.33-.26.33a12.78,12.78,0,0,1-3.78,2.73Zm9.71,7v-2.32h-6.19V210Zm-.27-9.43a16,16,0,0,0,4.05,2.19l-.6,1.33a13.75,13.75,0,0,1-4.25-2.52Zm2.78-1H191.13v1.93H189.8v-3.19H196v-1.66h1.46c.35,0,.38.18.08.41v1.25h6.23v3.06h-1.33Z" transform="translate(0 0)"/><path class="cls-3" d="M354.84,175.73h0a14.25,14.25,0,0,1,14.25-14.25H615.93a14.25,14.25,0,0,1,14.25,14.25v57A14.25,14.25,0,0,1,616,247H369.09a14.25,14.25,0,0,1-14.25-14.24Z" transform="translate(0 0)"/><path class="cls-4" d="M354.84,175.73h0a14.25,14.25,0,0,1,14.25-14.25H615.93a14.25,14.25,0,0,1,14.25,14.25v57A14.25,14.25,0,0,1,616,247H369.09a14.25,14.25,0,0,1-14.25-14.24Z" transform="translate(0 0)"/><path class="cls-22" d="M400.72,197.07a13.41,13.41,0,0,1,2.39,3.12l-1.59.8a15.27,15.27,0,0,0-2-3.25Zm-3.06.07a8.83,8.83,0,0,1,1.33,3.58l-1.66.41a14.51,14.51,0,0,0-1-3.53Zm-8.77,3.25a8.69,8.69,0,0,0,1.94-3.18l1.39.53a7.86,7.86,0,0,1-1.86,3.51Zm5.78-2.86a8.34,8.34,0,0,1,.41,3.54l-1.59.06a16.07,16.07,0,0,0-.21-3.53Zm5.19-2.51v-2.59h-7.44V195Zm-3.53-8.77c.35.05.38.18.08.39v1.47H402v1.25h-5.58v1.8h5v5.52H399.9v-.41h-7.44v.53h-1.53v-5.64h4v-4.91Z" transform="translate(0 0)"/><path class="cls-22" d="M412.35,189v-1.32a9.26,9.26,0,0,1-.08-1.39h1.4c-.05.53-.07,1-.07,1.39V189h3.45c.8,0,1.51,0,2.12-.06v1.27c-.61-.05-1.32-.08-2.12-.08H413.6V193h5a20.31,20.31,0,0,0,2.21-.07v1.19c-.59,0-1.32-.06-2.21-.06h-5v5.31h3.71v-2.72q0-.41-.06-1.2h1.47c-.05.57-.08,1-.08,1.2v2.78a16.64,16.64,0,0,0,.08,2h-1.41v-1h-10q.06-.8.06-1.65v-2.06a12,12,0,0,0-.06-1.21h1.45c0,.63-.06,1-.06,1.21v2.65h3.66V194h-4.79c-1,0-1.77,0-2.39.06v-1.19c.62,0,1.39.07,2.32.07h4.86v-2.8H409a16.52,16.52,0,0,0-2.12.08v-1.33L409,189Z" transform="translate(0 0)"/><path class="cls-6" d="M431.27,192.5l-.53.91-3-1.77v3h-1l.05-3-3,1.79-.53-.93,3.16-1.72-3.16-1.71.53-.91,3,1.77-.07-3h1.08l-.06,3,3-1.77.53.92-3.16,1.7Zm11,0-.53.91-3-1.77.05,3h-1.08v-3l-3,1.79-.53-.93,3.15-1.72-3.15-1.71.53-.91,3,1.77-.06-3h1.08l-.06,3,3-1.77.53.92-3.15,1.7Z" transform="translate(0 0)"/><path class="cls-22" d="M454.82,186.18a6.55,6.55,0,0,0,1.53.2,12.78,12.78,0,0,0-.18,1.5v2h3.72c0,.59-.08,1.23-.12,1.94l-.33,7.56A1.8,1.8,0,0,1,458.3,201a9.17,9.17,0,0,1-2,.44,4.4,4.4,0,0,0-.67-1.46,5,5,0,0,0,2-.17.89.89,0,0,0,.53-.9l.39-7.9h-2.39a30.32,30.32,0,0,1-.42,4.46,11.2,11.2,0,0,1-.94,2.81,14.86,14.86,0,0,1-2.54,3.36,3.57,3.57,0,0,0-1.21-.86,10.78,10.78,0,0,0,2.07-2.09,7.4,7.4,0,0,0,1.12-2.27,14.14,14.14,0,0,0,.45-2.42c.1-.84.17-1.84.22-3h-1.14a15.78,15.78,0,0,0-1.72.07V189.8q1,.06,1.86.06h1V188C454.89,187.42,454.87,186.8,454.82,186.18Zm-10.22,5.65c.66,0,1.46.06,2.39.06h2.51c.8,0,1.72,0,2.74-.06V193c-1,0-1.91-.06-2.66-.06h-.73c-.27.71-.58,1.46-.91,2.26a19.37,19.37,0,0,1-1.16,2.38c1.73-.18,3-.36,3.93-.53a14.25,14.25,0,0,0-1.07-2,8,8,0,0,0,1.07-.67c.43.8.81,1.48,1.12,2a21.79,21.79,0,0,1,1,2q-.58.36-1.2.66c-.18-.4-.33-.73-.46-1l-3.42.55a12,12,0,0,0-2.23.51,7.1,7.1,0,0,0-.66-1.25,4.62,4.62,0,0,0,1.55-2.12,20.61,20.61,0,0,0,1-2.86H447c-.93,0-1.73,0-2.39.06Zm4.57-3.72c.75,0,1.6,0,2.54-.08v1.27c-.94,0-1.79-.06-2.54-.06h-1.59c-.71,0-1.4,0-2.06.06V188c.62.06,1.29.08,2,.08Z" transform="translate(0 0)"/><path class="cls-22" d="M474.94,199v-9.23h1.27q.53.06.06.39v10.91h-1.33v-.8H464.25v.86h-1.33V189.71h1.25c.36,0,.38.17.08.39V199ZM469,196.47v-2.12h-2v2.12Zm3.19-2.12h-2.06v2.12h2.06Zm0-1.07v-1.92h-2.06v1.92Zm4.85-5h-6.91v2h3.19v7.23h-7.5V190.3H469v-2h-6.78v-1.25H477Zm-8,5v-1.92h-2v1.92Zm12.41,3.19q4.92-1.38,6.78-4.37l1.45.33c.18.17.12.28-.18.32l-.61.8h3.45l.14-.27,1.06.8c.36.22.36.38,0,.47q-3.72,6-12.54,6.84l-.41-1.46a17,17,0,0,0,6.44-1.54,6.52,6.52,0,0,0-1.92-1.78,31.5,31.5,0,0,1-3,1.19Zm-1.19-2.72a14.73,14.73,0,0,0,5-1.65,12.88,12.88,0,0,0-1.86-1.6,12.39,12.39,0,0,1-2.39,1.19l-.67-1.26c2.57-1,4.23-2.45,5-4.32l1.33.41c.14.18.07.29-.2.33l-.39.59h4.18l.13-.33,1.06.8c.36.22.36.37,0,.47q-3.31,5-10.56,6.7Zm6.32-2.45a9.65,9.65,0,0,0,2.92-2.59h-4.2a8.17,8.17,0,0,1-.94.92,22.46,22.46,0,0,1,2.21,1.67Zm-.21,4.58a10.71,10.71,0,0,1,2.13,1.72,11.51,11.51,0,0,0,3-2.78h-3.78a10.78,10.78,0,0,1-1.36,1.06Zm19.72-2.72a31.25,31.25,0,0,0,1.47-3.72l1.52.53c.35.18.31.31-.13.39a24.37,24.37,0,0,1-1.39,3.39ZM503,195.61h-6.51v-1.26H503v-5.91h-5.71v-1.26H510v1.26h-5.64v5.91h6.56v1.26h-6.56V201H503Zm-3.65-6.11a10.58,10.58,0,0,1,1.79,3.32l-1.46.67a13.13,13.13,0,0,0-1.66-3.33Zm27.36,4.05-1.07-1.06-11.56.47c0,.35-.15.44-.33.26l-.32-1.73h2.86q1.59-2.66,3-5.31l1.39.53c.27.23.18.38-.27.47-.88,1.45-1.81,2.88-2.78,4.31l7.1-.06a24.9,24.9,0,0,0-2.66-2.25l1-.88a35.42,35.42,0,0,1,4.78,4.13Zm-2.6,7.44v-.72H517v.86h-1.32v-6.64h9.76V201ZM517,199h7.11v-3.26H517Zm25.18-6.18-.27,5.39c-.08,1.85-.72,2.78-1.92,2.78h-2l-.19-1.46h1.66c.57,0,.88-.38.92-1.14l.26-4.31H537l-.07.53c-.31,2.44-2,4.68-5.24,6.72l-1-1.26q4.32-2.48,4.78-5.19l.13-.8h-2.52v-1.26Zm-6-5.24a17.82,17.82,0,0,1-5.13,6.3L530,192.63a14,14,0,0,0,5-6.19l1.26.8c.33.18.29.29-.06.34Zm8.23,6.3a12.57,12.57,0,0,1-5.39-7l1.27-.53a10.9,10.9,0,0,0,5.11,6.11Zm14.47-.45.27-.27,1.32,1.06c.14.22,0,.31-.46.27l-4.52,1.78v.53h6.64v1.27h-6.64v2.2a.93.93,0,0,1-.78,1.06h-2.06l-.27-1.47H554a.23.23,0,0,0,.26-.2v-1.59h-7.17V196.8h7.17v-1.45l1.06.12,1.86-1h-8v-1.06ZM550,189.5h9.16v3.13H550Zm1.12,1.07v1H558v-1Zm-3.78-2.93H554v-1.53h1.26c.36,0,.38.18.06.41v1.12h6.46v1.07H547.39Zm26.83,2.72a15.2,15.2,0,0,1-.73,2.19h5.7v1.27h-2a11.91,11.91,0,0,1-1.47,3.86,36.63,36.63,0,0,1,3.12,2l-.92,1.33q-1.93-1.53-3.06-2.25a10.49,10.49,0,0,1-5.71,2.65l-.4-1.39a10,10,0,0,0,5-2c-.67-.39-1.33-.77-2-1.12a3.94,3.94,0,0,1-.34.72l-1.13-.53a31.66,31.66,0,0,0,1.47-3.25H569.1v-1.27h3.18c.32-.93.61-1.85.88-2.78l1.12.26c.26.08.24.18-.06.31ZM569,194.75a16.25,16.25,0,0,1-1.93.66v4.92c0,.62-.35.92-1.06.92h-1l-.27-1.45h.86a.24.24,0,0,0,.27-.21v-3.85a11.33,11.33,0,0,1-1.27.34c-.08.26-.19.3-.33.13l-.33-1.46c.67-.09,1.31-.2,1.93-.34v-3.78h-1.72v-1.27h1.72v-3.18h1.26c.36,0,.38.18.06.4v2.78h1.6v1.27h-1.6v3.51a8.68,8.68,0,0,0,1.66-.53Zm9.7-3.32h-1.33v-2.07h-6.78v2.07H569.3v-3.32h4v-2.06h1.26q.54.06.06.39v1.67h4.13Zm-6.52,4.45a20.43,20.43,0,0,1,2.33,1.19,9.5,9.5,0,0,0,1.27-3.25H573.1a17.32,17.32,0,0,1-.82,2.06Z" transform="translate(0 0)"/><path class="cls-22" d="M588.75,200.8c-.65,0-1.34,0-2,.06v-1.14c.61.05,1.43.08,2.45.08l.47-5.52a16.53,16.53,0,0,0-2.06.07v-1.13c.57,0,1.28.06,2.12.06l.27-4.57c-.75,0-1.55,0-2.39.06v-1.13c.79.05,1.56.07,2.32.07h5.58c-.09.66-.16,1.42-.2,2.26l-.53,9.83a10.07,10.07,0,0,0,1.53-.08v1.14q-.67-.06-1.74-.06Zm-8-9a14.91,14.91,0,0,0,1.8-2.83,18.12,18.12,0,0,0,1.19-2.75,11.15,11.15,0,0,0,1.26.46c-.18.27-.55,1-1.12,2.06,1.41,0,2.5,0,3.25-.06v1.12q-1.07-.06-3.66-.06c-.44.75-.81,1.37-1.12,1.86.66,0,1.33.06,2,.06s1.43,0,2.18-.06v1.12q-1.2-.06-1.92-.06v2.19q1.13,0,2.31-.06v1.12q-1.18-.06-2.31-.06V199a22.06,22.06,0,0,0,2-1.74,6.46,6.46,0,0,0,.46,1.2,11.05,11.05,0,0,0-1.62,1.27q-1,.93-1.77,1.53a4.11,4.11,0,0,0-.86-1,2,2,0,0,0,.6-1.47v-3q-.87,0-1.86.06v-1.12q1,.06,1.86.06v-2.19a9.36,9.36,0,0,0-1.27.06v-.86l-.53.74a4.6,4.6,0,0,0-.9-.75Zm12.81,8,.27-5.58h-3l-.47,5.58Zm.35-6.58.26-4.57h-2.92l-.34,4.57Z" transform="translate(0 0)"/><path class="cls-22" d="M457.54,221.11a11.9,11.9,0,0,1-2.31-.22,6.54,6.54,0,0,1-1.72-.51l.58-2.47h.26l.47.36a5.39,5.39,0,0,0,.8.39,9,9,0,0,0,1,.33,5.84,5.84,0,0,0,1.25.14,3.51,3.51,0,0,0,1.5-.24.69.69,0,0,0,.52-.65.55.55,0,0,0-.36-.52,9.59,9.59,0,0,0-1.48-.42,6.51,6.51,0,0,1-2.6-1.06,2,2,0,0,1-.7-1.56,2.81,2.81,0,0,1,1.41-2.49,7,7,0,0,1,3.81-.91,10.52,10.52,0,0,1,2.09.22,7,7,0,0,1,1.55.44l-.55,2.36h-.26a4.84,4.84,0,0,0-1.43-.73,5,5,0,0,0-1.71-.3,3.87,3.87,0,0,0-1.47.23.76.76,0,0,0-.5.71.61.61,0,0,0,.43.56,9.63,9.63,0,0,0,1.39.41,6.64,6.64,0,0,1,2.54.95,1.89,1.89,0,0,1,.78,1.62,2.77,2.77,0,0,1-1.44,2.47A7.17,7.17,0,0,1,457.54,221.11Zm17.61-7.47v.52a4.5,4.5,0,0,1-.11.64l-1.39,6.06h-3l1.07-4.62c.08-.36.13-.65.18-.89a3,3,0,0,0,.07-.66,1,1,0,0,0-.28-.8,1.61,1.61,0,0,0-1-.25,2.66,2.66,0,0,0-.83.16,6,6,0,0,0-1,.45l-1.52,6.61h-3l3-12.92h3l-1.06,4.63a11,11,0,0,1,1.67-.94,3.94,3.94,0,0,1,1.69-.35,2.81,2.81,0,0,1,1.95.63,2.2,2.2,0,0,1,.56,1.73Zm8.09,2.82a12.07,12.07,0,0,0-1.5.17,5.3,5.3,0,0,0-1.18.26,1.63,1.63,0,0,0-.77.52,1.31,1.31,0,0,0-.27.87.73.73,0,0,0,.35.69,2.15,2.15,0,0,0,1,.19,2.78,2.78,0,0,0,.94-.2,5.31,5.31,0,0,0,1-.53Zm-.79,3.42c-.19.11-.42.26-.69.44a6.3,6.3,0,0,1-.72.4,5.19,5.19,0,0,1-.87.28,4.29,4.29,0,0,1-1.13.11,2.82,2.82,0,0,1-1.91-.64,2.19,2.19,0,0,1-.73-1.7,3.28,3.28,0,0,1,.52-1.88,3.68,3.68,0,0,1,1.56-1.23,9,9,0,0,1,2.29-.61c.89-.13,1.85-.23,2.88-.28v-.17a1,1,0,0,0,0-.25.85.85,0,0,0-.54-.83,4.22,4.22,0,0,0-1.65-.24,6.36,6.36,0,0,0-1.62.25c-.59.17-1,.31-1.34.41h-.27l.44-2.2c.34-.09.88-.18,1.61-.3a14.45,14.45,0,0,1,2.18-.17,6.86,6.86,0,0,1,3.22.58,1.9,1.9,0,0,1,1,1.78,2.94,2.94,0,0,1,0,.42,1,1,0,0,1-.07.47l-1.47,6.34h-3Zm14-5.49h-.26a2.87,2.87,0,0,0-.57-.11h-.71a6.3,6.3,0,0,0-1.15.1,7.27,7.27,0,0,0-1.12.26l-1.44,6.25h-3l2.15-9.33h3l-.31,1.38a9.2,9.2,0,0,1,1.68-1,4,4,0,0,1,1.69-.39h.7Z" transform="translate(0 0)"/><path class="cls-23" d="M507.78,214.52a7.59,7.59,0,0,1-.43,2.5,6.92,6.92,0,0,1-1.14,2.08,5.79,5.79,0,0,1-1.72,1.43,4.24,4.24,0,0,1-2.12.52,5.79,5.79,0,0,1-1.38-.17,4.29,4.29,0,0,1-1.12-.49l-.89,3.89h-3l3-12.75h3l-.22,1a8.7,8.7,0,0,1,1.56-.91,3.78,3.78,0,0,1,1.59-.33,2.72,2.72,0,0,1,2.16.86A3.49,3.49,0,0,1,507.78,214.52Zm-3.9,3.26a4.11,4.11,0,0,0,.54-1.21,6,6,0,0,0,.2-1.52,1.73,1.73,0,0,0-.34-1.16,1.47,1.47,0,0,0-1.18-.4,2.57,2.57,0,0,0-.87.15,7.75,7.75,0,0,0-.89.39l-1.08,4.69a2.16,2.16,0,0,0,.61.19,4.49,4.49,0,0,0,.73.06,2.72,2.72,0,0,0,2.28-1.19Zm11.67-1.32a12.07,12.07,0,0,0-1.5.17,5.26,5.26,0,0,0-1.19.26,1.71,1.71,0,0,0-.77.52,1.42,1.42,0,0,0-.26.87.71.71,0,0,0,.34.69,2.29,2.29,0,0,0,1,.19,2.56,2.56,0,0,0,.94-.2,5.31,5.31,0,0,0,1-.53Zm-.8,3.42c-.19.11-.42.26-.69.44a6.3,6.3,0,0,1-.72.4,5.19,5.19,0,0,1-.87.28,4.29,4.29,0,0,1-1.13.11,2.79,2.79,0,0,1-1.9-.64,2.17,2.17,0,0,1-.74-1.7,3.3,3.3,0,0,1,.52-1.88,3.68,3.68,0,0,1,1.56-1.23,9.19,9.19,0,0,1,2.3-.61c.88-.13,1.84-.23,2.87-.28v-.17a1,1,0,0,0,0-.25.83.83,0,0,0-.55-.83,4.17,4.17,0,0,0-1.64-.24,6.44,6.44,0,0,0-1.63.25c-.59.17-1,.31-1.34.41h-.27l.44-2.2c.35-.09.88-.18,1.61-.3a14.58,14.58,0,0,1,2.19-.17,6.86,6.86,0,0,1,3.22.58,1.9,1.9,0,0,1,1,1.78,2.94,2.94,0,0,1,0,.42c0,.16-.05.31-.08.47l-1.47,6.34h-3Zm9.14,4.4h-3.28l2.37-3.6-1.53-9.15h3.06l.8,6.11,3.55-6.11H532Z" transform="translate(0 0)"/><path class="cls-3" d="M8,331.51H8a14.25,14.25,0,0,1,14.25-14.25H269.09a14.25,14.25,0,0,1,14.25,14.25h0v57a14.25,14.25,0,0,1-14.25,14.24H22.25A14.25,14.25,0,0,1,8,388.5H8Z" transform="translate(0 0)"/><path class="cls-4" d="M8,331.51H8a14.25,14.25,0,0,1,14.25-14.25H269.09a14.25,14.25,0,0,1,14.25,14.25h0v57a14.25,14.25,0,0,1-14.25,14.24H22.25A14.25,14.25,0,0,1,8,388.5H8Z" transform="translate(0 0)"/><path class="cls-5" d="M105.11,338.1l-.26,5.39c-.08,1.85-.72,2.78-1.92,2.78h-2l-.19-1.46h1.66c.57,0,.88-.38.92-1.14l.26-4.31H99.94l-.08.53q-.45,3.66-5.23,6.72l-1-1.26q4.32-2.48,4.78-5.19l.13-.8H96V338.1Zm-6-5.24a17.82,17.82,0,0,1-5.13,6.3l-1-1.25a14.09,14.09,0,0,0,5-6.19l1.26.8c.28.17.24.29-.11.34Zm8.23,6.3a12.57,12.57,0,0,1-5.39-7l1.27-.53a10.89,10.89,0,0,0,5.1,6.11Zm14.47-.46.26-.26,1.33,1.06c.14.22,0,.31-.47.27l-4.51,1.78v.53h6.64v1.27h-6.64v2.2a.94.94,0,0,1-.8,1.06h-2.05l-.26-1.47h1.51a.24.24,0,0,0,.27-.21v-1.58H110v-1.27h7.17v-1.45l1.06.12,1.86-1h-8V338.7ZM113,334.78h9.15v3.13H113Zm1.12,1.07v1H121v-1Zm-3.78-2.93h6.56v-1.53h1.27c.35,0,.38.18.06.41v1.12h6.46V334H110.3Zm28.16,9.69a51.79,51.79,0,0,0-3.86-3.84,8.55,8.55,0,0,1-3.72,4.58L130,342a7.16,7.16,0,0,0,3.72-6.58h-4.13v10.7H128V334.19h5.72v-2.33h1.45c.45.08.48.26.08.53v1.8h6v10.48c0,.89-.42,1.33-1.27,1.33h-1.59l-.27-1.45h1.33a.24.24,0,0,0,.27-.21v-8.9H135.2a11.19,11.19,0,0,1-.18,2,24.63,24.63,0,0,1,4.43,3.72Zm17.19-1.45a13.85,13.85,0,0,1-4.25-3.39,13.44,13.44,0,0,1-3.46,3.39Zm-3.58-4.39A14.67,14.67,0,0,0,159.4,341l-.39,1.53a12,12,0,0,1-3-1.19v5.05h-1.33V346h-6.19v.67h-1.32v-5a8.89,8.89,0,0,1-2.52,1.26l-.59-1.4q5.16-2,7-5.77l1.39.46c.17.17.11.29-.21.34Zm-7.11.93a9.39,9.39,0,0,0,3.78-2.71l1,.92q.41.33-.27.33a12.6,12.6,0,0,1-3.78,2.73Zm9.7,7v-2.32h-6.19v2.32Zm-.26-9.43a15.73,15.73,0,0,0,4,2.19l-.59,1.33a13.56,13.56,0,0,1-4.25-2.52Zm2.78-1H145.9v1.93h-1.33V333h6.17v-1.66h1.45c.36,0,.38.18.08.41V333h6.24v3.06h-1.33Z" transform="translate(0 0)"/><path class="cls-6" d="M175.63,337.78l-.53.91-3-1.77v3H171v-3l-3,1.78-.53-.92,3.16-1.72-3.16-1.71.53-.91,3,1.76-.06-3H172l-.06,3,3-1.76.53.92-3.16,1.7Zm11,0-.53.91-3-1.77v3H182v-3l-3,1.78-.53-.92,3.15-1.72-3.15-1.71.53-.91,3,1.76-.06-3H183l-.06,3,3-1.76.53.92-3.15,1.7Zm11,0-.53.91-3-1.77.05,3H193.1l.05-3-3,1.78-.54-.92,3.16-1.72-3.16-1.71.54-.91,3,1.76-.06-3h1.08l-.07,3,3-1.76.53.92-3.16,1.7Z" transform="translate(0 0)"/><path class="cls-3" d="M630.18,671.57h38.37V48.45H456.76" transform="translate(0 0)"/><path class="cls-24" d="M641.55,671.57h27V48.45H474.76" transform="translate(0 0)"/><path class="cls-25" d="M631.68,671.57a4.94,4.94,0,1,1,5,4.93h0A5,5,0,0,1,631.68,671.57Z" transform="translate(0 0)"/><path class="cls-25" d="M474.76,43.49l-13.61,5,13.61,4.95Z" transform="translate(0 0)"/><path class="cls-3" d="M354.84,487.29h0A14.25,14.25,0,0,1,369.05,473H615.93a14.25,14.25,0,0,1,14.25,14.25v57a14.25,14.25,0,0,1-14.25,14.25H369.09a14.25,14.25,0,0,1-14.25-14.25h0Z" transform="translate(0 0)"/><path class="cls-4" d="M354.84,487.29h0A14.25,14.25,0,0,1,369.05,473H615.93a14.25,14.25,0,0,1,14.25,14.25v57a14.25,14.25,0,0,1-14.25,14.25H369.09a14.25,14.25,0,0,1-14.25-14.25h0Z" transform="translate(0 0)"/><path class="cls-5" d="M418,507.3h-4.31v5.06h-1.33V507.3h-4a8.27,8.27,0,0,1-2.07,5.51l-1.06-1.06a6.67,6.67,0,0,0,1.8-4.64v-8.5h12.28v12.67a1,1,0,0,1-.78,1.08h-2.14l-.33-1.47h1.66a.24.24,0,0,0,.26-.22v-.05Zm-9.62-3.72v2.47h4v-2.47Zm0-3.72v2.47h4v-2.47Zm5.31,3.72v2.47H418v-2.47Zm0-3.72v2.47H418v-2.47Z" transform="translate(0 0)"/><path class="cls-5" d="M436.55,500.66c0,1.06-.06,2.28-.06,3.65s0,2.38.06,3.13h-1.46v-1h-9.22a15,15,0,0,1-.67,3.18,13.38,13.38,0,0,1-.86,1.89,16,16,0,0,1-1,1.57,4.72,4.72,0,0,0-1.46-.8,8.64,8.64,0,0,0,1.82-2.61,11.09,11.09,0,0,0,.67-2.33,16.92,16.92,0,0,0,.17-2.36c0-.84,0-2.28-.08-4.32ZM435,505.25v-3.39h-9.23v3.39Zm-4.78-7.84a23.8,23.8,0,0,1,1.13,2.53,4.55,4.55,0,0,0-1.33.45,13,13,0,0,0-1.06-2.45,7.51,7.51,0,0,0,1.28-.53Zm21.52,15.81a25.35,25.35,0,0,0-2.6-1.89,14.25,14.25,0,0,0-2.59-1.44,7.11,7.11,0,0,0,.73-1l2.13,1.2c.89-1.06,1.68-2,2.39-2.92h-4.7l.8-2.8h-.33a14.64,14.64,0,0,0-1.8.08v-1.2c.59,0,1.14.06,1.68.06h.71l.47-2.05H448a12.32,12.32,0,0,0-1.8.07v-1.21a10.69,10.69,0,0,0,1.6.14h.93a22.64,22.64,0,0,0,.33-2.59l1.6.27a3.32,3.32,0,0,0-.44,1q-.09.46-.3,1.32h2.39a15,15,0,0,0,1.66-.06v1.13c-.75,0-1.37-.07-1.86-.07H449.8l-.47,2.05h2.78c.71,0,1.5,0,2.39-.06v1.2c-.83-.05-1.67-.08-2.52-.08H449.1l-.47,1.86h5.05v1.07a5.94,5.94,0,0,0-1.23,1.06,28.43,28.43,0,0,0-2,2.39c.75.49,1.44,1,2.06,1.41ZM443.91,508c.59-.1,1.21-.18,1.86-.27v1.13a17.79,17.79,0,0,0-1.86.26c0,1.77,0,3.06.08,3.86h-1.33c0-1.37.07-2.57.07-3.59-1.77.27-2.9.47-3.39.59-.09-.48-.18-.94-.27-1.39.63,0,1.84-.15,3.66-.33V506a12.66,12.66,0,0,0-3.07.26l-.45-1.32a3.94,3.94,0,0,0,1.09-1.52,14.21,14.21,0,0,0,.83-2.2c-.44,0-1.06,0-1.86.07v-1.2q1.07.06,2.13.06a12.15,12.15,0,0,0,.59-2.45c.75.22,1.26.38,1.53.47a14.53,14.53,0,0,0-.93,2h2.86v1.14c-.71-.05-1.31-.07-1.8-.07h-1.33c-.22.66-.72,1.9-1.52,3.72h1.93a23.5,23.5,0,0,0-.07-2.4H444c-.05.54-.08,1.33-.08,2.4a13,13,0,0,0,1.68-.07v1.21a13.5,13.5,0,0,0-1.68-.08Z" transform="translate(0 0)"/><path class="cls-5" d="M469.29,504.25l-4.19.33v2.12h5V508h-5v2.78h6.64V512H457.07v-1.26h6.7V508h-5v-1.3h5v-2.06l-5.31.27c-.18.35-.33.38-.47.07l-.33-1.47h2.52l1.94-3.57H457.6v-1.27h13.47v1.27H463.9l-2.39,3.57,6.58-.26c-.93-.75-1.8-1.39-2.6-1.92l.94-.94a31.42,31.42,0,0,1,4.78,3.59l-1.06,1.07Z" transform="translate(0 0)"/><path class="cls-22" d="M482.88,511.67a11.9,11.9,0,0,1-2.31-.22,7.4,7.4,0,0,1-1.72-.51l.58-2.47h.26l.47.36a5.91,5.91,0,0,0,.8.39,9,9,0,0,0,1,.33,5.84,5.84,0,0,0,1.25.14,3.67,3.67,0,0,0,1.5-.24.72.72,0,0,0,.51-.65.55.55,0,0,0-.36-.52,7.58,7.58,0,0,0-1.48-.42,6.51,6.51,0,0,1-2.6-1.06,2,2,0,0,1-.7-1.57,2.8,2.8,0,0,1,1.41-2.48,6.86,6.86,0,0,1,3.81-.91,10.52,10.52,0,0,1,2.09.22,7,7,0,0,1,1.55.44l-.55,2.36h-.26a5.06,5.06,0,0,0-1.42-.74,5.26,5.26,0,0,0-1.72-.29,3.87,3.87,0,0,0-1.47.23.73.73,0,0,0-.5.7.63.63,0,0,0,.44.57,8.48,8.48,0,0,0,1.39.4,6.85,6.85,0,0,1,2.53,1,1.87,1.87,0,0,1,.78,1.62,2.78,2.78,0,0,1-1.44,2.47A7.24,7.24,0,0,1,482.88,511.67Zm17.61-7.47v.52a4.5,4.5,0,0,1-.11.64L499,511.42h-3l1-4.62c.07-.36.13-.66.17-.89a3.72,3.72,0,0,0,.08-.66,1,1,0,0,0-.29-.8,1.61,1.61,0,0,0-1-.25,2.66,2.66,0,0,0-.83.16,6,6,0,0,0-1,.45l-1.52,6.61h-3l3-12.92h3l-1.06,4.62a10.93,10.93,0,0,1,1.67-.93,3.94,3.94,0,0,1,1.69-.35,2.81,2.81,0,0,1,1.95.63A2.14,2.14,0,0,1,500.49,504.2Zm8.09,2.81-1.5.18a5.3,5.3,0,0,0-1.18.26,1.63,1.63,0,0,0-.77.52,1.3,1.3,0,0,0-.26.87.71.71,0,0,0,.34.69,2.15,2.15,0,0,0,1,.19,2.57,2.57,0,0,0,.94-.21,4.2,4.2,0,0,0,1-.53Zm-.79,3.43-.69.43a6.37,6.37,0,0,1-.72.41,5.19,5.19,0,0,1-.87.28,4.76,4.76,0,0,1-1.13.11,2.82,2.82,0,0,1-1.91-.64,2.19,2.19,0,0,1-.73-1.7,3.28,3.28,0,0,1,.52-1.88,3.68,3.68,0,0,1,1.56-1.23,8.68,8.68,0,0,1,2.3-.61,25.12,25.12,0,0,1,2.87-.28v-.17a1,1,0,0,0,0-.25.84.84,0,0,0-.54-.83,4.36,4.36,0,0,0-1.64-.24,6.44,6.44,0,0,0-1.63.25c-.59.17-1,.3-1.34.41h-.27l.44-2.2c.34-.09.88-.19,1.61-.3a13.38,13.38,0,0,1,2.19-.17,6.82,6.82,0,0,1,3.21.58,1.9,1.9,0,0,1,1,1.78v.42a1,1,0,0,1-.07.47l-1.47,6.34h-3Zm14-5.49h-.26a2.21,2.21,0,0,0-.57-.11h-.71a6.27,6.27,0,0,0-1.14.1,7.39,7.39,0,0,0-1.13.26l-1.44,6.25h-3l2.15-9.33h3l-.31,1.38a9.2,9.2,0,0,1,1.68-1,4,4,0,0,1,1.69-.39h.7Z" transform="translate(0 0)"/><path class="cls-23" d="M533.12,505.08a7.34,7.34,0,0,1-.43,2.5,6.92,6.92,0,0,1-1.14,2.08,5.79,5.79,0,0,1-1.72,1.43,4.24,4.24,0,0,1-2.12.52,5.79,5.79,0,0,1-1.38-.17,4.65,4.65,0,0,1-1.12-.49l-.89,3.89h-3l3-12.75h3l-.22,1a8.7,8.7,0,0,1,1.56-.91,3.78,3.78,0,0,1,1.59-.33,2.72,2.72,0,0,1,2.16.86A3.49,3.49,0,0,1,533.12,505.08Zm-3.89,3.26a4.26,4.26,0,0,0,.53-1.22,5.5,5.5,0,0,0,.2-1.51,1.71,1.71,0,0,0-.34-1.16,1.47,1.47,0,0,0-1.18-.4,2.57,2.57,0,0,0-.87.15,7.75,7.75,0,0,0-.89.39l-1.08,4.69a2.54,2.54,0,0,0,.61.19,4.49,4.49,0,0,0,.73.06,2.6,2.6,0,0,0,1.33-.33A2.57,2.57,0,0,0,529.23,508.34ZM540.89,507l-1.5.18a5.26,5.26,0,0,0-1.19.26,1.6,1.6,0,0,0-.76.52,1.31,1.31,0,0,0-.27.87.71.71,0,0,0,.34.69,2.29,2.29,0,0,0,1,.19,2.57,2.57,0,0,0,.94-.21,4.17,4.17,0,0,0,1-.53Zm-.8,3.43-.69.43a6.23,6.23,0,0,1-.71.41,5.3,5.3,0,0,1-.88.28,4.68,4.68,0,0,1-1.12.11,2.82,2.82,0,0,1-1.91-.64,2.17,2.17,0,0,1-.74-1.7,3.3,3.3,0,0,1,.52-1.88,3.76,3.76,0,0,1,1.56-1.23,8.79,8.79,0,0,1,2.3-.61,25.12,25.12,0,0,1,2.87-.28v-.17a1,1,0,0,0,0-.25.83.83,0,0,0-.55-.83,4.17,4.17,0,0,0-1.64-.24,6.44,6.44,0,0,0-1.63.25c-.59.17-1,.3-1.34.41h-.26l.43-2.2c.35-.09.88-.19,1.61-.3a13.38,13.38,0,0,1,2.19-.17,6.86,6.86,0,0,1,3.22.58,1.9,1.9,0,0,1,1,1.78,2.94,2.94,0,0,1,0,.42c0,.16-.05.31-.08.47l-1.47,6.34h-3Zm9.14,4.4H546l2.37-3.61-1.53-9.14h3.06l.8,6.11,3.55-6.11h3.15Z" transform="translate(0 0)"/><path class="cls-5" d="M560.3,511.42h-3.12l.75-3.26h3.12Zm8.2-9.33-2.15,9.33h-3l2.16-9.33Zm.91-3.59-.52,2.26h-3.17l.52-2.26Zm10.59,7a6.89,6.89,0,0,1-.43,2.46,6.1,6.1,0,0,1-1.24,2,5.78,5.78,0,0,1-1.92,1.32,6.56,6.56,0,0,1-2.56.46,4.7,4.7,0,0,1-3.21-1,3.52,3.52,0,0,1-1.11-2.77,7.06,7.06,0,0,1,.41-2.36,5.63,5.63,0,0,1,1.25-2,5.54,5.54,0,0,1,1.92-1.32,6.43,6.43,0,0,1,2.6-.49,4.63,4.63,0,0,1,3.18,1,3.43,3.43,0,0,1,1.11,2.71Zm-3.87,3.05a4.45,4.45,0,0,0,.56-1.26,6,6,0,0,0,.2-1.68,2,2,0,0,0-.37-1.31,1.44,1.44,0,0,0-1.19-.47,2.08,2.08,0,0,0-1.11.32,2.84,2.84,0,0,0-.84.85,4.87,4.87,0,0,0-.53,1.32,6.5,6.5,0,0,0-.19,1.58,1.8,1.8,0,0,0,.42,1.35,1.54,1.54,0,0,0,1.16.41,2,2,0,0,0,1-.28,2.68,2.68,0,0,0,.89-.82Z" transform="translate(0 0)"/><path class="cls-5" d="M448.29,531V519.26h1.45c.45.1.48.28.08.54v3.86h5.38v1.45h-5.38V531h6.91v1.45H442.3V531Zm20.31-8a10.7,10.7,0,0,1-2.12,3.53l-1-1.2a11,11,0,0,0,2.85-6.44l1.4.47c.4.18.37.31-.08.39a15.51,15.51,0,0,1-.53,2h4.78l-.32,9c0,1.78-.75,2.66-2.13,2.66H469.6l-.2-1.26h1.73c.62,0,.95-.41,1-1.21l.33-8Zm.8,6.19a16.35,16.35,0,0,0-2-2.39l1.13-1.2a14.63,14.63,0,0,1,2.12,2.33Zm-7.83-7.44a29,29,0,0,0,.73-2.92l1.6.6c.18.17.11.28-.2.32a10.91,10.91,0,0,1-.74,2h2.45v11h-1.32V532h-2.93v1.33h-1.32V521.73Zm2.52,1.25h-2.93v2.93h2.93Zm0,4.19h-2.93v3.45h2.93ZM483.48,521a14.59,14.59,0,0,1-6.5,5.25l-.74-1.27a14.8,14.8,0,0,0,6.85-6l1.12.34q.8.27.06.6,1.8,2.72,6.78,4.72l-.79,1.32A14.91,14.91,0,0,1,483.48,521Zm.79,2.59c.45.09.48.26.08.53v9.24h-1.53v-9.77Zm15.49-4.25h1.45c.45.09.47.26.06.53v2.72q.48,6.38,6.78,9.1l-.79,1.67a12,12,0,0,1-6.52-7.25,10.94,10.94,0,0,1-6.29,7.25l-1-1.47q6.3-2.46,6.31-9.09Z" transform="translate(0 0)"/><path class="cls-5" d="M517.68,532.89a2,2,0,0,0,.41-1.41v-5.37a12,12,0,0,0-1.6.06v-1.25c.4,0,.93.06,1.6.06v-4.45a15.93,15.93,0,0,0-.08-1.86h1.33c-.05.67-.07,1.27-.07,1.8V525c3,0,4.94,0,5.78-.06v1.25c-.84,0-1.92-.06-3.25-.06a12.33,12.33,0,0,0,1.46,4.33,6.87,6.87,0,0,0,2.19,2,2.25,2.25,0,0,0-.93,1,7.88,7.88,0,0,1-2-1.82,8.26,8.26,0,0,1-1.18-2.49,26.62,26.62,0,0,1-.71-3.06h-1.39V532c.36-.21.89-.57,1.6-1.06a4.53,4.53,0,0,0,.47,1.27L520,533a9.88,9.88,0,0,0-1.47,1.1C518.24,533.68,518,533.29,517.68,532.89Zm-1.33-13.36c0,1-.06,2.61-.06,4.78s0,3.89.06,5.13h-1.26v-8.77H511.9v9h-1.25q.06-1.93.06-5.25t-.06-4.92Zm-2.06,2.33a9.12,9.12,0,0,0-.13,2.39A26.08,26.08,0,0,1,514,528a9.62,9.62,0,0,1-.89,3.53,10.12,10.12,0,0,1-2.22,2.78,8.51,8.51,0,0,0-1.14-.86,8.26,8.26,0,0,0,2-2,6.32,6.32,0,0,0,1-2.58,21.83,21.83,0,0,0,.23-3.23V521.8c.39,0,.83,0,1.31.06Zm5.31,1.65a19.11,19.11,0,0,0,3.72-4,5.91,5.91,0,0,0,1.06,1.06c-.43.41-1,1-1.68,1.71a31.12,31.12,0,0,1-2.3,2.15,2.79,2.79,0,0,0-.8-.94Zm-5,6.72q.39.39,2.19,2.46a10.29,10.29,0,0,0-1,.86c-.67-.83-1.37-1.63-2.12-2.39a10.54,10.54,0,0,0,1-.93Zm27.22-8.57c0,1.06-.06,2.28-.06,3.65s0,2.38.06,3.13h-1.47v-1h-9.22a13.86,13.86,0,0,1-.67,3.18,11.92,11.92,0,0,1-.86,1.89,12.26,12.26,0,0,1-1,1.57,4.48,4.48,0,0,0-1.45-.8,8.44,8.44,0,0,0,1.81-2.61,10,10,0,0,0,.67-2.33,15.53,15.53,0,0,0,.18-2.36c0-.84,0-2.28-.08-4.32Zm-1.53,4.59v-3.39h-9.23v3.39Zm-4.78-7.84a21.14,21.14,0,0,1,1.12,2.53,4.39,4.39,0,0,0-1.32.45,13,13,0,0,0-1.07-2.45,7.71,7.71,0,0,0,1.3-.53Z" transform="translate(0 0)"/><path class="cls-3" d="M354.84,331.51h0a14.25,14.25,0,0,1,14.25-14.25H615.93a14.25,14.25,0,0,1,14.25,14.25h0v57a14.25,14.25,0,0,1-14.24,14.24H369.09a14.25,14.25,0,0,1-14.25-14.23h0Z" transform="translate(0 0)"/><path class="cls-4" d="M354.84,331.51h0a14.25,14.25,0,0,1,14.25-14.25H615.93a14.25,14.25,0,0,1,14.25,14.25h0v57a14.25,14.25,0,0,1-14.24,14.24H369.09a14.25,14.25,0,0,1-14.25-14.23h0Z" transform="translate(0 0)"/><path class="cls-5" d="M386.22,362h-4.31v5.06h-1.33V362h-4a8.27,8.27,0,0,1-2.07,5.51l-1.06-1.06a6.67,6.67,0,0,0,1.8-4.64v-8.5h12.28V366a1,1,0,0,1-.78,1.08h-2.14l-.33-1.47H386a.23.23,0,0,0,.26-.2v-.06Zm-9.62-3.72v2.47h4V358.3Zm0-3.72V357h4v-2.47Zm5.31,3.72v2.47h4.31V358.3Zm0-3.72V357h4.31v-2.47Z" transform="translate(0 0)"/><path class="cls-5" d="M404.82,355.38c-.05,1.06-.07,2.28-.07,3.65s0,2.38.07,3.13h-1.47v-1h-9.22a15.22,15.22,0,0,1-.67,3.19,13.38,13.38,0,0,1-.86,1.89,15.89,15.89,0,0,1-1,1.56,4.84,4.84,0,0,0-1.46-.8,8.3,8.3,0,0,0,1.82-2.61,11,11,0,0,0,.67-2.32,16.92,16.92,0,0,0,.17-2.36c0-.85,0-2.29-.08-4.33ZM403.28,360v-3.39h-9.23V360Zm-4.78-7.84a23.8,23.8,0,0,1,1.13,2.53,5.22,5.22,0,0,0-1.33.45,13.63,13.63,0,0,0-1.06-2.45,6.45,6.45,0,0,0,1.26-.56Zm22.25,1.39c.48,0,1.25,0,2.32-.06v1.26c-1,0-2.17-.06-3.58-.06v11.22a1.39,1.39,0,0,1-1,1.5,9.33,9.33,0,0,1-2.1.36,4.93,4.93,0,0,0-.53-1.8,9,9,0,0,0,1.72.08.68.68,0,0,0,.67-.67V354.66h-2.86c-.65,0-1.34,0-2,.06v-1.26l2.12.06Zm-9,11.5c1-.84,1.77-1.55,2.39-2.13a4.26,4.26,0,0,0,.53,1.33c-.66.53-1.35,1.1-2.06,1.71a17.89,17.89,0,0,0-1.8,1.68,4.65,4.65,0,0,0-.92-1.06,1.66,1.66,0,0,0,.6-1.47v-6.17h-.94q-1.12,0-1.92.06v-1.26q.8.06,1.92.06h2.26c0,.84,0,1.64-.06,2.39Zm-1.86-12.49c.66.62,1.54,1.53,2.66,2.72-.36.32-.74.67-1.14,1.07a18.13,18.13,0,0,0-2.52-2.8,11.69,11.69,0,0,0,1-1Zm25.75,2.93a14.48,14.48,0,0,0-1.45,2.18h2q-.06.87-.06,1.86t.06,1.8h-1.92v2.45c0,.62,0,1,.16,1a1.15,1.15,0,0,0,.61.07.72.72,0,0,0,.62-.36,4.57,4.57,0,0,0,.41-1.14,3.42,3.42,0,0,0,1.26.53c-.31,1-.67,1.6-1.07,1.73a5.19,5.19,0,0,1-1.66.21c-.71,0-1.14-.1-1.3-.3a1.45,1.45,0,0,1-.22-.84V361.3h-1.14a8.7,8.7,0,0,1-.82,3.55,5.8,5.8,0,0,1-2,2,2.27,2.27,0,0,0-.94-1,3.91,3.91,0,0,0,2.1-2,6.4,6.4,0,0,0,.56-2.55h-1.66a12.92,12.92,0,0,0,.13-1.86,10.9,10.9,0,0,0-.13-1.8h4c.26-.53.68-1.48,1.26-2.86a7,7,0,0,0,1.17.68Zm4.07-2a26.08,26.08,0,0,0-.15,2.79v8.83q0,2-.93,2.22a19.57,19.57,0,0,1-2,.38,3,3,0,0,0-.33-1.47,4.67,4.67,0,0,0,1.66-.19c.27-.14.41-.47.41-1V354.46h-4.66c-.79,0-1.61,0-2.45.06v-1.13c.88.05,1.66.07,2.33.07Zm-12.49,14h-1.33c0-1.1.07-2.16.07-3.19v-6.1c0-1,0-1.92-.07-2.8h1.33Zm7.7-7.17v-1.73h-4.51v1.73Zm-6.11-5.45a12.82,12.82,0,0,0-1.59-2l.92-.67a12.88,12.88,0,0,1,1.6,1.86l-1,.79Zm2.05,2.47a6.2,6.2,0,0,0-1.12-1.86,9.29,9.29,0,0,1,.93-.61l1.19,1.86a3.77,3.77,0,0,0-1,.59Z" transform="translate(0 0)"/><path class="cls-5" d="M455,359.71v7.7h-1.32v-.67h-6v.87h-1.33v-6a18.28,18.28,0,0,1-3.72,1.45l-.47-1.19a20.24,20.24,0,0,0,4.19-1.67v-.45h.92a19.15,19.15,0,0,0,2.39-1.6h-7v-1.26h5.85v-1.6h-4.13V354h4.13v-1.6h1.26c.36.05.38.18.06.41V354H453v1.12c.53-.57,1.06-1.21,1.6-1.92l.92.59c.31.23.27.37-.13.41a23.55,23.55,0,0,1-2.53,2.66h4.59v1.26h-6a19.3,19.3,0,0,1-2.12,1.6Zm-3.84-2.86a15.88,15.88,0,0,0,1.78-1.6h-3.05v1.6Zm-3.45,5.7h6v-1.78h-6Zm0,3.13h6v-2.07h-6Zm24-2.33a13.69,13.69,0,0,1,2.39,3.12l-1.6.8a14.65,14.65,0,0,0-2-3.25Zm-3.07.08A8.7,8.7,0,0,1,470,367l-1.66.41a14,14,0,0,0-1-3.53Zm-8.76,3.25a8.71,8.71,0,0,0,1.93-3.19l1.4.53a8,8,0,0,1-1.86,3.51Zm5.78-2.86a8.14,8.14,0,0,1,.4,3.53l-1.59.06a16.7,16.7,0,0,0-.2-3.53Zm5.19-2.52v-2.59h-7.44v2.59Zm-3.54-8.77c.36.05.38.18.08.4v1.46H473v1.25h-5.58v1.8h5V363h-1.51v-.41h-7.44v.53h-1.53v-5.64h4v-4.91Z" transform="translate(0 0)"/><path class="cls-5" d="M483.3,355.32V354a10.8,10.8,0,0,1-.08-1.39h1.41c-.05.53-.08,1-.08,1.39v1.33H488a19.79,19.79,0,0,0,2.13-.07v1.27c-.62,0-1.32-.08-2.13-.08h-3.45v2.8h5.05c.88,0,1.62,0,2.2-.06v1.18c-.58,0-1.32-.06-2.2-.06h-5.05v5.31h3.72V362.9q0-.4-.06-1.2h1.47c-.06.57-.08,1-.08,1.2v2.79a16.81,16.81,0,0,0,.08,2h-1.41v-1h-10c.05-.54.07-1.09.07-1.66v-2a10.29,10.29,0,0,0-.07-1.21h1.46c0,.63-.07,1-.07,1.21v2.65h3.66V360.3h-4.78c-1,0-1.78,0-2.39.06v-1.18q.92.06,2.31.06h4.86v-2.8h-3.39a16.76,16.76,0,0,0-2.13.08v-1.33l2.13.13Zm15.92,8.17a8.71,8.71,0,0,0,4.33-3.19c-.84,0-1.56.09-2.14.14a10.4,10.4,0,0,0-1.66.25,6.22,6.22,0,0,0-.59-1.25,3.07,3.07,0,0,0,1.3-1.12,13.26,13.26,0,0,0,1.42-2.41c-1.42,0-2.54,0-3.38.08v-1.14c.62,0,1.3.08,2.05.08h5.78a24.46,24.46,0,0,0,2.45-.08V356c-.83-.05-1.71-.08-2.65-.08h-3.85a3.76,3.76,0,0,0,1.07.73,23.18,23.18,0,0,0-2.53,2.8c.84,0,1.93-.05,3.26-.14a14.65,14.65,0,0,0,1.19-2.25,8.84,8.84,0,0,0,1.39.66,7.35,7.35,0,0,0-.77,1.14,18.93,18.93,0,0,1-1.29,1.92,11.83,11.83,0,0,1-2,2.12,18.86,18.86,0,0,1-2.39,1.66,4.38,4.38,0,0,0-1-1.07Zm9-2.86a6.52,6.52,0,0,0-1.06,1.34c-.4.62-.84,1.23-1.33,1.85,1.64,1.37,2.77,2.35,3.39,2.92a5.61,5.61,0,0,0-1.12,1,19.34,19.34,0,0,0-3-3,17.58,17.58,0,0,1-2.36,1.66,26.41,26.41,0,0,1-3.28,1.53,5.13,5.13,0,0,0-.8-1.2,16,16,0,0,0,3.19-1.22A11.1,11.1,0,0,0,504,364a10.64,10.64,0,0,0,1.66-2,13.91,13.91,0,0,0,1.14-2.07,12,12,0,0,0,1.39.7Zm-13,5.51a1.52,1.52,0,0,0,.59-1.53v-5.78h-.59a11.84,11.84,0,0,0-1.6.08v-1.2c.63,0,1.16.06,1.6.06H497c0,.84-.06,1.71-.06,2.59v4.46a13.42,13.42,0,0,0,1.53-1.39,4.64,4.64,0,0,0,.53,1.18c-.62.45-1.2.9-1.73,1.35a11.83,11.83,0,0,0-1.27,1.18c-.32-.39-.61-.73-.82-1Zm1.46-10a19.13,19.13,0,0,0-1.93-2.72,5.13,5.13,0,0,0,1.06-.73c.58.71,1.25,1.59,2,2.66ZM502,353a5.18,5.18,0,0,0,1.06-.8,12.4,12.4,0,0,1,1.51,1.73,3.9,3.9,0,0,0-1.12.86,7.75,7.75,0,0,0-1.45-1.82Z" transform="translate(0 0)"/><path class="cls-5" d="M516.43,361.57a13,13,0,0,1-2.4,3.84l-.73-1a14.22,14.22,0,0,0,2.33-3.91c-.67-1-1.36-1.93-2.06-2.86l.67-.67c.61.71,1.16,1.4,1.65,2.06.18-1.06.31-2.14.39-3.25l1.15.27c.35.14.32.27-.08.39-.13,1.06-.3,2.28-.53,3.66.62.84,1.2,1.66,1.73,2.45l-.67,1.14ZM513,354.78v12.3h-1.33V353.52h13.75v12.36c0,.71-.33,1.06-1,1.06h-1.65l-.27-1.26h1.39a.19.19,0,0,0,.21-.17V354.78Zm7.83,4.66a29.22,29.22,0,0,0,.53-3.72l1.06.13c.45.13.45.29,0,.47a31.81,31.81,0,0,1-.71,4.11c.65.93,1.22,1.82,1.71,2.65l-.65,1.06c-.53-.88-1-1.7-1.53-2.45a12,12,0,0,1-2.33,4l-.74-1.07a10.59,10.59,0,0,0,2.21-3.92,26.1,26.1,0,0,0-2-2.78l.67-.73c.5.61,1.09,1.37,1.75,2.25Zm9.38-1.41c.3,1.73.54,3.46.71,5.19l-1.32.13c-.18-1.64-.45-3.32-.8-5.05Zm7.43-5.37h1.25c.36,0,.38.18.08.41v2.65h4V357h-4v2.92h3.52v7.32h-1.33v-.8h-4.58v.94h-1.33v-7.46h2.39ZM535,357.05h-6.78v-1.27H531v-3h1.27c.35,0,.38.17.06.39v2.59H535Zm-6,8.83c-.13.45-.29.47-.47.06l-.45-1.33,3.78-.47a51.51,51.51,0,0,0,.66-6.56l1.67.39c.4.18.35.34-.14.47a55.27,55.27,0,0,1-.86,5.58l1.66-.27v1.19Zm7.58-.74h4.58v-4h-4.58Zm18-8.43a10.7,10.7,0,0,1-2.12,3.53l-1-1.21a11,11,0,0,0,2.84-6.43l1.41.47c.39.17.37.3-.08.39a19.62,19.62,0,0,1-.53,2h4.78l-.33,9c0,1.77-.75,2.65-2.13,2.65h-1.86l-.2-1.26h1.74c.61,0,.94-.4,1-1.2l.32-8Zm.8,6.18a15.12,15.12,0,0,0-2-2.39l1.13-1.2a14.63,14.63,0,0,1,2.12,2.33Zm-7.83-7.43c.26-.85.51-1.82.74-2.93l1.59.6c.18.18.11.28-.2.33a10.91,10.91,0,0,1-.74,2h2.46v11H550v-.8h-2.9V367h-1.33V355.46Zm2.52,1.25h-3v2.92H550Zm0,4.18h-3v3.46H550Z" transform="translate(0 0)"/><path class="cls-5" d="M572.07,354.46a7.81,7.81,0,0,0,.67-2.27l1.59.53a16.19,16.19,0,0,0-.94,1.74h1.86a19,19,0,0,0,2-.07v1.13c-.66,0-1.33-.06-2-.06h-2.12c-.62,1.45-1.08,2.61-1.39,3.45h1.59q0-.8-.06-1.8h1.33c0,.89-.07,1.49-.07,1.8h.66a13.41,13.41,0,0,0,1.74-.08V360c-.63-.05-1.19-.08-1.68-.08h-.72v2.21h.8a12.89,12.89,0,0,0,1.78-.08v1.14c-.53-.05-1.12-.08-1.78-.08h-.8c0,.67,0,1.51.07,2.53h-1.33c0-1,.06-1.86.06-2.53h-1.06a14.47,14.47,0,0,0-1.86.08V362c.62.05,1.24.08,1.86.08h1.06v-2.21h-1a4.16,4.16,0,0,0-1.78.27c-.14-.4-.29-.81-.47-1.25a2.6,2.6,0,0,0,1-1.33c.31-.71.58-1.42.81-2.12q-.46,0-1.53.06v-1.13A13.79,13.79,0,0,0,572.07,354.46Zm-6.44,3.25a6.73,6.73,0,0,0,1-.07v1.19q-1.07-.06-1.47-.06v1.86c.53,0,1.11,0,1.73-.06v1.26a12.48,12.48,0,0,0-1.73-.14v3.25a17,17,0,0,0,1.8-1.59,3.58,3.58,0,0,0,.53,1.2,11.08,11.08,0,0,0-1.46,1.09c-.53.47-1.08,1-1.67,1.57a7.35,7.35,0,0,0-.92-.93,2.74,2.74,0,0,0,.59-1.67v-2.92q-.85,0-1.92.06v-1.18q1.07.06,1.92.06v-1.86a6.49,6.49,0,0,0-1,.06v-1.06l-.53.67a7.44,7.44,0,0,0-.86-1,7.66,7.66,0,0,0,1.57-2.25,15.28,15.28,0,0,0,.89-2.73,11.13,11.13,0,0,0,1.67.61,2.54,2.54,0,0,0-.7.92c-.16.35-.33.69-.5,1,.75,0,1.54,0,2.39-.06v1.18c-.93,0-1.86-.06-2.78-.06-.28.44-.61.95-1,1.53a3.2,3.2,0,0,1,.92.13Zm1.65.53c.41,0,.79.06,1.15.06h1.25a14.54,14.54,0,0,0-.13,1.86v4.52a4.08,4.08,0,0,0,1.56.87,11.19,11.19,0,0,0,2.22.44,31.73,31.73,0,0,0,4.25-.17,4,4,0,0,0-.59,1.53c-1.46,0-2.62-.05-3.49-.14a13.67,13.67,0,0,1-2-.33,6.06,6.06,0,0,1-1.67-.83c-.61-.43-1.09-.46-1.42-.11l-1,1.14a7.7,7.7,0,0,0-.93-1.2,22.51,22.51,0,0,1,2-1.2v-5.32h-.27a3.76,3.76,0,0,0-.88.14Zm1.47-5a15.83,15.83,0,0,1,.93,2.66,6.65,6.65,0,0,0-1.19.53,22.16,22.16,0,0,0-.94-2.78,9.93,9.93,0,0,1,1.2-.4Z" transform="translate(0 0)"/><path class="cls-5" d="M589.27,359.24l.53.2c.18.18.11.29-.2.33L589,361h5v1.26h-1.73a7.63,7.63,0,0,1-1.25,2.6,17.27,17.27,0,0,1,3.11,1.46l-.8,1.19c-1.46-.79-2.54-1.34-3.25-1.65a12.91,12.91,0,0,1-5.11,1.92l-.47-1.19a9.69,9.69,0,0,0,4.25-1.34l-1.72-.72-.4.59-1.07-.53,1.33-2.33h-2V361h2.65l.8-1.72h-4.06V358H587l-.73-2.39h-1v-1.26h3.25v-1.86h1.26c.36.05.38.18.07.4v1.46h3.71v1.26h-1.39l-.73,2.39h3.06v1.27Zm.59,5.11a5.36,5.36,0,0,0,1.07-2.13h-2.52l-.8,1.33ZM588.47,358h1.72l.67-2.39h-3.12Zm-7.11-5.51h1.27c.35.05.37.18.06.4v2.6h1.86v1.25h-1.86v3.45l1.39-.45.47,1.12-1.86.74v5.25a.82.82,0,0,1-.71.92H580.5l-.2-1.27h.8a.23.23,0,0,0,.26-.2V362l-1.12.34c0,.3-.15.37-.33.19l-.53-1.45,2-.53v-3.86h-1.79v-1.25h1.79Z" transform="translate(0 0)"/><path class="cls-6" d="M611,358.78l-.53.91-3-1.76v3h-1.08v-3l-3,1.78-.53-.93,3.16-1.71-3.16-1.72.53-.91,3,1.77-.06-3h1.08l-.07,3,3-1.77.53.92-3.16,1.71Z" transform="translate(0 0)"/><path class="cls-3" d="M8,487.29H8A14.25,14.25,0,0,1,22.21,473H269.09a14.26,14.26,0,0,1,14.25,14.25v57a14.25,14.25,0,0,1-14.24,14.24H22.25A14.24,14.24,0,0,1,8,544.28Z" transform="translate(0 0)"/><path class="cls-4" d="M8,487.29H8A14.25,14.25,0,0,1,22.21,473H269.09a14.26,14.26,0,0,1,14.25,14.25v57a14.25,14.25,0,0,1-14.24,14.24H22.25A14.24,14.24,0,0,1,8,544.28Z" transform="translate(0 0)"/><path class="cls-5" d="M116.59,507.3h-4.31v5.06H111V507.3h-4a8.37,8.37,0,0,1-2.07,5.52l-1.06-1.07a6.67,6.67,0,0,0,1.8-4.64v-8.5H118v12.67a1,1,0,0,1-.91,1.08h-2l-.33-1.47h1.65a.24.24,0,0,0,.27-.21V507.3ZM107,503.58v2.47h4v-2.47Zm0-3.72v2.47h4v-2.47Zm5.31,3.72v2.47h4.31v-2.47Zm0-3.72v2.47h4.31v-2.47Z" transform="translate(0 0)"/><path class="cls-5" d="M135.18,500.66q-.06,1.59-.06,3.66t.06,3.12h-1.46v-1H124.5a13.85,13.85,0,0,1-.68,3.19,13.32,13.32,0,0,1-.85,1.89,15.89,15.89,0,0,1-1,1.56,4.84,4.84,0,0,0-1.46-.8,8.16,8.16,0,0,0,1.81-2.61,10.31,10.31,0,0,0,.68-2.32,16.92,16.92,0,0,0,.17-2.36c0-.85,0-2.29-.08-4.33Zm-1.53,4.59v-3.39h-9.23v3.39Zm-4.78-7.84a26,26,0,0,1,1.13,2.53,5.22,5.22,0,0,0-1.33.45,13.63,13.63,0,0,0-1.06-2.45A6.34,6.34,0,0,0,128.87,497.41Z" transform="translate(0 0)"/><path class="cls-5" d="M138.9,498.74h13.61v13.75h-1.33V512h-11v.67H138.9ZM151.18,500h-11v10.75h11Zm-10.36,8.89c2.53-1.14,3.81-2.78,3.85-4.9H141v-1.07h3.72v-2.26H146c.35,0,.38.19.07.41v1.85h4.18V504H146.2c.45,1.67,1.84,3.31,4.19,4.9l-.86,1.33c-2.09-1.63-3.35-3.14-3.8-4.51q-.53,2.65-4.11,4.65Zm26.57-.26a13.69,13.69,0,0,1,2.39,3.12l-1.6.8a14.65,14.65,0,0,0-2-3.25Zm-3.07.08a8.46,8.46,0,0,1,1.33,3.57l-1.65.41a14.51,14.51,0,0,0-1-3.53ZM155.56,512a8.73,8.73,0,0,0,1.94-3.19l1.39.53a8,8,0,0,1-1.86,3.52Zm5.78-2.86a8.29,8.29,0,0,1,.41,3.53l-1.6.06a16.07,16.07,0,0,0-.2-3.53Zm5.19-2.52V504h-7.44v2.59Zm-3.53-8.8c.35,0,.38.17.07.39v1.46h5.58v1.25h-5.58v1.8h5v5.52h-1.51v-.41h-7.44v.53h-1.53v-5.64h4v-4.9Z" transform="translate(0 0)"/><path class="cls-5" d="M179,500.6v-1.33a10.8,10.8,0,0,1-.08-1.39h1.41c-.05.53-.08,1-.08,1.39v1.33h3.46a19.6,19.6,0,0,0,2.12-.07v1.27c-.61-.05-1.32-.08-2.12-.08h-3.46v2.8h5.05c.88,0,1.62,0,2.2-.06v1.18c-.58,0-1.32-.06-2.2-.06h-5.05v5.31H184v-2.72q0-.41-.06-1.2h1.47c0,.57-.08,1-.08,1.2V511a16.81,16.81,0,0,0,.08,2H184v-1H174c0-.54.06-1.09.06-1.66v-2.06a12,12,0,0,0-.06-1.21h1.45c0,.63-.06,1-.06,1.21v2.65H179v-5.31h-4.78c-1,0-1.77,0-2.39.06V504.5q.93.06,2.31.06H179v-2.8h-3.39a16.52,16.52,0,0,0-2.12.08v-1.33l2.12.13Z" transform="translate(0 0)"/><path class="cls-22" d="M64.83,532.67a12.92,12.92,0,0,1-2.32-.21,7,7,0,0,1-1.72-.52l.58-2.47h.27a5.32,5.32,0,0,0,.47.36,3.87,3.87,0,0,0,.79.39,5.59,5.59,0,0,0,2.25.47,3.66,3.66,0,0,0,1.5-.23.74.74,0,0,0,.51-.66.57.57,0,0,0-.35-.52,9.4,9.4,0,0,0-1.49-.42,6.41,6.41,0,0,1-2.59-1.06,2,2,0,0,1-.71-1.56,2.81,2.81,0,0,1,1.41-2.49,7,7,0,0,1,3.81-.9,9.85,9.85,0,0,1,2.1.22,7.5,7.5,0,0,1,1.54.43l-.54,2.36h-.27a5.6,5.6,0,0,0-3.14-1,3.69,3.69,0,0,0-1.47.24.74.74,0,0,0-.5.7.62.62,0,0,0,.44.56,8.51,8.51,0,0,0,1.39.41,6.85,6.85,0,0,1,2.53,1,1.9,1.9,0,0,1,.78,1.63,2.77,2.77,0,0,1-1.44,2.46A7.18,7.18,0,0,1,64.83,532.67Zm17.6-7.46v.51a3.43,3.43,0,0,1-.11.64l-1.39,6.06h-3L79,527.8c.07-.35.13-.65.17-.89a3.72,3.72,0,0,0,.08-.66,1,1,0,0,0-.28-.79,1.61,1.61,0,0,0-1-.25,3,3,0,0,0-.83.15,7,7,0,0,0-1,.46l-1.51,6.6h-3l3-12.92h3l-1.07,4.63a11.48,11.48,0,0,1,1.68-.94,4,4,0,0,1,1.68-.34,2.79,2.79,0,0,1,2,.62,2.23,2.23,0,0,1,.51,1.74Zm8.1,2.81c-.53.05-1,.11-1.5.17a4.78,4.78,0,0,0-1.19.27,1.54,1.54,0,0,0-.76.51,1.32,1.32,0,0,0-.27.88.7.7,0,0,0,.34.68,2.29,2.29,0,0,0,1,.19,2.56,2.56,0,0,0,.94-.2,4.79,4.79,0,0,0,1-.53Zm-.8,3.42c-.19.11-.42.26-.69.44a7.14,7.14,0,0,1-.71.4,7,7,0,0,1-.88.29,4.67,4.67,0,0,1-1.12.1,2.82,2.82,0,0,1-1.91-.64,2.17,2.17,0,0,1-.74-1.7,3.27,3.27,0,0,1,.52-1.87,3.71,3.71,0,0,1,1.56-1.24,9.19,9.19,0,0,1,2.3-.61c.88-.13,1.84-.23,2.87-.28v-.17a1,1,0,0,0,0-.25.83.83,0,0,0-.55-.83,4.35,4.35,0,0,0-1.64-.23,6,6,0,0,0-1.63.25c-.59.16-1,.3-1.34.4h-.26l.43-2.2c.35-.08.88-.18,1.61-.3a14.58,14.58,0,0,1,2.19-.17,6.86,6.86,0,0,1,3.22.58,1.9,1.9,0,0,1,1,1.78,2.94,2.94,0,0,1,0,.42,3.85,3.85,0,0,1-.08.47l-1.47,6.34h-3Zm14-5.48h-.27a1.55,1.55,0,0,0-.56-.11h-.72a7.3,7.3,0,0,0-1.14.09,7.39,7.39,0,0,0-1.13.26l-1.43,6.25h-3l2.16-9.32h3l-.31,1.37a9.28,9.28,0,0,1,1.69-1,4,4,0,0,1,1.69-.39h.65Z" transform="translate(0 0)"/><path class="cls-23" d="M115.06,526.08a7.59,7.59,0,0,1-.42,2.5,6.6,6.6,0,0,1-1.14,2.08,6.12,6.12,0,0,1-1.72,1.44,4.41,4.41,0,0,1-2.13.51,5.78,5.78,0,0,1-1.37-.17,4.52,4.52,0,0,1-1.13-.48l-.89,3.89h-3l3-12.75h3l-.22,1a10.09,10.09,0,0,1,1.56-.91,3.85,3.85,0,0,1,1.6-.32,2.65,2.65,0,0,1,2.15.86A3.44,3.44,0,0,1,115.06,526.08Zm-3.89,3.27a4.15,4.15,0,0,0,.53-1.22,5.21,5.21,0,0,0,.2-1.52,1.7,1.7,0,0,0-.34-1.15,1.42,1.42,0,0,0-1.17-.41,2.41,2.41,0,0,0-.88.16,4.71,4.71,0,0,0-.89.39l-1.08,4.68a2.16,2.16,0,0,0,.61.19,4.52,4.52,0,0,0,.74.06,2.69,2.69,0,0,0,1.33-.32,2.8,2.8,0,0,0,1-.86ZM122.83,528c-.53,0-1,.11-1.5.17a4.78,4.78,0,0,0-1.19.27,1.58,1.58,0,0,0-.76.51,1.32,1.32,0,0,0-.27.88.72.72,0,0,0,.35.68,2.15,2.15,0,0,0,1,.19,2.78,2.78,0,0,0,.94-.2,4.63,4.63,0,0,0,.95-.53Zm-.79,3.42c-.19.11-.42.26-.69.44a6.3,6.3,0,0,1-.72.4,7,7,0,0,1-.88.29,4.67,4.67,0,0,1-1.12.1,2.82,2.82,0,0,1-1.91-.64,2.13,2.13,0,0,1-.73-1.7,3.34,3.34,0,0,1,.51-1.87,3.67,3.67,0,0,1,1.57-1.24,9,9,0,0,1,2.29-.61c.89-.13,1.85-.23,2.88-.28v-.17a1,1,0,0,0,0-.25.82.82,0,0,0-.55-.83,4.35,4.35,0,0,0-1.64-.23,6,6,0,0,0-1.62.25c-.6.16-1,.3-1.35.4h-.26l.44-2.2c.34-.08.88-.18,1.61-.3a14.45,14.45,0,0,1,2.18-.17,6.86,6.86,0,0,1,3.22.58,1.9,1.9,0,0,1,1,1.78,2.94,2.94,0,0,1,0,.42,2.43,2.43,0,0,1-.08.47l-1.46,6.34h-3Zm9.13,4.41h-3.28l2.38-3.61-1.53-9.14h3.06l.79,6.11,3.55-6.11h3.16Z" transform="translate(0 0)"/><path class="cls-5" d="M157.86,532.28a.23.23,0,0,0,.26-.2v-7.76h-2.66v8.9h-1.32v-8.9H152v8.9h-1.33v-8.9h-2.45v9.31h-1.33V523.07h4.91l.53-2.33h-6.5v-1.27h14.81v1.27h-6.72l-.8,2.33h6.38v9.42a.93.93,0,0,1-.78,1.06h-1.8l-.26-1.27Z" transform="translate(0 0)"/><path class="cls-5" d="M173.26,523.52a19.52,19.52,0,0,0-.12,2.65h2.39a14.83,14.83,0,0,0,1.72-.06v1.21a14.15,14.15,0,0,0-1.72-.08H173.2a8.39,8.39,0,0,0,.47,1.47,6.47,6.47,0,0,0,.92,1.56,10.21,10.21,0,0,0,1.47,1.47,4.8,4.8,0,0,0,1.53.89,3.92,3.92,0,0,0-1.14,1.19,14.31,14.31,0,0,1-2.25-2.08,9.16,9.16,0,0,1-1.66-2.91,9.14,9.14,0,0,1-1.11,2.34,14.73,14.73,0,0,1-1.18,1.55,8.86,8.86,0,0,1-1.5,1.3,5.26,5.26,0,0,0-1-1,8,8,0,0,0,1.52-1.13,6.68,6.68,0,0,0,1.23-1.47,8.75,8.75,0,0,0,.83-1.68,7.94,7.94,0,0,0,.41-1.5H171a23.26,23.26,0,0,0-2.33.08v-1.21c.81,0,1.58.06,2.33.06h.86c0-1.41,0-2.36-.06-2.84A14.21,14.21,0,0,0,173.26,523.52Zm-4.64.4a8.72,8.72,0,0,0-.94.65,8.42,8.42,0,0,0-.72.62,6.34,6.34,0,0,1,1,2.36,8.65,8.65,0,0,1,.17,3A3.24,3.24,0,0,1,167,532.9a5.82,5.82,0,0,1-2.61,1.1,2.67,2.67,0,0,0-.53-1.19,4.88,4.88,0,0,0,2.16-.67,2,2,0,0,0,.79-1.09,5.44,5.44,0,0,0,.21-1.27,10.59,10.59,0,0,0-.11-1.69,6,6,0,0,1-1.13,1.22c-.44.38-1.14.94-2.12,1.7a3.17,3.17,0,0,0-.93-.93,8.52,8.52,0,0,0,2.22-1.43,11.39,11.39,0,0,0,1.63-1.7,7,7,0,0,0-.53-1.06c-.22.18-.5.38-.83.61s-.85.55-1.56,1a8.73,8.73,0,0,0-.86-.86,9.08,9.08,0,0,0,2.59-1.59,7.35,7.35,0,0,0-1.59-1.06,4.33,4.33,0,0,0,.79-.92c.8.57,1.37,1,1.72,1.25a4.6,4.6,0,0,0,1.27-1.33,3.74,3.74,0,0,0,1.05.93Zm-.06-2.45a9.94,9.94,0,0,0,.06,1.33h-1.39c0-.58.06-1,.06-1.33H165.5q-1,0-2.19.06v-1.2c.84,0,1.59.08,2.25.08h1.73q0-.79-.06-1.59h1.39q-.06.64-.06,1.59h3.37a14.28,14.28,0,0,0-.06-1.67h1.39c0,.49-.06,1-.06,1.67h1.66c.7,0,1.5,0,2.39-.08v1.2c-.8,0-1.57-.06-2.32-.06H173.2a10.55,10.55,0,0,0,.06,1.33h-1.39c0-.45.06-.89.06-1.33Zm6.44,1.86a12.58,12.58,0,0,1,1.65,1.92,6,6,0,0,0-1,.8,12.82,12.82,0,0,0-1.59-2A6,6,0,0,0,175,523.33Z" transform="translate(0 0)"/><path class="cls-5" d="M180,526.85a13.12,13.12,0,0,0,4.25-4.72l1,.79c.18.14.11.25-.2.33-.57.94-1,1.59-1.25,1.94V534h-1.33v-7.38a21,21,0,0,1-1.73,1.53Zm.41-4.66a10.12,10.12,0,0,0,3.31-3.45l1.07.79c.17.18.11.3-.19.35a11.34,11.34,0,0,1-3.45,3.58Zm7,7.17a10.66,10.66,0,0,1,2.06,2.13l-1.12.93a13.43,13.43,0,0,0-2-2.26Zm-2.78-.33v-1.26h6.77v-1.13h-6.71v-1.26h10.5v1.26h-2.47v1.13h2.4V529h-2.4v3.8c0,.66-.3,1-.92,1h-1.53l-.26-1.25h1.12c.18,0,.27-.1.27-.29V529Zm7.64-6.76h-4.78v1.19h4.78Zm0-2.13h-4.78v1.07h4.78Zm1.13-1.06v5.44h-7v-5.44Zm13,.39c.48,0,.5.22.06.53l.21,3.72,4.9-.53.2,1.27-4.92.53c.32,3,1.18,5.13,2.6,6.23.66.53,1,.4,1.12-.39l.14-1.2,1.39.73-.2,1q-.6,3-3,1.33-3-2.06-3.46-7.58l-3.72.35-.06-1.27,3.58-.33-.19-4.51Zm-9.3,6.64q2.4-1.92,3.52-6.9l1.45.46c.27.18.21.29-.19.33a16.38,16.38,0,0,1-1.2,3.6c.53.08.6.23.2.45v9.5H199.5v-7.91a7.9,7.9,0,0,1-1.47,1.74Zm11.35-6.17a10.52,10.52,0,0,1,1.93,1.72l-1.2,1.14a8.09,8.09,0,0,0-1.8-1.8Z" transform="translate(0 0)"/><path class="cls-5" d="M228.45,520.47q-.94.12-6.25.47v3h5.72c0,.88-.06,1.77-.06,2.65v3.6c0,.92-.26,1.49-.77,1.68a13.2,13.2,0,0,1-2.16.57,5.36,5.36,0,0,0-.67-1.53,7.9,7.9,0,0,0,1.75-.13c.29-.09.44-.45.44-1.06v-4.66H222.2v6c0,1,0,2,.08,2.92h-1.47c0-1,.06-1.94.06-2.92v-6H216.7V532h-1.47c0-1,.06-1.88.06-2.72v-2.52q0-1.32-.06-2.79h5.64v-2.92c-2.74.09-4.74.17-6,.26a4.35,4.35,0,0,0-.47-1.26c1.59,0,3.81,0,6.64-.16a38,38,0,0,0,6.64-.83A10.69,10.69,0,0,0,228.45,520.47Z" transform="translate(0 0)"/><path class="cls-3" d="M354.84,643.07h0a14.25,14.25,0,0,1,14.25-14.24H615.93a14.25,14.25,0,0,1,14.25,14.23h0v57a14.25,14.25,0,0,1-14.25,14.25H369.09a14.25,14.25,0,0,1-14.25-14.25h0Z" transform="translate(0 0)"/><path class="cls-26" d="M354.84,643.07h0a14.25,14.25,0,0,1,14.25-14.24H615.93a14.25,14.25,0,0,1,14.25,14.23h0v57a14.25,14.25,0,0,1-14.25,14.25H369.09a14.25,14.25,0,0,1-14.25-14.25h0Z" transform="translate(0 0)"/><path class="cls-5" d="M404.83,664.41l-1.27-.39a41.67,41.67,0,0,0,1.66-6H403.3v-1.26h2.18l.47-3,1.47.27c.18.18.11.28-.2.33l-.47,2.39h1.86l.26-.27.8.67q.4.33-.12.39v1.07a14.74,14.74,0,0,1-.8,5.39,9.6,9.6,0,0,1,1.78,1.33l-.72,1.12a18.39,18.39,0,0,0-1.53-1.27q-1.12,1.86-4.72,3.27l-.65-1.34c2.16-.75,3.53-1.63,4.1-2.66a8.63,8.63,0,0,0-1.85-.92Zm3.39-6.44h-1.67c-.36,1.73-.69,3.22-1,4.46a11.08,11.08,0,0,1,2.05.92,12.61,12.61,0,0,0,.61-4.64Zm7.5,9.71v-1.14h-3.19v1.4H411.2v-12h5.85v11.77Zm-3.19-2.39h3.19v-8.11h-3.19Zm7.11-2.6a10.21,10.21,0,0,0,5.05-5.64h-4.46v-1.26H425a13.86,13.86,0,0,0,.33-2.4l1.74.33c.17.18.11.29-.21.33l-.32,1.74h8v1.26h-8.23a6.9,6.9,0,0,1-.61,1.52h6.58v8.84a.94.94,0,0,1-.8,1.06h-1.79l-.33-1.26h1.33A.24.24,0,0,0,431,667v-1.85h-5.78v3.54h-1.33v-7.32a16.34,16.34,0,0,1-3.37,2.72Zm5.5-.26v1.45h5.78v-1.45Zm5.78-1.27v-1.33h-5.78v1.33Zm20.52,4.92a9.15,9.15,0,0,1-5.32-3.65h-3.9a7.82,7.82,0,0,1-5.19,4l-.53-1.33a7.05,7.05,0,0,0,4.31-2.65h-4.05v-1.07h3.86v-5h-2.86v-1.07h2.86v-1.86h1.25c.45,0,.48.18.08.4v1.46h4.44v-1.86h1.27c.44,0,.46.18.06.4v1.46h2.73v1.07h-2.73v5h3.79v1.07h-3.85q.93,1.38,4.31,2.25Zm-10.55-.47v-1.06h2.58v-1.47h1.26c.45,0,.47.19.07.41v1.06h2.73v1.06H444.8v1.33h5.71v1.27H437.83v-1.27h5.64v-1.33Zm1.06-9.29v1h4.44v-1Zm0,2.06v.92h4.44v-.92Zm0,2v1h4.44v-1Zm12,.8v-1.45h6.56V656H455.2v-1.47h11.95V656H462v3.72h6.44v1.45H462v6.25a.76.76,0,0,1-.64.86h-2L459,666.8h1.19a.24.24,0,0,0,.27-.21v-5.43Zm29.28,7.17H481.9v-.79h-7.5v1.06H473v-14.3h10.16ZM481.9,658.2v-2.6h-7.5v2.6Zm0,3.92v-2.66h-7.5v2.66Zm0,4.17v-2.92h-7.5v2.92Z" transform="translate(0 0)"/><path class="cls-5" d="M490.09,655.52c0-.71,0-1.4-.06-2.06h1.33c-.05.62-.08,1.31-.08,2.06v1.59c.71,0,1.46,0,2.27-.06v1.25c-.81,0-1.56-.06-2.27-.06v2.26c.31-.23.63-.47.94-.73.57.93,1.08,1.83,1.53,2.72a7,7,0,0,0-1.27.73,8.59,8.59,0,0,0-1.2-2.45v5.17c0,.94,0,1.87.08,2.8H490c0-1,.06-1.91.06-2.8v-4.31a12.41,12.41,0,0,1-2.06,3.58,4.74,4.74,0,0,0-1-1,8.41,8.41,0,0,0,1.83-2.83,12.34,12.34,0,0,0,.9-3.15,14.69,14.69,0,0,0-2.2.14V657c.85,0,1.69.06,2.53.06Zm10.36,3.39a20.62,20.62,0,0,0,2.33-.08v1.27c-.67,0-1.35-.06-2.06-.06h-2.06v6.7a1.43,1.43,0,0,1-.6,1.39,6.27,6.27,0,0,1-2.12.55,5.51,5.51,0,0,0-.53-1.54,9.13,9.13,0,0,0,1.65-.09q.33-.1.33-.78V660h-1.66a15.88,15.88,0,0,0-2.39.12v-1.33c.58,0,1.37.08,2.39.08Zm-.73-4.39c.92,0,1.68,0,2.26-.06v1.33a23.41,23.41,0,0,0-2.65-.15h-3.27a14,14,0,0,0-2.05.15v-1.33c.62,0,1.3.06,2.05.06Zm1,7.31c1,1.5,1.78,2.85,2.45,4a10.25,10.25,0,0,0-1.45.8,19.49,19.49,0,0,0-2.21-4,6.5,6.5,0,0,0,1.21-.8Zm-4.46.66a18.91,18.91,0,0,0-1,2.14,24.42,24.42,0,0,1-1.12,2.44,10.6,10.6,0,0,0-1.33-.6,13.74,13.74,0,0,0,1.3-2.42,18.13,18.13,0,0,0,.7-2.16c.48.22,1,.42,1.45.6Z" transform="translate(0 0)"/><path class="cls-5" d="M514.45,657.77a10.7,10.7,0,0,1-2.12,3.53l-1-1.2a11,11,0,0,0,2.85-6.44l1.4.47c.4.18.37.31-.08.39a17.32,17.32,0,0,1-.53,2h4.78l-.32,9c0,1.77-.75,2.66-2.13,2.66h-1.86l-.2-1.27H517c.62,0,1-.4,1-1.2l.33-8Zm.8,6.19a14.74,14.74,0,0,0-2-2.39l1.13-1.21a14.63,14.63,0,0,1,2.12,2.33Zm-7.83-7.44c.26-.84.51-1.82.74-2.92l1.59.59c.18.18.11.29-.2.33a10.91,10.91,0,0,1-.74,2h2.45v11h-1.32v-.79H507V668h-1.32V656.52Zm2.52,1.25H507v2.92h2.93Zm0,4.19H507v3.45h2.93Zm18,5.51a5.19,5.19,0,0,0,2.72-5v-7.64l1.4.26,3.58-1.12,1,1.33c.08.27-.07.31-.47.14l-4.19.79v2.85h5.25v1.26h-2v8.32H533.9v-8.32H532v2.53a6.33,6.33,0,0,1-3.31,5.85Zm-1.27,1.27h-1.33v-4a10.57,10.57,0,0,1-2.31,2.72l-1-1.2a12,12,0,0,0,3.13-3.31h-2.8v-1.27h3v-1.45H522V659h4.64l.73-2.39h-4.92v-1.26h2.92v-1.86h1.27c.35,0,.37.17.06.4v1.46h2.92v1.26h-.86l-.92,2.39H530v1.27H526.7v1.45h2.92V663H526.7v.59a9.81,9.81,0,0,1,2.59,1.39l-.79,1.33a9.7,9.7,0,0,0-1.8-1.45ZM524,658.83a8.82,8.82,0,0,0-.71-1.78l1.25-.41a7.41,7.41,0,0,1,.79,1.8Zm26.38,5.85a51.93,51.93,0,0,0-3.86-3.85,8.55,8.55,0,0,1-3.72,4.58l-.92-1.33a7.16,7.16,0,0,0,3.72-6.58h-4.13v10.71H540v-12h5.72v-2.32h1.45c.45.08.48.26.08.53v1.79h6V666.7c0,.88-.42,1.33-1.26,1.33h-1.6l-.26-1.46h1.32a.24.24,0,0,0,.27-.21V657.5H547.2a11.19,11.19,0,0,1-.18,2,24.63,24.63,0,0,1,4.43,3.72Zm17.19-1.46a13.45,13.45,0,0,1-4.25-3.39,13.44,13.44,0,0,1-3.46,3.39ZM564,658.83a14.65,14.65,0,0,0,7.3,4.25l-.39,1.53a11.94,11.94,0,0,1-3-1.18v5h-1.33V668H560.4v.67h-1.33v-5a8.66,8.66,0,0,1-2.52,1.27l-.59-1.41q5.17-2,7-5.76l1.39.45c.17.18.11.29-.21.34Zm-7.11.94a9.41,9.41,0,0,0,3.78-2.72l1,.92c.27.22.18.33-.26.33a12.68,12.68,0,0,1-3.79,2.74Zm9.7,7v-2.31h-6.18v2.31Zm-.26-9.42a16.56,16.56,0,0,0,4,2.19l-.59,1.32a13.53,13.53,0,0,1-4.25-2.51Zm2.78-1H557.83v1.92H556.5v-3.19h6.17v-1.65h1.45c.36,0,.38.17.08.4v1.25h6.24v3.07h-1.33Zm4.58,9.09h1.53v1.47l-.8,1.8h-.73l.67-1.8h-.67Z" transform="translate(0 0)"/><path class="cls-5" d="M422.24,679.3a19.66,19.66,0,0,0-.12,2.66h2.39a16.49,16.49,0,0,0,1.72-.07v1.21a16.5,16.5,0,0,0-1.72-.08h-2.33a8.66,8.66,0,0,0,.47,1.47,7.19,7.19,0,0,0,.92,1.56,10.21,10.21,0,0,0,1.47,1.47,4.8,4.8,0,0,0,1.53.89,4.17,4.17,0,0,0-1.14,1.19,14.31,14.31,0,0,1-2.25-2.08,8.85,8.85,0,0,1-1.65-2.91,10.11,10.11,0,0,1-1.11,2.35,14.7,14.7,0,0,1-1.19,1.54,8.86,8.86,0,0,1-1.5,1.3,4.74,4.74,0,0,0-1-1,8,8,0,0,0,1.52-1.12,7.22,7.22,0,0,0,1.23-1.47,8.83,8.83,0,0,0,.83-1.69,7.09,7.09,0,0,0,.41-1.5H420a23,23,0,0,0-2.32.08v-1.21c.8.05,1.57.07,2.32.07h.86q0-2.13-.06-2.85A11.83,11.83,0,0,0,422.24,679.3Zm-4.64.41a6.66,6.66,0,0,0-.93.64,8.42,8.42,0,0,0-.72.62,6.84,6.84,0,0,1,1,2.36,8.65,8.65,0,0,1,.17,3,3.3,3.3,0,0,1-1.14,2.36,5.92,5.92,0,0,1-2.61,1.09,2.78,2.78,0,0,0-.53-1.19,4.88,4.88,0,0,0,2.16-.67,2.09,2.09,0,0,0,.8-1.09,6.11,6.11,0,0,0,.2-1.27,10.59,10.59,0,0,0-.11-1.69,6,6,0,0,1-1.13,1.22c-.43.38-1.14.95-2.12,1.71a3.29,3.29,0,0,0-.92-.94,9.42,9.42,0,0,0,2.22-1.42,11.39,11.39,0,0,0,1.62-1.71,6.17,6.17,0,0,0-.53-1.06c-.22.18-.49.38-.83.61s-.85.55-1.56,1a7,7,0,0,0-.86-.86,9.34,9.34,0,0,0,2.59-1.6,7.35,7.35,0,0,0-1.59-1.06,4.37,4.37,0,0,0,.8-.92l1.72,1.25a4.57,4.57,0,0,0,1.26-1.33,3.92,3.92,0,0,0,1,1Zm-.06-2.46a9.94,9.94,0,0,0,.06,1.33h-1.39c0-.58.07-1,.07-1.33h-1.8c-.67,0-1.4,0-2.19.07v-1.21c.84.06,1.59.08,2.25.08h1.74a12.09,12.09,0,0,0-.07-1.59h1.39q-.06.66-.06,1.59h3.38a12.33,12.33,0,0,0-.07-1.67h1.39c0,.49-.06,1.05-.06,1.67h1.66c.71,0,1.5,0,2.39-.08v1.21c-.79-.05-1.56-.07-2.31-.07h-1.74a10.55,10.55,0,0,0,.06,1.33h-1.39a11.85,11.85,0,0,0,.07-1.33Zm6.44,1.86a11.69,11.69,0,0,1,1.65,1.93,5.43,5.43,0,0,0-1,.79,12.82,12.82,0,0,0-1.59-2,4.82,4.82,0,0,0,1-.72Z" transform="translate(0 0)"/><path class="cls-5" d="M429,682.63a13.47,13.47,0,0,0,4.25-4.72l1,.8c.17.13.11.24-.21.33-.57.93-1,1.58-1.25,1.93v8.77h-1.32v-7.38a21.15,21.15,0,0,1-1.74,1.53Zm.4-4.66a10.15,10.15,0,0,0,3.32-3.45l1.06.8c.18.17.11.29-.19.34a11.24,11.24,0,0,1-3.45,3.58Zm7,7.17a10.71,10.71,0,0,1,2.07,2.13l-1.13.94a12.71,12.71,0,0,0-2-2.27Zm-2.78-.32v-1.27h6.77v-1.12h-6.7v-1.27h10.5v1.27H441.7v1.12h2.39v1.27H441.7v3.79c0,.66-.31,1-.92,1h-1.54l-.26-1.25h1.12a.25.25,0,0,0,.27-.23v-3.3Zm7.64-6.77h-4.78v1.19h4.78Zm0-2.12h-4.78V677h4.78Zm1.13-1.07v5.44h-7.05v-5.44Zm10.48,4H450.3v1.92A8.78,8.78,0,0,1,453,683l-.73,1.2a9.34,9.34,0,0,0-2-1.92v7.3H449V682.2a9.53,9.53,0,0,1-2.27,3.27l-.86-1.14a11.81,11.81,0,0,0,3.13-5.5h-2.74v-1.27H449v-3h1.25c.35,0,.38.17.08.39v2.59h2.57Zm.61-3.06h6.91v13.48H459v-.59h-4.25v1h-1.33Zm1.33,1.26v2.52H459v-2.52Zm0,3.78v2.6H459v-2.6Zm0,6.58H459V684.7h-4.25Zm9.22-4.25V681.9h5.84v-2.4h-5v-1.26H476.1v1.26h-4.92v2.39h5.92v1.27h-5.65q.87,3.39,6.18,4.58l-.87,1.53a7.79,7.79,0,0,1-6-4.45c-.71,2.43-2.95,4.07-6.7,4.92l-.61-1.53c3.95-.75,6-2.44,6.25-5.05Zm10.7-7.7a27.48,27.48,0,0,1-1.33,2.59l-1.26-.53a14.55,14.55,0,0,0,1.26-2.92l1.52.53c.16.17.08.28-.21.32Zm-7.37-.67a6.72,6.72,0,0,1,1.65,2.46l-1.32.8a14.3,14.3,0,0,0-1.6-2.47Zm19.39,14.62A5.42,5.42,0,0,1,483,687.8a9.24,9.24,0,0,1-2.47,1.88L480,688a9.73,9.73,0,0,0,2.26-1.18v-4.33H480.2v-1.25h3.39v5.5a5,5,0,0,0,3.45,1.2h8.24l-.27,1.47Zm.92-12.89a17.7,17.7,0,0,1,2.13.59l1.26-.92H485v-1.26h7.58l.33-.21,1,.74c.26.22.14.35-.35.39l-2.57,1.73.86.39-.8.8h3v7.58a.81.81,0,0,1-.68.92h-1.71l-.06-1.25h.86c.18,0,.26-.09.26-.27V684.5h-2.51v2.59h-1.33V684.5H486.4v2.86h-1.33v-8.58H490c-1.86-.75-3-1.17-3.31-1.25Zm2.47,3.31v1.27h2.51v-1.27Zm-3.72,0v1.27h2.39v-1.27Zm2.39,2.33H486.4v1.27h2.39Zm3.84,0h-2.51v1.27h2.51Zm-10.82-7.37a7.89,7.89,0,0,1,2.47,2.2l-1.15,1.19a12.61,12.61,0,0,0-2.25-2.25Zm15.4,7.57V681.1h3.46v-2.72h-.86a6.85,6.85,0,0,1-1.66,2.12l-1-1a8.94,8.94,0,0,0,2.8-4.9l1.33.39c.26.13.19.27-.21.4a11.84,11.84,0,0,1-.73,1.72h4.19v1.27H502v2.72h3.33v1.26H502a12.32,12.32,0,0,1-.12,1.72,22.3,22.3,0,0,1,3.31,3.13l-.92,1.26c-1.24-1.55-2.15-2.63-2.72-3.25a7.74,7.74,0,0,1-3.39,4l-.94-1.2a5.82,5.82,0,0,0,3.46-5.71Zm14.16-5.72v12H510v-1.07h-2.8v1.26h-1.32v-12.2ZM510,677.91h-2.8v8.38H510Z" transform="translate(0 0)"/><path class="cls-6" d="M528.62,680.85l-.53.9-3-1.76v3H524l0-3-3,1.78-.53-.92,3.16-1.72-3.16-1.72.53-.91,3,1.77-.07-3h1.08l-.06,3,3-1.77.53.93-3.16,1.7Zm11,0-.53.9-3-1.76v3H535v-3l-3,1.78-.53-.92,3.15-1.72-3.15-1.72.53-.91,3,1.77-.06-3H536l-.06,3,3-1.77.53.93-3.15,1.7Zm11,0-.53.9-3-1.76v3H546v-3l-3,1.78-.53-.92,3.16-1.72-3.16-1.72.53-.91,3,1.77-.06-3H547l-.07,3,3-1.77.53.93-3.16,1.7Zm11,0-.54.9-3-1.76v3h-1v-3l-3,1.78-.53-.92,3.16-1.72-3.16-1.72.53-.91,3,1.77-.07-3h1.08l-.06,3,3-1.77.54.93-3.16,1.7Zm11,0-.53.9-3-1.76,0,3h-1.08v-3l-3,1.78-.53-.92,3.15-1.72-3.15-1.72.53-.91,3,1.77-.06-3h1.08l-.06,3,3-1.77.53.93-3.15,1.7Z" transform="translate(0 0)"/><path class="cls-3" d="M492.51,247v35.15H145.68V317.3" transform="translate(0 0)"/><path class="cls-27" d="M492.51,258.33v23.78H145.68v17.15" transform="translate(0 0)"/><path class="cls-25" d="M492.51,248.46a4.94,4.94,0,1,1-4.94,4.94,4.94,4.94,0,0,1,4.94-4.94Z" transform="translate(0 0)"/><path class="cls-25" d="M140.72,299.26l5,13.62,4.95-13.62Z" transform="translate(0 0)"/><path class="cls-3" d="M283.34,360h71.49" transform="translate(0 0)"/><path class="cls-27" d="M294.71,360h42.12" transform="translate(0 0)"/><path class="cls-25" d="M284.84,360a4.94,4.94,0,1,1,4.94,4.94h0a4.93,4.93,0,0,1-4.93-4.93Z" transform="translate(0 0)"/><path class="cls-25" d="M336.83,365l13.62-5-13.62-4.95Z" transform="translate(0 0)"/><path class="cls-3" d="M283.34,671.57h71.5" transform="translate(0 0)"/><path class="cls-24" d="M294.71,671.57h42.13" transform="translate(0 0)"/><path class="cls-25" d="M284.84,671.57a4.94,4.94,0,1,1,5,4.93h0A5,5,0,0,1,284.84,671.57Z" transform="translate(0 0)"/><path class="cls-25" d="M336.84,676.52l13.61-4.95-13.61-5Z" transform="translate(0 0)"/><path class="cls-3" d="M492.51,402.74v35.15H145.68V473" transform="translate(0 0)"/><path class="cls-27" d="M492.51,414.11v23.78H145.68V455" transform="translate(0 0)"/><path class="cls-25" d="M492.51,404.24a4.94,4.94,0,1,1-4.93,4.95h0A5,5,0,0,1,492.51,404.24Z" transform="translate(0 0)"/><path class="cls-25" d="M140.72,455l5,13.62L150.63,455Z" transform="translate(0 0)"/><path class="cls-3" d="M319.09,91.17v35.16H145.67v35.14" transform="translate(0 0)"/><path class="cls-27" d="M319.09,102.54v23.79H145.67v17.14" transform="translate(0 0)"/><path class="cls-25" d="M319.09,92.67a4.94,4.94,0,1,1-4.94,4.94,4.94,4.94,0,0,1,4.94-4.94Z" transform="translate(0 0)"/><path class="cls-25" d="M140.71,143.47l5,13.62,5-13.62Z" transform="translate(0 0)"/><path class="cls-3" d="M283.34,515.78h71.49" transform="translate(0 0)"/><path class="cls-27" d="M294.71,515.78h42.12" transform="translate(0 0)"/><path class="cls-25" d="M284.84,515.78a4.94,4.94,0,1,1,4.94,4.94h0a4.93,4.93,0,0,1-4.93-4.93Z" transform="translate(0 0)"/><path class="cls-25" d="M336.83,520.74l13.62-5-13.62-4.95Z" transform="translate(0 0)"/><path class="cls-3" d="M283.34,204.22h71.5" transform="translate(0 0)"/><path class="cls-27" d="M294.71,204.22h42.13" transform="translate(0 0)"/><path class="cls-25" d="M284.84,204.22a4.94,4.94,0,1,1,4.94,4.94h0a4.93,4.93,0,0,1-4.93-4.93Z" transform="translate(0 0)"/><path class="cls-25" d="M336.84,209.18l13.61-5-13.61-5Z" transform="translate(0 0)"/><path class="cls-3" d="M492.51,558.52v35.15H145.67v35.15" transform="translate(0 0)"/><path class="cls-27" d="M492.51,569.89v23.78H145.67v17.15" transform="translate(0 0)"/><path class="cls-25" d="M492.51,560a4.94,4.94,0,1,1-4.94,4.94,4.94,4.94,0,0,1,4.94-4.94Z" transform="translate(0 0)"/><path class="cls-25" d="M140.72,610.82l4.95,13.61,5-13.61Z" transform="translate(0 0)"/><rect class="cls-22" x="201.47" y="359.14" width="18.32" height="20.01"/><path class="cls-6" d="M219.27,357.2H203.41a4.66,4.66,0,0,0-4.68,4.64h0v15.85a4.66,4.66,0,0,0,4.64,4.68h15.89a4.66,4.66,0,0,0,4.68-4.64h0V361.87a4.5,4.5,0,0,0-4.32-4.67Zm-5.2,15.46a2.65,2.65,0,0,1,1.43-.52,2.34,2.34,0,1,1-2.34,2.34h0l-6-2.86a2.23,2.23,0,0,1-1.3.39,2.34,2.34,0,0,1,0-4.68h0a2,2,0,0,1,1.43.52l5.72-2.73h0a2.34,2.34,0,1,1,2.34,2.34h0a2,2,0,0,1-1.43-.52l-5.85,2.86v.13Z" transform="translate(0 0)"/><path class="cls-28" d="M165.37,357.2h19a3.16,3.16,0,0,1,3.12,3.12v19a3.16,3.16,0,0,1-3.12,3.12h-19a3.16,3.16,0,0,1-3.12-3.12v-19A3.16,3.16,0,0,1,165.37,357.2Z" transform="translate(0 0)"/><path class="cls-22" d="M183.17,361.87,166,368.5c-1.17.52-1.17,1.17-.26,1.43l4.29,1.3,1.69,5.07c.26.52.13.78.65.78a1.9,1.9,0,0,0,.91-.39l2.08-2.08,4.42,3.25c.78.39,1.43.26,1.56-.78l2.86-13.77C184.73,362,184,361.48,183.17,361.87Zm-12.34,9,9.62-6.11c.52-.26.91-.13.52.13l-8.19,7.41-.26,3.38Z" transform="translate(0 0)"/><path class="cls-29" d="M150.92,379.29a3.16,3.16,0,0,1-3.12,3.12h-19a3.16,3.16,0,0,1-3.12-3.12v-19a3.16,3.16,0,0,1,3.12-3.12h19a3.16,3.16,0,0,1,3.12,3.12Z" transform="translate(0 0)"/><path class="cls-22" d="M146.11,376a4.53,4.53,0,0,0,2.08-3.77c0-2.73-2.73-4.94-6-4.94s-6,2.21-6,4.94,2.73,4.94,6,4.94a11.16,11.16,0,0,0,2.08-.26h.39l1.3.78c.26.13.39,0,.39-.26l-.26-1a.24.24,0,0,1-.11-.32.2.2,0,0,1,.11-.11Zm-5.85-4.55a.78.78,0,1,1,.78-.78h0a.84.84,0,0,1-.78.82Zm3.9,0a.78.78,0,1,1,.78-.78h0a.75.75,0,0,1-.67.82h-.11Z" transform="translate(0 0)"/><path class="cls-22" d="M142.34,366.81h.39c-.52-2.86-3.51-5.07-7-5.07-3.9,0-7.15,2.73-7.15,6a5.59,5.59,0,0,0,2.47,4.55c.13.13.26.26.13.39l-.39,1.3c-.13.39.13.52.39.39l1.56-.91c.13-.13.26-.13.52,0a7.42,7.42,0,0,0,2.47.39h.39a5.31,5.31,0,0,1-.26-1.43C135.72,369.28,138.7,366.81,142.34,366.81Zm-4.42-2a.91.91,0,1,1-.91.91.89.89,0,0,1,.87-.91h0Zm-4.68,2a.91.91,0,1,1,.91-.91.89.89,0,0,1-.87.91h0Z" transform="translate(0 0)"/><rect class="cls-30" x="90.76" y="359.27" width="22.09" height="20.27"/><path class="cls-31" d="M112.07,357.2H91.54a2.33,2.33,0,0,0-2.34,2.32h0v20.53a2.33,2.33,0,0,0,2.32,2.34h20.55a2.33,2.33,0,0,0,2.34-2.32h0V359.53a2.33,2.33,0,0,0-2.33-2.33Zm-2.6,8.71a15.22,15.22,0,0,1-.26,2.86,12.59,12.59,0,0,1-3.77,6.37,11.06,11.06,0,0,1-7.67,2.47,12.72,12.72,0,0,1-5.46-1.69A8.26,8.26,0,0,0,98,374.23a3.94,3.94,0,0,1-3.64-2.73,4.19,4.19,0,0,0,1.69-.13,3.84,3.84,0,0,1-3.12-3.9,3.69,3.69,0,0,0,1.82.39s-3-2.21-1.17-5.2a11.32,11.32,0,0,0,8.06,4c-1.3-3.38,4.29-6.76,6.63-3.64a5.53,5.53,0,0,0,2.47-.91,4,4,0,0,1-1.69,2.08,5.74,5.74,0,0,0,2.08-.52,4.22,4.22,0,0,1-1.69,2.23Z" transform="translate(0 0)"/><rect class="cls-22" x="56.84" y="360.31" width="17.54" height="22.09"/><path class="cls-32" d="M64.77,382.4l.13-8.06H61.52l.13-3.9H64.9v-2.86a3.57,3.57,0,0,1,.13-1.17,3.14,3.14,0,0,1,.26-1c.13-.26.26-.65.39-.91a3,3,0,0,1,.52-.65,2.19,2.19,0,0,1,.65-.52l.78-.39c.52-.13.91-.26,1.43-.39h3.38l-.13,3.64H70.23c-1.56,0-1.56,1.17-1.56,1.3v3l3.64.13-.52,3.77H68.67v8.06H75.3a2.33,2.33,0,0,0,2.34-2.32h0v-20.6a2.33,2.33,0,0,0-2.32-2.34H54.89a2.33,2.33,0,0,0-2.34,2.32h0V380a2.33,2.33,0,0,0,2.32,2.34h9.9" transform="translate(0 0)"/></g><circle class="cls-6" cx="71.68" cy="686.28" r="15.2" transform="translate(-616.61 735.08) rotate(-88.09)"/><path class="cls-22" d="M78.27,684.66c.27-1.75-1.21-2.69-3.09-3.36l.67-2.42-1.61-.4-.67,2.29c-.4-.13-.81-.13-1.21-.27l.67-2.42-1.61-.4-.67,2.42a7.75,7.75,0,0,1-.94-.27h0l-2.15-.54-.4,1.61s1.21.27,1.08.27c.67.13.81.54.67.81l-.67,2.69h0l-1.08,3.9a.83.83,0,0,1-.67.4l-1.08-.27-.81,1.61,2,.54a10,10,0,0,1,1.08.27l-.67,2.42,1.61.4.81-2.15a4.17,4.17,0,0,0,1.21.27l-.67,2.42,1.61.4.67-2.42c2.69.54,4.57.27,5.51-2,.67-1.88,0-2.82-1.48-3.5A2.48,2.48,0,0,0,78.27,684.66Zm-3.5,4.71c-.54,1.88-3.77.81-4.84.54l.81-3.23C71.94,687,75.31,687.49,74.77,689.37Zm.54-4.71c-.4,1.61-3.09.81-4,.67l.81-3C72.89,682.51,75.71,682.91,75.31,684.66Z" transform="translate(0 0)"/><path class="cls-22" d="M176.45,675.25h-4.71a3.09,3.09,0,0,0-3.23,1.88l-8.88,20.31H166s1.08-2.69,1.21-3.36H175c.13.81.67,3.36.67,3.36h5.65Zm-7.53,14.39c.54-1.21,2.42-6.19,2.42-6.19s.54-1.34.81-2.15l.4,1.88s1.21,5.25,1.34,6.46Zm-8.88.54c0,4.57-4.17,7.53-10.49,7.53a17.17,17.17,0,0,1-6.72-1.21l.81-5,.81.4a12.83,12.83,0,0,0,5.65,1.21c1.75,0,3.63-.67,3.63-2.15,0-.94-.81-1.61-3.09-2.69s-5.38-2.82-5.25-6c0-4.3,4.3-7.26,10.22-7.26A17,17,0,0,1,161,676l-.81,4.84-.54-.27a10.36,10.36,0,0,0-4.57-.81c-2.42,0-3.5.94-3.5,1.88s1.34,1.75,3.36,2.69c3.49,1.51,5.07,3.53,5.07,6Zm-53-14.66.13-.4h9.41a2.49,2.49,0,0,1,2.69,1.75l2,9.82c-2.12-5.12-7-9.43-14.27-11.17Zm27.3-.27-9.54,22h-6.46L113,678.88c3.9,2.56,7.26,6.46,8.34,9.15l.67,2.42,5.92-15.06,6.46-.13Zm2.42,0h6.05L139,697.44h-6Z" transform="translate(0 0)"/><path d="M204.15,701.47v-2a1.24,1.24,0,0,0-1.13-1.34h-.08a1.22,1.22,0,0,0-1.08.54,1.1,1.1,0,0,0-1.08-.54,1.2,1.2,0,0,0-.94.54v-.4h-.67v3.23h.67v-1.88a.71.71,0,0,1,.59-.81h.22c.54,0,.67.27.67.81v1.88H202v-1.88a.81.81,0,0,1,1.61,0v1.88Zm10.49-3.23h-1.21v-.94h-.67v.94h-.67v.54h.67v1.48c0,.81.27,1.21,1.08,1.21a1.48,1.48,0,0,0,.81-.27l-.27-.54a1,1,0,0,1-.54.13.58.58,0,0,1-.54-.54v-1.48h1.21v-.54Zm5.92,0a.74.74,0,0,0-.81.54v-.4h-.67v3.23h.67v-1.88c0-.54.27-.81.67-.81a.49.49,0,0,1,.4.13l.27-.54a.54.54,0,0,0-.53-.26Zm-9,.27a2,2,0,0,0-1.34-.27c-.81,0-1.34.4-1.34,1.08s.4.81,1.08.94h.27c.4,0,.54.13.54.4s-.27.4-.81.4a2,2,0,0,1-1.08-.27l-.27.54a3.53,3.53,0,0,0,1.34.4c.94,0,1.48-.4,1.48-1.08s-.4-.81-1.08-.94h-.27c-.27,0-.54-.13-.54-.27s.27-.4.67-.4a2.54,2.54,0,0,1,1.08.27Zm9.82,1.34a1.55,1.55,0,0,0,1.49,1.61H223a1.32,1.32,0,0,0,1.08-.4l-.27-.54a1.94,1.94,0,0,1-.81.27,1.09,1.09,0,0,1,0-2.15,1.94,1.94,0,0,1,.81.27l.4-.4a1.53,1.53,0,0,0-1.08-.4,1.79,1.79,0,0,0-1.75,1.75Zm-4.57-1.61a1.55,1.55,0,0,0-1.61,1.49h0v.12a1.48,1.48,0,0,0,1.34,1.61h.27a2.27,2.27,0,0,0,1.34-.4l-.27-.54a1.12,1.12,0,0,1-.94.27A.89.89,0,0,1,216,700h2.42v-.27a1.52,1.52,0,0,0-1.56-1.48h-.05Zm0,.54a.71.71,0,0,1,.81.59.81.81,0,0,1,0,.22h-1.75a.89.89,0,0,1,.92-.81Zm-8.74,1.08v-1.61h-.67v.4a1.43,1.43,0,0,0-1.08-.54,1.62,1.62,0,0,0,0,3.23,1.22,1.22,0,0,0,1.08-.54v.4h.67Zm-2.69,0a1.06,1.06,0,0,1,1-1.08h0a1,1,0,0,1,.94,1.06h0a1,1,0,0,1-.91,1.08h0a1.16,1.16,0,0,1-1.1-1.08Zm25-1.61a.74.74,0,0,0-.81.54v-.4h-.67v3.23h.67v-1.88c0-.54.27-.81.67-.81a.49.49,0,0,1,.4.13l.27-.54c-.26-.27-.4-.27-.53-.27Zm5.25,2.69h.27v.54h-.54v-.54Zm0,.67h.13v-.27h-.27v.27Zm0-.4h.13l.13.13h0l-.13-.13h0v.13h0Zm-7.8-1.34v-1.61h-.67v.4a1.43,1.43,0,0,0-1.08-.54,1.62,1.62,0,1,0,0,3.23,1.22,1.22,0,0,0,1.08-.54v.4h.67Zm-2.56,0a1.06,1.06,0,0,1,1-1.08h0a1,1,0,0,1,.94,1.06h0a1,1,0,0,1-.91,1.08h0a1.06,1.06,0,0,1-1.08-1v0Zm9.15,0v-3h-.67v1.61a1.43,1.43,0,0,0-1.08-.54,1.62,1.62,0,1,0,0,3.23,1.22,1.22,0,0,0,1.08-.54v.4h.67Zm-2.69,0a1.06,1.06,0,0,1,1-1.08h0a1,1,0,0,1,.94,1.06h0a1,1,0,0,1-.91,1.08h0a1.06,1.06,0,0,1-1.09-1v-.06Z" transform="translate(0 0)"/><g class="cls-33"><rect x="196.35" y="694.21" width="42.37" height="10.09"/></g><g class="cls-34"><rect class="cls-35" x="208.05" y="670.94" width="17.08" height="24.48"/></g><g class="cls-36"><rect class="cls-37" x="194.2" y="668.39" width="25.02" height="29.72"/></g><g class="cls-38"><rect class="cls-39" x="232.13" y="687.62" width="6.46" height="5.92"/></g><g class="cls-40"><rect class="cls-39" x="213.97" y="668.39" width="25.02" height="29.72"/></g></svg>