<?xml version="1.0" standalone="yes"?>

<svg version="1.1" viewBox="0.0 0.0 364.6404199475066 365.4146981627297" fill="none" stroke="none" stroke-linecap="square" stroke-miterlimit="10" xmlns="http://www.w3.org/2000/svg" xmlns:xlink="http://www.w3.org/1999/xlink"><clipPath id="p.0"><path d="m0 0l364.6404 0l0 365.4147l-364.6404 0l0 -365.4147z" clip-rule="nonzero"></path></clipPath><g clip-path="url(#p.0)"><path fill="#000000" fill-opacity="0.0" d="m0 0l364.6404 0l0 365.4147l-364.6404 0z" fill-rule="evenodd"></path><path fill="#1e9a1e" d="m-0.40419948 60.909355l0 0c0 -33.63931 27.270046 -60.909355 60.90935 -60.909355l243.6301 0l0 0c16.154175 0 31.646698 6.4172173 43.069427 17.839937c11.4227295 11.42272 17.839935 26.91525 17.839935 43.06942l0 243.6301c0 33.639313 -27.27005 60.909363 -60.909363 60.909363l-243.6301 0c-33.639305 0 -60.90935 -27.27005 -60.90935 -60.909363z" fill-rule="evenodd"></path><path fill="#ffffff" d="m30.136597 261.1822l40.97574 2.746582E-4l12.661942 -36.476425l12.661942 36.476425l40.97574 -2.746582E-4l-33.15023 22.543427l12.66246 36.476227l-33.14991 -22.543823l-33.14991 22.543823l12.662464 -36.476227z" fill-rule="evenodd"></path><path fill="#000000" fill-opacity="0.0" d="m129.89502 207.20998l217.51181 0l0 130.48817l-217.51181 0z" fill-rule="evenodd"></path><path fill="#ffffff" d="m216.2787 297.51996l-10.21875 0l0 17.453125l-18.453125 0l0 -17.453125l-36.265625 0l0 -14.1875l35.0625 -43.45311l19.65625 0l0 43.95311l10.21875 0l0 13.6875zm-28.671875 -13.6875l0 -27.046875l-21.78125 27.046875l21.78125 0zm60.513428 30.9375l-18.8125 0l0 -19.765625l18.8125 0l0 19.765625zm78.2332 -17.25l-10.21875 0l0 17.453125l-18.453125 0l0 -17.453125l-36.265625 0l0 -14.1875l35.0625 -43.45311l19.65625 0l0 43.95311l10.21875 0l0 13.6875zm-28.671875 -13.6875l0 -27.046875l-21.78125 27.046875l21.78125 0z" fill-rule="nonzero"></path><path fill="#000000" fill-opacity="0.0" d="m30.887138 40.29659l302.86615 0l0 90.267715l-302.86615 0z" fill-rule="evenodd"></path><path fill="#ffffff" d="m94.255394 105.616585l-13.5625 0l-12.828125 -17.171875l-2.59375 3.140625l0 14.03125l-11.0625 0l0 -42.89062l11.0625 0l0 19.406246l15.328125 -19.406246l12.828125 0l-16.765625 19.843746l17.59375 23.046875zm29.239365 -29.765625q0 -1.609375 -0.671875 -2.75q-0.65625 -1.15625 -2.265625 -1.828125q-1.125 -0.453125 -2.625 -0.546875q-1.5 -0.109375 -3.484375 -0.109375l-4.0 0l0 11.546875l3.390625 0q2.65625 0 4.4375 -0.25q1.78125 -0.265625 3.0 -1.1875q1.15625 -0.890625 1.6875 -1.96875q0.53125 -1.078125 0.53125 -2.90625zm17.250008 29.765625l-13.500008 0l-11.703125 -15.734375l-5.09375 0l0 15.734375l-11.015625 0l0 -42.89062l18.5625 0q3.796875 0 6.53125 0.4375q2.734375 0.421875 5.1250076 1.8593712q2.421875 1.4375 3.84375 3.734375q1.4375 2.28125 1.4375 5.75q0 4.75 -2.203125 7.75q-2.203125 2.984375 -6.2968826 4.984375l14.312508 18.375zm42.319977 -42.89062l-15.828125 26.296871l0 16.59375l-11.0625 0l0 -16.078125l-16.0625 -26.812496l12.546875 0l9.28125 16.593746l8.96875 -16.593746l12.15625 0zm40.875137 13.531246q0 2.890625 -1.015625 5.640625q-1.0 2.75 -2.875 4.625q-2.5625 2.53125 -5.71875 3.828125q-3.140625 1.296875 -7.84375 1.296875l-6.890625 0l0 13.96875l-11.0625 0l0 -42.89062l18.21875 0q4.078125 0 6.890625 0.703125q2.8125 0.7031212 4.96875 2.1093712q2.59375 1.703125 3.953125 4.359375q1.375 2.640625 1.375 6.359375zm-11.4375 0.265625q0 -1.8125 -0.984375 -3.125q-0.96875 -1.3125 -2.265625 -1.828125q-1.734375 -0.703125 -3.375 -0.765625q-1.640625 -0.078125 -4.375 -0.078125l-1.90625 0l0 12.859375l3.171875 0q2.828125 0 4.65625 -0.34375q1.828125 -0.359375 3.0625 -1.390625q1.0625 -0.921875 1.53125 -2.203125q0.484375 -1.28125 0.484375 -3.125zm52.583496 -5.5l-13.39061 0l0 34.59375l-11.0625 0l0 -34.59375l-13.390625 0l0 -8.296871l37.843735 0l0 8.296871zm48.138733 13.15625q0 10.265625 -5.875 16.296875q-5.875 6.03125 -16.25 6.03125q-10.34375 0 -16.21875 -6.03125q-5.875 -6.03125 -5.875 -16.296875q0 -10.34375 5.875 -16.34375q5.875 -6.015621 16.21875 -6.015621q10.3125 0 16.21875 6.015621q5.90625 6.0 5.90625 16.34375zm-14.65625 10.859375q1.609375 -1.953125 2.375 -4.609375q0.78125 -2.671875 0.78125 -6.28125q0 -3.859375 -0.890625 -6.5625q-0.890625 -2.703125 -2.328125 -4.375q-1.46875 -1.734375 -3.390625 -2.5q-1.90625 -0.78125 -3.984375 -0.78125q-2.109375 0 -3.96875 0.75q-1.859375 0.734375 -3.40625 2.46875q-1.4375 1.609375 -2.34375 4.453125q-0.90625 2.84375 -0.90625 6.578125q0 3.828125 0.875 6.53125q0.875 2.6875 2.3125 4.390625q1.4375 1.703125 3.359375 2.515625q1.9375 0.796875 4.078125 0.796875q2.125 0 4.046875 -0.8125q1.9375 -0.828125 3.390625 -2.5625z" fill-rule="nonzero"></path><path fill="#ffffff" d="m82.45452 143.44472l-13.015625 32.171875l-5.453125 0l-12.9375 -32.171875l5.890625 0l9.96875 25.609375l9.875 -25.609375l5.671875 0zm33.82196 16.640625l-23.703125 0q0 2.96875 0.890625 5.171875q0.890625 2.203125 2.4375 3.625q1.5 1.375 3.5625 2.078125q2.0625 0.6875 4.546875 0.6875q3.28125 0 6.609375 -1.3125q3.328125 -1.3125 4.734375 -2.578125l0.28125 0l0 5.90625q-2.734375 1.140625 -5.59375 1.921875q-2.84375 0.78125 -5.984375 0.78125q-8.0 0 -12.5 -4.328125q-4.5 -4.34375 -4.5 -12.328125q0 -7.890625 4.3125 -12.53125q4.3125 -4.640625 11.34375 -4.640625q6.5 0 10.03125 3.8125q3.53125 3.796875 3.53125 10.796875l0 2.9375zm-5.265625 -4.140625q-0.03125 -4.265625 -2.15625 -6.59375q-2.109375 -2.34375 -6.4375 -2.34375q-4.34375 0 -6.921875 2.5625q-2.578125 2.5625 -2.921875 6.375l18.4375 0zm33.34797 -6.609375l-0.28125 0q-1.21875 -0.28125 -2.359375 -0.40625q-1.125 -0.140625 -2.6875 -0.140625q-2.5 0 -4.84375 1.109375q-2.328125 1.109375 -4.484375 2.875l0 22.84375l-5.4218826 0l0 -32.171875l5.4218826 0l0 4.75q3.21875 -2.59375 5.6875 -3.671875q2.46875 -1.078125 5.03125 -1.078125q1.40625 0 2.03125 0.078125q0.640625 0.0625 1.90625 0.265625l0 5.546875zm31.063263 22.625q0 8.171875 -3.71875 12.0q-3.71875 3.84375 -11.4375 3.84375q-2.5625 0 -5.0 -0.359375q-2.4375 -0.359375 -4.796875 -1.03125l0 -5.53125l0.28125 0q1.328125 0.53125 4.203125 1.28125q2.890625 0.765625 5.765625 0.765625q2.765625 0 4.578125 -0.65625q1.828125 -0.65625 2.828125 -1.84375q1.015625 -1.125 1.4375 -2.71875q0.4375 -1.578125 0.4375 -3.53125l0 -2.9375q-2.453125 1.953125 -4.6875 2.921875q-2.234375 0.96875 -5.6875 0.96875q-5.765625 0 -9.15625 -4.15625q-3.375 -4.171875 -3.375 -11.75q0 -4.15625 1.15625 -7.15625q1.171875 -3.015625 3.203125 -5.203125q1.859375 -2.046875 4.53125 -3.1875q2.6875 -1.140625 5.34375 -1.140625q2.796875 0 4.671875 0.5625q1.890625 0.5625 4.0 1.71875l0.34375 -1.375l5.078125 0l0 28.515625zm-5.421875 -5.1875l0 -17.546875q-2.15625 -0.984375 -4.015625 -1.390625q-1.859375 -0.421875 -3.703125 -0.421875q-4.46875 0 -7.03125 3.0q-2.5625 2.984375 -2.5625 8.703125q0 5.40625 1.890625 8.203125q1.90625 2.796875 6.3125 2.796875q2.359375 0 4.734375 -0.90625q2.390625 -0.90625 4.375 -2.4375zm21.326843 8.84375l-5.40625 0l0 -44.828125l5.40625 0l0 44.828125zm37.56485 -15.53125l-23.703125 0q0 2.96875 0.890625 5.171875q0.890625 2.203125 2.4375 3.625q1.5 1.375 3.5625 2.078125q2.0625 0.6875 4.546875 0.6875q3.28125 0 6.609375 -1.3125q3.328125 -1.3125 4.734375 -2.578125l0.28125 0l0 5.90625q-2.734375 1.140625 -5.59375 1.921875q-2.84375 0.78125 -5.984375 0.78125q-8.0 0 -12.5 -4.328125q-4.5 -4.34375 -4.5 -12.328125q0 -7.890625 4.3125 -12.53125q4.3125 -4.640625 11.34375 -4.640625q6.5 0 10.03125 3.8125q3.53125 3.796875 3.53125 10.796875l0 2.9375zm-5.265625 -4.140625q-0.03125 -4.265625 -2.15625 -6.59375q-2.109375 -2.34375 -6.4375 -2.34375q-4.34375 0 -6.921875 2.5625q-2.578125 2.5625 -2.921875 6.375l18.4375 0zm19.097961 -17.890625l-6.109375 0l0 -5.625l6.109375 0l0 5.625zm-0.359375 37.5625l-5.40625 0l0 -32.171875l5.40625 0l0 32.171875zm34.424225 -2.015625q-2.703125 1.296875 -5.140625 2.015625q-2.4375 0.71875 -5.171875 0.71875q-3.484375 0 -6.40625 -1.015625q-2.90625 -1.03125 -4.96875 -3.109375q-2.109375 -2.0625 -3.265625 -5.234375q-1.140625 -3.171875 -1.140625 -7.40625q0 -7.890625 4.328125 -12.375q4.34375 -4.5 11.453125 -4.5q2.765625 0 5.421875 0.78125q2.671875 0.765625 4.890625 1.890625l0 6.015625l-0.28125 0q-2.484375 -1.921875 -5.125 -2.953125q-2.625 -1.046875 -5.140625 -1.046875q-4.609375 0 -7.28125 3.109375q-2.65625 3.09375 -2.65625 9.078125q0 5.8125 2.609375 8.953125q2.609375 3.125 7.328125 3.125q1.640625 0 3.34375 -0.4375q1.703125 -0.4375 3.0625 -1.125q1.171875 -0.609375 2.203125 -1.28125q1.046875 -0.671875 1.65625 -1.171875l0.28125 0l0 5.96875zm33.669037 2.015625l-5.40625 0l0 -18.328125q0 -2.21875 -0.265625 -4.15625q-0.265625 -1.953125 -0.953125 -3.046875q-0.71875 -1.203125 -2.078125 -1.796875q-1.34375 -0.59375 -3.515625 -0.59375q-2.21875 0 -4.640625 1.109375q-2.40625 1.09375 -4.625 2.78125l0 24.03125l-5.421875 0l0 -44.828125l5.421875 0l0 16.21875q2.53125 -2.09375 5.234375 -3.28125q2.71875 -1.1875 5.5625 -1.1875q5.21875 0 7.953125 3.140625q2.734375 3.140625 2.734375 9.046875l0 20.890625z" fill-rule="nonzero"></path></g></svg>

