<?xml version="1.0" standalone="yes"?>

<svg version="1.1" viewBox="0.0 0.0 364.6404199475066 365.4146981627297" fill="none" stroke="none" stroke-linecap="square" stroke-miterlimit="10" xmlns="http://www.w3.org/2000/svg" xmlns:xlink="http://www.w3.org/1999/xlink"><clipPath id="p.0"><path d="m0 0l364.6404 0l0 365.4147l-364.6404 0l0 -365.4147z" clip-rule="nonzero"></path></clipPath><g clip-path="url(#p.0)"><path fill="#000000" fill-opacity="0.0" d="m0 0l364.6404 0l0 365.4147l-364.6404 0z" fill-rule="evenodd"></path><path fill="#1e9a1e" d="m-0.40419948 60.909355l0 0c0 -33.63931 27.270046 -60.909355 60.90935 -60.909355l243.6301 0l0 0c16.154175 0 31.646698 6.4172173 43.069427 17.839937c11.4227295 11.42272 17.839935 26.91525 17.839935 43.06942l0 243.6301c0 33.639313 -27.27005 60.909363 -60.909363 60.909363l-243.6301 0c-33.639305 0 -60.90935 -27.27005 -60.90935 -60.909363z" fill-rule="evenodd"></path><path fill="#ffffff" d="m30.136597 261.1822l40.97574 2.746582E-4l12.661942 -36.476425l12.661942 36.476425l40.97574 -2.746582E-4l-33.15023 22.543427l12.66246 36.476227l-33.14991 -22.543823l-33.14991 22.543823l12.662464 -36.476227z" fill-rule="evenodd"></path><path fill="#000000" fill-opacity="0.0" d="m129.89502 207.20998l217.51181 0l0 130.48817l-217.51181 0z" fill-rule="evenodd"></path><path fill="#ffffff" d="m216.04433 297.58246l-10.171875 0l0 17.390625l-18.40625 0l0 -17.390625l-36.140625 0l0 -14.140625l34.9375 -43.312485l19.609375 0l0 43.812485l10.171875 0l0 13.640625zm-28.578125 -13.640625l0 -26.96875l-21.703125 26.96875l21.703125 0zm60.560303 30.828125l-18.75 0l0 -19.703125l18.75 0l0 19.703125zm75.436325 -41.5q0 9.375 -2.40625 17.453125q-2.40625 8.0625 -7.3125 13.578125q-5.3125 5.953125 -13.1875 8.9375q-7.875 2.984375 -18.34375 2.984375q-3.71875 0 -8.03125 -0.453125q-4.296875 -0.453125 -5.65625 -0.796875l0 -14.6875l2.0 0q1.515625 0.703125 4.296875 1.5q2.78125 0.796875 7.59375 0.796875q3.90625 0 7.65625 -0.96875q3.765625 -0.984375 6.46875 -3.078125q2.96875 -2.265625 4.859375 -5.640625q1.90625 -3.390625 2.5625 -8.15625q-4.359375 2.515625 -8.09375 3.84375q-3.734375 1.328125 -9.296875 1.328125q-4.21875 0 -8.046875 -1.03125q-3.828125 -1.03125 -7.0 -3.1875q-4.15625 -2.953125 -6.640625 -7.78125q-2.46875 -4.84375 -2.46875 -12.21875q0 -11.968735 8.34375 -19.51561q8.34375 -7.546875 21.875 -7.546875q6.96875 0 12.359375 1.828125q5.390625 1.828125 9.296875 5.59375q4.5625 4.3125 6.859375 10.98436q2.3125 6.65625 2.3125 16.234375zm-19.203125 -2.8125q0 -6.109375 -1.171875 -10.046875q-1.171875 -3.9375 -3.234375 -6.0937347q-1.453125 -1.609375 -3.359375 -2.296875q-1.90625 -0.703125 -4.015625 -0.703125q-1.953125 0 -3.734375 0.671875q-1.765625 0.671875 -3.421875 2.328125q-1.5625 1.609375 -2.546875 4.2187347q-0.96875 2.59375 -0.96875 6.203125q0 3.515625 1.046875 5.90625q1.0625 2.375 2.921875 3.78125q1.75 1.34375 4.125 1.90625q2.390625 0.546875 5.1875 0.546875q2.265625 0 4.921875 -0.578125q2.65625 -0.578125 4.109375 -1.1875q0 -0.546875 0.0625 -1.5625q0.078125 -1.03125 0.078125 -3.09375z" fill-rule="nonzero"></path><path fill="#000000" fill-opacity="0.0" d="m54.12992 31.322834l256.37796 0l0 90.267715l-256.37796 0z" fill-rule="evenodd"></path><path fill="#ffffff" d="m140.22969 110.72284l-31.21875 0l0 -9.453125l8.734375 0l0 -34.40625l-8.734375 0l0 -9.453129l31.21875 0l0 9.453129l-8.734375 0l0 34.40625l8.734375 0l0 9.453125zm35.31096 1.03125q-5.953125 0 -10.984375 -1.75q-5.03125 -1.75 -8.640625 -5.21875q-3.625 -3.484375 -5.609375 -8.671875q-1.984375 -5.1875 -1.984375 -12.0q0 -6.328125 1.890625 -11.484375q1.90625 -5.15625 5.515625 -8.843754q3.484375 -3.546875 8.609375 -5.484375q5.140625 -1.9375 11.234375 -1.9375q3.359375 0 6.0625 0.390625q2.7031403 0.375 5.0000153 0.984375q2.390625 0.671875 4.34375 1.515625q1.953125 0.84375 3.421875 1.5625l0 12.921879l-1.578125 0q-1.0 -0.859375 -2.53125 -2.03125q-1.515625 -1.1875 -3.4375 -2.34375q-1.96875 -1.140625 -4.265625 -1.921875q-2.2968903 -0.796875 -4.9062653 -0.796875q-2.90625 0 -5.515625 0.921875q-2.609375 0.90625 -4.828125 3.015625q-2.109375 2.046875 -3.421875 5.421875q-1.3125 3.359375 -1.3125 8.15625q0 5.015625 1.40625 8.375q1.421875 3.359375 3.578125 5.296875q2.1875 1.96875 4.859375 2.8125q2.6875 0.84375 5.3125 0.84375q2.5 0 4.9531403 -0.75q2.453125 -0.75 4.53125 -2.046875q1.75 -1.03125 3.25 -2.21875q1.515625 -1.1875 2.484375 -2.046875l1.421875 0l0 12.75q-2.0 0.890625 -3.828125 1.6875q-1.828125 0.78125 -3.828125 1.359375q-2.609375 0.75 -4.9062653 1.140625q-2.296875 0.390625 -6.296875 0.390625zm80.797 -27.671875q0 12.75 -7.2968597 20.25q-7.296875 7.5 -20.1875 7.5q-12.859375 0 -20.171875 -7.5q-7.296875 -7.5 -7.296875 -20.25q0 -12.859375 7.296875 -20.312504q7.3125 -7.46875 20.171875 -7.46875q12.8125 0 20.140625 7.46875q7.3437347 7.453129 7.3437347 20.312504zm-18.218735 13.5q2.0 -2.4375 2.96875 -5.75q0.96875 -3.3125 0.96875 -7.78125q0 -4.796875 -1.109375 -8.15625q-1.109375 -3.375 -2.890625 -5.453125q-1.828125 -2.140625 -4.21875 -3.109375q-2.375 -0.96875 -4.953125 -0.96875q-2.609375 0 -4.921875 0.9375q-2.3125 0.921875 -4.25 3.0625q-1.78125 2.015625 -2.921875 5.546875q-1.125 3.515625 -1.125 8.171875q0 4.765625 1.09375 8.109375q1.09375 3.34375 2.890625 5.46875q1.78125 2.109375 4.171875 3.109375q2.40625 1.0 5.0625 1.0q2.640625 0 5.046875 -1.015625q2.40625 -1.015625 4.1875 -3.171875z" fill-rule="nonzero"></path><path fill="#ffffff" d="m121.73102 168.11159q0 7.59375 -4.203125 12.375q-4.1875 4.78125 -10.46875 4.78125q-2.6875 0 -4.71875 -0.578125q-2.03125 -0.5625 -3.875 -1.65625l-0.421875 1.609375l-9.875 0l0 -44.5625l10.296875 0l0 15.75q2.390625 -1.890625 4.859375 -3.0625q2.484375 -1.171875 5.71875 -1.171875q6.09375 0 9.390625 4.390625q3.296875 4.390625 3.296875 12.125zm-10.625 0.203125q0 -4.296875 -1.46875 -6.609375q-1.453125 -2.328125 -5.203125 -2.328125q-1.46875 0 -3.015625 0.453125q-1.546875 0.4375 -2.953125 1.265625l0 16.15625q1.125 0.40625 2.125 0.546875q1.0 0.140625 2.40625 0.140625q4.09375 0 6.09375 -2.40625q2.015625 -2.40625 2.015625 -7.21875zm49.747925 2.15625l-23.59375 0q0.21875 3.78125 2.859375 5.78125q2.65625 2.0 7.8125 2.0q3.265625 0 6.328125 -1.171875q3.0625 -1.171875 4.84375 -2.515625l1.140625 0l0 8.28125q-3.484375 1.390625 -6.578125 2.015625q-3.09375 0.640625 -6.84375 0.640625q-9.6875 0 -14.84375 -4.34375q-5.15625 -4.359375 -5.15625 -12.40625q0 -7.96875 4.875 -12.625q4.890625 -4.65625 13.40625 -4.65625q7.84375 0 11.796875 3.96875q3.953125 3.96875 3.953125 11.421875l0 3.609375zm-10.25 -6.046875q-0.09375 -3.234375 -1.609375 -4.859375q-1.515625 -1.640625 -4.71875 -1.640625q-2.984375 0 -4.90625 1.546875q-1.921875 1.546875 -2.140625 4.953125l13.375 0zm49.82643 20.21875l-10.359375 0l0 -15.953125q0 -1.953125 -0.203125 -3.875q-0.203125 -1.9375 -0.6875 -2.859375q-0.578125 -1.0625 -1.6875 -1.546875q-1.09375 -0.484375 -3.0625 -0.484375q-1.40625 0 -2.8593903 0.46875q-1.4375 0.453125 -3.140625 1.453125l0 22.796875l-10.296875 0l0 -32.15625l10.296875 0l0 3.546875q2.75 -2.15625 5.2812653 -3.296875q2.546875 -1.140625 5.640625 -1.140625q5.203125 0 8.140625 3.03125q2.9375 3.03125 2.9375 9.078125l0 20.9375zm26.23996 0.859375q-4.21875 0 -7.703125 -1.0q-3.46875 -1.0 -6.046875 -3.09375q-2.546875 -2.09375 -3.953125 -5.265625q-1.40625 -3.1875 -1.40625 -7.453125q0 -4.5 1.5 -7.765625q1.515625 -3.265625 4.203125 -5.40625q2.609375 -2.03125 6.015625 -2.96875q3.40625 -0.953125 7.078125 -0.953125q3.296875 0 6.0625 0.71875q2.78125 0.703125 5.1875 1.859375l0 8.78125l-1.453125 0q-0.609375 -0.515625 -1.453125 -1.203125q-0.84375 -0.6875 -2.078125 -1.34375q-1.171875 -0.625 -2.578125 -1.03125q-1.40625 -0.421875 -3.265625 -0.421875q-4.125 0 -6.34375 2.625q-2.21875 2.609375 -2.21875 7.109375q0 4.640625 2.28125 7.046875q2.28125 2.40625 6.453125 2.40625q1.953125 0 3.515625 -0.4375q1.5625 -0.453125 2.59375 -1.046875q0.96875 -0.578125 1.703125 -1.203125q0.75 -0.640625 1.390625 -1.234375l1.453125 0l0 8.796875q-2.4375 1.140625 -5.09375 1.8125q-2.640625 0.671875 -5.84375 0.671875zm50.058975 -0.859375l-10.359375 0l0 -15.953125q0 -1.953125 -0.203125 -3.875q-0.203125 -1.9375 -0.6875 -2.859375q-0.578125 -1.0625 -1.6875 -1.546875q-1.09375 -0.484375 -3.0625 -0.484375q-1.40625 0 -2.859375 0.46875q-1.4375 0.453125 -3.1406097 1.453125l0 22.796875l-10.296875 0l0 -44.5625l10.296875 0l0 15.953125q2.7499847 -2.15625 5.2812347 -3.296875q2.546875 -1.140625 5.640625 -1.140625q5.203125 0 8.140625 3.03125q2.9375 3.03125 2.9375 9.078125l0 20.9375z" fill-rule="nonzero"></path><path fill="#000000" fill-opacity="0.0" d="m87.39895 40.29659l186.99213 0l0 90.267715l-186.99213 0z" fill-rule="evenodd"></path><path stroke="#ffffff" stroke-width="4.0" stroke-linejoin="round" stroke-linecap="butt" d="m87.39895 40.29659l186.99213 0l0 90.267715l-186.99213 0z" fill-rule="evenodd"></path></g></svg>

