<?xml version="1.0" encoding="UTF-8"?>
<svg width="11px" height="12px" viewBox="0 0 11 12" version="1.1" xmlns="http://www.w3.org/2000/svg" xmlns:xlink="http://www.w3.org/1999/xlink">
    <!-- Generator: Sketch 47.1 (45422) - http://www.bohemiancoding.com/sketch -->
    <title>arr y</title>
    <desc>Created with Sketch.</desc>
    <defs></defs>
    <g id="лендинг" stroke="none" stroke-width="1" fill="none" fill-rule="evenodd">
        <g id="Sharpay-home-Copy" transform="translate(-542.000000, -3461.000000)" fill="#FF9933">
            <g id="Group-44" transform="translate(70.000000, 3325.000000)">
                <g id="Group-28" transform="translate(0.000000, 122.000000)">
                    <g id="Group-10" transform="translate(199.000000, 14.000000)">
                        <path d="M282.913205,7.58750132 L276.686798,11.479006 L276.686798,11.479006 C275.750125,12.0644267 274.516224,11.7796804 273.930803,10.8430073 C273.732139,10.5251441 273.6268,10.1578489 273.6268,9.78300943 L273.6268,2 L273.6268,2 C273.6268,0.8954305 274.52223,-8.28226376e-14 275.6268,-8.30446822e-14 C276.001639,-8.30446822e-14 276.368935,0.10533889 276.686798,0.304003392 L282.913205,4.19550811 L282.913205,4.19550811 C283.849878,4.78092877 284.134625,6.01482953 283.549204,6.9515026 C283.388243,7.20904086 283.170744,7.42653991 282.913205,7.58750132 Z" id="arr-y"></path>
                    </g>
                </g>
            </g>
        </g>
    </g>
</svg>