<?xml version="1.0" encoding="utf-8"?>
<!-- Generator: Adobe Illustrator 22.0.0, SVG Export Plug-In . SVG Version: 6.00 Build 0)  -->
<svg version="1.1" id="Layer_1" xmlns="http://www.w3.org/2000/svg" xmlns:xlink="http://www.w3.org/1999/xlink" x="0px" y="0px"
	 viewBox="0 0 32 32" style="enable-background:new 0 0 32 32;" xml:space="preserve">
<style type="text/css">
	.st0{fill:#FFFFFF;}
	.st1{fill:#FFB629;}
</style>
<g id="BTC_2_">
	<path class="st0" d="M16,2.3C8.4,2.3,2.3,8.4,2.3,16c0,7.6,6.2,13.7,13.7,13.7S29.7,23.6,29.7,16C29.7,8.4,23.6,2.3,16,2.3z"/>
	<path class="st1" d="M19.2,17.2c-0.4-0.2-1.2-0.4-2.2-0.5c-1-0.1-2.2,0-2.2,0V21c0,0,1.3,0,2.2,0c0.9-0.1,1.8-0.3,2.2-0.5
		c0.5-0.2,1-0.6,1-1.6C20.2,17.8,19.5,17.4,19.2,17.2z"/>
	<path class="st1" d="M16.4,14.8c0.7,0,1.5-0.2,2-0.5c0.6-0.3,0.9-0.8,0.8-1.5c0-0.7-0.5-1.3-1.3-1.6c-0.8-0.2-1.4-0.3-2-0.3
		c-0.6,0-1.2,0-1.2,0v3.8C14.7,14.8,15.7,14.8,16.4,14.8z"/>
	<path class="st1" d="M16,0C7.2,0,0,7.2,0,16c0,8.8,7.2,16,16,16s16-7.2,16-16C32,7.2,24.8,0,16,0z M22.5,22.1c-1.2,0.8-2.5,1-3,1.1
		c-0.3,0-0.8,0.1-1.3,0.1v3.2h-2v-3.2c-0.4,0-0.9,0-1.5,0v3.2h-2v-3.2c-2,0-3.9,0-3.9,0L9.3,21c0,0,0.8,0,1.2,0c0.4,0,0.6,0,0.7-0.2
		c0.2-0.2,0.2-0.4,0.2-0.6c0-0.2,0-7.7,0-8.2c0-0.5,0-0.7-0.3-0.9c-0.2-0.3-0.8-0.3-1.1-0.3c-0.3,0-1.1,0-1.1,0V8.7c0,0,1.9,0,3.9,0
		V5.6h2v3.2c0.5,0,1.1,0,1.5,0V5.6h2v3.2c1.5,0.1,2.6,0.4,3.5,1.1c1.2,0.9,1.2,2.5,1.1,2.9c0,0.4-0.2,1.1-0.5,1.6
		c-0.3,0.5-1.1,0.9-1.1,0.9s1,0.2,1.6,0.7c0.7,0.5,1.2,1.4,1.1,2.7C24,20,23.7,21.3,22.5,22.1z"/>
</g>
</svg>
