<svg width="226.77699999999996" height="226.77699999999996" xmlns="http://www.w3.org/2000/svg">

 <g>
  <title>background</title>
  <rect fill="none" id="canvas_background" height="402" width="582" y="-1" x="-1"/>
 </g>
 <g>
  <title>Layer 1</title>
  <path fill="#ff9933" id="svg_1" d="m135.715,122.244c-2.614,-1.31 -8.437,-3.074 -15.368,-3.533c-6.934,-0.458 -15.828,0 -15.828,0l0,30.02c0,0 9.287,0.198 15.503,-0.26c6.21,-0.458 12.621,-2.027 15.826,-3.795c3.203,-1.766 7.063,-4.513 7.063,-11.379c0,-6.869 -4.579,-9.745 -7.196,-11.053z"/>
  <path fill="#ff9933" id="svg_2" d="m116.16,104.779c5.104,-0.197 10.532,-1.373 14.453,-3.532c3.925,-2.158 6.148,-5.557 6.02,-10.66c-0.134,-5.102 -3.532,-9.418 -9.287,-11.186c-5.757,-1.766 -9.613,-1.897 -13.998,-1.962c-4.382,-0.064 -8.83,0.328 -8.83,0.328l0,27.012c0.001,0 6.541,0.197 11.642,0z"/>
  <path fill="#ff9933" id="svg_3" d="m113.413,0c-62.636,0 -113.413,50.776 -113.413,113.413c0,62.636 50.777,113.413 113.413,113.413s113.411,-50.777 113.411,-113.413c0,-62.637 -50.775,-113.413 -113.411,-113.413zm46.178,156.777c-8.44,5.887 -17.465,6.935 -21.455,7.456c-1.969,0.259 -5.342,0.532 -8.959,0.744l0,22.738l-13.998,0l0,-22.37c-2.615,0 -6.361,0 -10.66,0l0,22.37l-13.997,0l0,-22.37c-13.852,0 -27.535,0 -27.535,0l2.877,-16.812c0,0 5.559,0 8.371,0c2.814,0 3.989,-0.261 5.166,-1.372c1.177,-1.113 1.439,-2.812 1.439,-4.188c0,-1.373 0,-54.286 0,-57.916c0,-3.628 -0.295,-4.61 -1.963,-6.473c-1.668,-1.867 -5.591,-2.112 -7.8,-2.112c-2.207,0 -8.091,0 -8.091,0l0,-14.533c0,0 13.246,0 27.535,0l0,-22.434l13.996,0l0,22.434c3.889,0 7.537,0 10.66,0l0,-22.434l13.998,0l0,22.703c10.435,0.647 18.203,2.635 24.983,7.645c8.766,6.475 8.306,17.724 8.11,20.406c-0.195,2.682 -1.372,7.85 -3.729,11.183c-2.352,3.337 -8.108,6.673 -8.108,6.673s6.801,1.438 11.578,5.036c4.771,3.598 8.307,9.941 8.106,19.229c-0.192,9.288 -2.088,18.511 -10.524,24.397z"/>
 </g>
</svg>