<svg xmlns="http://www.w3.org/2000/svg" viewBox="0 0 267.53 37.84"><defs><style>.a{fill:#ff9733;}</style></defs><title>logo_sharpay_2_share</title><path class="a" d="M12.39,17c-.68-.17-1.36-.31-2-.42s-1.27-.21-1.84-.33a5.19,5.19,0,0,1-1.88-.61.89.89,0,0,1-.33-.76c0-.13,0-.52.78-.83a5.88,5.88,0,0,1,2.2-.36,9.7,9.7,0,0,1,3.16.53,11.13,11.13,0,0,1,2.79,1.37h.87V10.7L16,10.63a15.74,15.74,0,0,0-2.86-.87,18.25,18.25,0,0,0-3.83-.4,11.62,11.62,0,0,0-6.7,1.72A5.26,5.26,0,0,0,.1,15.5,5.07,5.07,0,0,0,1.32,19,7.19,7.19,0,0,0,5,21a17.26,17.26,0,0,0,2,.4q1.05.16,1.68.3a6,6,0,0,1,1.7.53.76.76,0,0,1,.35.72.92.92,0,0,1-.65.86,6,6,0,0,1-2.35.34,10.06,10.06,0,0,1-2.32-.25,13.94,13.94,0,0,1-2-.6,9.8,9.8,0,0,1-1.53-.74l-1-.64L.8,21.82H0v5l.14.07a16.21,16.21,0,0,0,3.12,1,19.39,19.39,0,0,0,4.3.45,12,12,0,0,0,6.81-1.71A5.36,5.36,0,0,0,16.88,22a4.88,4.88,0,0,0-1.12-3.26A6.59,6.59,0,0,0,12.39,17Z" transform="translate(0.04 0)"/><path class="a" d="M32,9.4a7.69,7.69,0,0,0-3.17.65,13,13,0,0,0-2.53,1.52V3.12H20.16v24.8h6.13V15.38a7.92,7.92,0,0,1,1.54-.7,4.68,4.68,0,0,1,1.48-.24,4.25,4.25,0,0,1,1.58.24,1.69,1.69,0,0,1,.8.74A4.1,4.1,0,0,1,32,16.88,18.17,18.17,0,0,1,32.14,19v9h6.14V16.25a7.08,7.08,0,0,0-1.67-5.12A6.15,6.15,0,0,0,32,9.4Z" transform="translate(0.04 0)"/><path class="a" d="M57.39,10.9c-1.45-1-3.83-1.52-7.07-1.52a25.08,25.08,0,0,0-4.06.33c-1.36.21-2.32.4-2.92.56h-.19V15H44c.46-.18,1.22-.43,2.25-.75a9.84,9.84,0,0,1,2.9-.48,8.37,8.37,0,0,1,3.4.53,1.74,1.74,0,0,1,1,1.64c-1.56.1-3.1.24-4.57.43a13.76,13.76,0,0,0-3.94,1,6,6,0,0,0-2.54,2,5.58,5.58,0,0,0-.91,3.29,5.39,5.39,0,0,0,1.77,4.13,6.24,6.24,0,0,0,4.35,1.61,11.19,11.19,0,0,0,2-.18,8.53,8.53,0,0,0,1.77-.58,8.23,8.23,0,0,0,1.31-.78l.73-.54v1.61h6.07V15.74A5.51,5.51,0,0,0,57.39,10.9ZM53.56,23a5.2,5.2,0,0,1-1.37.79,4.26,4.26,0,0,1-1.62.33A5.75,5.75,0,0,1,49.08,24a2.13,2.13,0,0,1-.77-.41,1.21,1.21,0,0,1-.39-.53,2.9,2.9,0,0,1-.09-.83A1.69,1.69,0,0,1,48.22,21a2.5,2.5,0,0,1,1.18-.7,12.17,12.17,0,0,1,2-.38c.78-.09,1.51-.17,2.19-.23Z" transform="translate(0.04 0)"/><path class="a" d="M76.65,9.84H76a7.29,7.29,0,0,0-2.61.54,11.07,11.07,0,0,0-2.9,1.82V9.9H64.33v18h6.13V16.12a12.24,12.24,0,0,1,1.78-.46,12.06,12.06,0,0,1,2.08-.15,10.74,10.74,0,0,1,1.3.06,5.92,5.92,0,0,1,1.18.19h.74V9.93h-.22Z" transform="translate(0.04 0)"/><path class="a" d="M89.17,9.34a10.38,10.38,0,0,0-7.47,2.6A9.35,9.35,0,0,0,79,19a8.67,8.67,0,0,0,2.9,7c1.92,1.61,4.69,2.43,8.26,2.43a19.2,19.2,0,0,0,3.78-.35A21,21,0,0,0,97.53,27l.15-.06V22h-1l-.07.05a10.05,10.05,0,0,1-2.58,1.34,9.19,9.19,0,0,1-3.36.63,6.77,6.77,0,0,1-4.11-1,3.65,3.65,0,0,1-1.45-2.71H98V18a8.7,8.7,0,0,0-2.23-6.4C94.3,10.12,92.08,9.34,89.17,9.34Zm-4,7.06a3.28,3.28,0,0,1,1.06-2.27,4,4,0,0,1,2.52-.78,3.13,3.13,0,0,1,2.39.81,3.51,3.51,0,0,1,.8,2.24Z" transform="translate(0.04 0)"/><path class="a" d="M127.33,0a18.9,18.9,0,0,0,0,37.79,7.91,7.91,0,0,0,1.19-.06V23.62h-4.73V17.71h4.73V14.17c0-4.86,2.74-8.27,7.08-8.27h4.73v5.91H138q-3.54,0-3.54,3.54v2.36h5.91l-1.18,5.91h-4.76V36.41A18.89,18.89,0,0,0,127.3,0Z" transform="translate(0.04 0)"/><path class="a" d="M173.87,0a18.9,18.9,0,1,0,18.9,18.9h0A18.89,18.89,0,0,0,173.88,0ZM182,14.5v.62c0,6.11-4.32,13.12-12.22,13.12a11.65,11.65,0,0,1-6.6-2.12,5.35,5.35,0,0,0,1.06.08,8.31,8.31,0,0,0,5.3-1.95,4.22,4.22,0,0,1-4-3.18,2.76,2.76,0,0,0,.81.08,4.82,4.82,0,0,0,1.14-.16,4.67,4.67,0,0,1-3.42-4.56v-.08a4.05,4.05,0,0,0,1.95.57,4.65,4.65,0,0,1-1.87-3.83,4.35,4.35,0,0,1,.57-2.36,11.92,11.92,0,0,0,8.88,4.8,4.69,4.69,0,0,1-.08-1.06,4.48,4.48,0,0,1,4.31-4.64h0A4.15,4.15,0,0,1,181,11.3a9.88,9.88,0,0,0,2.77-1.14,4.6,4.6,0,0,1-1.87,2.52,6.57,6.57,0,0,0,2.44-.73A9.7,9.7,0,0,1,182,14.5Z" transform="translate(0.04 0)"/><polygon class="a" points="213.66 9.12 208.88 9.12 208.88 17.37 200.55 17.37 200.55 22.05 208.88 22.05 208.88 30.3 213.66 30.3 213.66 22.05 221.99 22.05 221.99 17.37 213.66 17.37 213.66 9.12"/><path class="a" d="M248.59,0A18.87,18.87,0,0,0,232.3,28.43l-2.64,9.41,9.69-2.51A18.88,18.88,0,1,0,248.59,0Zm5.51,26.64a11.57,11.57,0,0,1-4.35,1.51l-.87,3.73h-5.66l.85-3.68c-.6-.06-1.19-.15-1.78-.26a14,14,0,0,1-3.3-1l-.16-.08,1.16-5h.8l.06.06c.23.19.51.41.85.64a7.58,7.58,0,0,0,1.45.73,10.39,10.39,0,0,0,1.89.6,9.46,9.46,0,0,0,2.31.25,6.25,6.25,0,0,0,2.74-.41,1.76,1.76,0,0,0,1-1.29l1.23-5.28a10.15,10.15,0,0,1,3.05,1.39,3.87,3.87,0,0,1,1.55,3.25A5.51,5.51,0,0,1,254.1,26.64Zm3.18-11.11h-.75l-.06,0a9.11,9.11,0,0,0-2.62-1.37,9.7,9.7,0,0,0-3.16-.53A7,7,0,0,0,248,14a1.61,1.61,0,0,0-.86,1c-.1.29-.13.43-.22.76l-1.13,4.89a8.79,8.79,0,0,1-3.19-1.56,4,4,0,0,1-1.4-3.1A5.56,5.56,0,0,1,244,11.1a10.94,10.94,0,0,1,4.39-1.54l.86-3.72h5.67L254,9.56c.41.06.83.11,1.25.19a13.08,13.08,0,0,1,2.94.87l.17.08Z" transform="translate(0.04 0)"/></svg>