<?xml version="1.0" encoding="UTF-8"?>
<svg width="269px" height="38px" viewBox="0 0 269 38" version="1.1" xmlns="http://www.w3.org/2000/svg" xmlns:xlink="http://www.w3.org/1999/xlink">
    <!-- Generator: Sketch 47.1 (45422) - http://www.bohemiancoding.com/sketch -->
    <title>btn3</title>
    <desc>Created with Sketch.</desc>
    <defs></defs>
    <g id="лендинг" stroke="none" stroke-width="1" fill="none" fill-rule="evenodd">
        <g id="Sharpay-home-Copy" transform="translate(-825.000000, -1140.000000)" fill-rule="nonzero" fill="#FF9733">
            <g id="Group-50" transform="translate(301.000000, 1120.000000)">
                <g id="btn3" transform="translate(524.000000, 20.000000)">
                    <path d="M13.39,16.95 C12.71,16.78 12.03,16.64 11.39,16.53 C10.75,16.42 10.12,16.32 9.55,16.2 C8.88966216,16.1207015 8.25109953,15.9135083 7.67,15.59 C7.44299576,15.4053734 7.31991525,15.1219152 7.34,14.83 C7.34,14.7 7.34,14.31 8.12,14 C8.8232859,13.7393631 9.57032059,13.617121 10.32,13.64 C11.3951546,13.6435512 12.462521,13.8225715 13.48,14.17 C14.4693523,14.494288 15.4084584,14.955426 16.27,15.54 L16.33,15.54 L17.14,15.54 L17.14,10.7 L16.99,10.63 C16.0669029,10.2485894 15.109122,9.95723648 14.13,9.76 C12.8708152,9.49321826 11.5871356,9.35915251 10.3,9.36 C7.94371665,9.23861058 5.60644008,9.83862784 3.6,11.08 C2.06357382,12.0268787 1.11987274,13.6953422 1.1,15.5 C1.06105373,16.7620806 1.49632236,17.9929632 2.32,18.95 C3.31830118,19.9653679 4.59561253,20.6614504 5.99,20.95 C6.64832317,21.1221027 7.31612374,21.2556628 7.99,21.35 C8.69,21.4566667 9.25,21.5566667 9.67,21.65 C10.2597064,21.7418494 10.8325767,21.9204501 11.37,22.18 C11.6138605,22.3341223 11.7494379,22.6130244 11.72,22.9 C11.7115635,23.2968782 11.4495152,23.6435882 11.07,23.76 C10.3171376,24.0287494 9.51816135,24.1443459 8.72,24.1 C7.93961407,24.1063998 7.16110697,24.0225089 6.4,23.85 C5.7186189,23.7028024 5.04988565,23.5021824 4.4,23.25 C3.86992485,23.0471975 3.35807675,22.799637 2.87,22.51 C2.51,22.28 2.18,22.06 1.87,21.87 L1.8,21.82 L0.96,21.82 L0.96,26.82 L1.1,26.89 C2.10436449,27.3257086 3.14948437,27.6606829 4.22,27.89 C5.63154249,28.2031213 7.07421357,28.3540985 8.52,28.34 C10.9097184,28.4617098 13.2812578,27.8662132 15.33,26.63 C16.9239902,25.6510164 17.8908956,23.9105868 17.88,22.04 C17.914742,20.8534101 17.516657,19.6946983 16.76,18.78 C15.842546,17.8499052 14.6696955,17.2130161 13.39,16.95 L13.39,16.95 Z" id="Shape"></path>
                    <path d="M32.99,9.4 C31.8990727,9.38814584 30.8182286,9.60977003 29.82,10.05 C28.9230784,10.4615984 28.0745607,10.9713798 27.29,11.57 L27.29,3.12 L21.16,3.12 L21.16,27.92 L27.29,27.92 L27.29,15.38 C27.7765479,15.0917373 28.2928938,14.8570346 28.83,14.68 C29.307987,14.5240827 29.8072357,14.4431235 30.31,14.44 C30.847283,14.4161087 31.3840459,14.4976423 31.89,14.68 C32.2310624,14.831563 32.5123604,15.0917637 32.69,15.42 C32.8943287,15.8808914 33.0096875,16.3762555 33.03,16.88 C33.1062684,17.5740172 33.1429944,18.2718111 33.14,18.97 L33.14,27.92 L39.28,27.92 L39.28,16.25 C39.4151475,14.3905103 38.8155407,12.5521949 37.61,11.13 C36.3789037,9.93387363 34.7039445,9.30667031 32.99,9.4 Z" id="Shape"></path>
                    <path d="M58.39,10.9 C56.94,9.9 54.56,9.38 51.32,9.38 C49.9600074,9.38095827 48.6022955,9.49131416 47.26,9.71 C45.9,9.92 44.94,10.11 44.34,10.27 L44.15,10.27 L44.15,14.95 L44.39,14.95 L44.99,14.95 C45.45,14.77 46.21,14.52 47.24,14.2 C48.1771095,13.8954089 49.1547259,13.7335965 50.14,13.72 C51.2978985,13.6575125 52.4560581,13.8380491 53.54,14.25 C54.1722113,14.5464882 54.5659386,15.1922009 54.54,15.89 C52.98,15.99 51.44,16.13 49.97,16.32 C48.6145812,16.4574524 47.2869104,16.7944247 46.03,17.32 C45.0162923,17.7417151 44.1377315,18.4334952 43.49,19.32 C42.8522849,20.2955173 42.5342234,21.4454318 42.58,22.61 C42.5433666,24.1781672 43.1891663,25.6850331 44.35,26.74 C45.5387227,27.8165625 47.0968222,28.3932384 48.7,28.35 C49.3708837,28.3539715 50.0406064,28.2936965 50.7,28.17 C51.3094026,28.0418554 51.9029401,27.8473629 52.47,27.59 C52.9279427,27.367521 53.3661814,27.106585 53.78,26.81 L54.51,26.27 L54.51,27.88 L60.58,27.88 L60.58,15.74 C60.7311365,13.8573653 59.9039395,12.0292222 58.39,10.9 Z M54.56,22.97 C54.1456692,23.3007441 53.6838034,23.5670755 53.19,23.76 C52.676429,23.9737517 52.126262,24.0858227 51.57,24.09 C51.0693846,24.1074279 50.5686071,24.060375 50.08,23.95 C49.7974639,23.8687382 49.5351381,23.7290582 49.31,23.54 C49.1323743,23.4038879 48.9971144,23.2200732 48.92,23.01 C48.8530714,22.7385935 48.8228022,22.4594443 48.83,22.18 C48.8075226,21.7577755 48.9470111,21.3428867 49.22,21.02 C49.5379289,20.6781652 49.9475934,20.4351439 50.4,20.32 C51.0545091,20.1361 51.7236528,20.0089627 52.4,19.94 C53.18,19.85 53.91,19.77 54.59,19.71 L54.56,22.97 Z" id="Shape"></path>
                    <path d="M77.65,9.84 L76.97,9.84 C76.0743359,9.85921231 75.1897554,10.0422289 74.36,10.38 C73.3049492,10.8328906 72.3266263,11.4468726 71.46,12.2 L71.46,9.9 L65.33,9.9 L65.33,27.9 L71.46,27.9 L71.46,16.12 C72.0403611,15.9202548 72.6355283,15.7664475 73.24,15.66 C73.9281194,15.5536859 74.6237464,15.5035205 75.32,15.51 C75.67,15.51 76.1,15.51 76.62,15.57 C77.0189207,15.5916589 77.4144431,15.6553447 77.8,15.76 L78.54,15.76 L78.54,9.93 L78.32,9.93 L77.65,9.84 Z" id="Shape"></path>
                    <path d="M90.17,9.34 C87.434752,9.18902538 84.7503952,10.1233397 82.7,11.94 C80.8281828,13.7998581 79.8293822,16.3640518 79.95,19 C79.791974,21.6546041 80.8609528,24.2348976 82.85,26 C84.77,27.61 87.54,28.43 91.11,28.43 C92.3784654,28.4384218 93.6446462,28.3211828 94.89,28.08 C96.1351008,27.8190378 97.3535649,27.4441258 98.53,26.96 L98.68,26.9 L98.68,21.97 L97.73,21.97 L97.66,22.02 C96.8670499,22.5853725 95.9985499,23.0364539 95.08,23.36 C94.0089992,23.7773869 92.8694579,23.9910509 91.72,23.99 C90.2729565,24.0886221 88.832424,23.7206029 87.61,22.94 C86.7534675,22.2923069 86.2235804,21.3019663 86.16,20.23 L99.01,20.23 L99.01,18.01 C99.1588765,15.6634069 98.3548796,13.3559719 96.78,11.61 C95.3,10.12 93.08,9.34 90.17,9.34 Z M86.17,16.4 C86.209057,15.5328848 86.5902274,14.7166048 87.23,14.13 C87.955045,13.5874266 88.8452215,13.3118958 89.75,13.35 C90.6251846,13.2713972 91.4929413,13.5654905 92.14,14.16 C92.6607307,14.7899569 92.9438506,15.5826926 92.94,16.4 L86.17,16.4 Z" id="Shape"></path>
                    <path d="M128.33,-3.38813179e-21 C118.063914,0.236189277 109.864713,8.62619742 109.864713,18.895 C109.864713,29.1638026 118.063914,37.5538107 128.33,37.79 C128.73,37.79 129.12,37.79 129.52,37.73 L129.52,23.62 L124.79,23.62 L124.79,17.71 L129.52,17.71 L129.52,14.17 C129.52,9.31 132.26,5.9 136.6,5.9 L141.33,5.9 L141.33,11.81 L138.96,11.81 C136.6,11.81 135.42,12.99 135.42,15.35 L135.42,17.71 L141.33,17.71 L140.15,23.62 L135.39,23.62 L135.39,36.41 C143.784453,33.0260387 148.599035,24.1634004 146.869085,15.2794092 C145.139134,6.395418 137.350848,-0.0131049788 128.3,1.70530253e-13 L128.33,-3.38813179e-21 Z" id="Shape"></path>
                    <path d="M174.87,0.01 C167.224754,0.0100010701 160.332496,4.61592098 157.407722,11.6795947 C154.482948,18.7432685 156.101786,26.8732795 161.509221,32.2778542 C166.916657,37.6824289 175.047524,39.2969634 182.109649,36.3684514 C189.171773,33.4399394 193.774045,26.5452451 193.77,18.9 C193.770001,13.8883274 191.778437,9.08206591 188.233712,5.53921613 C184.688987,1.99636634 179.881672,0.00734691764 174.87,0.01 L174.87,0.01 Z M183.02,14.5 L183.02,15.12 C183.02,21.23 178.7,28.24 170.8,28.24 C168.435646,28.2206683 166.133348,27.4811421 164.2,26.12 C164.549628,26.1831588 164.904853,26.2099682 165.26,26.2 C167.199677,26.1861183 169.073856,25.496562 170.56,24.25 C168.66471,24.2061236 167.03008,22.9065927 166.56,21.07 C166.824638,21.1361193 167.097541,21.1630727 167.37,21.15 C167.754967,21.1416443 168.137607,21.0879405 168.51,20.99 C166.467003,20.4226407 165.062626,18.5501377 165.09,16.43 L165.09,16.35 C165.680114,16.704652 166.351777,16.9009845 167.04,16.92 C165.832505,16.0220817 165.13542,14.5943624 165.17,13.09 C165.133274,12.2652856 165.330902,11.4470363 165.74,10.73 C167.843008,13.5662059 171.095184,15.3241385 174.62,15.53 C174.553248,15.1808403 174.526409,14.8252233 174.54,14.47 C174.496799,13.281625 174.927842,12.1248307 175.738158,11.2544916 C176.548473,10.3841526 177.671571,9.87168502 178.86,9.83 C180.054092,9.85018863 181.180984,10.386283 181.95,11.3 C182.926492,11.0647967 183.860827,10.6802691 184.72,10.16 C184.411309,11.19322 183.749438,12.0851518 182.85,12.68 C183.70382,12.6015231 184.533372,12.3533373 185.29,11.95 C184.692641,12.9294472 183.92369,13.793247 183.02,14.5 L183.02,14.5 Z" id="Shape"></path>
                    <polygon id="Shape" points="214.62 9.12 209.84 9.12 209.84 17.37 201.51 17.37 201.51 22.05 209.84 22.05 209.84 30.3 214.62 30.3 214.62 22.05 222.95 22.05 222.95 17.37 214.62 17.37"></polygon>
                    <path d="M249.59,-1.29419858e-15 C242.248694,-0.0164990703 235.562727,4.22189228 232.445282,10.8684389 C229.327838,17.5149856 230.343606,25.365739 235.05,31 L230.69,37.83 L249.59,37.83 C256.444161,37.987692 262.846242,34.4212121 266.319654,28.5102228 C269.793065,22.5992334 269.793065,15.2707666 266.319654,9.35977725 C262.846242,3.4487879 256.444161,-0.117691962 249.59,0.04 L249.59,-1.29419858e-15 Z M255.07,26.65 C253.738403,27.4452641 252.257941,27.9591714 250.72,28.16 L249.86,31.89 L244.2,31.89 L245.05,28.22 C244.45,28.15 243.85,28.07 243.27,27.96 C242.135115,27.7685887 241.029442,27.4325177 239.98,26.96 L239.81,26.88 L240.98,21.88 L241.76,21.88 L241.83,21.94 C242.05,22.13 242.34,22.34 242.68,22.58 C243.135784,22.8718896 243.621979,23.1133108 244.13,23.3 C244.739868,23.5611097 245.372557,23.765311 246.02,23.91 C246.778353,24.0786968 247.553114,24.1625453 248.33,24.16 C249.26323,24.2261768 250.19944,24.0826701 251.07,23.74 C251.592457,23.4971734 251.965076,23.0164951 252.07,22.45 L253.29,17.18 C254.358936,17.4723037 255.372479,17.9385337 256.29,18.56 C257.317806,19.3167531 257.902435,20.5347312 257.85,21.81 C257.878102,23.8103071 256.811997,25.6664027 255.07,26.65 L255.07,26.65 Z M258.25,15.56 L257.5,15.56 L257.44,15.51 C256.649887,14.911723 255.763978,14.4518619 254.82,14.15 C253.80333,13.7993816 252.735431,13.6202719 251.66,13.62 C250.754902,13.578618 249.85063,13.7179983 249,14.03 C248.579589,14.2197961 248.264726,14.5859154 248.14,15.03 C248.05207,15.27209 247.978607,15.5191924 247.92,15.77 L246.79,20.67 C245.627208,20.3709646 244.538102,19.836622 243.59,19.1 C242.688048,18.3286871 242.175166,17.1966851 242.19,16.01 C242.160314,14.0014384 243.220218,12.1341711 244.96,11.13 C246.312041,10.3164107 247.822523,9.8015511 249.39,9.62 L250.25,5.9 L255.91,5.9 L255.05,9.62 C255.46,9.68 255.88,9.72 256.29,9.81 C257.305306,9.97785635 258.29609,10.2700535 259.24,10.68 L259.41,10.76 L258.25,15.56 Z" id="Shape"></path>
                </g>
            </g>
        </g>
    </g>
</svg>