<?xml version="1.0" encoding="utf-8"?>
<!-- Generator: Adobe Illustrator 22.0.0, SVG Export Plug-In . SVG Version: 6.00 Build 0)  -->
<svg version="1.1" id="Слой_1" xmlns="http://www.w3.org/2000/svg" xmlns:xlink="http://www.w3.org/1999/xlink" x="0px" y="0px"
	 viewBox="0 0 32 32" style="enable-background:new 0 0 32 32;" xml:space="preserve">
<style type="text/css">
	.st0{fill:#0088CC;}
	.st1{fill:#FFFFFF;stroke:#333333;stroke-linecap:round;stroke-linejoin:round;}
</style>
<title></title>
<path class="st0" d="M0.5,16.5C0.5,25.1,7.4,32,16,32s15.5-6.9,15.5-15.5S24.6,1,16,1S0.5,7.9,0.5,16.5z"/>
<path class="st1" d="M18.7,21l-2.9,4.2L12.9,21H8.3c-0.3,0-0.5-0.2-0.5-0.5c0,0,0,0,0,0v-7.7c0-1.7,1.5-3.1,3.2-3.1h12.2
	c0.3,0,0.5,0.2,0.5,0.5c0,0,0,0,0,0v10.3c0,0.3-0.2,0.5-0.5,0.5c0,0,0,0,0,0H18.7z"/>
</svg>
