<svg xmlns="http://www.w3.org/2000/svg" viewBox="0 0 646.01 646"><defs><style>.a{fill:#517ff3;}.b{fill:#da4a39;}.c{fill:#f2b50e;}.d{fill:#009c59;}.e{fill:#ad44ba;}.f{fill:#10a9c0;}.g,.h{font-size:28px;font-family:DejaVuSans-Bold, DejaVu Sans;font-weight:700;}.h{fill:#fff;}</style></defs><title>chart</title><path class="a" d="M325.91,3A323,323,0,0,1,561.65,546.86l-58.92-55.22A242.25,242.25,0,0,0,325.93,83.73Z" transform="translate(-2.98 -2.98)"/><path class="b" d="M561.43,547.09A323,323,0,0,1,33.83,463.73l73-34.44a242.25,242.25,0,0,0,395.7,62.52Z" transform="translate(-2.98 -2.98)"/><path class="c" d="M33.69,463.44a323,323,0,0,1,9-292.71l70.81,38.81a242.25,242.25,0,0,0-6.79,219.53Z" transform="translate(-2.98 -2.98)"/><path class="d" d="M42.9,170.45a323,323,0,0,1,93-105.57l47.53,65.28a242.25,242.25,0,0,0-69.71,79.18Z" transform="translate(-2.98 -2.98)"/><path class="e" d="M136.11,64.68A323,323,0,0,1,265.17,8.76l15.2,79.31A242.25,242.25,0,0,0,183.58,130Z" transform="translate(-2.98 -2.98)"/><path class="f" d="M265.49,8.7a323,323,0,0,1,60-5.71l.11,80.75a242.25,242.25,0,0,0-45,4.29Z" transform="translate(-2.98 -2.98)"/><text class="g" transform="translate(555 227)">3</text><text class="g" transform="translate(574 227)">7</text><text class="g" transform="translate(593 227)">%</text><text class="h" transform="translate(555 227)">3</text><text class="h" transform="translate(574 227)">7</text><text class="h" transform="translate(593 227)">%</text><text class="g" transform="translate(251 619)">3</text><text class="g" transform="translate(270 619)">1</text><text class="g" transform="translate(289 619)">%</text><text class="h" transform="translate(251 619)">3</text><text class="h" transform="translate(270 619)">1</text><text class="h" transform="translate(289 619)">%</text><text class="g" transform="translate(13 331)">1</text><text class="g" transform="translate(32 331)">5</text><text class="g" transform="translate(51 331)">%</text><text class="h" transform="translate(13 331)">1</text><text class="h" transform="translate(32 331)">5</text><text class="h" transform="translate(51 331)">%</text><text class="g" transform="translate(91 153)">7</text><text class="g" transform="translate(110 153)">%</text><text class="h" transform="translate(91 153)">7</text><text class="h" transform="translate(110 153)">%</text><text class="g" transform="translate(191 81)">7</text><text class="g" transform="translate(210 81)">%</text><text class="h" transform="translate(191 81)">7</text><text class="h" transform="translate(210 81)">%</text><text class="g" transform="translate(277 59)">3</text><text class="g" transform="translate(296 59)">%</text><text class="h" transform="translate(277 59)">3</text><text class="h" transform="translate(296 59)">%</text></svg>