<svg xmlns="http://www.w3.org/2000/svg" viewBox="0 0 646 646.01"><defs><style>.a{fill:#517ff3;}.b{fill:#da4a39;}.c{fill:#f2b50e;}.d{fill:#009c59;}.e{fill:#ad44ba;}.f{fill:#10a9c0;}.g,.h{font-size:28px;font-family:DejaVuSans-Bold, DejaVu Sans;font-weight:700;}.h{fill:#fff;}</style></defs><title>chart (1)</title><path class="a" d="M325.92,3A323,323,0,0,1,609.14,481.4l-70.79-38.86A242.25,242.25,0,0,0,325.94,83.73Z" transform="translate(-2.98 -2.98)"/><path class="b" d="M609,481.68A323,323,0,0,1,445.13,626.2l-29.79-75.06A242.25,242.25,0,0,0,538.23,442.76Z" transform="translate(-2.98 -2.98)"/><path class="c" d="M444.83,626.32A323,323,0,0,1,42.75,170.72l70.81,38.81a242.25,242.25,0,0,0,301.57,341.7Z" transform="translate(-2.98 -2.98)"/><path class="d" d="M42.9,170.44A323,323,0,0,1,90.4,105l58.9,55.24a242.25,242.25,0,0,0-35.63,49.08Z" transform="translate(-2.98 -2.98)"/><path class="e" d="M90.62,104.77a323,323,0,0,1,154.7-91.56L265.49,91.4a242.25,242.25,0,0,0-116,68.67Z" transform="translate(-2.98 -2.98)"/><path class="f" d="M245.64,13.13A323,323,0,0,1,325.54,3l.11,80.75a242.25,242.25,0,0,0-59.92,7.61Z" transform="translate(-2.98 -2.98)"/><text class="g" transform="translate(539 195)">3</text><text class="g" transform="translate(558 195)">3</text><text class="g" transform="translate(577 195)">%</text><text class="h" transform="translate(539 195)">3</text><text class="h" transform="translate(558 195)">3</text><text class="h" transform="translate(577 195)">%</text><text class="g" transform="translate(483 553)">1</text><text class="g" transform="translate(502 553)">1</text><text class="g" transform="translate(521 553)">%</text><text class="h" transform="translate(483 553)">1</text><text class="h" transform="translate(502 553)">1</text><text class="h" transform="translate(521 553)">%</text><text class="g" transform="translate(83 527)">3</text><text class="g" transform="translate(102 527)">9</text><text class="g" transform="translate(121 527)">%</text><text class="h" transform="translate(83 527)">3</text><text class="h" transform="translate(102 527)">9</text><text class="h" transform="translate(121 527)">%</text><text class="g" transform="translate(73 173)">4</text><text class="g" transform="translate(92 173)">%</text><text class="h" transform="translate(73 173)">4</text><text class="h" transform="translate(92 173)">%</text><text class="g" transform="translate(157 97)">9</text><text class="g" transform="translate(176 97)">%</text><text class="h" transform="translate(157 97)">9</text><text class="h" transform="translate(176 97)">%</text><text class="g" transform="translate(267 59)">4</text><text class="g" transform="translate(286 59)">%</text><text class="h" transform="translate(267 59)">4</text><text class="h" transform="translate(286 59)">%</text></svg>