<svg xmlns="http://www.w3.org/2000/svg" viewBox="0 0 511.63 438.53"><defs><style>.a{fill:#ff9a1e;}</style></defs><title>external-link</title><path class="a" d="M392.86,292.35H374.58a8.81,8.81,0,0,0-9.13,9.14v91.36a45.82,45.82,0,0,1-45.68,45.68H82.22A44,44,0,0,1,50,425.11a44,44,0,0,1-13.42-32.26V155.31A44,44,0,0,1,50,123.05a44,44,0,0,1,32.26-13.42h201a8.78,8.78,0,0,0,9.13-9.13V82.22a8.78,8.78,0,0,0-9.13-9.13h-201q-34,0-58.1,24.12T0,155.31V392.86q0,34,24.12,58.09t58.1,24.13H319.77q34,0,58.1-24.13T402,392.86V301.5a8.83,8.83,0,0,0-9.14-9.15Z" transform="translate(0 -36.55)"/><path class="a" d="M506.2,42a17.57,17.57,0,0,0-12.85-5.42H347.17A17.55,17.55,0,0,0,334.32,42a17.94,17.94,0,0,0,0,25.7l50.25,50.25L198.42,304.07a9,9,0,0,0,0,13.13L231,349.74a9,9,0,0,0,13.14,0L430.25,163.6l50.26,50.24A18.28,18.28,0,0,0,511.63,201V54.82A17.6,17.6,0,0,0,506.2,42Z" transform="translate(0 -36.55)"/></svg>