<?xml version="1.0" encoding="utf-8"?>
<!-- Generator: Adobe Illustrator 22.0.0, SVG Export Plug-In . SVG Version: 6.00 Build 0)  -->
<svg version="1.1" id="Слой_1" xmlns="http://www.w3.org/2000/svg" xmlns:xlink="http://www.w3.org/1999/xlink" x="0px" y="0px"
	 viewBox="0 0 32 32" style="enable-background:new 0 0 32 32;" xml:space="preserve">
<style type="text/css">
	.st0{fill:#FFFFFF;}
	.st1{fill:#3E5B98;}
</style>
<title>facebook</title>
<desc>Created with Sketch.</desc>
<path class="st0" d="M16,3.2C8.9,3.2,3.2,8.9,3.2,16c0,7.1,5.7,12.8,12.8,12.8S28.8,23.1,28.8,16C28.8,8.9,23.1,3.2,16,3.2z"/>
<path id="Combined-Shape" class="st1" d="M0,16C0,7.2,7.2,0,16,0s16,7.2,16,16s-7.2,16-16,16S0,24.8,0,16z M17.7,25.4v-8.7h2.4
	l0.3-3h-2.7l0-1.5c0-0.8,0.1-1.2,1.2-1.2h1.5V8H18c-2.9,0-3.9,1.5-3.9,3.9v1.8h-1.8v3h1.8v8.7L17.7,25.4L17.7,25.4z"/>
</svg>
