<?xml version="1.0" encoding="UTF-8"?>
<svg width="36px" height="36px" viewBox="0 0 36 36" version="1.1" xmlns="http://www.w3.org/2000/svg" xmlns:xlink="http://www.w3.org/1999/xlink">
    <!-- Generator: Sketch 47.1 (45422) - http://www.bohemiancoding.com/sketch -->
    <title>fb</title>
    <desc>Created with Sketch.</desc>
    <defs></defs>
    <g id="лендинг" stroke="none" stroke-width="1" fill="none" fill-rule="evenodd">
        <g id="Artboard" transform="translate(-345.000000, -496.000000)" fill-rule="nonzero" fill="#EFEFEF">
            <path d="M345,514 C345,504.0589 353.0589,496 363,496 C372.9411,496 381,504.0589 381,514 C381,523.9411 372.9411,532 363,532 C353.0589,532 345,523.9411 345,514 Z M364.87614,524.58358 L364.87614,514.79062 L367.579422,514.79062 L367.937665,511.415914 L364.876141,511.415914 L364.880734,509.726842 C364.880734,508.846666 364.964363,508.375048 366.22855,508.375048 L367.918534,508.375048 L367.918534,504.999958 L365.214868,504.999958 C361.967332,504.999958 360.824284,506.637052 360.824284,509.390134 L360.824284,511.416292 L358.79998,511.416292 L358.79998,514.790998 L360.824284,514.790998 L360.824284,524.583538 L364.876144,524.583538 L364.87614,524.58358 Z" id="fb"></path>
        </g>
    </g>
</svg>