<?xml version="1.0" encoding="UTF-8"?>
<svg width="39px" height="38px" viewBox="0 0 39 38" version="1.1" xmlns="http://www.w3.org/2000/svg" xmlns:xlink="http://www.w3.org/1999/xlink">
    <!-- Generator: Sketch 47.1 (45422) - http://www.bohemiancoding.com/sketch -->
    <title>fix btn</title>
    <desc>Created with Sketch.</desc>
    <defs></defs>
    <g id="лендинг" stroke="none" stroke-width="1" fill="none" fill-rule="evenodd">
        <g id="Artboard" transform="translate(-165.000000, -1015.000000)">
            <g id="fix-btn" transform="translate(165.000000, 1015.000000)">
                <path d="M18.9326868,4.79969578e-05 C11.5913809,-0.0164510734 4.90541408,4.22194028 1.78796929,10.8684869 C-1.32947549,17.5150336 -0.313707508,25.365787 4.39268683,31.000048 L0.0326868311,37.830048 L18.9326868,37.830048 C25.7868474,37.98774 32.1889289,34.4212601 35.6623406,28.5102707 C39.1357523,22.5992814 39.1357523,15.2708146 35.6623406,9.35982524 C32.1889289,3.4488359 25.7868474,-0.117643965 18.9326868,0.040047997 L18.9326868,4.79969578e-05 Z" id="Shape-Copy-4" fill="#FF9733" fill-rule="nonzero"></path>
                <path d="M24.4126868,26.650048 C23.0810897,27.4453121 21.6006282,27.9592194 20.0626868,28.160048 L19.2026868,31.890048 L13.5426868,31.890048 L14.3926868,28.220048 C13.7926868,28.150048 13.1926868,28.070048 12.6126868,27.960048 C11.4778023,27.7686367 10.3721287,27.4325657 9.32268683,26.960048 L9.15268683,26.880048 L10.3226868,21.880048 L11.1026868,21.880048 L11.1726868,21.940048 C11.3926868,22.130048 11.6826868,22.340048 12.0226868,22.580048 C12.4784704,22.8719376 12.9646659,23.1133588 13.4726868,23.300048 C14.0825547,23.5611577 14.715244,23.765359 15.3626868,23.910048 C16.1210403,24.0787448 16.8958007,24.1625933 17.6726868,24.160048 C18.6059166,24.2262248 19.5421271,24.0827181 20.4126868,23.740048 C20.9351436,23.4972214 21.3077625,23.0165431 21.4126868,22.450048 L22.6326868,17.180048 C23.7016225,17.4723517 24.715166,17.9385817 25.6326868,18.560048 C26.6604926,19.3168011 27.2451221,20.5347792 27.1926868,21.810048 C27.2207886,23.8103551 26.1546841,25.6664507 24.4126868,26.650048 L24.4126868,26.650048 Z" id="Path" fill="#373737"></path>
                <path d="M27.5926868,15.560048 L26.8426868,15.560048 L26.7826868,15.510048 C25.9925735,14.911771 25.1066645,14.4519099 24.1626868,14.150048 C23.1460168,13.7994296 22.0781175,13.6203199 21.0026868,13.620048 C20.0975883,13.578666 19.1933164,13.7180463 18.3426868,14.030048 C17.9222759,14.219844 17.6074133,14.5859634 17.4826868,15.030048 C17.3947569,15.272138 17.3212941,15.5192404 17.2626868,15.770048 L16.1326868,20.670048 C14.9698943,20.3710126 13.8807884,19.83667 12.9326868,19.100048 C12.0307345,18.3287351 11.5178533,17.1967331 11.5326868,16.010048 C11.5030011,14.0014864 12.5629049,12.1342191 14.3026868,11.130048 C15.6547282,10.3164587 17.1652103,9.8015991 18.7326868,9.620048 L19.5926868,5.900048 L25.2526868,5.900048 L24.3926868,9.620048 C24.8026868,9.680048 25.2226868,9.720048 25.6326868,9.810048 C26.6479931,9.97790435 27.6387766,10.2701015 28.5826868,10.680048 L28.7526868,10.760048 L27.5926868,15.560048 Z" id="Path" fill="#373737"></path>
            </g>
        </g>
    </g>
</svg>