<?xml version="1.0" encoding="UTF-8"?>
<svg width="36px" height="36px" viewBox="0 0 36 36" version="1.1" xmlns="http://www.w3.org/2000/svg" xmlns:xlink="http://www.w3.org/1999/xlink">
    <!-- Generator: Sketch 47.1 (45422) - http://www.bohemiancoding.com/sketch -->
    <title>g+</title>
    <desc>Created with Sketch.</desc>
    <defs></defs>
    <g id="лендинг" stroke="none" stroke-width="1" fill="none" fill-rule="evenodd">
        <g id="Artboard" transform="translate(-563.000000, -673.000000)" fill="#EFEFEF">
            <path d="M599,690.999679 C599,700.940984 590.941306,708.999679 580.999679,708.999679 C571.058373,708.999679 563,700.940984 563,690.999679 C563,681.058694 571.058373,673 580.999679,673 C590.941306,673 599,681.058694 599,690.999679 Z M588.83552,690.173546 C588.703779,690.173546 588.578464,690.173546 588.446723,690.173546 C588.446723,690.146555 588.446723,690.121492 588.446723,690.096751 C588.446723,689.995214 588.446723,689.910064 588.446723,689.826521 C588.446723,689.33201 588.45315,688.837499 588.440297,688.342346 C588.440297,688.262016 588.356754,688.115494 588.305343,688.114209 C587.852282,688.096536 587.402435,688.103284 586.923669,688.103284 C586.923669,688.696119 586.923669,689.258749 586.923669,689.830698 C586.923669,689.944124 586.923669,690.056264 586.923669,690.168726 C586.232832,690.168726 585.564487,690.168726 584.851158,690.168726 C584.851158,690.323602 584.847944,690.428995 584.851158,690.53246 C584.867224,690.906797 584.88329,691.281134 584.899356,691.654508 C585.26566,691.667682 585.631964,691.68439 585.998268,691.692423 C586.303522,691.697886 586.608776,691.692745 586.946161,691.692745 C586.946161,692.40511 586.946161,693.067992 586.946161,693.730875 C587.453846,693.730875 587.926186,693.730875 588.440297,693.730875 C588.440297,693.05514 588.440297,692.390972 588.440297,691.687925 C589.143987,691.687925 589.809118,691.687925 590.483889,691.687925 C590.483889,691.293987 590.483889,690.922542 590.483889,690.543063 C590.483889,690.420641 590.483889,690.298539 590.483889,690.173546 C589.934433,690.173546 589.391403,690.173546 588.83552,690.173546 Z M582.764359,689.912015 C581.472976,689.929045 580.182557,689.919406 578.891816,689.919406 C578.523263,689.919406 578.153424,689.912658 577.785513,689.927118 C577.715144,689.929367 577.589508,690.013231 577.589508,690.06175 C577.576334,690.805284 577.58019,691.549781 577.58019,692.33348 C578.645043,692.33348 579.676157,692.33348 580.742295,692.33348 C580.700203,692.487392 580.674176,692.597926 580.638188,692.705889 C580.152674,694.143473 578.667535,694.856159 577.076039,694.595248 C575.09896,694.271037 573.868628,692.437908 574.21983,690.457616 C574.269634,690.177425 574.357676,689.912337 574.47078,689.661708 C575.124023,688.224445 576.741224,687.351741 578.341074,687.701337 C578.913987,687.82633 579.403357,688.10395 579.825892,688.472183 C580.400733,687.892843 580.959507,687.32957 581.554591,686.728703 C581.516033,686.698499 581.460766,686.658976 581.409676,686.616562 C580.014507,685.438283 578.411765,685.005145 576.616231,685.299152 C574.035392,685.721045 572.179129,687.753391 571.763663,690.127942 C571.586616,691.142669 571.669838,692.220054 572.075022,693.261129 C573.057296,695.783166 575.593471,697.319716 578.302837,697.021853 C579.625389,696.875974 580.806881,696.398493 581.730674,695.413649 C583.092105,693.964176 583.441701,692.209772 583.225132,690.289245 C583.189465,689.968568 583.059652,689.90816 582.764359,689.912015 Z" id="g+"></path>
        </g>
    </g>
</svg>