<?xml version="1.0" encoding="utf-8"?>
<!-- Generator: Adobe Illustrator 22.0.0, SVG Export Plug-In . SVG Version: 6.00 Build 0)  -->
<svg version="1.1" id="Слой_1" xmlns="http://www.w3.org/2000/svg" xmlns:xlink="http://www.w3.org/1999/xlink" x="0px" y="0px"
	 viewBox="0 0 32 32" style="enable-background:new 0 0 32 32;" xml:space="preserve">
<style type="text/css">
	.st0{fill:#FFFFFF;}
</style>
<title>github</title>
<desc>Created with Sketch.</desc>
<g id="лендинг">
	<g id="Sharpay-home-Copy" transform="translate(-388.000000, -765.000000)">
		<g id="github" transform="translate(388.000000, 765.000000)">
			<path id="Combined-Shape" class="st0" d="M16,0L16,0c8.8,0,16,7.2,16,16.1c0,7.1-4.6,13.2-10.9,15.3c-0.8,0.2-1.1-0.3-1.1-0.8
				c0-0.5,0-2.3,0-4.4c0-1.5-0.5-2.5-1.1-3c3.6-0.4,7.3-1.8,7.3-8c0-1.8-0.6-3.2-1.6-4.3c0.2-0.4,0.7-2-0.2-4.3c0,0-1.3-0.4-4.4,1.7
				c-1.3-0.4-2.6-0.5-4-0.5c-1.4,0-2.7,0.2-4,0.5C8.9,6.3,7.6,6.7,7.6,6.7C6.7,8.9,7.3,10.6,7.4,11c-1,1.1-1.6,2.6-1.6,4.3
				c0,6.2,3.7,7.6,7.3,8c-0.5,0.4-0.9,1.1-1,2.2c-0.9,0.4-3.2,1.1-4.7-1.3c0,0-0.8-1.5-2.5-1.7c0,0-1.6,0-0.1,1c0,0,1,0.5,1.8,2.4
				c0,0,0.9,2.9,5.4,1.9c0,1.3,0,2.6,0,3c0,0.4-0.3,0.9-1.1,0.8C4.6,29.3,0,23.3,0,16.1C0,7.2,7.2,0,16,0z M6.1,23.1
				c0,0.1-0.2,0.1-0.3,0c-0.1-0.1-0.2-0.2-0.1-0.2c0-0.1,0.2-0.1,0.3,0C6.1,22.9,6.1,23,6.1,23.1L6.1,23.1z M6.8,23.8
				c-0.1,0.1-0.2,0-0.3-0.1c-0.1-0.1-0.1-0.3,0-0.3c0.1-0.1,0.2,0,0.3,0.1C6.8,23.6,6.8,23.7,6.8,23.8L6.8,23.8z M7.4,24.7
				c-0.1,0.1-0.3,0-0.4-0.1c-0.1-0.1-0.1-0.3,0-0.4c0.1-0.1,0.3,0,0.4,0.1C7.5,24.5,7.5,24.6,7.4,24.7L7.4,24.7z M8.2,25.6
				c-0.1,0.1-0.3,0.1-0.4-0.1c-0.1-0.1-0.2-0.3-0.1-0.4C7.8,25,8,25,8.2,25.2C8.3,25.3,8.3,25.5,8.2,25.6L8.2,25.6z M9.4,26.1
				c0,0.1-0.2,0.2-0.4,0.1c-0.2-0.1-0.3-0.2-0.3-0.3c0-0.1,0.2-0.2,0.4-0.1C9.4,25.8,9.5,26,9.4,26.1z M10.7,26.2
				c0,0.1-0.1,0.2-0.3,0.2c-0.2,0-0.3-0.1-0.3-0.2c0-0.1,0.1-0.2,0.3-0.2C10.6,26,10.7,26.1,10.7,26.2z M12,26
				c0,0.1-0.1,0.3-0.3,0.3c-0.2,0-0.4,0-0.4-0.2c0-0.1,0.1-0.3,0.3-0.3C11.8,25.8,11.9,25.9,12,26L12,26z"/>
		</g>
	</g>
</g>
</svg>
