<svg width="59.99999999999999" height="59.99999999999999" xmlns="http://www.w3.org/2000/svg">
 <title/>
 <desc/>

 <g>
  <title>background</title>
  <rect fill="none" id="canvas_background" height="402" width="582" y="-1" x="-1"/>
 </g>
 <g>
  <title>Layer 1</title>
  <path fill="#ff9933" stroke="null" id="svg_1" d="m22.79789,58.35047c0,-0.72895 -0.0257,-2.65772 -0.04041,-5.21939c-8.32356,1.85343 -10.07976,-4.11372 -10.07976,-4.11372c-1.36124,-3.54489 -3.32319,-4.48856 -3.32319,-4.48856c-2.71697,-1.90429 0.20575,-1.86474 0.20575,-1.86474c3.00354,0.21661 4.58338,3.16253 4.58338,3.16253c2.6692,4.6882 7.00275,3.33581 8.70934,2.55035c0.27189,-1.98341 1.04527,-3.33581 1.8995,-4.10243c-6.64453,-0.77414 -13.63074,-3.40738 -13.63074,-15.16464c0,-3.349 1.16651,-6.08772 3.08069,-8.23311c-0.30678,-0.77604 -1.33552,-3.89524 0.29392,-8.1201c0,0 2.51306,-0.825 8.22805,3.14558c2.3863,-0.67998 4.94711,-1.02278 7.49323,-1.03408c2.54061,0.0113 5.09959,0.3541 7.4914,1.03408c5.71133,-3.97058 8.2207,-3.14558 8.2207,-3.14558c1.63312,4.22298 0.60622,7.34218 0.2976,8.1201c1.91786,2.14539 3.07518,4.88411 3.07518,8.23311c0,11.78739 -6.99723,14.38109 -13.66381,15.14015c1.07651,0.94745 2.03175,2.81972 2.03175,5.68276c0,4.10242 -0.03858,7.41186 -0.03858,8.41769c0,0.82124 0.54009,1.77433 2.05932,1.47484c11.88005,-4.06476 20.44612,-15.55833 20.44612,-29.10876c0,-16.94652 -13.39928,-30.68343 -29.92519,-30.68343c-16.52406,0 -29.92334,13.73691 -29.92334,30.68343c0.00183,13.5542 8.57524,25.0553 20.46633,29.11252c1.49534,0.28066 2.04276,-0.66677 2.04276,-1.4786z"/>
 </g>
</svg>