<?xml version="1.0" encoding="utf-8"?>
<!-- Generator: Adobe Illustrator 22.0.0, SVG Export Plug-In . SVG Version: 6.00 Build 0)  -->
<svg version="1.1" id="Слой_1" xmlns="http://www.w3.org/2000/svg" xmlns:xlink="http://www.w3.org/1999/xlink" x="0px" y="0px"
	 viewBox="0 0 32 32" style="enable-background:new 0 0 32 32;" xml:space="preserve">
<style type="text/css">
	.st0{fill:#EB0000;}
	.st1{fill:#285FAC;}
	.st2{fill:#FFFFFF;}
</style>
<title>golos</title>
<desc>Created with Sketch.</desc>
<g id="лендинг">
	<g id="Sharpay-home-Copy" transform="translate(-46.000000, -730.000000)">
		<g id="golos" transform="translate(46.000000, 730.000000)">
			<path class="st0" d="M15,13.7c1.4-0.6,2.4-2,2.4-3.6c0-2.1-1.7-3.9-3.8-3.9c-2.2,0-3.9,1.7-3.9,3.9c0,1.2,0.6,2.2,1.3,2.9l-2,1.4
				C9,14.4,13,14.7,15,13.7z"/>
			<path class="st1" d="M23.4,17.9c-1.9-0.7-4.6,0.6-4.6,0.6s2-2.8,2-6.9c0-3-1.1-4-1.9-4.7C19,7.4,19,7.8,19,8.2
				c0,4.4-2.7,7.3-7.1,7.3c-1.8,0-3.5,0-4.8-1c0,0.1,0.2,0.9,1,1.8c0.3,0.4,0.8,0.8,1.4,1.1c1.9,1.1,3.5,1.2,3.6,1.2
				c0,2.2-1.5,5.3-3.7,5.3c-0.4,0-0.7,0-1-0.1C7.5,23.6,7,23.2,7,23.2s0.3,2.3,2.7,2.5c2.7,0.3,3.9-0.3,6.6-1.9
				c2.8-1.7,4.9-3.6,6.6-3.1c1.3,0.3,1.5,2.3,1.5,2.3s0.4-0.8,0.5-1.5C25,20.8,25.2,18.7,23.4,17.9z"/>
			<path id="Shape" class="st2" d="M16,0C7.2,0,0,7.2,0,16s7.2,16,16,16s16-7.2,16-16S24.8,0,16,0z M9.7,10.1c0-2.2,1.7-3.9,3.9-3.9
				c2.1,0,3.8,1.8,3.8,3.9c0,1.6-1,3-2.4,3.6c-2,1-6,0.7-6,0.7l2-1.4C10.3,12.3,9.7,11.3,9.7,10.1z M24.9,21.5
				c-0.1,0.7-0.5,1.5-0.5,1.5s-0.2-2-1.5-2.3c-1.7-0.5-3.8,1.4-6.6,3.1c-2.7,1.6-3.9,2.2-6.6,1.9C7.3,25.5,7,23.2,7,23.2
				s0.5,0.4,1.4,0.6c0.3,0.1,0.6,0.1,1,0.1c2.2,0,3.7-3.1,3.7-5.3l0,0c-0.1,0-1.7-0.1-3.6-1.2c-0.6-0.3-1.1-0.7-1.4-1.1
				c-0.8-0.9-1-1.7-1-1.8c1.3,1,3,1,4.8,1c4.4,0,7.1-2.9,7.1-7.3c0-0.4,0-0.8-0.1-1.3c0.8,0.7,1.9,1.7,1.9,4.7c0,4.1-2,6.9-2,6.9
				s2.7-1.3,4.6-0.6C25.2,18.7,25,20.8,24.9,21.5z"/>
		</g>
	</g>
</g>
</svg>
