<?xml version="1.0" encoding="UTF-8"?>
<svg width="32px" height="32px" viewBox="0 0 32 32" version="1.1" xmlns="http://www.w3.org/2000/svg" xmlns:xlink="http://www.w3.org/1999/xlink">
    <!-- Generator: Sketch 47.1 (45422) - http://www.bohemiancoding.com/sketch -->
    <title>golos</title>
    <desc>Created with Sketch.</desc>
    <defs></defs>
    <g id="лендинг" stroke="none" stroke-width="1" fill="none" fill-rule="evenodd">
        <g id="Sharpay-home-Copy" transform="translate(-46.000000, -730.000000)" fill-rule="nonzero" fill="#FFFFFF">
            <g id="golos" transform="translate(46.000000, 730.000000)">
                <path d="M16,0 C7.2,0 0,7.2 0,16 C0,24.8 7.2,32 16,32 C24.8,32 32,24.8 32,16 C32,7.2 24.8,0 16,0 Z M9.7,10.1 C9.7,7.9 11.4,6.2 13.6,6.2 C15.7,6.2 17.4,8 17.4,10.1 C17.4,11.7 16.4,13.1 15,13.7 C13,14.7 9,14.4 9,14.4 L11,13 C10.3,12.3 9.7,11.3 9.7,10.1 Z M24.9,21.5 C24.8,22.2 24.4,23 24.4,23 C24.4,23 24.2,21 22.9,20.7 C21.2,20.2 19.1,22.1 16.3,23.8 C13.6,25.4 12.4,26 9.7,25.7 C7.3,25.5 7,23.2 7,23.2 C7,23.2 7.5,23.6 8.4,23.8 C8.7,23.9 9,23.9 9.4,23.9 C11.6,23.9 13.1,20.8 13.1,18.6 C13.1,18.6 13.1,18.6 13.1,18.6 C13,18.6 11.4,18.5 9.5,17.4 C8.9,17.1 8.4,16.7 8.1,16.3 C7.3,15.4 7.1,14.6 7.1,14.5 C8.4,15.5 10.1,15.5 11.9,15.5 C16.3,15.5 19,12.6 19,8.2 C19,7.8 19,7.4 18.9,6.9 C19.7,7.6 20.8,8.6 20.8,11.6 C20.8,15.7 18.8,18.5 18.8,18.5 C18.8,18.5 21.5,17.2 23.4,17.9 C25.2,18.7 25,20.8 24.9,21.5 Z" id="Shape"></path>
            </g>
        </g>
    </g>
</svg>