<svg width="32" height="32" xmlns="http://www.w3.org/2000/svg">
 <!-- Generator: Sketch 47.1 (45422) - http://www.bohemiancoding.com/sketch -->
 <title>golos</title>
 <desc>Created with Sketch.</desc>

 <g>
  <title>background</title>
  <rect fill="none" id="canvas_background" height="402" width="582" y="-1" x="-1"/>
 </g>
 <g>
  <title>Layer 1</title>
  <path fill="#ff9933" id="Shape" d="m16,0c-8.8,0 -16,7.2 -16,16c0,8.8 7.2,16 16,16c8.8,0 16,-7.2 16,-16c0,-8.8 -7.2,-16 -16,-16zm-6.3,10.1c0,-2.2 1.7,-3.9 3.9,-3.9c2.1,0 3.8,1.8 3.8,3.9c0,1.6 -1,3 -2.4,3.6c-2,1 -6,0.7 -6,0.7l2,-1.4c-0.7,-0.7 -1.3,-1.7 -1.3,-2.9zm15.2,11.4c-0.1,0.7 -0.5,1.5 -0.5,1.5c0,0 -0.2,-2 -1.5,-2.3c-1.7,-0.5 -3.8,1.4 -6.6,3.1c-2.7,1.6 -3.9,2.2 -6.6,1.9c-2.4,-0.2 -2.7,-2.5 -2.7,-2.5c0,0 0.5,0.4 1.4,0.6c0.3,0.1 0.6,0.1 1,0.1c2.2,0 3.7,-3.1 3.7,-5.3c0,0 0,0 0,0c-0.1,0 -1.7,-0.1 -3.6,-1.2c-0.6,-0.3 -1.1,-0.7 -1.4,-1.1c-0.8,-0.9 -1,-1.7 -1,-1.8c1.3,1 3,1 4.8,1c4.4,0 7.1,-2.9 7.1,-7.3c0,-0.4 0,-0.8 -0.1,-1.3c0.8,0.7 1.9,1.7 1.9,4.7c0,4.1 -2,6.9 -2,6.9c0,0 2.7,-1.3 4.6,-0.6c1.8,0.8 1.6,2.9 1.5,3.6z"/>
 </g>
</svg>