
<svg width="36px" height="36px" viewBox="0 0 50 50" version="1.1" xmlns="http://www.w3.org/2000/svg" xmlns:xlink="http://www.w3.org/1999/xlink">
    <!-- Generator: Sketch 46.2 (44496) - http://www.bohemiancoding.com/sketch -->
    <desc>Created with Sketch.</desc>
    <defs>
        <rect id="path-1" x="9" y="11" width="33" height="29"></rect>
    </defs>
    <g id="Page-1" stroke="none" stroke-width="1" fill="none" fill-rule="evenodd">
        <g id="gplus-icon">
            <g id="Rectangle">
                <use fill="#373737" fill-rule="evenodd" xlink:href="#path-1"></use>
                <rect stroke="#979797" stroke-width="1" x="9.5" y="11.5" width="32" height="28"></rect>
            </g>
            <path d="M20.761,22.96 C21.39,22.96 21.921,22.712 22.331,22.243 C22.976,21.511 23.259,20.307 23.091,19.028 C22.79,16.741 21.159,14.842 19.454,14.792 L19.386,14.792 C18.782,14.792 18.245,15.038 17.835,15.507 C17.198,16.232 16.932,17.378 17.099,18.653 C17.398,20.936 19.064,22.909 20.734,22.96 L20.761,22.96 Z" id="Shape" fill="#EFEFEF" fill-rule="nonzero"></path>
            <path d="M22.622,29.847 C22.454,29.734 22.28,29.615 22.101,29.492 C21.576,29.33 21.017,29.246 20.447,29.238 L20.375,29.238 C17.75,29.238 15.446,30.83 15.446,32.644 C15.446,34.615 17.418,36.162 19.937,36.162 C23.259,36.162 24.943,35.017 24.943,32.758 C24.943,32.543 24.918,32.322 24.867,32.102 C24.642,31.222 23.837,30.675 22.622,29.847 Z" id="Shape" fill="#EFEFEF" fill-rule="nonzero"></path>
            <path d="M25.347,0.157 C11.746,0.157 0.722,11.18 0.722,24.78 C0.722,38.38 11.747,49.405 25.347,49.405 C38.945,49.405 49.97,38.38 49.97,24.78 C49.97,11.18 38.944,0.157 25.347,0.157 Z M23.106,38.179 C22.124,38.462 21.065,38.607 19.952,38.607 C18.714,38.607 17.522,38.464 16.412,38.183 C14.262,37.642 12.672,36.613 11.932,35.288 C11.612,34.714 11.45,34.104 11.45,33.472 C11.45,32.82 11.606,32.16 11.913,31.505 C13.093,28.995 16.196,27.308 19.635,27.308 C19.67,27.308 19.703,27.308 19.735,27.308 C19.456,26.816 19.319,26.306 19.319,25.771 C19.319,25.503 19.354,25.232 19.424,24.957 C15.818,24.873 13.118,22.232 13.118,18.75 C13.118,16.289 15.083,13.895 17.894,12.926 C18.736,12.635 19.593,12.487 20.437,12.487 L28.15,12.487 C28.414,12.487 28.644,12.657 28.726,12.907 C28.81,13.159 28.718,13.432 28.505,13.587 L26.78,14.835 C26.676,14.909 26.551,14.95 26.423,14.95 L25.806,14.95 C26.605,15.905 27.072,17.266 27.072,18.798 C27.072,20.489 26.217,22.087 24.662,23.304 C23.461,24.24 23.412,24.495 23.412,25.033 C23.428,25.328 24.266,26.285 25.187,26.937 C27.339,28.46 28.14,29.951 28.14,32.445 C28.14,35.04 26.163,37.292 23.106,38.179 Z M40.528,24.948 C40.528,25.282 40.255,25.553 39.921,25.553 L35.538,25.553 L35.538,29.938 C35.538,30.274 35.267,30.545 34.931,30.545 L33.683,30.545 C33.347,30.545 33.076,30.274 33.076,29.938 L33.076,25.553 L28.69,25.553 C28.358,25.553 28.085,25.282 28.085,24.948 L28.085,23.698 C28.085,23.364 28.358,23.091 28.69,23.091 L33.075,23.091 L33.075,18.708 C33.075,18.372 33.346,18.101 33.682,18.101 L34.93,18.101 C35.266,18.101 35.537,18.372 35.537,18.708 L35.537,23.091 L39.92,23.091 C40.254,23.091 40.527,23.364 40.527,23.698 L40.527,24.948 L40.528,24.948 Z" id="Shape" fill="#EFEFEF" fill-rule="nonzero"></path>
        </g>
    </g>
</svg>
