<?xml version="1.0" encoding="UTF-8"?>
<svg width="36px" height="36px" viewBox="0 0 36 36" version="1.1" xmlns="http://www.w3.org/2000/svg" xmlns:xlink="http://www.w3.org/1999/xlink">
    <!-- Generator: Sketch 47.1 (45422) - http://www.bohemiancoding.com/sketch -->
    <title>in</title>
    <desc>Created with Sketch.</desc>
    <defs></defs>
    <g id="лендинг" stroke="none" stroke-width="1" fill="none" fill-rule="evenodd">
        <g id="Artboard" transform="translate(-437.000000, -496.000000)" fill="#EFEFEF">
            <path d="M473,514.000321 C473,523.941804 464.941162,532.000964 455,532.000964 C445.058196,532.000964 437,523.941804 437,514.000321 C437,504.05916 445.058196,496 455,496 C464.941162,496 473,504.05916 473,514.000321 Z M444.798886,513.304652 L444.798886,523.74676 L449.774608,523.74676 L449.774608,509.532293 L444.798886,509.532293 L444.798886,513.304652 Z M447.286908,502.424899 C445.912921,502.424899 444.798886,503.538613 444.798886,504.9126 C444.798886,506.286586 445.912921,507.399979 447.286908,507.399979 C448.660895,507.399979 449.774608,506.286586 449.774608,504.9126 C449.774608,503.538613 448.660895,502.424899 447.286908,502.424899 Z M466.01246,513.896855 C465.67539,511.217323 464.445036,509.532293 460.822736,509.532293 C458.674355,509.532293 457.231604,510.330465 456.641651,511.450284 L456.580278,511.450284 L456.580278,509.532293 L452.617694,509.532293 L452.617694,523.74676 L456.759577,523.74676 L456.759577,516.701703 C456.759577,514.843158 457.110786,513.0447 459.408583,513.0447 C461.673284,513.0447 461.855475,515.168981 461.855475,516.821557 L461.855475,523.74676 L466.120747,523.74676 L466.120747,515.935664 L466.12139,515.935664 C466.12139,515.206898 466.091185,514.524403 466.01246,513.896855 Z" id="in"></path>
        </g>
    </g>
</svg>