<?xml version="1.0" encoding="UTF-8"?>
<svg width="58px" height="56px" viewBox="0 0 58 56" version="1.1" xmlns="http://www.w3.org/2000/svg" xmlns:xlink="http://www.w3.org/1999/xlink">
    <!-- Generator: Sketch 47.1 (45422) - http://www.bohemiancoding.com/sketch -->
    <title>iu5</title>
    <desc>Created with Sketch.</desc>
    <defs></defs>
    <g id="лендинг" stroke="none" stroke-width="1" fill="none" fill-rule="evenodd">
        <g id="Sharpay-home-Copy" transform="translate(-560.000000, -2594.000000)">
            <g id="iu5" transform="translate(560.000000, 2594.000000)">
                <path d="M4.52342574,14.4711111 L49.7572238,14.4711111 C52.2451366,14.4711111 54.2806495,16.5191022 54.2806495,19.0222667 L54.2806495,24.4836533 C54.2806495,26.9868178 52.2451366,29.0348089 49.7572238,29.0348089 L4.52342574,29.0348089 C2.03551287,29.0345778 0,26.9865867 0,24.4835378 L0,18 C0,15.4969511 2.03551287,14.4711111 4.52342574,14.4711111 Z" id="Shape" fill="#333333" fill-rule="nonzero"></path>
                <g id="Group-23-Copy-2" transform="translate(26.000000, 11.000000)">
                    <path d="M3.95677273,2.49533265e-06 C2.42238116,-0.00172600427 1.02566268,0.894660331 0.374093063,2.29929554 C-0.277476555,3.70393075 -0.0661330118,5.36294193 0.916203891,6.55477413 L0.00654264981,7.99893834 L3.95677273,7.99893834 C5.39009784,8.03228139 6.72888528,7.27816975 7.45523655,6.02832506 C8.18158782,4.77848037 8.18158782,3.22891823 7.45523655,1.97907354 C6.72888528,0.729228854 5.39009784,-0.0248827928 3.95677273,0.00846026519 L3.95677273,2.49533265e-06 Z" id="Shape-Copy-2" fill="#FF9933" fill-rule="nonzero"></path>
                    <rect id="Rectangle-9" fill="#FFFFFF" x="2" y="3.33333333" width="4" height="1.33333333" rx="0.666666667"></rect>
                    <rect id="Rectangle-9" fill="#FFFFFF" transform="translate(4.000000, 4.000000) rotate(-270.000000) translate(-4.000000, -4.000000) " x="2" y="3.33333333" width="4" height="1.33333333" rx="0.666666667"></rect>
                </g>
                <path d="M51.5665941,55.9822044 L4.52342574,55.9822044 C2.03551287,55.9822044 0,53.9342133 0,51.4310489 L0,20.6630756 L51.5665941,20.6630756 C54.0545069,20.6630756 56.0900198,22.7110667 56.0900198,25.2142311 L56.0900198,51.4311644 C56.089905,53.9342133 54.0543921,55.9822044 51.5665941,55.9822044 Z M3.61874059,20.6630756 L0,20.6630756 L0,17.0221511 C0,19.0246133 1.62836436,20.6630756 3.61874059,20.6630756 Z" id="Shape" fill="#FF9933" fill-rule="nonzero"></path>
                <path d="M56.089905,45.6043733 L48.8525386,45.6043733 C45.3695525,45.6043733 42.5198574,42.7372089 42.5198574,39.2328711 C42.5198574,35.7285333 45.3695525,32.8613689 48.8525386,32.8613689 L56.089905,32.8613689 C57.0850931,32.8613689 57.8992752,33.6805422 57.8992752,34.6818311 L57.8992752,43.7840267 C57.8992752,44.7852 57.0850931,45.6043733 56.089905,45.6043733 Z" id="Shape" fill="#333333" fill-rule="nonzero"></path>
                <path d="M48.8525386,35.5919467 C50.8428,35.5919467 52.4712792,37.2302933 52.4712792,39.2328711 C52.4712792,41.2354489 50.8429149,42.8737956 48.8525386,42.8737956 C46.8622772,42.8737956 45.233798,41.2354489 45.233798,39.2328711 C45.233798,37.2302933 46.8622772,35.5919467 48.8525386,35.5919467 Z" id="Shape" fill="#FFFFFF" fill-rule="nonzero"></path>
                <path d="M33.6268928,45.7638069 C32.2665666,46.5544429 30.755315,47.0670903 29.1851403,47.2705402 L28.3008278,51 L22.4982839,51 L23.3664446,47.3295506 C22.7526751,47.2587381 22.1550575,47.1839915 21.5412881,47.0659706 C20.3773319,46.8707573 19.2431912,46.5337209 18.1655562,46.0627932 L18,45.9801785 L19.1911973,41.0036314 L19.9987886,41.0036314 L20.0674339,41.0587078 C20.3443507,41.2880256 20.6341883,41.5021074 20.9355946,41.6999546 C21.404171,41.9901751 21.9021069,42.2327352 22.4215627,42.423816 C23.0484952,42.6798379 23.6969858,42.8825405 24.359782,43.0296565 C25.1374984,43.2010026 25.932719,43.2854732 26.7300626,43.2814344 C27.9818292,43.2814344 28.9428629,43.1752156 29.5566323,42.8644273 C30.0786145,42.6107463 30.4479594,42.1329036 30.5540077,41.5740657 L31.8017363,36.3103344 C32.9143537,36.5966841 33.9695478,37.0634896 34.9230769,37.6911787 C35.9819981,38.4440009 36.5874044,39.660514 36.5382596,40.9367529 C36.4898042,42.9706461 35.5085807,44.5954002 33.606703,45.7638069 L33.6268928,45.7638069 Z M36.8895619,34.6737782 L36.0860085,34.6737782 L36.0254391,34.6265698 C35.2115948,34.0346778 34.3047912,33.5750105 33.3401979,33.2653957 C32.3007129,32.9169492 31.2091246,32.738814 30.1098324,32.7382357 C29.1808289,32.6912472 28.2515223,32.8249826 27.3761357,33.1316387 C26.940838,33.3266805 26.6168866,33.6999405 26.4918231,34.1505523 C26.3868363,34.4338024 26.3626085,34.5675594 26.2697355,34.8980179 L25.1108419,39.7880163 C23.604684,39.3316689 22.5225116,38.8163111 21.836059,38.2144046 C20.9068149,37.4446647 20.3795229,36.3104384 20.3985463,35.1222575 C20.3985463,33.0686942 21.3515041,31.432138 23.2251161,30.2519292 C24.5965161,29.4367718 26.1295901,28.913872 27.7234,28.7176577 L28.6077125,25 L34.4102564,25 L33.5299818,28.7176577 C33.9337775,28.7766682 34.3819907,28.8238765 34.8059762,28.9064911 C35.8456301,29.0797281 36.8607518,29.371541 37.8304058,29.7759116 L38,29.8585263 L36.8895619,34.6737782 Z" id="Combined-Shape" fill="#FFFFFF"></path>
                <g id="Group-23" transform="translate(37.000000, 0.000000)">
                    <path d="M5.9351591,3.74299898e-06 C3.63357175,-0.00258900641 1.53849402,1.3419905 0.561139595,3.44894331 C-0.416214832,5.55589613 -0.0991995177,8.04441289 1.37430584,9.8321612 L0.00981397471,11.9984075 L5.9351591,11.9984075 C8.08514676,12.0484221 10.0933279,10.9172546 11.1828548,9.04248759 C12.2723817,7.16772056 12.2723817,4.84337734 11.1828548,2.96861031 C10.0933279,1.09384328 8.08514676,-0.0373241892 5.9351591,0.0126903978 L5.9351591,3.74299898e-06 Z" id="Shape-Copy-2" fill="#FF9733" fill-rule="nonzero"></path>
                    <rect id="Rectangle-9" fill="#FFFFFF" x="3" y="5" width="6" height="2" rx="1"></rect>
                    <rect id="Rectangle-9" fill="#FFFFFF" transform="translate(6.000000, 6.000000) rotate(-270.000000) translate(-6.000000, -6.000000) " x="3" y="5" width="6" height="2" rx="1"></rect>
                </g>
                <g id="Group-23-Copy" transform="translate(9.000000, 5.000000)">
                    <path d="M5.9351591,3.74299898e-06 C3.63357175,-0.00258900641 1.53849402,1.3419905 0.561139595,3.44894331 C-0.416214832,5.55589613 -0.0991995177,8.04441289 1.37430584,9.8321612 L0.00981397471,11.9984075 L5.9351591,11.9984075 C8.08514676,12.0484221 10.0933279,10.9172546 11.1828548,9.04248759 C12.2723817,7.16772056 12.2723817,4.84337734 11.1828548,2.96861031 C10.0933279,1.09384328 8.08514676,-0.0373241892 5.9351591,0.0126903978 L5.9351591,3.74299898e-06 Z" id="Shape-Copy-2" fill="#FF9733" fill-rule="nonzero"></path>
                    <rect id="Rectangle-9" fill="#FFFFFF" x="3" y="5" width="6" height="2" rx="1"></rect>
                    <rect id="Rectangle-9" fill="#FFFFFF" transform="translate(6.000000, 6.000000) rotate(-270.000000) translate(-6.000000, -6.000000) " x="3" y="5" width="6" height="2" rx="1"></rect>
                </g>
            </g>
        </g>
    </g>
</svg>