<svg width="112.196" height="112.196" xmlns="http://www.w3.org/2000/svg">

 <g>
  <title>background</title>
  <rect fill="none" id="canvas_background" height="402" width="582" y="-1" x="-1"/>
 </g>
 <g>
  <title>Layer 1</title>
  <circle id="svg_2" fill="#ff9933" r="56.098" cy="56.097" cx="56.098"/>
  <path id="svg_4" fill="#333333" d="m89.616,60.611l0,23.128l-13.409,0l0,-21.578c0,-5.418 -1.936,-9.118 -6.791,-9.118c-3.705,0 -5.906,2.491 -6.878,4.903c-0.353,0.862 -0.444,2.059 -0.444,3.268l0,22.524l-13.41,0c0,0 0.18,-36.546 0,-40.329l13.411,0l0,5.715c-0.027,0.045 -0.065,0.089 -0.089,0.132l0.089,0l0,-0.132c1.782,-2.742 4.96,-6.662 12.085,-6.662c8.822,0 15.436,5.764 15.436,18.149l0,0zm-54.96,-36.642c-4.587,0 -7.588,3.011 -7.588,6.967c0,3.872 2.914,6.97 7.412,6.97l0.087,0c4.677,0 7.585,-3.098 7.585,-6.97c-0.089,-3.956 -2.908,-6.967 -7.496,-6.967l0,0zm-6.791,59.77l13.405,0l0,-40.33l-13.405,0l0,40.33z"/>
 </g>
</svg>