<?xml version="1.0" encoding="UTF-8"?>
<svg width="36px" height="36px" viewBox="0 0 36 36" version="1.1" xmlns="http://www.w3.org/2000/svg" xmlns:xlink="http://www.w3.org/1999/xlink">
    <!-- Generator: Sketch 47.1 (45422) - http://www.bohemiancoding.com/sketch -->
    <title>lj</title>
    <desc>Created with Sketch.</desc>
    <defs>
        <polygon id="path-1" points="17.8992 0.1632 0 0.1632 0 35.928 35.7984 35.928 35.7984 0.1632"></polygon>
    </defs>
    <g id="лендинг" stroke="none" stroke-width="1" fill="none" fill-rule="evenodd">
        <g id="Artboard" transform="translate(-611.000000, -674.000000)">
            <g id="lj" transform="translate(611.000000, 674.000000)">
                <g id="Group-3">
                    <mask id="mask-2" fill="white">
                        <use xlink:href="#path-1"></use>
                    </mask>
                    <g id="Clip-2"></g>
                    <path d="M19.032,2.466 C16.6656,2.466 14.4168,2.9592 12.3756,3.8412 L8.6928,0.1632 L8.6844,0.1632 C4.7964,1.866 1.68,4.998 -0.0012,8.8992 L3.6876,12.5844 L3.6852,12.588 C2.7948,14.6328 2.2644,16.86 2.2644,19.2336 C2.2644,28.4964 9.7704,36.0024 19.032,36.0024 C28.29,36.0024 35.7984,28.494 35.7984,19.2336 C35.7984,9.9732 28.2912,2.466 19.032,2.466" id="Fill-1" fill="#EFEFEF" mask="url(#mask-2)"></path>
                </g>
                <path d="M17.4456671,26.1238938 C19.1237773,22.2324642 22.2390689,19.1073469 26.1214965,17.4070915 L26.1238938,17.4070915 L12.5060301,3.82420621 L12.5000369,3.82300885 C8.61401327,5.52326424 5.50111898,8.64718418 3.82300885,12.5422059 L17.4456671,26.1238938" id="Fill-4" fill="#333333"></path>
                <path d="M27.2182235,21.9823009 C24.732235,23.0666591 22.740274,25.0642997 21.6637168,27.5475327 L28.6725664,28.9911504 L27.2182235,21.9823009" id="Fill-5" fill="#333333"></path>
                <path d="M27.079646,22.9380531 L28.2838938,28.3539823 C28.2851681,28.3149337 27.6862301,25.6347764 27.079646,22.9380531" id="Fill-6" fill="#FFFFFE"></path>
                <path d="M27.079646,22.0800818 C26.5559781,19.5172552 26.0838186,17.2035398 26.0838186,17.2035398 L26.078913,17.204798 C22.1078672,18.9913536 18.92171,22.2725769 17.2035398,26.3640409 L21.9226826,27.3982301 C22.9246419,25.031673 24.7777149,23.114271 27.079646,22.0800818" id="Fill-7" fill="#EFEFEF"></path>
            </g>
        </g>
    </g>
</svg>