<?xml version="1.0" encoding="UTF-8"?>
<svg width="219px" height="43px" viewBox="0 0 219 43" version="1.1" xmlns="http://www.w3.org/2000/svg" xmlns:xlink="http://www.w3.org/1999/xlink">
    <!-- Generator: Sketch 47.1 (45422) - http://www.bohemiancoding.com/sketch -->
    <title>logo_sharpay_1_w</title>
    <desc>Created with Sketch.</desc>
    <defs></defs>
    <g id="лендинг" stroke="none" stroke-width="1" fill="none" fill-rule="evenodd">
        <g id="Sharpay-home-Copy" transform="translate(-181.000000, -40.000000)">
            <g id="logo_sharpay_1_w" transform="translate(180.000000, 40.000000)">
                <g id="Shape">
                    <path d="M111.658639,10.6481579 C110.437698,10.6327144 109.2277,10.875862 108.110995,11.3610526 C107.110182,11.8094759 106.147282,12.3354345 105.231414,12.9339474 L105.646073,11.1913158 L98.573822,11.1913158 L92.0774869,38.8584211 L99.1382199,38.8584211 L101.050262,30.7223684 C101.750229,31.0967399 102.492471,31.3891757 103.26178,31.5936842 C104.253938,31.8506607 105.2766,31.9762456 106.302618,31.9671053 C107.955971,31.9863265 109.587751,31.5972275 111.048168,30.8355263 C112.508545,30.0453225 113.799326,28.9847431 114.849215,27.7123684 C115.957401,26.363006 116.811625,24.8302142 117.371728,23.1860526 C117.983891,21.450106 118.295366,19.6255891 118.293194,17.7884211 C118.39815,15.8957376 117.791461,14.0311582 116.588482,12.5492105 C115.315612,11.2255515 113.508161,10.5285597 111.658639,10.6481579 L111.658639,10.6481579 Z M111.002094,22.2242105 C110.755508,23.1841325 110.342491,24.0951655 109.781152,24.9173684 C109.233572,25.7074251 108.503357,26.3588796 107.650262,26.8184211 C106.722279,27.3157988 105.677791,27.5655015 104.620942,27.5426316 C104.080407,27.5439214 103.540804,27.498483 103.008377,27.4068421 C102.525977,27.3285412 102.054427,27.195639 101.603141,27.0107895 L101.395812,26.9202632 L103.826178,16.6002632 L103.929843,16.5436842 C104.570715,16.2121944 105.23244,15.921166 105.910995,15.6723684 C106.538729,15.448536 107.201307,15.3336665 107.86911,15.3328947 C108.892308,15.2279893 109.909879,15.5764249 110.645026,16.2834211 C111.209778,17.0462894 111.486697,17.9784584 111.428272,18.92 C111.439501,20.0353001 111.296126,21.1469105 111.002094,22.2242105 L111.002094,22.2242105 Z" fill="#FF9733" fill-rule="nonzero"></path>
                    <path d="M139.913089,11.8702632 C137.686048,10.8944862 135.251462,10.4635005 132.817801,10.6142105 C131.217447,10.6170524 129.619576,10.7380953 128.037696,10.9763158 C126.448168,11.2139474 125.26178,11.4289474 124.501571,11.61 L124.340314,11.61 L123.292147,16.7926316 L123.61466,16.7926316 L124.305759,16.7926316 C124.939267,16.5663158 125.918325,16.2721053 127.18534,15.9213158 C128.307796,15.5945786 129.4703,15.4194623 130.640838,15.4007895 C131.812968,15.3415695 132.985823,15.502882 134.096335,15.8760526 C134.740729,16.1044656 135.157053,16.7202678 135.121466,17.3923684 C135.140109,17.5540443 135.140109,17.7172715 135.121466,17.8789474 L135.121466,18.0260526 C132.944503,18.1618421 130.905759,18.3655263 129.051309,18.6257895 C127.314174,18.842472 125.616202,19.2956815 124.006283,19.9723684 C122.620607,20.5402064 121.423842,21.476864 120.550785,22.6768421 C119.752869,23.9126973 119.351558,25.3556675 119.398953,26.8184211 C119.354221,28.2720256 119.970591,29.6697265 121.080628,30.6318421 C122.231104,31.602386 123.699291,32.1327284 125.215707,32.1255263 C126.05881,32.1461126 126.901485,32.0701624 127.726702,31.8992105 C128.386974,31.7358976 129.033821,31.5240732 129.66178,31.2655263 C130.234719,31.0121763 130.785597,30.7131964 131.308901,30.3715789 L132.230366,29.7831579 L131.804188,31.5710526 L138.795812,31.5710526 L142.009424,17.8676316 C142.096509,17.5292973 142.158107,17.1851204 142.193717,16.8378947 C142.193717,16.4531579 142.193717,16.1363158 142.193717,15.8986842 C142.289362,14.2358298 141.40152,12.6675785 139.913089,11.8702632 L139.913089,11.8702632 Z M133.624084,26.2752632 L133.543455,26.3431579 C132.886243,26.7967939 132.179181,27.1763727 131.435602,27.4747368 C130.752003,27.7527699 130.021413,27.9024597 129.281675,27.9160526 C128.489019,27.9506371 127.699367,27.7993627 126.97801,27.4747368 C126.371072,27.1358429 126.016901,26.4840006 126.068063,25.8 C126.036013,25.0680952 126.264046,24.3480212 126.713089,23.7631579 C127.193049,23.2288871 127.815391,22.8369646 128.509948,22.6315789 C129.364579,22.3433767 130.249291,22.1498095 131.147644,22.0544737 C132.172775,21.9186842 133.255497,21.8055263 134.418848,21.715 L134.787435,21.715 L133.624084,26.2752632 Z" fill="#FF9733" fill-rule="nonzero"></path>
                    <polygon fill="#FF9733" fill-rule="nonzero" points="162.604188 11.1913158 155.220942 23.6613158 153.539267 11.1913158 146.363351 11.1913158 149.726702 30.8581579 144.359162 38.8584211 152.134031 38.8584211 170.091099 11.1913158"></polygon>
                    <path d="M42.2837696,10.6481579 C40.9962188,10.6340978 39.7202908,10.8886532 38.5403141,11.395 C37.4613526,11.8810654 36.4183188,12.4406766 35.4188482,13.0697368 L37.6534031,3.54184211 L30.5811518,3.54184211 L24.0041885,31.5710526 L31.0764398,31.5710526 L34.3937173,17.415 C35.0712219,17.0596888 35.7759912,16.7570104 36.5015707,16.5097368 C37.0448558,16.315012 37.6166562,16.2080127 38.1947644,16.1928947 C38.899182,16.1197699 39.6083409,16.2790132 40.2104712,16.6455263 C40.5896937,17.0580288 40.7737752,17.6087831 40.7172775,18.1618421 C40.7107911,18.6137762 40.6645457,19.0643134 40.5790576,19.5084211 C40.486911,20.0176316 40.3486911,20.64 40.1874346,21.3981579 L37.791623,31.5823684 L44.8984293,31.5823684 L47.9853403,18.4560526 C48.0890052,18.0034211 48.1696335,17.5394737 48.2272251,17.0868421 C48.2848168,16.6342105 48.2963351,16.2494737 48.2963351,15.9552632 C48.3826957,14.4833401 47.8005848,13.0495082 46.7068063,12.04 C45.4611308,11.0496722 43.8833098,10.5531632 42.2837696,10.6481579 Z" fill="#FFFFFF" fill-rule="nonzero"></path>
                    <path d="M70.5497382,11.8702632 C68.3189225,10.893546 65.8803777,10.462559 63.4429319,10.6142105 C61.8464184,10.6174912 60.2524089,10.7385332 58.6743455,10.9763158 C57.0848168,11.2139474 55.8984293,11.4289474 55.1382199,11.61 L54.9769634,11.61 L53.9287958,16.7926316 L54.2513089,16.7926316 L54.9424084,16.7926316 C55.5759162,16.5663158 56.5549738,16.2721053 57.8219895,15.9213158 C58.9442565,15.5937499 60.1068765,15.4186161 61.2774869,15.4007895 C62.4496173,15.3415695 63.6224721,15.502882 64.7329843,15.8760526 C65.3773783,16.1044656 65.7937018,16.7202678 65.7581152,17.3923684 C65.7767585,17.5540443 65.7767585,17.7172715 65.7581152,17.8789474 L65.7581152,18.0260526 C63.5811518,18.1618421 61.5424084,18.3655263 59.6879581,18.6257895 C57.9508235,18.842472 56.2528513,19.2956815 54.6429319,19.9723684 C53.2572562,20.5402064 52.0604916,21.476864 51.1874346,22.6768421 C50.3895178,23.9126973 49.9882071,25.3556675 50.0356021,26.8184211 C49.99087,28.2720256 50.6072402,29.6697265 51.7172775,30.6318421 C52.9140191,31.6276888 54.4463269,32.1483107 56.0136126,32.0915789 C56.8567158,32.1121652 57.6993909,32.036215 58.5246073,31.8652632 C59.1848794,31.7019502 59.8317266,31.4901258 60.4596859,31.2315789 C61.032625,30.9782289 61.583503,30.679249 62.1068063,30.3376316 L63.0282723,29.7492105 L62.6020942,31.5371053 L69.5937173,31.5371053 L72.8073298,17.8336842 C72.8944148,17.4953499 72.9560125,17.151173 72.991623,16.8039474 C72.991623,16.4192105 73.0492147,16.1023684 73.0492147,15.8647368 C73.0903167,14.1656369 72.1114967,12.601361 70.5497382,11.8702632 L70.5497382,11.8702632 Z M64.260733,26.2752632 L64.1801047,26.3431579 C63.5228923,26.7967939 62.8158304,27.1763727 62.0722513,27.4747368 C61.3886518,27.7527699 60.6580619,27.9024597 59.9183246,27.9160526 C59.1256679,27.9506371 58.3360166,27.7993627 57.6146597,27.4747368 C57.0034641,27.139932 56.6477232,26.4851994 56.704712,25.8 C56.6740793,25.0700475 56.8975259,24.3516263 57.3382199,23.7631579 C57.8248604,23.231204 58.4501521,22.8399322 59.1465969,22.6315789 C60.0012285,22.3433767 60.88594,22.1498095 61.7842932,22.0544737 C62.8094241,21.9186842 63.8921466,21.8055263 65.0554974,21.715 L65.4240838,21.715 L64.260733,26.2752632 Z" fill="#FFFFFF" fill-rule="nonzero"></path>
                    <path d="M93.3099476,17.7884211 L94.8534031,11.2252632 L94.5539267,11.2252632 L93.7937173,11.1686842 L93.0219895,11.1686842 C91.7109113,11.176544 90.4174714,11.4662164 89.2324607,12.0173684 C88.1437827,12.5237937 87.0997178,13.1180221 86.1109948,13.7939474 L86.7099476,11.2365789 L79.6376963,11.2365789 L74.8230366,31.605 L81.895288,31.605 L85.0513089,18.2523684 C85.8047693,18.0194233 86.5747664,17.8416558 87.3549738,17.7205263 C88.1549453,17.596006 88.9638819,17.5354565 89.773822,17.5394737 C90.2806283,17.5394737 90.7989529,17.5394737 91.3172775,17.6073684 C91.7382695,17.637535 92.1550618,17.7095703 92.5612565,17.8223684 L93.3099476,17.7884211 Z" fill="#FFFFFF" fill-rule="nonzero"></path>
                    <path d="M20.0879581,11.1007895 C18.5716702,10.7975167 17.0280196,10.645866 15.4806283,10.6481579 C12.5404691,10.5040258 9.61948919,11.1870813 7.06073298,12.6171053 C5.05859588,13.7551591 3.83842075,15.8669834 3.87015707,18.1392105 C3.84963288,19.4859768 4.44070238,20.77176 5.48272251,21.6471053 C7.20197019,22.8225003 9.17178627,23.5965721 11.2418848,23.9102632 C12.3190372,24.1147194 13.3752964,24.4139063 14.3979058,24.8042105 C14.7674163,24.9289476 15.0166814,25.2690615 15.0198953,25.6528947 C15.0198953,26.1507895 14.7204188,26.5355263 14.086911,26.7844737 C13.0768733,27.1441453 12.0038536,27.3018834 10.9308901,27.2484211 C10.0357612,27.2568416 9.14272616,27.1618922 8.27015707,26.9655263 C7.52441138,26.8017993 6.79565937,26.5707294 6.09319372,26.2752632 C5.5080387,26.0640096 4.94802292,25.7908224 4.42303665,25.4605263 C4.03141361,25.1889474 3.6973822,24.9513158 3.44397906,24.7363158 L3.36335079,24.6684211 L2.46492147,24.6684211 L1.11727749,30.3263158 L1.31308901,30.4281579 C2.52209227,30.9622675 3.7955658,31.3425354 5.1026178,31.5597368 C6.77573676,31.8834197 8.47694774,32.0463807 10.182199,32.0463158 C13.1500792,32.1888036 16.0991351,31.5105685 18.6942408,30.0886842 C20.6997046,28.9787692 21.9311671,26.884369 21.9078534,24.6231579 C21.9723861,23.1792562 21.2981046,21.7992037 20.1109948,20.9455263 C18.4050228,19.8790538 16.4968548,19.1630817 14.5015707,18.8407895 C13.4904367,18.6528689 12.4993913,18.3725272 11.5413613,18.0034211 C11.0115183,17.7771053 10.7465969,17.4602632 10.7465969,17.0528947 C10.7550392,16.475087 11.140859,15.9681839 11.7026178,15.7968421 C12.6824006,15.4437875 13.7239703,15.2860677 14.7664921,15.3328947 C16.0052081,15.3332024 17.2352492,15.5358792 18.4062827,15.9326316 C19.4896645,16.2834194 20.5085983,16.8030313 21.4240838,17.4715789 L21.4931937,17.4715789 L22.3570681,17.4715789 L23.6471204,12.04 L23.4513089,11.9494737 C22.3674885,11.539393 21.2387837,11.2545836 20.0879581,11.1007895 L20.0879581,11.1007895 Z" fill="#FFFFFF" fill-rule="nonzero"></path>
                    <path d="M196.917277,-1.0875073e-15 C188.465752,-0.00925035227 180.772539,4.78790976 177.183653,12.305048 C173.594767,19.8221863 174.75886,28.7006597 180.169634,35.0789474 L175.159162,42.8076316 L196.917277,42.8076316 C204.812122,42.9860725 212.186247,38.950319 216.187036,32.2615679 C220.187824,25.5728168 220.187824,17.280078 216.187036,10.5913269 C212.186247,3.90257578 204.812122,-0.133177746 196.917277,0.0452631579 L196.917277,-1.0875073e-15 Z M203.229319,30.1678947 C201.698813,31.0638386 199.997371,31.6415543 198.230366,31.8652632 L197.239791,36.0973684 L190.720419,36.0973684 L191.687958,31.9331579 C190.996859,31.8539474 190.317277,31.7747368 189.637696,31.6389474 C188.331073,31.4199594 187.057826,31.0397592 185.848168,30.5073684 L185.663874,30.4055263 L187,24.7476316 L187.909948,24.7476316 L187.979058,24.8155263 C188.243979,25.0305263 188.566492,25.2681579 188.958115,25.5397368 C189.484438,25.8677082 190.044195,26.1407689 190.628272,26.3544737 C191.331388,26.6482312 192.059979,26.8792501 192.805236,27.0447368 C193.677945,27.2402832 194.570882,27.3352222 195.465969,27.3276316 C196.539764,27.3993929 197.616609,27.2410925 198.62199,26.8636842 C199.225467,26.5851499 199.654583,26.0371074 199.773822,25.3926316 L201.179058,19.4292105 C202.432424,19.7539492 203.620408,20.2858383 204.692147,21.0021053 C205.876007,21.8584312 206.549402,23.2366695 206.489005,24.6797368 C206.514065,26.959252 205.261698,29.0677953 203.229319,30.1678947 L203.229319,30.1678947 Z M206.892147,17.6073684 L206.039791,17.6073684 L205.959162,17.6073684 C205.046462,16.9410405 204.031691,16.4215688 202.95288,16.0684211 C201.781583,15.6726849 200.551716,15.4700368 199.313089,15.4686842 C198.266823,15.4221614 197.221548,15.5798494 196.237696,15.9326316 C195.756321,16.1511493 195.394986,16.563918 195.24712,17.0642105 C195.131937,17.3810526 195.097382,17.5394737 194.993717,17.9128947 L193.692147,23.4463158 C192.358212,23.1087037 191.108098,22.5081124 190.017801,21.6810526 C188.975781,20.8057074 188.384711,19.5199242 188.405236,18.1731579 C188.373577,15.9038901 189.588381,13.7937436 191.584293,12.6510526 C193.126815,11.7303879 194.849982,11.1403907 196.640838,10.9197368 L197.631414,6.71026316 L204.150785,6.71026316 L203.160209,10.9197368 C203.643979,10.9876316 204.11623,11.0442105 204.6,11.1347368 C205.764153,11.331441 206.900743,11.6618649 207.986387,12.1192105 L208.182199,12.2097368 L206.892147,17.6073684 Z" fill="#FF9733" fill-rule="nonzero"></path>
                </g>
            </g>
        </g>
    </g>
</svg>