<svg id="Слой_1" data-name="Слой 1" xmlns="http://www.w3.org/2000/svg" viewBox="0 0 225.78 37.79"><defs><style>.cls-1{fill:#fff;}.cls-2{fill:#f93;}</style></defs><title>logo_sharpay_new_white</title><path class="cls-1" d="M91.91,115.4A22.06,22.06,0,0,1,87.5,115a13.52,13.52,0,0,1-3.29-1l-.18-.09,1.17-5H86l.07.06a7.57,7.57,0,0,0,.84.64,7.41,7.41,0,0,0,1.45.73,10.8,10.8,0,0,0,1.89.6,9.81,9.81,0,0,0,2.3.26,6.82,6.82,0,0,0,2.74-.42,1.13,1.13,0,0,0,.8-1c0-.2,0-.49-.53-.73a16,16,0,0,0-2.73-.79,11.79,11.79,0,0,1-5-2.06,4,4,0,0,1-1.4-3.1,5.57,5.57,0,0,1,2.76-4.89,13.5,13.5,0,0,1,7.33-1.75,20.66,20.66,0,0,1,4,.4,13,13,0,0,1,3,.87l.18.09-1.12,4.82h-.77l-.06,0a9,9,0,0,0-2.62-1.36,9.64,9.64,0,0,0-3.15-.53,6.82,6.82,0,0,0-2.66.41,1.18,1.18,0,0,0-.82,1.1c0,.35.23.62.69.83a15.74,15.74,0,0,0,2.56.74,13.12,13.12,0,0,1,4.88,1.85,3.86,3.86,0,0,1,1.56,3.26,5.5,5.5,0,0,1-2.8,4.85A13.81,13.81,0,0,1,91.91,115.4Z" transform="translate(-84.03 -86.95)"/><path class="cls-1" d="M115.79,114.91l2.08-9c.15-.66.26-1.22.34-1.68a6.75,6.75,0,0,0,.12-1.19,1.67,1.67,0,0,0-.44-1.32,2.69,2.69,0,0,0-1.73-.4,4.65,4.65,0,0,0-1.47.28,11.67,11.67,0,0,0-1.82.8L110,114.91h-6.17l5.72-24.8h6.16l-1.93,8.41a21,21,0,0,1,2.68-1.47,7.91,7.91,0,0,1,3.26-.66,5.58,5.58,0,0,1,3.85,1.23,4.43,4.43,0,0,1,1.38,3.47q0,.39-.06,1c0,.41-.12.82-.21,1.22L122,114.91Z" transform="translate(-84.03 -86.95)"/><path class="cls-1" d="M131.56,115.4a5.46,5.46,0,0,1-3.74-1.29,4.35,4.35,0,0,1-1.47-3.39,6.38,6.38,0,0,1,1-3.66,7,7,0,0,1,3-2.4,16.48,16.48,0,0,1,4.38-1.19c1.61-.23,3.38-.41,5.26-.52l0-.13a1.73,1.73,0,0,0,.05-.42,1.34,1.34,0,0,0-.89-1.33,8,8,0,0,0-3-.42,11.08,11.08,0,0,0-3,.46c-1.1.31-1.95.57-2.5.77l-.6,0h-.3l.91-4.61.15,0c.67-.17,1.7-.36,3.07-.57a27.82,27.82,0,0,1,4.15-.32,13.32,13.32,0,0,1,6.18,1.11,3.83,3.83,0,0,1,2.05,3.56c0,.22,0,.5-.05.84a6.28,6.28,0,0,1-.16.91l-2.79,12.12h-6.1l.36-1.56-.77.5a10,10,0,0,1-1.43.79,11.8,11.8,0,0,1-1.68.56A9.49,9.49,0,0,1,131.56,115.4Zm7.62-8.74c-.88.08-1.7.17-2.48.27a10.3,10.3,0,0,0-2.2.49,3,3,0,0,0-1.35.89,2.37,2.37,0,0,0-.44,1.5,1.09,1.09,0,0,0,.54,1.06,3.91,3.91,0,0,0,1.82.33,4.59,4.59,0,0,0,1.69-.36,8,8,0,0,0,1.65-.89Z" transform="translate(-84.03 -86.95)"/><path class="cls-1" d="M148,114.91l4.19-18h6.17l-.52,2.25a17.6,17.6,0,0,1,2.68-1.55,7.82,7.82,0,0,1,3.29-.76l.68,0a6,6,0,0,1,.66,0l.28,0-1.36,5.82h-.69a5.68,5.68,0,0,0-1.09-.19c-.45,0-.89-.06-1.33-.06a13,13,0,0,0-2.1.16,13.76,13.76,0,0,0-1.95.47l-2.74,11.8Z" transform="translate(-84.03 -86.95)"/><path class="cls-2" d="M162.4,121.35l5.65-24.48h6.17l-.35,1.53A17.58,17.58,0,0,1,176.33,97a7.47,7.47,0,0,1,3.1-.63,5.39,5.39,0,0,1,4.26,1.7,6.79,6.79,0,0,1,1.48,4.64,14.62,14.62,0,0,1-.8,4.78,12.79,12.79,0,0,1-2.19,4,11.21,11.21,0,0,1-3.28,2.76,8.57,8.57,0,0,1-4.12,1,10,10,0,0,1-2.65-.33,8.75,8.75,0,0,1-1.91-.76l-1.65,7.18Zm8.67-10.85a4.57,4.57,0,0,0,.92.24,7.23,7.23,0,0,0,1.33.12,4.89,4.89,0,0,0,2.39-.58,4.76,4.76,0,0,0,1.68-1.53,7.11,7.11,0,0,0,1-2.23,10.45,10.45,0,0,0,.35-2.81,3.12,3.12,0,0,0-.57-2,2.56,2.56,0,0,0-2-.67,4.6,4.6,0,0,0-1.54.28A13.5,13.5,0,0,0,173,102Z" transform="translate(-84.03 -86.95)"/><path class="cls-2" d="M191.21,115.4a5.46,5.46,0,0,1-3.73-1.29,4.32,4.32,0,0,1-1.47-3.39,6.31,6.31,0,0,1,1-3.66,6.9,6.9,0,0,1,3-2.4,16.38,16.38,0,0,1,4.38-1.19c1.61-.23,3.38-.41,5.26-.52l0-.13a1.76,1.76,0,0,0,0-.42,1.34,1.34,0,0,0-.88-1.33,8,8,0,0,0-3-.42,11.08,11.08,0,0,0-3,.46c-1.11.31-1.95.57-2.51.77l-.6,0h-.3l.92-4.61.15,0c.66-.17,1.69-.36,3.07-.57a27.72,27.72,0,0,1,4.15-.32A13.27,13.27,0,0,1,204,97.48,3.82,3.82,0,0,1,206,101a7.46,7.46,0,0,1-.06.84,8.22,8.22,0,0,1-.15.91L203,114.91h-6.1l.37-1.56-.77.5a10,10,0,0,1-1.43.79,11.8,11.8,0,0,1-1.68.56A9.52,9.52,0,0,1,191.21,115.4Zm7.62-8.74c-.87.08-1.7.17-2.47.27a10.3,10.3,0,0,0-2.2.49,3,3,0,0,0-1.35.89,2.31,2.31,0,0,0-.45,1.5,1.1,1.1,0,0,0,.54,1.06,4,4,0,0,0,1.82.33,4.59,4.59,0,0,0,1.69-.36,8,8,0,0,0,1.66-.89Z" transform="translate(-84.03 -86.95)"/><polygon class="cls-2" points="123.76 34.4 128.43 27.32 125.51 9.92 131.77 9.92 133.22 20.91 139.61 9.92 146.15 9.92 130.54 34.4 123.76 34.4"/><path class="cls-1" d="M278.08,114.91l4.19-18h6.17l-4.19,18Zm4.51-20,1.09-4.76h6.48l-1.1,4.76Z" transform="translate(-84.03 -86.95)"/><path class="cls-1" d="M298,115.46a9,9,0,0,1-6.18-1.94,6.87,6.87,0,0,1-2.17-5.37,13.26,13.26,0,0,1,.79-4.54,11,11,0,0,1,2.37-3.8,10.9,10.9,0,0,1,3.73-2.55,12.66,12.66,0,0,1,4.95-.93,9.1,9.1,0,0,1,6.19,1.91,6.78,6.78,0,0,1,2.16,5.3,13.13,13.13,0,0,1-.84,4.72,11,11,0,0,1-6.09,6.31A12.62,12.62,0,0,1,298,115.46Zm2.8-14.81a3.5,3.5,0,0,0-1.95.54,5,5,0,0,0-1.51,1.56,7.83,7.83,0,0,0-1,2.37A11.86,11.86,0,0,0,296,108a3.28,3.28,0,0,0,.72,2.4,2.77,2.77,0,0,0,2,.7,3.57,3.57,0,0,0,1.82-.52,4.79,4.79,0,0,0,1.52-1.46,8.32,8.32,0,0,0,1.05-2.33,11.42,11.42,0,0,0,.36-3.08,3.65,3.65,0,0,0-.65-2.33A2.48,2.48,0,0,0,300.77,100.65Z" transform="translate(-84.03 -86.95)"/><path class="cls-2" d="M253.5,87a18.85,18.85,0,0,0-16.28,28.4l-2.64,9.4,9.69-2.5A18.86,18.86,0,1,0,253.5,87ZM259,113.61a11.47,11.47,0,0,1-4.34,1.51l-.87,3.73h-5.66l.85-3.68a17.34,17.34,0,0,1-1.78-.26,13.67,13.67,0,0,1-3.29-1l-.16-.08,1.16-5h.79l.06.06c.23.19.51.41.85.64a8,8,0,0,0,1.45.73,11.72,11.72,0,0,0,1.89.6,10,10,0,0,0,2.31.25,6.29,6.29,0,0,0,2.74-.41,1.8,1.8,0,0,0,1-1.29l1.22-5.28a10,10,0,0,1,3.05,1.39,3.85,3.85,0,0,1,1.55,3.25A5.48,5.48,0,0,1,259,113.61Zm3.18-11.1h-.75l-.06-.05a9.24,9.24,0,0,0-2.62-1.36,9.69,9.69,0,0,0-3.15-.53,6.88,6.88,0,0,0-2.67.41,1.61,1.61,0,0,0-.86,1c-.1.28-.13.42-.22.75l-1.13,4.89a8.73,8.73,0,0,1-3.19-1.56,4,4,0,0,1-1.4-3.1,5.55,5.55,0,0,1,2.76-4.87,11,11,0,0,1,4.39-1.54l.86-3.72h5.66l-.86,3.72c.41.06.83.11,1.25.19a13.09,13.09,0,0,1,2.94.87l.17.08Z" transform="translate(-84.03 -86.95)"/></svg>