<?xml version="1.0" encoding="utf-8"?>
<!-- Generator: Adobe Illustrator 22.0.0, SVG Export Plug-In . SVG Version: 6.00 Build 0)  -->
<svg version="1.1" id="Слой_1" xmlns="http://www.w3.org/2000/svg" xmlns:xlink="http://www.w3.org/1999/xlink" x="0px" y="0px"
	 viewBox="0 0 32 32" style="enable-background:new 0 0 32 32;" xml:space="preserve">
<style type="text/css">
	.st0{fill:#FFFFFF;}
</style>
<title>medium</title>
<desc>Created with Sketch.</desc>
<g id="лендинг">
	<g id="Sharpay-home-Copy" transform="translate(-492.000000, -765.000000)">
		<g id="medium" transform="translate(492.000000, 765.000000)">
			<path id="Combined-Shape" class="st0" d="M0,16C0,7.2,7.2,0,16,0s16,7.2,16,16s-7.2,16-16,16S0,24.8,0,16z M13.6,11.6
				C13.6,11.6,13.6,11.6,13.6,11.6L8.8,9.2C8.6,9.1,8.5,9.1,8.4,9.1c-0.1,0-0.2,0-0.3,0.1C8,9.3,8,9.4,8,9.5V20c0,0.1,0,0.3,0.1,0.4
				c0.1,0.1,0.2,0.2,0.3,0.3l4.4,2.2c0.1,0,0.2,0.1,0.3,0.1c0.2,0,0.3-0.1,0.3-0.2s0.1-0.2,0.1-0.4V11.6z M14.2,12.5v5.5l5,2.5
				L14.2,12.5z M24.8,12.7l-5.1,8.1l4.1,2c0.1,0.1,0.3,0.1,0.4,0.1s0.3,0,0.4-0.1c0.1-0.1,0.1-0.2,0.1-0.4V12.7z M24.8,11.6
				C24.8,11.6,24.8,11.6,24.8,11.6l-5.1-2.5C19.6,9,19.5,9,19.4,9c-0.2,0-0.4,0.1-0.5,0.3l-3,4.9l3.7,5.9c0.3-0.4,1.2-1.9,2.8-4.5
				S24.8,11.6,24.8,11.6z"/>
		</g>
	</g>
</g>
</svg>
