<?xml version="1.0" encoding="UTF-8"?>
<svg width="32px" height="32px" viewBox="0 0 32 32" version="1.1" xmlns="http://www.w3.org/2000/svg" xmlns:xlink="http://www.w3.org/1999/xlink">
    <!-- Generator: Sketch 47.1 (45422) - http://www.bohemiancoding.com/sketch -->
    <title>medium</title>
    <desc>Created with Sketch.</desc>
    <defs></defs>
    <g id="лендинг" stroke="none" stroke-width="1" fill="none" fill-rule="evenodd">
        <g id="Sharpay-home-Copy" transform="translate(-492.000000, -765.000000)" fill="#FFFFFF">
            <g id="medium" transform="translate(492.000000, 765.000000)">
                <path d="M0,16 C0,7.16346667 7.16346667,0 16,0 C24.8365333,0 32,7.16346667 32,16 C32,24.8365333 24.8365333,32 16,32 C7.16346667,32 0,24.8365333 0,16 Z M13.596875,11.6134565 C13.596875,11.6011434 13.5875,11.585752 13.56875,11.5672823 L8.778125,9.20316623 C8.590625,9.11081794 8.453125,9.0646438 8.365625,9.0646438 C8.246875,9.0646438 8.15625,9.10773967 8.09375,9.1939314 C8.03125,9.28012313 8,9.38478452 8,9.50791557 L8,20.0356201 C8,20.1772208 8.0453125,20.3203606 8.1359375,20.4650396 C8.2265625,20.6097186 8.3375,20.7128408 8.46875,20.7744063 L12.828125,22.9261214 C12.928125,22.9753738 13.03125,23 13.1375,23 C13.2875,23 13.4015625,22.9461302 13.4796875,22.8383905 C13.5578125,22.7306508 13.596875,22.5998241 13.596875,22.4459103 L13.596875,11.6134565 Z M14.196875,12.5461741 L14.196875,18.0870712 L19.203125,20.5435356 L14.196875,12.5461741 Z M24.8,12.7124011 L19.7375,20.8113456 L23.871875,22.8430079 C24.015625,22.9230431 24.1625,22.9630607 24.3125,22.9630607 C24.4625,22.9630607 24.58125,22.9153474 24.66875,22.8199208 C24.75625,22.7244943 24.8,22.5998241 24.8,22.4459103 L24.8,12.7124011 Z M24.771875,11.6042216 C24.771875,11.5795954 24.759375,11.5611258 24.734375,11.5488127 L19.6625,9.05540897 C19.5875,9.01846966 19.50625,9 19.41875,9 C19.2,9 19.0375,9.08619173 18.93125,9.2585752 L15.89375,14.1253298 L19.55,19.9802111 C19.825,19.5430959 20.7640625,18.0424362 22.3671875,15.4782322 C23.9703125,12.9140281 24.771875,11.6226913 24.771875,11.6042216 Z" id="Combined-Shape"></path>
            </g>
        </g>
    </g>
</svg>