
<svg width="24px" height="24px" viewBox="0 0 36 36" version="1.1" xmlns="http://www.w3.org/2000/svg" xmlns:xlink="http://www.w3.org/1999/xlink">
    <!-- Generator: Sketch 46.2 (44496) - http://www.bohemiancoding.com/sketch -->
    <desc>Created with Sketch.</desc>
    <defs></defs>
    <g id="Page-1" stroke="none" stroke-width="1" fill="none" fill-rule="evenodd">
        <g id="plus-icon" fill-rule="nonzero" fill="#EFEFEF">
            <path d="M35.2173913,21.9130435 L21.9130435,21.9130435 L21.9130435,35.2173913 C21.9130435,35.6493913 21.5624348,36 21.1304348,36 L14.8695652,36 C14.4375652,36 14.0869565,35.6493913 14.0869565,35.2173913 L14.0869565,21.9130435 L0.782608696,21.9130435 C0.350608696,21.9130435 0,21.5624348 0,21.1304348 L0,14.8695652 C0,14.4375652 0.350608696,14.0869565 0.782608696,14.0869565 L14.0869565,14.0869565 L14.0869565,0.782608696 C14.0869565,0.350608696 14.4375652,0 14.8695652,0 L21.1304348,0 C21.5624348,0 21.9130435,0.350608696 21.9130435,0.782608696 L21.9130435,14.0869565 L35.2173913,14.0869565 C35.6493913,14.0869565 36,14.4375652 36,14.8695652 L36,21.1304348 C36,21.5624348 35.6493913,21.9130435 35.2173913,21.9130435 Z" id="Shape"></path>
        </g>
    </g>
</svg>
