<?xml version="1.0" encoding="UTF-8"?>
<svg width="36px" height="36px" viewBox="0 0 36 36" version="1.1" xmlns="http://www.w3.org/2000/svg" xmlns:xlink="http://www.w3.org/1999/xlink">
    <!-- Generator: Sketch 47.1 (45422) - http://www.bohemiancoding.com/sketch -->
    <title>qq</title>
    <desc>Created with Sketch.</desc>
    <defs></defs>
    <g id="лендинг" stroke="none" stroke-width="1" fill="none" fill-rule="evenodd">
        <g id="Artboard" transform="translate(-423.000000, -673.000000)">
            <g id="qq" transform="translate(423.000000, 673.000000)">
                <circle id="Oval-6-Copy" fill="#EFEFEF" cx="18" cy="18" r="18"></circle>
                <path d="M23.9429693,18.4903576 C23.027215,18.1038651 23.027215,18.1038651 23.2583937,17.1474902 C23.6341337,15.5871835 22.9256636,14.573462 21.3193601,14.5794356 C20.4537841,14.5830198 19.5858187,14.8339114 18.7280084,15.0173012 C18.2907402,15.1116842 17.8737823,15.3034371 17.3307812,15.4928005 C17.4162038,14.7496835 17.5350787,14.1654645 17.5386628,13.5830376 C17.5470259,12.4689595 16.8409453,11.7497369 15.7322434,11.8166414 C15.0560308,11.8566645 14.3403925,11.996447 13.732279,12.2819855 C10.3966157,13.8512527 7.91398366,16.3123797 6.44029427,19.7012082 C6.10756423,20.4646354 5.97793691,21.3815845 6.00302607,22.2214739 C6.06335952,24.186194 7.25031568,25.5314508 8.82376435,26.5147069 C12.1773486,28.6090542 15.8057188,28.934616 19.5690926,27.9256734 C21.8898398,27.3038206 23.88622,26.1288117 25.3312361,24.1533391 C27.0080282,21.8588758 26.4351591,19.5441023 23.9429693,18.4903576 Z M21.6234168,23.7286155 C20.935257,24.7202346 19.9914268,25.399434 18.9000484,25.8719465 C16.4395187,26.9394305 13.9276161,27.10251 11.3948058,26.1670428 C10.8285076,25.9573691 10.2843118,25.6341969 9.79746265,25.2733909 C7.98327753,23.9233552 7.78375898,21.7358195 9.31001614,20.0590274 C10.6821542,18.5524831 12.4688607,17.872089 14.4335808,17.5829663 C14.9066906,17.5118804 15.3893582,17.4999332 15.8021346,17.466481 C17.8911058,17.532788 19.8092317,17.9121122 21.2954657,19.4288116 C22.5182635,20.6755038 22.6210096,22.2913651 21.6234168,23.7286155 Z M29.738565,14.8727398 C29.7624594,15.5304342 29.487076,15.9181215 28.9751377,15.9557552 C28.4458759,15.9927916 28.0952251,15.6051043 28.0647596,14.9432284 C27.921393,12.0143678 25.7452072,9.83877935 22.7912574,9.67390774 C22.0863715,9.63507928 21.727955,9.32624368 21.7566283,8.79041094 C21.7870937,8.25398083 22.1921044,7.96665022 22.8695117,8.00308924 C26.6663377,8.20499723 29.602964,11.1428182 29.738565,14.8727398 Z M26.3694494,14.8124064 C26.5259579,15.3972227 26.3168816,15.8219463 25.8270456,15.9581446 C25.3312361,16.0949403 24.9208491,15.8500223 24.7649379,15.2675954 C24.4292211,14.0215005 23.6311469,13.2610601 22.3975966,12.9378878 C21.9161237,12.8118447 21.6640374,12.5024117 21.7225787,12.0203414 C21.7769386,11.5705287 22.0630745,11.3070925 22.6897061,11.2981321 C22.883251,11.3584655 23.2237467,11.4307462 23.5367639,11.5621656 C25.0044796,12.183421 25.9554782,13.2688258 26.3694494,14.8124064 Z M16.4556475,23.7166683 C15.5596061,24.7047033 13.9742102,25.0290702 12.7585807,24.4747193 C11.1988714,23.760873 10.9222933,21.9442984 12.1988536,20.7997549 C12.843406,20.2221069 13.6044438,19.9586707 14.4747987,19.9084924 C14.8457598,19.9957071 15.2298629,20.0458854 15.5846953,20.1731233 C17.1378337,20.7268769 17.5643494,22.4944678 16.4556475,23.7166683 Z" id="Shape" fill="#333333" fill-rule="nonzero"></path>
            </g>
        </g>
    </g>
</svg>