<?xml version="1.0" standalone="yes"?>

<svg version="1.1" viewBox="0.0 0.0 364.6404199475066 365.4146981627297" fill="none" stroke="none" stroke-linecap="square" stroke-miterlimit="10" xmlns="http://www.w3.org/2000/svg" xmlns:xlink="http://www.w3.org/1999/xlink"><clipPath id="p.0"><path d="m0 0l364.6404 0l0 365.4147l-364.6404 0l0 -365.4147z" clip-rule="nonzero"></path></clipPath><g clip-path="url(#p.0)"><path fill="#000000" fill-opacity="0.0" d="m0 0l364.6404 0l0 365.4147l-364.6404 0z" fill-rule="evenodd"></path><path fill="#1e9a1e" d="m-0.40419948 60.909355l0 0c0 -33.63931 27.270046 -60.909355 60.90935 -60.909355l243.6301 0l0 0c16.154175 0 31.646698 6.4172173 43.069427 17.839937c11.4227295 11.42272 17.839935 26.91525 17.839935 43.06942l0 243.6301c0 33.639313 -27.27005 60.909363 -60.909363 60.909363l-243.6301 0c-33.639305 0 -60.90935 -27.27005 -60.90935 -60.909363z" fill-rule="evenodd"></path><path fill="#000000" fill-opacity="0.0" d="m73.56431 137.59055l217.51181 0l0 90.267715l-217.51181 0z" fill-rule="evenodd"></path><path fill="#ffffff" d="m138.59755 192.67055l-6.015625 0l-11.671867 -13.875l-6.546875 0l0 13.875l-4.640625 0l0 -34.90625l9.78125 0q3.15625 0 5.265625 0.421875q2.109375 0.40625 3.7968674 1.453125q1.90625 1.203125 2.96875 3.015625q1.0625 1.8125 1.0625 4.609375q0 3.765625 -1.90625 6.3125q-1.890625 2.546875 -5.2187424 3.828125l13.124992 15.265625zm-10.843742 -25.078125q0 -1.5 -0.53125 -2.65625q-0.53125 -1.171875 -1.75 -1.96875q-1.0 -0.671875 -2.390625 -0.9375q-1.375 -0.28125 -3.25 -0.28125l-5.46875 0l0 13.171875l4.6875 0q2.203125 0 3.84375 -0.375q1.640625 -0.390625 2.796875 -1.453125q1.046875 -0.984375 1.546875 -2.25q0.515625 -1.28125 0.515625 -3.25zm35.343742 25.078125l-4.390625 0l0 -2.796875q-0.578125 0.40625 -1.578125 1.125q-1.0 0.703125 -1.9375 1.125q-1.09375 0.546875 -2.53125 0.90625q-1.421875 0.375 -3.34375 0.375q-3.546875 0 -6.015625 -2.34375q-2.453125 -2.359375 -2.453125 -5.984375q0 -2.984375 1.28125 -4.8125q1.28125 -1.84375 3.640625 -2.90625q2.390625 -1.046875 5.734375 -1.421875q3.359375 -0.375 7.203125 -0.5625l0 -0.6875q0 -1.5 -0.53125 -2.484375q-0.515625 -0.984375 -1.5 -1.546875q-0.9375 -0.53125 -2.25 -0.71875q-1.3125 -0.1875 -2.75 -0.1875q-1.734375 0 -3.875 0.453125q-2.125 0.453125 -4.390625 1.328125l-0.234375 0l0 -4.484375q1.28125 -0.34375 3.71875 -0.765625q2.4375 -0.421875 4.8125 -0.421875q2.765625 0 4.8125 0.453125q2.046875 0.453125 3.546875 1.5625q1.484375 1.078125 2.25 2.796875q0.78125 1.703125 0.78125 4.234375l0 17.765625zm-4.390625 -6.453125l0 -7.28125q-2.015625 0.109375 -4.75 0.34375q-2.71875 0.234375 -4.3125 0.6875q-1.90625 0.53125 -3.078125 1.671875q-1.171875 1.140625 -1.171875 3.125q0 2.25 1.359375 3.390625q1.359375 1.140625 4.15625 1.140625q2.3125 0 4.234375 -0.90625q1.921875 -0.90625 3.5625 -2.171875zm26.46875 6.21875q-1.25 0.328125 -2.71875 0.53125q-1.453125 0.21875 -2.609375 0.21875q-4.0 0 -6.09375 -2.15625q-2.078125 -2.15625 -2.078125 -6.921875l0 -13.921875l-2.984375 0l0 -3.703125l2.984375 0l0 -7.515625l4.40625 0l0 7.515625l9.09375 0l0 3.703125l-9.09375 0l0 11.9375q0 2.0625 0.09375 3.21875q0.09375 1.15625 0.65625 2.171875q0.515625 0.9375 1.40625 1.375q0.90625 0.421875 2.765625 0.421875q1.078125 0 2.25 -0.3125q1.171875 -0.3125 1.6875 -0.53125l0.234375 0l0 3.96875zm10.0546875 -30.328125l-4.96875 0l0 -4.578125l4.96875 0l0 4.578125zm-0.28125 30.5625l-4.40625 0l0 -26.1875l4.40625 0l0 26.1875zm30.609375 0l-4.40625 0l0 -14.90625q0 -1.8125 -0.21875 -3.390625q-0.203125 -1.578125 -0.765625 -2.46875q-0.59375 -0.984375 -1.703125 -1.46875q-1.09375 -0.484375 -2.84375 -0.484375q-1.8125 0 -3.78125 0.890625q-1.96875 0.890625 -3.765625 2.28125l0 19.546875l-4.40625 0l0 -26.1875l4.40625 0l0 2.90625q2.0625 -1.703125 4.265625 -2.65625q2.203125 -0.96875 4.515625 -0.96875q4.25 0 6.46875 2.5625q2.234375 2.546875 2.234375 7.34375l0 17.0zm29.71875 -2.984375q0 6.671875 -3.03125 9.78125q-3.015625 3.125 -9.296875 3.125q-2.09375 0 -4.078125 -0.296875q-1.96875 -0.296875 -3.890625 -0.828125l0 -4.5l0.234375 0q1.078125 0.421875 3.421875 1.03125q2.34375 0.625 4.6875 0.625q2.25 0 3.71875 -0.546875q1.484375 -0.53125 2.296875 -1.484375q0.828125 -0.921875 1.171875 -2.21875q0.359375 -1.28125 0.359375 -2.875l0 -2.390625q-2.0 1.59375 -3.8125 2.375q-1.8125 0.78125 -4.625 0.78125q-4.6875 0 -7.453125 -3.375q-2.75 -3.390625 -2.75 -9.5625q0 -3.375 0.953125 -5.8125q0.953125 -2.453125 2.59375 -4.234375q1.515625 -1.671875 3.6875 -2.59375q2.1875 -0.921875 4.34375 -0.921875q2.28125 0 3.8125 0.453125q1.53125 0.453125 3.25 1.390625l0.28125 -1.125l4.125 0l0 23.203125zm-4.40625 -4.21875l0 -14.265625q-1.765625 -0.796875 -3.28125 -1.140625q-1.5 -0.34375 -3.0 -0.34375q-3.640625 0 -5.734375 2.4375q-2.078125 2.4375 -2.078125 7.078125q0 4.40625 1.546875 6.6875q1.546875 2.265625 5.140625 2.265625q1.921875 0 3.84375 -0.734375q1.9375 -0.734375 3.5625 -1.984375z" fill-rule="nonzero"></path><path fill="#ffffff" d="m30.136597 261.1822l40.97574 2.746582E-4l12.661942 -36.476425l12.661942 36.476425l40.97574 -2.746582E-4l-33.15023 22.543427l12.66246 36.476227l-33.14991 -22.543823l-33.14991 22.543823l12.662464 -36.476227z" fill-rule="evenodd"></path><path fill="#000000" fill-opacity="0.0" d="m129.89502 207.20998l217.51181 0l0 130.48817l-217.51181 0z" fill-rule="evenodd"></path><path fill="#ffffff" d="m216.2787 297.51996l-10.21875 0l0 17.453125l-18.453125 0l0 -17.453125l-36.265625 0l0 -14.1875l35.0625 -43.45311l19.65625 0l0 43.95311l10.21875 0l0 13.6875zm-28.671875 -13.6875l0 -27.046875l-21.78125 27.046875l21.78125 0zm60.513428 30.9375l-18.8125 0l0 -19.765625l18.8125 0l0 19.765625zm77.07695 -25.5q0 5.78125 -2.125 10.859375q-2.109375 5.078125 -5.921875 8.5625q-4.078125 3.71875 -9.4375 5.6875q-5.359375 1.953125 -12.546875 1.953125q-6.734375 0 -12.296875 -1.828125q-5.546875 -1.84375 -9.53125 -5.625q-4.578125 -4.3125 -7.0 -11.15625q-2.40625 -6.84375 -2.40625 -16.34375q0 -9.859375 2.265625 -17.5q2.265625 -7.65625 7.390625 -13.531235q4.9375 -5.640625 12.796875 -8.75q7.875 -3.125 18.734375 -3.125q3.671875 0 8.046875 0.515625q4.390625 0.5 5.6875 0.75l0 14.734375l-1.90625 0q-1.359375 -0.65625 -4.609375 -1.484375q-3.234375 -0.828125 -7.359375 -0.828125q-9.65625 0 -15.046875 4.7343597q-5.375 4.71875 -6.484375 13.171875q3.875 -2.328125 8.171875 -3.75q4.296875 -1.4375 9.28125 -1.4375q4.375 0 8.125 1.015625q3.75 1.0 6.96875 3.203125q4.171875 2.921875 6.6875 7.859375q2.515625 4.921875 2.515625 12.3125zm-22.890625 11.3125q1.5625 -1.703125 2.484375 -4.03125q0.9375 -2.34375 0.9375 -6.375q0 -3.671875 -1.0625 -6.0q-1.046875 -2.34375 -2.90625 -3.75q-1.8125 -1.421875 -4.28125 -1.9375q-2.453125 -0.53125 -5.078125 -0.53125q-2.203125 0 -4.625 0.5q-2.40625 0.5 -4.421875 1.265625q0 0.5 -0.0625 1.65625q-0.046875 1.15625 -0.046875 2.90625q0 6.1875 1.234375 10.1875q1.234375 4.0 3.296875 6.109375q1.40625 1.5625 3.3125 2.296875q1.921875 0.71875 4.125 0.71875q1.671875 0 3.671875 -0.75q2.015625 -0.75 3.421875 -2.265625z" fill-rule="nonzero"></path><path fill="#000000" fill-opacity="0.0" d="m21.703413 40.29659l340.56696 0l0 90.267715l-340.56696 0z" fill-rule="evenodd"></path><path fill="#ffffff" d="m55.773983 105.616585l-13.78125 0l0 -3.5625l4.5625 0l0 -27.78125l-4.5625 0l0 -3.5625l13.78125 0l0 3.5625l-4.578125 0l0 27.78125l4.578125 0l0 3.5625zm34.843754 -2.53125q-1.28125 0.5625 -2.328125 1.0625q-1.046875 0.484375 -2.734375 1.015625q-1.421875 0.453125 -3.109375 0.765625q-1.671875 0.328125 -3.6875 0.328125q-3.796875 0 -6.90625 -1.0625q-3.09375 -1.078125 -5.390625 -3.359375q-2.25 -2.21875 -3.5156288 -5.65625q-1.265625 -3.4375 -1.265625 -7.984375q0 -4.3125 1.21875 -7.703125q1.2187538 -3.40625 3.5156288 -5.75q2.21875 -2.265625 5.375 -3.453125q3.15625 -1.203125 7.0 -1.203125q2.8125 0 5.609375 0.6875q2.796875 0.671875 6.21875 2.375l0 5.515625l-0.34375 0q-2.890625 -2.421875 -5.734375 -3.515625q-2.828125 -1.109375 -6.0625 -1.109375q-2.640625 0 -4.765625 0.859375q-2.125 0.859375 -3.78125 2.65625q-1.625 1.765625 -2.53125 4.453125q-0.890625 2.671875 -0.890625 6.1875q0 3.6875 0.984375 6.34375q1.0 2.640625 2.578125 4.296875q1.640625 1.734375 3.828125 2.578125q2.1875 0.828125 4.625 0.828125q3.359375 0 6.28125 -1.140625q2.9375 -1.15625 5.484375 -3.453125l0.328125 0l0 5.4375zm32.578125 -28.359375q2.140625 2.34375 3.265625 5.75q1.140625 3.390625 1.140625 7.703125q0 4.3125 -1.15625 7.71875q-1.15625 3.40625 -3.25 5.6875q-2.15625 2.359375 -5.09375 3.5625q-2.9375 1.203125 -6.71875 1.203125q-3.671875 0 -6.6875 -1.21875q-3.015625 -1.234375 -5.125 -3.546875q-2.109375 -2.328125 -3.25 -5.703125q-1.125 -3.375 -1.125 -7.703125q0 -4.265625 1.125 -7.65625q1.125 -3.390625 3.28125 -5.796875q2.0625 -2.296875 5.109375 -3.515625q3.0625 -1.21875 6.671875 -1.21875q3.75 0 6.734375 1.234375q3.0 1.21875 5.078125 3.5zm-0.421875 13.453125q0 -6.796875 -3.046875 -10.484375q-3.046875 -3.703125 -8.3125 -3.703125q-5.328125 0 -8.359375 3.703125q-3.03125 3.6875 -3.03125 10.484375q0 6.859375 3.09375 10.515625q3.09375 3.640625 8.296875 3.640625q5.203125 0 8.28125 -3.640625q3.078125 -3.65625 3.078125 -10.515625z" fill-rule="nonzero"></path><path fill="#ffffff" d="m185.80524 88.991585q0 7.640625 -4.21875 12.453125q-4.21875 4.8125 -10.53125 4.8125q-2.703125 0 -4.75 -0.578125q-2.046875 -0.578125 -3.890625 -1.671875l-0.421875 1.609375l-9.953125 0l0 -44.82812l10.375 0l0 15.843746q2.390625 -1.90625 4.875 -3.078125q2.5 -1.1875 5.765625 -1.1875q6.125 0 9.4375 4.421875q3.3125 4.421875 3.3125 12.203125zm-10.6875 0.203125q0 -4.328125 -1.46875 -6.65625q-1.46875 -2.328125 -5.234375 -2.328125q-1.46875 0 -3.03125 0.453125q-1.546875 0.4375 -2.96875 1.265625l0 16.25q1.125 0.40625 2.125 0.5625q1.015625 0.140625 2.4375 0.140625q4.109375 0 6.125 -2.421875q2.015625 -2.421875 2.015625 -7.265625zm49.810425 2.15625l-23.75 0q0.234375 3.8125 2.890625 5.828125q2.671875 2.015625 7.859375 2.015625q3.28125 0 6.359375 -1.171875q3.09375 -1.1875 4.875 -2.546875l1.15625 0l0 8.328125q-3.515625 1.40625 -6.625 2.03125q-3.109375 0.640625 -6.890625 0.640625q-9.734375 0 -14.921875 -4.375q-5.1875 -4.375 -5.1875 -12.46875q0 -8.015625 4.90625 -12.6875q4.921875 -4.6875 13.484375 -4.6875q7.890625 0 11.859375 4.0q3.984375 3.984375 3.984375 11.46875l0 3.625zm-10.3125 -6.078125q-0.09375 -3.25 -1.625 -4.890625q-1.515625 -1.640625 -4.75 -1.640625q-3.0 0 -4.9375 1.5625q-1.921875 1.546875 -2.140625 4.96875l13.453125 0zm49.888916 20.34375l-10.421875 0l0 -16.046875q0 -1.953125 -0.203125 -3.890625q-0.203125 -1.953125 -0.6875 -2.875q-0.578125 -1.0625 -1.6875 -1.546875q-1.109375 -0.5 -3.09375 -0.5q-1.421875 0 -2.875 0.46875q-1.453125 0.453125 -3.15625 1.453125l0 22.9375l-10.375 0l0 -32.359375l10.375 0l0 3.578125q2.765625 -2.15625 5.3125 -3.3125q2.5625 -1.15625 5.671875 -1.15625q5.234375 0 8.1875 3.0625q2.953125 3.046875 2.953125 9.125l0 21.0625zm26.14621 0.859375q-4.234375 0 -7.734375 -1.0q-3.5 -1.015625 -6.09375 -3.109375q-2.5625 -2.109375 -3.984375 -5.296875q-1.40625 -3.203125 -1.40625 -7.5q0 -4.515625 1.515625 -7.796875q1.515625 -3.296875 4.21875 -5.453125q2.625 -2.046875 6.046875 -3.0q3.4375 -0.953125 7.125 -0.953125q3.3125 0 6.09375 0.71875q2.796875 0.71875 5.21875 1.875l0 8.84375l-1.46875 0q-0.59375 -0.515625 -1.453125 -1.203125q-0.84375 -0.6875 -2.078125 -1.359375q-1.1875 -0.625 -2.609375 -1.046875q-1.40625 -0.421875 -3.28125 -0.421875q-4.140625 0 -6.375 2.640625q-2.234375 2.640625 -2.234375 7.15625q0 4.671875 2.28125 7.09375q2.296875 2.40625 6.5 2.40625q1.96875 0 3.53125 -0.4375q1.578125 -0.453125 2.609375 -1.046875q0.984375 -0.578125 1.734375 -1.203125q0.75 -0.640625 1.375 -1.25l1.46875 0l0 8.84375q-2.4375 1.15625 -5.109375 1.828125q-2.65625 0.671875 -5.890625 0.671875zm50.15271 -0.859375l-10.421875 0l0 -16.046875q0 -1.953125 -0.203125 -3.890625q-0.203125 -1.953125 -0.6875 -2.875q-0.578125 -1.0625 -1.6875 -1.546875q-1.109375 -0.5 -3.09375 -0.5q-1.421875 0 -2.875 0.46875q-1.453125 0.453125 -3.15625 1.453125l0 22.9375l-10.375 0l0 -44.82812l10.375 0l0 16.046871q2.765625 -2.15625 5.3125 -3.3125q2.5625 -1.15625 5.671875 -1.15625q5.234375 0 8.1875 3.0625q2.953125 3.046875 2.953125 9.125l0 21.0625z" fill-rule="nonzero"></path><path fill="#000000" fill-opacity="0.0" d="m26.577427 50.249344l110.48819 0l0 74.20473l-110.48819 0z" fill-rule="evenodd"></path><path stroke="#ffffff" stroke-width="4.0" stroke-linejoin="round" stroke-linecap="butt" d="m26.577427 50.249344l110.48819 0l0 74.20473l-110.48819 0z" fill-rule="evenodd"></path></g></svg>

