<?xml version="1.0" standalone="yes"?>

<svg version="1.1" viewBox="0.0 0.0 364.6404199475066 365.4146981627297" fill="none" stroke="none" stroke-linecap="square" stroke-miterlimit="10" xmlns="http://www.w3.org/2000/svg" xmlns:xlink="http://www.w3.org/1999/xlink"><clipPath id="p.0"><path d="m0 0l364.6404 0l0 365.4147l-364.6404 0l0 -365.4147z" clip-rule="nonzero"></path></clipPath><g clip-path="url(#p.0)"><path fill="#000000" fill-opacity="0.0" d="m0 0l364.6404 0l0 365.4147l-364.6404 0z" fill-rule="evenodd"></path><path fill="#1e9a1e" d="m-0.40419948 60.909355l0 0c0 -33.63931 27.270046 -60.909355 60.90935 -60.909355l243.6301 0l0 0c16.154175 0 31.646698 6.4172173 43.069427 17.839937c11.4227295 11.42272 17.839935 26.91525 17.839935 43.06942l0 243.6301c0 33.639313 -27.27005 60.909363 -60.909363 60.909363l-243.6301 0c-33.639305 0 -60.90935 -27.27005 -60.90935 -60.909363z" fill-rule="evenodd"></path><path fill="#ffffff" d="m30.136597 261.1822l40.97574 2.746582E-4l12.661942 -36.476425l12.661942 36.476425l40.97574 -2.746582E-4l-33.15023 22.543427l12.66246 36.476227l-33.14991 -22.543823l-33.14991 22.543823l12.662464 -36.476227z" fill-rule="evenodd"></path><path fill="#000000" fill-opacity="0.0" d="m129.89502 207.20998l217.51181 0l0 130.48817l-217.51181 0z" fill-rule="evenodd"></path><path fill="#ffffff" d="m216.2787 297.51996l-10.21875 0l0 17.453125l-18.453125 0l0 -17.453125l-36.265625 0l0 -14.1875l35.0625 -43.45311l19.65625 0l0 43.95311l10.21875 0l0 13.6875zm-28.671875 -13.6875l0 -27.046875l-21.78125 27.046875l21.78125 0zm60.513428 30.9375l-18.8125 0l0 -19.765625l18.8125 0l0 19.765625zm75.6082 -59.999985l-33.890625 59.999985l-21.53125 0l35.203125 -60.54686l-38.46875 0l0 -14.34375l58.6875 0l0 14.890625z" fill-rule="nonzero"></path><path fill="#000000" fill-opacity="0.0" d="m54.12992 31.322834l256.37796 0l0 90.267715l-256.37796 0z" fill-rule="evenodd"></path><path fill="#ffffff" d="m138.27179 110.72284l-20.953133 0l0 -5.421875l6.9375 0l0 -42.23438l-6.9375 0l0 -5.421875l20.953133 0l0 5.421875l-6.953125 0l0 42.23438l6.953125 0l0 5.421875zm53.144943 -3.84375q-1.96875 0.84375 -3.5625 1.59375q-1.578125 0.75 -4.140625 1.578125q-2.171875 0.671875 -4.71875 1.15625q-2.546875 0.484375 -5.625 0.484375q-5.765625 0 -10.5 -1.625q-4.71875 -1.625 -8.203125 -5.078125q-3.421875 -3.390625 -5.359375 -8.609375q-1.921875 -5.21875 -1.921875 -12.140625q0 -6.5625 1.859375 -11.71875q1.859375 -5.171875 5.34375 -8.734379q3.390625 -3.46875 8.1875 -5.28125q4.796875 -1.8125 10.640625 -1.8125q4.265625 0 8.53125 1.03125q4.265625 1.03125 9.46875 3.625l0 8.390629l-0.546875 0q-4.375 -3.671875 -8.6875 -5.34375q-4.3125 -1.6875038 -9.234375 -1.6875038q-4.03125 0 -7.265625 1.3125038q-3.21875 1.296875 -5.75 4.03125q-2.453125 2.671875 -3.828125 6.765625q-1.375 4.078125 -1.375 9.421875q0 5.59375 1.515625 9.625q1.515625 4.03125 3.90625 6.5625q2.5 2.640625 5.828125 3.90625q3.328125 1.25 7.046875 1.25q5.09375 0 9.546875 -1.734375q4.453125 -1.75 8.34375 -5.25l0.5 0l0 8.28125zm49.76329 -43.14063q3.25 3.5625038 4.96875 8.734379q1.734375 5.171875 1.734375 11.734375q0 6.546875 -1.765625 11.734375q-1.765625 5.1875 -4.9375 8.65625q-3.265625 3.59375 -7.75 5.421875q-4.46875 1.8125 -10.203125 1.8125q-5.59375 0 -10.1875 -1.859375q-4.578125 -1.859375 -7.78125 -5.375q-3.203125 -3.53125 -4.9375 -8.65625q-1.734375 -5.140625 -1.734375 -11.734375q0 -6.484375 1.703125 -11.640625q1.71875 -5.15625 5.0 -8.828129q3.140625 -3.484375 7.78125 -5.34375q4.65625 -1.859375 10.15625 -1.859375q5.703125 0 10.234375 1.875q4.546875 1.875 7.71875 5.328125zm-0.640625 20.468754q0 -10.34375 -4.640625 -15.953125q-4.625 -5.609379 -12.640625 -5.609379q-8.09375 0 -12.71875 5.609379q-4.609375 5.609375 -4.609375 15.953125q0 10.4375 4.703125 15.984375q4.71875 5.546875 12.625 5.546875q7.90625 0 12.59375 -5.546875q4.6875 -5.546875 4.6875 -15.984375z" fill-rule="nonzero"></path><path fill="#ffffff" d="m121.94977 168.01784q0 7.640625 -4.21875 12.453125q-4.21875 4.8125 -10.53125 4.8125q-2.703125 0 -4.75 -0.578125q-2.046875 -0.578125 -3.890625 -1.671875l-0.421875 1.609375l-9.953125 0l0 -44.828125l10.375 0l0 15.84375q2.390625 -1.90625 4.875 -3.078125q2.5 -1.1875 5.765625 -1.1875q6.125 0 9.4375 4.421875q3.3125 4.421875 3.3125 12.203125zm-10.6875 0.203125q0 -4.328125 -1.46875 -6.65625q-1.46875 -2.328125 -5.234375 -2.328125q-1.46875 0 -3.03125 0.453125q-1.546875 0.4375 -2.96875 1.265625l0 16.25q1.125 0.40625 2.125 0.5625q1.015625 0.140625 2.4375 0.140625q4.109375 0 6.125 -2.421875q2.015625 -2.421875 2.015625 -7.265625zm49.810425 2.15625l-23.75 0q0.234375 3.8125 2.890625 5.828125q2.671875 2.015625 7.859375 2.015625q3.28125 0 6.359375 -1.171875q3.09375 -1.1875 4.875 -2.546875l1.15625 0l0 8.328125q-3.515625 1.40625 -6.625 2.03125q-3.109375 0.640625 -6.890625 0.640625q-9.734375 0 -14.921875 -4.375q-5.1875 -4.375 -5.1875 -12.46875q0 -8.015625 4.90625 -12.6875q4.921875 -4.6875 13.484375 -4.6875q7.890625 0 11.859375 4.0q3.984375 3.984375 3.984375 11.46875l0 3.625zm-10.3125 -6.078125q-0.09375 -3.25 -1.625 -4.890625q-1.515625 -1.640625 -4.75 -1.640625q-3.0 0 -4.9375 1.5625q-1.921875 1.546875 -2.140625 4.96875l13.453125 0zm49.88893 20.34375l-10.421875 0l0 -16.046875q0 -1.953125 -0.203125 -3.890625q-0.203125 -1.953125 -0.6875 -2.875q-0.578125 -1.0625 -1.6875 -1.546875q-1.109375 -0.5 -3.09375 -0.5q-1.421875 0 -2.8750153 0.46875q-1.453125 0.453125 -3.15625 1.453125l0 22.9375l-10.375 0l0 -32.359375l10.375 0l0 3.578125q2.765625 -2.15625 5.3125153 -3.3125q2.5625 -1.15625 5.671875 -1.15625q5.234375 0 8.1875 3.0625q2.953125 3.046875 2.953125 9.125l0 21.0625zm26.14621 0.859375q-4.234375 0 -7.734375 -1.0q-3.5 -1.015625 -6.09375 -3.109375q-2.5625 -2.109375 -3.984375 -5.296875q-1.40625 -3.203125 -1.40625 -7.5q0 -4.515625 1.515625 -7.796875q1.515625 -3.296875 4.21875 -5.453125q2.625 -2.046875 6.046875 -3.0q3.4375 -0.953125 7.125 -0.953125q3.3125 0 6.09375 0.71875q2.796875 0.71875 5.21875 1.875l0 8.84375l-1.46875 0q-0.59375 -0.515625 -1.453125 -1.203125q-0.84375 -0.6875 -2.078125 -1.359375q-1.1875 -0.625 -2.609375 -1.046875q-1.40625 -0.421875 -3.28125 -0.421875q-4.140625 0 -6.375 2.640625q-2.234375 2.640625 -2.234375 7.15625q0 4.671875 2.28125 7.09375q2.296875 2.40625 6.5 2.40625q1.96875 0 3.53125 -0.4375q1.578125 -0.453125 2.609375 -1.046875q0.984375 -0.578125 1.734375 -1.203125q0.75 -0.640625 1.375 -1.25l1.46875 0l0 8.84375q-2.4375 1.15625 -5.109375 1.828125q-2.65625 0.671875 -5.890625 0.671875zm50.152725 -0.859375l-10.421875 0l0 -16.046875q0 -1.953125 -0.203125 -3.890625q-0.203125 -1.953125 -0.6875 -2.875q-0.578125 -1.0625 -1.6875 -1.546875q-1.109375 -0.5 -3.09375 -0.5q-1.421875 0 -2.875 0.46875q-1.453125 0.453125 -3.1562347 1.453125l0 22.9375l-10.375 0l0 -44.828125l10.375 0l0 16.046875q2.7656097 -2.15625 5.3124847 -3.3125q2.5625 -1.15625 5.671875 -1.15625q5.234375 0 8.1875 3.0625q2.953125 3.046875 2.953125 9.125l0 21.0625z" fill-rule="nonzero"></path><path fill="#000000" fill-opacity="0.0" d="m105.03412 46.183727l154.55118 0l0 78.48819l-154.55118 0z" fill-rule="evenodd"></path><path stroke="#ffffff" stroke-width="4.0" stroke-linejoin="round" stroke-linecap="butt" d="m105.03412 46.183727l154.55118 0l0 78.48819l-154.55118 0z" fill-rule="evenodd"></path></g></svg>

