<?xml version="1.0" encoding="utf-8"?>
<!-- Generator: Adobe Illustrator 22.0.0, SVG Export Plug-In . SVG Version: 6.00 Build 0)  -->
<svg version="1.1" id="Слой_1" xmlns="http://www.w3.org/2000/svg" xmlns:xlink="http://www.w3.org/1999/xlink" x="0px" y="0px"
	 viewBox="0 0 32 32" style="enable-background:new 0 0 32 32;" xml:space="preserve">
<style type="text/css">
	.st0{fill:#FFFFFF;}
	.st1{fill:#E74A1E;}
</style>
<title>reddit</title>
<desc>Created with Sketch.</desc>
<g id="лендинг">
	<g id="Sharpay-home-Copy" transform="translate(-440.000000, -765.000000)">
		<g id="reddit" transform="translate(440.000000, 765.000000)">
			<path class="st0" d="M16,1.7C8.1,1.7,1.7,8.1,1.7,16c0,7.9,6.4,14.3,14.3,14.3S30.3,23.9,30.3,16C30.3,8.1,23.9,1.7,16,1.7z"/>
			<path id="Combined-Shape" class="st1" d="M16,32C7.2,32,0,24.8,0,16S7.2,0,16,0s16,7.2,16,16S24.8,32,16,32z M27.7,15.8
				c0-1.5-1.2-2.7-2.7-2.7c-0.7,0-1.3,0.3-1.8,0.7c-1.7-1.1-3.9-1.8-6.3-1.9l1.3-4l3.5,0.8c0,1.2,1,2.1,2.2,2.1c1.2,0,2.2-1,2.2-2.2
				s-1-2.2-2.2-2.2c-0.9,0-1.6,0.5-2,1.3L18,6.8c-0.3-0.1-0.5,0.1-0.6,0.3l-1.5,4.8c-2.6,0.1-5,0.8-6.7,1.9
				c-0.5-0.4-1.1-0.6-1.7-0.6c-1.5,0-2.7,1.2-2.7,2.7c0,0.9,0.5,1.8,1.2,2.2C6,18.3,6,18.5,6,18.7c0,3.8,4.6,6.8,10.3,6.8
				c5.7,0,10.3-3.1,10.3-6.8c0-0.2,0-0.4,0-0.7C27.2,17.6,27.7,16.8,27.7,15.8L27.7,15.8z M25.5,18.7c0,3.2-4.1,5.8-9.2,5.8
				c-5.1,0-9.2-2.6-9.2-5.8c0-0.1,0-0.2,0-0.3c0-0.3,0.1-0.7,0.2-1c0.3-0.8,0.9-1.6,1.7-2.3c0.3-0.2,0.5-0.4,0.9-0.6
				c1.7-1,3.9-1.6,6.4-1.6c2.5,0,4.8,0.6,6.5,1.7c0.3,0.2,0.6,0.4,0.8,0.6c0.8,0.6,1.4,1.4,1.7,2.2c0.1,0.3,0.2,0.7,0.2,1
				C25.4,18.5,25.5,18.6,25.5,18.7L25.5,18.7z M14.4,17.5c0-0.9-0.7-1.6-1.6-1.6c-0.9,0-1.6,0.7-1.6,1.6c0,0.9,0.7,1.6,1.6,1.6
				C13.7,19.1,14.4,18.4,14.4,17.5z M19.7,15.9c-0.9,0-1.6,0.7-1.6,1.6c0,0.9,0.7,1.6,1.6,1.6c0.9,0,1.6-0.7,1.6-1.6
				C21.3,16.6,20.6,15.9,19.7,15.9z M19.3,21.3c-0.6,0.6-1.6,0.9-3,0.9c0,0,0,0,0,0c0,0,0,0,0,0c-1.4,0-2.4-0.3-3-0.9
				c-0.2-0.2-0.5-0.2-0.7,0c-0.2,0.2-0.2,0.5,0,0.7c0.8,0.8,2,1.2,3.7,1.2c0,0,0,0,0,0s0,0,0,0c1.7,0,2.9-0.4,3.7-1.2
				c0.2-0.2,0.2-0.5,0-0.7C19.8,21.1,19.5,21.1,19.3,21.3L19.3,21.3z M24,7.4c0.7,0,1.2,0.5,1.2,1.2c0,0.6-0.5,1.2-1.2,1.2
				c-0.7,0-1.2-0.5-1.2-1.2C22.8,8,23.3,7.4,24,7.4z"/>
		</g>
	</g>
</g>
</svg>
