<?xml version="1.0" encoding="UTF-8"?>
<svg width="36px" height="36px" viewBox="0 0 36 36" version="1.1" xmlns="http://www.w3.org/2000/svg" xmlns:xlink="http://www.w3.org/1999/xlink">
    <!-- Generator: Sketch 47.1 (45422) - http://www.bohemiancoding.com/sketch -->
    <title>reddit</title>
    <desc>Created with Sketch.</desc>
    <defs></defs>
    <g id="лендинг" stroke="none" stroke-width="1" fill="none" fill-rule="evenodd">
        <g id="Artboard" transform="translate(-529.000000, -496.000000)" fill="#EFEFEF">
            <g id="reddit" transform="translate(529.000000, 496.000000)">
                <path d="M18,36 C8.0589,36 0,27.9411 0,18 C0,8.0589 8.0589,0 18,0 C27.9411,0 36,8.0589 36,18 C36,27.9411 27.9411,36 18,36 Z M31.2,17.7656368 C31.2,16.1193688 29.854884,14.7798748 28.201044,14.7798748 C27.444636,14.7798748 26.754486,15.0627178 26.226462,15.5244928 C24.34746,14.3227768 21.863328,13.5407968 19.112382,13.4039008 L20.55894,8.85184476 L24.505752,9.77714076 C24.5500225,11.1032068 25.644468,12.1694848 26.987538,12.1694848 C28.35816,12.1694848 29.473428,11.0594188 29.473428,9.69453276 C29.473428,8.32964676 28.357872,7.21958076 26.987538,7.21958076 C25.991892,7.21958076 25.133748,7.80657516 24.736782,8.64956076 L20.301822,7.61071476 C20.0080536,7.54212036 19.7095944,7.71054156 19.619586,7.99717956 L17.907114,13.3860856 C14.978226,13.4432964 12.32112,14.2308196 10.329834,15.4850776 C9.8076774,15.046072 9.13365,14.7798676 8.398938,14.7798676 C6.745098,14.7801595 5.399982,16.1193616 5.399982,17.7656296 C5.399982,18.8138116 5.9464728,19.7353156 6.76914,20.2677256 C6.727215,20.5350988 6.70464,20.8059742 6.70464,21.0800596 C6.70464,25.3256296 11.882232,28.7798596 18.2472,28.7798596 C24.61158,28.7798596 29.78976,25.3256116 29.78976,21.0800596 C29.78976,20.8258216 29.77041,20.5745026 29.7343486,20.3258116 C30.6094966,19.8050764 31.1999626,18.8540956 31.1999626,17.7656296 L31.2,17.7656368 Z M28.634682,21.0806548 C28.634682,24.6916468 23.974266,27.6301348 18.247242,27.6301348 C12.519348,27.6301348 7.859802,24.6919528 7.859802,21.0806548 C7.859802,20.95339 7.86683838,20.8278766 7.8779793,20.7026548 C7.91286792,20.3188168 8.0019951,19.9434448 8.1377385,19.5797488 C8.4898497,18.6369388 9.1653405,17.7717688 10.0879845,17.0341588 C10.3832187,16.798018 10.7030805,16.575013 11.0455185,16.3668928 C12.9145545,15.2311408 15.4529205,14.5305988 18.2472585,14.5305988 C21.0820305,14.5305988 23.6547045,15.2509888 25.5298785,16.4159308 C25.8731943,16.6287202 26.1921765,16.8569794 26.4859425,17.0983768 C27.3719385,17.8248928 28.0195785,18.6719668 28.3611345,19.5928828 C28.4957049,19.9577476 28.5848325,20.3334148 28.6182549,20.7181288 C28.6285163,20.8386802 28.6346731,20.9589394 28.6346731,21.0806584 L28.634682,21.0806548 Z M16.212852,19.69617 C16.212852,18.726504 15.423018,17.913 14.448774,17.913 C13.474824,17.913 12.65802,18.726504 12.65802,19.69617 C12.65802,20.665542 13.475118,21.452778 14.448774,21.452778 C15.423018,21.4516105 16.212852,20.665548 16.212852,19.69617 Z M22.177914,17.91246 C21.203964,17.91246 20.38452,18.72567 20.38452,19.695336 C20.38452,20.66529 21.203964,21.451944 22.177914,21.451944 C23.152158,21.451944 23.942574,20.665878 23.942574,19.695336 C23.9419876,18.725088 23.152158,17.91246 22.177914,17.91246 Z M21.6795,23.953437 C21.025998,24.603189 19.925688,24.918723 18.313482,24.918723 C18.3084979,24.918723 18.3041002,24.9201824 18.2994092,24.9201824 C18.2944252,24.9201824 18.2903206,24.918723 18.2856297,24.918723 C16.6731297,24.918723 15.5725257,24.6031878 14.9198997,23.953437 C14.6944431,23.72868 14.3285517,23.72868 14.1030957,23.953437 C13.8773457,24.1784856 13.8773457,24.542475 14.1030957,24.766353 C14.9829357,25.642611 16.3512117,26.069067 18.2856297,26.069067 C18.2906138,26.069067 18.2947183,26.0673157 18.2994092,26.0673157 C18.3041002,26.0673157 18.3084979,26.069067 18.313482,26.069067 C20.2476,26.069067 21.616176,25.6426128 22.496892,24.766935 C22.7229354,24.5418864 22.7229354,24.1781892 22.4974784,23.954019 C22.271435,23.729262 21.9055442,23.729262 21.6794984,23.9534352 L21.6795,23.953437 Z M26.987562,8.37023676 C27.721398,8.37023676 28.318314,8.96482056 28.318314,9.69542676 C28.318314,10.4260348 27.7213956,11.0203228 26.987562,11.0203228 C26.253432,11.0203228 25.656516,10.4260312 25.656516,9.69542676 C25.656516,8.96481876 26.2534344,8.37023676 26.987562,8.37023676 Z" id="Combined-Shape"></path>
            </g>
        </g>
    </g>
</svg>