<svg width="99.99999999999999" height="99.99999999999999" xmlns="http://www.w3.org/2000/svg">

 <g>
  <title>background</title>
  <rect fill="none" id="canvas_background" height="402" width="582" y="-1" x="-1"/>
 </g>
 <g>
  <title>Layer 1</title>
  <rect stroke="null" id="svg_2" height="64.921248" width="70.87353" y="17.539379" x="13.94032" stroke-opacity="null" stroke-width="null" fill="#333333"/>
  <path stroke="null" id="svg_1" fill="#ffffff" d="m62.497793,68.142252c-0.351836,1.48779 -2.810061,2.041225 -3.990564,2.526349c-2.143424,0.882254 -3.987092,1.517893 -6.912888,1.417163c-2.093657,-0.071784 -4.230137,0.213038 -6.302962,-0.129675c-1.381883,-0.229247 -2.645716,-0.530278 -3.954686,-1.072135c-1.055509,-0.436496 -2.209393,-1.370851 -3.159582,-2.14427c-0.754596,-0.613641 -1.153884,-1.978703 0.106477,-2.213739c0.983753,-0.184092 1.440908,0.372816 2.063566,0.957512c1.199021,1.125395 3.110973,1.697354 4.679191,1.956704c1.964033,0.326503 3.967417,0.402919 5.987003,0.485124c1.167772,0.048628 2.205921,-0.125044 3.343602,-0.376289c1.082128,-0.23851 2.266103,-0.541857 3.506789,-1.014244c0.703673,-0.268613 1.352949,-0.60901 1.937414,-1.09066c0.538171,-0.443442 1.128422,-1.273595 1.923526,-0.912357c0.583307,0.268613 0.918941,0.992246 0.773114,1.610518zm-2.197819,-18.305028c-1.076341,0.112308 -2.31587,1.044348 -2.97672,1.926601c-2.822792,3.770998 1.802004,10.000033 6.147876,7.767769c1.274249,-0.654165 2.408458,-1.324538 2.769553,-2.718546c0.347207,-1.348852 0.496506,-2.664128 -0.082172,-3.953932c-1.056666,-2.350361 -3.403784,-3.277769 -5.858537,-3.021893zm38.985542,6.638901c-1.276564,13.282434 -9.733365,27.256083 -21.149526,34.168228c-8.984556,5.439407 -19.621816,9.283347 -30.22667,8.961475c-2.95473,-0.089152 -5.851593,-0.68311 -8.770445,-1.148551c-15.85115,-2.52056 -26.513872,-15.165039 -30.064641,-20.007014c-0.596038,-0.812785 -1.173559,-1.684618 -1.726775,-2.601606c-2.660762,-4.407795 -4.76715,-9.833308 -5.748588,-14.556029c-1.157356,-5.577187 -1.533497,-16.643566 1.785801,-28.166124c10.680082,-33.050939 42.147439,-33.070621 46.576641,-33.024309c6.718452,0.071784 12.911465,0.771104 19.188965,3.069363c4.9639,1.817767 9.607213,4.412426 13.661432,7.814082c7.8272,6.568275 13.15451,15.616586 15.152107,25.629355c1.288137,6.454809 1.953617,13.290539 1.321701,19.861129zm-18.288542,-11.991472c-2.639929,-2.056276 -6.17218,-2.903796 -9.055154,-0.890358l-0.863388,0.754894c-1.238371,-1.321065 -3.459338,-1.68925 -4.989362,-2.592344c-1.60641,-0.949407 -3.348231,-1.501684 -5.066905,-2.131534c-1.317071,-0.482808 -2.683909,-1.018876 -4.073894,-1.211073c-1.284665,-0.177145 -4.977789,-0.32303 -4.977789,-0.32303c0.119208,-1.051294 0.574049,-3.153883 0.774271,-4.104448c0.256933,-1.216862 0.418963,-2.405936 0.725662,-3.582274c0.641175,-2.461511 1.013844,-5.009858 1.764968,-7.406532c1.844826,0.280191 3.561185,0.421444 5.378234,0.736369c1.458269,0.253561 3.940798,0.431864 5.06922,1.405585l0.431694,1.7263c0.403917,1.748298 2.202449,3.078626 4.201203,3.237246c4.077366,0.325346 7.353841,-4.190126 5.480081,-7.980807c-1.690897,-3.417865 -6.650168,-3.956248 -8.71142,-1.192548l-0.863388,1.186759c-2.145738,-0.901937 -4.130604,-0.83131 -6.365459,-1.294435c-1.652705,-0.342713 -3.286891,-1.229598 -4.962743,-1.294435c-2.532295,-0.10073 -2.23254,1.471581 -2.83205,3.442179c-0.696728,2.291313 -0.795104,4.530523 -1.267305,6.816047c-0.322902,1.558417 -0.733764,3.797628 -1.402716,5.498455l-0.664322,2.698863c-2.988294,-0.208406 -6.480037,0.427233 -9.368798,0.995719c-2.950101,0.580064 -6.318007,1.851343 -8.306345,4.184337l-1.402716,1.295593c-1.455954,-0.911199 -2.653818,-1.585046 -4.316938,-2.023858c-4.247497,-1.120763 -6.59693,1.671882 -8.33065,5.129113c-0.796261,1.586204 -0.523125,3.54754 0.343735,5.121008c0.483775,0.875307 2.628356,3.303241 3.241755,3.644796c0,0.615957 0.30207,2.826222 0.449054,3.445652c0.458313,1.93239 0.798576,3.896042 1.637659,5.713809c1.020788,2.213739 2.509148,4.162339 4.315781,5.793698c3.93964,3.562592 9.17089,5.983579 14.333856,7.108974c3.354018,0.73058 7.113111,0.768788 10.533098,0.695846c2.270733,-0.048628 4.630582,-0.142411 6.848076,-0.691215c0.651592,-0.160936 1.28698,-0.383236 1.906166,-0.643744l1.078656,-0.378605c1.51035,-0.754894 3.358648,-1.29212 4.884043,-2.136166c1.472157,-0.815101 3.092456,-1.509789 4.506745,-2.396674c1.685111,-1.054768 3.338972,-3.082099 4.62248,-4.568731c2.837837,-3.28819 3.622525,-7.856921 3.570444,-11.941686l1.18629,-0.862571c0.005787,0.115781 1.144625,-1.045505 1.483731,-1.51442c2.11449,-2.916532 1.879546,-7.26991 -0.94556,-9.469755zm-37.320106,10.900812c0.046294,-1.431057 0.009259,-2.748649 -1.034676,-3.738579c-1.010372,-0.958669 -2.08787,-1.727457 -3.496373,-1.845554c-2.567016,-0.215353 -4.514846,1.389376 -5.481239,3.661006c-0.42475,0.995719 -0.210639,2.533296 0.24073,3.538277c1.926998,4.297803 9.616472,3.269665 9.771558,-1.61515z"/>
 </g>
</svg>