<?xml version="1.0" encoding="UTF-8"?>
<svg width="54px" height="54px" viewBox="0 0 54 54" version="1.1" xmlns="http://www.w3.org/2000/svg" xmlns:xlink="http://www.w3.org/1999/xlink">
    <!-- Generator: Sketch 47.1 (45422) - http://www.bohemiancoding.com/sketch -->
    <title>row ico4</title>
    <desc>Created with Sketch.</desc>
    <defs></defs>
    <g id="лендинг" stroke="none" stroke-width="1" fill="none" fill-rule="evenodd">
        <g id="Sharpay-home-Copy" transform="translate(-826.000000, -1945.000000)" fill-rule="nonzero">
            <g id="row-ico4" transform="translate(826.000000, 1945.000000)">
                <path d="M26.7082159,1.68434954e-05 C16.3510729,-0.0116505288 6.9232231,6.03895723 2.52512818,15.5202449 C-1.87296674,25.0015326 -0.44639783,36.199858 6.18437627,44.2447254 L0.0441628862,53.9928338 L26.7082159,53.9928338 C36.3831604,54.2178994 45.4199757,49.1276458 50.3228467,40.6911942 C55.2257178,32.2547425 55.2257178,21.795198 50.3228467,13.3587464 C45.4199757,4.92229477 36.3831604,-0.167958851 26.7082159,0.05710679 L26.7082159,1.68434954e-05 Z" id="Shape" fill="#FF9733"></path>
                <g id="Group-31" transform="translate(10.000000, 7.000000)" fill="#FFFFFF">
                    <g id="Group-30" transform="translate(0.523622, 7.244094)">
                        <g id="Group" transform="translate(2.125984, 0.000000)">
                            <rect id="Rectangle-path" opacity="0.600000024" x="23.5346457" y="0.042519685" width="5.1023622" height="24.1937008"></rect>
                            <rect id="Rectangle-path" opacity="0.5" x="15.7110236" y="5.61259843" width="5.1023622" height="18.623622"></rect>
                            <rect id="Rectangle-path" opacity="0.400000006" x="7.88740157" y="10.0771654" width="5.1023622" height="14.1590551"></rect>
                            <rect id="Rectangle-path" opacity="0.300000012" x="0.0637795276" y="13.6913386" width="5.1023622" height="10.5448819"></rect>
                        </g>
                        <path d="M0.871653543,24.2362205 L32.0811024,24.2362205 C32.5488189,24.2362205 32.8889764,24.6188976 32.8889764,25.0440945 L32.8889764,27.3826772 C32.8889764,27.8503937 32.5062992,28.1905512 32.0811024,28.1905512 L0.871653543,28.1905512 C0.403937008,28.1905512 0.0637795276,27.807874 0.0637795276,27.3826772 L0.0637795276,25.0440945 C0.0637795276,24.576378 0.403937008,24.2362205 0.871653543,24.2362205 Z" id="Shape" opacity="0.598845109"></path>
                    </g>
                    <polygon id="Shape" points="19.0409449 1.8015748 18.1055118 0.100787402 28.1401575 0.100787402 22.6976378 8.17952756 21.7622047 6.52125984 0.587401575 15.7905512"></polygon>
                </g>
            </g>
        </g>
    </g>
</svg>