<?xml version="1.0" encoding="UTF-8"?>
<svg width="36px" height="36px" viewBox="0 0 36 36" version="1.1" xmlns="http://www.w3.org/2000/svg" xmlns:xlink="http://www.w3.org/1999/xlink">
    <!-- Generator: Sketch 47.1 (45422) - http://www.bohemiancoding.com/sketch -->
    <title>row ico2</title>
    <desc>Created with Sketch.</desc>
    <defs></defs>
    <g id="лендинг" stroke="none" stroke-width="1" fill="none" fill-rule="evenodd">
        <g id="Sharpay-home-Copy" transform="translate(-844.000000, -1789.000000)" fill-rule="nonzero">
            <g id="row-ico2" transform="translate(862.000000, 1807.000000) scale(-1, 1) translate(-862.000000, -1807.000000) translate(844.000000, 1789.000000)">
                <polygon id="Shape" fill="#FFFFFF" points="31.8290839 4.1357482 30.401266 0 25.0909091 5.44399508 26.5187269 9.58677686 30.689643 10.9090909 36 5.45806225"></polygon>
                <g id="Group" fill="#FF9933">
                    <path d="M36,18 C36,18.623622 35.9645669,19.2401575 35.9007874,19.8425197 C35.6527559,22.3086614 34.8944882,24.6330709 33.7464567,26.7094488 C30.6850394,32.2511811 24.7818898,36 18,36 C8.05748031,36 0,27.9425197 0,18 C0,8.06456693 8.05748031,0 18,0 C20.976378,0 23.7897638,0.722834646 26.2559055,2.01259843 L23.2440945,5.10944882 L23.5417323,5.97401575 C21.8551181,5.19448819 19.9771654,4.76220472 18,4.76220472 C10.6795276,4.76220472 4.7480315,10.6937008 4.7480315,18.0141732 C4.7480315,25.3204724 10.6795276,31.2519685 18,31.2519685 C25.3133858,31.2519685 31.2448819,25.3204724 31.2448819,18.0070866 C31.2448819,15.9874016 30.7913386,14.088189 29.9905512,12.3732283 L31.0393701,12.7062992 L33.9661417,9.7015748 C35.2629921,12.1818898 36,15.0094488 36,18 Z" id="Shape"></path>
                    <path d="M26.4968504,18.0070866 C26.4968504,22.6913386 22.684252,26.503937 18,26.503937 C13.3086614,26.503937 9.50314961,22.6913386 9.50314961,18.0070866 C9.50314961,13.315748 13.3086614,9.51023622 18,9.51023622 C19.5094488,9.51023622 20.9267717,9.90708661 22.1527559,10.5944882 L18.5385827,14.3007874 C18.3685039,14.2724409 18.1771654,14.2582677 18,14.2582677 C15.9307087,14.2582677 14.2511811,15.9377953 14.2511811,18.0070866 C14.2511811,20.0692913 15.9307087,21.7488189 18,21.7488189 C20.0622047,21.7488189 21.7417323,20.0692913 21.7417323,18.0070866 C21.7417323,17.9716535 21.7417323,17.9291339 21.7346457,17.8937008 L25.4976378,14.0244094 C26.1354331,15.207874 26.4968504,16.5685039 26.4968504,18.0070866 Z" id="Shape"></path>
                </g>
                <path d="M34.8940465,2.31783419 L18.9241035,18.3400325 C18.6567653,18.6081002 18.2135466,18.6149737 17.9321379,18.3537796 L17.6647997,18.099459 C17.3904262,17.8382648 17.383391,17.4052325 17.6507292,17.1302913 L33.6206722,1.10121939 C33.6347427,1.08747233 33.6628835,1.08747233 33.676954,1.10121939 L34.8870113,2.25597242 C34.9151522,2.27659301 34.9151522,2.2972136 34.8940465,2.31783419 Z" id="Shape" fill="#FFFFFF"></path>
            </g>
        </g>
    </g>
</svg>