<svg xmlns="http://www.w3.org/2000/svg" viewBox="0 0 186.88 39.71"><defs><style>.a{fill:#ff9a22;}.b{fill:#efefef;}.c{fill:#fe9833;}</style></defs><title>share-btn3</title><path class="a" d="M59.22,19.22a9.35,9.35,0,0,1-1.75-.17,5.6,5.6,0,0,1-1.25-.43l.43-1.86h.21l.35.26a3.36,3.36,0,0,0,.6.3,4.23,4.23,0,0,0,1.72.35,2.76,2.76,0,0,0,1.14-.18.55.55,0,0,0,.38-.5.41.41,0,0,0-.27-.38,7.2,7.2,0,0,0-1.12-.33,4.72,4.72,0,0,1-2-.8,1.5,1.5,0,0,1-.53-1.17,2.13,2.13,0,0,1,1.09-1.84,5.26,5.26,0,0,1,2.88-.69,7.63,7.63,0,0,1,1.58.16,5.16,5.16,0,0,1,1.16.34l-.41,1.78h-.21a4,4,0,0,0-1.08-.56,4.13,4.13,0,0,0-1.3-.22,2.78,2.78,0,0,0-1.11.17.56.56,0,0,0-.39.53.46.46,0,0,0,.33.42,5.76,5.76,0,0,0,1,.3,5.1,5.1,0,0,1,1.92.73,1.44,1.44,0,0,1,.63,1.25,2.11,2.11,0,0,1-1,1.86A5.42,5.42,0,0,1,59.22,19.22Z" transform="translate(-3.83 -2.08)"/><path class="a" d="M72.41,13.62a2.54,2.54,0,0,1,0,.39,4,4,0,0,1-.08.48L71.22,19H69l.81-3.49c.06-.27.11-.49.14-.68a4.17,4.17,0,0,0,0-.5.78.78,0,0,0-.21-.6,1.13,1.13,0,0,0-.76-.19,2.2,2.2,0,0,0-.62.12,4.54,4.54,0,0,0-.78.35l-1.15,5H64.16l2.25-9.76h2.27l-.81,3.49a8.77,8.77,0,0,1,1.27-.71,3.07,3.07,0,0,1,1.27-.26,2.15,2.15,0,0,1,1.48.47A1.69,1.69,0,0,1,72.41,13.62Z" transform="translate(-3.83 -2.08)"/><path class="a" d="M77.75,18.28l-.53.34a4.4,4.4,0,0,1-.56.31,4.64,4.64,0,0,1-.66.22,3.45,3.45,0,0,1-.85.08,2.08,2.08,0,0,1-1.43-.49,1.66,1.66,0,0,1-.5-1.3A2.46,2.46,0,0,1,73.61,16a2.67,2.67,0,0,1,1.17-.93,6.64,6.64,0,0,1,1.69-.47c.67-.09,1.39-.16,2.18-.21v-.12a.61.61,0,0,0,0-.19.64.64,0,0,0-.41-.62A3.2,3.2,0,0,0,77,13.3a4.64,4.64,0,0,0-1.23.19c-.45.13-.78.23-1,.31h-.21l.33-1.67c.27-.07.67-.14,1.22-.23a11.45,11.45,0,0,1,1.65-.12,5.16,5.16,0,0,1,2.45.43A1.42,1.42,0,0,1,81,13.55a1.82,1.82,0,0,1,0,.33,2.14,2.14,0,0,1-.06.35L79.82,19H77.58Zm.6-2.58-1.13.12a4.52,4.52,0,0,0-.9.2,1.3,1.3,0,0,0-.59.39,1,1,0,0,0-.2.66.53.53,0,0,0,.27.51,1.73,1.73,0,0,0,.78.15,1.79,1.79,0,0,0,.72-.15,3.35,3.35,0,0,0,.72-.39Z" transform="translate(-3.83 -2.08)"/><path class="a" d="M88.13,14.13h-.2a2,2,0,0,0-.43-.08H87a5.24,5.24,0,0,0-1.71.28L84.16,19H81.89l1.63-7h2.27l-.24,1a7.11,7.11,0,0,1,1.27-.76A3,3,0,0,1,88.1,12h.53Z" transform="translate(-3.83 -2.08)"/><path class="a" d="M92.22,19.22a4.32,4.32,0,0,1-2.78-.8,2.7,2.7,0,0,1-1-2.2,4.61,4.61,0,0,1,.32-1.76,4.14,4.14,0,0,1,2.36-2.35,5,5,0,0,1,1.9-.35,3.8,3.8,0,0,1,2.38.64,2.25,2.25,0,0,1,.8,1.88,4,4,0,0,1-.08.84,8.12,8.12,0,0,1-.22.81H90.7v.14a1.39,1.39,0,0,0,.52,1.15,2.53,2.53,0,0,0,1.58.41,3.94,3.94,0,0,0,1.4-.25,6.79,6.79,0,0,0,1.15-.56h.25l-.38,1.8a6.81,6.81,0,0,1-1.39.44A7.92,7.92,0,0,1,92.22,19.22ZM94,14.62v-.4a1,1,0,0,0-.31-.76,1.35,1.35,0,0,0-.89-.26,1.83,1.83,0,0,0-1.17.38,2.33,2.33,0,0,0-.68,1Z" transform="translate(-3.83 -2.08)"/><path class="b" d="M105.86,18.28l-.46.29a4.83,4.83,0,0,1-.59.32,4.56,4.56,0,0,1-.71.24,4,4,0,0,1-.91.1,1.91,1.91,0,0,1-1.35-.49,1.65,1.65,0,0,1-.52-1.27,2.49,2.49,0,0,1,.37-1.41,2.68,2.68,0,0,1,1.09-.94,5.74,5.74,0,0,1,1.71-.52,17.39,17.39,0,0,1,2.28-.2l.07-.3a1.22,1.22,0,0,0,0-.27.85.85,0,0,0-.12-.49.83.83,0,0,0-.34-.3,1.5,1.5,0,0,0-.51-.15h-.64a5.06,5.06,0,0,0-1.22.17,8.38,8.38,0,0,0-1.11.34h-.06l.23-1.18c.24-.06.57-.13,1-.21a7.37,7.37,0,0,1,1.32-.12,3.76,3.76,0,0,1,2,.41,1.4,1.4,0,0,1,.65,1.29,2.16,2.16,0,0,1,0,.36.86.86,0,0,1-.07.36l-1.09,4.75h-1.17Zm.68-3a16.4,16.4,0,0,0-1.72.15,4.82,4.82,0,0,0-1.24.32,1.79,1.79,0,0,0-.77.56,1.47,1.47,0,0,0-.26.88.81.81,0,0,0,.31.69,1.54,1.54,0,0,0,1,.24,2.91,2.91,0,0,0,1.16-.25,6.65,6.65,0,0,0,1.11-.61Z" transform="translate(-3.83 -2.08)"/><path class="b" d="M116.14,13.62a2.81,2.81,0,0,1,0,.41,3.54,3.54,0,0,1-.08.45l-1,4.55h-1.17l.92-4a3,3,0,0,1,.12-.58,4,4,0,0,0,0-.49,1.08,1.08,0,0,0-.26-.79,1.28,1.28,0,0,0-.94-.27,2.58,2.58,0,0,0-1,.26,8.23,8.23,0,0,0-1.12.63L110.35,19h-1.23l1.62-7h1.18l-.18.78a7.46,7.46,0,0,1,1.26-.72,3,3,0,0,1,1.22-.26,2.05,2.05,0,0,1,1.43.46A1.7,1.7,0,0,1,116.14,13.62Z" transform="translate(-3.83 -2.08)"/><path class="b" d="M125.22,9.27,123,19h-1.18l.17-.73a7.1,7.1,0,0,1-1.28.74,3,3,0,0,1-1.06.19A2,2,0,0,1,118,18.6a2.56,2.56,0,0,1-.58-1.82,5.62,5.62,0,0,1,.31-1.91,5.25,5.25,0,0,1,.85-1.58,3.9,3.9,0,0,1,1.26-1.06,3.18,3.18,0,0,1,1.54-.39,4.21,4.21,0,0,1,1,.12,3.4,3.4,0,0,1,.88.36l.7-3Zm-2.11,4a4.1,4.1,0,0,0-.82-.32,3.55,3.55,0,0,0-.86-.1,2.15,2.15,0,0,0-1.16.31,2.75,2.75,0,0,0-.87.86,3.7,3.7,0,0,0-.51,1.19,5.11,5.11,0,0,0-.18,1.35,1.8,1.8,0,0,0,.33,1.17,1.3,1.3,0,0,0,1.07.4,2.48,2.48,0,0,0,1.07-.26,7.65,7.65,0,0,0,1-.58Z" transform="translate(-3.83 -2.08)"/><path class="b" d="M137,12l-1.43,6.23a4.8,4.8,0,0,1-1.36,2.6,3.82,3.82,0,0,1-2.62.82,8,8,0,0,1-1.09-.08,6.86,6.86,0,0,1-1-.22l.27-1.17h.06a5.5,5.5,0,0,0,.95.3,4.71,4.71,0,0,0,1.12.14,2.82,2.82,0,0,0,1-.15,1.89,1.89,0,0,0,.69-.42,2.17,2.17,0,0,0,.43-.61,3.57,3.57,0,0,0,.26-.78l.14-.61a6.89,6.89,0,0,1-1.12.64,3.22,3.22,0,0,1-1.23.21,2.08,2.08,0,0,1-1.6-.62,2.5,2.5,0,0,1-.58-1.76,5.35,5.35,0,0,1,.3-1.77,5.23,5.23,0,0,1,.83-1.52,4.18,4.18,0,0,1,1.25-1,3.28,3.28,0,0,1,1.56-.39A4,4,0,0,1,135,12a3.21,3.21,0,0,1,.83.36l.15-.3Zm-1.46,1.26a4,4,0,0,0-.83-.32,3.13,3.13,0,0,0-.86-.12,2.3,2.3,0,0,0-1.12.28,2.67,2.67,0,0,0-.87.77,3.42,3.42,0,0,0-.54,1.12,4.46,4.46,0,0,0-.14,1.31,1.79,1.79,0,0,0,.34,1.14,1.33,1.33,0,0,0,1.09.4,2.79,2.79,0,0,0,1.06-.22,6.49,6.49,0,0,0,1-.55Z" transform="translate(-3.83 -2.08)"/><path class="b" d="M141.06,19.18a3.46,3.46,0,0,1-2.28-.68,2.45,2.45,0,0,1-.83-2,4.84,4.84,0,0,1,1.22-3.3,3.85,3.85,0,0,1,3-1.38,2.61,2.61,0,0,1,1.82.59,2.15,2.15,0,0,1,.63,1.66c0,.2,0,.4-.05.6a9.26,9.26,0,0,1-.17.95h-5.18c0,.12,0,.24-.05.36v.33a1.8,1.8,0,0,0,.54,1.39,2.13,2.13,0,0,0,1.53.5,4,4,0,0,0,1.42-.27,5.64,5.64,0,0,0,1.23-.61H144l-.26,1.3-.56.21a4.71,4.71,0,0,1-.64.19l-.69.14A4.7,4.7,0,0,1,141.06,19.18Zm2.35-4.43v-.59a1.41,1.41,0,0,0-.37-1,1.59,1.59,0,0,0-1.18-.38,2.47,2.47,0,0,0-1.58.55,2.69,2.69,0,0,0-.93,1.45Z" transform="translate(-3.83 -2.08)"/><path class="b" d="M150.65,12l-.21,1H148l-.79,3.18a5.46,5.46,0,0,1-.11.56,4.17,4.17,0,0,0,0,.5.9.9,0,0,0,.23.68,1.26,1.26,0,0,0,.86.22,3.1,3.1,0,0,0,.61-.09l.48-.14h.06l-.22,1a6.58,6.58,0,0,1-.75.14,4.25,4.25,0,0,1-.71.06,2.06,2.06,0,0,1-1.34-.38,1.43,1.43,0,0,1-.47-1.2,2.67,2.67,0,0,1,0-.4,1,1,0,0,1,.08-.45l.87-3.76H146l.21-1h.8l.47-2h1.18l-.47,2Z" transform="translate(-3.83 -2.08)"/><path class="b" d="M57.91,37h-1.3l2-3-1.27-6.59h1.21l1,5.22,3.35-5.22h1.32Z" transform="translate(-3.83 -2.08)"/><path class="b" d="M71.11,29.9a5.81,5.81,0,0,1-.29,1.81,4.74,4.74,0,0,1-.81,1.5,4.22,4.22,0,0,1-1.26,1,3.58,3.58,0,0,1-1.67.37,2.6,2.6,0,0,1-2-.71,2.68,2.68,0,0,1-.7-2,5.73,5.73,0,0,1,.29-1.79,4.8,4.8,0,0,1,.83-1.46,3.9,3.9,0,0,1,1.28-1,3.51,3.51,0,0,1,1.65-.38,2.65,2.65,0,0,1,1.93.69A2.6,2.6,0,0,1,71.11,29.9Zm-1.89,2.65a3.9,3.9,0,0,0,.52-1.16A5.41,5.41,0,0,0,69.92,30a1.88,1.88,0,0,0-.45-1.38,1.55,1.55,0,0,0-1.19-.45,2,2,0,0,0-1.09.29,2.75,2.75,0,0,0-.83.8,3.9,3.9,0,0,0-.52,1.16,5.33,5.33,0,0,0-.18,1.38,2,2,0,0,0,.42,1.33,1.52,1.52,0,0,0,1.19.46,2.2,2.2,0,0,0,1.09-.29A2.58,2.58,0,0,0,69.22,32.55Z" transform="translate(-3.83 -2.08)"/><path class="b" d="M79.44,27.43l-1.61,7H76.65l.18-.78a8.07,8.07,0,0,1-1.25.71,3,3,0,0,1-1.22.26A2,2,0,0,1,73,34.17a1.7,1.7,0,0,1-.51-1.33,2.81,2.81,0,0,1,0-.41,1,1,0,0,1,.08-.46l1-4.55H74.7l-.92,4a5.56,5.56,0,0,0-.11.56,2.83,2.83,0,0,0,0,.5,1.08,1.08,0,0,0,.27.81,1.3,1.3,0,0,0,.93.27,2.6,2.6,0,0,0,1.06-.27,7,7,0,0,0,1.1-.62l1.24-5.24Z" transform="translate(-3.83 -2.08)"/><path class="b" d="M85.81,28.62h-.53a4.51,4.51,0,0,0-.52,0,2.78,2.78,0,0,0-1.17.27,6.8,6.8,0,0,0-1.11.64l-1.14,5H80.15l1.6-7h1.19l-.24,1a7.3,7.3,0,0,1,1.42-.91,3.14,3.14,0,0,1,1.1-.19h.45l.4.06Z" transform="translate(-3.83 -2.08)"/><path class="b" d="M95.4,27.43l-.21,1H92.75L92,31.62a5.56,5.56,0,0,0-.11.56,2.94,2.94,0,0,0,0,.51.89.89,0,0,0,.23.68,1.26,1.26,0,0,0,.86.22,3.1,3.1,0,0,0,.61-.09l.48-.14h.06l-.22,1a5.27,5.27,0,0,1-.75.14,4.25,4.25,0,0,1-.71.06,2.06,2.06,0,0,1-1.34-.38,1.43,1.43,0,0,1-.47-1.2,2.67,2.67,0,0,1,0-.4,1,1,0,0,1,.08-.45l.87-3.76h-.8l.21-1h.8l.47-2H93.4l-.47,2Z" transform="translate(-3.83 -2.08)"/><path class="b" d="M102.09,29.9a5.81,5.81,0,0,1-.29,1.81,4.74,4.74,0,0,1-.81,1.5,4.22,4.22,0,0,1-1.26,1,3.58,3.58,0,0,1-1.67.37,2.6,2.6,0,0,1-2-.71,2.68,2.68,0,0,1-.7-2,5.73,5.73,0,0,1,.29-1.79,4.78,4.78,0,0,1,.82-1.46,3.9,3.9,0,0,1,1.28-1,3.51,3.51,0,0,1,1.65-.38,2.65,2.65,0,0,1,1.93.69A2.61,2.61,0,0,1,102.09,29.9Zm-1.92,2.65a3.9,3.9,0,0,0,.52-1.16,5.41,5.41,0,0,0,.18-1.39,1.87,1.87,0,0,0-.42-1.38,1.54,1.54,0,0,0-1.23-.4,2,2,0,0,0-1.09.29,2.75,2.75,0,0,0-.83.8,3.9,3.9,0,0,0-.52,1.16,5.33,5.33,0,0,0-.18,1.38A2,2,0,0,0,97,33.18a1.49,1.49,0,0,0,1.2.44,2.2,2.2,0,0,0,1.09-.29A2.57,2.57,0,0,0,100.17,32.55Z" transform="translate(-3.83 -2.08)"/><path class="b" d="M109.43,34.43H108l-2.24-3.08-1,.82-.54,2.26H103l2.26-9.76h1.19L105,30.93l4.1-3.51h1.55l-4,3.31Z" transform="translate(-3.83 -2.08)"/><path class="b" d="M113.85,34.62a3.46,3.46,0,0,1-2.28-.68,2.45,2.45,0,0,1-.83-2,4.84,4.84,0,0,1,1.22-3.3,3.85,3.85,0,0,1,3-1.38,2.61,2.61,0,0,1,1.82.59,2.17,2.17,0,0,1,.63,1.67c0,.2,0,.4,0,.6a9.26,9.26,0,0,1-.17.95H112c0,.12,0,.24,0,.36v.33a1.8,1.8,0,0,0,.54,1.39,2.13,2.13,0,0,0,1.53.5,4,4,0,0,0,1.42-.27,5.64,5.64,0,0,0,1.23-.61h.07L116.51,34l-.56.21a4.71,4.71,0,0,1-.64.19l-.69.14A5,5,0,0,1,113.85,34.62Zm2.37-4.45v-.59a1.41,1.41,0,0,0-.37-1,1.59,1.59,0,0,0-1.18-.38,2.47,2.47,0,0,0-1.58.55,2.72,2.72,0,0,0-.93,1.46Z" transform="translate(-3.83 -2.08)"/><path class="b" d="M125.22,29a2.81,2.81,0,0,1,0,.41,3.54,3.54,0,0,1-.08.45l-1,4.55H123l.92-4c0-.22.09-.41.12-.58a4,4,0,0,0,0-.49,1.08,1.08,0,0,0-.26-.79,1.28,1.28,0,0,0-.94-.27,2.58,2.58,0,0,0-1,.26,8.23,8.23,0,0,0-1.12.63l-1.21,5.23h-1.21l1.62-7H121l-.18.78a7.46,7.46,0,0,1,1.26-.72,3,3,0,0,1,1.21-.25,2.05,2.05,0,0,1,1.43.46A1.69,1.69,0,0,1,125.22,29Z" transform="translate(-3.83 -2.08)"/><path class="b" d="M128.5,34.62a4.73,4.73,0,0,1-1.4-.19,5.87,5.87,0,0,1-1-.42l.26-1.26h.06l.34.27a2.86,2.86,0,0,0,.54.3,3.84,3.84,0,0,0,.67.25,3.15,3.15,0,0,0,.81.1,2.57,2.57,0,0,0,1.38-.33,1.08,1.08,0,0,0,.5-1,.58.58,0,0,0-.26-.51,2.24,2.24,0,0,0-.74-.29l-.59-.12-.69-.16a2.19,2.19,0,0,1-1.08-.6,1.35,1.35,0,0,1-.35-1,2.1,2.1,0,0,1,.21-.92,2.52,2.52,0,0,1,.63-.78,3.26,3.26,0,0,1,1-.55,4.32,4.32,0,0,1,1.38-.21,5.29,5.29,0,0,1,1.25.16,3.59,3.59,0,0,1,1,.39l-.25,1.2h-.06l-.3-.22a3.74,3.74,0,0,0-.52-.28,3.33,3.33,0,0,0-.63-.21,3.2,3.2,0,0,0-.75-.09,2.26,2.26,0,0,0-1.27.33,1,1,0,0,0-.49.9.69.69,0,0,0,.24.52,1.62,1.62,0,0,0,.73.33l.64.14.65.14a2.24,2.24,0,0,1,1.09.56,1.33,1.33,0,0,1,.37,1,2,2,0,0,1-.23.94,2.32,2.32,0,0,1-.66.8,3.37,3.37,0,0,1-1.08.56A4.74,4.74,0,0,1,128.5,34.62Z" transform="translate(-3.83 -2.08)"/><path class="a" d="M141.41,27.39h1.73l-.34,1.49h-1.66l-1.29,5.56h-2.27l1.29-5.56h-1l.34-1.49h1v-.18a3.45,3.45,0,0,1,1-1.93,3.39,3.39,0,0,1,2.26-.66h1c.23,0,.47.05.7.09l-.37,1.59h-.17l-.41-.1a2.72,2.72,0,0,0-.49-.05,1.34,1.34,0,0,0-.91.25,1.83,1.83,0,0,0-.46.92Z" transform="translate(-3.83 -2.08)"/><path class="a" d="M151,30a5.1,5.1,0,0,1-.33,1.86,4.34,4.34,0,0,1-2.41,2.47,5.08,5.08,0,0,1-1.93.35,3.49,3.49,0,0,1-2.41-.75,2.67,2.67,0,0,1-.84-2.08,5.19,5.19,0,0,1,.31-1.79,4.21,4.21,0,0,1,.93-1.49,4.32,4.32,0,0,1,1.46-1,5,5,0,0,1,1.95-.37,3.53,3.53,0,0,1,2.42.74A2.59,2.59,0,0,1,151,30ZM148,32.28a3.43,3.43,0,0,0,.44-1,4.51,4.51,0,0,0,.15-1.27,1.54,1.54,0,0,0-.28-1,1.09,1.09,0,0,0-.9-.35,1.46,1.46,0,0,0-.84.23,2.12,2.12,0,0,0-.64.66,3.33,3.33,0,0,0-.4,1,4.87,4.87,0,0,0-.15,1.2,1.4,1.4,0,0,0,.32,1,1.19,1.19,0,0,0,.88.31,1.53,1.53,0,0,0,.78-.22,2,2,0,0,0,.63-.57Z" transform="translate(-3.83 -2.08)"/><path class="a" d="M157.89,29.54h-.2a2,2,0,0,0-.43-.08h-.54a5.24,5.24,0,0,0-1.71.28l-1.09,4.71h-2.27l1.63-7h2.27l-.24,1a7.11,7.11,0,0,1,1.27-.76,3,3,0,0,1,1.28-.29h.53Z" transform="translate(-3.83 -2.08)"/><path class="a" d="M166.41,27.39h1.73l-.34,1.49h-1.66l-1.29,5.56h-2.27l1.29-5.56h-1l.34-1.49h1v-.18a3.45,3.45,0,0,1,1-1.93,3.39,3.39,0,0,1,2.26-.66h1c.23,0,.47.05.7.09l-.37,1.59h-.17l-.41-.1a2.72,2.72,0,0,0-.49-.05,1.34,1.34,0,0,0-.91.25,1.83,1.83,0,0,0-.46.92Z" transform="translate(-3.83 -2.08)"/><path class="a" d="M174.08,29.54h-.2a2,2,0,0,0-.43-.08h-.54a5.24,5.24,0,0,0-1.71.28l-1.09,4.71h-2.27l1.63-7h2.27l-.24,1a7.11,7.11,0,0,1,1.27-.76,3,3,0,0,1,1.28-.29h.53Z" transform="translate(-3.83 -2.08)"/><path class="a" d="M178.22,34.62a4.32,4.32,0,0,1-2.78-.8,2.7,2.7,0,0,1-1-2.2,4.61,4.61,0,0,1,.32-1.76,4.14,4.14,0,0,1,2.36-2.35,5.15,5.15,0,0,1,1.9-.34,3.73,3.73,0,0,1,2.38.64,2.25,2.25,0,0,1,.8,1.88,4.58,4.58,0,0,1-.08.83,8.12,8.12,0,0,1-.22.81h-5.24v.14a1.41,1.41,0,0,0,.51,1.15,2.53,2.53,0,0,0,1.58.41,4,4,0,0,0,1.41-.25,6.79,6.79,0,0,0,1.15-.56h.25L181.14,34a6.81,6.81,0,0,1-1.39.44A7.86,7.86,0,0,1,178.22,34.62ZM180,30V29.6a1,1,0,0,0-.31-.76,1.35,1.35,0,0,0-.89-.26,1.83,1.83,0,0,0-1.17.38,2.39,2.39,0,0,0-.72,1.05Z" transform="translate(-3.83 -2.08)"/><path class="a" d="M186.72,34.62a4.32,4.32,0,0,1-2.78-.8,2.7,2.7,0,0,1-1-2.2,4.61,4.61,0,0,1,.32-1.76,4.14,4.14,0,0,1,2.36-2.35,5.15,5.15,0,0,1,1.9-.34,3.73,3.73,0,0,1,2.38.64,2.25,2.25,0,0,1,.8,1.88,4.58,4.58,0,0,1-.08.83,8.12,8.12,0,0,1-.22.81h-5.18v.14a1.41,1.41,0,0,0,.51,1.15,2.53,2.53,0,0,0,1.58.41,4,4,0,0,0,1.41-.25,6.79,6.79,0,0,0,1.15-.56h.25L189.7,34a6.81,6.81,0,0,1-1.39.44A8.48,8.48,0,0,1,186.72,34.62ZM188.45,30V29.6a1,1,0,0,0-.31-.76,1.35,1.35,0,0,0-.89-.26,1.83,1.83,0,0,0-1.17.38,2.39,2.39,0,0,0-.72,1.05Z" transform="translate(-3.83 -2.08)"/><path class="c" d="M23.7,2.08A19.81,19.81,0,0,0,6.6,31.92L3.83,41.79,14,39.17A19.82,19.82,0,1,0,23.7,2.08Zm5.78,28a12.11,12.11,0,0,1-4.56,1.59L24,35.54h-6l.9-3.86a16.52,16.52,0,0,1-1.87-.28,13.85,13.85,0,0,1-3.46-1l-.17-.08L14.68,25h.83l.06.06a10.54,10.54,0,0,0,.9.67,8,8,0,0,0,1.52.77,11.51,11.51,0,0,0,2,.63,10.37,10.37,0,0,0,2.42.26A6.59,6.59,0,0,0,25.28,27a1.88,1.88,0,0,0,1-1.35l1.28-5.55a10.49,10.49,0,0,1,3.21,1.46A4.08,4.08,0,0,1,32.45,25,5.79,5.79,0,0,1,29.48,30Zm3.34-11.66H32L32,18.32a9.46,9.46,0,0,0-2.75-1.42,10,10,0,0,0-3.31-.56,7.21,7.21,0,0,0-2.8.43,1.7,1.7,0,0,0-.91,1.05c-.1.29-.13.44-.23.79l-1.19,5.14a9.43,9.43,0,0,1-3.35-1.64A4.22,4.22,0,0,1,16,18.85a5.84,5.84,0,0,1,2.9-5.12,11.56,11.56,0,0,1,4.61-1.61l.91-3.91h5.94l-.9,3.91c.43.06.87.11,1.31.2a13.37,13.37,0,0,1,3.09.91l.18.08Z" transform="translate(-3.83 -2.08)"/></svg>