<svg xmlns="http://www.w3.org/2000/svg" viewBox="0 0 218.42 39.71"><defs><style>.a{fill:#ff9a22;}.b{fill:#efefef;}.c{fill:#fe9833;}</style></defs><title>share-btn3-ru</title><polygon class="a" points="60.15 15.59 57.85 15.59 59.13 10.02 56.52 10.02 55.24 15.59 52.94 15.59 54.59 8.46 61.79 8.46 60.15 15.59"/><path class="a" d="M68.37,13.49a3,3,0,0,0,.44-1A4.73,4.73,0,0,0,69,11.24a1.58,1.58,0,0,0-.28-1,1.11,1.11,0,0,0-.91-.35,1.53,1.53,0,0,0-.85.24,2.13,2.13,0,0,0-.64.66,3.47,3.47,0,0,0-.41,1A5,5,0,0,0,65.72,13,1.45,1.45,0,0,0,66,14a1.24,1.24,0,0,0,.89.31,1.56,1.56,0,0,0,.8-.22,1.92,1.92,0,0,0,.64-.63m3-2.33A5.32,5.32,0,0,1,71,13a4.46,4.46,0,0,1-1,1.5,4.39,4.39,0,0,1-1.47,1,5.12,5.12,0,0,1-2,.35,3.58,3.58,0,0,1-2.44-.76A2.68,2.68,0,0,1,63.34,13a5.18,5.18,0,0,1,.32-1.81,4.32,4.32,0,0,1,.94-1.51,4.1,4.1,0,0,1,1.48-1,5,5,0,0,1,2-.37,3.59,3.59,0,0,1,2.45.75,2.65,2.65,0,0,1,.85,2.08" transform="translate(-0.83 -0.08)"/><path class="a" d="M76.8,14.15l.94-4.05H76.19a19.34,19.34,0,0,1-.88,2.22,13.38,13.38,0,0,1-1,1.83Zm2.27,3.29H77l.41-1.79H73.25l-.42,1.79h-2l.75-3.29h.6a13.77,13.77,0,0,0,1.33-2.48,18.37,18.37,0,0,0,1-3.12h5.9l-1.29,5.6h.74Z" transform="translate(-0.83 -0.08)"/><path class="a" d="M86.79,11.2a.88.88,0,0,0,0-.21,1.27,1.27,0,0,0,0-.2,1,1,0,0,0-.31-.77,1.34,1.34,0,0,0-.9-.27,1.83,1.83,0,0,0-1.19.39,2.37,2.37,0,0,0-.73,1.06Zm-1.74,4.67a4.4,4.4,0,0,1-2.82-.8,2.73,2.73,0,0,1-1-2.23,4.71,4.71,0,0,1,.33-1.79,4.11,4.11,0,0,1,.93-1.43A4.29,4.29,0,0,1,84,8.67a5.2,5.2,0,0,1,1.92-.34A3.81,3.81,0,0,1,88.29,9a2.28,2.28,0,0,1,.81,1.9,4,4,0,0,1-.09.85,5.84,5.84,0,0,1-.22.82H83.48v.15A1.43,1.43,0,0,0,84,13.85a2.53,2.53,0,0,0,1.6.42A3.93,3.93,0,0,0,87,14a6.38,6.38,0,0,0,1.17-.56h.25L88,15.28a6.7,6.7,0,0,1-1.4.44,8,8,0,0,1-1.57.15Z" transform="translate(-0.83 -0.08)"/><path class="a" d="M96.74,15.68h-2.3l1.28-5.58H93.86c-.06.23-.12.49-.19.76s-.12.48-.16.62c-.12.48-.24.9-.37,1.27a7.94,7.94,0,0,1-.41.95,4.68,4.68,0,0,1-.83,1.17,2.83,2.83,0,0,1-1.07.7,2.67,2.67,0,0,1-.49.12,4.16,4.16,0,0,1-.54,0l-.61,0-.38,0,.43-1.83h.3a1.26,1.26,0,0,0,.58-.1,1.16,1.16,0,0,0,.43-.39,4.32,4.32,0,0,0,.49-.86,12.3,12.3,0,0,0,.52-1.65c.1-.37.19-.72.28-1l.32-1.28h6.21Z" transform="translate(-0.83 -0.08)"/><polygon class="a" points="105.3 15.59 103.07 15.59 104.07 11.3 99.94 15.59 98.05 15.59 99.7 8.46 101.91 8.46 101.02 12.3 104.82 8.46 106.94 8.46 105.3 15.59"/><path class="a" d="M112,15.87a5,5,0,0,1-1.37-.18,3.19,3.19,0,0,1-1.12-.56,2.6,2.6,0,0,1-.72-.94,3.16,3.16,0,0,1-.26-1.31,4.24,4.24,0,0,1,.37-1.78,4.3,4.3,0,0,1,1-1.44,4.88,4.88,0,0,1,1.58-1,5.79,5.79,0,0,1,2-.35,5.7,5.7,0,0,1,1.3.15,4.93,4.93,0,0,1,1.19.42l-.48,1.95h-.32a2.45,2.45,0,0,0-.85-.67,2.42,2.42,0,0,0-1.06-.22,2.19,2.19,0,0,0-1.74.77,2.87,2.87,0,0,0-.65,1.91,1.64,1.64,0,0,0,.4,1.19,1.76,1.76,0,0,0,1.26.39,2.65,2.65,0,0,0,1.2-.27,4.66,4.66,0,0,0,.93-.6H115l-.48,2a8.53,8.53,0,0,1-1.2.43,6.13,6.13,0,0,1-1.34.12" transform="translate(-0.83 -0.08)"/><path class="a" d="M121.13,13.12a.72.72,0,0,0-.23-.55,1.14,1.14,0,0,0-.75-.2H119l-.43,1.87h1.3a1.4,1.4,0,0,0,.68-.14,1,1,0,0,0,.39-.31,1.14,1.14,0,0,0,.18-.37,2.08,2.08,0,0,0,0-.3m2.38-.29a2.74,2.74,0,0,1-.32,1.29,2.63,2.63,0,0,1-.86,1,3.06,3.06,0,0,1-1,.45,5.76,5.76,0,0,1-1.31.13h-4.15l1.65-7.13h2.29l-.55,2.38h1.63a3.16,3.16,0,0,1,1.92.5,1.68,1.68,0,0,1,.65,1.4" transform="translate(-0.83 -0.08)"/><polygon class="b" points="134.17 15.59 132.98 15.59 134.21 10.27 129.29 15.59 128.19 15.59 129.83 8.5 131.02 8.5 129.81 13.71 134.67 8.5 135.81 8.5 134.17 15.59"/><polygon class="b" points="147.02 15.59 145.82 15.59 147.24 9.46 143.71 9.46 142.29 15.59 141.08 15.59 142.72 8.5 148.65 8.5 147.02 15.59"/><path class="b" d="M155.22,13.77a3.9,3.9,0,0,0,.52-1.17,5.05,5.05,0,0,0,.19-1.41,2,2,0,0,0-.43-1.35,1.56,1.56,0,0,0-1.2-.45,2,2,0,0,0-1.1.29,2.84,2.84,0,0,0-.85.81,4.05,4.05,0,0,0-.53,1.17,5.43,5.43,0,0,0-.18,1.4,1.94,1.94,0,0,0,.43,1.35,1.54,1.54,0,0,0,1.2.47,2.1,2.1,0,0,0,1.11-.3,2.49,2.49,0,0,0,.84-.81m1.94-2.68a5.57,5.57,0,0,1-.29,1.83,4.73,4.73,0,0,1-.82,1.52,4.29,4.29,0,0,1-1.28,1.06,3.63,3.63,0,0,1-1.69.37,2.64,2.64,0,0,1-2-.72,2.72,2.72,0,0,1-.71-2,5.72,5.72,0,0,1,.29-1.81,4.7,4.7,0,0,1,.84-1.54,3.82,3.82,0,0,1,1.29-1,3.63,3.63,0,0,1,1.67-.39,2.66,2.66,0,0,1,1.95.7,2.65,2.65,0,0,1,.72,2" transform="translate(-0.83 -0.08)"/><path class="b" d="M163.81,15.68H162.6L164,9.54h-2.63c-.09.39-.18.74-.26,1.06s-.15.62-.22.89c-.15.57-.29,1.06-.42,1.45a9.29,9.29,0,0,1-.38,1,4.37,4.37,0,0,1-.4.68,3.73,3.73,0,0,1-.35.45,2,2,0,0,1-.78.54,2.3,2.3,0,0,1-.79.13h-.61l.24-1h.37a1.16,1.16,0,0,0,.33-.06.75.75,0,0,0,.31-.15,3.33,3.33,0,0,0,.74-1.08,13.64,13.64,0,0,0,.73-2.18c.08-.31.18-.71.3-1.21s.24-1,.33-1.38h4.91Z" transform="translate(-0.83 -0.08)"/><polygon class="b" points="166.61 18.21 165.29 18.21 167.35 15.18 166.07 8.5 167.3 8.5 168.3 13.78 171.69 8.5 172.99 8.5 166.61 18.21"/><path class="b" d="M179.36,15.68h-1.21l.64-2.73c-.39.11-.76.21-1.12.29a5.31,5.31,0,0,1-1.14.12,2.3,2.3,0,0,1-1.44-.43,1.43,1.43,0,0,1-.57-1.21,2.16,2.16,0,0,1,0-.35c0-.13,0-.25.06-.35l.56-2.43h1.21l-.44,1.91a3.16,3.16,0,0,0-.08.42,2.41,2.41,0,0,0,0,.41,1.44,1.44,0,0,0,.06.45.69.69,0,0,0,.21.32,1,1,0,0,0,.38.21,2.62,2.62,0,0,0,.66.06,4.69,4.69,0,0,0,.87-.08c.33-.06.66-.13,1-.22l.81-3.48H181Z" transform="translate(-0.83 -0.08)"/><polygon class="b" points="186.85 15.59 185.66 15.59 186.9 10.27 181.98 15.59 180.88 15.59 182.51 8.5 183.71 8.5 182.5 13.71 187.36 8.5 188.49 8.5 186.85 15.59"/><path class="b" d="M56.94,31.58a4.3,4.3,0,0,1-1.19-.15,2.43,2.43,0,0,1-.9-.51,2.08,2.08,0,0,1-.58-.83,3,3,0,0,1-.2-1.17,5.42,5.42,0,0,1,.31-1.86,4.55,4.55,0,0,1,.88-1.51,3.94,3.94,0,0,1,1.36-1,4.18,4.18,0,0,1,1.76-.37,4.09,4.09,0,0,1,1.17.17,5.44,5.44,0,0,1,1,.41L60.25,26h-.06l-.32-.27a3.16,3.16,0,0,0-.45-.28,3.34,3.34,0,0,0-.58-.23,2.63,2.63,0,0,0-.72-.09,2.39,2.39,0,0,0-2,1,4.07,4.07,0,0,0-.78,2.52,1.9,1.9,0,0,0,.46,1.38,1.73,1.73,0,0,0,1.31.48,2.77,2.77,0,0,0,.8-.12,3.8,3.8,0,0,0,.68-.24,6.28,6.28,0,0,0,.58-.31l.38-.25h.07L59.36,31a10.08,10.08,0,0,1-1.17.42,4.45,4.45,0,0,1-1.25.18" transform="translate(-0.83 -0.08)"/><path class="b" d="M66.24,25.92a.6.6,0,0,0-.07-.3A.49.49,0,0,0,66,25.4a1.14,1.14,0,0,0-.54-.15h-2l-.47,2h1.49a5.86,5.86,0,0,0,.72,0,1.45,1.45,0,0,0,.49-.19,1.17,1.17,0,0,0,.46-.48,1.37,1.37,0,0,0,.15-.64M66,29a1,1,0,0,0-.09-.42.88.88,0,0,0-.36-.32,1.28,1.28,0,0,0-.51-.12H62.72l-.55,2.38h1.2a8.38,8.38,0,0,0,1.1-.05,2.1,2.1,0,0,0,.72-.2,1.41,1.41,0,0,0,.58-.52A1.34,1.34,0,0,0,66,29m1.26,0a1.88,1.88,0,0,1-.34,1.1,2.64,2.64,0,0,1-.82.81,2.84,2.84,0,0,1-1,.42,5.6,5.6,0,0,1-1.26.12h-3l1.64-7.1h2.65a8.47,8.47,0,0,1,1.2.06,2.23,2.23,0,0,1,.69.26,1.13,1.13,0,0,1,.43.44,1.25,1.25,0,0,1,.13.59,1.83,1.83,0,0,1-.38,1.13,2.51,2.51,0,0,1-1,.76v.05a1.63,1.63,0,0,1,.81.46,1.22,1.22,0,0,1,.33.9" transform="translate(-0.83 -0.08)"/><path class="b" d="M73.53,29.52a3.9,3.9,0,0,0,.52-1.17,5.45,5.45,0,0,0,.18-1.41,2,2,0,0,0-.42-1.35,1.59,1.59,0,0,0-1.2-.45,2.09,2.09,0,0,0-1.11.29,2.93,2.93,0,0,0-.84.81,3.8,3.8,0,0,0-.53,1.17,5.43,5.43,0,0,0-.18,1.4,2,2,0,0,0,.42,1.35,1.57,1.57,0,0,0,1.21.47,2.09,2.09,0,0,0,1.1-.3,2.52,2.52,0,0,0,.85-.81m1.94-2.68a5.84,5.84,0,0,1-.29,1.83,4.75,4.75,0,0,1-.83,1.52,4.26,4.26,0,0,1-1.27,1.06,3.66,3.66,0,0,1-1.69.37,2.64,2.64,0,0,1-2-.72,2.72,2.72,0,0,1-.71-2A5.72,5.72,0,0,1,69,27.1a4.87,4.87,0,0,1,.83-1.54,3.86,3.86,0,0,1,1.3-1,3.57,3.57,0,0,1,1.67-.39,2.7,2.7,0,0,1,2,.7,2.65,2.65,0,0,1,.72,2" transform="translate(-0.83 -0.08)"/><polygon class="b" points="81.54 31.34 80.35 31.34 81.58 26.02 76.66 31.34 75.56 31.34 77.2 24.25 78.39 24.25 77.19 29.46 82.05 24.25 83.18 24.25 81.54 31.34"/><polygon class="b" points="95.08 25.2 92.51 25.2 91.11 31.34 89.91 31.34 91.31 25.2 88.75 25.2 88.98 24.25 95.3 24.25 95.08 25.2"/><path class="b" d="M100.76,29.52a3.9,3.9,0,0,0,.52-1.17,5.45,5.45,0,0,0,.18-1.41,2,2,0,0,0-.42-1.35,1.56,1.56,0,0,0-1.2-.45,2.09,2.09,0,0,0-1.11.29,2.93,2.93,0,0,0-.84.81,4.05,4.05,0,0,0-.53,1.17,5.43,5.43,0,0,0-.18,1.4,1.94,1.94,0,0,0,.43,1.35,1.54,1.54,0,0,0,1.2.47,2.1,2.1,0,0,0,1.11-.3,2.49,2.49,0,0,0,.84-.81m1.94-2.68a5.84,5.84,0,0,1-.29,1.83,4.56,4.56,0,0,1-.83,1.52,4.14,4.14,0,0,1-1.27,1.06,3.63,3.63,0,0,1-1.69.37,2.64,2.64,0,0,1-2-.72,2.72,2.72,0,0,1-.71-2,5.72,5.72,0,0,1,.29-1.81,4.7,4.7,0,0,1,.84-1.54,3.82,3.82,0,0,1,1.29-1,3.6,3.6,0,0,1,1.67-.39,2.46,2.46,0,0,1,2.67,2.7" transform="translate(-0.83 -0.08)"/><path class="b" d="M110.14,31.43h-1.45l-2.37-3.28h-.69l-.76,3.28h-1.2l1.63-7.09h1.21l-.71,3.07a2.27,2.27,0,0,0,.91-.18,2.2,2.2,0,0,0,.82-.74,2.68,2.68,0,0,0,.26-.37c.09-.14.18-.26.25-.38a3.93,3.93,0,0,1,1-1,2.86,2.86,0,0,1,1.64-.39h.55l-.23,1h-.5a1.43,1.43,0,0,0-.84.24,2.9,2.9,0,0,0-.69.76,3.88,3.88,0,0,1-.78.92,3,3,0,0,1-.78.48Z" transform="translate(-0.83 -0.08)"/><path class="b" d="M117.05,27.11a2.43,2.43,0,0,0,0-.31,2.53,2.53,0,0,0,0-.28,1.44,1.44,0,0,0-.37-1.06,1.62,1.62,0,0,0-1.19-.38,2.46,2.46,0,0,0-1.6.56,2.8,2.8,0,0,0-1,1.47Zm-2.38,4.48a3.54,3.54,0,0,1-2.31-.69,2.47,2.47,0,0,1-.83-2,4.87,4.87,0,0,1,1.23-3.34,3.88,3.88,0,0,1,3-1.39,2.62,2.62,0,0,1,1.85.6,2.21,2.21,0,0,1,.64,1.68,4.81,4.81,0,0,1-.06.61c0,.27-.09.59-.17,1h-5.23c0,.12,0,.24,0,.36s0,.23,0,.33a1.84,1.84,0,0,0,.55,1.4,2.18,2.18,0,0,0,1.55.51,4.25,4.25,0,0,0,1.44-.27,6.23,6.23,0,0,0,1.24-.61h.07L117.35,31l-.57.21a4.36,4.36,0,0,1-.65.19,6.41,6.41,0,0,1-.7.15,5.15,5.15,0,0,1-.76.05Z" transform="translate(-0.83 -0.08)"/><polygon class="b" points="124.17 31.34 122.97 31.34 123.71 28.13 120.18 28.13 119.44 31.34 118.23 31.34 119.87 24.25 121.08 24.25 120.4 27.17 123.93 27.17 124.61 24.25 125.81 24.25 124.17 31.34"/><path class="b" d="M135.33,31.43h-1.21l1.64-7.09H137Zm-3.05-2.49a1,1,0,0,0-.07-.39.69.69,0,0,0-.25-.29,1.18,1.18,0,0,0-.56-.2q-.33,0-1,0h-1.09l-.58,2.49h1.19a6.72,6.72,0,0,0,1-.05,1.81,1.81,0,0,0,.63-.22,1.29,1.29,0,0,0,.53-.53,1.55,1.55,0,0,0,.19-.78Zm1.26-.17a2.46,2.46,0,0,1-.32,1.21,2.37,2.37,0,0,1-.82.87,3.13,3.13,0,0,1-1,.44,5,5,0,0,1-1.26.14h-2.83L129,24.34h1.21l-.65,2.78H131a7.59,7.59,0,0,1,1.23.08,1.71,1.71,0,0,1,.8.41,1.32,1.32,0,0,1,.36.51,1.75,1.75,0,0,1,.12.65Z" transform="translate(-0.83 -0.08)"/><path class="a" d="M148.1,27.67a1.44,1.44,0,0,0-.35-1,1.25,1.25,0,0,0-1-.39,3.81,3.81,0,0,0-.75.07,3.44,3.44,0,0,0-.84.28,6,6,0,0,0-.2,1,7.31,7.31,0,0,0-.08,1,1.58,1.58,0,0,0,.36,1.11,1.24,1.24,0,0,0,.94.38,1.68,1.68,0,0,0,.62-.15,2,2,0,0,0,.62-.43,2.56,2.56,0,0,0,.49-.79,2.82,2.82,0,0,0,.18-1m1.6-2.42a2.21,2.21,0,0,1,.57.77,2.67,2.67,0,0,1,.21,1.1,4.88,4.88,0,0,1-.33,1.8,4,4,0,0,1-1,1.44,4.2,4.2,0,0,1-1.46.95,5.16,5.16,0,0,1-1.88.34,3.37,3.37,0,0,1-2.43-.82,3.23,3.23,0,0,1-.83-2.38,7.84,7.84,0,0,1,.15-1.49,8.29,8.29,0,0,1,.45-1.59,7.75,7.75,0,0,1,.73-1.47,4.49,4.49,0,0,1,1-1.15,4.39,4.39,0,0,1,1.49-.77,9.66,9.66,0,0,1,1.88-.35q.63-.06,1.47-.09c.57,0,1-.05,1.36-.05l-.33,1.65-.8,0-.8,0a11,11,0,0,0-2.15.3,2,2,0,0,0-1.3,1.06,3.8,3.8,0,0,0-.32.8,6,6,0,0,1,1.19-.54,3.8,3.8,0,0,1,1.24-.21,3.24,3.24,0,0,1,1,.15,2.44,2.44,0,0,1,.83.47" transform="translate(-0.83 -0.08)"/><path class="a" d="M156.94,27q0-.12,0-.21a1.27,1.27,0,0,0,0-.2,1,1,0,0,0-.31-.77,1.34,1.34,0,0,0-.9-.27,1.83,1.83,0,0,0-1.19.39,2.37,2.37,0,0,0-.73,1.06Zm-1.75,4.67a4.39,4.39,0,0,1-2.81-.8,2.73,2.73,0,0,1-1-2.23,4.91,4.91,0,0,1,.32-1.79,4.42,4.42,0,0,1,.93-1.43,4.24,4.24,0,0,1,1.47-.95,5.16,5.16,0,0,1,1.92-.34,3.83,3.83,0,0,1,2.41.64,2.31,2.31,0,0,1,.81,1.9,4,4,0,0,1-.09.85,5.87,5.87,0,0,1-.23.82h-5.3v.15a1.4,1.4,0,0,0,.52,1.16,2.53,2.53,0,0,0,1.6.42,4,4,0,0,0,1.42-.26,6.38,6.38,0,0,0,1.17-.56h.25L158.17,31a6.79,6.79,0,0,1-1.41.44,7.82,7.82,0,0,1-1.57.15Z" transform="translate(-0.83 -0.08)"/><path class="a" d="M163.49,31.62a5,5,0,0,1-1.37-.18,3.19,3.19,0,0,1-1.12-.56,2.49,2.49,0,0,1-.72-.94,3.16,3.16,0,0,1-.26-1.31,4.39,4.39,0,0,1,.36-1.78,4.47,4.47,0,0,1,1-1.44,4.88,4.88,0,0,1,1.58-1,5.89,5.89,0,0,1,3.32-.2,4.93,4.93,0,0,1,1.19.42L167,26.62h-.32a2.36,2.36,0,0,0-1.91-.89,2.19,2.19,0,0,0-1.74.77,2.87,2.87,0,0,0-.65,1.91,1.6,1.6,0,0,0,.4,1.19,1.76,1.76,0,0,0,1.26.39,2.65,2.65,0,0,0,1.2-.27,4.66,4.66,0,0,0,.93-.6h.32L166,31.07a8.53,8.53,0,0,1-1.2.43,6.13,6.13,0,0,1-1.34.12" transform="translate(-0.83 -0.08)"/><polygon class="a" points="173.84 31.34 171.54 31.34 172.82 25.77 170.21 25.77 168.93 31.34 166.63 31.34 168.27 24.21 175.48 24.21 173.84 31.34"/><path class="a" d="M183.89,31.43h-2.3l1.28-5.58H181c-.06.23-.12.49-.19.76s-.12.48-.16.62c-.12.48-.24.9-.37,1.27a8,8,0,0,1-.4.95,5,5,0,0,1-.84,1.17,2.88,2.88,0,0,1-1.06.7,3,3,0,0,1-.5.12,4.11,4.11,0,0,1-.53,0l-.62,0-.37,0,.42-1.83h.3a1.33,1.33,0,0,0,.59-.1,1.22,1.22,0,0,0,.42-.39,4.32,4.32,0,0,0,.49-.86,12.3,12.3,0,0,0,.52-1.65c.1-.37.19-.72.28-1s.19-.76.32-1.28h6.22Z" transform="translate(-0.83 -0.08)"/><path class="a" d="M191.14,28.06l-1.15.12a4.55,4.55,0,0,0-.91.21,1.31,1.31,0,0,0-.6.39,1.07,1.07,0,0,0-.2.67.54.54,0,0,0,.27.52,1.65,1.65,0,0,0,.79.15,1.78,1.78,0,0,0,.72-.16,3.42,3.42,0,0,0,.73-.39Zm-.61,2.61L190,31a3.59,3.59,0,0,1-.56.31,6,6,0,0,1-.67.23,4,4,0,0,1-.87.07,2.08,2.08,0,0,1-1.45-.5,1.66,1.66,0,0,1-.56-1.3,2.46,2.46,0,0,1,.4-1.43,2.79,2.79,0,0,1,1.19-.94,6.27,6.27,0,0,1,1.75-.47c.68-.1,1.41-.17,2.2-.22a1,1,0,0,0,0-.12,1.23,1.23,0,0,0,0-.2.64.64,0,0,0-.42-.63,3.3,3.3,0,0,0-1.25-.18,4.51,4.51,0,0,0-1.24.19c-.46.13-.8.23-1,.32h-.21l.34-1.69c.26-.07.68-.14,1.23-.23a11.86,11.86,0,0,1,1.67-.13,5.26,5.26,0,0,1,2.46.44,1.45,1.45,0,0,1,.79,1.36c0,.09,0,.2,0,.33s0,.25-.06.36l-1.12,4.85h-2.27Z" transform="translate(-0.83 -0.08)"/><polygon class="a" points="201 25.77 198.72 25.77 197.44 31.34 195.14 31.34 196.42 25.77 194.16 25.77 194.51 24.21 201.35 24.21 201 25.77"/><polygon class="a" points="208.06 31.34 205.76 31.34 206.47 28.26 203.86 28.26 203.15 31.34 200.85 31.34 202.49 24.21 204.79 24.21 204.21 26.72 206.83 26.72 207.41 24.21 209.71 24.21 208.06 31.34"/><path class="a" d="M216.28,29.24a3.56,3.56,0,0,0,.44-1,4.73,4.73,0,0,0,.15-1.28,1.58,1.58,0,0,0-.29-1,1.1,1.1,0,0,0-.9-.35,1.49,1.49,0,0,0-.85.24,2.16,2.16,0,0,0-.65.66,3.47,3.47,0,0,0-.41,1,5.48,5.48,0,0,0-.14,1.21,1.41,1.41,0,0,0,.32,1.05,1.22,1.22,0,0,0,.89.31,1.52,1.52,0,0,0,.79-.22,2,2,0,0,0,.65-.63m3-2.33a5.1,5.1,0,0,1-.34,1.88,4.44,4.44,0,0,1-.94,1.5,4.53,4.53,0,0,1-1.48,1,5.07,5.07,0,0,1-2,.35,3.56,3.56,0,0,1-2.44-.76,2.68,2.68,0,0,1-.85-2.11,5.18,5.18,0,0,1,.31-1.81,4.47,4.47,0,0,1,.94-1.51,4.19,4.19,0,0,1,1.48-1,5,5,0,0,1,2-.37,3.56,3.56,0,0,1,2.44.75,2.61,2.61,0,0,1,.85,2.08" transform="translate(-0.83 -0.08)"/><path class="c" d="M20.7.08A19.81,19.81,0,0,0,3.6,29.92L.83,39.79,11,37.17A19.82,19.82,0,1,0,20.7.08Zm5.78,28a12.11,12.11,0,0,1-4.56,1.59L21,33.54h-6l.9-3.86a16.52,16.52,0,0,1-1.87-.28,13.85,13.85,0,0,1-3.46-1l-.17-.08L11.68,23h.83l.06.06a10.54,10.54,0,0,0,.9.67,8,8,0,0,0,1.52.77,11.51,11.51,0,0,0,2,.63,10.37,10.37,0,0,0,2.42.26A6.59,6.59,0,0,0,22.28,25a1.88,1.88,0,0,0,1-1.35l1.28-5.55a10.49,10.49,0,0,1,3.21,1.46A4.08,4.08,0,0,1,29.45,23,5.79,5.79,0,0,1,26.48,28Zm3.34-11.66H29L29,16.32a9.46,9.46,0,0,0-2.75-1.42,10,10,0,0,0-3.31-.56,7.21,7.21,0,0,0-2.8.43,1.7,1.7,0,0,0-.91,1.05c-.1.29-.13.44-.23.79l-1.19,5.14a9.43,9.43,0,0,1-3.35-1.64A4.22,4.22,0,0,1,13,16.85a5.84,5.84,0,0,1,2.9-5.12,11.56,11.56,0,0,1,4.61-1.61l.91-3.91h5.94l-.9,3.91c.43.06.87.11,1.31.2a13.37,13.37,0,0,1,3.09.91l.18.08Z" transform="translate(-0.83 -0.08)"/></svg>