<svg xmlns="http://www.w3.org/2000/svg" xmlns:xlink="http://www.w3.org/1999/xlink" viewBox="0 0 190.72 45.22"><defs><style>.a{fill:#fff;}.b{mask:url(#a);}.c{fill:#fe9833;}.d{fill:#ff9a22;}.e{fill:#efefef;}</style><mask id="a" x="0" y="0" width="45.8" height="45.22" maskUnits="userSpaceOnUse"><g transform="translate(2.22 2.62)"><path class="a" d="M20.69.28h0A19.85,19.85,0,0,1,40.68,20a19.85,19.85,0,0,1-20,19.71H.7l4.58-7.12a19.49,19.49,0,0,1-2.7-21A20,20,0,0,1,20.69.28ZM14.32,20.2a9.22,9.22,0,0,0,3.38,1.64l1.2-5.1c.1-.34.12-.48.23-.78A1.65,1.65,0,0,1,20,14.9a7.32,7.32,0,0,1,2.82-.41,10.43,10.43,0,0,1,3.33.55A9.7,9.7,0,0,1,29,16.46l.06,0h.83l1.15-5-.17-.09a14,14,0,0,0-3.12-.91c-.44-.09-.9-.14-1.32-.2l.91-3.88h-6l-.91,3.88a11.85,11.85,0,0,0-4.64,1.6A5.77,5.77,0,0,0,12.84,17,4.13,4.13,0,0,0,14.32,20.2Zm5,5.29h-.06a10.93,10.93,0,0,1-2.38-.26,12.34,12.34,0,0,1-2-.63,8.33,8.33,0,0,1-1.53-.76,9.93,9.93,0,0,1-.9-.67l-.07-.06H11.6l-1.23,5.19.17.09a14.69,14.69,0,0,0,3.48,1c.63.12,1.25.2,1.88.28L15,33.55h6l.91-3.89a12.14,12.14,0,0,0,4.58-1.57h0a5.86,5.86,0,0,0,3-5,4,4,0,0,0-1.67-3.39,10.67,10.67,0,0,0-3.22-1.44l-1.29,5.49a1.89,1.89,0,0,1-1,1.35A6.88,6.88,0,0,1,19.37,25.49Z"/></g></mask></defs><title>share-btn3</title><g class="b"><polygon class="c" points="0 45.22 45.8 45.22 45.8 0 0 0 0 45.22"/></g><path class="d" d="M57,16.6a8.87,8.87,0,0,1-1.75-.17A5.34,5.34,0,0,1,54,16l.43-1.86h.21l.35.26a3.22,3.22,0,0,0,.6.3,4.57,4.57,0,0,0,.77.25,4.11,4.11,0,0,0,.95.1,2.85,2.85,0,0,0,1.14-.18.55.55,0,0,0,.38-.5.41.41,0,0,0-.27-.38,6.3,6.3,0,0,0-1.12-.33,4.7,4.7,0,0,1-2-.8,1.5,1.5,0,0,1-.53-1.17A2.13,2.13,0,0,1,56,9.85a5.27,5.27,0,0,1,2.88-.69,8,8,0,0,1,1.58.16,5.11,5.11,0,0,1,1.16.34l-.41,1.78H61a3.72,3.72,0,0,0-1.08-.56,4,4,0,0,0-1.3-.22,2.81,2.81,0,0,0-1.11.17.56.56,0,0,0-.39.53.46.46,0,0,0,.33.42,5.94,5.94,0,0,0,1,.3,5.12,5.12,0,0,1,1.92.73A1.45,1.45,0,0,1,61,14.06,2.1,2.1,0,0,1,60,15.92,5.42,5.42,0,0,1,57,16.6Z" transform="translate(2.22 2.62)"/><path class="d" d="M70.19,11a3.89,3.89,0,0,1,0,.39,3.84,3.84,0,0,1-.08.48L69,16.4H66.74l.81-3.49q.09-.4.14-.68a2.82,2.82,0,0,0,0-.5.77.77,0,0,0-.21-.6,1.18,1.18,0,0,0-.76-.19,2,2,0,0,0-.62.12,5,5,0,0,0-.78.35l-1.15,5H61.94l2.25-9.76h2.27l-.81,3.49a8.87,8.87,0,0,1,1.27-.71,3.08,3.08,0,0,1,1.27-.26,2.14,2.14,0,0,1,1.48.47A1.68,1.68,0,0,1,70.19,11Z" transform="translate(2.22 2.62)"/><path class="d" d="M75.53,15.66,75,16a4,4,0,0,1-.56.31,4.64,4.64,0,0,1-.66.22,3.76,3.76,0,0,1-.85.08,2.08,2.08,0,0,1-1.43-.49A1.64,1.64,0,0,1,71,14.82a2.46,2.46,0,0,1,.39-1.42,2.69,2.69,0,0,1,1.17-.93A6.49,6.49,0,0,1,74.25,12q1-.14,2.18-.21l0-.12a.81.81,0,0,0,0-.19.63.63,0,0,0-.41-.62,3.26,3.26,0,0,0-1.23-.18,4.63,4.63,0,0,0-1.23.19q-.67.19-1,.31h-.21l.33-1.67q.4-.1,1.22-.23a11,11,0,0,1,1.65-.12A5.19,5.19,0,0,1,78,9.59a1.43,1.43,0,0,1,.77,1.34,3.24,3.24,0,0,1,0,.33,2.76,2.76,0,0,1-.06.35L77.6,16.4H75.36Zm.6-2.58L75,13.2a4.47,4.47,0,0,0-.9.2,1.29,1.29,0,0,0-.59.39,1,1,0,0,0-.2.66.53.53,0,0,0,.27.51,1.65,1.65,0,0,0,.78.15,1.93,1.93,0,0,0,.72-.15,3.46,3.46,0,0,0,.72-.39Z" transform="translate(2.22 2.62)"/><path class="d" d="M85.91,11.51h-.2a2,2,0,0,0-.43-.08l-.54,0a5.23,5.23,0,0,0-1.71.28L81.94,16.4H79.67l1.63-7h2.27l-.24,1a7.41,7.41,0,0,1,1.27-.76,3,3,0,0,1,1.28-.29h.27l.26,0Z" transform="translate(2.22 2.62)"/><path class="d" d="M90,16.6a4.3,4.3,0,0,1-2.78-.8,2.69,2.69,0,0,1-1-2.2,4.72,4.72,0,0,1,.32-1.76,4.19,4.19,0,0,1,.92-1.41,4.11,4.11,0,0,1,1.44-.94,5.09,5.09,0,0,1,1.9-.35,3.76,3.76,0,0,1,2.38.64,2.26,2.26,0,0,1,.8,1.88,4.13,4.13,0,0,1-.08.84,6.74,6.74,0,0,1-.22.81H88.48v.14A1.39,1.39,0,0,0,89,14.6a2.5,2.5,0,0,0,1.58.41,3.94,3.94,0,0,0,1.4-.25,6.55,6.55,0,0,0,1.15-.56h.25L93,16a6.82,6.82,0,0,1-1.39.44A7.81,7.81,0,0,1,90,16.6ZM91.75,12c0-.08,0-.14,0-.21a1.94,1.94,0,0,0,0-.19,1,1,0,0,0-.31-.76,1.33,1.33,0,0,0-.89-.26,1.83,1.83,0,0,0-1.17.38A2.32,2.32,0,0,0,88.7,12Z" transform="translate(2.22 2.62)"/><path class="e" d="M103.64,15.66l-.46.29a4.4,4.4,0,0,1-.59.32,4.17,4.17,0,0,1-.71.24,3.82,3.82,0,0,1-.91.1,1.9,1.9,0,0,1-1.35-.49,1.66,1.66,0,0,1-.52-1.27,2.56,2.56,0,0,1,.37-1.41,2.68,2.68,0,0,1,1.09-.94,5.83,5.83,0,0,1,1.71-.52,17.88,17.88,0,0,1,2.28-.2l.07-.3a1.32,1.32,0,0,0,0-.27.91.91,0,0,0-.12-.49.85.85,0,0,0-.34-.3,1.6,1.6,0,0,0-.51-.15,4.64,4.64,0,0,0-.64,0,5,5,0,0,0-1.22.17,9.06,9.06,0,0,0-1.11.34h-.06l.23-1.18q.36-.09,1-.21a7.75,7.75,0,0,1,1.32-.12,3.75,3.75,0,0,1,2,.41,1.41,1.41,0,0,1,.65,1.29,2.44,2.44,0,0,1,0,.36q0,.19-.07.36l-1.09,4.75h-1.17Zm.68-2.95a16.44,16.44,0,0,0-1.72.15,5.12,5.12,0,0,0-1.24.32,1.75,1.75,0,0,0-.77.56,1.43,1.43,0,0,0-.26.88.82.82,0,0,0,.31.69,1.55,1.55,0,0,0,1,.24,2.93,2.93,0,0,0,1.16-.25,6.26,6.26,0,0,0,1.11-.61Z" transform="translate(2.22 2.62)"/><path class="e" d="M113.92,11a3.81,3.81,0,0,1,0,.41,3.09,3.09,0,0,1-.08.45l-1,4.55h-1.17l.92-4c0-.22.09-.41.12-.58a3,3,0,0,0,0-.49,1.09,1.09,0,0,0-.26-.79,1.3,1.3,0,0,0-.94-.27,2.56,2.56,0,0,0-1.05.26,8.08,8.08,0,0,0-1.12.63l-1.21,5.23H106.9l1.62-7h1.18l-.18.78a7.1,7.1,0,0,1,1.26-.72A3,3,0,0,1,112,9.2a2.05,2.05,0,0,1,1.43.46A1.7,1.7,0,0,1,113.92,11Z" transform="translate(2.22 2.62)"/><path class="e" d="M123,6.65l-2.26,9.76h-1.18l.17-.73a7,7,0,0,1-1.28.74,2.86,2.86,0,0,1-1.06.19,2,2,0,0,1-1.57-.63,2.59,2.59,0,0,1-.58-1.82,5.76,5.76,0,0,1,.31-1.91,5.31,5.31,0,0,1,.85-1.58,4.06,4.06,0,0,1,1.26-1.06,3.2,3.2,0,0,1,1.54-.39,4.2,4.2,0,0,1,1,.12,3.39,3.39,0,0,1,.88.36l.7-3Zm-2.11,4a3.88,3.88,0,0,0-.82-.32,3.47,3.47,0,0,0-.86-.1,2.18,2.18,0,0,0-1.16.31,2.83,2.83,0,0,0-.87.86,3.83,3.83,0,0,0-.51,1.19,5.41,5.41,0,0,0-.18,1.35,1.82,1.82,0,0,0,.33,1.17,1.3,1.3,0,0,0,1.07.4,2.47,2.47,0,0,0,1.07-.26,8,8,0,0,0,1-.58Z" transform="translate(2.22 2.62)"/><path class="e" d="M134.82,9.4l-1.43,6.23a4.8,4.8,0,0,1-1.36,2.6,3.85,3.85,0,0,1-2.62.82,7.4,7.4,0,0,1-1.09-.08,7.1,7.1,0,0,1-1-.22l.27-1.17h.06a5.68,5.68,0,0,0,.95.3,4.77,4.77,0,0,0,1.12.14,2.94,2.94,0,0,0,1-.15,1.92,1.92,0,0,0,.69-.42,2.2,2.2,0,0,0,.43-.61,3.58,3.58,0,0,0,.26-.78l.14-.61a7.26,7.26,0,0,1-1.12.64,3.12,3.12,0,0,1-1.23.21,2.07,2.07,0,0,1-1.6-.62,2.5,2.5,0,0,1-.58-1.76,5.34,5.34,0,0,1,.3-1.77,5.09,5.09,0,0,1,.83-1.52,4,4,0,0,1,1.25-1,3.28,3.28,0,0,1,1.56-.39,3.86,3.86,0,0,1,1.08.14,3.28,3.28,0,0,1,.83.36l.15-.3Zm-1.46,1.26a4.26,4.26,0,0,0-.83-.32,3.24,3.24,0,0,0-.86-.12,2.28,2.28,0,0,0-1.12.28,2.69,2.69,0,0,0-.87.77,3.51,3.51,0,0,0-.54,1.12A4.63,4.63,0,0,0,129,13.7a1.73,1.73,0,0,0,.34,1.14,1.34,1.34,0,0,0,1.09.4,2.76,2.76,0,0,0,1.06-.22,6.47,6.47,0,0,0,1-.55Z" transform="translate(2.22 2.62)"/><path class="e" d="M138.84,16.56a3.48,3.48,0,0,1-2.28-.68,2.45,2.45,0,0,1-.83-2,4.82,4.82,0,0,1,1.22-3.3,3.85,3.85,0,0,1,3-1.38,2.57,2.57,0,0,1,1.82.59,2.17,2.17,0,0,1,.63,1.66,5.2,5.2,0,0,1-.05.6q-.05.41-.17.95H137a3.17,3.17,0,0,0-.05.36c0,.12,0,.23,0,.33a1.81,1.81,0,0,0,.54,1.39,2.15,2.15,0,0,0,1.53.5,4.09,4.09,0,0,0,1.42-.27,5.65,5.65,0,0,0,1.23-.61h.07L141.48,16l-.56.21a5.75,5.75,0,0,1-.64.19l-.69.14A4.65,4.65,0,0,1,138.84,16.56Zm2.35-4.43q0-.18,0-.31c0-.08,0-.18,0-.28a1.44,1.44,0,0,0-.37-1,1.59,1.59,0,0,0-1.18-.38,2.46,2.46,0,0,0-1.58.55,2.72,2.72,0,0,0-.93,1.45Z" transform="translate(2.22 2.62)"/><path class="e" d="M148.43,9.4l-.21,1h-2.43L145,13.58c0,.16-.08.35-.11.56a3.43,3.43,0,0,0,0,.5.91.91,0,0,0,.23.68,1.25,1.25,0,0,0,.86.22,2.59,2.59,0,0,0,.61-.09l.48-.14h.06l-.22,1a7.5,7.5,0,0,1-.75.14,5.18,5.18,0,0,1-.71.06,2.09,2.09,0,0,1-1.34-.38,1.45,1.45,0,0,1-.47-1.2,2.71,2.71,0,0,1,0-.4c0-.13,0-.28.08-.45l.87-3.76h-.8l.21-1h.8l.47-2h1.18l-.47,2Z" transform="translate(2.22 2.62)"/><path class="e" d="M55.69,34.39h-1.3l2-3-1.27-6.59h1.21l1,5.22,3.35-5.22H62Z" transform="translate(2.22 2.62)"/><path class="e" d="M68.89,27.28a5.67,5.67,0,0,1-.29,1.81,4.65,4.65,0,0,1-.81,1.5,4.05,4.05,0,0,1-1.26,1,3.55,3.55,0,0,1-1.67.37,2.6,2.6,0,0,1-1.95-.71,2.68,2.68,0,0,1-.7-2,5.61,5.61,0,0,1,.29-1.79A4.81,4.81,0,0,1,63.33,26a3.89,3.89,0,0,1,1.28-1,3.6,3.6,0,0,1,1.65-.38,2.66,2.66,0,0,1,1.93.69A2.63,2.63,0,0,1,68.89,27.28ZM67,29.93a3.88,3.88,0,0,0,.52-1.16,5.29,5.29,0,0,0,.18-1.39A1.88,1.88,0,0,0,67.25,26a1.54,1.54,0,0,0-1.19-.45,2.07,2.07,0,0,0-1.09.29,2.73,2.73,0,0,0-.83.8,3.85,3.85,0,0,0-.52,1.16,5.21,5.21,0,0,0-.18,1.38,1.92,1.92,0,0,0,.42,1.33,1.52,1.52,0,0,0,1.19.46,2.1,2.1,0,0,0,1.09-.29A2.58,2.58,0,0,0,67,29.93Z" transform="translate(2.22 2.62)"/><path class="e" d="M77.22,24.81l-1.61,7H74.43l.18-.78a8.17,8.17,0,0,1-1.25.71,3,3,0,0,1-1.22.26,2,2,0,0,1-1.41-.45,1.69,1.69,0,0,1-.51-1.33,3,3,0,0,1,0-.41c0-.13,0-.29.08-.46l1-4.55h1.18l-.92,4q-.06.24-.11.56a3.36,3.36,0,0,0-.05.5,1.09,1.09,0,0,0,.27.81,1.3,1.3,0,0,0,.93.27,2.63,2.63,0,0,0,1.06-.27,7.15,7.15,0,0,0,1.1-.62L76,24.81Z" transform="translate(2.22 2.62)"/><path class="e" d="M83.59,26h-.06L83.06,26a4.19,4.19,0,0,0-.52,0,2.78,2.78,0,0,0-1.17.27,7.08,7.08,0,0,0-1.11.64l-1.14,5H77.93l1.6-7h1.19l-.24,1A7.17,7.17,0,0,1,81.9,25,3.07,3.07,0,0,1,83,24.81l.45,0,.4.06Z" transform="translate(2.22 2.62)"/><path class="e" d="M93.18,24.81l-.21,1H90.53L89.78,29q-.06.24-.11.56a3.39,3.39,0,0,0-.05.51.9.9,0,0,0,.23.68,1.25,1.25,0,0,0,.86.22,2.6,2.6,0,0,0,.61-.09l.48-.14h.06l-.22,1q-.35.09-.75.14a5.16,5.16,0,0,1-.71.06,2.09,2.09,0,0,1-1.34-.38,1.45,1.45,0,0,1-.47-1.2,2.83,2.83,0,0,1,0-.4c0-.13,0-.28.08-.45l.87-3.76h-.8l.21-1h.8l.47-2h1.18l-.47,2Z" transform="translate(2.22 2.62)"/><path class="e" d="M99.87,27.28a5.67,5.67,0,0,1-.29,1.81,4.65,4.65,0,0,1-.81,1.5,4.05,4.05,0,0,1-1.26,1,3.55,3.55,0,0,1-1.67.37,2.6,2.6,0,0,1-1.95-.71,2.68,2.68,0,0,1-.7-2,5.61,5.61,0,0,1,.29-1.79A4.81,4.81,0,0,1,94.3,26a3.89,3.89,0,0,1,1.28-1,3.6,3.6,0,0,1,1.65-.38,2.66,2.66,0,0,1,1.93.69A2.63,2.63,0,0,1,99.87,27.28Zm-1.92,2.65a3.88,3.88,0,0,0,.52-1.16,5.29,5.29,0,0,0,.18-1.39A1.88,1.88,0,0,0,98.23,26,1.54,1.54,0,0,0,97,25.6a2.07,2.07,0,0,0-1.09.29,2.73,2.73,0,0,0-.83.8,3.85,3.85,0,0,0-.52,1.16,5.21,5.21,0,0,0-.18,1.38,1.92,1.92,0,0,0,.42,1.33A1.52,1.52,0,0,0,96,31a2.1,2.1,0,0,0,1.09-.29A2.58,2.58,0,0,0,97.95,29.93Z" transform="translate(2.22 2.62)"/><path class="e" d="M107.21,31.81h-1.43l-2.24-3.08-1,.82L102,31.81h-1.19l2.26-9.76h1.19l-1.45,6.26,4.1-3.51h1.55l-4,3.31Z" transform="translate(2.22 2.62)"/><path class="e" d="M111.63,32a3.47,3.47,0,0,1-2.28-.68,2.44,2.44,0,0,1-.83-2,4.81,4.81,0,0,1,1.22-3.3,3.85,3.85,0,0,1,3-1.38,2.57,2.57,0,0,1,1.82.59,2.17,2.17,0,0,1,.63,1.67,5.23,5.23,0,0,1-.05.6q-.05.41-.17.95h-5.16a3.13,3.13,0,0,0-.05.36c0,.12,0,.23,0,.33a1.81,1.81,0,0,0,.54,1.39,2.15,2.15,0,0,0,1.53.5,4.09,4.09,0,0,0,1.42-.27,5.65,5.65,0,0,0,1.23-.61h.07l-.26,1.27-.56.21a5.64,5.64,0,0,1-.64.19l-.69.14A4.72,4.72,0,0,1,111.63,32ZM114,27.55q0-.18,0-.31t0-.28a1.44,1.44,0,0,0-.37-1,1.59,1.59,0,0,0-1.18-.38,2.46,2.46,0,0,0-1.58.55,2.72,2.72,0,0,0-.93,1.46Z" transform="translate(2.22 2.62)"/><path class="e" d="M123,26.41a4,4,0,0,1,0,.41,3.25,3.25,0,0,1-.08.45l-1,4.55h-1.17l.92-4q.07-.33.12-.58a3,3,0,0,0,0-.49,1.09,1.09,0,0,0-.26-.79,1.3,1.3,0,0,0-.94-.27,2.54,2.54,0,0,0-1.05.26,8.07,8.07,0,0,0-1.12.63l-1.21,5.23H116l1.62-7h1.18l-.18.78a7.07,7.07,0,0,1,1.26-.72,3,3,0,0,1,1.21-.25,2.06,2.06,0,0,1,1.43.46A1.7,1.7,0,0,1,123,26.41Z" transform="translate(2.22 2.62)"/><path class="e" d="M126.28,32a4.66,4.66,0,0,1-1.4-.19,5.82,5.82,0,0,1-1-.42l.26-1.26h.06l.34.27a3.13,3.13,0,0,0,.54.3,3.8,3.8,0,0,0,.67.25,3.06,3.06,0,0,0,.81.1,2.53,2.53,0,0,0,1.38-.33,1.07,1.07,0,0,0,.5-1,.59.59,0,0,0-.26-.51,2.19,2.19,0,0,0-.74-.29l-.59-.12-.69-.16a2.24,2.24,0,0,1-1.08-.6,1.38,1.38,0,0,1-.35-1,2,2,0,0,1,.21-.92,2.51,2.51,0,0,1,.63-.78,3.12,3.12,0,0,1,1-.55,4.3,4.3,0,0,1,1.38-.21,5.12,5.12,0,0,1,1.25.16,3.87,3.87,0,0,1,1,.39l-.25,1.2h-.06l-.3-.22a3.55,3.55,0,0,0-.52-.28,3.72,3.72,0,0,0-.63-.21,3.15,3.15,0,0,0-.75-.09,2.24,2.24,0,0,0-1.27.33,1,1,0,0,0-.49.9.67.67,0,0,0,.24.52,1.7,1.7,0,0,0,.73.33l.64.14.65.14a2.24,2.24,0,0,1,1.09.56,1.33,1.33,0,0,1,.37,1,2.09,2.09,0,0,1-.23.94,2.32,2.32,0,0,1-.66.8,3.29,3.29,0,0,1-1.08.56A4.71,4.71,0,0,1,126.28,32Z" transform="translate(2.22 2.62)"/><path class="d" d="M139.19,24.77h1.73l-.34,1.49h-1.66l-1.29,5.56h-2.27l1.29-5.56h-1l.34-1.49h1l0-.18a3.47,3.47,0,0,1,1.05-1.93,3.37,3.37,0,0,1,2.26-.66q.55,0,1,0a6.61,6.61,0,0,1,.7.09l-.37,1.59h-.17l-.41-.1a2.46,2.46,0,0,0-.49-.05,1.38,1.38,0,0,0-.91.25,1.81,1.81,0,0,0-.46.92Z" transform="translate(2.22 2.62)"/><path class="d" d="M148.74,27.35a5.13,5.13,0,0,1-.33,1.86A4.32,4.32,0,0,1,146,31.68a5,5,0,0,1-1.93.35,3.5,3.5,0,0,1-2.41-.75,2.65,2.65,0,0,1-.84-2.08,5.11,5.11,0,0,1,.31-1.79,4.32,4.32,0,0,1,.93-1.49,4.24,4.24,0,0,1,1.46-1,4.94,4.94,0,0,1,1.95-.37,3.53,3.53,0,0,1,2.42.74A2.6,2.6,0,0,1,148.74,27.35Zm-2.93,2.31a3.47,3.47,0,0,0,.44-1,4.73,4.73,0,0,0,.15-1.27,1.55,1.55,0,0,0-.28-1,1.09,1.09,0,0,0-.9-.35,1.51,1.51,0,0,0-.84.23,2.14,2.14,0,0,0-.64.66,3.21,3.21,0,0,0-.4,1,4.85,4.85,0,0,0-.15,1.2,1.4,1.4,0,0,0,.32,1,1.21,1.21,0,0,0,.88.31,1.52,1.52,0,0,0,.78-.22A2,2,0,0,0,145.8,29.65Z" transform="translate(2.22 2.62)"/><path class="d" d="M155.67,26.92h-.2a2,2,0,0,0-.43-.08l-.54,0a5.28,5.28,0,0,0-1.71.28l-1.09,4.71h-2.27l1.63-7h2.27l-.24,1a7.41,7.41,0,0,1,1.27-.76,3,3,0,0,1,1.28-.29h.27l.26,0Z" transform="translate(2.22 2.62)"/><path class="d" d="M164.19,24.77h1.73l-.34,1.49h-1.66l-1.29,5.56h-2.27l1.29-5.56h-1l.34-1.49h1l0-.18a3.47,3.47,0,0,1,1.05-1.93,3.37,3.37,0,0,1,2.26-.66q.55,0,1,0a6.61,6.61,0,0,1,.7.09l-.37,1.59h-.17l-.41-.1a2.46,2.46,0,0,0-.49-.05,1.38,1.38,0,0,0-.91.25,1.81,1.81,0,0,0-.46.92Z" transform="translate(2.22 2.62)"/><path class="d" d="M171.86,26.92h-.2a2,2,0,0,0-.43-.08l-.54,0a5.28,5.28,0,0,0-1.71.28l-1.09,4.71h-2.27l1.63-7h2.27l-.24,1a7.41,7.41,0,0,1,1.27-.76,3,3,0,0,1,1.28-.29h.27l.26,0Z" transform="translate(2.22 2.62)"/><path class="d" d="M176,32a4.3,4.3,0,0,1-2.78-.8,2.68,2.68,0,0,1-1-2.2,4.71,4.71,0,0,1,.32-1.76,4.18,4.18,0,0,1,.92-1.41,4.12,4.12,0,0,1,1.44-.94,5.1,5.1,0,0,1,1.9-.34,3.75,3.75,0,0,1,2.38.64,2.26,2.26,0,0,1,.8,1.88,4.09,4.09,0,0,1-.08.83,6.56,6.56,0,0,1-.22.81h-5.24v.14a1.39,1.39,0,0,0,.51,1.15,2.5,2.5,0,0,0,1.58.41,4,4,0,0,0,1.41-.25,6.51,6.51,0,0,0,1.15-.56h.25l-.42,1.81a6.78,6.78,0,0,1-1.39.44A7.78,7.78,0,0,1,176,32Zm1.73-4.61c0-.08,0-.15,0-.21s0-.13,0-.2a1,1,0,0,0-.31-.76,1.33,1.33,0,0,0-.89-.26,1.83,1.83,0,0,0-1.17.38,2.32,2.32,0,0,0-.72,1.05Z" transform="translate(2.22 2.62)"/><path class="d" d="M184.5,32a4.3,4.3,0,0,1-2.78-.8,2.68,2.68,0,0,1-1-2.2,4.71,4.71,0,0,1,.32-1.76,4.18,4.18,0,0,1,.92-1.41,4.12,4.12,0,0,1,1.44-.94,5.1,5.1,0,0,1,1.9-.34,3.75,3.75,0,0,1,2.38.64,2.26,2.26,0,0,1,.8,1.88,4.09,4.09,0,0,1-.08.83,6.56,6.56,0,0,1-.22.81H183v.14a1.39,1.39,0,0,0,.51,1.15,2.5,2.5,0,0,0,1.58.41,4,4,0,0,0,1.41-.25,6.51,6.51,0,0,0,1.15-.56h.25l-.42,1.81a6.78,6.78,0,0,1-1.39.44A7.78,7.78,0,0,1,184.5,32Zm1.73-4.61c0-.08,0-.15,0-.21s0-.13,0-.2a1,1,0,0,0-.31-.76,1.33,1.33,0,0,0-.89-.26,1.83,1.83,0,0,0-1.17.38,2.32,2.32,0,0,0-.72,1.05Z" transform="translate(2.22 2.62)"/></svg>