<?xml version="1.0" encoding="UTF-8"?>
<svg width="220px" height="40px" viewBox="0 0 220 40" version="1.1" xmlns="http://www.w3.org/2000/svg" xmlns:xlink="http://www.w3.org/1999/xlink">
    <!-- Generator: Sketch 47.1 (45422) - http://www.bohemiancoding.com/sketch -->
    <title>share btn3</title>
    <desc>Created with Sketch.</desc>
    <defs>
        <path d="M20.69,0.965 L20.69,0.957 C31.731,0.957 40.681,9.781 40.681,20.667 C40.681,31.552 31.731,40.377 20.69,40.377 L0.7,40.377 L5.281,33.252 C0.335,27.369 -0.716,19.197 2.584,12.283 C5.884,5.369 12.94,0.958 20.69,0.965 Z M14.323,20.885 C15.031,21.513 16.147,22.05 17.699,22.527 L18.895,17.422 C18.991,17.078 19.016,16.938 19.125,16.643 C19.254,16.172 19.587,15.783 20.037,15.579 C20.939,15.259 21.898,15.119 22.856,15.168 C23.989,15.17 25.115,15.355 26.188,15.719 C27.184,16.042 28.118,16.521 28.957,17.14 L29.02,17.188 L29.848,17.188 L30.993,12.163 L30.819,12.076 C29.819,11.654 28.772,11.35 27.7,11.169 C27.262,11.083 26.8,11.033 26.383,10.972 L27.292,7.091 L21.307,7.091 L20.395,10.972 C18.75,11.177 17.169,11.723 15.755,12.573 C13.823,13.805 12.839,15.514 12.839,17.657 C12.819,18.897 13.364,20.081 14.323,20.885 Z M19.37,26.173 C19.35,26.173 19.33,26.173 19.309,26.173 C18.508,26.173 17.707,26.085 16.925,25.91 C16.241,25.757 15.573,25.545 14.926,25.279 C14.39,25.079 13.876,24.826 13.394,24.522 C13.082,24.316 12.784,24.092 12.498,23.853 L12.427,23.795 L11.595,23.795 L10.366,28.99 L10.536,29.077 C11.648,29.568 12.818,29.92 14.018,30.123 C14.651,30.247 15.268,30.325 15.901,30.399 L15.006,34.23 L20.99,34.23 L21.901,30.337 C23.522,30.125 25.08,29.59 26.484,28.764 L26.463,28.764 C28.425,27.545 29.436,25.849 29.486,23.726 C29.537,22.394 28.912,21.124 27.821,20.338 C26.836,19.683 25.749,19.196 24.601,18.897 L23.314,24.391 C23.205,24.974 22.824,25.474 22.286,25.739 C21.652,26.062 20.66,26.173 19.37,26.173 Z" id="path-1"></path>
    </defs>
    <g id="лендинг" stroke="none" stroke-width="1" fill="none" fill-rule="evenodd">
        <g id="Sharpay-home-Copy" transform="translate(-535.000000, -1246.000000)">
            <g id="share-btn3" transform="translate(535.000000, 1245.000000)">
                <polygon id="Fill-1" fill="#FF9A22" points="60.98 16.6757 58.681 16.6757 59.962 11.1027 57.349 11.1027 56.068 16.6757 53.768 16.6757 55.415 9.5477 62.619 9.5477"></polygon>
                <g id="Group-68" transform="translate(54.000000, 9.320000)">
                    <path d="M14.3745,5.1721 C14.5685,4.8761 14.7155,4.5521 14.8145,4.2011 C14.9145,3.8501 14.9645,3.4221 14.9645,2.9191 C14.9645,2.4831 14.8685,2.1481 14.6795,1.9121 C14.4875,1.6781 14.1865,1.5601 13.7705,1.5601 C13.4495,1.5601 13.1665,1.6381 12.9235,1.7951 C12.6805,1.9521 12.4655,2.1741 12.2785,2.4621 C12.1055,2.7281 11.9695,3.0581 11.8695,3.4521 C11.7705,3.8451 11.7205,4.2501 11.7205,4.6641 C11.7205,5.1511 11.8285,5.4991 12.0445,5.7081 C12.2605,5.9181 12.5565,6.0231 12.9335,6.0231 C13.2085,6.0231 13.4725,5.9471 13.7265,5.7971 C13.9795,5.6471 14.1965,5.4391 14.3745,5.1721 M17.3455,2.8361 C17.3455,3.5051 17.2325,4.1311 17.0085,4.7151 C16.7835,5.2991 16.4685,5.8001 16.0615,6.2191 C15.6395,6.6551 15.1475,6.9901 14.5895,7.2261 C14.0305,7.4601 13.3795,7.5781 12.6345,7.5781 C11.5725,7.5781 10.7585,7.3241 10.1905,6.8161 C9.6235,6.3081 9.3405,5.6061 9.3405,4.7091 C9.3405,4.0741 9.4455,3.4711 9.6575,2.9001 C9.8695,2.3281 10.1825,1.8251 10.5975,1.3891 C10.9995,0.9621 11.4935,0.6241 12.0795,0.3761 C12.6655,0.1291 13.3225,0.0051 14.0505,0.0051 C15.1165,0.0051 15.9325,0.2561 16.4975,0.7571 C17.0625,1.2591 17.3455,1.9521 17.3455,2.8361" id="Fill-2" fill="#FF9A22"></path>
                    <path d="M22.7993,5.8259 L23.7383,1.7829 L22.1873,1.7829 C21.9443,2.5359 21.6503,3.2759 21.3063,4.0039 C20.9623,4.7319 20.6143,5.3389 20.2653,5.8259 L22.7993,5.8259 Z M25.0713,9.1199 L23.0203,9.1199 L23.4323,7.3299 L19.2463,7.3299 L18.8333,9.1199 L16.7813,9.1199 L17.5343,5.8259 L18.1253,5.8259 C18.5913,5.1689 19.0363,4.3429 19.4643,3.3469 C19.8923,2.3519 20.2303,1.3119 20.4803,0.2269 L26.3843,0.2269 L25.0923,5.8259 L25.8313,5.8259 L25.0713,9.1199 Z" id="Fill-4" fill="#FF9A22"></path>
                    <path d="M32.7944,2.8806 C32.8074,2.8036 32.8164,2.7346 32.8234,2.6706 C32.8294,2.6066 32.8334,2.5406 32.8334,2.4726 C32.8334,2.1366 32.7294,1.8796 32.5214,1.7006 C32.3134,1.5226 32.0134,1.4336 31.6224,1.4336 C31.1504,1.4336 30.7544,1.5606 30.4344,1.8156 C30.1124,2.0706 29.8704,2.4256 29.7044,2.8806 L32.7944,2.8806 Z M31.0464,7.5526 C29.8304,7.5526 28.8934,7.2836 28.2324,6.7456 C27.5704,6.2076 27.2404,5.4646 27.2404,4.5156 C27.2404,3.8676 27.3494,3.2726 27.5654,2.7306 C27.7804,2.1886 28.0924,1.7126 28.4984,1.3006 C28.8884,0.9026 29.3754,0.5876 29.9594,0.3546 C30.5444,0.1216 31.1864,0.0056 31.8844,0.0056 C32.9474,0.0056 33.7494,0.2206 34.2894,0.6506 C34.8284,1.0806 35.0994,1.7146 35.0994,2.5546 C35.0994,2.8426 35.0704,3.1246 35.0134,3.4006 C34.9554,3.6756 34.8804,3.9486 34.7874,4.2196 L29.4814,4.2196 L29.4814,4.2936 L29.4814,4.3656 C29.4814,4.8606 29.6554,5.2486 30.0034,5.5276 C30.3514,5.8066 30.8834,5.9466 31.6014,5.9466 C32.1014,5.9466 32.5754,5.8616 33.0234,5.6926 C33.4704,5.5236 33.8594,5.3356 34.1904,5.1276 L34.4444,5.1276 L34.0204,6.9626 C33.5744,7.1566 33.1064,7.3036 32.6154,7.4036 C32.1244,7.5026 31.6014,7.5526 31.0464,7.5526 L31.0464,7.5526 Z" id="Fill-6" fill="#FF9A22"></path>
                    <path d="M42.7368,7.3557 L40.4368,7.3557 L41.7218,1.7827 L39.8618,1.7827 C39.8018,2.0147 39.7388,2.2677 39.6698,2.5407 C39.5998,2.8127 39.5468,3.0217 39.5078,3.1647 C39.3908,3.6427 39.2678,4.0637 39.1378,4.4297 C39.0088,4.7947 38.8748,5.1137 38.7348,5.3837 C38.5068,5.8237 38.2258,6.2107 37.8958,6.5477 C37.5658,6.8837 37.2118,7.1187 36.8348,7.2537 C36.6528,7.3137 36.4868,7.3527 36.3398,7.3717 C36.1908,7.3907 36.0118,7.3997 35.8048,7.3997 C35.6058,7.3997 35.3998,7.3927 35.1888,7.3777 C34.9768,7.3627 34.8518,7.3557 34.8138,7.3557 L35.2388,5.5277 L35.3078,5.5277 C35.3258,5.5277 35.3568,5.5317 35.4038,5.5407 C35.4508,5.5487 35.4948,5.5527 35.5368,5.5527 C35.7958,5.5527 35.9908,5.5207 36.1248,5.4547 C36.2578,5.3887 36.3998,5.2567 36.5518,5.0577 C36.7298,4.8247 36.8928,4.5397 37.0418,4.2007 C37.1898,3.8627 37.3628,3.3127 37.5618,2.5507 C37.6598,2.1827 37.7518,1.8347 37.8388,1.5057 C37.9248,1.1787 38.0318,0.7517 38.1588,0.2277 L44.3748,0.2277 L42.7368,7.3557 Z" id="Fill-8" fill="#FF9A22"></path>
                    <polygon id="Fill-10" fill="#FF9A22" points="52.1226 7.3557 49.9016 7.3557 50.9006 3.0587 46.7696 7.3557 44.8806 7.3557 46.5266 0.2277 48.7416 0.2277 47.8486 4.0677 51.6456 0.2277 53.7696 0.2277"></polygon>
                    <path d="M57.9565,7.5525 C57.4705,7.5525 57.0145,7.4915 56.5885,7.3715 C56.1635,7.2505 55.7925,7.0635 55.4745,6.8095 C55.1655,6.5595 54.9245,6.2455 54.7515,5.8685 C54.5775,5.4915 54.4905,5.0555 54.4905,4.5605 C54.4905,3.9205 54.6125,3.3265 54.8555,2.7785 C55.0995,2.2295 55.4405,1.7505 55.8805,1.3395 C56.3115,0.9365 56.8395,0.6185 57.4615,0.3835 C58.0835,0.1485 58.7565,0.0305 59.4795,0.0305 C59.9155,0.0305 60.3485,0.0795 60.7775,0.1765 C61.2075,0.2735 61.6065,0.4155 61.9745,0.6015 L61.4915,2.5505 L61.1685,2.5505 C60.9185,2.2505 60.6365,2.0265 60.3205,1.8815 C60.0055,1.7345 59.6515,1.6615 59.2575,1.6615 C58.5385,1.6615 57.9605,1.9175 57.5245,2.4275 C57.0895,2.9385 56.8705,3.5755 56.8705,4.3385 C56.8705,4.8675 57.0055,5.2645 57.2735,5.5275 C57.5425,5.7895 57.9605,5.9215 58.5275,5.9215 C58.9685,5.9215 59.3685,5.8315 59.7305,5.6515 C60.0925,5.4715 60.4025,5.2715 60.6605,5.0515 L60.9835,5.0515 L60.5015,7.0005 C60.0445,7.1985 59.6435,7.3415 59.2995,7.4255 C58.9545,7.5105 58.5065,7.5525 57.9565,7.5525" id="Fill-12" fill="#FF9A22"></path>
                    <path d="M67.1284,4.804 C67.1284,4.571 67.0524,4.387 66.8994,4.252 C66.7454,4.117 66.4974,4.049 66.1524,4.049 L64.9744,4.049 L64.5414,5.921 L65.8414,5.921 C66.1124,5.921 66.3384,5.876 66.5174,5.784 C66.6944,5.694 66.8264,5.589 66.9114,5.471 C67.0004,5.339 67.0594,5.216 67.0874,5.099 C67.1144,4.983 67.1284,4.885 67.1284,4.804 M69.5094,4.506 C69.5094,4.971 69.4034,5.403 69.1944,5.801 C68.9844,6.199 68.6964,6.526 68.3274,6.784 C68.0274,6.992 67.7104,7.139 67.3764,7.226 C67.0414,7.312 66.6064,7.356 66.0674,7.356 L61.9234,7.356 L63.5694,0.227 L65.8574,0.227 L65.3074,2.608 L66.9384,2.608 C67.7844,2.608 68.4244,2.776 68.8574,3.113 C69.2914,3.449 69.5094,3.913 69.5094,4.506" id="Fill-14" fill="#FF9A22"></path>
                    <polygon id="Fill-16" fill="#EFEFEF" points="80.9956 7.3557 79.8036 7.3557 81.0396 2.0297 76.1176 7.3557 75.0166 7.3557 76.6546 0.2657 77.8476 0.2657 76.6426 5.4767 81.4996 0.2657 82.6336 0.2657"></polygon>
                    <polygon id="Fill-18" fill="#EFEFEF" points="93.8501 7.3557 92.6451 7.3557 94.0631 1.2177 90.5331 1.2177 89.1151 7.3557 87.9101 7.3557 89.5471 0.2657 95.4811 0.2657"></polygon>
                    <path d="M101.2202,5.4514 C101.4492,5.1134 101.6232,4.7214 101.7432,4.2774 C101.8652,3.8324 101.9252,3.3634 101.9252,2.8684 C101.9252,2.2754 101.7822,1.8264 101.4992,1.5224 C101.2162,1.2174 100.8162,1.0654 100.3002,1.0654 C99.8892,1.0654 99.5212,1.1634 99.1952,1.3604 C98.8692,1.5564 98.5882,1.8264 98.3512,2.1694 C98.1222,2.5044 97.9472,2.8954 97.8242,3.3444 C97.7012,3.7924 97.6402,4.2584 97.6402,4.7404 C97.6402,5.3244 97.7822,5.7734 98.0662,6.0864 C98.3492,6.3994 98.7512,6.5554 99.2712,6.5554 C99.6772,6.5554 100.0462,6.4584 100.3762,6.2634 C100.7062,6.0694 100.9882,5.7984 101.2202,5.4514 M103.1622,2.7724 C103.1622,3.4074 103.0652,4.0164 102.8702,4.6004 C102.6762,5.1844 102.4012,5.6924 102.0452,6.1244 C101.6772,6.5734 101.2512,6.9234 100.7692,7.1754 C100.2862,7.4264 99.7242,7.5524 99.0812,7.5524 C98.2392,7.5524 97.5812,7.3124 97.1102,6.8324 C96.6382,6.3514 96.4022,5.6884 96.4022,4.8424 C96.4022,4.2074 96.4982,3.6024 96.6912,3.0264 C96.8832,2.4514 97.1612,1.9394 97.5262,1.4904 C97.8772,1.0584 98.3082,0.7144 98.8182,0.4554 C99.3272,0.1974 99.8852,0.0684 100.4902,0.0684 C101.3072,0.0684 101.9562,0.3014 102.4392,0.7664 C102.9212,1.2324 103.1622,1.9014 103.1622,2.7724" id="Fill-20" fill="#EFEFEF"></path>
                    <path d="M109.8081,7.3557 L108.6031,7.3557 L110.0171,1.2177 L107.3881,1.2177 C107.2951,1.6067 107.2091,1.9617 107.1311,2.2837 C107.0531,2.6057 106.9781,2.9017 106.9061,3.1727 C106.7621,3.7437 106.6221,4.2267 106.4881,4.6197 C106.3521,5.0137 106.2251,5.3287 106.1071,5.5657 C105.9671,5.8497 105.8361,6.0787 105.7131,6.2537 C105.5901,6.4297 105.4721,6.5767 105.3581,6.6957 C105.0911,6.9797 104.8321,7.1627 104.5801,7.2447 C104.3291,7.3277 104.0661,7.3687 103.7911,7.3687 C103.7191,7.3687 103.6111,7.3667 103.4641,7.3617 C103.3191,7.3577 103.2241,7.3557 103.1821,7.3557 L103.4231,6.3147 L103.4871,6.3147 C103.5161,6.3147 103.5631,6.3167 103.6261,6.3207 C103.6901,6.3257 103.7431,6.3277 103.7851,6.3277 C103.8781,6.3277 103.9881,6.3097 104.1151,6.2737 C104.2421,6.2377 104.3461,6.1857 104.4261,6.1177 C104.6761,5.9107 104.9221,5.5507 105.1651,5.0387 C105.4091,4.5267 105.6541,3.8007 105.8991,2.8617 C105.9791,2.5527 106.0801,2.1477 106.2041,1.6457 C106.3271,1.1447 106.4361,0.6847 106.5341,0.2657 L111.4421,0.2657 L109.8081,7.3557 Z" id="Fill-22" fill="#EFEFEF"></path>
                    <polygon id="Fill-24" fill="#EFEFEF" points="113.4341 9.9709 112.1201 9.9709 114.1821 6.9399 112.9011 0.2649 114.1291 0.2649 115.1301 5.5459 118.5201 0.2649 119.8201 0.2649"></polygon>
                    <path d="M125.3608,7.3557 L124.1548,7.3557 L124.7878,4.6337 C124.4018,4.7427 124.0278,4.8377 123.6658,4.9177 C123.3038,4.9987 122.9258,5.0387 122.5318,5.0387 C121.9478,5.0387 121.4658,4.8957 121.0898,4.6107 C120.7128,4.3247 120.5238,3.9217 120.5238,3.4007 C120.5238,3.2917 120.5328,3.1727 120.5488,3.0457 C120.5668,2.9187 120.5858,2.8047 120.6068,2.7027 L121.1748,0.2657 L122.3818,0.2657 L121.9418,2.1767 C121.9128,2.2947 121.8848,2.4377 121.8598,2.6047 C121.8348,2.7717 121.8218,2.9077 121.8218,3.0137 C121.8218,3.1917 121.8398,3.3417 121.8788,3.4647 C121.9168,3.5867 121.9868,3.6927 122.0888,3.7817 C122.2028,3.8787 122.3308,3.9487 122.4728,3.9917 C122.6148,4.0337 122.8338,4.0547 123.1308,4.0547 C123.3888,4.0547 123.6798,4.0267 124.0048,3.9687 C124.3288,3.9127 124.6588,3.8377 124.9938,3.7457 L125.8008,0.2657 L127.0068,0.2657 L125.3608,7.3557 Z" id="Fill-26" fill="#EFEFEF"></path>
                    <polygon id="Fill-28" fill="#EFEFEF" points="133.6821 7.3557 132.4901 7.3557 133.7261 2.0297 128.8041 7.3557 127.7031 7.3557 129.3411 0.2657 130.5341 0.2657 129.3291 5.4767 134.1861 0.2657 135.3201 0.2657"></polygon>
                    <path d="M2.9419,23.2644 C2.4939,23.2644 2.0959,23.2114 1.7519,23.1054 C1.4069,22.9994 1.1049,22.8324 0.8469,22.6044 C0.5969,22.3844 0.4049,22.1074 0.2699,21.7724 C0.1339,21.4384 0.0669,21.0494 0.0669,20.6044 C0.0669,19.9404 0.1709,19.3204 0.3779,18.7444 C0.5849,18.1694 0.8789,17.6634 1.2599,17.2274 C1.6279,16.8044 2.0829,16.4694 2.6249,16.2224 C3.1669,15.9734 3.7509,15.8504 4.3769,15.8504 C4.7919,15.8504 5.1809,15.9074 5.5469,16.0214 C5.9139,16.1364 6.2369,16.2714 6.5159,16.4284 L6.2549,17.7164 L6.1859,17.7164 C6.1009,17.6404 5.9949,17.5524 5.8679,17.4524 C5.7409,17.3514 5.5909,17.2564 5.4179,17.1684 C5.2439,17.0764 5.0509,16.9994 4.8399,16.9384 C4.6289,16.8774 4.3869,16.8474 4.1159,16.8474 C3.2959,16.8474 2.6259,17.1934 2.1069,17.8854 C1.5879,18.5774 1.3299,19.4204 1.3299,20.4124 C1.3299,21.0074 1.4829,21.4654 1.7899,21.7864 C2.0959,22.1074 2.5339,22.2674 3.0999,22.2674 C3.3679,22.2674 3.6329,22.2304 3.9009,22.1544 C4.1669,22.0784 4.3929,21.9964 4.5799,21.9084 C4.7869,21.8114 4.9789,21.7084 5.1569,21.5994 C5.3349,21.4904 5.4639,21.4084 5.5449,21.3534 L5.6139,21.3534 L5.3599,22.6554 C4.9929,22.8204 4.6029,22.9634 4.1919,23.0834 C3.7819,23.2044 3.3649,23.2644 2.9419,23.2644" id="Fill-30" fill="#EFEFEF"></path>
                    <path d="M12.2407,17.5959 C12.2407,17.4859 12.2187,17.3879 12.1747,17.3009 C12.1297,17.2139 12.0587,17.1409 11.9627,17.0819 C11.8097,16.9929 11.6307,16.9429 11.4237,16.9329 C11.2177,16.9219 10.9337,16.9169 10.5747,16.9169 L9.3967,16.9169 L8.9277,18.9419 L10.4227,18.9419 C10.7607,18.9419 11.0017,18.9309 11.1447,18.9099 C11.2887,18.8889 11.4507,18.8249 11.6327,18.7199 C11.8437,18.5929 11.9977,18.4329 12.0947,18.2409 C12.1917,18.0479 12.2407,17.8329 12.2407,17.5959 M11.9617,20.6939 C11.9617,20.5409 11.9287,20.4019 11.8667,20.2749 C11.8037,20.1479 11.6847,20.0399 11.5117,19.9509 C11.3717,19.8789 11.2017,19.8399 11.0017,19.8329 C10.8007,19.8269 10.5477,19.8239 10.2437,19.8239 L8.7217,19.8239 L8.1697,22.2039 L9.3747,22.2039 C9.8227,22.2039 10.1877,22.1869 10.4707,22.1539 C10.7547,22.1199 10.9937,22.0519 11.1877,21.9499 C11.4547,21.8109 11.6497,21.6379 11.7737,21.4329 C11.8987,21.2279 11.9617,20.9809 11.9617,20.6939 M13.2187,20.6559 C13.2187,21.0619 13.1057,21.4309 12.8827,21.7629 C12.6577,22.0959 12.3857,22.3649 12.0637,22.5729 C11.7387,22.7799 11.4067,22.9209 11.0687,22.9939 C10.7297,23.0689 10.3117,23.1059 9.8127,23.1059 L6.7687,23.1059 L8.4067,16.0149 L11.0627,16.0149 C11.6127,16.0149 12.0097,16.0349 12.2557,16.0749 C12.5007,16.1159 12.7327,16.2009 12.9527,16.3329 C13.1467,16.4509 13.2887,16.5969 13.3777,16.7709 C13.4667,16.9439 13.5107,17.1409 13.5107,17.3609 C13.5107,17.7839 13.3827,18.1599 13.1267,18.4879 C12.8707,18.8159 12.5227,19.0689 12.0837,19.2459 L12.0837,19.2969 C12.4087,19.3819 12.6787,19.5359 12.8947,19.7609 C13.1107,19.9849 13.2187,20.2829 13.2187,20.6559" id="Fill-32" fill="#EFEFEF"></path>
                    <path d="M19.5278,21.2014 C19.7568,20.8634 19.9308,20.4714 20.0508,20.0274 C20.1728,19.5824 20.2328,19.1134 20.2328,18.6184 C20.2328,18.0254 20.0898,17.5764 19.8068,17.2724 C19.5238,16.9674 19.1238,16.8154 18.6078,16.8154 C18.1968,16.8154 17.8288,16.9134 17.5028,17.1104 C17.1768,17.3064 16.8958,17.5764 16.6588,17.9194 C16.4298,18.2544 16.2548,18.6454 16.1318,19.0944 C16.0088,19.5424 15.9478,20.0084 15.9478,20.4904 C15.9478,21.0744 16.0898,21.5234 16.3738,21.8364 C16.6568,22.1494 17.0588,22.3054 17.5788,22.3054 C17.9848,22.3054 18.3538,22.2084 18.6838,22.0134 C19.0138,21.8194 19.2958,21.5484 19.5278,21.2014 M21.4698,18.5224 C21.4698,19.1574 21.3728,19.7664 21.1778,20.3504 C20.9838,20.9344 20.7088,21.4424 20.3528,21.8744 C19.9848,22.3234 19.5588,22.6734 19.0768,22.9254 C18.5938,23.1764 18.0318,23.3024 17.3888,23.3024 C16.5468,23.3024 15.8888,23.0624 15.4178,22.5824 C14.9458,22.1014 14.7098,21.4384 14.7098,20.5924 C14.7098,19.9574 14.8058,19.3524 14.9988,18.7764 C15.1908,18.2014 15.4688,17.6894 15.8338,17.2404 C16.1848,16.8084 16.6158,16.4644 17.1258,16.2054 C17.6348,15.9474 18.1928,15.8184 18.7978,15.8184 C19.6148,15.8184 20.2638,16.0514 20.7468,16.5164 C21.2288,16.9824 21.4698,17.6514 21.4698,18.5224" id="Fill-34" fill="#EFEFEF"></path>
                    <polygon id="Fill-36" fill="#EFEFEF" points="28.3687 23.1057 27.1767 23.1057 28.4127 17.7797 23.4907 23.1057 22.3897 23.1057 24.0277 16.0157 25.2207 16.0157 24.0157 21.2267 28.8727 16.0157 30.0067 16.0157"></polygon>
                    <polygon id="Fill-38" fill="#EFEFEF" points="41.9028 16.9675 39.3418 16.9675 37.9408 23.1055 36.7358 23.1055 38.1378 16.9675 35.5818 16.9675 35.8098 16.0155 42.1318 16.0155"></polygon>
                    <path d="M46.7593,21.2014 C46.9883,20.8634 47.1623,20.4714 47.2823,20.0274 C47.4043,19.5824 47.4643,19.1134 47.4643,18.6184 C47.4643,18.0254 47.3213,17.5764 47.0383,17.2724 C46.7553,16.9674 46.3553,16.8154 45.8393,16.8154 C45.4283,16.8154 45.0603,16.9134 44.7343,17.1104 C44.4083,17.3064 44.1273,17.5764 43.8903,17.9194 C43.6613,18.2544 43.4863,18.6454 43.3633,19.0944 C43.2403,19.5424 43.1793,20.0084 43.1793,20.4904 C43.1793,21.0744 43.3213,21.5234 43.6053,21.8364 C43.8883,22.1494 44.2903,22.3054 44.8103,22.3054 C45.2163,22.3054 45.5853,22.2084 45.9153,22.0134 C46.2453,21.8194 46.5273,21.5484 46.7593,21.2014 M48.7013,18.5224 C48.7013,19.1574 48.6043,19.7664 48.4093,20.3504 C48.2153,20.9344 47.9403,21.4424 47.5843,21.8744 C47.2163,22.3234 46.7903,22.6734 46.3083,22.9254 C45.8253,23.1764 45.2633,23.3024 44.6203,23.3024 C43.7783,23.3024 43.1203,23.0624 42.6493,22.5824 C42.1773,22.1014 41.9413,21.4384 41.9413,20.5924 C41.9413,19.9574 42.0373,19.3524 42.2303,18.7764 C42.4223,18.2014 42.7003,17.6894 43.0653,17.2404 C43.4163,16.8084 43.8473,16.4644 44.3573,16.2054 C44.8663,15.9474 45.4243,15.8184 46.0293,15.8184 C46.8463,15.8184 47.4953,16.0514 47.9783,16.5164 C48.4603,16.9824 48.7013,17.6514 48.7013,18.5224" id="Fill-40" fill="#EFEFEF"></path>
                    <path d="M56.1353,23.1057 L54.6893,23.1057 L52.3213,19.8307 L51.6283,19.8307 L50.8723,23.1057 L49.6673,23.1057 L51.3043,16.0157 L52.5093,16.0157 L51.7983,19.0937 C52.1293,19.0937 52.4323,19.0327 52.7083,18.9097 C52.9843,18.7877 53.2593,18.5417 53.5343,18.1737 C53.6183,18.0637 53.7053,17.9397 53.7943,17.8017 C53.8833,17.6647 53.9663,17.5387 54.0423,17.4247 C54.3223,17.0097 54.6463,16.6707 55.0163,16.4087 C55.3863,16.1467 55.9353,16.0157 56.6623,16.0157 L57.2083,16.0157 L56.9803,17.0117 L56.4843,17.0117 C56.1543,17.0117 55.8733,17.0927 55.6433,17.2527 C55.4123,17.4137 55.1833,17.6677 54.9543,18.0147 C54.6973,18.4037 54.4363,18.7077 54.1733,18.9257 C53.9113,19.1437 53.6513,19.3057 53.3933,19.4117 L56.1353,23.1057 Z" id="Fill-42" fill="#EFEFEF"></path>
                    <path d="M63.0542,18.7893 C63.0752,18.6663 63.0902,18.5623 63.0992,18.4783 C63.1072,18.3933 63.1112,18.3003 63.1112,18.1993 C63.1112,17.7463 62.9882,17.3933 62.7402,17.1393 C62.4922,16.8853 62.0952,16.7583 61.5502,16.7583 C60.9492,16.7583 60.4152,16.9443 59.9502,17.3163 C59.4852,17.6893 59.1692,18.1803 59.0042,18.7893 L63.0542,18.7893 Z M60.6702,23.2703 C59.6902,23.2703 58.9202,23.0403 58.3632,22.5793 C57.8042,22.1173 57.5252,21.4423 57.5252,20.5543 C57.5252,19.2543 57.9352,18.1413 58.7552,17.2123 C59.5752,16.2833 60.5902,15.8183 61.7992,15.8183 C62.6032,15.8183 63.2182,16.0183 63.6452,16.4183 C64.0722,16.8183 64.2852,17.3803 64.2852,18.1033 C64.2852,18.2303 64.2682,18.4323 64.2322,18.7063 C64.1962,18.9813 64.1372,19.3013 64.0572,19.6653 L58.8332,19.6653 C58.8082,19.7883 58.7892,19.9083 58.7792,20.0273 C58.7682,20.1453 58.7632,20.2553 58.7632,20.3573 C58.7632,20.9543 58.9452,21.4223 59.3092,21.7633 C59.6732,22.1033 60.1892,22.2743 60.8582,22.2743 C61.3242,22.2743 61.8022,22.1833 62.2952,22.0013 C62.7882,21.8193 63.2022,21.6143 63.5362,21.3853 L63.6072,21.3853 L63.3462,22.6743 C63.1352,22.7503 62.9452,22.8203 62.7762,22.8833 C62.6072,22.9473 62.3912,23.0103 62.1292,23.0743 C61.8672,23.1373 61.6342,23.1863 61.4312,23.2203 C61.2292,23.2533 60.9752,23.2703 60.6702,23.2703 L60.6702,23.2703 Z" id="Fill-44" fill="#EFEFEF"></path>
                    <polygon id="Fill-46" fill="#EFEFEF" points="71.0005 23.1057 69.7955 23.1057 70.5385 19.8877 67.0085 19.8877 66.2655 23.1057 65.0605 23.1057 66.6975 16.0157 67.9025 16.0157 67.2285 18.9357 70.7585 18.9357 71.4335 16.0157 72.6385 16.0157"></polygon>
                    <path d="M81.3276,23.1057 L80.1226,23.1057 L81.7606,16.0157 L82.9656,16.0157 L81.3276,23.1057 Z M78.2816,20.6237 C78.2816,20.4797 78.2576,20.3497 78.2086,20.2337 C78.1596,20.1167 78.0766,20.0187 77.9576,19.9387 C77.7976,19.8287 77.6096,19.7627 77.3956,19.7417 C77.1816,19.7207 76.8546,19.7097 76.4146,19.7097 L75.3226,19.7097 L74.7436,22.2047 L75.9256,22.2047 C76.3526,22.2047 76.6856,22.1857 76.9256,22.1477 C77.1646,22.1087 77.3776,22.0377 77.5636,21.9317 C77.7926,21.8047 77.9696,21.6267 78.0946,21.3977 C78.2196,21.1697 78.2816,20.9117 78.2816,20.6237 L78.2816,20.6237 Z M79.5386,20.4527 C79.5386,20.8837 79.4326,21.2847 79.2216,21.6557 C79.0096,22.0257 78.7366,22.3187 78.4016,22.5347 C78.0936,22.7377 77.7686,22.8837 77.4286,22.9727 C77.0876,23.0617 76.6676,23.1057 76.1676,23.1057 L73.3376,23.1057 L74.9736,16.0157 L76.1796,16.0157 L75.5326,18.8017 L77.0306,18.8017 C77.5636,18.8017 77.9736,18.8297 78.2596,18.8847 C78.5456,18.9397 78.8126,19.0747 79.0616,19.2907 C79.2236,19.4307 79.3436,19.5997 79.4216,19.7987 C79.4996,19.9977 79.5386,20.2157 79.5386,20.4527 L79.5386,20.4527 Z" id="Fill-48" fill="#EFEFEF"></path>
                    <path d="M94.1001,19.3503 C94.1001,18.9473 93.9831,18.6173 93.7491,18.3583 C93.5161,18.1003 93.1861,17.9703 92.7571,17.9703 C92.5111,17.9703 92.2631,17.9933 92.0131,18.0373 C91.7631,18.0813 91.4811,18.1763 91.1661,18.3203 C91.0821,18.6043 91.0161,18.9253 90.9671,19.2833 C90.9181,19.6423 90.8941,19.9733 90.8941,20.2783 C90.8941,20.7623 91.0141,21.1313 91.2531,21.3883 C91.4931,21.6443 91.8031,21.7723 92.1851,21.7723 C92.3631,21.7723 92.5721,21.7213 92.8121,21.6173 C93.0511,21.5133 93.2581,21.3703 93.4321,21.1873 C93.6391,20.9633 93.8031,20.7003 93.9211,20.3993 C94.0401,20.0983 94.1001,19.7483 94.1001,19.3503 M95.7001,16.9303 C95.9401,17.1373 96.1311,17.3943 96.2701,17.7023 C96.4111,18.0093 96.4801,18.3763 96.4801,18.8043 C96.4801,19.4433 96.3701,20.0423 96.1501,20.5993 C95.9301,21.1563 95.6101,21.6383 95.1921,22.0443 C94.7861,22.4473 94.2981,22.7613 93.7311,22.9883 C93.1641,23.2143 92.5361,23.3283 91.8461,23.3283 C90.7881,23.3283 89.9811,23.0543 89.4241,22.5053 C88.8681,21.9573 88.5901,21.1643 88.5901,20.1263 C88.5901,19.6523 88.6381,19.1573 88.7361,18.6403 C88.8331,18.1233 88.9831,17.5943 89.1861,17.0523 C89.3851,16.5233 89.6281,16.0323 89.9161,15.5793 C90.2041,15.1253 90.5421,14.7423 90.9321,14.4293 C91.3551,14.0863 91.8521,13.8303 92.4241,13.6613 C92.9951,13.4913 93.6211,13.3743 94.3031,13.3113 C94.7171,13.2733 95.2071,13.2413 95.7721,13.2163 C96.3371,13.1903 96.7881,13.1733 97.1271,13.1653 L96.8031,14.8223 C96.5071,14.8343 96.2401,14.8463 96.0001,14.8563 C95.7611,14.8673 95.4941,14.8833 95.1981,14.9043 C94.1401,14.9803 93.4221,15.0783 93.0451,15.1963 C92.6691,15.3153 92.3711,15.4843 92.1511,15.7043 C91.9981,15.8523 91.8631,16.0373 91.7451,16.2573 C91.6261,16.4773 91.5221,16.7443 91.4341,17.0573 C91.8191,16.8323 92.2151,16.6523 92.6231,16.5173 C93.0321,16.3813 93.4441,16.3133 93.8581,16.3133 C94.2271,16.3133 94.5641,16.3633 94.8711,16.4633 C95.1771,16.5623 95.4541,16.7183 95.7001,16.9303" id="Fill-50" fill="#FF9A22"></path>
                    <path d="M102.9409,18.6306 C102.9539,18.5536 102.9629,18.4846 102.9699,18.4206 C102.9759,18.3566 102.9799,18.2906 102.9799,18.2226 C102.9799,17.8866 102.8759,17.6296 102.6679,17.4506 C102.4599,17.2726 102.1599,17.1836 101.7689,17.1836 C101.2969,17.1836 100.9009,17.3106 100.5809,17.5656 C100.2589,17.8206 100.0169,18.1756 99.8509,18.6306 L102.9409,18.6306 Z M101.1929,23.3026 C99.9769,23.3026 99.0399,23.0336 98.3789,22.4956 C97.7169,21.9576 97.3869,21.2146 97.3869,20.2656 C97.3869,19.6176 97.4959,19.0226 97.7119,18.4806 C97.9269,17.9386 98.2389,17.4626 98.6449,17.0506 C99.0349,16.6526 99.5219,16.3376 100.1059,16.1046 C100.6909,15.8716 101.3329,15.7556 102.0309,15.7556 C103.0939,15.7556 103.8959,15.9706 104.4359,16.4006 C104.9749,16.8306 105.2459,17.4646 105.2459,18.3046 C105.2459,18.5926 105.2169,18.8746 105.1599,19.1506 C105.1019,19.4256 105.0269,19.6986 104.9339,19.9696 L99.6279,19.9696 L99.6279,20.0436 L99.6279,20.1156 C99.6279,20.6106 99.8019,20.9986 100.1499,21.2776 C100.4979,21.5566 101.0299,21.6966 101.7479,21.6966 C102.2479,21.6966 102.7219,21.6116 103.1699,21.4426 C103.6169,21.2736 104.0059,21.0856 104.3369,20.8776 L104.5909,20.8776 L104.1669,22.7126 C103.7209,22.9066 103.2529,23.0536 102.7619,23.1536 C102.2709,23.2526 101.7479,23.3026 101.1929,23.3026 L101.1929,23.3026 Z" id="Fill-52" fill="#FF9A22"></path>
                    <path d="M109.4858,23.3025 C108.9998,23.3025 108.5438,23.2415 108.1178,23.1215 C107.6928,23.0005 107.3218,22.8135 107.0038,22.5595 C106.6948,22.3095 106.4538,21.9955 106.2808,21.6185 C106.1068,21.2415 106.0198,20.8055 106.0198,20.3105 C106.0198,19.6705 106.1418,19.0765 106.3848,18.5285 C106.6288,17.9795 106.9698,17.5005 107.4098,17.0895 C107.8408,16.6865 108.3688,16.3685 108.9908,16.1335 C109.6128,15.8985 110.2858,15.7805 111.0088,15.7805 C111.4448,15.7805 111.8778,15.8295 112.3068,15.9265 C112.7368,16.0235 113.1358,16.1655 113.5038,16.3515 L113.0208,18.3005 L112.6978,18.3005 C112.4478,18.0005 112.1658,17.7765 111.8498,17.6315 C111.5348,17.4845 111.1808,17.4115 110.7868,17.4115 C110.0678,17.4115 109.4898,17.6675 109.0538,18.1775 C108.6188,18.6885 108.3998,19.3255 108.3998,20.0885 C108.3998,20.6175 108.5348,21.0145 108.8028,21.2775 C109.0718,21.5395 109.4898,21.6715 110.0568,21.6715 C110.4978,21.6715 110.8978,21.5815 111.2598,21.4015 C111.6218,21.2215 111.9318,21.0215 112.1898,20.8015 L112.5128,20.8015 L112.0308,22.7505 C111.5738,22.9485 111.1728,23.0915 110.8288,23.1755 C110.4838,23.2605 110.0358,23.3025 109.4858,23.3025" id="Fill-54" fill="#FF9A22"></path>
                    <polygon id="Fill-56" fill="#FF9A22" points="120.6646 23.1057 118.3656 23.1057 119.6466 17.5327 117.0336 17.5327 115.7526 23.1057 113.4526 23.1057 115.0996 15.9777 122.3036 15.9777"></polygon>
                    <path d="M129.8882,23.1057 L127.5882,23.1057 L128.8732,17.5327 L127.0132,17.5327 C126.9532,17.7647 126.8902,18.0177 126.8212,18.2907 C126.7512,18.5627 126.6982,18.7717 126.6592,18.9147 C126.5422,19.3927 126.4192,19.8137 126.2892,20.1797 C126.1602,20.5447 126.0262,20.8637 125.8862,21.1337 C125.6582,21.5737 125.3772,21.9607 125.0472,22.2977 C124.7172,22.6337 124.3632,22.8687 123.9862,23.0037 C123.8042,23.0637 123.6382,23.1027 123.4912,23.1217 C123.3422,23.1407 123.1632,23.1497 122.9562,23.1497 C122.7572,23.1497 122.5512,23.1427 122.3402,23.1277 C122.1282,23.1127 122.0032,23.1057 121.9652,23.1057 L122.3902,21.2777 L122.4592,21.2777 C122.4772,21.2777 122.5082,21.2817 122.5552,21.2907 C122.6022,21.2987 122.6462,21.3027 122.6882,21.3027 C122.9472,21.3027 123.1422,21.2707 123.2762,21.2047 C123.4092,21.1387 123.5512,21.0067 123.7032,20.8077 C123.8812,20.5747 124.0442,20.2897 124.1932,19.9507 C124.3412,19.6127 124.5142,19.0627 124.7132,18.3007 C124.8112,17.9327 124.9032,17.5847 124.9902,17.2557 C125.0762,16.9287 125.1832,16.5017 125.3102,15.9777 L131.5262,15.9777 L129.8882,23.1057 Z" id="Fill-58" fill="#FF9A22"></path>
                    <path d="M137.1382,19.7415 C136.7302,19.7755 136.3472,19.8155 135.9902,19.8625 C135.6322,19.9085 135.3282,19.9765 135.0772,20.0655 C134.8182,20.1585 134.6192,20.2895 134.4842,20.4585 C134.3482,20.6285 134.2802,20.8525 134.2802,21.1315 C134.2802,21.3775 134.3702,21.5495 134.5512,21.6485 C134.7322,21.7485 134.9942,21.7985 135.3392,21.7985 C135.5652,21.7985 135.8062,21.7465 136.0642,21.6435 C136.3212,21.5395 136.5622,21.4085 136.7872,21.2475 L137.1382,19.7415 Z M136.5312,22.3515 C136.3862,22.4455 136.2132,22.5575 136.0092,22.6895 C135.8062,22.8215 135.6172,22.9265 135.4452,23.0025 C135.2072,23.1005 134.9852,23.1745 134.7772,23.2255 C134.5702,23.2775 134.2822,23.3025 133.9132,23.3025 C133.3202,23.3025 132.8362,23.1365 132.4612,22.8035 C132.0862,22.4705 131.9002,22.0375 131.9002,21.5035 C131.9002,20.9405 132.0332,20.4625 132.2992,20.0705 C132.5652,19.6785 132.9602,19.3665 133.4852,19.1335 C133.9752,18.9125 134.5602,18.7535 135.2382,18.6565 C135.9162,18.5585 136.6512,18.4865 137.4422,18.4405 C137.4472,18.4145 137.4552,18.3735 137.4692,18.3165 C137.4842,18.2595 137.4912,18.1945 137.4912,18.1225 C137.4912,17.8225 137.3512,17.6115 137.0722,17.4915 C136.7922,17.3705 136.3752,17.3105 135.8222,17.3105 C135.4452,17.3105 135.0302,17.3735 134.5752,17.5005 C134.1192,17.6275 133.7782,17.7335 133.5492,17.8185 L133.3402,17.8185 L133.6772,16.1295 C133.9432,16.0615 134.3562,15.9855 134.9142,15.9015 C135.4732,15.8165 136.0302,15.7745 136.5832,15.7745 C137.7002,15.7745 138.5212,15.9205 139.0432,16.2125 C139.5662,16.5045 139.8272,16.9565 139.8272,17.5705 C139.8272,17.6555 139.8202,17.7655 139.8052,17.9005 C139.7902,18.0355 139.7712,18.1545 139.7452,18.2565 L138.6282,23.1055 L136.3552,23.1055 L136.5312,22.3515 Z" id="Fill-60" fill="#FF9A22"></path>
                    <polygon id="Fill-62" fill="#FF9A22" points="147.8257 17.5325 145.5517 17.5325 144.2657 23.1055 141.9667 23.1055 143.2517 17.5325 140.9827 17.5325 141.3387 15.9775 148.1807 15.9775"></polygon>
                    <polygon id="Fill-64" fill="#FF9A22" points="154.8862 23.1057 152.5862 23.1057 153.2992 20.0207 150.6832 20.0207 149.9732 23.1057 147.6732 23.1057 149.3202 15.9777 151.6132 15.9777 151.0372 18.4787 153.6562 18.4787 154.2332 15.9777 156.5322 15.9777"></polygon>
                    <path d="M162.2798,20.9221 C162.4738,20.6261 162.6208,20.3021 162.7198,19.9511 C162.8198,19.6001 162.8698,19.1721 162.8698,18.6691 C162.8698,18.2331 162.7738,17.8981 162.5848,17.6621 C162.3928,17.4281 162.0918,17.3101 161.6758,17.3101 C161.3548,17.3101 161.0718,17.3881 160.8288,17.5451 C160.5858,17.7021 160.3708,17.9241 160.1838,18.2121 C160.0108,18.4781 159.8748,18.8081 159.7748,19.2021 C159.6758,19.5951 159.6258,20.0001 159.6258,20.4141 C159.6258,20.9011 159.7338,21.2491 159.9498,21.4581 C160.1658,21.6681 160.4618,21.7731 160.8388,21.7731 C161.1138,21.7731 161.3778,21.6971 161.6318,21.5471 C161.8848,21.3971 162.1018,21.1891 162.2798,20.9221 M165.2508,18.5861 C165.2508,19.2551 165.1378,19.8811 164.9138,20.4651 C164.6888,21.0491 164.3738,21.5501 163.9668,21.9691 C163.5448,22.4051 163.0528,22.7401 162.4948,22.9761 C161.9358,23.2101 161.2848,23.3281 160.5398,23.3281 C159.4778,23.3281 158.6638,23.0741 158.0958,22.5661 C157.5288,22.0581 157.2458,21.3561 157.2458,20.4591 C157.2458,19.8241 157.3508,19.2211 157.5628,18.6501 C157.7748,18.0781 158.0878,17.5751 158.5028,17.1391 C158.9048,16.7121 159.3988,16.3741 159.9848,16.1261 C160.5708,15.8791 161.2278,15.7551 161.9558,15.7551 C163.0218,15.7551 163.8378,16.0061 164.4028,16.5071 C164.9678,17.0091 165.2508,17.7021 165.2508,18.5861" id="Fill-66" fill="#FF9A22"></path>
                </g>
                <g id="Group-71" transform="translate(0.000000, 0.320000)">
                    <mask id="mask-2" fill="white">
                        <use xlink:href="#path-1"></use>
                    </mask>
                    <g id="Clip-70"></g>
                    <polygon id="Fill-69" fill="#FE9833" mask="url(#mask-2)" points="-2.217 43.276 43.58 43.276 43.58 -1.942 -2.217 -1.942"></polygon>
                </g>
            </g>
        </g>
    </g>
</svg>