<svg xmlns="http://www.w3.org/2000/svg" viewBox="0 0 387.33 394.72"><defs><style>.a{fill:#71e1f0;}.b{fill:#38c5d8;}.c{fill:#273b7a;}.d{fill:#121249;}.e{fill:#fdecb5;}.f{fill:#282a28;}.g{fill:#494a48;}.h{fill:#d7ebea;}.i{fill:#b4cbcc;}.j{fill:#e6cd88;}.k{fill:#a8bebc;}.l{fill:#8ca2a2;}.m{fill:#3b6895;}.n{fill:#dcac64;}.o{fill:#fad08a;}.p{fill:#4a86e8;}.q{fill-opacity:0;}.r{isolation:isolate;font-size:19.84px;font-family:Verdana, Verdana;}.r,.t{fill:#efefef;}.s,.u,.x,.z{fill:none;}.s,.u{stroke:#efefef;stroke-width:7.67px;}.s,.x{stroke-linejoin:round;}.u,.z{stroke-miterlimit:11.47;}.v{fill:#fc9a34;}.w{fill:#d6ebea;}.x,.z{stroke:#f93;stroke-width:3.83px;}.y{fill:#f93;}</style></defs><title>shema3xhdpi</title><path class="a" d="M51.7,111.14a33.79,33.79,0,0,1-7.3-6.3,37.75,37.75,0,0,1-6.1-9.2,36.44,36.44,0,0,1-3.4-12.1,38.6,38.6,0,0,1,27.2-41.3,37.24,37.24,0,0,1,12.8-1.6,38.47,38.47,0,0,1,22.7,8.7A37.93,37.93,0,0,1,111.1,72a33.1,33.1,0,0,1,.6,8.9c0,.2,0,.5-.2.6-.4,0-.6-.3-.8-.5L89.3,59.64c-.2-.2-.4-.5-.8-.5a1,1,0,0,0-.8-.7,60.34,60.34,0,0,1-9.4-4A11.46,11.46,0,0,0,73.2,53a9.63,9.63,0,0,0-1.7,0,4.85,4.85,0,0,0-4.5,3.1.74.74,0,0,1-.8.4c-3.7.2-5.8,2-6.6,5.6a19.91,19.91,0,0,0-.1,9.4,3.69,3.69,0,0,0-1.5,3.6,10.1,10.1,0,0,0,.3,1.7c0,.5,0,1,.6,1.2,0,.4.4.5.6.8a1.89,1.89,0,0,0,1.9.9c.7-.1.9.3,1.1.7a17.51,17.51,0,0,0,4.2,5.5V91c0,.2.1.4-.2.5-.8.3-1,1.2-1.5,1.8a.75.75,0,0,1-.7.4,1.22,1.22,0,0,0-.9.3H63c-1.8.3-3.6.6-5.4,1a7,7,0,0,0-4.4,3.1,7.58,7.58,0,0,0-1.3,4.4C51.8,105.44,51.8,108.24,51.7,111.14Z"/><path class="b" d="M88.6,59.14c.4,0,.6.3.8.5L110.8,81c.2.2.4.5.8.5a27.19,27.19,0,0,1-.8,6.3,37.55,37.55,0,0,1-7.5,15.4,36.45,36.45,0,0,1-8.7,7.9v-8.7a7.68,7.68,0,0,0-2.1-5.6,6.42,6.42,0,0,0-3-1.9,35,35,0,0,0-6.3-1.2.91.91,0,0,0-.7-.3,1.11,1.11,0,0,1-1-.5c-.5-.6-.8-1.4-1.5-1.8a.62.62,0,0,1-.2-.7c.2-1.8-.5-3.7.6-5.3a21.72,21.72,0,0,0,2.4-2.9c.6-.3,1-.7.9-1.4.1-.2.3-.5.4-.7a1,1,0,0,1,1.2-.7,2,2,0,0,0,1.5-.6,5.93,5.93,0,0,0,1.8-4.9,3.15,3.15,0,0,0-1.5-2.7,17,17,0,0,0,1.8-10.1C88.8,60.64,88.7,59.94,88.6,59.14Z"/><path class="c" d="M51.7,111.14v-8.7a7.59,7.59,0,0,1,5.7-7.5c1.8-.4,3.6-.7,5.4-1h.4c1.3,2.1,2.5,4.3,3.8,6.4,1.6,2.8,3.2,5.5,4.8,8.3.4.6.7,1.2,1.1,1.8a3.09,3.09,0,0,0,.2-.8c-.2-2.6,0-5.2-.1-7.9v-7.4a.37.37,0,0,1,.3.1L75.9,97a4.28,4.28,0,0,1-.9,1.3,2.33,2.33,0,0,0-.6,1.8v8.4c-.1.1-.1.3-.2.4a6.92,6.92,0,0,0-1,1.9,17,17,0,0,0-.1,3.9,13.1,13.1,0,0,1,0,2.8,36.11,36.11,0,0,1-13.4-2.4,37.71,37.71,0,0,1-7.5-3.8A.59.59,0,0,1,51.7,111.14Z"/><path class="d" d="M73,117.74a13.1,13.1,0,0,0,0-2.8,25.41,25.41,0,0,1,.1-3.9,6.92,6.92,0,0,1,1-1.9c.1-.1.1-.3.2-.4,1.7-2.7,3.3-5.4,4.8-8.2l3.9-6.6a35,35,0,0,1,6.3,1.2,6,6,0,0,1,3,1.9,7.3,7.3,0,0,1,2.1,5.6v8.7A36.46,36.46,0,0,1,73,117.74Z"/><path class="e" d="M66.5,85.84a16.15,16.15,0,0,1-4.2-5.5c-.2-.4-.4-.8-1.1-.7a2,2,0,0,1-1.9-.9c-.2-.3-.6-.4-.6-.8a1.43,1.43,0,0,0-.6-1.2,10.1,10.1,0,0,1-.3-1.7c0-1.5.2-2.8,1.5-3.6.3-.2.3-.5.5-.7a12.75,12.75,0,0,1,2.3-3.4c1.4-1.5,2.4-1.6,4-.4a16.19,16.19,0,0,0,6.9,2.9h0c.1.1.2.2.3.2a.49.49,0,0,0-.3.6,4.08,4.08,0,0,1,.1,1.9v16.1H73c-.1-.1-.2-.1-.4-.1a8.49,8.49,0,0,1-4.1-1.2c-.6-.3-1-.9-1.7-1C66.8,86,66.9,85.84,66.5,85.84Z"/><path class="f" d="M88.6,59.14c.1.7.2,1.5.3,2.2a17,17,0,0,1-1.8,10.1c-.3.1-.5-.2-.7-.4a3.78,3.78,0,0,0-2.7-1l-2.5.3a24.79,24.79,0,0,1-7.7-.4.6.6,0,0,0-.4-.1h0V54.14a2.15,2.15,0,0,1,.2-1.1,11.46,11.46,0,0,1,5.1,1.4,48.29,48.29,0,0,0,9.4,4A1.34,1.34,0,0,1,88.6,59.14Z"/><path class="g" d="M73.2,53a4.25,4.25,0,0,0-.2,1.1v15.7a19.15,19.15,0,0,1-6.9-2.9c-1.6-1.2-2.6-1.1-4,.4a15.65,15.65,0,0,0-2.3,3.4c-.1.3-.2.6-.5.7a19.93,19.93,0,0,1,.1-9.4c.8-3.6,3-5.4,6.6-5.6.4,0,.7,0,.8-.4.8-2,2.5-2.8,4.5-3.1C72,52.94,72.6,53,73.2,53Z"/><path class="h" d="M66.5,85.84c.3,0,.3.2.3.4v4.2a1.8,1.8,0,0,0,1.3,1.7,42.48,42.48,0,0,1,4.9,2.1v.3c-.8.8-1.6,1.6-2.4,2.3-.1.1-.3.3-.2.5-.4-.1-.5.2-.8.4-.9.9-1.8,1.7-2.7,2.6-1.3-2.1-2.5-4.3-3.8-6.4.3-.2.6-.4.9-.3a.75.75,0,0,0,.7-.4c.5-.6.7-1.4,1.5-1.8.2-.1.2-.3.2-.5A29,29,0,0,0,66.5,85.84Z"/><path class="i" d="M58.1,76.84a1.43,1.43,0,0,1,.6,1.2C58.1,77.84,58.1,77.34,58.1,76.84Z"/><path class="j" d="M73.5,70a24.79,24.79,0,0,0,7.7.4,21.3,21.3,0,0,1,2.5-.3,4.49,4.49,0,0,1,2.7,1c.2.2.3.5.7.4a3,3,0,0,1,1.5,2.7,6,6,0,0,1-1.8,4.9,1.72,1.72,0,0,1-1.5.6c-.7-.1-.9.2-1.2.7-.1.2-.3.5-.4.7-.4.4-.9.8-.9,1.4a21.72,21.72,0,0,1-2.4,2.9,2,2,0,0,0-.9.9,6,6,0,0,0-1.1.6,8.4,8.4,0,0,1-5.3,1.7V72.54a4.08,4.08,0,0,0-.1-1.9c-.1-.3.1-.4.3-.6Z"/><path class="k" d="M73.1,94.44v-.2a.1.1,0,0,0,.1-.1c2.1-1,4.3-1.7,6.3-2.8H80c.7.4,1,1.2,1.5,1.8a1,1,0,0,0,1,.5.91.91,0,0,1,.7.3l-3.9,6.6c-.1-.3-.3-.4-.5-.6L76,97.14l-2.6-2.6A.37.37,0,0,0,73.1,94.44Z"/><path class="l" d="M80,91.44h-.5v-.1a16.12,16.12,0,0,0,.1-3.8,2.46,2.46,0,0,0-.1-1.2h0a2,2,0,0,1,.9-.9c-1.1,1.7-.4,3.6-.6,5.3A1.45,1.45,0,0,0,80,91.44Z"/><path class="l" d="M82.8,82.54c0-.6.5-1,.9-1.4A1.37,1.37,0,0,1,82.8,82.54Z"/><path class="i" d="M67,100.44c.9-.9,1.8-1.7,2.7-2.6.2-.2.4-.5.8-.4s.4.5.7.8a2.74,2.74,0,0,1,.8,2.3c-.1,2.5,0,4.9,0,7.4,0,.3.1.6-.1.8C70.2,105.94,68.6,103.14,67,100.44Z"/><path class="l" d="M76,97.14l2.8,2.8c.2.2.4.3.5.6-1.6,2.8-3.1,5.5-4.8,8.2v-8.4a2.33,2.33,0,0,1,.6-1.8A11,11,0,0,0,76,97.14Z"/><path class="m" d="M71.8,108.64c.2-.2.1-.5.1-.8v-7.4a3.09,3.09,0,0,0-.8-2.3,5,5,0,0,0-.7-.8.37.37,0,0,1,.2-.5c.8-.8,1.6-1.6,2.4-2.3v7.3c0,2.6-.1,5.2.1,7.9a4.5,4.5,0,0,1-.2.8A11.78,11.78,0,0,0,71.8,108.64Z"/><path class="n" d="M79.5,91.24v.1c-2.1,1.1-4.3,1.8-6.3,2.8a9.85,9.85,0,0,1-.2-1.7v-3.8h.1a10.09,10.09,0,0,0,5.3-1.7c.3-.2.6-.6,1.1-.6h0Z"/><path class="o" d="M73,88.74v3.8a5,5,0,0,0,.2,1.7h-.1a42.48,42.48,0,0,0-4.9-2.1,1.8,1.8,0,0,1-1.3-1.7v-4.2a9.5,9.5,0,0,1,1.7,1,7.3,7.3,0,0,0,4.1,1.2C72.8,88.54,72.9,88.54,73,88.74Z"/><path class="g" d="M73.5,70c-.1,0-.1,0-.2.1s-.2-.1-.3-.2C73.2,69.84,73.4,69.84,73.5,70Z"/><path class="k" d="M79.5,91.24v-5c.3.4.1.8.1,1.2A16,16,0,0,1,79.5,91.24Z"/><path class="p" d="M268.3,78.84a38.91,38.91,0,0,1,2.9-14.7,38.4,38.4,0,0,1,20.7-20.7,38.71,38.71,0,0,1,29.4,0A38.4,38.4,0,0,1,342,64.14a38.71,38.71,0,0,1,0,29.4,38.4,38.4,0,0,1-20.7,20.7,38.71,38.71,0,0,1-29.4,0,38.4,38.4,0,0,1-20.7-20.7A38.91,38.91,0,0,1,268.3,78.84Z"/><rect class="q" x="271.6" y="59.24" width="88.4" height="38.7"/><text class="r" transform="translate(277.98 84.66)">w</text><text class="r" transform="translate(297.41 84.66)">w</text><text class="r" transform="translate(316.84 84.66)">w</text><line class="s" x1="345.1" y1="117.14" x2="336.4" y2="108.34"/><polygon class="t" points="343.1 101.74 318.4 89.94 329.7 114.94 343.1 101.74"/><polygon class="u" points="343.1 101.74 318.4 89.94 329.7 114.94 343.1 101.74"/><rect class="q" y="152.74" width="76.7" height="76.7"/><path class="a" d="M17.4,223.54a33.79,33.79,0,0,1-7.3-6.3A37.75,37.75,0,0,1,4,208a36.44,36.44,0,0,1-3.4-12.1,37.72,37.72,0,0,1,6.2-25.7,37.84,37.84,0,0,1,21-15.6A37.24,37.24,0,0,1,40.6,153a38.47,38.47,0,0,1,22.7,8.7,37.93,37.93,0,0,1,13.5,22.7,33.1,33.1,0,0,1,.6,8.9c0,.2,0,.5-.2.6-.4,0-.6-.3-.8-.5L55,172c-.2-.2-.4-.5-.8-.5a1,1,0,0,0-.8-.7,60.34,60.34,0,0,1-9.4-4,11.46,11.46,0,0,0-5.1-1.4,9.63,9.63,0,0,0-1.7,0,4.85,4.85,0,0,0-4.5,3.1.74.74,0,0,1-.8.4c-3.7.2-5.8,2-6.6,5.6a19.91,19.91,0,0,0-.1,9.4,3.69,3.69,0,0,0-1.5,3.6,10.1,10.1,0,0,0,.3,1.7c0,.5,0,1,.6,1.2,0,.4.4.5.6.8a1.89,1.89,0,0,0,1.9.9c.7-.1.9.3,1.1.7a17.51,17.51,0,0,0,4.2,5.5v5.1c0,.2.1.4-.2.5-.8.3-1,1.2-1.5,1.8a.75.75,0,0,1-.7.4,1.22,1.22,0,0,0-.9.3h-.4c-1.8.3-3.6.6-5.4,1a7,7,0,0,0-4.4,3.1,7.58,7.58,0,0,0-1.3,4.4C17.4,217.74,17.4,220.64,17.4,223.54Z"/><path class="b" d="M54.2,171.54c.4,0,.6.3.8.5l21.4,21.4c.2.2.4.5.8.5a27.19,27.19,0,0,1-.8,6.3,37.55,37.55,0,0,1-7.5,15.4,36.45,36.45,0,0,1-8.7,7.9v-8.7a7.68,7.68,0,0,0-2.1-5.6,6.42,6.42,0,0,0-3-1.9,35,35,0,0,0-6.3-1.2.91.91,0,0,0-.7-.3,1.11,1.11,0,0,1-1-.5c-.5-.6-.8-1.4-1.5-1.8a.62.62,0,0,1-.2-.7c.2-1.8-.5-3.7.6-5.3a21.72,21.72,0,0,0,2.4-2.9c.6-.3,1-.7.9-1.4.1-.2.3-.5.4-.7a1,1,0,0,1,1.2-.7,2,2,0,0,0,1.5-.6,5.93,5.93,0,0,0,1.8-4.9,3.15,3.15,0,0,0-1.5-2.7,17,17,0,0,0,1.8-10.1C54.4,173,54.3,172.24,54.2,171.54Z"/><path class="c" d="M17.4,223.54v-8.7a6.92,6.92,0,0,1,1.3-4.4,7,7,0,0,1,4.4-3.1c1.8-.4,3.6-.7,5.4-1h.4c1.3,2.1,2.5,4.3,3.8,6.4,1.6,2.8,3.2,5.5,4.8,8.3.4.6.7,1.2,1.1,1.8a3.09,3.09,0,0,0,.2-.8c-.2-2.6,0-5.2-.1-7.9v-7.4a.37.37,0,0,1,.3.1l2.6,2.6a4.28,4.28,0,0,1-.9,1.3,2.33,2.33,0,0,0-.6,1.8v8.4c-.1.1-.1.3-.2.4a6.92,6.92,0,0,0-1,1.9,17,17,0,0,0-.1,3.9,13.1,13.1,0,0,1,0,2.8,36.11,36.11,0,0,1-13.4-2.4,37.71,37.71,0,0,1-7.5-3.8A.59.59,0,0,1,17.4,223.54Z"/><path class="d" d="M38.7,230a13.1,13.1,0,0,0,0-2.8,25.41,25.41,0,0,1,.1-3.9,6.92,6.92,0,0,1,1-1.9c.1-.1.1-.3.2-.4,1.7-2.7,3.3-5.4,4.8-8.2l3.9-6.6a35,35,0,0,1,6.3,1.2,6,6,0,0,1,3,1.9,7.3,7.3,0,0,1,2.1,5.6v8.7A36.45,36.45,0,0,1,38.7,230Z"/><path class="e" d="M32.2,198.24a16.15,16.15,0,0,1-4.2-5.5c-.2-.4-.4-.8-1.1-.7a2,2,0,0,1-1.9-.9c-.2-.3-.6-.4-.6-.8a1.43,1.43,0,0,0-.6-1.2,10.11,10.11,0,0,1-.3-1.7c0-1.5.2-2.8,1.5-3.6.3-.2.3-.5.5-.7a12.75,12.75,0,0,1,2.3-3.4c1.4-1.5,2.4-1.6,4-.4a16.19,16.19,0,0,0,6.9,2.9h0c.1.1.2.2.3.2a.49.49,0,0,0-.3.6,4.08,4.08,0,0,1,.1,1.9V201h-.1c-.1-.1-.2-.1-.4-.1a8.49,8.49,0,0,1-4.1-1.2c-.6-.3-1-.9-1.7-1C32.5,198.44,32.5,198.14,32.2,198.24Z"/><path class="f" d="M54.2,171.54c.1.7.2,1.5.3,2.2a17,17,0,0,1-1.8,10.1c-.3.1-.5-.2-.7-.4a3.78,3.78,0,0,0-2.7-1l-2.5.3a24.79,24.79,0,0,1-7.7-.4.6.6,0,0,0-.4-.1h0v-15.7a2.15,2.15,0,0,1,.2-1.1,11.46,11.46,0,0,1,5.1,1.4,48.29,48.29,0,0,0,9.4,4A1,1,0,0,1,54.2,171.54Z"/><path class="g" d="M38.9,165.34a4.25,4.25,0,0,0-.2,1.1v15.7a19.15,19.15,0,0,1-6.9-2.9c-1.6-1.2-2.6-1.1-4,.4a15.65,15.65,0,0,0-2.3,3.4c-.1.3-.2.6-.5.7a19.93,19.93,0,0,1,.1-9.4c.8-3.6,3-5.4,6.6-5.6.4,0,.7,0,.8-.4.8-2,2.5-2.8,4.5-3.1A12.75,12.75,0,0,0,38.9,165.34Z"/><path class="h" d="M32.2,198.24c.3,0,.3.2.3.4v4.2a1.8,1.8,0,0,0,1.3,1.7,42.48,42.48,0,0,1,4.9,2.1v.3c-.8.8-1.6,1.6-2.4,2.3-.1.1-.3.3-.2.5-.4-.1-.5.2-.8.4-.9.9-1.8,1.7-2.7,2.6-1.3-2.1-2.5-4.3-3.8-6.4.3-.2.6-.4.9-.3a.75.75,0,0,0,.7-.4c.5-.6.7-1.4,1.5-1.8.2-.1.2-.3.2-.5C32.2,201.64,32.2,199.94,32.2,198.24Z"/><path class="i" d="M23.8,189.14a1.43,1.43,0,0,1,.6,1.2C23.8,190.14,23.8,189.64,23.8,189.14Z"/><path class="j" d="M39.2,182.34a24.79,24.79,0,0,0,7.7.4,21.3,21.3,0,0,1,2.5-.3,4.49,4.49,0,0,1,2.7,1c.2.2.3.5.7.4a3,3,0,0,1,1.5,2.7,6,6,0,0,1-1.8,4.9,1.72,1.72,0,0,1-1.5.6c-.7-.1-.9.2-1.2.7-.1.2-.3.5-.4.7-.4.4-.9.8-.9,1.4a21.72,21.72,0,0,1-2.4,2.9,2,2,0,0,0-.9.9,6,6,0,0,0-1.1.6,8.4,8.4,0,0,1-5.3,1.7v-16.1a4.08,4.08,0,0,0-.1-1.9c-.1-.3.1-.4.3-.6Z"/><path class="k" d="M38.7,206.74v-.2a.1.1,0,0,0,.1-.1c2.1-1,4.3-1.7,6.3-2.8h.5c.7.4,1,1.2,1.5,1.8a1,1,0,0,0,1,.5.91.91,0,0,1,.7.3l-3.9,6.6c-.1-.3-.3-.4-.5-.6l-2.8-2.8-2.6-2.6C39,206.74,38.9,206.74,38.7,206.74Z"/><path class="l" d="M45.7,203.74h-.5v-.1a16.12,16.12,0,0,0,.1-3.8,2.46,2.46,0,0,0-.1-1.2h0a2,2,0,0,1,.9-.9c-1.1,1.7-.4,3.6-.6,5.3A.62.62,0,0,0,45.7,203.74Z"/><path class="l" d="M48.5,194.84c0-.6.5-1,.9-1.4C49.5,194.14,49.1,194.54,48.5,194.84Z"/><path class="i" d="M32.7,212.74c.9-.9,1.8-1.7,2.7-2.6.2-.2.4-.5.8-.4s.4.5.7.8a2.74,2.74,0,0,1,.8,2.3c-.1,2.5,0,4.9,0,7.4,0,.3.1.6-.1.8C35.9,218.24,34.3,215.54,32.7,212.74Z"/><path class="l" d="M41.6,209.44l2.8,2.8c.2.2.4.3.5.6-1.6,2.8-3.1,5.5-4.8,8.2v-8.4a2.33,2.33,0,0,1,.6-1.8A4.19,4.19,0,0,0,41.6,209.44Z"/><path class="m" d="M37.5,221c.2-.2.1-.5.1-.8v-7.4a3.09,3.09,0,0,0-.8-2.3,5,5,0,0,0-.7-.8.37.37,0,0,1,.2-.5c.8-.8,1.6-1.6,2.4-2.3v7.3c0,2.6-.1,5.2.1,7.9a4.5,4.5,0,0,1-.2.8A16,16,0,0,0,37.5,221Z"/><path class="n" d="M45.2,203.54v.1c-2.1,1.1-4.3,1.8-6.3,2.8a9.85,9.85,0,0,1-.2-1.7v-3.8h.1a10.09,10.09,0,0,0,5.3-1.7c.3-.2.6-.6,1.1-.6h0Z"/><path class="o" d="M38.7,201v3.8a5,5,0,0,0,.2,1.7h-.1a42.48,42.48,0,0,0-4.9-2.1,1.8,1.8,0,0,1-1.3-1.7v-4.2a9.5,9.5,0,0,1,1.7,1,7.3,7.3,0,0,0,4.1,1.2C38.5,200.84,38.6,200.84,38.7,201Z"/><path class="g" d="M39.2,182.34c-.1,0-.1,0-.2.1s-.2-.1-.3-.2A.9.9,0,0,1,39.2,182.34Z"/><path class="k" d="M45.2,203.54v-5c.3.4.1.8.1,1.2A16,16,0,0,1,45.2,203.54Z"/><path class="v" d="M145.7,192.24v-1.6c.4-.2.2-.7.3-1a44.2,44.2,0,0,1,19.3-34.8,47.58,47.58,0,0,1,19.9-7.7,46.44,46.44,0,0,1,18.9,1.5,49.41,49.41,0,0,1,15.5,7.9c6.6,4.9,11,11.6,14.1,19.2a41.74,41.74,0,0,1,2.7,12.6,44.33,44.33,0,0,1-26.8,43.6,49.55,49.55,0,0,1-18.9,3.9H146.1c.4-.6.6-1,.9-1.5,2.9-4.5,5.8-8.9,8.7-13.4a1.64,1.64,0,0,0-.1-2.4,38.16,38.16,0,0,1-4.5-6.8,41.62,41.62,0,0,1-4.8-16.9C146,194,146.3,193,145.7,192.24ZM184.9,222h5.9c.7,0,1-.1,1.1-.9.5-2.4,1.1-4.7,1.6-7.1a1.28,1.28,0,0,1,1.2-1.1,20.34,20.34,0,0,0,7.3-2c4.1-2,7.3-4.8,8.4-9.4,1.2-5.3-.1-9.1-5-11.9a35.68,35.68,0,0,0-4.5-1.9c-.8-.3-1.1-.2-1.4.7-.8,3.7-1.7,7.4-2.6,11.2a4.7,4.7,0,0,1-3.7,3.7,23.18,23.18,0,0,1-8.7.3,22.5,22.5,0,0,1-11.8-4.9,1.44,1.44,0,0,0-2.5.9c-.7,3.1-1.4,6.1-2.2,9.2-.4,1.5-.4,1.5,1.1,2.1a29,29,0,0,0,9.6,2.1c1.6.1,1.5.2,1.2,1.7-.5,2.1-.9,4.3-1.5,6.4-.2.8,0,.9.8.9C181.1,221.94,183,222,184.9,222Zm14.4-61.4h-5.6c-.9,0-1.2.3-1.3,1.1-.5,2.2-1,4.5-1.5,6.7a1.48,1.48,0,0,1-1.3,1.3,27.85,27.85,0,0,0-6.8,2c-3.6,1.7-6.8,3.8-8.4,7.7-1.8,4.5-1,9.1,2.2,12.3,2,2,4.8,2.6,7.3,3.6.4.2.6-.1.7-.5.2-.8.4-1.7.6-2.5.6-2.3,1-4.6,1.7-6.8.3-1,.4-2.2.8-3.3a3.55,3.55,0,0,1,2.8-2.6,22.24,22.24,0,0,1,12,.2,23.6,23.6,0,0,1,7,3.3c1.4,1,2.3.6,2.7-1.1.7-2.9,1.3-5.7,2.1-8.5.3-1,0-1.4-.9-1.8a46.71,46.71,0,0,0-8.2-2c-.9-.1-1-.4-.8-1.2.5-2.3,1-4.5,1.6-6.8.3-1-.1-1-.9-1C203,160.74,201.1,160.64,199.3,160.64Z"/><path class="a" d="M70.2,265.14h5.9c.1.1.3.1.4.2a36.75,36.75,0,0,1,9.3,2,38.44,38.44,0,0,1,25.9,37.8,1.8,1.8,0,0,1-.2,1c-.4,0-.6-.3-.8-.5l-21.4-21.4c-.2-.2-.5-.6-.9-.6a1,1,0,0,0-.8-.7,60.34,60.34,0,0,1-9.4-4,11.46,11.46,0,0,0-5.1-1.4,7.52,7.52,0,0,0-1.5,0c-2.1.2-3.9,1-4.8,3.1-.2.4-.4.4-.8.4a7.53,7.53,0,0,0-2.9.6c-2.4,1-3.4,3-4,5.4a19.55,19.55,0,0,0,0,9c-.2.4-.7.4-1,.9a5.22,5.22,0,0,0-.2,4.4c0,.5,0,1,.6,1.2a2.7,2.7,0,0,0,2.4,1.7,1.06,1.06,0,0,1,1.2.8,17.11,17.11,0,0,0,4.2,5.4v5c0,.2,0,.5-.2.6-.5.2-.6.6-.9.9-.5.6-.8,1.4-1.8,1.3-.1,0-.3.2-.4.2h-.4c-1.8.3-3.6.6-5.4,1a7,7,0,0,0-4.4,3.1,7.5,7.5,0,0,0-1.2,4.4v8.6a36,36,0,0,1-8.4-7.6,38.18,38.18,0,0,1-8.4-28.7,35.91,35.91,0,0,1,4.6-14.3,38.71,38.71,0,0,1,16.5-15.8,39.51,39.51,0,0,1,10.7-3.5A13.61,13.61,0,0,0,70.2,265.14Z"/><path class="b" d="M111.6,306.14a22,22,0,0,1-.8,6.2,38,38,0,0,1-7.4,15.4,38.9,38.9,0,0,1-8.7,8v-8.6a7.24,7.24,0,0,0-2.2-5.6,6.72,6.72,0,0,0-3-1.8,33.63,33.63,0,0,0-6.2-1.1.86.86,0,0,0-.6-.3c-.6.1-.8-.2-1.1-.6-.4-.6-.7-1.3-1.4-1.6-.1-.2-.2-.3-.2-.5.2-1.8-.5-3.7.6-5.5a19.64,19.64,0,0,0,3.7-5,.92.92,0,0,1,1.1-.7,2,2,0,0,0,1.6-.6,5,5,0,0,0,1.6-2.9c.3-1.8.4-3.6-1.4-4.7a16.55,16.55,0,0,0,1.9-8.7c-.1-1.2-.3-2.4-.4-3.6.4,0,.6.3.9.6l21.4,21.4C111,305.84,111.2,306.14,111.6,306.14Z"/><path class="c" d="M73,342.24a37.46,37.46,0,0,1-13.2-2.3A40.6,40.6,0,0,1,52,336c-.1-.1-.3-.2-.4-.3v-8.6a7.5,7.5,0,0,1,1.2-4.4,7,7,0,0,1,4.4-3.1c1.8-.4,3.6-.7,5.4-1H63c1.3,2.1,2.5,4.3,3.8,6.4,1.6,2.7,3.2,5.5,4.8,8.2.3.6.7,1.1,1.1,1.8.4-.6.1-1.1.1-1.7v-10.7a20.45,20.45,0,0,0,0-3.5V319a.37.37,0,0,1,.3.1l2.6,2.6a3.81,3.81,0,0,1-.9,1.3,2.81,2.81,0,0,0-.7,1.9v8.4c-.1.2-.1.3-.2.5-.2.7-.9,1.2-1,1.9a25.41,25.41,0,0,0-.1,3.9A4.57,4.57,0,0,1,73,342.24Z"/><path class="e" d="M66.5,310.34a17.11,17.11,0,0,1-4.2-5.4,1.13,1.13,0,0,0-1.2-.8,2.55,2.55,0,0,1-2.4-1.7,1.43,1.43,0,0,0-.6-1.2,6.07,6.07,0,0,1,.2-4.4c.2-.5.8-.5,1-.9.3-.2.3-.5.5-.7a14.61,14.61,0,0,1,2.2-3.3c1.4-1.6,2.4-1.7,4.2-.5a17.54,17.54,0,0,0,6.9,2.9h0c.1.1.2.2.3.2a.49.49,0,0,0-.3.6,6.08,6.08,0,0,1,.1,1.9v16.1h-.1a.75.75,0,0,0-.5-.1,8.37,8.37,0,0,1-3.8-1.1,6.7,6.7,0,0,0-1.8-1.1C66.8,310.54,66.8,310.34,66.5,310.34Z"/><path class="f" d="M88.6,283.74c.1,1.2.4,2.4.4,3.6a16.34,16.34,0,0,1-1.9,8.7c-.3.1-.5-.2-.7-.4a3.78,3.78,0,0,0-2.7-1l-2.5.3a24.79,24.79,0,0,1-7.7-.4.6.6,0,0,0-.4-.1h0v-15.7a2.15,2.15,0,0,1,.2-1.1,11.46,11.46,0,0,1,5.1,1.4,48.29,48.29,0,0,0,9.4,4A1.34,1.34,0,0,1,88.6,283.74Z"/><path class="g" d="M73.2,277.54a4.25,4.25,0,0,0-.2,1.1v15.7a19.15,19.15,0,0,1-6.9-2.9c-1.8-1.2-2.8-1.2-4.2.5a14.61,14.61,0,0,0-2.2,3.3c-.1.3-.2.6-.5.7a21,21,0,0,1,0-9c.5-2.4,1.6-4.4,4-5.4a7.17,7.17,0,0,1,2.9-.6.91.91,0,0,0,.8-.4c.9-2.1,2.6-2.9,4.8-3.1A7.57,7.57,0,0,0,73.2,277.54Z"/><path class="w" d="M66.5,310.34c.3,0,.3.2.3.4v4c0,1.3.2,1.4,1.4,1.9a33.33,33.33,0,0,1,4.8,2.1v.3c-.8.8-1.6,1.6-2.4,2.3-.1.1-.3.3-.2.5-.4-.1-.6.2-.8.5-.9.8-1.7,1.7-2.6,2.6-1.3-2.1-2.5-4.3-3.8-6.4.1-.1.3-.3.4-.2,1,.1,1.3-.7,1.8-1.3.3-.3.4-.8.9-.9.3-.1.2-.4.2-.6A45.1,45.1,0,0,0,66.5,310.34Z"/><path class="i" d="M58.1,301.34a1.43,1.43,0,0,1,.6,1.2C58.1,302.34,58.1,301.84,58.1,301.34Z"/><path class="d" d="M73,342.24a12.19,12.19,0,0,0,0-2.7,25.41,25.41,0,0,1,.1-3.9c.1-.7.8-1.2,1-1.9.1-.2.1-.3.2-.5,1.7-2.7,3.3-5.4,4.8-8.2l3.9-6.6a42.3,42.3,0,0,1,6.2,1.1,6.55,6.55,0,0,1,3,1.8,7.94,7.94,0,0,1,2.2,5.6v8.6a36.4,36.4,0,0,1-11.7,5.3A28.15,28.15,0,0,1,73,342.24Z"/><path class="j" d="M73.5,294.54a24.79,24.79,0,0,0,7.7.4,21.3,21.3,0,0,1,2.5-.3,4.49,4.49,0,0,1,2.7,1c.2.2.3.5.7.4,1.8,1.1,1.7,2.9,1.4,4.7a5.58,5.58,0,0,1-1.6,2.9,2,2,0,0,1-1.6.6c-.7-.1-.9.2-1.1.7a18.57,18.57,0,0,1-3.7,5,2,2,0,0,0-.9.9,6,6,0,0,0-1.1.6,8.32,8.32,0,0,1-5.2,1.7V297a6.08,6.08,0,0,0-.1-1.9c-.1-.3.1-.4.3-.6Q73.35,294.54,73.5,294.54Z"/><path class="k" d="M83.1,318.44,79.2,325c-.1-.3-.3-.4-.5-.6l-2.8-2.8L73.3,319a.37.37,0,0,0-.3-.1v-.2a.1.1,0,0,0,.1-.1c2.1-1,4.3-1.7,6.3-2.8h.5c.7.4.9,1.1,1.4,1.6.3.4.6.7,1.1.6A1.4,1.4,0,0,1,83.1,318.44Z"/><path class="l" d="M80,315.94h-.5v-.1a12.17,12.17,0,0,0,.1-3.3c0-.5.2-1.1-.1-1.6h0a2,2,0,0,1,.9-.9c-1.1,1.7-.4,3.7-.6,5.5Z"/><path class="i" d="M67,324.94l2.6-2.6c.2-.2.4-.5.8-.5a4.11,4.11,0,0,1,1.5,3.5c-.1,2.3,0,4.7,0,7,0,.3.1.6-.1.8C70.2,330.44,68.6,327.74,67,324.94Z"/><path class="l" d="M76,321.64c.9.9,1.8,1.9,2.8,2.8a2.65,2.65,0,0,1,.5.6c-1.6,2.8-3.1,5.5-4.8,8.2v-8.4a2.28,2.28,0,0,1,.7-1.9A14.81,14.81,0,0,0,76,321.64Z"/><path class="m" d="M71.8,333.24c.2-.2.1-.5.1-.8,0-2.3-.1-4.7,0-7a4.54,4.54,0,0,0-1.5-3.5.37.37,0,0,1,.2-.5c.8-.8,1.6-1.6,2.4-2.3a20.45,20.45,0,0,1,0,3.5v10.7a3.34,3.34,0,0,1-.1,1.7A14.19,14.19,0,0,0,71.8,333.24Z"/><path class="n" d="M79.5,315.74v.1c-2.1,1.1-4.2,1.8-6.3,2.8A7.77,7.77,0,0,1,73,317v-4h.1a8.75,8.75,0,0,0,5.2-1.7c.3-.2.6-.6,1.1-.6h0C79.5,312.44,79.5,314.14,79.5,315.74Z"/><path class="o" d="M73,313.24v4a4.68,4.68,0,0,0,.2,1.6.1.1,0,0,0-.1.1,41,41,0,0,0-4.8-2.1c-1.2-.5-1.4-.7-1.4-1.9v-4a10.81,10.81,0,0,1,1.8,1.1,7.58,7.58,0,0,0,3.8,1.1C72.7,313,72.9,313,73,313.24Z"/><path class="g" d="M73.5,294.54a.1.1,0,0,0-.1.1c-.1,0-.2-.1-.3-.2C73.2,294.34,73.4,294.44,73.5,294.54Z"/><path class="k" d="M79.5,315.74v-5c.3.5.1,1.1.1,1.6A12.79,12.79,0,0,1,79.5,315.74Z"/><path class="c" d="M187,77.14a4.15,4.15,0,0,0-1.6-.3,37.56,37.56,0,0,1-16.5-6.1l-.2-.2v-8.7a7.63,7.63,0,0,1,2.4-5.7,5.3,5.3,0,0,1,2.8-1.6,44.8,44.8,0,0,1,6.2-1.1c1.3,2.1,2.5,4.3,3.8,6.4,1.6,2.8,3.2,5.5,4.8,8.3.4.6.7,1.2,1.1,1.8a3.09,3.09,0,0,0,.2-.8c-.2-2.6,0-5.2-.1-7.9v-7.4a.37.37,0,0,1,.3.1l2.6,2.6a4.28,4.28,0,0,1-.9,1.3,2.33,2.33,0,0,0-.6,1.8V68a5.07,5.07,0,0,1-.9,1.6,2.4,2.4,0,0,0-.4,1.6c0,1.7,0,3.4.1,5,0,.3-.2.5,0,.8C189.1,77.14,188.1,77.14,187,77.14Z"/><path class="d" d="M190.2,77.14c-.2-.3,0-.5,0-.8,0-1.7-.1-3.4-.1-5a3.17,3.17,0,0,1,.4-1.6,5.07,5.07,0,0,0,.9-1.6c1.7-2.7,3.3-5.4,4.8-8.2l3.9-6.6h.5c1.7.3,3.5.6,5.2,1a7.41,7.41,0,0,1,5.8,7.1v9.2a36.4,36.4,0,0,1-11.7,5.3,34.26,34.26,0,0,1-6.4,1.1c-.1,0-.3,0-.3.1Z"/><path class="a" d="M180.2,53.34a42.3,42.3,0,0,0-6.2,1.1,7.08,7.08,0,0,0-2.8,1.6,7.63,7.63,0,0,0-2.4,5.7v8.7a34.82,34.82,0,0,1-7.6-6.7,36.82,36.82,0,0,1-5.8-8.9,38.57,38.57,0,0,1-3.4-11.9,37.72,37.72,0,0,1,6.2-25.7,37.84,37.84,0,0,1,21-15.6A37.24,37.24,0,0,1,192,0a38.47,38.47,0,0,1,22.7,8.7,37.93,37.93,0,0,1,13.5,22.7,33.1,33.1,0,0,1,.6,8.9c0,.2,0,.5-.2.6-.4,0-.6-.3-.8-.5L206.4,19c-.2-.2-.4-.5-.8-.5a1,1,0,0,0-.8-.7,60.34,60.34,0,0,1-9.4-4,11.46,11.46,0,0,0-5.1-1.4,9.63,9.63,0,0,0-1.7,0,5,5,0,0,0-4.5,3.1.74.74,0,0,1-.8.4c-3.7.2-5.8,2-6.6,5.6a21.29,21.29,0,0,0-.1,9.4,3.69,3.69,0,0,0-1.5,3.6,10.1,10.1,0,0,0,.3,1.7c0,.5,0,1,.6,1.2,0,.4.4.5.6.8a2,2,0,0,0,1.8.9c.8-.2,1,.2,1.2.7a17.51,17.51,0,0,0,4.2,5.5v5c0,.2.1.5-.2.6-.6.2-.7.7-1,1-.5.5-.7,1.4-1.7,1.2C180.6,53,180.4,53.24,180.2,53.34Z"/><path class="b" d="M205.6,18.54c.4,0,.6.3.8.5l21.4,21.4c.2.2.4.5.8.5a27.19,27.19,0,0,1-.8,6.3,37.62,37.62,0,0,1-7.4,15.3,38.9,38.9,0,0,1-8.7,8v-9.2a7.33,7.33,0,0,0-5.8-7.1c-1.7-.4-3.4-.7-5.2-1h-.5a.91.91,0,0,0-.7-.3,1.11,1.11,0,0,1-1-.5c-.5-.6-.8-1.4-1.5-1.8a.62.62,0,0,1-.2-.7c.2-1.8-.5-3.7.6-5.3a21.19,21.19,0,0,0,3.8-5.1c.2-.4.4-.8,1.1-.7a1.74,1.74,0,0,0,1.6-.6,5.93,5.93,0,0,0,1.8-4.9,3.15,3.15,0,0,0-1.5-2.7,17,17,0,0,0,1.8-10.1A10.08,10.08,0,0,1,205.6,18.54Z"/><path class="w" d="M180.2,53.34c.2-.1.4-.3.5-.3,1,.2,1.2-.7,1.7-1.2.3-.4.4-.9,1-1,.3-.1.2-.4.2-.6v-5c.3,0,.3.2.3.4V50c0,.5,0,.8.6,1.1a10.09,10.09,0,0,0,1.5.7c1.4.6,2.8,1.1,4.1,1.8v.3c-.8.8-1.6,1.6-2.4,2.3-.1.1-.3.3-.2.5-.4-.1-.5.2-.8.4-.9.9-1.8,1.7-2.7,2.6C182.8,57.64,181.5,55.44,180.2,53.34Z"/><path class="k" d="M190.1,53.84v-.2h.1c2.1-1,4.3-1.7,6.3-2.8h.5c.7.4,1,1.2,1.5,1.8a1,1,0,0,0,1,.5.91.91,0,0,1,.7.3L196.3,60c-.1-.3-.3-.4-.5-.6l-2.8-2.8L190.4,54C190.3,53.84,190.2,53.74,190.1,53.84Z"/><path class="i" d="M184,59.74c.9-.9,1.8-1.7,2.7-2.6.2-.2.4-.5.8-.4s.4.5.7.8a2.74,2.74,0,0,1,.8,2.3c-.1,2.5,0,4.9,0,7.4,0,.3.1.6-.1.8C187.2,65.24,185.6,62.54,184,59.74Z"/><path class="l" d="M193,56.44l2.8,2.8c.2.2.4.3.5.6-1.6,2.8-3.1,5.5-4.8,8.2v-8.4a2.33,2.33,0,0,1,.6-1.8A4.83,4.83,0,0,0,193,56.44Z"/><path class="m" d="M188.8,68c.2-.2.1-.5.1-.8v-7.4a3.09,3.09,0,0,0-.8-2.3,5,5,0,0,0-.7-.8.37.37,0,0,1,.2-.5c.8-.8,1.6-1.6,2.4-2.3v7.3c0,2.6-.1,5.2.1,7.9a4.5,4.5,0,0,1-.2.8A11.78,11.78,0,0,0,188.8,68Z"/><path class="e" d="M183.9,45.64c0-.2,0-.4-.3-.4a15,15,0,0,1-4.2-5.5,1,1,0,0,0-1.2-.7,1.82,1.82,0,0,1-1.8-.9c-.2-.3-.6-.4-.6-.8a1.43,1.43,0,0,0-.6-1.2,10.1,10.1,0,0,1-.3-1.7c0-1.5.2-2.8,1.5-3.6.3-.2.3-.5.5-.7a12.75,12.75,0,0,1,2.3-3.4c1.4-1.5,2.4-1.6,4-.4a16.19,16.19,0,0,0,6.9,2.9h0c.1.1.2.2.3.2a.49.49,0,0,0-.3.6,4.08,4.08,0,0,1,.1,1.9V48h-.1c-.1-.1-.2-.1-.4-.1a8.49,8.49,0,0,1-4.1-1.2A8.16,8.16,0,0,0,183.9,45.64Z"/><path class="f" d="M205.6,18.54c.1.7.2,1.5.3,2.2a17,17,0,0,1-1.8,10.1c-.3.1-.5-.2-.7-.4a3.78,3.78,0,0,0-2.7-1l-2.5.3a24.79,24.79,0,0,1-7.7-.4.6.6,0,0,0-.4-.1h0V13.54a2.15,2.15,0,0,1,.2-1.1,11.46,11.46,0,0,1,5.1,1.4,48.29,48.29,0,0,0,9.4,4A1.34,1.34,0,0,1,205.6,18.54Z"/><path class="g" d="M190.2,12.34a4.25,4.25,0,0,0-.2,1.1v15.7a19.15,19.15,0,0,1-6.9-2.9c-1.6-1.2-2.6-1.1-4,.4a15.65,15.65,0,0,0-2.3,3.4c-.1.3-.2.6-.5.7a21.32,21.32,0,0,1,.1-9.4c.8-3.6,3-5.4,6.6-5.6.4,0,.7,0,.8-.4.8-2,2.5-2.8,4.5-3.1A12.75,12.75,0,0,0,190.2,12.34Z"/><path class="i" d="M175.1,36.14a1.43,1.43,0,0,1,.6,1.2C175.1,37.14,175.1,36.64,175.1,36.14Z"/><path class="j" d="M190.5,29.34a24.79,24.79,0,0,0,7.7.4,21.3,21.3,0,0,1,2.5-.3,4.49,4.49,0,0,1,2.7,1c.2.2.3.5.7.4a3,3,0,0,1,1.5,2.7,6,6,0,0,1-1.8,4.9,1.91,1.91,0,0,1-1.6.6c-.6-.1-.8.2-1.1.7a18.86,18.86,0,0,1-3.8,5.1,2,2,0,0,0-.9.9,6,6,0,0,0-1.1.6A8.4,8.4,0,0,1,190,48V31.94a4.08,4.08,0,0,0-.1-1.9c-.1-.3.1-.4.3-.6S190.4,29.34,190.5,29.34Z"/><path class="l" d="M196.5,45.64a2,2,0,0,1,.9-.9c-1.1,1.7-.4,3.6-.6,5.3a1.45,1.45,0,0,0,.2.7h-.5v-.1a16.12,16.12,0,0,0,.1-3.8,1.29,1.29,0,0,0-.1-1.2Z"/><path class="o" d="M183.9,45.64a9.5,9.5,0,0,1,1.7,1,7.3,7.3,0,0,0,4.1,1.2c.2,0,.3,0,.4.1.1,1.8-.2,3.7.2,5.5h-.1c-1.3-.7-2.7-1.2-4.1-1.8a10.09,10.09,0,0,1-1.5-.7c-.6-.3-.6-.6-.6-1.1C183.9,48.54,183.9,47,183.9,45.64Z"/><path class="n" d="M190.2,53.54A50.55,50.55,0,0,1,190,48h.1a10.09,10.09,0,0,0,5.3-1.7c.3-.2.6-.6,1.1-.6h0v5.1C194.5,51.84,192.3,52.54,190.2,53.54Z"/><path class="g" d="M190.5,29.34c-.1,0-.1,0-.2.1s-.2-.1-.3-.2A.75.75,0,0,1,190.5,29.34Z"/><path class="k" d="M196.5,50.64v-5c.3.4.1.8.1,1.2A16.25,16.25,0,0,1,196.5,50.64Z"/><path class="p" d="M306,191.14a38.91,38.91,0,0,1,2.9-14.7,38.4,38.4,0,0,1,20.7-20.7,38.71,38.71,0,0,1,29.4,0,38.4,38.4,0,0,1,20.7,20.7,38.71,38.71,0,0,1,0,29.4,38.4,38.4,0,0,1-20.7,20.7,38.71,38.71,0,0,1-29.4,0,38.4,38.4,0,0,1-20.7-20.7A38.91,38.91,0,0,1,306,191.14Z"/><rect class="q" x="309.2" y="171.54" width="88.4" height="38.7"/><text class="r" transform="translate(315.62 196.98)">w</text><text class="r" transform="translate(335.05 196.98)">w</text><text class="r" transform="translate(354.48 196.98)">w</text><line class="s" x1="382.7" y1="229.54" x2="374.1" y2="220.64"/><polygon class="t" points="380.7 214.14 356 202.34 367.4 227.24 380.7 214.14"/><polygon class="u" points="380.7 214.14 356 202.34 367.4 227.24 380.7 214.14"/><path class="p" d="M268.3,303.44a38.91,38.91,0,0,1,2.9-14.7A38.4,38.4,0,0,1,291.9,268a38.71,38.71,0,0,1,29.4,0,38.4,38.4,0,0,1,20.7,20.7,38.71,38.71,0,0,1,0,29.4,38.4,38.4,0,0,1-20.7,20.7,38.91,38.91,0,0,1-14.7,2.9,38.24,38.24,0,0,1-38.3-38.3Z"/><rect class="q" x="271.6" y="283.84" width="88.4" height="38.7"/><text class="r" transform="translate(277.97 309.31)">w</text><text class="r" transform="translate(297.4 309.31)">w</text><text class="r" transform="translate(316.83 309.31)">w</text><line class="s" x1="345.1" y1="341.84" x2="336.4" y2="332.94"/><polygon class="t" points="343.1 326.44 318.4 314.64 329.7 339.54 343.1 326.44"/><polygon class="u" points="343.1 326.44 318.4 314.64 329.7 339.54 343.1 326.44"/><path class="p" d="M151.4,352a37.41,37.41,0,0,1,6.5-21.3,37,37,0,0,1,17.2-14.1,37.57,37.57,0,0,1,22.2-2.2,38.42,38.42,0,0,1,30.1,30.1,38.42,38.42,0,0,1-37.6,45.9,38.91,38.91,0,0,1-14.7-2.9,38.4,38.4,0,0,1-20.7-20.7,36.29,36.29,0,0,1-3-14.8Z"/><rect class="q" x="154.6" y="332.44" width="88.4" height="38.7"/><text class="r" transform="translate(160.96 357.89)">w</text><text class="r" transform="translate(180.4 357.89)">w</text><text class="r" transform="translate(199.83 357.89)">w</text><line class="s" x1="228.1" y1="390.44" x2="219.4" y2="381.54"/><polygon class="t" points="226.1 375.04 201.4 363.24 212.7 388.14 226.1 375.04"/><polygon class="u" points="226.1 375.04 201.4 363.24 212.7 388.14 226.1 375.04"/><line class="x" x1="189.7" y1="99.94" x2="189.7" y2="114.94"/><polygon class="y" points="194.4 99.94 189.7 87.04 185 99.94 194.4 99.94"/><polygon class="z" points="194.4 99.94 189.7 87.04 185 99.94 194.4 99.94"/><polygon class="y" points="185 114.94 189.7 127.84 194.4 114.94 185 114.94"/><polygon class="z" points="185 114.94 189.7 127.84 194.4 114.94 185 114.94"/><line class="x" x1="189.7" y1="271.14" x2="189.7" y2="286.24"/><polygon class="y" points="194.4 271.14 189.7 258.34 185 271.14 194.4 271.14"/><polygon class="z" points="194.4 271.14 189.7 258.34 185 271.14 194.4 271.14"/><polygon class="y" points="185 286.24 189.7 299.14 194.4 286.24 185 286.24"/><polygon class="z" points="185 286.24 189.7 299.14 194.4 286.24 185 286.24"/><line class="x" x1="262.1" y1="129.44" x2="251.7" y2="140.34"/><polygon class="y" points="265.5 132.64 271 120.14 258.7 126.24 265.5 132.64"/><polygon class="z" points="265.5 132.64 271 120.14 258.7 126.24 265.5 132.64"/><polygon class="y" points="248.3 137.14 242.8 149.64 255.1 143.64 248.3 137.14"/><polygon class="z" points="248.3 137.14 242.8 149.64 255.1 143.64 248.3 137.14"/><line class="x" x1="126.3" y1="248.14" x2="115.9" y2="259.04"/><polygon class="y" points="129.7 251.34 135.2 238.84 122.9 244.94 129.7 251.34"/><polygon class="z" points="129.7 251.34 135.2 238.84 122.9 244.94 129.7 251.34"/><polygon class="y" points="112.5 255.84 107 268.34 119.3 262.34 112.5 255.84"/><polygon class="z" points="112.5 255.84 107 268.34 119.3 262.34 112.5 255.84"/><line class="x" x1="262.8" y1="254.04" x2="250.2" y2="242.84"/><polygon class="y" points="259.6 257.54 272.3 262.64 265.9 250.54 259.6 257.54"/><polygon class="z" points="259.6 257.54 272.3 262.64 265.9 250.54 259.6 257.54"/><polygon class="y" points="253.3 239.34 240.6 234.24 247.1 246.24 253.3 239.34"/><polygon class="z" points="253.3 239.34 240.6 234.24 247.1 246.24 253.3 239.34"/><line class="x" x1="129.4" y1="140.54" x2="116.8" y2="129.24"/><polygon class="y" points="126.2 144.04 138.9 149.14 132.5 137.04 126.2 144.04"/><polygon class="z" points="126.2 144.04 138.9 149.14 132.5 137.04 126.2 144.04"/><polygon class="y" points="119.9 125.84 107.2 120.64 113.7 132.74 119.9 125.84"/><polygon class="z" points="119.9 125.84 107.2 120.64 113.7 132.74 119.9 125.84"/><line class="x" x1="283.3" y1="190.94" x2="267.3" y2="190.94"/><polygon class="y" points="283.3 195.54 296.2 190.94 283.3 186.24 283.3 195.54"/><polygon class="z" points="283.3 195.54 296.2 190.94 283.3 186.24 283.3 195.54"/><polygon class="y" points="267.3 186.24 254.5 190.94 267.3 195.54 267.3 186.24"/><polygon class="z" points="267.3 186.24 254.5 190.94 267.3 195.54 267.3 186.24"/><line class="x" x1="115.4" y1="190.94" x2="99.4" y2="190.94"/><polygon class="y" points="115.4 195.54 128.3 190.94 115.4 186.24 115.4 195.54"/><polygon class="z" points="115.4 195.54 128.3 190.94 115.4 186.24 115.4 195.54"/><polygon class="y" points="99.4 186.24 86.5 190.94 99.4 195.54 99.4 186.24"/><polygon class="z" points="99.4 186.24 86.5 190.94 99.4 195.54 99.4 186.24"/></svg>