<?xml version="1.0" encoding="utf-8"?>
<!-- Generator: Adobe Illustrator 21.0.2, SVG Export Plug-In . SVG Version: 6.00 Build 0)  -->
<svg version="1.1" id="Слой_1" xmlns="http://www.w3.org/2000/svg" xmlns:xlink="http://www.w3.org/1999/xlink" x="0px" y="0px"
	 viewBox="0 0 420.9 416.4" style="enable-background:new 0 0 420.9 416.4;" xml:space="preserve">
<style type="text/css">
	.st0{fill:#71E1F0;}
	.st1{fill:#38C5D8;}
	.st2{fill:#273B7A;}
	.st3{fill:#121249;}
	.st4{fill:#FDECB5;}
	.st5{fill:#282A28;}
	.st6{fill:#494A48;}
	.st7{fill:#D7EBEA;}
	.st8{fill:#B4CBCC;}
	.st9{fill:#E6CD88;}
	.st10{fill:#A8BEBC;}
	.st11{fill:#8CA2A2;}
	.st12{fill:#3B6895;}
	.st13{fill:#DCAC64;}
	.st14{fill:#FAD08A;}
	.st15{fill-rule:evenodd;clip-rule:evenodd;fill:#4A86E8;}
	.st16{opacity:0;}
	.st17{fill:#EFEFEF;}
	.st18{font-family:'Verdana';}
	.st19{font-size:19.8396px;}
	.st20{fill:none;stroke:#EFEFEF;stroke-width:7.6689;stroke-linejoin:round;}
	.st21{fill-rule:evenodd;clip-rule:evenodd;fill:#EFEFEF;}
	.st22{fill:none;stroke:#EFEFEF;stroke-width:7.6689;stroke-miterlimit:11.47;}
	.st23{fill:#FC9A34;}
	.st24{fill:#D6EBEA;}
	.st25{fill:none;stroke:#FF9933;stroke-width:3.8345;stroke-linejoin:round;}
	.st26{fill-rule:evenodd;clip-rule:evenodd;fill:#FF9933;}
	.st27{fill:none;stroke:#FF9933;stroke-width:3.8345;stroke-miterlimit:11.47;}
</style>
<g>
	<g>
		<g>
			<path class="st0" d="M65.7,125c-2.8-1.7-5.1-3.9-7.3-6.3c-2.5-2.8-4.5-5.8-6.1-9.2c-1.8-3.8-3-7.9-3.4-12.1
				c-1-9.3,1-17.9,6.2-25.7c5.1-7.7,12.2-12.9,21-15.6c4.2-1.3,8.5-1.8,12.8-1.6c8.5,0.5,16.1,3.3,22.7,8.7
				c7.2,5.9,11.7,13.5,13.5,22.7c0.6,2.9,0.8,5.9,0.6,8.9c0,0.2,0,0.5-0.2,0.6c-0.4,0-0.6-0.3-0.8-0.5c-7.1-7.1-14.3-14.3-21.4-21.4
				c-0.2-0.2-0.4-0.5-0.8-0.5c-0.1-0.4-0.4-0.6-0.8-0.7c-3.3-1.1-6.4-2.4-9.4-4c-1.6-0.9-3.3-1.3-5.1-1.4c-0.6,0-1.2-0.1-1.7,0
				c-2,0.2-3.7,1-4.5,3.1c-0.2,0.4-0.5,0.4-0.8,0.4c-3.7,0.2-5.8,2-6.6,5.6c-0.7,3.1-0.9,6.2-0.1,9.4c-1.3,0.9-1.6,2.2-1.5,3.6
				c0,0.6,0.2,1.1,0.3,1.7c0,0.5,0,1,0.6,1.2c0,0.4,0.4,0.5,0.6,0.8c0.4,0.7,1.2,1,1.9,0.9c0.7-0.1,0.9,0.3,1.1,0.7
				c1,2.2,2.5,3.9,4.2,5.5c0,1.7,0,3.4,0,5.1c0,0.2,0.1,0.4-0.2,0.5c-0.8,0.3-1,1.2-1.5,1.8c-0.2,0.3-0.4,0.4-0.7,0.4
				c-0.4,0-0.7,0.1-0.9,0.3c-0.1,0-0.3,0-0.4,0c-1.8,0.3-3.6,0.6-5.4,1c-1.9,0.4-3.3,1.5-4.4,3.1c-0.9,1.3-1.3,2.8-1.3,4.4
				C65.8,119.3,65.8,122.1,65.7,125z"/>
			<path class="st1" d="M102.6,73c0.4,0,0.6,0.3,0.8,0.5c7.1,7.1,14.3,14.3,21.4,21.4c0.2,0.2,0.4,0.5,0.8,0.5
				c0.1,2.1-0.4,4.2-0.8,6.3c-1.3,5.7-3.8,10.8-7.5,15.4c-2.5,3.1-5.3,5.7-8.7,7.9c0-2.9,0-5.8,0-8.7c0-2.2-0.6-4-2.1-5.6
				c-0.9-0.9-1.8-1.6-3-1.9c-2.1-0.6-4.2-1-6.3-1.2c-0.2-0.2-0.4-0.3-0.7-0.3c-0.4,0-0.7-0.1-1-0.5c-0.5-0.6-0.8-1.4-1.5-1.8
				c-0.2-0.2-0.3-0.4-0.2-0.7c0.2-1.8-0.5-3.7,0.6-5.3c0.9-0.9,1.7-1.9,2.4-2.9c0.6-0.3,1-0.7,0.9-1.4c0.1-0.2,0.3-0.5,0.4-0.7
				c0.2-0.5,0.5-0.8,1.2-0.7c0.5,0.1,1-0.2,1.5-0.6c1.4-1.3,1.9-3,1.8-4.9c-0.1-1.2-0.5-2.1-1.5-2.7c1.7-3.2,2.2-6.6,1.8-10.1
				C102.8,74.5,102.7,73.8,102.6,73z"/>
			<path class="st2" d="M65.7,125c0-2.9,0-5.8,0-8.7c0-1.6,0.3-3.1,1.3-4.4c1.1-1.6,2.5-2.7,4.4-3.1c1.8-0.4,3.6-0.7,5.4-1
				c0.1,0,0.3,0,0.4,0c1.3,2.1,2.5,4.3,3.8,6.4c1.6,2.8,3.2,5.5,4.8,8.3c0.4,0.6,0.7,1.2,1.1,1.8c0.1-0.3,0.2-0.6,0.2-0.8
				c-0.2-2.6,0-5.2-0.1-7.9c0-2.4,0-4.9,0-7.3c0,0,0-0.1,0-0.1c0.1,0,0.2,0,0.3,0.1c0.9,0.9,1.7,1.7,2.6,2.6c-0.2,0.5-0.6,1-0.9,1.3
				c-0.5,0.5-0.6,1.1-0.6,1.8c0,2.8,0,5.6,0,8.4c-0.1,0.1-0.1,0.3-0.2,0.4c-0.3,0.6-0.9,1.2-1,1.9c-0.2,1.3-0.2,2.6-0.1,3.9
				c0.1,1,0.1,1.9,0,2.8c-4.6,0.1-9.1-0.8-13.4-2.4c-2.7-1-5.2-2.3-7.5-3.8C65.9,125.2,65.8,125.1,65.7,125z"/>
			<path class="st3" d="M87,131.6c0.1-0.9,0.1-1.9,0-2.8c-0.1-1.3,0-2.6,0.1-3.9c0.1-0.7,0.7-1.3,1-1.9c0.1-0.1,0.1-0.3,0.2-0.4
				c1.7-2.7,3.3-5.4,4.8-8.2c1.3-2.2,2.6-4.4,3.9-6.6c2.1,0.2,4.2,0.6,6.3,1.2c1.2,0.3,2.2,1,3,1.9c1.5,1.6,2.2,3.4,2.1,5.6
				c0,2.9,0,5.8,0,8.7C102.1,129.5,94.9,131.7,87,131.6z"/>
			<path class="st4" d="M80.5,99.7c-1.8-1.6-3.2-3.3-4.2-5.5c-0.2-0.4-0.4-0.8-1.1-0.7c-0.6,0.1-1.5-0.2-1.9-0.9
				c-0.2-0.3-0.6-0.4-0.6-0.8c0-0.5-0.2-0.9-0.6-1.2c-0.1-0.6-0.3-1.1-0.3-1.7c0-1.5,0.2-2.8,1.5-3.6c0.3-0.2,0.3-0.5,0.5-0.7
				c0.6-1.2,1.3-2.4,2.3-3.4c1.4-1.5,2.4-1.6,4-0.4c2.1,1.5,4.4,2.5,6.9,2.9c0,0,0,0,0,0c0.1,0.1,0.2,0.2,0.3,0.2
				c-0.2,0.1-0.4,0.3-0.3,0.6c0.3,0.6,0.1,1.3,0.1,1.9c0,5.4,0,10.8,0,16.1c0,0-0.1,0-0.1,0c-0.1-0.1-0.2-0.1-0.4-0.1
				c-1.5,0-2.8-0.5-4.1-1.2c-0.6-0.3-1-0.9-1.7-1C80.8,99.9,80.9,99.7,80.5,99.7z"/>
			<path class="st5" d="M102.6,73c0.1,0.7,0.2,1.5,0.3,2.2c0.4,3.5-0.1,6.9-1.8,10.1c-0.3,0.1-0.5-0.2-0.7-0.4
				c-0.8-0.6-1.6-1.1-2.7-1c-0.8,0.1-1.7,0.2-2.5,0.3c-2.6,0.2-5.2,0.2-7.7-0.4c-0.1-0.1-0.3-0.1-0.4-0.1c0,0,0,0,0,0
				c0-5.2,0-10.5,0-15.7c0-0.4,0-0.7,0.2-1.1c1.8,0.1,3.5,0.5,5.1,1.4c3,1.7,6.2,3,9.4,4C102.1,72.4,102.4,72.6,102.6,73z"/>
			<path class="st6" d="M87.2,66.9C87.1,67.3,87,67.6,87,68c0,5.2,0,10.5,0,15.7c-2.5-0.5-4.8-1.5-6.9-2.9c-1.6-1.2-2.6-1.1-4,0.4
				c-0.9,1-1.7,2.2-2.3,3.4c-0.1,0.3-0.2,0.6-0.5,0.7c-0.8-3.1-0.6-6.2,0.1-9.4c0.8-3.6,3-5.4,6.6-5.6c0.4,0,0.7,0,0.8-0.4
				c0.8-2,2.5-2.8,4.5-3.1C86,66.8,86.6,66.9,87.2,66.9z"/>
			<path class="st7" d="M80.5,99.7c0.3,0,0.3,0.2,0.3,0.4c0,1.4,0,2.8,0,4.2c0,0.8,0.5,1.4,1.3,1.7c1.7,0.6,3.3,1.3,4.9,2.1
				c0,0.1,0,0.1,0,0.2c0,0,0,0.1,0,0.1c-0.8,0.8-1.6,1.6-2.4,2.3c-0.1,0.1-0.3,0.3-0.2,0.5c-0.4-0.1-0.5,0.2-0.8,0.4
				c-0.9,0.9-1.8,1.7-2.7,2.6c-1.3-2.1-2.5-4.3-3.8-6.4c0.3-0.2,0.6-0.4,0.9-0.3c0.3,0,0.5-0.1,0.7-0.4c0.5-0.6,0.7-1.4,1.5-1.8
				c0.2-0.1,0.2-0.3,0.2-0.5C80.6,103.1,80.6,101.4,80.5,99.7z"/>
			<path class="st8" d="M72.1,90.7c0.4,0.3,0.6,0.7,0.6,1.2C72.1,91.7,72.1,91.2,72.1,90.7z"/>
			<path class="st9" d="M87.5,83.9c2.5,0.6,5.1,0.6,7.7,0.4c0.8-0.1,1.7-0.3,2.5-0.3c1-0.1,1.9,0.5,2.7,1c0.2,0.2,0.3,0.5,0.7,0.4
				c1,0.6,1.5,1.5,1.5,2.7c0.1,1.9-0.4,3.5-1.8,4.9c-0.4,0.4-0.9,0.7-1.5,0.6c-0.7-0.1-0.9,0.2-1.2,0.7c-0.1,0.2-0.3,0.5-0.4,0.7
				c-0.4,0.4-0.9,0.8-0.9,1.4c-0.7,1-1.5,2-2.4,2.9c-0.4,0.2-0.7,0.5-0.9,0.9c-0.4,0.1-0.7,0.4-1.1,0.6c-1.6,1.2-3.3,1.7-5.3,1.7
				c0-5.4,0-10.8,0-16.1c0-0.6,0.2-1.3-0.1-1.9c-0.1-0.3,0.1-0.4,0.3-0.6C87.4,83.9,87.4,83.9,87.5,83.9z"/>
			<path class="st10" d="M87.1,108.3c0-0.1,0-0.1,0-0.2c0,0,0.1,0,0.1-0.1c2.1-1,4.3-1.7,6.3-2.8c0.2,0,0.3,0,0.5,0
				c0.7,0.4,1,1.2,1.5,1.8c0.3,0.4,0.5,0.5,1,0.5c0.3,0,0.5,0.1,0.7,0.3c-1.3,2.2-2.6,4.4-3.9,6.6c-0.1-0.3-0.3-0.4-0.5-0.6
				c-0.9-0.9-1.9-1.9-2.8-2.8c-0.9-0.9-1.7-1.7-2.6-2.6C87.3,108.3,87.2,108.3,87.1,108.3z"/>
			<path class="st11" d="M94,105.3c-0.2,0-0.3,0-0.5,0c0,0,0-0.1,0-0.1c0.3-1.3,0.1-2.5,0.1-3.8c0-0.4,0.1-0.8-0.1-1.2l0,0
				c0.2-0.4,0.5-0.7,0.9-0.9c-1.1,1.7-0.4,3.6-0.6,5.3C93.8,104.9,93.9,105.1,94,105.3z"/>
			<path class="st11" d="M96.8,96.4c0-0.6,0.5-1,0.9-1.4C97.8,95.6,97.4,96.1,96.8,96.4z"/>
			<path class="st8" d="M81,114.3c0.9-0.9,1.8-1.7,2.7-2.6c0.2-0.2,0.4-0.5,0.8-0.4c0.3,0.2,0.4,0.5,0.7,0.8
				c0.6,0.6,0.9,1.4,0.8,2.3c-0.1,2.5,0,4.9,0,7.4c0,0.3,0.1,0.6-0.1,0.8C84.2,119.8,82.6,117,81,114.3z"/>
			<path class="st11" d="M90,111c0.9,0.9,1.9,1.9,2.8,2.8c0.2,0.2,0.4,0.3,0.5,0.6c-1.6,2.8-3.1,5.5-4.8,8.2c0-2.8,0-5.6,0-8.4
				c0-0.7,0.1-1.3,0.6-1.8C89.4,111.9,89.8,111.5,90,111z"/>
			<path class="st12" d="M85.8,122.5c0.2-0.2,0.1-0.5,0.1-0.8c0-2.5,0-4.9,0-7.4c0-0.9-0.2-1.7-0.8-2.3c-0.2-0.2-0.4-0.6-0.7-0.8
				c-0.1-0.2,0-0.4,0.2-0.5c0.8-0.8,1.6-1.6,2.4-2.3c0,2.4,0,4.9,0,7.3c0,2.6-0.1,5.2,0.1,7.9c0,0.2-0.1,0.4-0.2,0.8
				C86.6,123.7,86.2,123.1,85.8,122.5z"/>
			<path class="st13" d="M93.5,105.1c0,0,0,0.1,0,0.1c-2.1,1.1-4.3,1.8-6.3,2.8c-0.1-0.6-0.2-1.1-0.2-1.7c0-1.3,0-2.5,0-3.8
				c0,0,0.1,0,0.1,0c1.9-0.1,3.7-0.6,5.3-1.7c0.3-0.2,0.6-0.6,1.1-0.6c0,0,0,0,0,0C93.5,101.8,93.5,103.5,93.5,105.1z"/>
			<path class="st14" d="M87,102.6c0,1.3,0,2.5,0,3.8c0,0.6,0,1.1,0.2,1.7c0,0-0.1,0-0.1,0c-1.6-0.8-3.2-1.5-4.9-2.1
				c-0.8-0.3-1.3-0.9-1.3-1.7c0-1.4,0-2.8,0-4.2c0.7,0.2,1.1,0.7,1.7,1c1.2,0.8,2.6,1.2,4.1,1.2C86.8,102.4,86.9,102.4,87,102.6z"/>
			<path class="st6" d="M87.5,83.9c-0.1,0-0.1,0-0.2,0.1c-0.1,0-0.2-0.1-0.3-0.2C87.2,83.7,87.4,83.7,87.5,83.9z"/>
			<path class="st10" d="M93.5,105.1c0-1.7,0-3.3,0-5c0.3,0.4,0.1,0.8,0.1,1.2C93.6,102.6,93.8,103.9,93.5,105.1z"/>
		</g>
	</g>
</g>
<g>
	<path class="st15" d="M282.3,92.7c0-5.1,1-10,2.9-14.7c1.9-4.7,4.7-8.8,8.3-12.4c3.6-3.6,7.7-6.4,12.4-8.3
		c4.7-1.9,9.6-2.9,14.7-2.9c5.1,0,10,1,14.7,2.9c4.7,1.9,8.8,4.7,12.4,8.3c3.6,3.6,6.4,7.7,8.3,12.4c1.9,4.7,2.9,9.6,2.9,14.7
		c0,5.1-1,10-2.9,14.7c-1.9,4.7-4.7,8.8-8.3,12.4c-3.6,3.6-7.7,6.4-12.4,8.3c-4.7,1.9-9.6,2.9-14.7,2.9c-5.1,0-10-1-14.7-2.9
		c-4.7-1.9-8.8-4.7-12.4-8.3c-3.6-3.6-6.4-7.7-8.3-12.4S282.3,97.8,282.3,92.7z"/>
	<rect x="285.6" y="73.1" class="st16" width="88.4" height="38.7"/>
	<text transform="matrix(1 0 0 1 291.9756 98.5224)" class="st17 st18 st19">w</text>
	<text transform="matrix(1 0 0 1 311.4082 98.5224)" class="st17 st18 st19">w</text>
	<text transform="matrix(1 0 0 1 330.8408 98.5224)" class="st17 st18 st19">w</text>
	<line class="st20" x1="359.1" y1="131" x2="350.4" y2="122.2"/>
	<polygon class="st21" points="357.1,115.6 332.4,103.8 343.7,128.8 	"/>
	<polygon class="st22" points="357.1,115.6 332.4,103.8 343.7,128.8 	"/>
	<rect x="14" y="166.6" class="st16" width="76.7" height="76.7"/>
</g>
<g>
	<g>
		<g>
			<path class="st0" d="M31.4,237.4c-2.8-1.7-5.1-3.9-7.3-6.3c-2.5-2.8-4.5-5.8-6.1-9.2c-1.8-3.8-3-7.9-3.4-12.1
				c-1-9.3,1-17.9,6.2-25.7c5.1-7.7,12.2-12.9,21-15.6c4.2-1.3,8.5-1.8,12.8-1.6c8.5,0.5,16.1,3.3,22.7,8.7
				c7.2,5.9,11.7,13.5,13.5,22.7c0.6,2.9,0.8,5.9,0.6,8.9c0,0.2,0,0.5-0.2,0.6c-0.4,0-0.6-0.3-0.8-0.5c-7.1-7.1-14.3-14.3-21.4-21.4
				c-0.2-0.2-0.4-0.5-0.8-0.5c-0.1-0.4-0.4-0.6-0.8-0.7c-3.3-1.1-6.4-2.4-9.4-4c-1.6-0.9-3.3-1.3-5.1-1.4c-0.6,0-1.2-0.1-1.7,0
				c-2,0.2-3.7,1-4.5,3.1c-0.2,0.4-0.5,0.4-0.8,0.4c-3.7,0.2-5.8,2-6.6,5.6c-0.7,3.1-0.9,6.2-0.1,9.4c-1.3,0.9-1.6,2.2-1.5,3.6
				c0,0.6,0.2,1.1,0.3,1.7c0,0.5,0,1,0.6,1.2c0,0.4,0.4,0.5,0.6,0.8c0.4,0.7,1.2,1,1.9,0.9c0.7-0.1,0.9,0.3,1.1,0.7
				c1,2.2,2.5,3.9,4.2,5.5c0,1.7,0,3.4,0,5.1c0,0.2,0.1,0.4-0.2,0.5c-0.8,0.3-1,1.2-1.5,1.8c-0.2,0.3-0.4,0.4-0.7,0.4
				c-0.4,0-0.7,0.1-0.9,0.3c-0.1,0-0.3,0-0.4,0c-1.8,0.3-3.6,0.6-5.4,1c-1.9,0.4-3.3,1.5-4.4,3.1c-0.9,1.3-1.3,2.8-1.3,4.4
				C31.4,231.6,31.4,234.5,31.4,237.4z"/>
			<path class="st1" d="M68.2,185.4c0.4,0,0.6,0.3,0.8,0.5c7.1,7.1,14.3,14.3,21.4,21.4c0.2,0.2,0.4,0.5,0.8,0.5
				c0.1,2.1-0.4,4.2-0.8,6.3c-1.3,5.7-3.8,10.8-7.5,15.4c-2.5,3.1-5.3,5.7-8.7,7.9c0-2.9,0-5.8,0-8.7c0-2.2-0.6-4-2.1-5.6
				c-0.9-0.9-1.8-1.6-3-1.9c-2.1-0.6-4.2-1-6.3-1.2c-0.2-0.2-0.4-0.3-0.7-0.3c-0.4,0-0.7-0.1-1-0.5c-0.5-0.6-0.8-1.4-1.5-1.8
				c-0.2-0.2-0.3-0.4-0.2-0.7c0.2-1.8-0.5-3.7,0.6-5.3c0.9-0.9,1.7-1.9,2.4-2.9c0.6-0.3,1-0.7,0.9-1.4c0.1-0.2,0.3-0.5,0.4-0.7
				c0.2-0.5,0.5-0.8,1.2-0.7c0.5,0.1,1-0.2,1.5-0.6c1.4-1.3,1.9-3,1.8-4.9c-0.1-1.2-0.5-2.1-1.5-2.7c1.7-3.2,2.2-6.6,1.8-10.1
				C68.4,186.9,68.3,186.1,68.2,185.4z"/>
			<path class="st2" d="M31.4,237.4c0-2.9,0-5.8,0-8.7c0-1.6,0.3-3.1,1.3-4.4c1.1-1.6,2.5-2.7,4.4-3.1c1.8-0.4,3.6-0.7,5.4-1
				c0.1,0,0.3,0,0.4,0c1.3,2.1,2.5,4.3,3.8,6.4c1.6,2.8,3.2,5.5,4.8,8.3c0.4,0.6,0.7,1.2,1.1,1.8c0.1-0.3,0.2-0.6,0.2-0.8
				c-0.2-2.6,0-5.2-0.1-7.9c0-2.4,0-4.9,0-7.3c0,0,0-0.1,0-0.1c0.1,0,0.2,0,0.3,0.1c0.9,0.9,1.7,1.7,2.6,2.6c-0.2,0.5-0.6,1-0.9,1.3
				c-0.5,0.5-0.6,1.1-0.6,1.8c0,2.8,0,5.6,0,8.4c-0.1,0.1-0.1,0.3-0.2,0.4c-0.3,0.6-0.9,1.2-1,1.9c-0.2,1.3-0.2,2.6-0.1,3.9
				c0.1,1,0.1,1.9,0,2.8c-4.6,0.1-9.1-0.8-13.4-2.4c-2.7-1-5.2-2.3-7.5-3.8C31.6,237.6,31.5,237.5,31.4,237.4z"/>
			<path class="st3" d="M52.7,243.9c0.1-0.9,0.1-1.9,0-2.8c-0.1-1.3,0-2.6,0.1-3.9c0.1-0.7,0.7-1.3,1-1.9c0.1-0.1,0.1-0.3,0.2-0.4
				c1.7-2.7,3.3-5.4,4.8-8.2c1.3-2.2,2.6-4.4,3.9-6.6c2.1,0.2,4.2,0.6,6.3,1.2c1.2,0.3,2.2,1,3,1.9c1.5,1.6,2.2,3.4,2.1,5.6
				c0,2.9,0,5.8,0,8.7C67.8,241.8,60.6,244,52.7,243.9z"/>
			<path class="st4" d="M46.2,212.1c-1.8-1.6-3.2-3.3-4.2-5.5c-0.2-0.4-0.4-0.8-1.1-0.7c-0.6,0.1-1.5-0.2-1.9-0.9
				c-0.2-0.3-0.6-0.4-0.6-0.8c0-0.5-0.2-0.9-0.6-1.2c-0.1-0.6-0.3-1.1-0.3-1.7c0-1.5,0.2-2.8,1.5-3.6c0.3-0.2,0.3-0.5,0.5-0.7
				c0.6-1.2,1.3-2.4,2.3-3.4c1.4-1.5,2.4-1.6,4-0.4c2.1,1.5,4.4,2.5,6.9,2.9c0,0,0,0,0,0c0.1,0.1,0.2,0.2,0.3,0.2
				c-0.2,0.1-0.4,0.3-0.3,0.6c0.3,0.6,0.1,1.3,0.1,1.9c0,5.4,0,10.8,0,16.1c0,0-0.1,0-0.1,0c-0.1-0.1-0.2-0.1-0.4-0.1
				c-1.5,0-2.8-0.5-4.1-1.2c-0.6-0.3-1-0.9-1.7-1C46.5,212.3,46.5,212,46.2,212.1z"/>
			<path class="st5" d="M68.2,185.4c0.1,0.7,0.2,1.5,0.3,2.2c0.4,3.5-0.1,6.9-1.8,10.1c-0.3,0.1-0.5-0.2-0.7-0.4
				c-0.8-0.6-1.6-1.1-2.7-1c-0.8,0.1-1.7,0.2-2.5,0.3c-2.6,0.2-5.2,0.2-7.7-0.4c-0.1-0.1-0.3-0.1-0.4-0.1c0,0,0,0,0,0
				c0-5.2,0-10.5,0-15.7c0-0.4,0-0.7,0.2-1.1c1.8,0.1,3.5,0.5,5.1,1.4c3,1.7,6.2,3,9.4,4C67.8,184.8,68.1,185,68.2,185.4z"/>
			<path class="st6" d="M52.9,179.2c-0.1,0.4-0.2,0.7-0.2,1.1c0,5.2,0,10.5,0,15.7c-2.5-0.5-4.8-1.5-6.9-2.9c-1.6-1.2-2.6-1.1-4,0.4
				c-0.9,1-1.7,2.2-2.3,3.4c-0.1,0.3-0.2,0.6-0.5,0.7c-0.8-3.1-0.6-6.2,0.1-9.4c0.8-3.6,3-5.4,6.6-5.6c0.4,0,0.7,0,0.8-0.4
				c0.8-2,2.5-2.8,4.5-3.1C51.7,179.2,52.3,179.2,52.9,179.2z"/>
			<path class="st7" d="M46.2,212.1c0.3,0,0.3,0.2,0.3,0.4c0,1.4,0,2.8,0,4.2c0,0.8,0.5,1.4,1.3,1.7c1.7,0.6,3.3,1.3,4.9,2.1
				c0,0.1,0,0.1,0,0.2c0,0,0,0.1,0,0.1c-0.8,0.8-1.6,1.6-2.4,2.3c-0.1,0.1-0.3,0.3-0.2,0.5c-0.4-0.1-0.5,0.2-0.8,0.4
				c-0.9,0.9-1.8,1.7-2.7,2.6c-1.3-2.1-2.5-4.3-3.8-6.4c0.3-0.2,0.6-0.4,0.9-0.3c0.3,0,0.5-0.1,0.7-0.4c0.5-0.6,0.7-1.4,1.5-1.8
				c0.2-0.1,0.2-0.3,0.2-0.5C46.2,215.5,46.2,213.8,46.2,212.1z"/>
			<path class="st8" d="M37.8,203c0.4,0.3,0.6,0.7,0.6,1.2C37.8,204,37.8,203.5,37.8,203z"/>
			<path class="st9" d="M53.2,196.2c2.5,0.6,5.1,0.6,7.7,0.4c0.8-0.1,1.7-0.3,2.5-0.3c1-0.1,1.9,0.5,2.7,1c0.2,0.2,0.3,0.5,0.7,0.4
				c1,0.6,1.5,1.5,1.5,2.7c0.1,1.9-0.4,3.5-1.8,4.9c-0.4,0.4-0.9,0.7-1.5,0.6c-0.7-0.1-0.9,0.2-1.2,0.7c-0.1,0.2-0.3,0.5-0.4,0.7
				c-0.4,0.4-0.9,0.8-0.9,1.4c-0.7,1-1.5,2-2.4,2.9c-0.4,0.2-0.7,0.5-0.9,0.9c-0.4,0.1-0.7,0.4-1.1,0.6c-1.6,1.2-3.3,1.7-5.3,1.7
				c0-5.4,0-10.8,0-16.1c0-0.6,0.2-1.3-0.1-1.9c-0.1-0.3,0.1-0.4,0.3-0.6C53.1,196.2,53.1,196.2,53.2,196.2z"/>
			<path class="st10" d="M52.7,220.6c0-0.1,0-0.1,0-0.2c0,0,0.1,0,0.1-0.1c2.1-1,4.3-1.7,6.3-2.8c0.2,0,0.3,0,0.5,0
				c0.7,0.4,1,1.2,1.5,1.8c0.3,0.4,0.5,0.5,1,0.5c0.3,0,0.5,0.1,0.7,0.3c-1.3,2.2-2.6,4.4-3.9,6.6c-0.1-0.3-0.3-0.4-0.5-0.6
				c-0.9-0.9-1.9-1.9-2.8-2.8c-0.9-0.9-1.7-1.7-2.6-2.6C53,220.6,52.9,220.6,52.7,220.6z"/>
			<path class="st11" d="M59.7,217.6c-0.2,0-0.3,0-0.5,0c0,0,0-0.1,0-0.1c0.3-1.3,0.1-2.5,0.1-3.8c0-0.4,0.1-0.8-0.1-1.2l0,0
				c0.2-0.4,0.5-0.7,0.9-0.9c-1.1,1.7-0.4,3.6-0.6,5.3C59.4,217.2,59.5,217.4,59.7,217.6z"/>
			<path class="st11" d="M62.5,208.7c0-0.6,0.5-1,0.9-1.4C63.5,208,63.1,208.4,62.5,208.7z"/>
			<path class="st8" d="M46.7,226.6c0.9-0.9,1.8-1.7,2.7-2.6c0.2-0.2,0.4-0.5,0.8-0.4c0.3,0.2,0.4,0.5,0.7,0.8
				c0.6,0.6,0.9,1.4,0.8,2.3c-0.1,2.5,0,4.9,0,7.4c0,0.3,0.1,0.6-0.1,0.8C49.9,232.1,48.3,229.4,46.7,226.6z"/>
			<path class="st11" d="M55.6,223.3c0.9,0.9,1.9,1.9,2.8,2.8c0.2,0.2,0.4,0.3,0.5,0.6c-1.6,2.8-3.1,5.5-4.8,8.2c0-2.8,0-5.6,0-8.4
				c0-0.7,0.1-1.3,0.6-1.8C55.1,224.3,55.4,223.8,55.6,223.3z"/>
			<path class="st12" d="M51.5,234.9c0.2-0.2,0.1-0.5,0.1-0.8c0-2.5,0-4.9,0-7.4c0-0.9-0.2-1.7-0.8-2.3c-0.2-0.2-0.4-0.6-0.7-0.8
				c-0.1-0.2,0-0.4,0.2-0.5c0.8-0.8,1.6-1.6,2.4-2.3c0,2.4,0,4.9,0,7.3c0,2.6-0.1,5.2,0.1,7.9c0,0.2-0.1,0.4-0.2,0.8
				C52.2,236,51.9,235.5,51.5,234.9z"/>
			<path class="st13" d="M59.2,217.4c0,0,0,0.1,0,0.1c-2.1,1.1-4.3,1.8-6.3,2.8c-0.1-0.6-0.2-1.1-0.2-1.7c0-1.3,0-2.5,0-3.8
				c0,0,0.1,0,0.1,0c1.9-0.1,3.7-0.6,5.3-1.7c0.3-0.2,0.6-0.6,1.1-0.6c0,0,0,0,0,0C59.2,214.1,59.2,215.8,59.2,217.4z"/>
			<path class="st14" d="M52.7,214.9c0,1.3,0,2.5,0,3.8c0,0.6,0,1.1,0.2,1.7c0,0-0.1,0-0.1,0c-1.6-0.8-3.2-1.5-4.9-2.1
				c-0.8-0.3-1.3-0.9-1.3-1.7c0-1.4,0-2.8,0-4.2c0.7,0.2,1.1,0.7,1.7,1c1.2,0.8,2.6,1.2,4.1,1.2C52.5,214.7,52.6,214.7,52.7,214.9z"
				/>
			<path class="st6" d="M53.2,196.2c-0.1,0-0.1,0-0.2,0.1c-0.1,0-0.2-0.1-0.3-0.2C52.9,196.1,53,196.1,53.2,196.2z"/>
			<path class="st10" d="M59.2,217.4c0-1.7,0-3.3,0-5c0.3,0.4,0.1,0.8,0.1,1.2C59.3,214.9,59.5,216.2,59.2,217.4z"/>
		</g>
	</g>
</g>
<g>
	<g>
		<g>
			<path class="st23" d="M159.7,206.1c0-0.5,0-1.1,0-1.6c0.4-0.2,0.2-0.7,0.3-1c0.3-5.2,1.2-10.3,3.3-15.1c3.5-8.1,8.6-14.8,16-19.7
				c6.1-4,12.6-6.7,19.9-7.7c6.4-0.8,12.7-0.3,18.9,1.5c5.7,1.6,10.8,4.5,15.5,7.9c6.6,4.9,11,11.6,14.1,19.2
				c1.6,4,2.4,8.3,2.7,12.6c0.5,9-1.3,17.4-5.9,25.1c-5,8.4-11.8,14.7-20.9,18.5c-6.1,2.5-12.4,3.9-18.9,3.9c-14.4,0-28.7,0-43.1,0
				c-0.4,0-0.9,0-1.5,0c0.4-0.6,0.6-1,0.9-1.5c2.9-4.5,5.8-8.9,8.7-13.4c0.6-0.9,0.7-1.5-0.1-2.4c-1.8-2.1-3.2-4.4-4.5-6.8
				c-2.8-5.3-4.4-10.9-4.8-16.9C160,207.9,160.3,206.9,159.7,206.1z M198.9,235.9C198.9,235.9,198.9,235.9,198.9,235.9
				c2,0,3.9,0,5.9,0c0.7,0,1-0.1,1.1-0.9c0.5-2.4,1.1-4.7,1.6-7.1c0.2-0.7,0.5-1,1.2-1.1c2.6-0.2,5-0.9,7.3-2c4.1-2,7.3-4.8,8.4-9.4
				c1.2-5.3-0.1-9.1-5-11.9c-1.4-0.8-3-1.3-4.5-1.9c-0.8-0.3-1.1-0.2-1.4,0.7c-0.8,3.7-1.7,7.4-2.6,11.2c-0.5,2-1.7,3.2-3.7,3.7
				c-2.9,0.7-5.8,0.7-8.7,0.3c-4.3-0.6-8.4-2-11.8-4.9c-1.1-0.9-2.2-0.4-2.5,0.9c-0.7,3.1-1.4,6.1-2.2,9.2c-0.4,1.5-0.4,1.5,1.1,2.1
				c3.1,1.3,6.3,1.9,9.6,2.1c1.6,0.1,1.5,0.2,1.2,1.7c-0.5,2.1-0.9,4.3-1.5,6.4c-0.2,0.8,0,0.9,0.8,0.9
				C195.1,235.8,197,235.9,198.9,235.9z M213.3,174.5c-1.9,0-3.8,0-5.6,0c-0.9,0-1.2,0.3-1.3,1.1c-0.5,2.2-1,4.5-1.5,6.7
				c-0.2,0.7-0.4,1.1-1.3,1.3c-2.3,0.4-4.6,1-6.8,2c-3.6,1.7-6.8,3.8-8.4,7.7c-1.8,4.5-1,9.1,2.2,12.3c2,2,4.8,2.6,7.3,3.6
				c0.4,0.2,0.6-0.1,0.7-0.5c0.2-0.8,0.4-1.7,0.6-2.5c0.6-2.3,1-4.6,1.7-6.8c0.3-1,0.4-2.2,0.8-3.3c0.4-1.4,1.4-2.3,2.8-2.6
				c4-1.1,8-0.9,12,0.2c2.5,0.7,4.8,1.8,7,3.3c1.4,1,2.3,0.6,2.7-1.1c0.7-2.9,1.3-5.7,2.1-8.5c0.3-1,0-1.4-0.9-1.8
				c-2.7-0.9-5.4-1.6-8.2-2c-0.9-0.1-1-0.4-0.8-1.2c0.5-2.3,1-4.5,1.6-6.8c0.3-1-0.1-1-0.9-1C217,174.6,215.1,174.5,213.3,174.5z"/>
		</g>
	</g>
</g>
<g>
	<g>
		<g>
			<path class="st0" d="M84.2,279c2,0,3.9,0,5.9,0c0.1,0.1,0.3,0.1,0.4,0.2c3.2,0.3,6.3,0.9,9.3,2c7.5,2.6,13.7,7.1,18.4,13.5
				c5.3,7.2,7.8,15.3,7.5,24.3c0,0.3,0,0.7-0.2,1c-0.4,0-0.6-0.3-0.8-0.5c-7.1-7.1-14.2-14.2-21.4-21.4c-0.2-0.2-0.5-0.6-0.9-0.6
				c-0.1-0.4-0.4-0.6-0.8-0.7c-3.3-1.1-6.4-2.4-9.4-4c-1.6-0.9-3.3-1.3-5.1-1.4c-0.5,0-1-0.1-1.5,0c-2.1,0.2-3.9,1-4.8,3.1
				c-0.2,0.4-0.4,0.4-0.8,0.4c-1,0-1.9,0.2-2.9,0.6c-2.4,1-3.4,3-4,5.4c-0.7,3-0.7,6,0,9c-0.2,0.4-0.7,0.4-1,0.9
				c-0.8,1.5-0.7,2.9-0.2,4.4c0,0.5,0,1,0.6,1.2c0.5,1,1.3,1.7,2.4,1.7c0.8,0,1,0.3,1.2,0.8c1,2.1,2.5,3.9,4.2,5.4c0,1.7,0,3.4,0,5
				c0,0.2,0,0.5-0.2,0.6c-0.5,0.2-0.6,0.6-0.9,0.9c-0.5,0.6-0.8,1.4-1.8,1.3c-0.1,0-0.3,0.2-0.4,0.2c-0.1,0-0.3,0-0.4,0
				c-1.8,0.3-3.6,0.6-5.4,1c-1.9,0.4-3.3,1.5-4.4,3.1c-0.9,1.3-1.2,2.8-1.2,4.4c0,2.9,0,5.8,0,8.6c-3.3-2.1-6-4.7-8.4-7.6
				c-6.7-8.4-9.5-18-8.4-28.7c0.5-5.1,2.1-9.9,4.6-14.3c3.9-6.9,9.4-12.2,16.5-15.8c3.4-1.7,6.9-2.8,10.7-3.5
				C81.9,279.4,83.1,279.4,84.2,279z"/>
			<path class="st1" d="M125.6,320c0.1,2.1-0.3,4.1-0.8,6.2c-1.3,5.7-3.8,10.9-7.4,15.4c-2.5,3.1-5.4,5.8-8.7,8c0-2.9,0-5.8,0-8.6
				c0-2.2-0.6-4.1-2.2-5.6c-0.9-0.9-1.9-1.5-3-1.8c-2.1-0.5-4.1-1-6.2-1.1c-0.2-0.2-0.4-0.3-0.6-0.3c-0.6,0.1-0.8-0.2-1.1-0.6
				c-0.4-0.6-0.7-1.3-1.4-1.6c-0.1-0.2-0.2-0.3-0.2-0.5c0.2-1.8-0.5-3.7,0.6-5.5c1.5-1.5,2.8-3.2,3.7-5c0.2-0.5,0.5-0.8,1.1-0.7
				c0.6,0.1,1.1-0.2,1.6-0.6c0.9-0.8,1.4-1.8,1.6-2.9c0.3-1.8,0.4-3.6-1.4-4.7c1.5-2.7,2-5.7,1.9-8.7c-0.1-1.2-0.3-2.4-0.4-3.6
				c0.4,0,0.6,0.3,0.9,0.6c7.1,7.1,14.2,14.2,21.4,21.4C125,319.7,125.2,320,125.6,320z"/>
			<path class="st2" d="M87,356.1c-4.5,0.1-8.9-0.8-13.2-2.3c-2.7-1-5.3-2.3-7.8-3.9c-0.1-0.1-0.3-0.2-0.4-0.3c0-2.9,0-5.8,0-8.6
				c0-1.6,0.3-3.1,1.2-4.4c1.1-1.6,2.5-2.7,4.4-3.1c1.8-0.4,3.6-0.7,5.4-1c0.1,0,0.3,0,0.4,0c1.3,2.1,2.5,4.3,3.8,6.4
				c1.6,2.7,3.2,5.5,4.8,8.2c0.3,0.6,0.7,1.1,1.1,1.8c0.4-0.6,0.1-1.1,0.1-1.7c0-3.6,0-7.1,0-10.7c0-1.2,0.2-2.3,0-3.5
				c0,0,0-0.1,0-0.1c0.1,0,0.2,0,0.3,0.1c0.9,0.9,1.7,1.7,2.6,2.6c-0.2,0.5-0.5,0.9-0.9,1.3c-0.5,0.6-0.7,1.2-0.7,1.9
				c0,2.8,0,5.6,0,8.4c-0.1,0.2-0.1,0.3-0.2,0.5c-0.2,0.7-0.9,1.2-1,1.9c-0.1,1.3-0.2,2.6-0.1,3.9C87.2,354.3,87.1,355.2,87,356.1z"
				/>
			<path class="st4" d="M80.5,324.2c-1.7-1.5-3.2-3.3-4.2-5.4c-0.2-0.5-0.5-0.8-1.2-0.8c-1.1,0.1-1.9-0.7-2.4-1.7
				c0-0.5-0.2-0.9-0.6-1.2c-0.4-1.5-0.5-3,0.2-4.4c0.2-0.5,0.8-0.5,1-0.9c0.3-0.2,0.3-0.5,0.5-0.7c0.6-1.2,1.3-2.3,2.2-3.3
				c1.4-1.6,2.4-1.7,4.2-0.5c2.1,1.5,4.4,2.4,6.9,2.9c0,0,0,0,0,0c0.1,0.1,0.2,0.2,0.3,0.2c-0.2,0.1-0.4,0.3-0.3,0.6
				c0.2,0.6,0.1,1.3,0.1,1.9c0,5.4,0,10.7,0,16.1c0,0-0.1,0-0.1,0c-0.1-0.1-0.3-0.1-0.5-0.1c-1.4-0.1-2.6-0.4-3.8-1.1
				c-0.6-0.4-1.1-0.9-1.8-1.1C80.8,324.4,80.8,324.2,80.5,324.2z"/>
			<path class="st5" d="M102.6,297.6c0.1,1.2,0.4,2.4,0.4,3.6c0.1,3.1-0.4,6-1.9,8.7c-0.3,0.1-0.5-0.2-0.7-0.4
				c-0.8-0.6-1.6-1.1-2.7-1c-0.8,0.1-1.7,0.2-2.5,0.3c-2.6,0.2-5.2,0.2-7.7-0.4c-0.1-0.1-0.3-0.1-0.4-0.1c0,0,0,0,0,0
				c0-5.2,0-10.5,0-15.7c0-0.4,0-0.7,0.2-1.1c1.8,0.1,3.5,0.5,5.1,1.4c3,1.7,6.2,3,9.4,4C102.1,297,102.4,297.2,102.6,297.6z"/>
			<path class="st6" d="M87.2,291.4c-0.1,0.4-0.2,0.7-0.2,1.1c0,5.2,0,10.5,0,15.7c-2.5-0.5-4.8-1.5-6.9-2.9
				c-1.8-1.2-2.8-1.2-4.2,0.5c-0.9,1-1.6,2.1-2.2,3.3c-0.1,0.3-0.2,0.6-0.5,0.7c-0.7-3-0.6-6,0-9c0.5-2.4,1.6-4.4,4-5.4
				c0.9-0.4,1.9-0.6,2.9-0.6c0.3,0,0.6-0.1,0.8-0.4c0.9-2.1,2.6-2.9,4.8-3.1C86.2,291.4,86.7,291.4,87.2,291.4z"/>
			<path class="st24" d="M80.5,324.2c0.3,0,0.3,0.2,0.3,0.4c0,1.3,0,2.7,0,4c0,1.3,0.2,1.4,1.4,1.9c1.6,0.6,3.2,1.2,4.8,2.1
				c0,0.1,0,0.1,0,0.2c0,0,0,0.1,0,0.1c-0.8,0.8-1.6,1.6-2.4,2.3c-0.1,0.1-0.3,0.3-0.2,0.5c-0.4-0.1-0.6,0.2-0.8,0.5
				c-0.9,0.8-1.7,1.7-2.6,2.6c-1.3-2.1-2.5-4.3-3.8-6.4c0.1-0.1,0.3-0.3,0.4-0.2c1,0.1,1.3-0.7,1.8-1.3c0.3-0.3,0.4-0.8,0.9-0.9
				c0.3-0.1,0.2-0.4,0.2-0.6C80.6,327.6,80.6,325.9,80.5,324.2z"/>
			<path class="st8" d="M72.1,315.2c0.4,0.3,0.6,0.7,0.6,1.2C72.1,316.2,72.1,315.7,72.1,315.2z"/>
			<path class="st3" d="M87,356.1c0.1-0.9,0.1-1.8,0-2.7c-0.1-1.3,0-2.6,0.1-3.9c0.1-0.7,0.8-1.2,1-1.9c0.1-0.2,0.1-0.3,0.2-0.5
				c1.7-2.7,3.3-5.4,4.8-8.2c1.3-2.2,2.6-4.4,3.9-6.6c2.1,0.2,4.2,0.6,6.2,1.1c1.2,0.3,2.2,1,3,1.8c1.5,1.6,2.2,3.5,2.2,5.6
				c0,2.9,0,5.8,0,8.6c-3.6,2.5-7.5,4.2-11.7,5.3C93.7,355.7,90.4,356.2,87,356.1z"/>
			<path class="st9" d="M87.5,308.4c2.5,0.6,5.1,0.6,7.7,0.4c0.8-0.1,1.7-0.3,2.5-0.3c1-0.1,1.9,0.5,2.7,1c0.2,0.2,0.3,0.5,0.7,0.4
				c1.8,1.1,1.7,2.9,1.4,4.7c-0.2,1.1-0.8,2.1-1.6,2.9c-0.5,0.4-1,0.7-1.6,0.6c-0.7-0.1-0.9,0.2-1.1,0.7c-1,1.9-2.2,3.6-3.7,5
				c-0.4,0.2-0.7,0.5-0.9,0.9c-0.4,0.1-0.7,0.4-1.1,0.6c-1.6,1.2-3.3,1.7-5.2,1.7c0-5.4,0-10.7,0-16.1c0-0.6,0.1-1.3-0.1-1.9
				c-0.1-0.3,0.1-0.4,0.3-0.6C87.4,308.4,87.4,308.4,87.5,308.4z"/>
			<path class="st10" d="M97.1,332.3c-1.3,2.2-2.6,4.4-3.9,6.6c-0.1-0.3-0.3-0.4-0.5-0.6c-0.9-0.9-1.8-1.8-2.8-2.8
				c-0.9-0.9-1.7-1.7-2.6-2.6c-0.1-0.1-0.2-0.1-0.3-0.1c0-0.1,0-0.1,0-0.2c0,0,0.1,0,0.1-0.1c2.1-1,4.3-1.7,6.3-2.8
				c0.2,0,0.3,0,0.5,0c0.7,0.4,0.9,1.1,1.4,1.6c0.3,0.4,0.6,0.7,1.1,0.6C96.8,332,97,332.2,97.1,332.3z"/>
			<path class="st11" d="M94,329.8c-0.2,0-0.3,0-0.5,0c0,0,0-0.1,0-0.1c0.3-1.1,0.1-2.2,0.1-3.3c0-0.5,0.2-1.1-0.1-1.6l0,0
				c0.2-0.4,0.5-0.7,0.9-0.9c-1.1,1.7-0.4,3.7-0.6,5.5C93.8,329.4,93.9,329.6,94,329.8z"/>
			<path class="st8" d="M81,338.8c0.9-0.9,1.7-1.7,2.6-2.6c0.2-0.2,0.4-0.5,0.8-0.5c1,0.9,1.6,2,1.5,3.5c-0.1,2.3,0,4.7,0,7
				c0,0.3,0.1,0.6-0.1,0.8C84.2,344.3,82.6,341.6,81,338.8z"/>
			<path class="st11" d="M90,335.5c0.9,0.9,1.8,1.9,2.8,2.8c0.2,0.2,0.4,0.4,0.5,0.6c-1.6,2.8-3.1,5.5-4.8,8.2c0-2.8,0-5.6,0-8.4
				c0-0.7,0.1-1.4,0.7-1.9C89.4,336.4,89.8,336,90,335.5z"/>
			<path class="st12" d="M85.8,347.1c0.2-0.2,0.1-0.5,0.1-0.8c0-2.3-0.1-4.7,0-7c0.1-1.5-0.6-2.5-1.5-3.5c-0.1-0.2,0-0.4,0.2-0.5
				c0.8-0.8,1.6-1.6,2.4-2.3c0.2,1.2,0,2.3,0,3.5c0,3.6,0,7.1,0,10.7c0,0.5,0.2,1.1-0.1,1.7C86.5,348.2,86.2,347.6,85.8,347.1z"/>
			<path class="st13" d="M93.5,329.6c0,0,0,0.1,0,0.1c-2.1,1.1-4.2,1.8-6.3,2.8c-0.1-0.5-0.2-1-0.2-1.6c0-1.3,0-2.6,0-4
				c0,0,0.1,0,0.1,0c1.9,0,3.7-0.6,5.2-1.7c0.3-0.2,0.6-0.6,1.1-0.6c0,0,0,0,0,0C93.5,326.3,93.5,328,93.5,329.6z"/>
			<path class="st14" d="M87,327.1c0,1.3,0,2.6,0,4c0,0.5,0,1,0.2,1.6c0,0-0.1,0-0.1,0.1c-1.5-0.9-3.2-1.4-4.8-2.1
				c-1.2-0.5-1.4-0.7-1.4-1.9c0-1.3,0-2.7,0-4c0.7,0.2,1.2,0.8,1.8,1.1c1.2,0.7,2.5,1.1,3.8,1.1C86.7,326.9,86.9,326.9,87,327.1z"/>
			<path class="st6" d="M87.5,308.4c0,0-0.1,0-0.1,0.1c-0.1,0-0.2-0.1-0.3-0.2C87.2,308.2,87.4,308.3,87.5,308.4z"/>
			<path class="st10" d="M93.5,329.6c0-1.7,0-3.3,0-5c0.3,0.5,0.1,1.1,0.1,1.6C93.6,327.4,93.8,328.5,93.5,329.6z"/>
		</g>
	</g>
</g>
<g>
	<g>
		<g>
			<path class="st2" d="M201,91c-0.5-0.3-1-0.2-1.6-0.3c-6-0.7-11.5-2.8-16.5-6.1c-0.1-0.1-0.1-0.1-0.2-0.2c0-0.3,0-0.5,0-0.8
				c0-2.6,0-5.3,0-7.9c0-2.2,0.8-4.2,2.4-5.7c0.8-0.8,1.7-1.4,2.8-1.6c2.1-0.5,4.1-0.9,6.2-1.1c1.3,2.1,2.5,4.3,3.8,6.4
				c1.6,2.8,3.2,5.5,4.8,8.3c0.4,0.6,0.7,1.2,1.1,1.8c0.1-0.3,0.2-0.6,0.2-0.8c-0.2-2.6,0-5.2-0.1-7.9c0-2.4,0-4.9,0-7.3
				c0,0,0-0.1,0-0.1c0.1,0,0.2,0,0.3,0.1c0.9,0.9,1.7,1.7,2.6,2.6c-0.2,0.5-0.6,1-0.9,1.3c-0.5,0.5-0.6,1.1-0.6,1.8
				c0,2.8,0,5.6,0,8.4c-0.2,0.6-0.5,1.1-0.9,1.6c-0.4,0.5-0.4,1.1-0.4,1.6c0,1.7,0,3.4,0.1,5c0,0.3-0.2,0.5,0,0.8
				C203.1,91,202.1,91,201,91z"/>
			<path class="st3" d="M204.2,91c-0.2-0.3,0-0.5,0-0.8c0-1.7-0.1-3.4-0.1-5c0-0.5,0.1-1.1,0.4-1.6c0.4-0.5,0.7-1,0.9-1.6
				c1.7-2.7,3.3-5.4,4.8-8.2c1.3-2.2,2.6-4.4,3.9-6.6c0.2,0,0.4,0,0.5,0c1.7,0.3,3.5,0.6,5.2,1c3.5,0.8,5.8,3.9,5.8,7.1
				c0,3.1,0,6.1,0,9.2c-3.6,2.5-7.5,4.2-11.7,5.3c-2.1,0.6-4.2,0.9-6.4,1.1c-0.1,0-0.3,0-0.3,0.1C206.2,91,205.2,91,204.2,91z"/>
			<path class="st0" d="M194.2,67.2c-2.1,0.2-4.2,0.6-6.2,1.1c-1.1,0.3-2,0.9-2.8,1.6c-1.6,1.5-2.4,3.5-2.4,5.7c0,2.6,0,5.3,0,7.9
				c0,0.3,0,0.5,0,0.8c-2.9-1.8-5.4-4.2-7.6-6.7c-2.4-2.7-4.3-5.7-5.8-8.9c-1.8-3.8-2.9-7.8-3.4-11.9c-1-9.3,1-17.9,6.2-25.7
				c5.1-7.7,12.2-12.9,21-15.6c4.2-1.3,8.5-1.8,12.8-1.6c8.5,0.5,16.1,3.3,22.7,8.7c7.2,5.9,11.7,13.5,13.5,22.7
				c0.6,2.9,0.8,5.9,0.6,8.9c0,0.2,0,0.5-0.2,0.6c-0.4,0-0.6-0.3-0.8-0.5c-7.1-7.1-14.3-14.3-21.4-21.4c-0.2-0.2-0.4-0.5-0.8-0.5
				c-0.1-0.4-0.4-0.6-0.8-0.7c-3.3-1.1-6.4-2.4-9.4-4c-1.6-0.9-3.3-1.3-5.1-1.4c-0.6,0-1.2-0.1-1.7,0c-2,0.2-3.7,1.1-4.5,3.1
				c-0.2,0.4-0.5,0.4-0.8,0.4c-3.7,0.2-5.8,2-6.6,5.6c-0.7,3.1-0.8,6.2-0.1,9.4c-1.3,0.9-1.6,2.2-1.5,3.6c0,0.6,0.2,1.1,0.3,1.7
				c0,0.5,0,1,0.6,1.2c0,0.4,0.4,0.5,0.6,0.8c0.4,0.6,1.2,1,1.8,0.9c0.8-0.2,1,0.2,1.2,0.7c1,2.2,2.5,3.9,4.2,5.5c0,1.7,0,3.4,0,5
				c0,0.2,0.1,0.5-0.2,0.6c-0.6,0.2-0.7,0.7-1,1c-0.5,0.5-0.7,1.4-1.7,1.2C194.6,66.9,194.4,67.1,194.2,67.2z"/>
			<path class="st1" d="M219.6,32.4c0.4,0,0.6,0.3,0.8,0.5c7.1,7.1,14.3,14.3,21.4,21.4c0.2,0.2,0.4,0.5,0.8,0.5
				c0.1,2.1-0.4,4.2-0.8,6.3c-1.3,5.7-3.8,10.8-7.4,15.3c-2.5,3.1-5.4,5.8-8.7,8c0-3.1,0-6.1,0-9.2c0-3.3-2.3-6.3-5.8-7.1
				c-1.7-0.4-3.4-0.7-5.2-1c-0.2,0-0.3,0-0.5,0c-0.2-0.2-0.4-0.3-0.7-0.3c-0.4,0-0.7-0.1-1-0.5c-0.5-0.6-0.8-1.4-1.5-1.8
				c-0.2-0.2-0.3-0.4-0.2-0.7c0.2-1.8-0.5-3.7,0.6-5.3c1.5-1.5,2.8-3.2,3.8-5.1c0.2-0.4,0.4-0.8,1.1-0.7c0.6,0.1,1.1-0.1,1.6-0.6
				c1.4-1.3,1.9-3,1.8-4.9c-0.1-1.2-0.5-2.1-1.5-2.7c1.7-3.2,2.2-6.6,1.8-10.1C219.8,33.9,219.7,33.1,219.6,32.4z"/>
			<path class="st24" d="M194.2,67.2c0.2-0.1,0.4-0.3,0.5-0.3c1,0.2,1.2-0.7,1.7-1.2c0.3-0.4,0.4-0.9,1-1c0.3-0.1,0.2-0.4,0.2-0.6
				c0-1.7,0-3.4,0-5c0.3,0,0.3,0.2,0.3,0.4c0,1.5,0,2.9,0,4.4c0,0.5,0,0.8,0.6,1.1c0.5,0.3,1,0.5,1.5,0.7c1.4,0.6,2.8,1.1,4.1,1.8
				c0,0.1,0,0.1,0,0.2c0,0,0,0.1,0,0.1c-0.8,0.8-1.6,1.6-2.4,2.3c-0.1,0.1-0.3,0.3-0.2,0.5c-0.4-0.1-0.5,0.2-0.8,0.4
				c-0.9,0.9-1.8,1.7-2.7,2.6C196.8,71.5,195.5,69.3,194.2,67.2z"/>
			<path class="st10" d="M204.1,67.7c0-0.1,0-0.1,0-0.2c0,0,0.1,0,0.1,0c2.1-1,4.3-1.7,6.3-2.8c0.2,0,0.3,0,0.5,0
				c0.7,0.4,1,1.2,1.5,1.8c0.3,0.4,0.5,0.5,1,0.5c0.3,0,0.5,0.1,0.7,0.3c-1.3,2.2-2.6,4.4-3.9,6.6c-0.1-0.3-0.3-0.4-0.5-0.6
				c-0.9-0.9-1.9-1.9-2.8-2.8c-0.9-0.9-1.7-1.7-2.6-2.6C204.3,67.7,204.2,67.6,204.1,67.7z"/>
			<path class="st8" d="M198,73.6c0.9-0.9,1.8-1.7,2.7-2.6c0.2-0.2,0.4-0.5,0.8-0.4c0.3,0.2,0.4,0.5,0.7,0.8
				c0.6,0.6,0.9,1.4,0.8,2.3c-0.1,2.5,0,4.9,0,7.4c0,0.3,0.1,0.6-0.1,0.8C201.2,79.1,199.6,76.4,198,73.6z"/>
			<path class="st11" d="M207,70.3c0.9,0.9,1.9,1.9,2.8,2.8c0.2,0.2,0.4,0.3,0.5,0.6c-1.6,2.8-3.1,5.5-4.8,8.2c0-2.8,0-5.6,0-8.4
				c0-0.7,0.1-1.3,0.6-1.8C206.4,71.3,206.8,70.9,207,70.3z"/>
			<path class="st12" d="M202.8,81.9c0.2-0.2,0.1-0.5,0.1-0.8c0-2.5,0-4.9,0-7.4c0-0.9-0.2-1.7-0.8-2.3c-0.2-0.2-0.4-0.6-0.7-0.8
				c-0.1-0.2,0-0.4,0.2-0.5c0.8-0.8,1.6-1.6,2.4-2.3c0,2.4,0,4.9,0,7.3c0,2.6-0.1,5.2,0.1,7.9c0,0.2-0.1,0.4-0.2,0.8
				C203.6,83.1,203.2,82.5,202.8,81.9z"/>
			<path class="st4" d="M197.9,59.5c0-0.2,0-0.4-0.3-0.4c-1.8-1.6-3.3-3.3-4.2-5.5c-0.2-0.4-0.4-0.8-1.2-0.7
				c-0.6,0.1-1.4-0.2-1.8-0.9c-0.2-0.3-0.6-0.4-0.6-0.8c0-0.5-0.2-0.9-0.6-1.2c-0.1-0.6-0.3-1.1-0.3-1.7c0-1.5,0.2-2.8,1.5-3.6
				c0.3-0.2,0.3-0.5,0.5-0.7c0.6-1.2,1.3-2.4,2.3-3.4c1.4-1.5,2.4-1.6,4-0.4c2.1,1.5,4.4,2.5,6.9,2.9c0,0,0,0,0,0
				c0.1,0.1,0.2,0.2,0.3,0.2c-0.2,0.1-0.4,0.3-0.3,0.6c0.3,0.6,0.1,1.3,0.1,1.9c0,5.4,0,10.8,0,16.1c0,0-0.1,0-0.1,0
				c-0.1-0.1-0.2-0.1-0.4-0.1c-1.5,0-2.8-0.5-4.1-1.2C199,60.2,198.5,59.7,197.9,59.5z"/>
			<path class="st5" d="M219.6,32.4c0.1,0.7,0.2,1.5,0.3,2.2c0.4,3.5-0.1,6.9-1.8,10.1c-0.3,0.1-0.5-0.2-0.7-0.4
				c-0.8-0.6-1.6-1.1-2.7-1c-0.8,0.1-1.7,0.2-2.5,0.3c-2.6,0.2-5.2,0.2-7.7-0.4c-0.1-0.1-0.3-0.1-0.4-0.1c0,0,0,0,0,0
				c0-5.2,0-10.5,0-15.7c0-0.4,0-0.7,0.2-1.1c1.8,0.1,3.5,0.5,5.1,1.4c3,1.7,6.2,3,9.4,4C219.1,31.8,219.4,32,219.6,32.4z"/>
			<path class="st6" d="M204.2,26.2c-0.1,0.4-0.2,0.7-0.2,1.1c0,5.2,0,10.5,0,15.7c-2.5-0.5-4.8-1.5-6.9-2.9c-1.6-1.2-2.6-1.1-4,0.4
				c-0.9,1-1.7,2.2-2.3,3.4c-0.1,0.3-0.2,0.6-0.5,0.7c-0.7-3.1-0.6-6.2,0.1-9.4c0.8-3.6,3-5.4,6.6-5.6c0.4,0,0.7,0,0.8-0.4
				c0.8-2,2.5-2.8,4.5-3.1C203,26.2,203.6,26.2,204.2,26.2z"/>
			<path class="st8" d="M189.1,50c0.4,0.3,0.6,0.7,0.6,1.2C189.1,51,189.1,50.5,189.1,50z"/>
			<path class="st9" d="M204.5,43.2c2.5,0.6,5.1,0.6,7.7,0.4c0.8-0.1,1.7-0.3,2.5-0.3c1-0.1,1.9,0.5,2.7,1c0.2,0.2,0.3,0.5,0.7,0.4
				c1,0.6,1.5,1.5,1.5,2.7c0.1,1.9-0.4,3.5-1.8,4.9c-0.4,0.4-1,0.7-1.6,0.6c-0.6-0.1-0.8,0.2-1.1,0.7c-1,1.9-2.2,3.6-3.8,5.1
				c-0.4,0.2-0.7,0.5-0.9,0.9c-0.4,0.1-0.7,0.4-1.1,0.6c-1.6,1.2-3.3,1.7-5.3,1.7c0-5.4,0-10.8,0-16.1c0-0.6,0.2-1.3-0.1-1.9
				c-0.1-0.3,0.1-0.4,0.3-0.6C204.4,43.2,204.4,43.2,204.5,43.2z"/>
			<path class="st11" d="M210.5,59.5c0.2-0.4,0.5-0.7,0.9-0.9c-1.1,1.7-0.4,3.6-0.6,5.3c0,0.3,0.1,0.5,0.2,0.7c-0.2,0-0.3,0-0.5,0
				c0,0,0-0.1,0-0.1c0.3-1.3,0.1-2.5,0.1-3.8C210.7,60.3,210.8,59.9,210.5,59.5L210.5,59.5z"/>
			<path class="st14" d="M197.9,59.5c0.7,0.2,1.1,0.7,1.7,1c1.2,0.8,2.6,1.2,4.1,1.2c0.2,0,0.3,0,0.4,0.1c0.1,1.8-0.2,3.7,0.2,5.5
				c0,0-0.1,0-0.1,0c-1.3-0.7-2.7-1.2-4.1-1.8c-0.5-0.2-1-0.4-1.5-0.7c-0.6-0.3-0.6-0.6-0.6-1.1C197.9,62.4,197.9,60.9,197.9,59.5z"
				/>
			<path class="st13" d="M204.2,67.4c-0.3-1.8-0.1-3.7-0.2-5.5c0,0,0.1,0,0.1,0c1.9-0.1,3.7-0.6,5.3-1.7c0.3-0.2,0.6-0.6,1.1-0.6
				c0,0,0,0,0,0c0,1.7,0,3.3,0,5c0,0,0,0.1,0,0.1C208.5,65.7,206.3,66.4,204.2,67.4z"/>
			<path class="st6" d="M204.5,43.2c-0.1,0-0.1,0-0.2,0.1c-0.1,0-0.2-0.1-0.3-0.2C204.2,43.1,204.4,43.1,204.5,43.2z"/>
			<path class="st10" d="M210.5,64.5c0-1.7,0-3.3,0-5c0.3,0.4,0.1,0.8,0.1,1.2C210.6,61.9,210.8,63.2,210.5,64.5z"/>
		</g>
	</g>
</g>
<g>
	<path class="st15" d="M320,205c0-5.1,1-10,2.9-14.7c1.9-4.7,4.7-8.8,8.3-12.4c3.6-3.6,7.7-6.4,12.4-8.3c4.7-1.9,9.6-2.9,14.7-2.9
		c5.1,0,10,1,14.7,2.9c4.7,1.9,8.8,4.7,12.4,8.3c3.6,3.6,6.4,7.7,8.3,12.4c1.9,4.7,2.9,9.6,2.9,14.7c0,5.1-1,10-2.9,14.7
		c-1.9,4.7-4.7,8.8-8.3,12.4c-3.6,3.6-7.7,6.4-12.4,8.3c-4.7,1.9-9.6,2.9-14.7,2.9c-5.1,0-10-1-14.7-2.9c-4.7-1.9-8.8-4.7-12.4-8.3
		c-3.6-3.6-6.4-7.7-8.3-12.4C321,215,320,210.1,320,205z"/>
	<rect x="323.2" y="185.4" class="st16" width="88.4" height="38.7"/>
	<text transform="matrix(1 0 0 1 329.6162 210.8383)" class="st17 st18 st19">w</text>
	<text transform="matrix(1 0 0 1 349.0488 210.8383)" class="st17 st18 st19">w</text>
	<text transform="matrix(1 0 0 1 368.4814 210.8383)" class="st17 st18 st19">w</text>
	<line class="st20" x1="396.7" y1="243.4" x2="388.1" y2="234.5"/>
	<polygon class="st21" points="394.7,228 370,216.2 381.4,241.1 	"/>
	<polygon class="st22" points="394.7,228 370,216.2 381.4,241.1 	"/>
	<path class="st15" d="M282.3,317.3c0-5.1,1-10,2.9-14.7c1.9-4.7,4.7-8.8,8.3-12.4c3.6-3.6,7.7-6.4,12.4-8.3
		c4.7-1.9,9.6-2.9,14.7-2.9c5.1,0,10,1,14.7,2.9c4.7,1.9,8.8,4.7,12.4,8.3c3.6,3.6,6.4,7.7,8.3,12.4c1.9,4.7,2.9,9.6,2.9,14.7
		c0,5.1-1,10-2.9,14.7c-1.9,4.7-4.7,8.8-8.3,12.4c-3.6,3.6-7.7,6.4-12.4,8.3c-4.7,1.9-9.6,2.9-14.7,2.9c-10.6,0-19.6-3.7-27.1-11.2
		C286.1,337,282.3,327.9,282.3,317.3L282.3,317.3z"/>
	<rect x="285.6" y="297.7" class="st16" width="88.4" height="38.7"/>
	<text transform="matrix(1 0 0 1 291.9658 323.1659)" class="st17 st18 st19">w</text>
	<text transform="matrix(1 0 0 1 311.3994 323.1659)" class="st17 st18 st19">w</text>
	<text transform="matrix(1 0 0 1 330.8311 323.1659)" class="st17 st18 st19">w</text>
	<line class="st20" x1="359.1" y1="355.7" x2="350.4" y2="346.8"/>
	<polygon class="st21" points="357.1,340.3 332.4,328.5 343.7,353.4 	"/>
	<polygon class="st22" points="357.1,340.3 332.4,328.5 343.7,353.4 	"/>
	<path class="st15" d="M165.4,365.9c0-7.8,2.2-14.9,6.5-21.3c4.3-6.5,10.1-11.2,17.2-14.1c7.2-3,14.6-3.7,22.2-2.2s14.2,5,19.6,10.5
		c5.5,5.5,9,12,10.5,19.6c1.5,7.6,0.8,15-2.2,22.2c-3,7.2-7.7,12.9-14.1,17.2c-6.5,4.3-13.6,6.5-21.3,6.5c-5.1,0-10-1-14.7-2.9
		c-4.7-1.9-8.8-4.7-12.4-8.3c-3.6-3.6-6.4-7.7-8.3-12.4C166.3,375.9,165.4,371,165.4,365.9L165.4,365.9z"/>
	<rect x="168.6" y="346.3" class="st16" width="88.4" height="38.7"/>
	<text transform="matrix(1 0 0 1 174.9634 371.746)" class="st17 st18 st19">w</text>
	<text transform="matrix(1 0 0 1 194.396 371.746)" class="st17 st18 st19">w</text>
	<text transform="matrix(1 0 0 1 213.8291 371.746)" class="st17 st18 st19">w</text>
	<line class="st20" x1="242.1" y1="404.3" x2="233.4" y2="395.4"/>
	<polygon class="st21" points="240.1,388.9 215.4,377.1 226.7,402 	"/>
	<polygon class="st22" points="240.1,388.9 215.4,377.1 226.7,402 	"/>
	<line class="st25" x1="203.7" y1="113.8" x2="203.7" y2="128.8"/>
	<polygon class="st26" points="208.4,113.8 203.7,100.9 199,113.8 	"/>
	<polygon class="st27" points="208.4,113.8 203.7,100.9 199,113.8 	"/>
	<polygon class="st26" points="199,128.8 203.7,141.7 208.4,128.8 	"/>
	<polygon class="st27" points="199,128.8 203.7,141.7 208.4,128.8 	"/>
	<line class="st25" x1="203.7" y1="285" x2="203.7" y2="300.1"/>
	<polygon class="st26" points="208.4,285 203.7,272.2 199,285 	"/>
	<polygon class="st27" points="208.4,285 203.7,272.2 199,285 	"/>
	<polygon class="st26" points="199,300.1 203.7,313 208.4,300.1 	"/>
	<polygon class="st27" points="199,300.1 203.7,313 208.4,300.1 	"/>
	<line class="st25" x1="276.1" y1="143.3" x2="265.7" y2="154.2"/>
	<polygon class="st26" points="279.5,146.5 285,134 272.7,140.1 	"/>
	<polygon class="st27" points="279.5,146.5 285,134 272.7,140.1 	"/>
	<polygon class="st26" points="262.3,151 256.8,163.5 269.1,157.5 	"/>
	<polygon class="st27" points="262.3,151 256.8,163.5 269.1,157.5 	"/>
	<line class="st25" x1="140.3" y1="262" x2="129.9" y2="272.9"/>
	<polygon class="st26" points="143.7,265.2 149.2,252.7 136.9,258.8 	"/>
	<polygon class="st27" points="143.7,265.2 149.2,252.7 136.9,258.8 	"/>
	<polygon class="st26" points="126.5,269.7 121,282.2 133.3,276.2 	"/>
	<polygon class="st27" points="126.5,269.7 121,282.2 133.3,276.2 	"/>
	<line class="st25" x1="276.8" y1="267.9" x2="264.2" y2="256.7"/>
	<polygon class="st26" points="273.6,271.4 286.3,276.5 279.9,264.4 	"/>
	<polygon class="st27" points="273.6,271.4 286.3,276.5 279.9,264.4 	"/>
	<polygon class="st26" points="267.3,253.2 254.6,248.1 261.1,260.1 	"/>
	<polygon class="st27" points="267.3,253.2 254.6,248.1 261.1,260.1 	"/>
	<line class="st25" x1="143.4" y1="154.4" x2="130.8" y2="143.1"/>
	<polygon class="st26" points="140.2,157.9 152.9,163 146.5,150.9 	"/>
	<polygon class="st27" points="140.2,157.9 152.9,163 146.5,150.9 	"/>
	<polygon class="st26" points="133.9,139.7 121.2,134.5 127.7,146.6 	"/>
	<polygon class="st27" points="133.9,139.7 121.2,134.5 127.7,146.6 	"/>
	<line class="st25" x1="297.3" y1="204.8" x2="281.3" y2="204.8"/>
	<polygon class="st26" points="297.3,209.4 310.2,204.8 297.3,200.1 	"/>
	<polygon class="st27" points="297.3,209.4 310.2,204.8 297.3,200.1 	"/>
	<polygon class="st26" points="281.3,200.1 268.5,204.8 281.3,209.4 	"/>
	<polygon class="st27" points="281.3,200.1 268.5,204.8 281.3,209.4 	"/>
	<line class="st25" x1="129.4" y1="204.8" x2="113.4" y2="204.8"/>
	<polygon class="st26" points="129.4,209.4 142.3,204.8 129.4,200.1 	"/>
	<polygon class="st27" points="129.4,209.4 142.3,204.8 129.4,200.1 	"/>
	<polygon class="st26" points="113.4,200.1 100.5,204.8 113.4,209.4 	"/>
	<polygon class="st27" points="113.4,200.1 100.5,204.8 113.4,209.4 	"/>
</g>
</svg>
