<?xml version="1.0" encoding="UTF-8"?>
<svg width="38px" height="38px" viewBox="0 0 38 38" version="1.1" xmlns="http://www.w3.org/2000/svg" xmlns:xlink="http://www.w3.org/1999/xlink">
    <!-- Generator: Sketch 47.1 (45422) - http://www.bohemiancoding.com/sketch -->
    <title>snapchaat</title>
    <desc>Created with Sketch.</desc>
    <defs></defs>
    <g id="лендинг" stroke="none" stroke-width="1" fill="none" fill-rule="evenodd">
        <g id="Artboard" transform="translate(-469.000000, -672.000000)" fill="#EFEFEF">
            <path d="M488,710 C477.50659,710 469,701.49341 469,691 C469,680.50659 477.50659,672 488,672 C498.49341,672 507,680.50659 507,691 C507,701.49341 498.49341,710 488,710 Z M488.126185,700 C489.311379,700 490.071764,699.455933 490.808639,698.928496 C491.315478,698.565892 491.79432,698.223755 492.358289,698.128579 C492.633954,698.082397 492.908291,698.058987 493.173402,698.058987 C493.627408,698.058987 493.984217,698.117001 494.302477,698.180005 C494.481956,698.215696 494.62358,698.233733 494.723115,698.233733 L494.746498,698.233733 C494.890018,698.233733 494.975334,698.168875 495.0154,698.030332 C495.06185,697.870617 495.095597,697.718833 495.128902,697.564235 C495.220537,697.139523 495.280069,696.936953 495.433637,696.913095 C497.313491,696.619122 497.850917,696.219035 497.970169,695.936832 C497.987422,695.896727 497.997281,695.855471 497.999682,695.814471 C498.005559,695.705223 497.929344,695.608895 497.822668,695.591049 C494.932549,695.109026 493.638278,692.121583 493.584497,691.994809 C493.58317,691.991099 493.581401,691.987709 493.579821,691.984191 C493.403059,691.621331 493.368364,691.306762 493.476684,691.048864 C493.674806,690.576052 494.32112,690.368429 494.749594,690.230845 C494.854691,690.197073 494.953973,690.165155 495.031642,690.134261 C495.78103,689.83466 495.933777,689.530197 495.929985,689.327627 C495.925941,689.112584 495.735844,688.906752 495.445708,688.802685 L495.439514,688.800127 C495.337325,688.756952 495.214281,688.733158 495.09288,688.733158 C495.013378,688.733158 494.896654,688.743647 494.791494,688.793347 C494.432789,688.963423 494.105935,689.05521 493.821549,689.066212 L493.821106,689.066212 C493.446855,689.051692 493.281152,688.890186 493.260487,688.868887 C493.270156,688.689919 493.281658,688.502956 493.293602,688.31062 L493.297204,688.250559 C493.383342,686.869284 493.490271,685.150158 493.058068,684.169225 C491.762343,681.228731 489.01012,681 488.197408,681 L488.149379,681.000192 C488.149379,681.000192 487.814688,681.003838 487.793896,681.003838 C486.983081,681.003838 484.236862,681.232121 482.941832,684.171016 C482.509755,685.151437 482.616368,686.869028 482.702379,688.25139 C482.715714,688.464642 482.728732,688.671306 482.739223,688.869206 C482.717167,688.892233 482.536993,689.067811 482.124191,689.067811 C481.82546,689.067811 481.479204,688.975512 481.09503,688.793347 C481.02899,688.762133 480.950436,688.746142 480.861265,688.746142 C480.535991,688.746142 480.133743,688.958434 480.076487,689.263025 C480.042992,689.441801 480.114026,689.792572 480.968068,690.134261 C481.046369,690.165603 481.145651,690.197328 481.250368,690.230845 C481.678337,690.368237 482.324904,690.576052 482.523153,691.048928 C482.631346,691.306954 482.596714,691.621778 482.419889,691.984383 C482.418309,691.987901 482.416729,691.991291 482.415276,691.994809 C482.361495,692.121711 481.066086,695.109986 478.177295,695.591497 C478.070682,695.609087 477.994214,695.705543 478.000344,695.814727 C478.002619,695.855023 478.012288,695.895768 478.029288,695.936384 C478.149173,696.220634 478.687041,696.621233 480.566262,696.915014 C480.727478,696.940087 480.787135,697.1795 480.871124,697.568905 C480.90367,697.720177 480.937544,697.876565 480.984436,698.038071 C481.03828,698.224459 481.162335,698.249532 481.276785,698.249532 C481.386305,698.249532 481.530457,698.221069 481.697549,698.188 C481.972519,698.133568 482.349109,698.058987 482.826498,698.058987 C483.091545,698.058987 483.365756,698.082397 483.641231,698.128579 C484.205832,698.223755 484.684991,698.566531 485.192777,698.929712 C485.928136,699.455933 486.688647,700 487.873461,700 C487.907208,700 487.941019,699.998593 487.973249,699.996098 L487.973376,699.996098 C488.023996,699.998529 488.07468,700 488.126185,700 Z" id="snapchaat"></path>
        </g>
    </g>
</svg>