<?xml version="1.0" encoding="UTF-8"?>
<svg width="32px" height="32px" viewBox="0 0 32 32" version="1.1" xmlns="http://www.w3.org/2000/svg" xmlns:xlink="http://www.w3.org/1999/xlink">
    <!-- Generator: Sketch 47.1 (45422) - http://www.bohemiancoding.com/sketch -->
    <title>steemit</title>
    <desc>Created with Sketch.</desc>
    <defs></defs>
    <g id="лендинг" stroke="none" stroke-width="1" fill="none" fill-rule="evenodd">
        <g id="Sharpay-home-Copy" transform="translate(-46.000000, -676.000000)" fill-rule="nonzero" fill="#FFFFFF">
            <g id="steemit" transform="translate(46.000000, 676.000000)">
                <path d="M18.5,12.1 C16.8,11.9 15.1,12.5 13.9,13.6 C12.2,15.2 11.8,17.7 12.8,19.8 C13,20.1 13,20.5 12.8,20.8 C12.6,21.4 12.1,22 11.6,22.5 C12.6,22.9 13.5,23.2 14.9,23.4 C15.8,23.5 16.8,23.5 17.7,23.4 C17.7,23.4 17.7,23.4 17.7,23.4 C19,23.3 20.6,22.6 21.7,21.6 C23.9,19.5 24,15.9 21.8,13.7 C20.9,12.8 19.7,12.3 18.5,12.1 Z" id="Shape"></path>
                <path d="M16,0 C7.2,0 0,7.2 0,16 C0,24.8 7.2,32 16,32 C24.8,32 32,24.8 32,16 C32,7.2 24.8,0 16,0 Z M23,22.8 C21.6,24.1 19.8,25.1 18,25.2 C16.9,25.3 15.8,25.3 14.7,25.2 C10.9,24.7 8,22.9 8,22.9 C8,22.9 10.2,22.4 10.9,20.7 C10.9,20.7 10.9,20.7 10.9,20.6 C10.4,20.3 9.9,20 9.4,19.6 C6.4,17 6,12.6 8.6,9.6 C9.8,8.2 11.5,7.2 13.2,6.9 C18.4,5.9 23,8.3 23,8.3 C23,8.3 21,8.9 20.4,10.5 C21.4,10.9 22.3,11.4 23.1,12.2 C26,15.2 25.9,19.9 23,22.8 Z" id="Shape"></path>
            </g>
        </g>
    </g>
</svg>