<svg width="32" height="32" xmlns="http://www.w3.org/2000/svg">
 <!-- Generator: Sketch 47.1 (45422) - http://www.bohemiancoding.com/sketch -->
 <title>steemit</title>
 <desc>Created with Sketch.</desc>

 <g>
  <title>background</title>
  <rect fill="none" id="canvas_background" height="402" width="582" y="-1" x="-1"/>
 </g>
 <g>
  <title>Layer 1</title>
  <path fill="#ff9933" id="Shape" d="m18.5,12.1c-1.7,-0.2 -3.4,0.4 -4.6,1.5c-1.7,1.6 -2.1,4.1 -1.1,6.2c0.2,0.3 0.2,0.7 0,1c-0.2,0.6 -0.7,1.2 -1.2,1.7c1,0.4 1.9,0.7 3.3,0.9c0.9,0.1 1.9,0.1 2.8,0c0,0 0,0 0,0c1.3,-0.1 2.9,-0.8 4,-1.8c2.2,-2.1 2.3,-5.7 0.1,-7.9c-0.9,-0.9 -2.1,-1.4 -3.3,-1.6z"/>
  <path fill="#ff9933" id="Shape" d="m16,0c-8.8,0 -16,7.2 -16,16c0,8.8 7.2,16 16,16c8.8,0 16,-7.2 16,-16c0,-8.8 -7.2,-16 -16,-16zm7,22.8c-1.4,1.3 -3.2,2.3 -5,2.4c-1.1,0.1 -2.2,0.1 -3.3,0c-3.8,-0.5 -6.7,-2.3 -6.7,-2.3c0,0 2.2,-0.5 2.9,-2.2c0,0 0,0 0,-0.1c-0.5,-0.3 -1,-0.6 -1.5,-1c-3,-2.6 -3.4,-7 -0.8,-10c1.2,-1.4 2.9,-2.4 4.6,-2.7c5.2,-1 9.8,1.4 9.8,1.4c0,0 -2,0.6 -2.6,2.2c1,0.4 1.9,0.9 2.7,1.7c2.9,3 2.8,7.7 -0.1,10.6z"/>
 </g>
</svg>