<?xml version="1.0" encoding="utf-8"?>
<!-- Generator: Adobe Illustrator 22.0.0, SVG Export Plug-In . SVG Version: 6.00 Build 0)  -->
<svg version="1.1" id="Слой_1" xmlns="http://www.w3.org/2000/svg" xmlns:xlink="http://www.w3.org/1999/xlink" x="0px" y="0px"
	 viewBox="0 0 32 32" style="enable-background:new 0 0 32 32;" xml:space="preserve">
<style type="text/css">
	.st0{fill:#FFFFFF;}
	.st1{fill:#06D6A9;}
</style>
<title>steemit</title>
<desc>Created with Sketch.</desc>
<g id="лендинг">
	<g id="Sharpay-home-Copy" transform="translate(-46.000000, -676.000000)">
		<g id="steemit" transform="translate(46.000000, 676.000000)">
			<path class="st0" d="M16,1.9C8.2,1.9,1.9,8.2,1.9,16c0,7.8,6.3,14.1,14.1,14.1S30.1,23.8,30.1,16C30.1,8.2,23.8,1.9,16,1.9z"/>
			<path id="Shape" class="st1" d="M18.5,12.1c-1.7-0.2-3.4,0.4-4.6,1.5c-1.7,1.6-2.1,4.1-1.1,6.2c0.2,0.3,0.2,0.7,0,1
				c-0.2,0.6-0.7,1.2-1.2,1.7c1,0.4,1.9,0.7,3.3,0.9c0.9,0.1,1.9,0.1,2.8,0l0,0c1.3-0.1,2.9-0.8,4-1.8c2.2-2.1,2.3-5.7,0.1-7.9
				C20.9,12.8,19.7,12.3,18.5,12.1z"/>
			<path id="Shape_1_" class="st1" d="M16,0C7.2,0,0,7.2,0,16s7.2,16,16,16s16-7.2,16-16S24.8,0,16,0z M23,22.8
				c-1.4,1.3-3.2,2.3-5,2.4c-1.1,0.1-2.2,0.1-3.3,0C10.9,24.7,8,22.9,8,22.9s2.2-0.5,2.9-2.2c0,0,0,0,0-0.1c-0.5-0.3-1-0.6-1.5-1
				c-3-2.6-3.4-7-0.8-10c1.2-1.4,2.9-2.4,4.6-2.7c5.2-1,9.8,1.4,9.8,1.4s-2,0.6-2.6,2.2c1,0.4,1.9,0.9,2.7,1.7
				C26,15.2,25.9,19.9,23,22.8z"/>
		</g>
	</g>
</g>
</svg>
