<?xml version="1.0" encoding="utf-8"?>
<!-- Generator: Adobe Illustrator 22.0.0, SVG Export Plug-In . SVG Version: 6.00 Build 0)  -->
<svg version="1.1" id="Слой_1" xmlns="http://www.w3.org/2000/svg" xmlns:xlink="http://www.w3.org/1999/xlink" x="0px" y="0px"
	 viewBox="0 0 32 32" style="enable-background:new 0 0 32 32;" xml:space="preserve">
<style type="text/css">
	.st0{fill:#FFFFFF;}
	.st1{fill:#0088CC;}
</style>
<title>telegram</title>
<desc>Created with Sketch.</desc>
<g id="лендинг">
	<g id="Sharpay-home-Copy" transform="translate(-232.000000, -765.000000)">
		<g id="telegram" transform="translate(232.000000, 765.000000)">
			<circle class="st0" cx="16.4" cy="17.3" r="11.6"/>
			<path id="Combined-Shape" class="st1" d="M13.3,19.3l-0.3,4.1c0.4,0,0.6-0.2,0.8-0.4l1.9-1.9l4,3c0.7,0.4,1.3,0.2,1.5-0.7
				L23.9,11c0.3-1.1-0.4-1.6-1.1-1.2L7.3,15.7c-1.1,0.4-1,1-0.2,1.3l4,1.2l9.2-5.8c0.4-0.3,0.8-0.1,0.5,0.2L13.3,19.3L13.3,19.3z
				 M27.3,4.7c6.2,6.2,6.2,16.4,0,22.6s-16.4,6.2-22.6,0s-6.2-16.4,0-22.6S21.1-1.6,27.3,4.7z"/>
		</g>
	</g>
</g>
</svg>
