<?xml version="1.0" encoding="UTF-8"?>
<svg width="32px" height="32px" viewBox="0 0 32 32" version="1.1" xmlns="http://www.w3.org/2000/svg" xmlns:xlink="http://www.w3.org/1999/xlink">
    <!-- Generator: Sketch 47.1 (45422) - http://www.bohemiancoding.com/sketch -->
    <title>telegram</title>
    <desc>Created with Sketch.</desc>
    <defs></defs>
    <g id="лендинг" stroke="none" stroke-width="1" fill="none" fill-rule="evenodd">
        <g id="Sharpay-home-Copy" transform="translate(-232.000000, -765.000000)" fill-rule="nonzero" fill="#0088CC">
            <g id="telegram" transform="translate(232.000000, 765.000000)">
                <path d="M13.3388971,19.2548369 L13.0666667,23.33336 C13.4666667,23.33336 13.6434027,23.1504267 13.8666667,22.93336 L15.7884893,21.0646277 L19.7866667,24.0185333 C20.522464,24.42452 21.05352,24.21432 21.2368,23.3353973 L23.8614667,10.9669707 C24.1301867,9.88961067 23.4507867,9.40097067 22.74688,9.720544 L7.33488,15.6633173 C6.282864,16.0852773 6.28899733,16.6721973 7.14312,16.9337173 L11.0981867,18.1681547 L20.2546133,12.3915147 C20.6868667,12.1293947 21.083584,12.2703157 20.7579733,12.5593013 L13.3386667,19.2546667 Z M27.3136907,4.68627733 C33.562064,10.9346507 33.562064,21.0653173 27.3136907,27.3136907 C21.0653173,33.562064 10.9346507,33.562064 4.68627733,27.3136907 C-1.562096,21.0653173 -1.562096,10.9346507 4.68627733,4.68627733 C10.9346507,-1.562096 21.0653173,-1.562096 27.3136907,4.68627733 Z" id="Combined-Shape"></path>
            </g>
        </g>
    </g>
</svg>