<?xml version="1.0" encoding="UTF-8"?>
<svg width="36px" height="36px" viewBox="0 0 36 36" version="1.1" xmlns="http://www.w3.org/2000/svg" xmlns:xlink="http://www.w3.org/1999/xlink">
    <!-- Generator: Sketch 47.1 (45422) - http://www.bohemiancoding.com/sketch -->
    <title>tele</title>
    <desc>Created with Sketch.</desc>
    <defs></defs>
    <g id="лендинг" stroke="none" stroke-width="1" fill="none" fill-rule="evenodd">
        <g id="Artboard" transform="translate(-575.000000, -496.000000)" fill-rule="nonzero" fill="#EFEFEF">
            <path d="M590.006259,517.661691 L589.7,522.25003 C590.15,522.25003 590.348828,522.04423 590.6,521.80003 L592.762051,519.697706 L597.26,523.02085 C598.087772,523.477585 598.68521,523.24111 598.8914,522.252322 L601.84415,508.337842 C602.14646,507.125812 601.382135,506.576092 600.59024,506.935612 L583.25174,513.621232 C582.068222,514.095937 582.075122,514.756222 583.03601,515.050432 L587.48546,516.439174 L597.78644,509.940454 C598.272725,509.645569 598.719032,509.804105 598.35272,510.129214 L590.006,517.6615 Z M605.727902,501.272062 C612.757322,508.301482 612.757322,519.698482 605.727902,526.727902 C598.698482,533.757322 587.301482,533.757322 580.272062,526.727902 C573.242642,519.698482 573.242642,508.301482 580.272062,501.272062 C587.301482,494.242642 598.698482,494.242642 605.727902,501.272062 Z" id="tele"></path>
        </g>
    </g>
</svg>