<svg width="32" height="32" xmlns="http://www.w3.org/2000/svg">
 <!-- Generator: Sketch 47.1 (45422) - http://www.bohemiancoding.com/sketch -->
 <title>telegram</title>
 <desc>Created with Sketch.</desc>

 <g>
  <title>background</title>
  <rect fill="none" id="canvas_background" height="402" width="582" y="-1" x="-1"/>
 </g>
 <g>
  <title>Layer 1</title>
  <path fill="#ff9933" id="Combined-Shape" d="m13.3389,19.25484l-0.27223,4.07852c0.4,0 0.57673,-0.18293 0.8,-0.4l1.92182,-1.86873l3.99818,2.9539c0.73579,0.40599 1.26685,0.19579 1.45013,-0.68313l2.62467,-12.36843c0.26872,-1.07736 -0.41068,-1.566 -1.11459,-1.24643l-15.412,5.94278c-1.05202,0.42196 -1.04588,1.00888 -0.19176,1.2704l3.95507,1.23443l9.15642,-5.77664c0.43226,-0.26212 0.82897,-0.12119 0.50336,0.16779l-7.4193,6.69537l0.00023,0.00017zm13.97479,-14.56856c6.24837,6.24837 6.24837,16.37904 0,22.62741c-6.24837,6.24837 -16.37904,6.24837 -22.62741,0c-6.24838,-6.24837 -6.24838,-16.37904 0,-22.62741c6.24837,-6.24838 16.37904,-6.24838 22.62741,0z"/>
 </g>
</svg>