<?xml version="1.0" encoding="utf-8"?>
<svg width="36px" height="36px" version="1.1" id="Слой_1" xmlns="http://www.w3.org/2000/svg" xmlns:xlink="http://www.w3.org/1999/xlink" x="0px" y="0px"
	 viewBox="0 0 36 36" style="enable-background:new 0 0 36 36;" xml:space="preserve">
<style type="text/css">
	.st0{fill:#EFEFEF;}
</style>
<title>fb</title>
<desc>Created with Sketch.</desc>
<g id="лендинг">
	<g id="Artboard" transform="translate(-345.000000, -496.000000)">
		<path id="tumblr" class="st0" d="M363,496c-9.9,0-18,8.1-18,18c0,9.9,8.1,18,18,18s18-8.1,18-18C381,504.1,372.9,496,363,496z
			 M368.8,522c-0.8,0.5-1.8,0.8-2.5,1c-0.7,0.2-1.4,0.2-2.2,0.2c-0.8,0-1.6-0.1-2.4-0.3c-0.7-0.2-1.1-0.5-1.6-0.9
			c-0.5-0.4-0.7-0.9-0.9-1.3c-0.2-0.5-0.3-1.5-0.3-2.4v-6.8h-2.5v-3.1c0.8-0.1,1.5-0.3,2-0.8c0.6-0.5,1-1,1.3-1.7
			c0.3-0.7,0.4-1.5,0.4-2.5h3.1v5h5v3.1h-5v5c0,1.2,0.1,2.1,0.2,2.4c0.1,0.3,0.3,0.6,0.7,0.8c0.4,0.3,0.9,0.4,1.5,0.4
			c1,0,2.2-0.3,3.2-1.1V522z"/>
	</g>
</g>
</svg>
