<?xml version="1.0" encoding="UTF-8"?>
<svg width="36px" height="36px" viewBox="0 0 36 36" version="1.1" xmlns="http://www.w3.org/2000/svg" xmlns:xlink="http://www.w3.org/1999/xlink">
    <!-- Generator: Sketch 47.1 (45422) - http://www.bohemiancoding.com/sketch -->
    <title>tw</title>
    <desc>Created with Sketch.</desc>
    <defs></defs>
    <g id="лендинг" stroke="none" stroke-width="1" fill="none" fill-rule="evenodd">
        <g id="Artboard" transform="translate(-391.000000, -496.000000)" fill-rule="nonzero" fill="#EFEFEF">
            <path d="M409,496 C413.999987,496 418.250013,497.750013 421.75,501.25 C425.249987,504.749987 427,509.000013 427,514 C427,518.95 425.249987,523.1875 421.75,526.7125 C418.250013,530.2375 413.999987,532 409,532 C404.05,532 399.8125,530.2375 396.2875,526.7125 C392.7625,523.1875 391,518.95 391,514 C391,509.000013 392.7625,504.749987 396.2875,501.25 C399.8125,497.750013 404.05,496 409,496 Z M416.35,510.7 C417.1,510.149988 417.674988,509.549987 418.075,508.9 C417.275013,509.2 416.600013,509.375012 416.05,509.425 C416.8,508.975 417.325,508.325013 417.625,507.475 C416.875,507.875013 416.125,508.15 415.375,508.3 C414.674988,507.599987 413.8,507.25 412.75,507.25 C411.749988,507.25 410.9125,507.599987 410.2375,508.3 C409.5625,509.000013 409.225,509.825013 409.225,510.775 C409.225,510.824988 409.237488,510.950013 409.2625,511.15 C409.287513,511.349987 409.3,511.499987 409.3,511.6 C406.3,511.45 403.874988,510.200013 402.025,507.85 C401.675013,508.45 401.5,509.05 401.5,509.65 C401.5,510.899988 402.050013,511.874987 403.15,512.575 C402.500013,512.575 401.95,512.425 401.5,512.125 C401.5,512.125 401.5,512.2 401.5,512.2 C401.5,513.050012 401.7625,513.800012 402.2875,514.45 C402.8125,515.099987 403.499988,515.5 404.35,515.65 C403.949988,515.750013 403.649988,515.8 403.45,515.8 C403.15,515.8 402.925,515.774987 402.775,515.725 C403.274988,517.375 404.375013,518.2 406.075,518.2 C404.825013,519.200012 403.349987,519.7 401.65,519.7 C401.65,519.7 400.825,519.7 400.825,519.7 C402.524988,520.75 404.324988,521.275 406.225,521.275 C409.274988,521.275 411.725013,520.237487 413.575,518.1625 C415.424988,516.087513 416.35,513.749987 416.35,511.15 C416.35,511.15 416.35,510.7 416.35,510.7 Z" id="tw"></path>
        </g>
    </g>
</svg>