<?xml version="1.0" encoding="UTF-8"?>
<svg width="32px" height="32px" viewBox="0 0 32 32" version="1.1" xmlns="http://www.w3.org/2000/svg" xmlns:xlink="http://www.w3.org/1999/xlink">
    <!-- Generator: Sketch 47.1 (45422) - http://www.bohemiancoding.com/sketch -->
    <title>twitter</title>
    <desc>Created with Sketch.</desc>
    <defs></defs>
    <g id="лендинг" stroke="none" stroke-width="1" fill="none" fill-rule="evenodd">
        <g id="Sharpay-home-Copy" transform="translate(-336.000000, -765.000000)" fill-rule="nonzero" fill="#FFFFFF">
            <g id="twitter" transform="translate(336.000000, 765.000000)">
                <path d="M16,0 C20.4444333,0 24.2222333,1.55556667 27.3333333,4.66666667 C30.4444333,7.77776667 32,11.5555667 32,16 C32,20.4 30.4444333,24.1666667 27.3333333,27.3 C24.2222333,30.4333333 20.4444333,32 16,32 C11.6,32 7.83333333,30.4333333 4.7,27.3 C1.56666667,24.1666667 0,20.4 0,16 C0,11.5555667 1.56666667,7.77776667 4.7,4.66666667 C7.83333333,1.55556667 11.6,0 16,0 Z M22.5333333,13.0666667 C23.2,12.5777667 23.7111,12.0444333 24.0666667,11.4666667 C23.3555667,11.7333333 22.7555667,11.8889 22.2666667,11.9333333 C22.9333333,11.5333333 23.4,10.9555667 23.6666667,10.2 C23,10.5555667 22.3333333,10.8 21.6666667,10.9333333 C21.0444333,10.3111 20.2666667,10 19.3333333,10 C18.4444333,10 17.7,10.3111 17.1,10.9333333 C16.5,11.5555667 16.2,12.2889 16.2,13.1333333 C16.2,13.1777667 16.2111,13.2889 16.2333333,13.4666667 C16.2555667,13.6444333 16.2666667,13.7777667 16.2666667,13.8666667 C13.6,13.7333333 11.4444333,12.6222333 9.8,10.5333333 C9.4889,11.0666667 9.33333333,11.6 9.33333333,12.1333333 C9.33333333,13.2444333 9.82223333,14.1111 10.8,14.7333333 C10.2222333,14.7333333 9.73333333,14.6 9.33333333,14.3333333 C9.33333333,14.3333333 9.33333333,14.4 9.33333333,14.4 C9.33333333,15.1555667 9.56666667,15.8222333 10.0333333,16.4 C10.5,16.9777667 11.1111,17.3333333 11.8666667,17.4666667 C11.5111,17.5555667 11.2444333,17.6 11.0666667,17.6 C10.8,17.6 10.6,17.5777667 10.4666667,17.5333333 C10.9111,19 11.8889,19.7333333 13.4,19.7333333 C12.2889,20.6222333 10.9777667,21.0666667 9.46666667,21.0666667 C9.46666667,21.0666667 8.73333333,21.0666667 8.73333333,21.0666667 C10.2444333,22 11.8444333,22.4666667 13.5333333,22.4666667 C16.2444333,22.4666667 18.4222333,21.5444333 20.0666667,19.7 C21.7111,17.8555667 22.5333333,15.7777667 22.5333333,13.4666667 C22.5333333,13.4666667 22.5333333,13.0666667 22.5333333,13.0666667 Z" id="Combined-Shape"></path>
            </g>
        </g>
    </g>
</svg>