<?xml version="1.0" encoding="utf-8"?>
<!-- Generator: Adobe Illustrator 22.0.0, SVG Export Plug-In . SVG Version: 6.00 Build 0)  -->
<svg version="1.1" id="Слой_1" xmlns="http://www.w3.org/2000/svg" xmlns:xlink="http://www.w3.org/1999/xlink" x="0px" y="0px"
	 viewBox="0 0 32 32" style="enable-background:new 0 0 32 32;" xml:space="preserve">
<style type="text/css">
	.st0{fill:#FFFFFF;}
	.st1{fill:#4DA7DE;}
</style>
<title>twitter</title>
<desc>Created with Sketch.</desc>
<g id="лендинг">
	<g id="Sharpay-home-Copy" transform="translate(-336.000000, -765.000000)">
		<g id="twitter" transform="translate(336.000000, 765.000000)">
			<path class="st0" d="M16,3C8.8,3,3,8.8,3,16c0,7.2,5.8,13,13,13s13-5.8,13-13C29,8.8,23.2,3,16,3z"/>
			<path id="Combined-Shape" class="st1" d="M16,0c4.4,0,8.2,1.6,11.3,4.7S32,11.6,32,16c0,4.4-1.6,8.2-4.7,11.3S20.4,32,16,32
				c-4.4,0-8.2-1.6-11.3-4.7S0,20.4,0,16c0-4.4,1.6-8.2,4.7-11.3S11.6,0,16,0z M22.5,13.1c0.7-0.5,1.2-1,1.5-1.6
				c-0.7,0.3-1.3,0.4-1.8,0.5c0.7-0.4,1.1-1,1.4-1.7c-0.7,0.4-1.3,0.6-2,0.7C21,10.3,20.3,10,19.3,10c-0.9,0-1.6,0.3-2.2,0.9
				s-0.9,1.4-0.9,2.2c0,0,0,0.2,0,0.3c0,0.2,0,0.3,0,0.4c-2.7-0.1-4.8-1.2-6.5-3.3c-0.3,0.5-0.5,1.1-0.5,1.6c0,1.1,0.5,2,1.5,2.6
				c-0.6,0-1.1-0.1-1.5-0.4v0.1c0,0.8,0.2,1.4,0.7,2c0.5,0.6,1.1,0.9,1.8,1.1c-0.4,0.1-0.6,0.1-0.8,0.1c-0.3,0-0.5,0-0.6-0.1
				c0.4,1.5,1.4,2.2,2.9,2.2c-1.1,0.9-2.4,1.3-3.9,1.3H8.7c1.5,0.9,3.1,1.4,4.8,1.4c2.7,0,4.9-0.9,6.5-2.8c1.6-1.8,2.5-3.9,2.5-6.2
				V13.1z"/>
		</g>
	</g>
</g>
</svg>
