<?xml version="1.0" encoding="UTF-8"?>
<svg width="36px" height="36px" viewBox="0 0 36 36" version="1.1" xmlns="http://www.w3.org/2000/svg" xmlns:xlink="http://www.w3.org/1999/xlink">
    <!-- Generator: Sketch 47.1 (45422) - http://www.bohemiancoding.com/sketch -->
    <title>viber</title>
    <desc>Created with Sketch.</desc>
    <defs></defs>
    <g id="лендинг" stroke="none" stroke-width="1" fill="none" fill-rule="evenodd">
        <g id="Artboard" transform="translate(-517.000000, -673.000000)" fill="#EFEFEF">
            <path d="M553,690.999357 C553,700.940164 544.941449,708.999357 535,708.999357 C525.058551,708.999357 517,700.940164 517,690.999357 C517,681.058872 525.058551,673 535,673 C544.941449,673 553,681.058872 553,690.999357 Z M535.652267,681.257765 C540.963584,682.059443 543.415209,684.535487 544.089968,689.781899 C544.096394,689.820457 544.096394,689.8603 544.099607,689.900785 C544.128526,690.377294 544.022492,690.996466 544.671546,691.008675 C545.233845,691.019279 545.265976,690.603499 545.249911,690.19061 C545.246698,690.062085 545.237058,689.935166 545.240271,689.820457 C545.301321,684.879936 540.905748,680.298965 535.803285,680.130275 C535.417708,680.18522 534.62085,679.870332 534.572653,680.71603 C534.540521,681.286041 535.208854,681.191896 535.652267,681.257765 Z M536.690111,682.696287 C536.179222,682.636523 535.504463,682.400036 535.385577,683.094395 C535.260264,683.824741 536.012139,683.750196 536.494109,683.856873 C539.774723,684.575009 540.9186,685.745876 541.458408,688.937165 C541.4809,689.07276 541.484113,689.229561 541.496965,689.381221 C541.529097,689.752338 541.615851,690.091325 542.18779,690.006498 C542.483399,689.962799 542.57658,689.78929 542.608711,689.580436 C542.637629,689.367404 542.592645,689.117101 542.618351,688.93331 C542.644056,685.870868 539.967512,683.082506 536.690111,682.696287 Z M536.992146,685.201892 C536.651553,685.209925 536.314174,685.245912 536.188861,685.603856 C536.002499,686.136915 536.397715,686.265441 536.802571,686.328097 C538.148875,686.540164 538.855766,687.317744 538.990718,688.633202 C539.006783,688.801892 539.067833,688.953552 539.164227,689.064727 C539.273474,689.188754 539.424491,689.260728 539.60764,689.239522 C539.7201,689.226669 539.806855,689.191967 539.877544,689.145055 C540.112103,688.986969 540.137808,688.664049 540.124955,688.352695 C540.15066,686.874009 538.444484,685.165905 536.992146,685.201892 Z M543.797572,695.544663 C543.135666,695.0206 542.425562,694.550839 541.728311,694.070796 C540.337022,693.112638 539.06462,693.037772 538.026776,694.579757 C537.441985,695.445055 536.625848,695.48297 535.774366,695.103177 C533.422349,694.057301 531.603713,692.446555 530.540164,690.101928 C530.373081,689.733381 530.267047,689.379293 530.250982,689.043199 C530.215637,688.429811 530.466262,687.874581 531.176366,687.400643 C531.761157,687.012817 532.349161,686.554302 532.300964,685.706034 C532.239914,684.59975 529.502321,680.905926 528.422706,680.517458 C527.972867,680.355837 527.529454,680.366441 527.073188,680.51553 C524.538022,681.351267 523.490539,683.395145 524.496251,685.814959 C525.052124,687.158051 525.688326,688.424991 526.404855,689.618029 C529.528026,694.836487 534.126026,698.631524 540.038201,701.128133 C540.452695,701.302606 540.912174,701.373295 541.146733,701.43563 C542.801499,701.452017 544.739022,699.889147 545.298108,698.338486 C545.837915,696.848233 544.700464,696.256051 543.797572,695.544663 Z" id="viber"></path>
        </g>
    </g>
</svg>