<?xml version="1.0" encoding="UTF-8"?>
<svg width="36px" height="36px" viewBox="0 0 36 36" version="1.1" xmlns="http://www.w3.org/2000/svg" xmlns:xlink="http://www.w3.org/1999/xlink">
    <!-- Generator: Sketch 47.1 (45422) - http://www.bohemiancoding.com/sketch -->
    <title>vk</title>
    <desc>Created with Sketch.</desc>
    <defs></defs>
    <g id="лендинг" stroke="none" stroke-width="1" fill="none" fill-rule="evenodd">
        <g id="Artboard" transform="translate(-483.000000, -496.000000)" fill="#EFEFEF">
            <path d="M511.506962,521.08015 C511.378436,521.874438 510.044984,521.732738 508.859336,521.770975 C507.766869,521.805677 506.696894,521.734024 506.214923,521.540593 C505.414852,521.221207 503.313459,518.439272 502.7608,518.546912 C501.530168,518.786291 501.973581,521.3613 501.607283,521.540593 C501.083542,521.797644 499.377365,521.720528 498.731524,521.655302 C495.267762,521.072438 493.25955,518.752231 491.363799,515.78297 C489.043913,512.152124 487.671903,509.42899 488.256694,509.104463 C488.896109,508.748768 490.68904,508.823956 492.514102,508.873759 C493.060336,508.889504 494.6412,512.827847 495.046055,513.481078 C496.694395,516.120671 497.21171,514.170296 497.234202,513.9412 C497.680828,509.208568 496.524099,509.423206 495.852553,509.335166 C496.357015,507.800893 499.881828,508.068226 499.881828,508.068226 C499.881828,508.068226 501.06105,508.353874 501.49161,508.64402 C501.671546,508.763549 501.87076,509.146555 501.838629,510.371082 C501.790432,512.21703 501.60407,514.734202 502.413781,514.746733 C503.040343,514.756373 504.029989,513.284434 504.833274,511.752731 C505.540164,510.398715 506.086398,509.084541 506.327383,508.989754 C506.587647,508.886933 507.721885,508.880507 508.859336,508.873759 C509.977508,508.868618 511.102106,508.858658 511.391289,509.104463 C511.982506,509.602178 510.957515,511.217101 510.012853,512.558586 C509.235273,513.66005 507.741164,515.110782 507.824705,515.897037 C507.940378,516.995609 511.796144,519.304248 511.506962,521.08015 Z M501,496 C491.058551,496 483,504.058551 483,513.999679 C483,523.941128 491.058551,531.999357 501,531.999357 C510.941449,531.999357 519,523.941128 519,513.999679 C519,504.058551 510.941449,496 501,496 L501,496 Z" id="vk"></path>
        </g>
    </g>
</svg>