<?xml version="1.0" encoding="UTF-8"?>
<svg width="36px" height="36px" viewBox="0 0 36 36" version="1.1" xmlns="http://www.w3.org/2000/svg" xmlns:xlink="http://www.w3.org/1999/xlink">
    <!-- Generator: Sketch 47.1 (45422) - http://www.bohemiancoding.com/sketch -->
    <title>wechat</title>
    <desc>Created with Sketch.</desc>
    <defs></defs>
    <g id="лендинг" stroke="none" stroke-width="1" fill="none" fill-rule="evenodd">
        <g id="Artboard" transform="translate(-331.000000, -673.000000)" fill="#EFEFEF">
            <g id="wechat" transform="translate(331.000000, 673.000000)">
                <path d="M18,36 C8.0588745,36 0,27.9411255 0,18 C0,8.0588745 8.0588745,0 18,0 C27.9411255,0 36,8.0588745 36,18 C36,27.9411255 27.9411255,36 18,36 Z M23.0503597,14.1629892 C22.916734,12.7371008 22.4110943,11.5314747 21.5865021,10.457308 C19.3033974,7.48357258 15.0838373,6.23558092 11.3291976,7.45904513 C8.57835425,8.35550896 6.55385173,10.0752421 5.72945393,12.9109257 C4.83838905,15.9761786 6.02906709,18.9535011 8.85376901,20.9429392 C9.29371346,21.2531679 9.36028337,21.5183164 9.21655069,21.9947113 C9.021117,22.6428952 8.91071786,23.31677 8.74016285,24.0863309 C9.66971194,23.5066881 10.4539734,22.9867643 11.2720544,22.5262686 C11.5185088,22.3875383 11.8637976,22.3528314 12.1547616,22.377262 C12.9972353,22.4480329 13.8349471,22.5730938 14.7546807,22.686715 C14.5452528,20.2194278 15.3114384,18.2291172 16.9898746,16.6048764 C18.6511095,14.9972134 20.6972837,14.2856264 23.0503597,14.1629892 Z M28.3828691,29.0071942 L28.3828691,29.0071942 C28.3332894,28.8103861 28.3235281,28.6130946 28.2380924,28.457272 C27.7752516,27.6132976 28.0348445,27.0864781 28.7562152,26.4462716 C31.2491191,24.2342097 31.4890927,20.738835 29.4470455,18.1057042 C27.1070366,15.0881402 22.239621,14.3631593 18.9206781,16.5379088 C15.1863479,18.9848644 14.72515,23.563264 17.9528585,26.5492189 C19.6499738,28.1189476 21.708161,28.7593474 24.0055487,28.5242603 C24.7597792,28.4471223 25.5175857,28.0311766 26.2384731,28.1064779 C26.9621633,28.1820693 27.6418792,28.6771829 28.3828691,29.0071942 Z" id="Combined-Shape"></path>
                <circle id="Oval-5" cx="19.942446" cy="19.942446" r="1"></circle>
                <circle id="Oval-5-Copy-2" cx="11.1366906" cy="13.2086331" r="1.03597122"></circle>
                <circle id="Oval-5-Copy" cx="25.381295" cy="19.942446" r="1"></circle>
                <circle id="Oval-5-Copy-3" cx="17.8705036" cy="13.2086331" r="1.03597122"></circle>
            </g>
        </g>
    </g>
</svg>