<?xml version="1.0" encoding="UTF-8"?>
<svg width="36px" height="36px" viewBox="0 0 36 36" version="1.1" xmlns="http://www.w3.org/2000/svg" xmlns:xlink="http://www.w3.org/1999/xlink">
    <!-- Generator: Sketch 47.1 (45422) - http://www.bohemiancoding.com/sketch -->
    <title>weibo</title>
    <desc>Created with Sketch.</desc>
    <defs></defs>
    <g id="лендинг" stroke="none" stroke-width="1" fill="none" fill-rule="evenodd">
        <g id="Artboard" transform="translate(-377.000000, -673.000000)">
            <g id="weibo" transform="translate(377.000000, 673.000000)">
                <circle id="Oval-6" fill="#EFEFEF" cx="18" cy="18" r="18"></circle>
                <path d="M28.8402465,19.4569395 C28.4138315,18.4100959 27.8658637,17.4217432 27.1902164,16.5045864 C27.1179219,16.4067819 27.0426866,16.3298327 27.1095896,16.1680238 C27.4345473,15.3815127 27.3291689,14.6187336 26.9140269,13.8871177 C26.7270414,13.5572672 26.5052566,13.2437175 26.4839358,12.8462669 C26.4528124,12.2726244 26.3040573,11.7215153 26.1516262,11.169687 C25.6198327,9.24452071 24.5601669,7.70601773 22.7361398,6.73995868 C21.7009805,6.19172615 20.5883804,5.87961477 19.4167193,5.75352368 C18.2097687,5.62359713 17.0165418,5.67465683 15.8282162,5.92084607 C13.862786,6.3286045 12.4168959,7.46198594 11.2971888,9.03333013 C10.5617454,10.0660305 10.0382842,11.1891041 9.88168695,12.4612816 C9.85154381,12.7060326 9.94295347,12.9757141 9.78120984,13.2008082 C9.64078696,13.3954583 9.56065034,13.6140801 9.52070456,13.8420509 C9.46066336,14.1836475 9.38028168,14.5079844 9.20113835,14.8184178 C8.98351964,15.1947733 8.92494884,15.6272225 9.01390784,16.0500831 C9.05238322,16.2317885 9.01268251,16.3264767 8.88377773,16.4211649 C8.12186719,16.9789861 7.49180221,17.6511522 6.96245941,18.4283144 C6.20839098,19.5348475 5.76310585,20.7341511 5.69081135,22.0624224 C5.66164848,22.5957925 5.72757126,23.1166972 5.91945803,23.6217807 C6.01233809,23.866292 6.13511621,23.9808766 6.43017581,23.8969757 C6.67842778,23.8267387 6.89040997,23.7176675 7.07837568,23.5558586 C7.47048146,23.2192961 7.79029274,22.8271192 8.00202986,22.3563153 C8.02653647,22.3016598 8.02016475,22.2175192 8.10961388,22.2218341 C8.19097583,22.2256696 8.19857288,22.2951875 8.21254165,22.3591919 C8.3394859,22.934033 8.61273461,23.451342 8.90583368,23.9554666 C9.21853804,24.4941105 9.66676396,24.9277583 10.1353304,25.3338387 C10.2987895,25.4757511 10.5308671,25.541913 10.6222767,25.782349 C10.2840855,25.7818696 9.97138114,25.8288541 9.67558634,25.9283366 C9.17026002,26.0987753 8.72105383,26.3511972 8.6041573,26.9219631 C8.49240715,27.467319 8.45393177,28.0059629 8.96366929,28.4096461 C9.1653587,28.5692976 9.38861393,28.6961078 9.62926885,28.7965492 C10.4779328,29.150611 11.379531,29.2654354 12.2850503,29.322488 C13.4045123,29.3929648 14.5288756,29.4193336 15.6265268,29.1216053 C16.2627184,28.9485297 16.8516123,28.6683006 17.4035012,28.3147182 C17.4557002,28.2811579 17.4902546,28.2044485 17.5647547,28.2255435 C18.003423,28.3497169 18.4658628,28.2207492 18.9101676,28.390229 C19.62331,28.6625474 20.3602238,28.8699025 21.120664,28.989761 C22.2491934,29.1681103 23.381889,29.2517715 24.5207112,29.1100989 C25.2924244,29.0139724 26.0486984,28.8478486 26.7245908,28.4465625 C27.5935952,27.9304521 27.6200623,27.0343903 26.8044823,26.4545152 C26.4025739,26.1687727 25.9761589,25.9304941 25.5289132,25.7233787 C25.413242,25.6699218 25.2860527,25.6332451 25.194643,25.5093115 C26.0945258,24.7005067 26.5481432,23.629212 27.0017605,22.5346646 C27.2600602,23.002592 27.5114981,23.4467874 27.845033,23.8370465 C28.2001338,24.2519964 28.5094073,24.242168 28.8576462,23.8274578 C28.9963536,23.6620532 29.0980561,23.4796286 29.1612831,23.2725132 C29.561231,21.9600633 29.3428771,20.6914815 28.8402465,19.4569395 Z M18.9028156,11.1246203 C18.8876215,10.6226531 18.9944704,10.1355484 19.2733556,9.6901544 C19.812501,8.82861191 20.7258624,8.81015371 21.2637826,9.67049762 C21.7291631,10.4157774 21.7426418,11.349235 21.5044375,12.1726625 C21.3892564,12.5705925 21.2218763,12.9280104 20.8180073,13.1300917 C20.2693043,13.4045676 19.7625076,13.2959758 19.3936831,12.8110286 C19.0165263,12.315294 18.8805146,11.748843 18.9028156,11.1246203 Z M15.3243603,9.50605184 C15.8377738,8.8568985 16.5884113,8.85354247 17.0979037,9.50197665 C17.4836378,9.99339627 17.6007794,10.565121 17.610337,11.2181098 C17.5917119,11.7951084 17.4662381,12.3908049 17.0226684,12.8719166 C16.5114605,13.4268612 15.827481,13.3978555 15.3520527,12.816542 C14.6658676,11.9777727 14.652389,10.3553688 15.3243603,9.50605184 Z M13.0386286,15.0682028 C13.7750523,14.5731874 14.6038659,14.2857668 15.4652733,14.1028629 C17.3593893,13.6996591 19.2584066,13.6493185 21.1508071,14.1234785 C21.9188443,14.3159712 22.6626199,14.5765434 23.3311603,15.0027601 C23.7458122,15.2674075 23.7411559,15.3654517 23.3260139,15.6145176 C22.8824442,15.8803636 22.4207397,16.1004237 21.8401781,16.0987457 C22.0494645,15.8717338 22.314381,15.7442044 22.4766148,15.3980532 C19.6541883,17.2968507 16.8910679,17.44979 14.1144689,15.4826733 C14.237247,15.6763645 14.3600251,15.8695763 14.5109858,16.1073755 C13.9730657,15.9755312 13.4915108,15.8506387 13.0523523,15.618353 C12.7053387,15.4340107 12.709995,15.2892217 13.0386286,15.0682028 Z M16.5697862,28.3082459 C16.2296345,28.633302 15.7779776,28.7409349 15.3451909,28.833945 C13.7081492,29.1875274 12.0593444,29.2639971 10.4218127,28.8440131 C9.91354554,28.7138468 9.40258269,28.5414904 9.0148881,28.157464 C8.72767062,27.8733994 8.73281701,27.6288882 9.01978943,27.3373925 C9.19770742,27.1564062 9.40503336,27.0116172 9.59765532,26.8243983 C9.44988045,26.850048 9.30088026,26.8713829 9.15457579,26.9051829 C9.08179115,26.9217234 8.99626308,26.9778171 8.95264131,26.895834 C8.92274324,26.8395005 8.9273995,26.7404974 8.95876796,26.6820065 C9.02983714,26.5516005 9.12761852,26.4324612 9.26166968,26.3567107 C9.44865512,26.2505161 9.63662083,26.1428832 9.83316385,26.055866 C10.30075,25.8485109 10.7114808,25.831491 11.1741656,26.1790805 C12.0654711,26.8481303 13.1006303,27.2654774 14.1750002,27.5898144 C14.9369107,27.8199426 15.7140154,27.9700053 16.4999424,28.0865078 C16.5597385,28.095617 16.6428159,28.0642141 16.6741844,28.1344511 C16.7151104,28.226023 16.6205149,28.2595833 16.5697862,28.3082459 Z M25.3816285,25.8571407 C25.687471,26.0036077 26.009978,26.1306577 26.3672844,26.4108867 C26.0778613,26.4329407 25.8286291,26.4413308 25.6156666,26.5741339 C25.5737603,26.5995439 25.5137191,26.6486859 25.5164148,26.6829654 C25.5232767,26.7723798 25.6078245,26.7460109 25.6686009,26.7457712 C25.950672,26.7455315 26.2332332,26.7316279 26.5145691,26.7460109 C27.0353346,26.7721401 27.2980455,27.1609609 27.103463,27.6310457 C26.8488393,28.2466386 26.2712185,28.4700548 25.691147,28.649363 C23.8578074,29.2165332 22.0391717,29.0389029 20.2335246,28.4995399 C20.0345309,28.4398504 19.7982872,28.4480008 19.7019762,28.1821548 C21.5929064,27.8894605 23.263522,27.1659949 24.6917674,25.939843 C24.9557036,25.7130709 25.0855886,25.7147489 25.3816285,25.8571407 Z M26.0599715,22.0156776 C25.9962543,23.0776234 25.5771912,24.0122795 24.9199239,24.8414603 C23.6521969,26.441091 21.980846,27.4294438 19.9725292,27.8753172 C19.211844,28.0445573 18.4393956,27.9589784 17.6747893,27.8861044 C16.5006776,27.7746361 15.3429853,27.5680001 14.2507256,27.1144558 C13.5718925,26.832309 12.9187913,26.5041366 12.3360241,26.0422021 C11.201613,25.1425447 10.3152089,24.0849138 10.0211296,22.6511671 C9.75498776,21.3538193 9.86306192,20.0826006 10.4313702,18.8657977 C10.4715611,18.779979 10.5227799,18.6989547 10.5644411,18.6136155 C10.6658985,18.4084179 10.7661305,18.3204418 11.0038447,18.4975926 C11.2592036,18.6872086 11.5589194,18.8207309 11.8446665,18.968876 C11.9542111,19.0256889 11.9826387,19.0724336 11.9647489,19.209312 C11.8412356,20.1775285 11.7348769,21.1462244 11.846382,22.1269062 C11.91304,22.711336 12.2705914,23.0800206 12.7646447,23.2897728 C13.4466637,23.5791111 14.1823522,23.5431536 14.9052972,23.4280895 C15.2003568,23.3813447 15.534872,23.0061878 15.5218835,22.577574 L15.4748308,20.6353878 L15.4579213,20.2317045 C16.2443384,20.44721 17.0525665,20.515769 17.855158,20.5344669 C19.7647132,20.5790543 21.5541859,20.1264688 23.266953,19.3308485 C23.77473,19.0952068 24.2651073,18.8303196 24.7317131,18.5256394 C24.8476294,18.4501286 24.8922314,18.4424577 24.9784947,18.566631 C25.7002144,19.6093995 26.1371673,20.736788 26.0599715,22.0156776 Z M14.459767,21.2174204 L14.437466,20.487003 C14.4519249,20.351563 14.3722784,20.1044148 14.5950435,20.0679779 C14.8704978,20.0229111 15.1265919,20.2149243 15.153059,20.4867633 C15.2189818,21.1644429 15.2635839,21.8493141 15.2385871,22.5368221 C15.2265789,22.8678711 15.0606691,23.0668361 14.6795913,23.0860135 C14.1352995,23.1140604 13.5937034,23.1320391 13.0594592,23.0157764 C12.309802,22.8520498 12.0448855,22.4929539 12.0225845,21.6620952 C12.0012638,20.8794195 12.1919252,20.1267085 12.3360241,19.3665663 C12.3590603,19.2447901 12.4066031,19.249105 12.5090407,19.2917746 C12.984469,19.491219 13.4503397,19.7163132 13.9537055,19.8450412 C14.1054014,19.8836356 14.0821201,19.985755 14.0862862,20.090751 C14.1049113,20.5802529 14.1698538,21.062803 14.3391945,21.5266551 C14.3668869,21.6024057 14.4075679,21.6745605 14.4678542,21.8076033 L14.459767,21.2174204 Z M26.9520121,15.7425264 C26.77728,16.6841343 26.2217151,17.3711629 25.4203489,17.858747 C23.7058664,18.9024744 21.8872308,19.7129572 19.8840604,20.0725325 C18.722447,20.2808465 17.5613237,20.2724564 16.3889274,20.1257496 C14.9920506,19.9512358 13.6655077,19.5590589 12.3909189,18.9971625 C11.3273319,18.5282763 10.3166793,17.9663799 9.58221616,17.0398742 C9.0452763,16.3629137 8.97249167,15.6552694 9.46580975,15.0255332 C9.61603528,15.9266289 10.1309192,16.576022 10.8499432,17.0983651 C10.5771846,16.6414647 10.2995247,16.1874409 10.0331378,15.7271845 C9.74886111,15.2367237 9.77410292,14.7011962 9.80057006,14.1659084 C9.83169346,14.1627921 9.86306192,14.1529637 9.86820831,14.1603949 C10.8447968,15.5766423 12.2387328,16.4381848 13.8500425,16.9933691 C15.8872771,17.6964587 17.9987667,17.9153202 20.1318222,17.6794388 C22.3016376,17.4397219 24.2486878,16.6239654 25.8862196,15.1720002 C25.9906178,15.0797092 26.1023679,14.996048 26.1847101,14.9289273 C25.8104942,16.4470543 24.7018151,17.4150311 23.3627738,18.1972273 C25.2042006,17.5461562 26.1572627,16.1205599 26.7990909,14.421926 C26.992203,14.7067097 27.0429316,15.2513465 26.9520121,15.7425264 Z" id="Shape" fill="#333333" fill-rule="nonzero"></path>
                <path d="M19.9989818,11.3654146 C20.1053148,11.3883822 20.1191666,11.2748821 20.1397406,11.1908162 C20.1792589,11.0304888 20.2012589,10.8211045 20.3833693,10.8179827 C20.5504058,10.8155298 20.5573317,11.0233533 20.5783131,11.1589291 C20.5950167,11.2668546 20.6536832,11.3803547 20.7618494,11.3638537 C20.8991453,11.342893 20.8834601,10.5816169 20.5308503,10.4502779 C20.205944,10.316263 19.8867415,10.6596622 19.8948896,11.1428741 C19.8965192,11.2296158 19.897334,11.3437849 19.9989818,11.3654146 Z" id="Shape" fill="#333333" fill-rule="nonzero"></path>
                <path d="M16.5494744,12.3144758 C16.742606,12.3317091 16.8522713,12.1768872 16.9243769,11.9970492 C17.104293,11.5484271 17.0991923,11.0956357 16.8819482,10.6661925 C16.7240579,10.3546031 16.4620667,10.3401493 16.2812232,10.6222754 C16.1377077,10.8460305 16.1006116,11.1095335 16.1057123,11.3844327 C16.1091901,11.5803921 16.1226374,11.77385 16.1935837,11.9559117 C16.2656892,12.1418647 16.3637621,12.2969645 16.5494744,12.3144758 Z" id="Shape" fill="#333333" fill-rule="nonzero"></path>
            </g>
        </g>
    </g>
</svg>