<?xml version="1.0" encoding="UTF-8"?>
<svg width="58px" height="54px" viewBox="0 0 58 54" version="1.1" xmlns="http://www.w3.org/2000/svg" xmlns:xlink="http://www.w3.org/1999/xlink">
    <!-- Generator: Sketch 47.1 (45422) - http://www.bohemiancoding.com/sketch -->
    <title>work5</title>
    <desc>Created with Sketch.</desc>
    <defs></defs>
    <g id="лендинг" stroke="none" stroke-width="1" fill="none" fill-rule="evenodd">
        <g id="Sharpay-home-Copy" transform="translate(-180.000000, -1945.000000)" fill-rule="nonzero">
            <g id="work5" transform="translate(180.000000, 1945.000000)">
                <path d="M41.7192982,54 L17.2982456,54 C17.2982456,51.7493147 19.1206434,49.9245283 21.3683826,49.9245283 L37.649046,49.9245283 C39.8969004,49.9244129 41.7192982,51.7493147 41.7192982,54" id="Shape" fill="#E5E5E5"></path>
                <polygon id="Shape" fill="#C2C2C2" points="36.6315789 49.9245283 22.3859649 49.9245283 24.4210362 41.7735849 34.5965077 41.7735849"></polygon>
                <path d="M57.9998867,33.6226415 L0,33.6226415 L0,3.4612037 C0,1.54962717 1.56701647,0 3.50004395,0 L54.4999561,0 C56.4329835,0 58,1.54962717 58,3.4612037 L58,33.6226415 L57.9998867,33.6226415 Z" id="Shape" fill="#666666"></path>
                <path d="M54.4999492,41.7735849 L3.50005078,41.7735849 C1.56701953,41.7735849 0,40.177006 0,38.2075111 L0,33.6226415 L58,33.6226415 L58,38.2075111 C58,40.177006 56.4329805,41.7735849 54.4999492,41.7735849" id="Shape" fill="#E5E5E5"></path>
                <g id="Group" transform="translate(17.298246, 8.169811)" fill="#FF9933">
                    <path d="M0.996110092,20.3376399 C0.756828585,20.3376399 0.51653887,20.2492229 0.326659585,20.0692805 C-0.0748314824,19.6891334 -0.100596813,19.0459226 0.269303718,18.6333099 L11.7404771,5.82803965 C12.1103776,5.41542693 12.7362511,5.38802686 13.1377422,5.76805884 C13.5392332,6.14820595 13.5649986,6.79141669 13.195098,7.20402942 L1.72392467,20.0092996 C1.52911637,20.2279245 1.26317335,20.3376399 0.996110092,20.3376399" id="Shape"></path>
                    <path d="M21.367973,16.6789255 C21.1148006,16.6789255 20.8616282,16.5793412 20.6688363,16.3810937 L11.7688189,7.2345379 C11.3821149,6.83712184 11.3821149,6.19483211 11.7688189,5.79753118 C12.1555229,5.40011513 12.7805002,5.40011513 13.1670922,5.79753118 L22.0671096,14.944087 C22.4538136,15.341503 22.4538136,15.9837928 22.0671096,16.3810937 C21.8742057,16.5793412 21.6211453,16.6789255 21.367973,16.6789255" id="Shape"></path>
                    <path d="M21.367973,16.6789255 C21.1148006,16.6789255 20.8616282,16.5793412 20.6688363,16.3810937 C20.2821323,15.9836776 20.2821323,15.3413879 20.6688363,14.944087 L34.9088865,0.309574672 C35.2945823,-0.0878413815 35.9205678,-0.0878413815 36.3071598,0.309574672 C36.6938638,0.706990726 36.6938638,1.35020147 36.3071598,1.74658139 L22.0671096,16.3810937 C21.8742057,16.5793412 21.6211453,16.6789255 21.367973,16.6789255" id="Shape"></path>
                    <path d="M35.6079112,9.15852894 C35.0620222,9.15852894 34.6189705,8.70320435 34.6189705,8.1421938 L34.6189705,1.02819316 C34.6189705,0.467182603 35.0620222,0.0118580109 35.6079112,0.0118580109 C36.1538001,0.0118580109 36.5968518,0.467182603 36.5968518,1.02819316 L36.5968518,8.1421938 C36.5968518,8.70320435 36.1538001,9.15852894 35.6079112,9.15852894" id="Shape"></path>
                    <path d="M35.6079112,2.0445283 L28.685663,2.0445283 C28.139774,2.0445283 27.6967224,1.58920371 27.6967224,1.02819316 C27.6967224,0.467182603 28.139774,0.0118580109 28.685663,0.0118580109 L35.6079112,0.0118580109 C36.1538001,0.0118580109 36.5968518,0.467182603 36.5968518,1.02819316 C36.5968518,1.58920371 36.1538001,2.0445283 35.6079112,2.0445283" id="Shape"></path>
                </g>
                <g id="Group" transform="translate(4.070175, 5.113208)" fill="#E5E5E5">
                    <path d="M1.04475458,24.3934775 C0.487620737,24.3934775 0.0354425389,23.9394356 0.0354425389,23.3800053 L0.0354425389,1.08464948 C0.0354425389,0.52521924 0.487620737,0.0711772522 1.04475458,0.0711772522 C1.60188843,0.0711772522 2.05406663,0.52521924 2.05406663,1.08464948 L2.05406663,23.3800053 C2.05406663,23.9394356 1.60188843,24.3934775 1.04475458,24.3934775" id="Shape"></path>
                    <path d="M7.10028386,3.11147914 L5.0817741,3.11147914 C4.52464025,3.11147914 4.07246205,2.65743715 4.07246205,2.09800691 C4.07246205,1.53857667 4.52464025,1.08453468 5.0817741,1.08453468 L7.10028386,1.08453468 C7.6574177,1.08453468 8.1095959,1.53857667 8.1095959,2.09800691 C8.1095959,2.65755195 7.6574177,3.11147914 7.10028386,3.11147914" id="Shape"></path>
                    <path d="M9.11890794,7.16525326 L5.08188843,7.16525326 C4.52475458,7.16525326 4.07257638,6.71121127 4.07257638,6.15178103 C4.07257638,5.59235078 4.52475458,5.1383088 5.08188843,5.1383088 L9.11890794,5.1383088 C9.67604179,5.1383088 10.12822,5.59235078 10.12822,6.15178103 C10.12822,6.71121127 9.67592746,7.16525326 9.11890794,7.16525326" id="Shape"></path>
                    <path d="M7.10028386,11.2189126 L5.0817741,11.2189126 C4.52464025,11.2189126 4.07246205,10.7648706 4.07246205,10.2054403 C4.07246205,9.6460101 4.52464025,9.19196811 5.0817741,9.19196811 L7.10028386,9.19196811 C7.6574177,9.19196811 8.1095959,9.6460101 8.1095959,10.2054403 C8.1095959,10.7648706 7.6574177,11.2189126 7.10028386,11.2189126" id="Shape"></path>
                    <path d="M9.11890794,15.2725719 L5.08188843,15.2725719 C4.52475458,15.2725719 4.07257638,14.8185299 4.07257638,14.2590997 C4.07257638,13.6996694 4.52475458,13.2456274 5.08188843,13.2456274 L9.11890794,13.2456274 C9.67604179,13.2456274 10.12822,13.6996694 10.12822,14.2590997 C10.12822,14.8185299 9.67592746,15.2725719 9.11890794,15.2725719" id="Shape"></path>
                    <path d="M7.10028386,19.326346 L5.0817741,19.326346 C4.52464025,19.326346 4.07246205,18.872304 4.07246205,18.3128738 C4.07246205,17.7534435 4.52464025,17.2994015 5.0817741,17.2994015 L7.10028386,17.2994015 C7.6574177,17.2994015 8.1095959,17.7534435 8.1095959,18.3128738 C8.1095959,18.872304 7.6574177,19.326346 7.10028386,19.326346" id="Shape"></path>
                    <path d="M9.11890794,23.3800053 L5.08188843,23.3800053 C4.52475458,23.3800053 4.07257638,22.9259633 4.07257638,22.3665331 C4.07257638,21.8071028 4.52464025,21.3531757 5.0817741,21.3531757 L9.11879361,21.3531757 C9.67592746,21.3531757 10.1281057,21.8072176 10.1281057,22.3666479 C10.1281057,22.9260781 9.67592746,23.3800053 9.11890794,23.3800053" id="Shape"></path>
                </g>
            </g>
        </g>
    </g>
</svg>