<svg xmlns="http://www.w3.org/2000/svg" viewBox="0 0 481.89 481.89"><defs><style>.a{fill:#0052b4;}.b{fill:#f0f0f0;}.c{fill:#d80027;}</style></defs><title>australia</title><path class="a" d="M496.94,256c0,133.07-107.88,240.94-240.94,240.94S15.06,389.07,15.06,256C15.06,256.06,256,15.08,256,15.06,389.07,15.06,496.94,122.93,496.94,256Z" transform="translate(-15.06 -15.06)"/><path class="b" d="M256,15.06h0Z" transform="translate(-15.06 -15.06)"/><path class="b" d="M255.36,256H256v-.64Z" transform="translate(-15.06 -15.06)"/><path class="b" d="M256,140.77V15.06h0C122.91,15.08,15.06,122.94,15.06,256H140.77V185.21L211.55,256h43.8l.64-.64v-43.8l-70.79-70.79H256Z" transform="translate(-15.06 -15.06)"/><path class="c" d="M137,46.48A242.09,242.09,0,0,0,46.48,137V256h62.86V109.34H256V46.48Z" transform="translate(-15.06 -15.06)"/><path class="c" d="M256,226.37l-85.6-85.6H140.77L256,256h0Z" transform="translate(-15.06 -15.06)"/><polygon class="b" points="145.31 282.85 158.54 310.5 188.4 303.6 175.03 331.18 199.04 350.22 169.14 356.96 169.23 387.61 145.31 368.43 121.41 387.61 121.49 356.96 91.59 350.22 115.6 331.18 102.23 303.6 132.09 310.5 145.31 282.85"/><polygon class="b" points="360.74 335.23 367.36 349.05 382.29 345.6 375.6 359.39 387.61 368.91 372.66 372.28 372.7 387.61 360.74 378.02 348.79 387.61 348.83 372.28 333.88 368.91 345.89 359.39 339.2 345.6 354.13 349.05 360.74 335.23"/><polygon class="b" points="299.24 188.57 305.85 202.39 320.78 198.94 314.09 212.73 326.1 222.25 311.15 225.62 311.19 240.94 299.24 231.36 287.28 240.94 287.32 225.62 272.37 222.25 284.38 212.73 277.69 198.94 292.62 202.39 299.24 188.57"/><polygon class="b" points="360.74 104.76 367.36 118.58 382.29 115.13 375.6 128.92 387.61 138.44 372.66 141.81 372.7 157.14 360.74 147.55 348.79 157.14 348.83 141.81 333.88 138.44 345.89 128.92 339.2 115.13 354.13 118.58 360.74 104.76"/><polygon class="b" points="414.47 167.61 421.08 181.44 436.01 177.99 429.33 191.78 441.33 201.3 426.38 204.67 426.42 219.99 414.47 210.41 402.51 219.99 402.56 204.67 387.61 201.3 399.61 191.78 392.93 177.99 407.86 181.44 414.47 167.61"/><polygon class="b" points="376.05 240.94 381.25 256.95 398.08 256.95 384.47 266.84 389.67 282.85 376.05 272.96 362.44 282.85 367.64 266.84 354.02 256.95 370.85 256.95 376.05 240.94"/></svg>