<svg xmlns="http://www.w3.org/2000/svg" viewBox="0 0 481.89 481.89"><defs><style>.a{fill:#fcfcfc;}.b{fill:#c8313e;}.c{fill:#4aa657;}</style></defs><title>belarus</title><circle class="a" cx="240.94" cy="240.94" r="240.94"/><polygon class="b" points="99.52 223.49 73.33 175.97 99.52 129.2 125.71 175.97 99.52 223.49"/><polygon class="b" points="47.14 223.49 20.95 175.97 47.14 129.2 73.33 175.97 47.14 223.49"/><polygon class="b" points="99.52 352.69 73.33 305.17 99.52 258.4 125.71 305.17 99.52 352.69"/><polygon class="b" points="47.14 352.69 20.95 305.17 47.14 258.4 73.33 305.17 47.14 352.69"/><path class="b" d="M140.77,61.82l-7.41-13.24A241.6,241.6,0,0,0,96.09,75.79l18.49,33.54Z" transform="translate(-15.06 -15.06)"/><path class="b" d="M114.58,402.66,95.89,436a241.61,241.61,0,0,0,37.24,27.25l7.64-13.85Z" transform="translate(-15.06 -15.06)"/><path class="c" d="M161.72,318.86V477.79A240.15,240.15,0,0,0,256,496.94c103.6,0,191.91-65.39,226-157.14Z" transform="translate(-15.06 -15.06)"/><path class="b" d="M482,339.81a240.41,240.41,0,0,0,15-83.81C496.94,122.93,389.07,15.06,256,15.06a240.19,240.19,0,0,0-94.28,19.15v305.6H482Z" transform="translate(-15.06 -15.06)"/></svg>