<svg xmlns="http://www.w3.org/2000/svg" viewBox="0 0 481.89 481.89"><defs><style>.a{fill:#d80027;}.b{fill:#ffda44;}</style></defs><title>china</title><circle class="a" cx="240.94" cy="240.94" r="240.94"/><polygon class="b" points="131.86 146.64 152.66 210.64 219.96 210.64 165.56 250.26 186.36 314.26 131.86 274.73 77.37 314.26 98.26 250.26 43.77 210.64 111.06 210.64 131.86 146.64"/><polygon class="b" points="285.65 373.18 269.75 353.61 246.22 362.74 259.86 341.56 243.96 321.89 268.33 328.38 282.07 307.2 283.39 332.43 307.86 338.92 284.24 347.96 285.65 373.18"/><polygon class="b" points="317.27 315.77 324.81 291.68 304.19 277.09 329.42 276.71 336.85 252.62 345.04 276.52 370.26 276.24 350.03 291.3 358.12 315.2 337.51 300.62 317.27 315.77"/><polygon class="b" points="359.91 176.85 348.81 199.53 366.88 217.13 341.94 213.56 330.83 236.15 326.5 211.3 301.46 207.72 323.86 195.96 319.53 171.01 337.61 188.62 359.91 176.85"/><polygon class="b" points="286.31 108.14 284.43 133.27 307.86 142.78 283.3 148.8 281.51 174.03 268.24 152.57 243.67 158.59 259.96 139.3 246.59 117.93 270.03 127.44 286.31 108.14"/></svg>