<svg xmlns="http://www.w3.org/2000/svg" viewBox="0 0 481.89 481.89"><defs><style>.a{fill:#0052b4;}.b{fill:#ffda44;}</style></defs><title>european</title><circle class="a" cx="240.94" cy="240.94" r="240.94"/><polygon class="b" points="240.95 94.28 248.75 118.29 273.99 118.29 253.57 133.13 261.37 157.14 240.95 142.3 220.52 157.14 228.32 133.13 207.9 118.29 233.14 118.29 240.95 94.28"/><polygon class="b" points="137.24 137.24 159.73 148.7 177.58 130.85 173.63 155.78 196.13 167.24 171.19 171.19 167.24 196.13 155.78 173.63 130.85 177.58 148.7 159.73 137.24 137.24"/><polygon class="b" points="94.28 240.94 118.29 233.14 118.29 207.9 133.13 228.32 157.14 220.52 142.3 240.94 157.14 261.37 133.13 253.57 118.29 273.99 118.29 248.75 94.28 240.94"/><polygon class="b" points="137.24 344.65 148.7 322.16 130.85 304.31 155.78 308.26 167.24 285.76 171.19 310.7 196.13 314.65 173.63 326.11 177.58 351.04 159.73 333.19 137.24 344.65"/><polygon class="b" points="240.95 387.61 233.14 363.6 207.9 363.6 228.32 348.76 220.52 324.75 240.95 339.59 261.37 324.75 253.57 348.76 273.99 363.6 248.75 363.6 240.95 387.61"/><polygon class="b" points="344.65 344.65 322.16 333.19 304.31 351.04 308.26 326.11 285.77 314.65 310.7 310.7 314.65 285.76 326.11 308.26 351.04 304.31 333.19 322.16 344.65 344.65"/><polygon class="b" points="387.61 240.94 363.6 248.75 363.6 273.99 348.76 253.57 324.75 261.37 339.59 240.94 324.75 220.52 348.76 228.32 363.6 207.9 363.6 233.14 387.61 240.94"/><polygon class="b" points="344.65 137.24 333.19 159.73 351.04 177.58 326.11 173.63 314.65 196.13 310.7 171.19 285.77 167.24 308.26 155.78 304.31 130.85 322.16 148.7 344.65 137.24"/></svg>