<svg xmlns="http://www.w3.org/2000/svg" viewBox="0 0 481.89 481.89"><defs><style>.a{fill:#d80027;}.b{fill:#f0f0f0;}</style></defs><title>hong-kong</title><circle class="a" cx="240.94" cy="240.94" r="240.94"/><path class="b" d="M280.88,197.33c-5.48,22.78-15.2,18.43-20,38.3a52.38,52.38,0,0,1,24.49-101.86C275.83,173.5,285.77,177,280.88,197.33Z" transform="translate(-15.06 -15.06)"/><path class="b" d="M207.89,214.21c20,12.24,12.83,20.16,30.25,30.84a52.38,52.38,0,0,1-89.3-54.76C183.66,211.64,190,203.26,207.89,214.21Z" transform="translate(-15.06 -15.06)"/><path class="b" d="M201.39,288.84c17.82-15.21,23.13-6,38.67-19.24a52.38,52.38,0,1,1-79.68,68C191.46,311.09,185.45,302.44,201.39,288.84Z" transform="translate(-15.06 -15.06)"/><path class="b" d="M270.36,318.09c-9-21.64,1.46-23.85-6.35-42.72a52.38,52.38,0,1,1,40.06,96.8C288.45,334.41,278.37,337.45,270.36,318.09Z" transform="translate(-15.06 -15.06)"/><path class="b" d="M319.48,261.53c-23.35,1.83-22.23-8.77-42.6-7.17a52.38,52.38,0,1,1,104.44-8.19C340.59,249.37,340.37,259.89,319.48,261.53Z" transform="translate(-15.06 -15.06)"/></svg>