<svg xmlns="http://www.w3.org/2000/svg" viewBox="0 0 886.21 886.21"><defs><style>.a{fill:#f93;}.b{fill:#fff;}.c{fill:#128807;}.d{fill:#008;}</style></defs><title>india</title><path class="a" d="M448.45,6.89C256.38,6.89,92.86,129.1,31.38,300H865.51C804,129.1,640.52,6.89,448.45,6.89Z" transform="translate(-5.34 -6.89)"/><path class="b" d="M5.34,450a442.35,442.35,0,0,0,26,150H865.51a445,445,0,0,0,0-300H31.38A442.35,442.35,0,0,0,5.34,450ZM448.45,330a120,120,0,1,1-120,120A120,120,0,0,1,448.45,330Z" transform="translate(-5.34 -6.89)"/><path class="c" d="M448.45,893.11C640.52,893.11,804,770.9,865.51,600H31.38C92.86,770.9,256.38,893.11,448.45,893.11Z" transform="translate(-5.34 -6.89)"/><path class="d" d="M448.45,570a120,120,0,1,0-120-120A120,120,0,0,0,448.45,570ZM339.14,435.61a5.25,5.25,0,0,1,5.89-4.52.45.45,0,0,1,.11,0,104.43,104.43,0,0,1,4.4-16.42l-.11,0a5.25,5.25,0,0,1,4-9.7l.1,0a104.19,104.19,0,0,1,8.51-14.71l-.11-.06a5.25,5.25,0,0,1,6.39-8.34s.06.07.1.1q2.76-3.24,5.76-6.26t6.26-5.76a.94.94,0,0,1-.1-.1,5.25,5.25,0,0,1,8.33-6.39,1.05,1.05,0,0,0,.07.11,105.17,105.17,0,0,1,14.71-8.51l-.06-.1a5.25,5.25,0,0,1,9.71-4,.45.45,0,0,0,0,.11,103.5,103.5,0,0,1,16.41-4.39s0-.08,0-.12A5.25,5.25,0,1,1,440,345.21v.13c2.8-.22,5.64-.34,8.5-.34s5.69.12,8.49.34c0,0,0-.08,0-.13a5.25,5.25,0,0,1,10.41,1.37l0,.12a103.62,103.62,0,0,1,16.42,4.39.45.45,0,0,1,0-.11,5.25,5.25,0,1,1,9.7,4,.93.93,0,0,0-.05.1,105.06,105.06,0,0,1,14.7,8.51.41.41,0,0,0,.07-.11,5.25,5.25,0,0,1,8.33,6.39l-.09.1q3.24,2.76,6.25,5.76t5.76,6.26l.1-.1a5.26,5.26,0,0,1,6.4,8.34l-.11.06A106.17,106.17,0,0,1,543.35,405a.93.93,0,0,1,.1,0,5.25,5.25,0,0,1,4,9.7l-.1,0a103.33,103.33,0,0,1,4.39,16.42.45.45,0,0,1,.11,0,5.25,5.25,0,0,1,1.37,10.41h-.13q.35,4.22.35,8.5t-.35,8.5h.13a5.25,5.25,0,1,1-1.37,10.41.45.45,0,0,1-.11,0,103.33,103.33,0,0,1-4.39,16.42l.1,0a5.25,5.25,0,0,1-4,9.7.93.93,0,0,1-.1,0,106.17,106.17,0,0,1-8.51,14.71l.11.06a5.26,5.26,0,0,1-6.4,8.34l-.1-.1q-2.75,3.24-5.76,6.26T516.44,530l.09.1a5.25,5.25,0,0,1-8.33,6.39.41.41,0,0,0-.07-.11,105.06,105.06,0,0,1-14.7,8.51l.05.1a5.25,5.25,0,1,1-9.7,4,.45.45,0,0,1,0-.11,103.62,103.62,0,0,1-16.42,4.39l0,.12A5.25,5.25,0,0,1,457,554.79s0-.09,0-.13c-2.8.22-5.63.34-8.49.34s-5.7-.12-8.5-.34v.13a5.25,5.25,0,1,1-10.41-1.37s0-.08,0-.12a103.5,103.5,0,0,1-16.41-4.39.45.45,0,0,0,0,.11,5.25,5.25,0,0,1-9.71-4l.06-.1a105.17,105.17,0,0,1-14.71-8.51,1.05,1.05,0,0,0-.07.11,5.25,5.25,0,0,1-8.33-6.39l.1-.1q-3.25-2.76-6.26-5.76T368.44,518l-.1.1a5.25,5.25,0,0,1-6.39-8.34l.11-.06A104.19,104.19,0,0,1,353.55,495l-.1,0a5.25,5.25,0,0,1-4-9.7l.11,0a104.43,104.43,0,0,1-4.4-16.42.45.45,0,0,1-.11,0,5.25,5.25,0,1,1-1.37-10.41h.13c-.22-2.81-.34-5.64-.34-8.5s.12-5.69.34-8.5h-.13A5.26,5.26,0,0,1,339.14,435.61Z" transform="translate(-5.34 -6.89)"/><path class="b" d="M349.55,437a5.24,5.24,0,0,1-5.76,4.52c-.22,2.81-.34,5.64-.34,8.5l63-3.6,21.05,2.53a22.65,22.65,0,0,1,.41-3.32l-21-3L347,422.82l61.79,12.83,19.66,7.88a20.86,20.86,0,0,1,1.29-3.08l-19.49-8.33L357.51,397.5l56.36,28.38,17,12.71a21.09,21.09,0,0,1,2-2.64l-16.67-13.1-42-47.1q-3,3-5.76,6.26a5.24,5.24,0,0,1-6.38,8.3A104.19,104.19,0,0,0,353.55,405a5.24,5.24,0,0,1-4,9.68,104.43,104.43,0,0,0-4.4,16.42A5.23,5.23,0,0,1,349.55,437Z" transform="translate(-5.34 -6.89)"/><path class="b" d="M449.52,429.05a21.09,21.09,0,0,1,3.31.42l3-21,19.78-59.92-12.83,61.78L454.91,430a20.93,20.93,0,0,1,3.09,1.28l8.33-19.48L501,359.07l-28.39,56.36-12.7,17a20,20,0,0,1,2.64,2l13.1-16.67,47.09-42q-3-3-6.25-5.76a5.24,5.24,0,0,1-8.31-6.38,105.06,105.06,0,0,0-14.7-8.51,5.24,5.24,0,0,1-9.68-4,103.62,103.62,0,0,0-16.42-4.39,5.24,5.24,0,0,1-10.39-1.36c-2.8-.22-5.63-.34-8.49-.34l3.6,63Z" transform="translate(-5.34 -6.89)"/><path class="b" d="M469.39,451.07a20.22,20.22,0,0,1-.41,3.32l21,3,59.92,19.79-61.79-12.83-19.66-7.88a19.84,19.84,0,0,1-1.29,3.08l19.49,8.33,52.76,34.62L483,474.12l-17-12.71a20.18,20.18,0,0,1-2,2.64l16.67,13.1,42,47.1q3-3,5.76-6.26a5.24,5.24,0,0,1,6.39-8.3A106.17,106.17,0,0,0,543.35,495a5.24,5.24,0,0,1,4-9.68,103.33,103.33,0,0,0,4.39-16.42,5.23,5.23,0,0,1,1.35-10.38q.35-4.22.35-8.5l-63,3.6Z" transform="translate(-5.34 -6.89)"/><path class="b" d="M464,436a20.18,20.18,0,0,1,2,2.64l17-12.71,56.36-28.38-52.76,34.62-19.49,8.33a19.84,19.84,0,0,1,1.29,3.08l19.66-7.88,61.79-12.83L490,442.61l-21,3a20.22,20.22,0,0,1,.41,3.32l21.06-2.53,63,3.6q0-4.29-.35-8.5a5.23,5.23,0,0,1-1.35-10.38,103.33,103.33,0,0,0-4.39-16.42,5.24,5.24,0,0,1-4-9.68,106.17,106.17,0,0,0-8.51-14.71,5.24,5.24,0,0,1-6.39-8.3q-2.75-3.24-5.76-6.26l-42,47.1Z" transform="translate(-5.34 -6.89)"/><path class="b" d="M462.5,465.57a20,20,0,0,1-2.64,2l12.7,17L501,540.93l-34.62-52.76L458,468.69a20.93,20.93,0,0,1-3.09,1.28l7.88,19.67,12.83,61.78L455.84,491.5l-3-21a21.09,21.09,0,0,1-3.31.42L452.05,492l-3.6,63c2.86,0,5.69-.12,8.49-.34a5.24,5.24,0,0,1,10.39-1.36,103.62,103.62,0,0,0,16.42-4.39,5.24,5.24,0,0,1,9.68-4,105.06,105.06,0,0,0,14.7-8.51,5.24,5.24,0,0,1,8.31-6.38q3.24-2.76,6.25-5.76l-47.09-42Z" transform="translate(-5.34 -6.89)"/><path class="b" d="M434.39,434.43a20.08,20.08,0,0,1,2.65-2l-12.71-17L396,359.07l34.61,52.76,8.34,19.48A20.81,20.81,0,0,1,442,430l-7.88-19.67-12.83-61.78,19.78,59.92,3,21a21.09,21.09,0,0,1,3.31-.42L444.85,408l3.6-63c-2.86,0-5.7.12-8.5.34a5.24,5.24,0,0,1-10.39,1.36,103.5,103.5,0,0,0-16.41,4.39,5.24,5.24,0,0,1-9.68,4,105.17,105.17,0,0,0-14.71,8.51,5.24,5.24,0,0,1-8.3,6.38q-3.25,2.76-6.26,5.76l47.09,42Z" transform="translate(-5.34 -6.89)"/><path class="b" d="M432.87,464.05a21.09,21.09,0,0,1-2-2.64l-17,12.71L357.51,502.5l52.76-34.62,19.49-8.33a20.86,20.86,0,0,1-1.29-3.08l-19.66,7.88L347,477.18,407,457.39l21-3a22.65,22.65,0,0,1-.41-3.32l-21.05,2.53-63-3.6c0,2.86.12,5.69.34,8.5a5.23,5.23,0,0,1,1.35,10.38,104.43,104.43,0,0,0,4.4,16.42,5.24,5.24,0,0,1,4,9.68,104.19,104.19,0,0,0,8.51,14.71,5.24,5.24,0,0,1,6.38,8.3q2.76,3.24,5.76,6.26l42-47.1Z" transform="translate(-5.34 -6.89)"/><path class="b" d="M447.37,471a21.09,21.09,0,0,1-3.31-.42l-3,21-19.78,59.92,12.83-61.78L442,470a20.81,20.81,0,0,1-3.08-1.28l-8.34,19.48L396,540.93l28.38-56.36,12.71-17a20.08,20.08,0,0,1-2.65-2l-13.1,16.67-47.09,42q3,3,6.26,5.76a5.24,5.24,0,0,1,8.3,6.38,105.17,105.17,0,0,0,14.71,8.51,5.24,5.24,0,0,1,9.68,4,103.5,103.5,0,0,0,16.41,4.39A5.24,5.24,0,0,1,440,554.66c2.8.22,5.64.34,8.5.34l-3.6-63Z" transform="translate(-5.34 -6.89)"/><path class="d" d="M427.5,451.07a22.65,22.65,0,0,0,.41,3.32l8.95-1.28-8.39,3.36a20.86,20.86,0,0,0,1.29,3.08l8.29-3.55-7.22,5.41a21.09,21.09,0,0,0,2,2.64l7.09-5.56-5.57,7.08a20.08,20.08,0,0,0,2.65,2l5.41-7.22-3.55,8.3A20.81,20.81,0,0,0,442,470l3.36-8.38-1.28,8.94a21.09,21.09,0,0,0,3.31.42l1.08-8.95,1.07,8.95a21.09,21.09,0,0,0,3.31-.42l-1.28-8.94,3.36,8.38a20.93,20.93,0,0,0,3.09-1.28l-3.55-8.3,5.41,7.22a20,20,0,0,0,2.64-2l-5.57-7.08,7.09,5.56a20.18,20.18,0,0,0,2-2.64L458.84,456l8.29,3.55a19.84,19.84,0,0,0,1.29-3.08L460,453.11l8.94,1.28a20.22,20.22,0,0,0,.41-3.32L460.45,450l8.94-1.07a20.22,20.22,0,0,0-.41-3.32L460,446.89l8.38-3.36a19.84,19.84,0,0,0-1.29-3.08L458.84,444l7.22-5.41a20.18,20.18,0,0,0-2-2.64l-7.09,5.56,5.57-7.08a20,20,0,0,0-2.64-2l-5.41,7.22,3.55-8.3a20.93,20.93,0,0,0-3.09-1.28l-3.36,8.38,1.28-8.94a21.09,21.09,0,0,0-3.31-.42L448.45,438l-1.08-8.95a21.09,21.09,0,0,0-3.31.42l1.28,8.94L442,430a20.81,20.81,0,0,0-3.08,1.28l3.55,8.3L437,432.39a20.08,20.08,0,0,0-2.65,2l5.57,7.08L432.87,436a21.09,21.09,0,0,0-2,2.64l7.22,5.41-8.29-3.55a20.86,20.86,0,0,0-1.29,3.08l8.39,3.36-8.95-1.28a22.65,22.65,0,0,0-.41,3.32l8.95,1.07Z" transform="translate(-5.34 -6.89)"/><path class="d" d="M547.34,463a5.24,5.24,0,0,0,4.41,5.86.45.45,0,0,0,.11,0,5.25,5.25,0,1,0,1.37-10.41h-.13A5.25,5.25,0,0,0,547.34,463Z" transform="translate(-5.34 -6.89)"/><polygon class="d" points="444.18 464.05 443.11 455.11 442.03 464.05 439.51 485.11 443.11 548.11 446.71 485.11 444.18 464.05"/><path class="d" d="M540.6,488.17a5.25,5.25,0,0,0,2.75,6.81.93.93,0,0,0,.1,0,5.25,5.25,0,0,0,4-9.7l-.1,0A5.25,5.25,0,0,0,540.6,488.17Z" transform="translate(-5.34 -6.89)"/><polygon class="d" points="436.64 463.08 428.76 482.74 415.93 544.53 435.71 484.61 438.72 463.64 440 454.7 436.64 463.08"/><path class="d" d="M527.58,510.72a5.25,5.25,0,0,0,.87,7.27l.1.1a5.26,5.26,0,0,0,6.4-8.34l-.11-.06A5.25,5.25,0,0,0,527.58,510.72Z" transform="translate(-5.34 -6.89)"/><polygon class="d" points="431.69 460.72 418.99 477.68 390.61 534.04 425.22 481.28 433.56 461.79 437.11 453.5 431.69 460.72"/><path class="d" d="M509.17,529.14a5.25,5.25,0,0,0-1,7.25.41.41,0,0,1,.07.11,5.25,5.25,0,0,0,8.33-6.39l-.09-.1A5.24,5.24,0,0,0,509.17,529.14Z" transform="translate(-5.34 -6.89)"/><polygon class="d" points="429.05 458.68 434.62 451.59 427.53 457.16 410.86 470.26 368.86 517.35 415.95 475.35 429.05 458.68"/><path class="d" d="M486.62,542.16a5.24,5.24,0,0,0-2.87,6.75.45.45,0,0,0,0,.11,5.25,5.25,0,1,0,9.7-4l-.05-.1A5.24,5.24,0,0,0,486.62,542.16Z" transform="translate(-5.34 -6.89)"/><polygon class="d" points="424.42 452.65 404.93 460.99 352.17 495.61 408.53 467.22 425.49 454.52 432.71 449.11 424.42 452.65"/><path class="d" d="M461.47,548.9a5.24,5.24,0,0,0-4.53,5.76s0,.08,0,.13a5.25,5.25,0,0,0,10.41-1.37l0-.12A5.23,5.23,0,0,0,461.47,548.9Z" transform="translate(-5.34 -6.89)"/><polygon class="d" points="422.57 447.49 401.61 450.5 341.68 470.28 403.47 457.45 423.13 449.57 431.51 446.21 422.57 447.49"/><path class="d" d="M435.43,548.9a5.24,5.24,0,0,0-5.87,4.4s0,.08,0,.12A5.25,5.25,0,1,0,440,554.79v-.13A5.24,5.24,0,0,0,435.43,548.9Z" transform="translate(-5.34 -6.89)"/><polygon class="d" points="422.16 444.18 431.11 443.11 422.16 442.03 401.11 439.51 338.11 443.11 401.11 446.71 422.16 444.18"/><path class="d" d="M410.27,542.16a5.23,5.23,0,0,0-6.8,2.74l-.06.1a5.25,5.25,0,0,0,9.71,4,.45.45,0,0,1,0-.11A5.24,5.24,0,0,0,410.27,542.16Z" transform="translate(-5.34 -6.89)"/><polygon class="d" points="423.13 436.64 403.47 428.76 341.68 415.93 401.61 435.71 422.57 438.72 431.51 440 423.13 436.64"/><path class="d" d="M387.72,529.14a5.22,5.22,0,0,0-7.26.87l-.1.1a5.25,5.25,0,0,0,8.33,6.39,1.05,1.05,0,0,1,.07-.11A5.24,5.24,0,0,0,387.72,529.14Z" transform="translate(-5.34 -6.89)"/><polygon class="d" points="425.49 431.69 408.53 418.99 352.17 390.61 404.93 425.22 424.42 433.56 432.71 437.11 425.49 431.69"/><path class="d" d="M369.31,510.72a5.24,5.24,0,0,0-7.25-1l-.11.06a5.25,5.25,0,0,0,6.39,8.34l.1-.1A5.25,5.25,0,0,0,369.31,510.72Z" transform="translate(-5.34 -6.89)"/><polygon class="d" points="427.53 429.05 434.62 434.62 429.05 427.53 415.95 410.86 368.86 368.86 410.86 415.95 427.53 429.05"/><path class="d" d="M356.29,488.17a5.24,5.24,0,0,0-6.75-2.87l-.11,0a5.25,5.25,0,0,0,4,9.7l.1,0A5.25,5.25,0,0,0,356.29,488.17Z" transform="translate(-5.34 -6.89)"/><polygon class="d" points="433.56 424.42 425.22 404.93 390.61 352.17 418.99 408.53 431.69 425.49 437.11 432.71 433.56 424.42"/><path class="d" d="M349.55,463a5.24,5.24,0,0,0-5.76-4.52h-.13A5.25,5.25,0,1,0,345,468.91a.45.45,0,0,0,.11,0A5.23,5.23,0,0,0,349.55,463Z" transform="translate(-5.34 -6.89)"/><polygon class="d" points="438.72 422.57 435.71 401.61 415.93 341.68 428.76 403.47 436.64 423.13 440 431.51 438.72 422.57"/><path class="d" d="M343.66,441.5h.13a5.23,5.23,0,0,0,1.35-10.38.45.45,0,0,0-.11,0,5.25,5.25,0,0,0-1.37,10.41Z" transform="translate(-5.34 -6.89)"/><polygon class="d" points="442.03 422.16 443.11 431.11 444.18 422.16 446.71 401.11 443.11 338.11 439.51 401.11 442.03 422.16"/><path class="d" d="M356.29,411.83a5.25,5.25,0,0,0-2.74-6.81l-.1,0a5.25,5.25,0,0,0-4,9.7l.11,0A5.25,5.25,0,0,0,356.29,411.83Z" transform="translate(-5.34 -6.89)"/><polygon class="d" points="449.57 423.13 457.45 403.47 470.28 341.68 450.5 401.61 447.49 422.57 446.21 431.51 449.57 423.13"/><path class="d" d="M369.31,389.28a5.25,5.25,0,0,0-.87-7.27s-.06-.07-.1-.1a5.25,5.25,0,0,0-6.39,8.34l.11.06A5.24,5.24,0,0,0,369.31,389.28Z" transform="translate(-5.34 -6.89)"/><polygon class="d" points="454.52 425.49 467.22 408.53 495.61 352.17 460.99 404.93 452.65 424.42 449.11 432.71 454.52 425.49"/><path class="d" d="M387.72,370.86a5.24,5.24,0,0,0,1-7.25,1.05,1.05,0,0,1-.07-.11,5.25,5.25,0,0,0-8.33,6.39.94.94,0,0,0,.1.1A5.22,5.22,0,0,0,387.72,370.86Z" transform="translate(-5.34 -6.89)"/><polygon class="d" points="457.16 427.53 451.59 434.62 458.68 429.05 475.35 415.95 517.35 368.86 470.26 410.86 457.16 427.53"/><path class="d" d="M410.27,357.84a5.24,5.24,0,0,0,2.88-6.75.45.45,0,0,1,0-.11,5.25,5.25,0,0,0-9.71,4l.06.1A5.23,5.23,0,0,0,410.27,357.84Z" transform="translate(-5.34 -6.89)"/><polygon class="d" points="461.79 433.56 481.28 425.22 534.04 390.61 477.68 418.99 460.72 431.69 453.5 437.11 461.79 433.56"/><path class="d" d="M435.43,351.1a5.24,5.24,0,0,0,4.52-5.76v-.13a5.25,5.25,0,1,0-10.41,1.37s0,.08,0,.12A5.24,5.24,0,0,0,435.43,351.1Z" transform="translate(-5.34 -6.89)"/><polygon class="d" points="463.64 438.72 484.61 435.71 544.53 415.93 482.74 428.76 463.08 436.64 454.7 440 463.64 438.72"/><path class="d" d="M461.47,351.1a5.23,5.23,0,0,0,5.86-4.4l0-.12A5.25,5.25,0,0,0,457,345.21c0,.05,0,.09,0,.13A5.24,5.24,0,0,0,461.47,351.1Z" transform="translate(-5.34 -6.89)"/><polygon class="d" points="464.05 442.03 455.11 443.11 464.05 444.18 485.11 446.71 548.11 443.11 485.11 439.51 464.05 442.03"/><path class="d" d="M486.62,357.84a5.24,5.24,0,0,0,6.81-2.74.93.93,0,0,1,.05-.1,5.25,5.25,0,1,0-9.7-4,.45.45,0,0,0,0,.11A5.24,5.24,0,0,0,486.62,357.84Z" transform="translate(-5.34 -6.89)"/><polygon class="d" points="463.08 449.57 482.74 457.45 544.53 470.28 484.61 450.5 463.64 447.49 454.7 446.21 463.08 449.57"/><path class="d" d="M509.17,370.86a5.24,5.24,0,0,0,7.27-.87l.09-.1a5.25,5.25,0,0,0-8.33-6.39.41.41,0,0,1-.07.11A5.25,5.25,0,0,0,509.17,370.86Z" transform="translate(-5.34 -6.89)"/><polygon class="d" points="460.72 454.52 477.68 467.22 534.04 495.61 481.28 460.99 461.79 452.65 453.5 449.11 460.72 454.52"/><path class="d" d="M527.58,389.28a5.25,5.25,0,0,0,7.26,1l.11-.06a5.26,5.26,0,0,0-6.4-8.34l-.1.1A5.25,5.25,0,0,0,527.58,389.28Z" transform="translate(-5.34 -6.89)"/><polygon class="d" points="458.68 457.16 451.59 451.59 457.16 458.68 470.26 475.35 517.35 517.35 475.35 470.26 458.68 457.16"/><path class="d" d="M540.6,411.83a5.26,5.26,0,0,0,6.76,2.87l.1,0a5.25,5.25,0,0,0-4-9.7.93.93,0,0,0-.1,0A5.25,5.25,0,0,0,540.6,411.83Z" transform="translate(-5.34 -6.89)"/><polygon class="d" points="452.65 461.79 460.99 481.28 495.61 534.04 467.22 477.68 454.52 460.72 449.11 453.5 452.65 461.79"/><path class="d" d="M547.34,437a5.25,5.25,0,0,0,5.76,4.52h.13a5.25,5.25,0,0,0-1.37-10.41.45.45,0,0,0-.11,0A5.24,5.24,0,0,0,547.34,437Z" transform="translate(-5.34 -6.89)"/><polygon class="d" points="447.49 463.64 450.5 484.61 470.28 544.53 457.45 482.74 449.57 463.08 446.21 454.7 447.49 463.64"/></svg>