<svg width="425" height="425" xmlns="http://www.w3.org/2000/svg">

 <g>
  <title>background</title>
  <rect fill="none" id="canvas_background" height="427" width="427" y="-1" x="-1"/>
 </g>
 <g>
  <title>Layer 1</title>
  <ellipse ry="212" rx="211.850267" id="svg_25" cy="214.219253" cx="212.850269" fill-opacity="null" stroke-opacity="null" stroke-width="null" stroke="null" fill="#ffffff"/>
  <rect fill="#010101" id="svg_3" y="88.404313" x="324.26023" width="12.4" transform="matrix(0.8321,-0.5546,0.5546,0.8321,-38.6631,219.4498) " height="34.2" class="st1"/>
  <rect fill="#010101" id="svg_4" y="122.007038" x="346.766597" width="12.4" transform="matrix(0.8321,-0.5547,0.5547,0.8321,-53.5593,237.5784) " height="34.2" class="st1"/>
  <rect fill="#010101" id="svg_5" y="74.604313" x="351.06023" width="12.4" transform="matrix(0.8321,-0.5546,0.5546,0.8321,-37.761,235.3882) " height="74.7" class="st1"/>
  <rect fill="#010101" id="svg_6" y="67.707038" x="355.366597" width="12.4" transform="matrix(0.8321,-0.5547,0.5547,0.8321,-21.9559,233.2306) " height="34.2" class="st1"/>
  <rect fill="#010101" id="svg_7" y="101.307038" x="377.766597" width="12.4" transform="matrix(0.8321,-0.5547,0.5547,0.8321,-36.8561,251.3311) " height="34.2" class="st1"/>
  <rect fill="#010101" id="svg_8" y="216.104313" x="138.76023" width="12.4" transform="matrix(0.8321,-0.5546,0.5546,0.8321,-151.8939,141.4211) " height="74.7" class="st1"/>
  <rect fill="#010101" id="svg_9" y="229.907038" x="112.066597" width="12.4" transform="matrix(0.8321,-0.5547,0.5547,0.8321,-152.8013,125.5069) " height="34.2" class="st1"/>
  <rect fill="#010101" id="svg_10" y="263.607038" x="134.466597" width="12.4" transform="matrix(0.8321,-0.5547,0.5547,0.8321,-167.7044,143.6055) " height="34.2" class="st1"/>
  <rect fill="#010101" id="svg_11" y="236.904313" x="107.66023" width="12.4" transform="matrix(0.8321,-0.5546,0.5546,0.8321,-168.5963,127.6678) " height="74.7" class="st1"/>
  <rect fill="#010101" id="svg_12" y="116.484217" x="134.838194" width="74.7" transform="matrix(0.5546,-0.8321,0.8321,0.5546,-88.2403,215.9703) " height="12.4" class="st1"/>
  <rect fill="#010101" id="svg_13" y="106.084217" x="119.338194" width="74.7" transform="matrix(0.5546,-0.8321,0.8321,0.5546,-86.5429,198.4359) " height="12.4" class="st1"/>
  <rect fill="#010101" id="svg_14" y="95.784217" x="103.738194" width="74.7" transform="matrix(0.5546,-0.8321,0.8321,0.5546,-84.8432,180.8989) " height="12.4" class="st1"/>
  <rect fill="#010101" id="svg_15" y="264.486763" x="340.531754" width="34.2" transform="matrix(0.5547,-0.8321,0.8321,0.5547,-128.768,436.2368) " height="12.4" class="st1"/>
  <rect fill="#010101" id="svg_16" y="230.784217" x="363.038194" width="34.2" transform="matrix(0.5546,-0.8321,0.8321,0.5546,-90.762,439.9558) " height="12.4" class="st1"/>
  <rect fill="#010101" id="svg_17" y="274.786763" x="356.131754" width="34.2" transform="matrix(0.5547,-0.8321,0.8321,0.5547,-130.467,453.7723) " height="12.4" class="st1"/>
  <rect fill="#010101" id="svg_18" y="241.186763" x="378.531754" width="34.2" transform="matrix(0.5547,-0.8321,0.8321,0.5547,-92.4732,457.4502) " height="12.4" class="st1"/>
  <rect fill="#010101" id="svg_19" y="285.186763" x="371.631754" width="34.2" transform="matrix(0.5547,-0.8321,0.8321,0.5547,-132.1672,471.3084) " height="12.4" class="st1"/>
  <rect fill="#010101" id="svg_20" y="251.486763" x="394.031754" width="34.2" transform="matrix(0.5547,-0.8321,0.8321,0.5547,-94.172,474.9854) " height="12.4" class="st1"/>
  <path fill="#b51e3a" id="svg_21" d="m145.616579,164.947595c-0.3,0.4 -0.5,0.8 -0.8,1.2c0.2,-0.4 0.5,-0.8 0.8,-1.2" class="st2"/>
  <path fill="#b51e3a" id="svg_22" d="m249.116579,144.247595c-34.3,-22.9 -80.7,-13.6 -103.5,20.7c-11.4,17.2 -6.8,40.3 10.4,51.8c17.2,11.4 40.3,6.8 51.8,-10.4c11.4,-17.2 34.6,-21.8 51.8,-10.4c17.2,11.4 21.8,34.6 10.4,51.8c22.7,-34.3 13.4,-80.7 -20.9,-103.5" class="st2"/>
  <path fill="#273775" id="svg_23" d="m145.616579,164.947595c-11.4,17.2 -6.8,40.3 10.4,51.8c17.2,11.4 40.3,6.8 51.8,-10.4c11.4,-17.2 34.6,-21.8 51.8,-10.4c17.2,11.4 21.8,34.6 10.4,51.8c-22.9,34.3 -69.2,43.6 -103.5,20.7s-43.8,-69.2 -20.9,-103.5" class="st3"/>
 </g>
</svg>