<svg xmlns="http://www.w3.org/2000/svg" viewBox="0 0 596 596"><defs><style>.a{fill:#21468b;}.b{fill:#fff;}.c{fill:#ae1c28;}</style></defs><title>nederlands</title><path class="a" d="M450,598c129.5,0,239.69-82.61,280.78-198H169.22C210.31,515.39,320.5,598,450,598Z" transform="translate(-152 -2)"/><path class="b" d="M152,300a297.32,297.32,0,0,0,17.22,100H730.78a299,299,0,0,0,0-200H169.22A297.32,297.32,0,0,0,152,300Z" transform="translate(-152 -2)"/><path class="c" d="M450,2C320.5,2,210.31,84.61,169.22,200H730.78C689.69,84.61,579.5,2,450,2Z" transform="translate(-152 -2)"/></svg>