<svg xmlns="http://www.w3.org/2000/svg" viewBox="0 0 444.58 444.58"><defs><style>.a{fill:#0038a8;}.b{fill:#ce1126;}.c{fill:#fff;}.d{fill:#fcd116;}</style></defs><title>philippines</title><path class="a" d="M259.71,2.71A221.49,221.49,0,0,0,108.13,62.43L389.71,225H482C482,102.23,382.48,2.71,259.71,2.71Z" transform="translate(-37.42 -2.71)"/><path class="b" d="M108.13,387.57a221.49,221.49,0,0,0,151.58,59.72C382.48,447.29,482,347.77,482,225H389.71Z" transform="translate(-37.42 -2.71)"/><path class="c" d="M108.13,62.43a222.24,222.24,0,0,0,0,325.14L389.71,225Zm121,168.41L184.91,228c-.07,1-.16,2-.29,2.92L225,236.19,220.23,241l-36.09-7.18A44.88,44.88,0,0,1,177.41,250L208,270.45v6.74l-32.31-24.8c-.6.78-1.23,1.54-1.87,2.27l33.35,29.25v8.27h-8.27l-29.25-33.35c-.73.64-1.49,1.27-2.26,1.87L192.19,293h-6.74L165,262.42a44.79,44.79,0,0,1-16.22,6.72L156,305.23,151.19,310l-5.32-40.38c-1,.13-1.94.22-2.93.29l2.9,44.25L140,320l-5.84-5.84,2.89-44.25c-1-.07-2-.16-2.92-.29L128.81,310,124,305.23l7.18-36.08A44.65,44.65,0,0,1,115,262.41L94.55,293H87.81l24.8-32.31c-.78-.6-1.54-1.23-2.27-1.87L81.09,292.18H72.82v-8.27l33.35-29.25c-.64-.73-1.27-1.49-1.87-2.26L72,277.19v-6.74L102.58,250a44.79,44.79,0,0,1-6.72-16.22L59.77,241,55,236.19l40.38-5.31c-.13-1-.22-1.95-.29-2.93l-44.25,2.89L45,225l5.84-5.84,44.25,2.89c.07-1,.16-2,.29-2.92L55,213.81,59.77,209l36.09,7.18A44.88,44.88,0,0,1,102.59,200L72,179.55v-6.74l32.31,24.8c.6-.78,1.23-1.54,1.87-2.27L72.82,166.09v-8.27h8.27l29.25,33.35c.73-.64,1.49-1.27,2.26-1.87L87.81,157h6.74L115,187.58a44.79,44.79,0,0,1,16.22-6.72L124,144.77l4.77-4.77,5.32,40.38c1-.13,1.94-.22,2.92-.29l-2.89-44.25L140,130l5.84,5.84-2.9,44.25c1,.07,2,.16,2.93.29L151.19,140l4.77,4.77-7.18,36.09A44.88,44.88,0,0,1,165,187.59L185.45,157h6.74l-24.8,32.31c.78.6,1.54,1.23,2.27,1.87l29.25-33.35h8.27v8.27l-33.35,29.25c.64.73,1.27,1.49,1.87,2.26L208,172.81v6.74L177.42,200a44.79,44.79,0,0,1,6.72,16.22L220.23,209l4.77,4.77-40.38,5.32c.13,1,.22,1.94.29,2.92l44.25-2.89L235,225Zm98.64,0-.36,17.9-10.82-14.27-17.13,5.18L309.71,225l-10.22-14.69,17.13,5.18,10.82-14.27.36,17.9L344.71,225Z" transform="translate(-37.42 -2.71)"/><polygon class="d" points="290.01 198.51 279.2 212.78 262.06 207.59 272.29 222.29 262.06 236.98 279.2 231.8 290.01 246.06 290.38 228.17 307.29 222.29 290.38 216.41 290.01 198.51"/><path class="d" d="M184.91,222.05c-.07-1-.16-2-.29-2.92L225,213.81,220.23,209l-36.09,7.18A44.79,44.79,0,0,0,177.42,200L208,179.55v-6.74L175.7,197.6c-.6-.77-1.23-1.53-1.87-2.26l33.35-29.25v-8.27h-8.27l-29.25,33.35c-.73-.64-1.49-1.27-2.27-1.87L192.19,157h-6.74L165,187.59a44.88,44.88,0,0,0-16.22-6.73L156,144.77,151.19,140l-5.32,40.38c-1-.13-1.94-.22-2.93-.29l2.9-44.25L140,130l-5.84,5.84,2.89,44.25c-1,.07-2,.16-2.92.29L128.81,140,124,144.77l7.18,36.09A44.79,44.79,0,0,0,115,187.58L94.55,157H87.81L112.6,189.3c-.77.6-1.53,1.23-2.26,1.87L81.09,157.82H72.82v8.27l33.35,29.25c-.64.73-1.27,1.49-1.87,2.27L72,172.81v6.74L102.59,200a44.88,44.88,0,0,0-6.73,16.22L59.77,209,55,213.81l40.38,5.32c-.13,1-.22,1.94-.29,2.92l-44.25-2.89L45,225l5.84,5.84L95.09,228c.07,1,.16,2,.29,2.93L55,236.19,59.77,241l36.09-7.18A44.79,44.79,0,0,0,102.58,250L72,270.45v6.74L104.3,252.4c.6.77,1.23,1.53,1.87,2.26L72.82,283.91v8.27h8.27l29.25-33.35c.73.64,1.49,1.27,2.27,1.87L87.81,293h6.74L115,262.41a44.65,44.65,0,0,0,16.22,6.74L124,305.23l4.77,4.77,5.32-40.38c1,.13,1.94.22,2.92.29l-2.89,44.25L140,320l5.84-5.84-2.9-44.25c1-.07,2-.16,2.93-.29L151.19,310l4.77-4.77-7.18-36.09A44.79,44.79,0,0,0,165,262.42L185.45,293h6.74L167.4,260.7c.77-.6,1.53-1.23,2.26-1.87l29.25,33.35h8.27v-8.27l-33.35-29.25c.64-.73,1.27-1.49,1.87-2.27L208,277.19v-6.74L177.41,250a44.88,44.88,0,0,0,6.73-16.22L220.23,241l4.77-4.77-40.38-5.32c.13-1,.22-1.94.29-2.92l44.25,2.89L235,225l-5.84-5.84Z" transform="translate(-37.42 -2.71)"/></svg>