<svg xmlns="http://www.w3.org/2000/svg" viewBox="0 0 481.89 481.89"><defs><style>.a{fill:#6da544;}.b{fill:#d80027;}.c{fill:#ffda44;}.d{fill:#f0f0f0;}</style></defs><title>portugal</title><path class="a" d="M15.06,256c0,103.6,65.39,191.91,157.14,226l21-226-21-226C80.44,64.09,15.06,152.4,15.06,256Z" transform="translate(-15.06 -15.06)"/><path class="b" d="M496.94,256C496.94,122.93,389.07,15.06,256,15.06a240.44,240.44,0,0,0-83.81,15V482a240.42,240.42,0,0,0,83.81,15C389.07,496.94,496.94,389.07,496.94,256Z" transform="translate(-15.06 -15.06)"/><circle class="c" cx="157.14" cy="240.94" r="83.81"/><path class="b" d="M125.05,214.1v52.38a47.14,47.14,0,1,0,94.28,0V214.1Z" transform="translate(-15.06 -15.06)"/><path class="d" d="M172.19,282.19a15.73,15.73,0,0,1-15.71-15.71v-21h31.43v21A15.73,15.73,0,0,1,172.19,282.19Z" transform="translate(-15.06 -15.06)"/></svg>