<svg xmlns="http://www.w3.org/2000/svg" viewBox="0 0 507.4 507.4"><defs><style>.a{fill:#f0f0f0;}.b{fill:#0052b4;}.c{fill:#d80027;}</style></defs><title>uk</title><circle class="a" cx="253.7" cy="253.7" r="253.7"/><path class="b" d="M53.86,100.66a252.78,252.78,0,0,0-43.7,88.28h132Z" transform="translate(-1.41 -1.42)"/><path class="b" d="M500.08,188.94a252.8,252.8,0,0,0-43.7-88.28L368.1,188.94Z" transform="translate(-1.41 -1.42)"/><path class="b" d="M10.15,321.3a252.8,252.8,0,0,0,43.7,88.28l88.27-88.28Z" transform="translate(-1.41 -1.42)"/><path class="b" d="M409.57,53.86A252.79,252.79,0,0,0,321.3,10.16v132Z" transform="translate(-1.41 -1.42)"/><path class="b" d="M100.66,456.37a252.8,252.8,0,0,0,88.28,43.71v-132Z" transform="translate(-1.41 -1.42)"/><path class="b" d="M188.93,10.16a252.8,252.8,0,0,0-88.27,43.7l88.27,88.27Z" transform="translate(-1.41 -1.42)"/><path class="b" d="M321.3,500.08a252.8,252.8,0,0,0,88.27-43.7L321.3,368.1v132Z" transform="translate(-1.41 -1.42)"/><path class="b" d="M368.1,321.3l88.28,88.28a252.79,252.79,0,0,0,43.7-88.28Z" transform="translate(-1.41 -1.42)"/><path class="c" d="M506.67,222H288.21V3.56a256,256,0,0,0-66.18,0V222H3.56a256,256,0,0,0,0,66.18H222V506.67a256,256,0,0,0,66.18,0V288.21H506.67a256,256,0,0,0,0-66.18Z" transform="translate(-1.41 -1.42)"/><path class="c" d="M321.3,321.3h0L434.51,434.51q7.81-7.81,14.91-16.29L352.5,321.3H321.3Z" transform="translate(-1.41 -1.42)"/><path class="c" d="M188.93,321.3h0L75.72,434.51q7.81,7.81,16.29,14.91l96.92-96.93V321.3Z" transform="translate(-1.41 -1.42)"/><path class="c" d="M188.93,188.94h0L75.72,75.72Q67.91,83.53,60.81,92l96.92,96.92h31.2Z" transform="translate(-1.41 -1.42)"/><path class="c" d="M321.3,188.94h0L434.51,75.72q-7.81-7.81-16.29-14.91L321.3,157.74Z" transform="translate(-1.41 -1.42)"/></svg>