<svg xmlns="http://www.w3.org/2000/svg" viewBox="0 0 481.89 481.89"><defs><style>.a{fill:#f0f0f0;}.b{fill:#d80027;}.c{fill:#0052b4;}</style></defs><title>usa</title><circle class="a" cx="240.94" cy="240.94" r="240.94"/><path class="b" d="M245.52,256H496.94a241.21,241.21,0,0,0-8.3-62.86H245.52Z" transform="translate(-15.06 -15.06)"/><path class="b" d="M245.52,130.29H461.58A242.21,242.21,0,0,0,406,67.43H245.52Z" transform="translate(-15.06 -15.06)"/><path class="b" d="M256,496.94a239.91,239.91,0,0,0,150-52.38H106A239.91,239.91,0,0,0,256,496.94Z" transform="translate(-15.06 -15.06)"/><path class="b" d="M50.42,381.71H461.58a239.51,239.51,0,0,0,27.06-62.86H23.36A239.51,239.51,0,0,0,50.42,381.71Z" transform="translate(-15.06 -15.06)"/><path class="c" d="M126.67,52.68h22L128.2,67.52l7.8,24L115.58,76.69,95.15,91.53l6.74-20.74a242.27,242.27,0,0,0-46.73,52.08h7l-13,9.44q-3,5.07-5.83,10.29l6.21,19.11L38,153.3q-4.32,9.15-7.88,18.7L37,193.06H62.2L41.77,207.9l7.8,24L29.15,217.07,16.92,226a243.27,243.27,0,0,0-1.86,30H256V15.06A239.8,239.8,0,0,0,126.67,52.68ZM136,231.91l-20.42-14.84L95.15,231.91l7.8-24L82.53,193.06h25.24l7.8-24,7.8,24h25.24L128.2,207.9Zm-7.8-94.2,7.8,24-20.42-14.84L95.15,161.72l7.8-24L82.53,122.87h25.24l7.8-24,7.8,24h25.24Zm94.23,94.2L202,217.07l-20.42,14.84,7.8-24L169,193.06H194.2l7.8-24,7.8,24H235L214.62,207.9Zm-7.8-94.2,7.8,24L202,146.88l-20.42,14.84,7.8-24L169,122.87H194.2l7.8-24,7.8,24H235Zm0-70.19,7.8,24L202,76.69,181.58,91.53l7.8-24L169,52.68H194.2l7.8-24,7.8,24H235Z" transform="translate(-15.06 -15.06)"/></svg>