<svg xmlns="http://www.w3.org/2000/svg" viewBox="0 0 115.41 23.32"><defs><style>.a{fill:#fff;}</style></defs><title>icopulse</title><path class="a" d="M64.2,14.6v2c0,.4-.2.5-.6.5-.2,0-.5-.2-.5-.4V10.6a3,3,0,0,1,3.1-2.8,3.12,3.12,0,0,1,2.7,2.1,12.19,12.19,0,0,1,0,2.7,2.6,2.6,0,0,1-2.7,2Zm.2-1.2h1.8a1.55,1.55,0,0,0,1.7-1.3,4.85,4.85,0,0,0,0-1.7,1.73,1.73,0,0,0-1.7-1.6,1.57,1.57,0,0,0-1.7,1.4v.2a10.07,10.07,0,0,0-.1,3Z" transform="translate(0.01 0.01)"/><path class="a" d="M80,14a2.93,2.93,0,0,1-3.1.4,2.09,2.09,0,0,1-1.4-2.2V8.6c0-.5.2-.7.6-.7s.6.2.6.7v3.3a2,2,0,0,0,.1.8,1.78,1.78,0,0,0,1.6,1,1.38,1.38,0,0,0,1.3-1.1,1.7,1.7,0,0,0,.1-.7V8.5a.56.56,0,0,1,.6-.5.63.63,0,0,1,.6.5v4.1a1.48,1.48,0,0,0,.4,1.3.49.49,0,1,1-.7.7C80.4,14.3,80.3,14.1,80,14Z" transform="translate(0.01 0.01)"/><path class="a" d="M97.7,14.6a2.34,2.34,0,0,1-1.8-.8c-.2-.4-.4-.6-.1-.8a.48.48,0,0,1,.7,0,.35.35,0,0,1,.1.2,1.85,1.85,0,0,0,1.2.5,1.08,1.08,0,0,0,1-.8,1,1,0,0,0-.6-1.2,4.18,4.18,0,0,1-1-.4A1.65,1.65,0,0,1,96,9.5a2,2,0,0,1,1.7-1.6h1.1c.4,0,.6.1.6.5a.73.73,0,0,1-.6.6H98a.75.75,0,0,0-.7.6.62.62,0,0,0,.5.8h0a10.37,10.37,0,0,0,1,.4,1.84,1.84,0,0,1,1.4,2.2h0A2.26,2.26,0,0,1,98,14.8Z" transform="translate(0.01 0.01)"/><path class="a" d="M89.3,10.1v4c-.1.2-.2.5-.6.5-.2,0-.5-.1-.5-.4V6.7c0-.8,0-.8-.8-1.2-.2-.1-.5-.2-.4-.6s.2-.4.6-.5a1.77,1.77,0,0,1,1.8,1.7v.1c-.1,1.4-.1,2.7-.1,3.9Z" transform="translate(0.01 0.01)"/><path class="a" d="M114.8,13.5h-5.9a1.46,1.46,0,0,1-1.6-1.8h2.2a1.68,1.68,0,0,0,1.8-1.6V10a2.09,2.09,0,0,0-1.4-2.2,8.08,8.08,0,0,0-1.6-.1,2.56,2.56,0,0,0-2.2,2.4v1.8a2.59,2.59,0,0,0,2.4,2.5h6.3a.56.56,0,0,0,.6-.5v-.1C115.4,13.5,115.1,13.5,114.8,13.5Zm-5.3-4.6a1,1,0,0,1,.7,1.1.74.74,0,0,1-.8.8h-2.1c-.2-1.5.9-2.4,2.2-1.9Z" transform="translate(0.01 0.01)"/><path class="a" d="M0,2.5A2.39,2.39,0,0,1,2.4,0h.1A2.39,2.39,0,0,1,5,2.4V20.7a2.39,2.39,0,0,1-2.4,2.5H2.5A2.5,2.5,0,0,1,0,20.6H0Z" transform="translate(0.01 0.01)"/><path class="a" d="M27.92,16.1a2.39,2.39,0,0,0-1.4.5,7.81,7.81,0,0,1-4.8,1.7c-3.9,0-6.4-3.1-6.4-7v.1c0-3.9,2.7-6.9,6.4-6.9a7.78,7.78,0,0,1,4.6,1.6,3.26,3.26,0,0,0,1.4.4,2.43,2.43,0,0,0,2.4-2.4,2.28,2.28,0,0,0-1-1.9A12.46,12.46,0,0,0,21.62,0,11.27,11.27,0,0,0,10,10.9v.6A11.18,11.18,0,0,0,21,22.9h.5a11.87,11.87,0,0,0,8-2.8,2.14,2.14,0,0,0,.8-1.7A2.57,2.57,0,0,0,27.92,16.1Z" transform="translate(0.01 0.01)"/><path class="a" d="M49.12,14.1l-.6-4.8-2.2,10.4a.71.71,0,0,1-1.4,0l-1.5-6.1L42,17a.75.75,0,0,1-.7.5.56.56,0,0,1-.6-.5l-.6-2h-4.7a.7.7,0,1,1,0-1.4h5.3a.75.75,0,0,1,.7.5l.1.6,1.4-3.5a.75.75,0,0,1,.7-.5.56.56,0,0,1,.6.5v.1l1.2,5.2,2.4-11.4a.71.71,0,0,1,1.4,0l1.1,8.4h5.9a10.87,10.87,0,0,0,.1-1.8A11.5,11.5,0,0,0,44.82.2h-.4a11.49,11.49,0,0,0-11.8,11.1v.5a11.5,11.5,0,0,0,11.5,11.5h.4a11.3,11.3,0,0,0,11.3-8.2h-6.1A3.33,3.33,0,0,1,49.12,14.1Z" transform="translate(0.01 0.01)"/><path class="a" d="M64.4,13.4h-8a5.73,5.73,0,0,1-.4,1.4h8.2Z" transform="translate(0.01 0.01)"/></svg>