<?xml version="1.0" encoding="utf-8"?>
<!-- Generator: Adobe Illustrator 22.0.0, SVG Export Plug-In . SVG Version: 6.00 Build 0)  -->
<svg version="1.1" id="Слой_1" xmlns="http://www.w3.org/2000/svg" xmlns:xlink="http://www.w3.org/1999/xlink" x="0px" y="0px"
	 viewBox="0 0 115.5 23.3" style="enable-background:new 0 0 115.5 23.3;" xml:space="preserve">
<style type="text/css">
	.st0{fill:#2D00F1;}
</style>
<g id="Group_22" transform="translate(1242 22)">
	<path id="Path_346" class="st0" d="M-1177.8-7.4v2c0,0.4-0.2,0.5-0.6,0.5c-0.2,0-0.5-0.2-0.5-0.4c0,0,0-0.1,0-0.1v-6
		c0.1-1.6,1.5-2.9,3.1-2.8c1.2,0.1,2.3,0.9,2.7,2.1c0.1,0.9,0.1,1.8,0,2.7c-0.3,1.2-1.4,2.1-2.7,2L-1177.8-7.4z M-1177.6-8.6h1.8
		c0.8,0.1,1.6-0.5,1.7-1.3c0.1-0.6,0.1-1.1,0-1.7c-0.1-0.9-0.8-1.6-1.7-1.6c-0.9-0.1-1.6,0.6-1.7,1.4c0,0.1,0,0.1,0,0.2
		C-1177.7-10.6-1177.7-9.6-1177.6-8.6L-1177.6-8.6z"/>
	<path id="Path_347" class="st0" d="M-1162-8c-0.9,0.7-2.1,0.9-3.1,0.4c-0.9-0.3-1.5-1.2-1.4-2.2v-3.6c0-0.5,0.2-0.7,0.6-0.7
		s0.6,0.2,0.6,0.7v3.3c0,0.3,0,0.6,0.1,0.8c0.3,0.6,0.9,1,1.6,1c0.6,0,1.2-0.5,1.3-1.1c0.1-0.2,0.1-0.5,0.1-0.7v-3.4
		c0-0.3,0.3-0.5,0.6-0.5c0.3,0,0.5,0.2,0.6,0.5v4.1c-0.1,0.5,0.1,1,0.4,1.3c0.2,0.2,0.2,0.5,0,0.7c-0.2,0.2-0.5,0.2-0.7,0
		C-1161.6-7.7-1161.7-7.9-1162-8z"/>
	<path id="Path_348" class="st0" d="M-1144.3-7.4c-0.7,0-1.4-0.3-1.8-0.8c-0.2-0.4-0.4-0.6-0.1-0.8c0.2-0.2,0.5-0.2,0.7,0
		c0,0,0.1,0.1,0.1,0.2c0.3,0.3,0.8,0.5,1.2,0.5c0.5,0,0.9-0.4,1-0.8c0.1-0.5-0.1-1-0.6-1.2c-0.4-0.1-0.6-0.2-1-0.4
		c-0.8-0.2-1.3-1-1.2-1.8c0.2-0.8,0.8-1.5,1.7-1.6h1.1c0.4,0,0.6,0.1,0.6,0.5c0,0.2-0.2,0.5-0.6,0.6h-0.8c-0.4,0-0.6,0.3-0.7,0.6
		c-0.1,0.4,0.1,0.7,0.5,0.8c0,0,0,0,0,0c0.3,0.1,0.6,0.3,1,0.4c1,0.2,1.6,1.2,1.4,2.2c0,0,0,0,0,0c-0.2,1-1.1,1.8-2.2,1.8
		L-1144.3-7.4z"/>
	<path id="Path_349" class="st0" d="M-1152.7-11.9v4c-0.1,0.2-0.2,0.5-0.6,0.5c-0.2,0-0.5-0.1-0.5-0.4v-7.5c0-0.8,0-0.8-0.8-1.2
		c-0.2-0.1-0.5-0.2-0.4-0.6c0-0.4,0.2-0.4,0.6-0.5c1,0,1.8,0.8,1.8,1.7c0,0,0,0,0,0.1C-1152.7-14.4-1152.7-13.1-1152.7-11.9
		L-1152.7-11.9z"/>
	<path id="Path_350" class="st0" d="M-1127.2-8.5h-5.9c-1.1,0-1.7-0.6-1.6-1.8h2.2c0.9,0.1,1.7-0.6,1.8-1.6c0,0,0-0.1,0-0.1
		c0.1-1-0.5-1.9-1.4-2.2c-0.5-0.1-1-0.1-1.6-0.1c-1.2,0.1-2.1,1.2-2.2,2.4v1.8c0,1.3,1.1,2.4,2.4,2.5h6.3c0.3,0,0.6-0.2,0.6-0.5
		c0,0,0,0,0-0.1C-1126.6-8.5-1126.9-8.5-1127.2-8.5z M-1132.5-13.1c0.5,0.2,0.8,0.6,0.7,1.1c0,0.5-0.3,0.8-0.8,0.8c0,0,0,0,0,0h-2.1
		C-1134.9-12.7-1133.8-13.6-1132.5-13.1L-1132.5-13.1z"/>
	<g id="Group_3">
		<path id="Path_351" class="st0" d="M-1242-19.5c0-1.4,1-2.5,2.4-2.5c0,0,0.1,0,0.1,0c1.4,0,2.5,1,2.5,2.4c0,0,0,0.1,0,0.1v18.2
			c0,1.4-1,2.5-2.4,2.5c0,0-0.1,0-0.1,0c-1.4,0-2.6-1.2-2.5-2.6c0,0,0,0,0,0V-19.5z"/>
	</g>
	<g id="Group_4" transform="translate(10.123)">
		<path id="Path_352" class="st0" d="M-1224.2-5.9c-0.5,0-1,0.2-1.4,0.5c-1.4,1.1-3.1,1.7-4.8,1.7c-3.9,0-6.4-3.1-6.4-7v0.1
			c0-3.9,2.7-6.9,6.4-6.9c1.7,0,3.2,0.6,4.6,1.6c0.4,0.2,0.9,0.4,1.4,0.4c1.3,0,2.4-1.1,2.4-2.4c0-0.8-0.4-1.5-1-1.9
			c-2.2-1.5-4.8-2.3-7.5-2.2c-6.2-0.2-11.4,4.7-11.6,10.9c0,0.2,0,0.4,0,0.5v0.1c-0.1,6.2,4.8,11.3,11,11.4c0.2,0,0.3,0,0.5,0
			c2.9,0.1,5.7-0.9,8-2.8c0.5-0.4,0.8-1,0.8-1.7C-1221.8-4.7-1222.9-5.8-1224.2-5.9z"/>
		<path id="Path_353" class="st0" d="M-1203-7.9l-0.6-4.8l-2.2,10.4c-0.1,0.3-0.4,0.6-0.7,0.6c-0.3,0-0.6-0.3-0.7-0.6l-1.5-6.1
			l-1.4,3.4c-0.1,0.3-0.4,0.5-0.7,0.5c-0.3,0-0.6-0.2-0.6-0.5l-0.6-2h-4.7c-0.4,0-0.7-0.3-0.7-0.7c0-0.4,0.3-0.7,0.7-0.7l0,0h5.3
			c0.3,0,0.6,0.2,0.7,0.5l0.1,0.6l1.4-3.5c0.1-0.3,0.4-0.5,0.7-0.5c0.3,0,0.6,0.2,0.6,0.5c0,0,0,0,0,0.1l1.2,5.2l2.4-11.4
			c0.1-0.3,0.4-0.6,0.7-0.6c0.3,0,0.6,0.3,0.7,0.6l1.1,8.4h5.9c0.1-0.6,0.1-1.2,0.1-1.8c0-6.3-5.1-11.5-11.5-11.5
			c-0.1,0-0.2,0-0.4,0c-6.3-0.2-11.6,4.8-11.8,11.1c0,0.1,0,0.2,0,0.4v0.1c0,6.3,5.1,11.5,11.5,11.5c0.1,0,0.2,0,0.4,0
			c5.2,0.2,9.9-3.2,11.3-8.2h-6.1C-1202.6-7.2-1202.9-7.5-1203-7.9z"/>
	</g>
	<path id="Path_354" class="st0" d="M-1177.6-8.6h-8c-0.1,0.5-0.2,1-0.4,1.4h8.2L-1177.6-8.6z"/>
</g>
</svg>
