<svg id="74a211aa-a701-4ecc-bc4f-705dd41ea7eb" data-name="84a769ab-976c-40b6-b1db-0d079cd45b3d" xmlns="http://www.w3.org/2000/svg" viewBox="0 0 387.85 216.8"><defs><style>.\32 cade051-273c-43b4-b7e4-13575cbdc646{fill:#1e9a1e;}</style></defs><title>done</title><path class="2cade051-273c-43b4-b7e4-13575cbdc646" d="M366.08,45.38l2-.15c-2.12-1.38-2.63-3.35-3-5.6-1.21-7.52-2.47-15.05-4-22.48a16.34,16.34,0,0,0-3-6,3.65,3.65,0,0,0-4.73-1.29L352,7.62l-.38.14c.08.68.17,1.38.28,2.16a76.39,76.39,0,0,0-9,1.42,75.09,75.09,0,0,0-8.4,3.37l.19.67c1.29-.17,2.6-.32,3.88-.53,3.22-.52,6.41-1.16,9.64-1.59a7.39,7.39,0,0,1,7.24,2.83c-1.8.28-3.16,1.64-5,.64a3.58,3.58,0,0,0-2,0Q333,19.2,317.6,21.71c-23.08,3.72-46.23,7.46-69.36,11.06-1.31.21-2.79-.72-4.1-1.08,3.73-3.46,8.55-2.79,12.93-3.63,4.68-.91,9.44-1.47,14.14-2.25,11-1.79,22-3.66,33-5.44,8.61-1.4,17.22-2.68,25.81-4.06.41-1.94-.89-1.48-1.68-1.37-4,.62-8.11,1.13-12,2-10.24,2.28-20.7,2.84-31.09,4.21-.59.08-1.18.21-1.87.33l.91.88c-2.81.39-5.37.81-7.95,1-.45,0-1-.81-1.2-1a9.41,9.41,0,0,1-2.55,1.47c-2.25.39-4.55.49-6.82.78a10.3,10.3,0,0,0-3.63.73,7.47,7.47,0,0,1-7.15.57,2,2,0,0,0-1.79.33c-2.25,2.25-5,1.36-7.63,1.94l-.51-.54c.68-1.55,1.35-3.1,2-4.63l2.11,1c.2-1.81-1.83-1.82-2.6-3,4.44-.73,8.79-1.45,13.13-2.11a1.21,1.21,0,0,1,1,.35c1.08,1.34,2.06.23,3-.11.74-.27,1.34-1.05,2.09-1.22,3.74-.92,7.51-1.5,11.2-2.4a36,36,0,0,0,4.86-2.1,21,21,0,0,1,2.6-.64c2.6-3,6.92-2,10.06-3.32l3.9,5.61s.1,0,.11-.07c.2-1,.24-2.82.62-2.88a13.16,13.16,0,0,1,5.79-.19c2,.56,3.67,2.07,5.48,3.1.44-.66.94-1.34,1.35-2.06a12.36,12.36,0,0,0,.67-1.54,13.33,13.33,0,0,0-2,.06c-.2,0-.32.54-.48.83-1.15-1.31-1.06-1.85.5-2.13,7.63-1.37,15.28-2.65,22.89-4,4.81-.91,9.73-1.11,14.16-3.74,2.42-1.45,5.35-.71,8,.43,6.27,2.81,9.63,7.75,10.54,14.58.46,3.49,1.14,6.94,1.79,10.8l-4-.71-.22.87,4.54,1.46c.54,2.82,1.15,6,1.74,9.22a2.29,2.29,0,0,1-.43.32c-.78.29-1.58.57-2.37.85a21.07,21.07,0,0,0,1.68,3c.59.77,1.77,1.21,2.13,2,.57,1.3.79,2.79-.61,4a4.69,4.69,0,0,0-.93,1.62c-1.2,2.41-1,3,1.69,3.48,1.58.28,2,1,2.19,2.6.76,6.59,1.24,13.23,3.78,19.49.71,2,1.32,4,1.83,6.09l-2.58,1.31.17.5,2.61-.32c.43,3.43,1.42,6.93,1.15,10.33a33.15,33.15,0,0,0,1.26,12.49,7.86,7.86,0,0,1,.17,1.44c-1.8-.91-3.79-1.4-5-2.62-.92-1-.78-2.92-1.2-4.85l2.37,1.24c.36-1.54-.44-2.2-1.57-2.79A2.22,2.22,0,0,1,375.08,98c-1.54-9.14-3-18.31-4.49-27.46a82.16,82.16,0,0,1-1.41-10.14l1.95-3-3-.3C367.53,53.66,366.82,49.58,366.08,45.38ZM337.91,12.09a41.37,41.37,0,0,0,4.68-1.67c.47-.23.59-1.18.88-1.8-.67-.25-1.47-.88-2-.68C339.87,8.63,337.57,8.81,337.91,12.09Zm-320.57,136-2,1.19v.47l2.3.36c.39,2.77.78,5.63,1.11,8l-3.32,2.32.24.67,2.58-.49c.12.31.16.89.47,1.09,1.41,1,1,2,.3,3.17-.85,1.3-1.23,2.5.2,3.82.51.47.38,1.65.47,2.16.55.64,1.23,1.09,1.32,1.63,1.31,7.91,2.53,15.85,3.78,23.78.49,3.07,1,6.15,1.48,9.22,1,6.1,6,9.95,12.11,8.81,2.73-.5,3.78.85,5,3L42,217.16c-.58,0-1.33-.37-1.72-.12-4.13,2.71-7.84,1-11.36-1.22-3.95-2.42-5.75-6.26-6.52-10.82-1.85-11-4-21.91-5.95-32.87-.66-3.65-.94-7.39-1.86-11-1-4-2.62-7.91-5.86-10.8-.21-.18-.54-.3-.64-.52a6.09,6.09,0,0,1-.7-2c0-.24.94-.87,1.18-.75a4.15,4.15,0,0,1,1.54,1.43A23.53,23.53,0,0,0,12.49,152c1.08-4.22-2.86-7.24-2.46-11.25l3.46.16-2.92-4.42-.32.24-.16-3.22,2.19-.23.14-.55-2-.86c-.55-4.25-1.06-8.49-1.67-12.72-.13-1-.13-2.33-2-1.75-.36-2-.67-4-1.08-5.93s-.33-3.34,2-4L7.33,107l-2.18.6c-.78-5.7-1.54-11.35-2.34-17.31l2.05.86c-.91-1.69-1.46-3,.36-4.28.41-.29.14-2-.27-2.91-.74-1.6-1.19-3.47-3.12-4.27a1.62,1.62,0,0,1-.69-1C-1.08,69.54,2.61,61.32,12,58.67c3-.85,6-1.27,9-2a31.11,31.11,0,0,0,4-1.47l4.58-1.81.38.54a53.44,53.44,0,0,1-4.63,4.14c-.66.47-1.86.17-2.81.26-.75,0-1.5.14-2.3.21.42,2.74,2.16,1.63,3.8,1.56-.93,1-.91,2.67-2.68,1.34a2.26,2.26,0,0,0-1.83.2c-.3,1.51-1.5,1-2.36,1.22-2.47.66-4.9,1.46-7.4,1.93-.83.15-1.81-.59-2.74-.88-.54-.17-1.12-.27-1.68-.41a5.2,5.2,0,0,0,.06,1.76,15.47,15.47,0,0,0,1.51,2.33l-3,5.36c1.7.7,1.44,2.73,1.75,4.59C6.84,85,8.2,92.37,9.45,99.81c1.72,10.23,3.53,20.46,5,30.74.41,2.91,1.39,5.68,1.65,8.61S16.91,145.17,17.34,148.12ZM169.08,35.54l-1.26-1.42a2,2,0,0,1,.51-.25c4.93-.78,9.87-1.46,14.78-2.33,3.2-.57,6.31-1.57,9.51-2.09,14.49-2.35,29-4.55,43.49-6.87,1.74-.27,3.49.2,5.28-.7s2.14.78,2,2.1a35.62,35.62,0,0,1-.94,4.31c-5.22.41-10.45.8-15.66,1.25Q221,30.08,215.2,31c-1.77.27-3.78.31-4.84,2.28-.13.25-.75.32-1.15.34-5.16.29-10.37.22-15.49.9-7.46,1-14.83,2.63-22.27,3.79-6,.95-12.1,1.47-18.13,2.39-3.75.57-7.46,1.46-11.17,2.32-1.57.37-2.59.44-2.35-1.69,0-.45-.58-1-.81-1.33l-2.68,2.32.84.59c-1.18,2.47-2.64,2.52-5.46-.05l-.23,2.47L127,46c-.33-.79-.65-1.51-1-2.44L125,45.63a9.28,9.28,0,0,0-1.45-1,13.83,13.83,0,0,0-2-.51l0-2,.89.73a40.55,40.55,0,0,1,4.8-2.06c2.19-.62,4.47-.92,6.84-1.4l1.29,1.88a29.64,29.64,0,0,1,2-2.85c.57-.63,1.32-1.46,2-1.54,4.74-.5,9.5-.71,14.24-1.22,3.58-.37,7.11-1.05,10.68-1.57.72-.11,1.45-.13,2.54-.22l-1.58,2,.18.57Zm62.82-6.4c0-1.3.32-2.38-.09-3s-1.52-.77-2.33-1.1l-.23.54ZM47.21,216.93,47,214.88l-1.6,2.28-1.66-3.39c3.7-.66,7.55-1.37,11.42-2.05s7.73-1.31,11.6-1.94,7.92-1.27,11.88-1.9,7.81-1.23,11.69-1.88,7.9-1.42,11.85-2.1,7.75-1.28,11.62-1.91,7.93-1.27,11.88-1.93,7.78-1.36,11.67-2,7.93-1.46,11.93-1.86c3.72-.38,7.28-1.5,11-2,4-.55,7.89-1.26,11.91-1.91a6.78,6.78,0,0,1,.87,2.36c0,.68-.63,1.81-1.14,1.89-4.58.8-9.21,1.34-13.8,2.12-5.85,1-11.67,2.17-17.53,3.18-4.43.77-8.87,1.47-13.32,2-.78.11-1.66-.59-2.7-1l-1.1,1.08-.49-1.09c-.22.11-.44.14-.44.21-.16,1.43-1,1.79-2.37,2-3.68.54-7.34,1.25-11,1.9-1.19-2.73-1.88-2.86-4-.55l2.1.21v.4c-1.73.35-3.47.66-5.18,1.07-10.81,2.59-21.87,3.33-32.86,4.67-1.8.21-3.62.32-5.42.48a.7.7,0,0,0-.37.17C58.61,217,52.58,214.94,47.21,216.93Zm292.5-50.21-7.63,4.19-.38-.53,1.23-1.4c-2-.55-3.36.34-4.83,1.07-1.06.52-2.29,1.35-3.3,1.17-2.41-.42-3.94,1.33-5.9,1.89-.33.11-.41,1-.62,1.57l.52.55c-2.83.36-5.67.75-8.53,1-.44,0-.92-.59-1.42-.69a3.12,3.12,0,0,0-1.66.12c-.82.32-1.56,1.1-2.37,1.17-3.46.24-6.51,1.64-9.57,3.08a5.06,5.06,0,0,1-1.79.48c-3.3.24-6.62.42-10,.61-.11-.46-.08-1.25-.41-1.47a8.61,8.61,0,0,0-2.25-.79c-.18.71-.41,1.42-.55,2.14s0,1.76-.21,1.77a8.85,8.85,0,0,1-2.62-.15c-.34-.07-.6-.72-.9-.73-4.87-.09-9.68-1.91-14.63.06-2.12.84-4.61.77-6.94.95-.33,0-1-.83-1.06-1.37a9.15,9.15,0,0,1,.19-2.45c4.74-.74,9.64-1.54,14.56-2.29,10.88-1.66,21.76-3.28,32.65-5,1.63-.25,3-.32,3.61,1.61.13.42.65.72,1.47,1.55-.45-3.19.91-4,3.23-4.4,2-.34,3.89-1.43,5.9-1.89,2.72-.59,5.52-.9,8.71-1.33l-1.93,2.83c1.3,1.34,2.79.8,3.87.19a27,27,0,0,0,5-3.67,5.22,5.22,0,0,1,6.19-.79A14.94,14.94,0,0,0,339.71,166.72ZM58.34,48c2.37,0,4.73,0,7.08-.06a17.22,17.22,0,0,0,2.87-.17c.48-.09.87-.61,1.3-1l-1.46-.42C70.13,43,74,43.92,77,43a10.68,10.68,0,0,1,7.92.2c.87.4,2,.15,3.09.25,2.45.25,4.92.55,7.38.79a34.48,34.48,0,0,0,5.37.39c1.64-.08,3-.15,3.75,1.68.18.41,1.19.71,1.78.65a34.63,34.63,0,0,0,4-.74c0-.32,0-.5-.07-.57-.47-.49-1-1-1.45-1.41a10.29,10.29,0,0,1,2.24-1c2.1-.4,4.23-.65,6.47-1-3.83,5.3-6.39,6.06-11.54,6.78Q91.49,51.08,77,53.44c-2,.32-3.69.6-4.51-2.09l-2.71,2.4,2.58-.35.1.55-8,1.44,1.36-3.65,2.43-1.1-.07-.54-9.75-1.68Zm195,135.94c-4.35.91-8.61,1.83-12.91,2.58-.7.12-1.55-.75-2.54-1.28l-.41,1.91c-6.91-1.41-13.45,1-20,2.25-2.79.53-5.39,2.19-8.19,2.56-6.3.88-12.66,1.23-19,1.73-.52,0-1.06-.5-1.63-.64a2.73,2.73,0,0,0-1.24,0c-.25,2-2.61,1.49-3.48,2.93-.41.69-2,.71-3,1l-.29-.44a6.29,6.29,0,0,1,1.45-1.32c2.56-1.26,2.58-1.23,1.5-3.81-.09-.25-.15-.5-.3-1,.84.08,1.49.17,2.14.2a5.84,5.84,0,0,0,1.82,0c2.23-.55,4.4-1.39,6.66-1.78,8.44-1.48,16.91-2.82,25.57-4.25-.16.55-.29,1-.59,2,.93-.44,1.64-.56,1.88-1,1.56-2.58,4.2-1.43,6.36-1.88a4.18,4.18,0,0,1,.57,1.23c.14.44.23,1.14.35,1.73l.94-.11c0-1.06,0-2.12.14-3.4,3-.53,6.14-1.09,9.25-1.59,4-.64,8-1.16,11.9-1.89,1.92-.34,2.94,0,2.7,2.17A10.31,10.31,0,0,0,253.37,183.89Zm119.53-48c-.7-4-1.4-8-2.08-12Q367,101,363.16,78q-.62-3.69-1.2-7.37a32,32,0,0,1-.47-4c0-.77.76-1.84.46-2.28-2.6-3.88-2.9-8.49-2.91-12.72,0-3.82-1.68-7-2-10.64-.67-6.52-2-13-3.1-19.47-.21-1.22-.62-2.4-.93-3.64l3.14-1.09a22.48,22.48,0,0,1,.94,3c1,6.15,2,12.3,2.9,18.47a5.5,5.5,0,0,1-.79,3.11,2.9,2.9,0,0,0,1,4,2.79,2.79,0,0,0,1.2.39l-1.18,1.32.58-.11c.59,2.23,1.36,4.44,1.76,6.71.9,5.24,1.69,10.52,2.48,15.8a13.21,13.21,0,0,1-.24,1.77c0,.92-1.13,2.23.81,2.59.13,0,.22.46.27.71,1.06,6.56,2.25,13.05,3.11,19.69.31,2.32-.31,4.76-.23,7.13a69.71,69.71,0,0,0,.74,7.77c1.18,8.23,2.43,16.45,3.66,24.66l.27,2ZM205.38,183.06c4.26-4.16,10.07-3.6,15.45-4.56,4.83-.91,9.84-.88,14.59-2,2.77-.65,5.08-.09,7.6.4a12.41,12.41,0,0,0,3.43-.33c-.28-.73-.47-1.27-.68-1.83l81.06-12.47c-1.73,1.43-3.22,2.84-5.66,3.2-14.38,2.19-28.7,4.66-43.06,7-9.23,1.48-18.48,2.81-27.83,4.23l-1.51-2.09c-.23,3-2.3,2.65-4.05,2.92l-38.22,5.56A8.39,8.39,0,0,1,205.38,183.06ZM129.24,52l-1-3c3.57-.37,6.9-.64,10.21-1.08,1.4-.2,2.75-.86,4.15-1.13,3.37-.64,6.83-1.23,10.26-1.72a12.55,12.55,0,0,1,3,.37,2.82,2.82,0,0,0,1-.15,57.13,57.13,0,0,1,6.4-1.87c17.06-2.88,34.06-5.67,51.1-8.49l.84-.12-1.61,3.58ZM380,145.7c1.3,3.1.43,5.77-1.46,8.27-.92,1.19-2.88,1.83-2.13,4,.11.28-.74.89-1.15,1.37,1.89,1,4.6.29,6.74-1.93a16.36,16.36,0,0,0,4.58-9.1,2.39,2.39,0,0,1,.72-1.28c1.09,2.95-1.11,5.71-.64,8.87l1.33-.79.4.33a27.9,27.9,0,0,1-3.21,3.81,15.45,15.45,0,0,1-9.52,3.71c-1.15.06-2.28.5-3.43.58a19.91,19.91,0,0,1-5.34-.27c-.68.54-1.3,1.42-2,1.56-6.38,1.12-12.78,2.1-19.17,3.14-2.21.36-3.34-1-4.83-2.92l7.88,1.52-4.19-3.8c5.17-.33,10.18-.06,14.9-1.09s9.91-.41,14.45-3.78a4.64,4.64,0,0,0-1.31-.41c-1.94.14-3.76.56-5.81-.27a3.73,3.73,0,0,0-4.62,1.27c-.62.83-2.69.87-4.08.77a20.21,20.21,0,0,1-4.37-1.32c.7-.16,1.31-.32,1.94-.43,5-.83,9.95-1.81,15-2.46,4.83-.67,7.75-3.31,9-7.93A14.1,14.1,0,0,1,380,145.7ZM66.33,206.1l-.51-2.68,83.05-13.53c.09,1,.16,1.82.26,2.91ZM82.25,59.27,76.4,60.8l0-1.8c-.81,2-2.46,2-4.05,2.33C66,62.38,59.7,63.54,53.32,64.52a7.65,7.65,0,0,1-2.91-.6,29.34,29.34,0,0,1-5.21,2Q31.61,68.34,18,70.4c-2.74.42-4.25,2.26-5.84,4.15-.21.26-.45.49-.71.79-.83-2.73,1.34-6.24,4.35-7,4.16-1,8.33-2.07,12.55-2.76,1.31-.23,2.81.52,4.21.87.91.22,1.79.52,3,.89l-.83-3.75a38.05,38.05,0,0,0,5,.33,75.32,75.32,0,0,0,9.48-.82C63.34,60.61,77.5,58,91.39,55.44l1.34,1.94L94.32,55l9.49-1.61.81,2.52c-1.83.26-3.51,1.29-5.47.1-.54-.34-1.7.23-2.52.52a29.67,29.67,0,0,1-3.53,1.38c-3,.61-6.15,1.06-9.24,1.51A5.13,5.13,0,0,1,82.25,59.27ZM38.9,53.36,36.32,55l.06.43,3.49-.2c.68.41.72,2.54,2.65,1.28L40.77,54.8l11-1.79.18.57-.91,1c1.6-.16,3.32-.28,5-.52a7.93,7.93,0,0,0,2.12-.72c1.5-.66,3-1.39,4.6-2.17.54,4.07.29,4.5-2.94,4.94-2.6.31-5.22.45-7.83.66-.27,0-.61-.07-.81.07-3.6,2.33-7.86,1.42-11.75,2.41s-8,1.36-12,2L24,61.77c1.82-2,3.33-3.72,4.81-5.41a8.66,8.66,0,0,0,.83-1.18c1.59-2.59,2.81-3,5.84-2.24a11.43,11.43,0,0,0,3.3-.16Zm343.65,65-3.37,3.82c-.36-2-.67-3.71-1-5.73l5.51,0c1.87,6.76,4.83,13.31,3.61,20.42-.47,2.62.6,5.23-.5,7.69a10.74,10.74,0,0,1-1.53,2c-.62-.56-1.52-1-1.82-1.71a20.73,20.73,0,0,1-1.23-4.37c-.82-4.62-1.66-9.26-2.28-13.92-.29-2.27-.2-4.62,2.4-5.9C383.06,120.37,384,119.64,382.55,118.39ZM152.63,192.26c-.45-2.14-.07-3.07,2.07-3.39,13.6-2.09,27.13-4.34,40.69-6.51,2.85-.46,5.71-.8,8.74-1.23,0,.73,0,1.32,0,2l-28.49,5.11,0-1.87-.46-.48c-.58,3.6-3.33,3-5.54,3.43C164.06,190.3,158.41,191.26,152.63,192.26Zm-109,17.35c-1.2.26-2.25.51-3.3.72-4,.82-9.5-1.67-10.53-6.89-.72-3.67-1.2-7.37-1.79-11.24l3.18.31c.47,3.09.88,6.09,1.37,9.09.73,4.83,3.32,6.79,8.07,6,7.15-1.14,14.3-2.36,21.64-3.59l-.64,2.81c-4.74.8-9.49,1.63-14.26,2.39a2.45,2.45,0,0,1-1.74-.29C44.23,207.94,43.64,208.24,43.58,209.61ZM227,36.17l-.5-2.18c-1.5,1.08-2.69,2.31-4.14,2.92a23,23,0,0,1-5,.8,14.5,14.5,0,0,1-.88-1.46c-.44-1-.19-1.73,1-1.93,8.13-1.32,16.25-2.69,24.31-4,.13.67.05,1.35.35,1.67,1.49,1.51.39,1.71-.88,1.91ZM24.4,164.09c1.47-.56,2.2-.41,2.41.94,1.29,8.19,2.61,16.38,3.9,24.56a2.91,2.91,0,0,1,0,.78c-3,.06-3.25-.06-3-2.69.44-4.73-.9-9.16-1.74-13.7C25.28,170.68,24.89,167.34,24.4,164.09Zm-6.22-43.58c.67,2.78,1.46,5.53,2,8.34,1.06,5.09,2,10.19,2.87,15.31,1,5.3,2,10.59,2.78,15.91.11.75-.56,1.63-.87,2.45l-.73-.17q-3-20.94-6-41.86Zm358.93-11.59c1.23.71,2.45,1.4,3.67,2.12a1.87,1.87,0,0,1,.75.7c.56,1.15,1.07,2.33,1.77,3.87l-4.62-.09c-.73-2.28-1.39-4.28-2-6.29ZM175.66,192.36l3.47.34.19,4.27-2.49.39C176.46,195.79,176.16,194.27,175.66,192.36ZM14.2,85l1,7.51c-1.36.11-1.47.12-2-3.48a17.13,17.13,0,0,1,.36-4.16ZM16,101.12l1,8.21-.48.07-1.27-8.16ZM14.7,94c1.4,1.23.65,3,1.09,4.52L15,98.7l-1.06-4.42ZM13.47,79.88l.35,3.46L11.9,82l.95-2.29Zm4.74,40.59L16.85,113l.68-.09c.22,2.55.43,5.09.65,7.64Z" transform="translate(-0.51 -1.63)"/><path class="2cade051-273c-43b4-b7e4-13575cbdc646" d="M38.69,117.55a18.12,18.12,0,0,0,8.07.68c3.21-.52,4.69-2.13,4.37-4.15s-2-2.79-5.89-3.52c-5.43-1-9.24-3.26-10-7.76-.85-5.27,2.9-10,10.2-11.2a19.06,19.06,0,0,1,8.14.28L53,97.78a14.86,14.86,0,0,0-6.71-.42c-3,.48-4.28,2.1-4,3.7.32,2,2.21,2.57,6.44,3.44,5.79,1.13,8.82,3.56,9.52,7.92.84,5.19-2.44,10.24-10.93,11.61a20.55,20.55,0,0,1-9.07-.47Z" transform="translate(-0.51 -1.63)"/><path class="2cade051-273c-43b4-b7e4-13575cbdc646" d="M66.38,88.74l2.88,17.8c.86,5.32,3.32,7.7,6.89,7.13s5.28-3.49,4.4-9L77.67,86.91l7-1.12,2.8,17.34C89,112.67,84.9,118,76.83,119.3,69,120.56,63.74,117,62.15,107.12L59.36,89.87Z" transform="translate(-0.51 -1.63)"/><path class="2cade051-273c-43b4-b7e4-13575cbdc646" d="M118.27,111.19a20.2,20.2,0,0,1-7.72,2.62c-10.69,1.72-17.27-4-18.7-12.85-1.7-10.55,4.87-17.64,14.23-19.15a18.46,18.46,0,0,1,7.84.14l-.52,5.78a15.43,15.43,0,0,0-6.06-.2c-5.55.9-9.32,5-8.21,11.83,1,6.19,5.3,9.5,11.54,8.49a17.51,17.51,0,0,0,5.66-1.95Z" transform="translate(-0.51 -1.63)"/><path class="2cade051-273c-43b4-b7e4-13575cbdc646" d="M144.19,107a20.2,20.2,0,0,1-7.72,2.62c-10.69,1.72-17.27-4-18.69-12.85-1.71-10.55,4.87-17.64,14.23-19.15a18.48,18.48,0,0,1,7.84.14l-.53,5.78a15.46,15.46,0,0,0-6.06-.19c-5.55.89-9.32,4.94-8.21,11.82,1,6.2,5.3,9.5,11.54,8.5a17.81,17.81,0,0,0,5.67-2Z" transform="translate(-0.51 -1.63)"/><path class="2cade051-273c-43b4-b7e4-13575cbdc646" d="M165.21,91.09l-11.38,1.83,1.19,7.35,12.71-2.06.92,5.74-19.73,3.18-5-30.92L163,73.13l.92,5.73-12.06,2,1,6.42,11.38-1.83Z" transform="translate(-0.51 -1.63)"/><path class="2cade051-273c-43b4-b7e4-13575cbdc646" d="M172.49,95.94a18.27,18.27,0,0,0,8.07.67c3.21-.52,4.69-2.12,4.37-4.14S183,89.68,179,89c-5.43-1-9.24-3.27-10-7.76-.85-5.28,2.9-10,10.2-11.21a19.19,19.19,0,0,1,8.14.29l-.64,5.89a15,15,0,0,0-6.71-.42c-3,.49-4.28,2.1-4,3.71.32,2,2.21,2.56,6.44,3.43,5.79,1.14,8.82,3.57,9.52,7.93.84,5.18-2.44,10.23-10.93,11.6A20.57,20.57,0,0,1,172,102Z" transform="translate(-0.51 -1.63)"/><path class="2cade051-273c-43b4-b7e4-13575cbdc646" d="M197.27,91.93a18.1,18.1,0,0,0,8.07.68c3.21-.52,4.69-2.13,4.36-4.15s-1.95-2.79-5.88-3.52c-5.43-1-9.24-3.26-10-7.76-.85-5.27,2.9-10,10.2-11.2a19.41,19.41,0,0,1,8.14.28l-.65,5.9a14.81,14.81,0,0,0-6.7-.42c-3,.49-4.28,2.1-4,3.71.32,2,2.2,2.56,6.44,3.43,5.79,1.13,8.82,3.56,9.52,7.92.84,5.19-2.44,10.24-10.93,11.61a20.4,20.4,0,0,1-9.07-.47Z" transform="translate(-0.51 -1.63)"/><path class="2cade051-273c-43b4-b7e4-13575cbdc646" d="M218,64.25l18.9-3.06.93,5.74-11.89,1.92,1.15,7.06,11.1-1.79.92,5.69L228,81.6,230,94l-7,1.13Z" transform="translate(-0.51 -1.63)"/><path class="2cade051-273c-43b4-b7e4-13575cbdc646" d="M249.14,59.21,252,77c.86,5.33,3.31,7.71,6.89,7.13s5.28-3.49,4.39-9l-2.87-17.8,7-1.13,2.81,17.34c1.54,9.55-2.55,14.87-10.62,16.17-7.8,1.26-13.09-2.31-14.68-12.17l-2.79-17.25Z" transform="translate(-0.51 -1.63)"/><path class="2cade051-273c-43b4-b7e4-13575cbdc646" d="M273.46,55.28l7-1.13,4,25.05,12.3-2,.94,5.88-19.31,3.12Z" transform="translate(-0.51 -1.63)"/><path class="2cade051-273c-43b4-b7e4-13575cbdc646" d="M296.91,51.5l7-1.14,4,25,12.3-2,1,5.87L301.9,82.42Z" transform="translate(-0.51 -1.63)"/><path class="2cade051-273c-43b4-b7e4-13575cbdc646" d="M328.38,78.14l-2.05-12.66L313.61,48.8l8-1.29L326,54.43c1.33,2.09,2.24,3.64,3.34,5.53h.09c.38-2,.83-4,1.39-6.3l1.92-7.94,7.84-1.26-7.27,19.67L335.35,77Z" transform="translate(-0.51 -1.63)"/><path class="2cade051-273c-43b4-b7e4-13575cbdc646" d="M137.73,134.13a64.14,64.14,0,0,1,9.34-2.16c5.88-.95,9.86-.51,13.2,1.25,3.6,1.87,6.23,5.35,7.11,10.81,1,5.92-.54,10.35-3.11,13.36-2.82,3.23-7.57,5.32-13.63,6.3a61.7,61.7,0,0,1-8,.82Zm11.09,24.11a13.38,13.38,0,0,0,2.46-.26c6.34-1,9.9-5.13,8.71-12.52-1-6.43-5.3-9.22-11.32-8.25a15.76,15.76,0,0,0-3.12.79Z" transform="translate(-0.51 -1.63)"/><path class="2cade051-273c-43b4-b7e4-13575cbdc646" d="M200.35,139.13c1.64,10.14-3.52,17.28-12.56,18.74s-15.66-4.58-17.08-13.39c-1.5-9.26,3.3-17.15,12.43-18.62C192.64,124.32,199,130.6,200.35,139.13Zm-22.28,4c1,6.06,4.51,9.87,9.2,9.11s6.7-5.7,5.73-11.71c-.9-5.55-4.33-9.89-9.15-9.11S177.1,137.14,178.07,143.15Z" transform="translate(-0.51 -1.63)"/><path class="2cade051-273c-43b4-b7e4-13575cbdc646" d="M207.49,154.17l-5-30.92,8.17-1.32,8.26,10.29a89,89,0,0,1,6.75,9.79l.14,0a115.83,115.83,0,0,1-2.68-12.79l-1.46-9,6.43-1,5,30.93-7.34,1.18-8.53-10.86a114.47,114.47,0,0,1-7.13-10.05l-.13.07c.84,4.05,1.63,8.39,2.45,13.44l1.5,9.31Z" transform="translate(-0.51 -1.63)"/><path class="2cade051-273c-43b4-b7e4-13575cbdc646" d="M255.44,133l-11.38,1.84,1.19,7.34L258,140.13l.92,5.74-19.73,3.19-5-30.93,19.08-3.08.93,5.73-12.07,2,1,6.43,11.38-1.84Z" transform="translate(-0.51 -1.63)"/></svg>